<?xml version="1.0" encoding="UTF-8" standalone="no"?>
<svg
   width="186.51448mm"
   height="20.852571mm"
   viewBox="0 0 186.51448 20.852571"
   version="1.1"
   id="svg1321"
   inkscape:version="1.3.2 (091e20e, 2023-11-25, custom)"
   sodipodi:docname="angs_euler.svg"
   inkscape:export-filename="angs_euler.png"
   inkscape:export-xdpi="300"
   inkscape:export-ydpi="300"
   xmlns:inkscape="http://www.inkscape.org/namespaces/inkscape"
   xmlns:sodipodi="http://sodipodi.sourceforge.net/DTD/sodipodi-0.dtd"
   xmlns="http://www.w3.org/2000/svg"
   xmlns:svg="http://www.w3.org/2000/svg"
   xmlns:rdf="http://www.w3.org/1999/02/22-rdf-syntax-ns#"
   xmlns:cc="http://creativecommons.org/ns#"
   xmlns:dc="http://purl.org/dc/elements/1.1/">
  <sodipodi:namedview
     id="base"
     pagecolor="#ffffff"
     bordercolor="#666666"
     borderopacity="1.0"
     inkscape:pageopacity="0.0"
     inkscape:pageshadow="2"
     inkscape:zoom="1.979899"
     inkscape:cx="449.0128"
     inkscape:cy="62.376919"
     inkscape:document-units="mm"
     inkscape:current-layer="layer1"
     inkscape:document-rotation="0"
     showgrid="false"
     showborder="false"
     inkscape:snap-smooth-nodes="true"
     inkscape:window-width="1920"
     inkscape:window-height="1009"
     inkscape:window-x="-8"
     inkscape:window-y="-8"
     inkscape:window-maximized="1"
     inkscape:showpageshadow="2"
     inkscape:pagecheckerboard="0"
     inkscape:deskcolor="#d1d1d1"
     inkscape:export-bgcolor="#ffffffff" />
  <defs
     id="defs1315">
    <inkscape:path-effect
       effect="spiro"
       id="path-effect1974"
       is_visible="true"
       lpeversion="1" />
    <inkscape:path-effect
       effect="simplify"
       id="path-effect1972"
       is_visible="true"
       lpeversion="1"
       steps="1"
       threshold="0.00243902"
       smooth_angles="360"
       helper_size="0"
       simplify_individual_paths="false"
       simplify_just_coalesce="false" />
  </defs>
  <metadata
     id="metadata1318">
    <rdf:RDF>
      <cc:Work
         rdf:about="">
        <dc:format>image/svg+xml</dc:format>
        <dc:type
           rdf:resource="http://purl.org/dc/dcmitype/StillImage" />
        <dc:title />
      </cc:Work>
    </rdf:RDF>
  </metadata>
  <g
     inkscape:label="Layer 1"
     inkscape:groupmode="layer"
     id="layer1"
     transform="translate(-11.8551, -127.595)">
    <circle
       style="fill:#ffffff;stroke:#000000;stroke-width:0.451828;stroke-linejoin:bevel"
       id="path1884"
       cx="21.671101"
       cy="138.6312"
       r="9.5900517" />
    <circle
       style="fill:#ffffff;stroke:#000000;stroke-width:0.419328;stroke-linejoin:bevel;stroke-miterlimit:4;stroke-dasharray:none"
       id="circle1892"
       cx="77.53421"
       cy="138.51338"
       r="8.9002485" />
    <g
       id="g1926">
      <path
         style="fill:none;stroke:#000000;stroke-width:0.765;stroke-linecap:butt;stroke-linejoin:miter;stroke-miterlimit:4;stroke-dasharray:none;stroke-opacity:1"
         d="m 31.261152,138.6312 h 32.6133"
         id="path1894" />
      <path
         style="fill:#000000;stroke:#000000;stroke-width:0.264583px;stroke-linecap:butt;stroke-linejoin:miter;stroke-opacity:1"
         d="m 68.633962,138.51338 -4.908383,-2.18834 0.145023,4.62162 4.76336,-2.43328"
         id="path1896" />
    </g>
    <circle
       style="fill:#ffffff;stroke:#000000;stroke-width:0.451828;stroke-linejoin:bevel"
       id="circle1906"
       cx="133.39732"
       cy="138.39557"
       r="9.5900517" />
    <circle
       style="fill:#ffffff;stroke:#000000;stroke-width:0.419328;stroke-linejoin:bevel;stroke-miterlimit:4;stroke-dasharray:none"
       id="circle1908"
       cx="189.2597"
       cy="138.27776"
       r="8.9002485" />
    <path
       style="fill:none;stroke:#000000;stroke-width:0.765;stroke-linecap:butt;stroke-linejoin:miter;stroke-miterlimit:4;stroke-dasharray:none;stroke-opacity:1"
       d="m 142.98755,138.39556 h 32.61348"
       id="path1910" />
    <path
       style="fill:#000000;stroke:#000000;stroke-width:0.264583px;stroke-linecap:butt;stroke-linejoin:miter;stroke-opacity:1"
       d="m 180.36057,138.27774 -4.90841,-2.18834 0.14502,4.62162 4.76339,-2.43328"
       id="path1912" />
    <g
       id="g1932"
       transform="translate(55.173307,-0.11781804)">
      <path
         style="fill:none;stroke:#000000;stroke-width:0.765;stroke-linecap:butt;stroke-linejoin:miter;stroke-miterlimit:4;stroke-dasharray:none;stroke-opacity:1"
         d="m 31.261152,138.6312 h 32.6133"
         id="path1928" />
      <path
         style="fill:#000000;stroke:#000000;stroke-width:0.264583px;stroke-linecap:butt;stroke-linejoin:miter;stroke-opacity:1"
         d="m 68.633962,138.51338 -4.908383,-2.18834 0.145023,4.62162 4.76336,-2.43328"
         id="path1930" />
    </g>
    <g
       inkscape:label=""
       transform="translate(18.269602,136.74811)"
       id="g1">
      <g
         fill="#000000"
         fill-opacity="1"
         id="g2"
         transform="matrix(0.352778,0,0,0.352778,-1.03933,-0.706129)">
        <g
           id="use1"
           transform="translate(1.993,16.111)">
          <path
             d="m 15.28125,-11.9375 c 0.234375,-0.890625 0.5625,-1.515625 2.125,-1.578125 0.0625,0 0.3125,-0.01563 0.3125,-0.359375 0,-0.234375 -0.1875,-0.234375 -0.265625,-0.234375 -0.40625,0 -1.46875,0.04687 -1.875,0.04687 h -1 c -0.28125,0 -0.65625,-0.04687 -0.9375,-0.04687 -0.125,0 -0.375,0 -0.375,0.390625 0,0.203125 0.15625,0.203125 0.3125,0.203125 1.234375,0.04687 1.3125,0.515625 1.3125,0.890625 0,0.1875 -0.01563,0.25 -0.07813,0.546875 l -2.34375,9.3125 L 8.0625,-13.75 c -0.15625,-0.34375 -0.171875,-0.359375 -0.625,-0.359375 H 4.921875 c -0.421875,0 -0.609375,0 -0.609375,0.390625 0,0.203125 0.15625,0.203125 0.546875,0.203125 0.09375,0 1.3125,0 1.3125,0.1875 0,0.04687 -0.03125,0.21875 -0.0625,0.265625 l -2.75,10.953125 C 3.125,-1.09375 2.625,-0.65625 1.265625,-0.59375 c -0.109375,0 -0.3125,0.015625 -0.3125,0.390625 C 0.953125,0 1.15625,0 1.21875,0 1.625,0 2.6875,-0.046875 3.09375,-0.046875 h 1 C 4.375,-0.046875 4.734375,0 5.015625,0 c 0.15625,0 0.375,0 0.375,-0.390625 0,-0.1875 -0.203125,-0.203125 -0.28125,-0.203125 C 4.421875,-0.625 3.765625,-0.75 3.765625,-1.484375 3.765625,-1.65625 3.796875,-1.84375 3.84375,-2 L 6.625,-13.0625 c 0.125,0.21875 0.125,0.25 0.21875,0.4375 L 11.75,-0.375 C 11.859375,-0.125 11.890625,0 12.078125,0 c 0.21875,0 0.234375,-0.0625 0.3125,-0.40625 z m 0,0"
             id="path2" />
        </g>
      </g>
    </g>
    <g
       inkscape:label=""
       transform="translate(74.128933,136.08093)"
       id="g5">
      <g
         fill="#000000"
         fill-opacity="1"
         id="g4"
         transform="matrix(0.352778,0,0,0.352778,-0.951133,-0.480131)">
        <g
           id="g3"
           transform="translate(1.993,16.111)">
          <path
             d="M 3.515625,-2.296875 C 2.78125,-1.078125 2.09375,-0.65625 1.09375,-0.59375 0.875,-0.578125 0.703125,-0.578125 0.703125,-0.203125 0.703125,-0.078125 0.8125,0 0.953125,0 1.328125,0 2.25,-0.046875 2.625,-0.046875 3.21875,-0.046875 3.890625,0 4.46875,0 c 0.109375,0 0.359375,0 0.359375,-0.390625 0,-0.1875 -0.15625,-0.203125 -0.28125,-0.203125 -0.484375,-0.046875 -0.875,-0.21875 -0.875,-0.703125 0,-0.296875 0.125,-0.515625 0.390625,-0.96875 L 5.640625,-4.875 h 5.265625 c 0.01563,0.1875 0.01563,0.34375 0.04687,0.53125 0.0625,0.546875 0.296875,2.6875 0.296875,3.078125 0,0.625 -1.046875,0.671875 -1.375,0.671875 -0.234375,0 -0.453125,0 -0.453125,0.359375 C 9.421875,0 9.609375,0 9.734375,0 10.078125,0 10.5,-0.046875 10.84375,-0.046875 h 1.171875 C 13.28125,-0.046875 14.1875,0 14.21875,0 c 0.140625,0 0.359375,0 0.359375,-0.390625 0,-0.203125 -0.1875,-0.203125 -0.484375,-0.203125 -1.140625,0 -1.15625,-0.1875 -1.21875,-0.8125 L 11.609375,-14.296875 C 11.5625,-14.703125 11.484375,-14.75 11.25,-14.75 c -0.203125,0 -0.328125,0.04687 -0.515625,0.359375 z m 2.46875,-3.171875 4.15625,-6.953125 0.703125,6.953125 z m 0,0"
             id="path1" />
        </g>
      </g>
    </g>
    <g
       inkscape:label=""
       transform="translate(130.52275,136.08093)"
       id="g8">
      <g
         fill="#000000"
         fill-opacity="1"
         id="g7"
         transform="matrix(0.352778,0,0,0.352778,-1.05035,-0.706129)">
        <g
           id="g6"
           transform="translate(1.993,16.111)">
          <path
             d="m 7.5625,-12.703125 c 0.1875,-0.765625 0.265625,-0.8125 1.078125,-0.8125 H 11.3125 c 2.34375,0 2.34375,1.984375 2.34375,2.171875 0,1.671875 -1.671875,3.796875 -4.40625,3.796875 H 6.28125 Z M 11.046875,-7.375 c 2.25,-0.40625 4.296875,-1.984375 4.296875,-3.875 0,-1.625 -1.421875,-2.859375 -3.75,-2.859375 H 4.953125 c -0.390625,0 -0.578125,0 -0.578125,0.390625 0,0.203125 0.1875,0.203125 0.5,0.203125 1.265625,0 1.265625,0.171875 1.265625,0.40625 0,0.03125 0,0.15625 -0.09375,0.46875 L 3.265625,-1.53125 c -0.1875,0.71875 -0.234375,0.9375 -1.671875,0.9375 -0.390625,0 -0.609375,0 -0.609375,0.359375 C 0.984375,0 1.109375,0 1.53125,0 h 7.078125 c 3.171875,0 5.609375,-2.390625 5.609375,-4.484375 0,-1.6875 -1.5,-2.71875 -3.171875,-2.890625 z M 8.125,-0.59375 H 5.328125 c -0.28125,0 -0.328125,0 -0.453125,-0.03125 -0.234375,-0.015625 -0.25,-0.0625 -0.25,-0.21875 0,-0.140625 0.046875,-0.265625 0.078125,-0.453125 L 6.15625,-7.125 h 3.875 c 2.4375,0 2.4375,2.265625 2.4375,2.4375 0,1.984375 -1.796875,4.09375 -4.34375,4.09375 z m 0,0"
             id="path5" />
        </g>
      </g>
    </g>
    <g
       inkscape:label=""
       transform="translate(186.38208,135.41276)"
       id="g11">
      <g
         fill="#000000"
         fill-opacity="1"
         id="g10"
         transform="matrix(0.352778,0,0,0.352778,-1.06689,-0.551789)">
        <g
           id="g9"
           transform="translate(1.993,16.111)">
          <path
             d="m 15.4375,-14.359375 c 0,-0.1875 -0.15625,-0.1875 -0.1875,-0.1875 -0.04687,0 -0.125,0 -0.296875,0.21875 l -1.421875,1.734375 c -0.71875,-1.25 -1.859375,-1.953125 -3.40625,-1.953125 -4.46875,0 -9.09375,4.53125 -9.09375,9.375 0,3.453125 2.421875,5.609375 5.4375,5.609375 1.65625,0 3.09375,-0.703125 4.296875,-1.71875 1.796875,-1.5 2.328125,-3.515625 2.328125,-3.671875 0,-0.1875 -0.15625,-0.1875 -0.21875,-0.1875 -0.1875,0 -0.21875,0.125 -0.25,0.203125 -0.953125,3.21875 -3.75,4.765625 -5.8125,4.765625 -2.1875,0 -4.078125,-1.390625 -4.078125,-4.328125 0,-0.671875 0.203125,-4.265625 2.53125,-6.96875 1.140625,-1.3125 3.078125,-2.46875 5.046875,-2.46875 2.265625,0 3.28125,1.875 3.28125,3.984375 0,0.53125 -0.0625,0.984375 -0.0625,1.078125 0,0.171875 0.203125,0.171875 0.265625,0.171875 0.234375,0 0.25,-0.015625 0.328125,-0.390625 z m 0,0"
             id="path8" />
        </g>
      </g>
    </g>
    <g
       inkscape:label=""
       transform="translate(40.720209,129.26556)"
       id="g17">
      <g
         fill="#000000"
         fill-opacity="1"
         id="g12"
         transform="matrix(0.352778,0,0,0.352778,-1.04484,-0.70635)">
        <g
           id="use5"
           transform="translate(1.993,17.471001)">
          <path
             d="m 7.59375,-12.703125 c 0.1875,-0.765625 0.28125,-0.8125 1.078125,-0.8125 h 1.484375 c 1.78125,0 3.109375,0.546875 3.109375,2.15625 0,1.046875 -0.546875,4.09375 -4.6875,4.09375 h -2.34375 z m 2.875,5.6875 c 2.5625,-0.5625 4.5625,-2.21875 4.5625,-4 0,-1.609375 -1.625,-3.09375 -4.5,-3.09375 H 4.9375 c -0.40625,0 -0.59375,0 -0.59375,0.390625 0,0.203125 0.140625,0.203125 0.53125,0.203125 1.234375,0 1.234375,0.171875 1.234375,0.40625 0,0.03125 0,0.15625 -0.078125,0.46875 L 3.25,-1.53125 c -0.1875,0.71875 -0.234375,0.9375 -1.65625,0.9375 -0.484375,0 -0.625,0 -0.625,0.390625 C 0.96875,0 1.203125,0 1.265625,0 1.625,0 2.0625,-0.046875 2.453125,-0.046875 h 2.4375 c 0.375,0 0.8125,0.046875 1.1875,0.046875 0.15625,0 0.390625,0 0.390625,-0.390625 0,-0.203125 -0.1875,-0.203125 -0.5,-0.203125 -1.265625,0 -1.265625,-0.171875 -1.265625,-0.375 0,-0.015625 0,-0.171875 0.046875,-0.328125 l 1.390625,-5.5625 h 2.46875 c 1.96875,0 2.34375,1.234375 2.34375,1.921875 0,0.3125 -0.21875,1.109375 -0.359375,1.65625 -0.21875,0.953125 -0.28125,1.171875 -0.28125,1.5625 0,1.46875 1.1875,2.15625 2.578125,2.15625 1.671875,0 2.390625,-2.046875 2.390625,-2.34375 0,-0.140625 -0.09375,-0.203125 -0.21875,-0.203125 -0.171875,0 -0.203125,0.125 -0.25,0.296875 -0.5,1.46875 -1.34375,1.828125 -1.859375,1.828125 -0.515625,0 -0.84375,-0.21875 -0.84375,-1.15625 0,-0.484375 0.25,-2.375 0.265625,-2.46875 0.09375,-0.765625 0.09375,-0.859375 0.09375,-1.015625 0,-1.515625 -1.21875,-2.15625 -2,-2.390625 z m 0,0"
             id="path10" />
        </g>
      </g>
      <g
         fill="#000000"
         fill-opacity="1"
         id="g13"
         transform="matrix(0.352778,0,0,0.352778,-1.04484,-0.70635)">
        <g
           id="use6"
           transform="translate(17.392,20.57)">
          <path
             d="m 6.796875,-5.859375 c -0.453125,0.09375 -0.625,0.4375 -0.625,0.703125 0,0.34375 0.265625,0.46875 0.46875,0.46875 0.4375,0 0.734375,-0.375 0.734375,-0.765625 0,-0.59375 -0.6875,-0.875 -1.296875,-0.875 -0.875,0 -1.359375,0.859375 -1.484375,1.140625 C 4.265625,-6.265625 3.375,-6.328125 3.109375,-6.328125 1.65625,-6.328125 0.875,-4.453125 0.875,-4.125 0.875,-4.078125 0.9375,-4 1.03125,-4 1.140625,-4 1.171875,-4.09375 1.203125,-4.140625 1.6875,-5.734375 2.65625,-6.03125 3.0625,-6.03125 c 0.65625,0 0.78125,0.59375 0.78125,0.9375 0,0.3125 -0.078125,0.640625 -0.265625,1.328125 l -0.484375,1.96875 c -0.203125,0.859375 -0.625,1.65625 -1.390625,1.65625 -0.0625,0 -0.421875,0 -0.734375,-0.1875 0.515625,-0.109375 0.640625,-0.53125 0.640625,-0.703125 0,-0.28125 -0.21875,-0.453125 -0.484375,-0.453125 -0.34375,0 -0.71875,0.296875 -0.71875,0.75 0,0.609375 0.671875,0.875 1.28125,0.875 0.6875,0 1.1875,-0.546875 1.484375,-1.125 0.234375,0.84375 0.9375,1.125 1.46875,1.125 1.46875,0 2.25,-1.875 2.25,-2.1875 0,-0.078125 -0.0625,-0.140625 -0.15625,-0.140625 -0.125,0 -0.140625,0.078125 -0.171875,0.1875 -0.390625,1.265625 -1.234375,1.859375 -1.875,1.859375 -0.5,0 -0.765625,-0.375 -0.765625,-0.96875 0,-0.3125 0.046875,-0.546875 0.28125,-1.484375 l 0.5,-1.953125 C 4.921875,-5.40625 5.40625,-6.03125 6.0625,-6.03125 c 0.03125,0 0.4375,0 0.734375,0.171875 z m 0,0"
             id="path11" />
        </g>
      </g>
      <g
         fill="#000000"
         fill-opacity="1"
         id="g14"
         transform="matrix(0.352778,0,0,0.352778,-1.04484,-0.70635)">
        <g
           id="use7"
           transform="translate(25.872999,17.471001)">
          <path
             d="m 6.328125,5.046875 c 0,-0.03125 0,-0.0625 -0.0625,-0.125 -0.953125,-0.96875 -3.5,-3.625 -3.5,-10.0625 0,-6.453125 2.5,-9.078125 3.515625,-10.109375 0,-0.01563 0.046875,-0.0625 0.046875,-0.125 0,-0.0625 -0.0625,-0.09375 -0.15625,-0.09375 -0.21875,0 -1.984375,1.53125 -2.984375,3.796875 -1.046875,2.296875 -1.328125,4.53125 -1.328125,6.5 0,1.5 0.140625,4.015625 1.390625,6.6875 0.984375,2.140625 2.671875,3.65625 2.921875,3.65625 0.109375,0 0.15625,-0.046875 0.15625,-0.125 z m 0,0"
             id="path12" />
        </g>
      </g>
      <g
         fill="#000000"
         fill-opacity="1"
         id="g15"
         transform="matrix(0.352778,0,0,0.352778,-1.04484,-0.70635)">
        <g
           id="use8"
           transform="translate(33.189999,17.471001)">
          <path
             d="m 9.15625,-10.390625 c 0,-2.109375 -0.671875,-4.15625 -2.359375,-4.15625 -2.890625,0 -5.96875,6.0625 -5.96875,10.59375 0,0.953125 0.203125,4.15625 2.375,4.15625 2.8125,0 5.953125,-5.90625 5.953125,-10.59375 z m -6.265625,2.90625 c 0.3125,-1.21875 0.75,-2.953125 1.578125,-4.40625 0.671875,-1.25 1.390625,-2.234375 2.3125,-2.234375 0.671875,0 1.125,0.578125 1.125,2.5625 0,0.734375 -0.0625,1.765625 -0.65625,4.078125 z m 4.21875,0.625 c -0.515625,2.03125 -0.953125,3.328125 -1.703125,4.625 -0.59375,1.0625 -1.3125,2.03125 -2.1875,2.03125 -0.640625,0 -1.15625,-0.5 -1.15625,-2.546875 0,-1.34375 0.328125,-2.75 0.671875,-4.109375 z m 0,0"
             id="path13" />
        </g>
      </g>
      <g
         fill="#000000"
         fill-opacity="1"
         id="g16"
         transform="matrix(0.352778,0,0,0.352778,-1.04484,-0.70635)">
        <g
           id="use9"
           transform="translate(43.18,17.471001)">
          <path
             d="m 5.4375,-5.140625 c 0,-1.484375 -0.15625,-4.015625 -1.390625,-6.671875 -0.984375,-2.15625 -2.6875,-3.65625 -2.9375,-3.65625 -0.0625,0 -0.140625,0.01563 -0.140625,0.125 0,0.03125 0.015625,0.0625 0.046875,0.09375 C 2,-14.21875 4.53125,-11.59375 4.53125,-5.171875 4.53125,1.28125 2.03125,3.90625 1.015625,4.9375 0.984375,4.984375 0.96875,5 0.96875,5.046875 c 0,0.09375 0.078125,0.125 0.140625,0.125 0.234375,0 1.984375,-1.53125 3,-3.8125 1.03125,-2.28125 1.328125,-4.515625 1.328125,-6.5 z m 0,0"
             id="path14" />
        </g>
      </g>
    </g>
    <g
       inkscape:label=""
       transform="translate(96.579548,129.53281)"
       id="g28">
      <g
         fill="#000000"
         fill-opacity="1"
         id="g19"
         transform="matrix(0.352778,0,0,0.352778,-1.04484,-0.70635)">
        <g
           id="g18"
           transform="translate(1.993,17.471001)">
          <path
             d="m 7.59375,-12.703125 c 0.1875,-0.765625 0.28125,-0.8125 1.078125,-0.8125 h 1.484375 c 1.78125,0 3.109375,0.546875 3.109375,2.15625 0,1.046875 -0.546875,4.09375 -4.6875,4.09375 h -2.34375 z m 2.875,5.6875 c 2.5625,-0.5625 4.5625,-2.21875 4.5625,-4 0,-1.609375 -1.625,-3.09375 -4.5,-3.09375 H 4.9375 c -0.40625,0 -0.59375,0 -0.59375,0.390625 0,0.203125 0.140625,0.203125 0.53125,0.203125 1.234375,0 1.234375,0.171875 1.234375,0.40625 0,0.03125 0,0.15625 -0.078125,0.46875 L 3.25,-1.53125 c -0.1875,0.71875 -0.234375,0.9375 -1.65625,0.9375 -0.484375,0 -0.625,0 -0.625,0.390625 C 0.96875,0 1.203125,0 1.265625,0 1.625,0 2.0625,-0.046875 2.453125,-0.046875 h 2.4375 c 0.375,0 0.8125,0.046875 1.1875,0.046875 0.15625,0 0.390625,0 0.390625,-0.390625 0,-0.203125 -0.1875,-0.203125 -0.5,-0.203125 -1.265625,0 -1.265625,-0.171875 -1.265625,-0.375 0,-0.015625 0,-0.171875 0.046875,-0.328125 l 1.390625,-5.5625 h 2.46875 c 1.96875,0 2.34375,1.234375 2.34375,1.921875 0,0.3125 -0.21875,1.109375 -0.359375,1.65625 -0.21875,0.953125 -0.28125,1.171875 -0.28125,1.5625 0,1.46875 1.1875,2.15625 2.578125,2.15625 1.671875,0 2.390625,-2.046875 2.390625,-2.34375 0,-0.140625 -0.09375,-0.203125 -0.21875,-0.203125 -0.171875,0 -0.203125,0.125 -0.25,0.296875 -0.5,1.46875 -1.34375,1.828125 -1.859375,1.828125 -0.515625,0 -0.84375,-0.21875 -0.84375,-1.15625 0,-0.484375 0.25,-2.375 0.265625,-2.46875 0.09375,-0.765625 0.09375,-0.859375 0.09375,-1.015625 0,-1.515625 -1.21875,-2.15625 -2,-2.390625 z m 0,0"
             id="path17" />
        </g>
      </g>
      <g
         fill="#000000"
         fill-opacity="1"
         id="g21"
         transform="matrix(0.352778,0,0,0.352778,-1.04484,-0.70635)">
        <g
           id="g20"
           transform="translate(17.392,20.57)">
          <path
             d="m 3.765625,1.609375 c -0.375,0.546875 -0.9375,1.03125 -1.640625,1.03125 -0.171875,0 -0.859375,-0.03125 -1.078125,-0.6875 C 1.09375,1.96875 1.15625,1.96875 1.1875,1.96875 c 0.4375,0 0.71875,-0.375 0.71875,-0.703125 C 1.90625,0.9375 1.640625,0.8125 1.421875,0.8125 1.1875,0.8125 0.6875,0.984375 0.6875,1.6875 c 0,0.734375 0.625,1.234375 1.4375,1.234375 1.4375,0 2.875,-1.3125 3.28125,-2.90625 l 1.40625,-5.59375 c 0.015625,-0.078125 0.046875,-0.15625 0.046875,-0.25 0,-0.203125 -0.171875,-0.359375 -0.390625,-0.359375 -0.125,0 -0.4375,0.0625 -0.546875,0.5 l -1.0625,4.203125 c -0.0625,0.265625 -0.0625,0.296875 -0.1875,0.453125 -0.28125,0.40625 -0.75,0.890625 -1.4375,0.890625 -0.8125,0 -0.875,-0.796875 -0.875,-1.171875 0,-0.828125 0.375,-1.921875 0.765625,-2.96875 0.15625,-0.40625 0.25,-0.609375 0.25,-0.890625 0,-0.609375 -0.4375,-1.15625 -1.140625,-1.15625 -1.3125,0 -1.84375,2.078125 -1.84375,2.203125 0,0.046875 0.046875,0.125 0.15625,0.125 C 0.671875,-4 0.6875,-4.0625 0.75,-4.265625 1.09375,-5.46875 1.640625,-6.03125 2.1875,-6.03125 c 0.140625,0 0.375,0 0.375,0.46875 0,0.375 -0.15625,0.78125 -0.375,1.328125 -0.703125,1.875 -0.703125,2.359375 -0.703125,2.703125 0,1.359375 0.984375,1.671875 1.703125,1.671875 0.40625,0 0.921875,-0.125 1.4375,-0.65625 L 4.640625,-0.5 c -0.21875,0.84375 -0.359375,1.40625 -0.875,2.109375 z m 0,0"
             id="path19" />
        </g>
      </g>
      <g
         fill="#000000"
         fill-opacity="1"
         id="g23"
         transform="matrix(0.352778,0,0,0.352778,-1.04484,-0.70635)">
        <g
           id="g22"
           transform="translate(25.254,17.471001)">
          <path
             d="m 6.328125,5.046875 c 0,-0.03125 0,-0.0625 -0.0625,-0.125 -0.953125,-0.96875 -3.5,-3.625 -3.5,-10.0625 0,-6.453125 2.5,-9.078125 3.515625,-10.109375 0,-0.01563 0.046875,-0.0625 0.046875,-0.125 0,-0.0625 -0.0625,-0.09375 -0.15625,-0.09375 -0.21875,0 -1.984375,1.53125 -2.984375,3.796875 -1.046875,2.296875 -1.328125,4.53125 -1.328125,6.5 0,1.5 0.140625,4.015625 1.390625,6.6875 0.984375,2.140625 2.671875,3.65625 2.921875,3.65625 0.109375,0 0.15625,-0.046875 0.15625,-0.125 z m 0,0"
             id="path21" />
        </g>
      </g>
      <g
         fill="#000000"
         fill-opacity="1"
         id="g25"
         transform="matrix(0.352778,0,0,0.352778,-1.04484,-0.70635)">
        <g
           id="g24"
           transform="translate(32.570999,17.471001)">
          <path
             d="m 8.875,-14.15625 c 0,-0.171875 -0.140625,-0.171875 -0.203125,-0.171875 -0.1875,0 -0.203125,0.03125 -0.28125,0.390625 L 7.265625,-9.5 C 7.203125,-9.234375 7.1875,-9.21875 7.171875,-9.1875 7.140625,-9.15625 7,-9.125 6.96875,-9.125 c -3.390625,0.28125 -6,3.078125 -6,5.65625 0,2.234375 1.71875,3.59375 3.859375,3.71875 C 4.671875,0.890625 4.53125,1.546875 4.359375,2.1875 4.0625,3.28125 3.90625,3.96875 3.90625,4.046875 c 0,0.046875 0,0.171875 0.203125,0.171875 0.0625,0 0.140625,0 0.1875,-0.09375 0.046875,-0.03125 0.171875,-0.53125 0.25,-0.796875 L 5.3125,0.25 c 3.53125,-0.1875 6.21875,-3.078125 6.21875,-5.6875 0,-2.078125 -1.578125,-3.5625 -3.875,-3.71875 z m -1.328125,5.421875 c 1.359375,0.078125 2.71875,0.84375 2.71875,2.875 0,2.328125 -1.625,5.421875 -4.859375,5.671875 z m -2.609375,8.5625 c -1.015625,-0.0625 -2.703125,-0.59375 -2.703125,-2.859375 0,-2.609375 1.875,-5.5 4.84375,-5.6875 z m 0,0"
             id="path23" />
        </g>
      </g>
      <g
         fill="#000000"
         fill-opacity="1"
         id="g27"
         transform="matrix(0.352778,0,0,0.352778,-1.04484,-0.70635)">
        <g
           id="g26"
           transform="translate(44.546001,17.471001)">
          <path
             d="m 5.4375,-5.140625 c 0,-1.484375 -0.15625,-4.015625 -1.390625,-6.671875 -0.984375,-2.15625 -2.6875,-3.65625 -2.9375,-3.65625 -0.0625,0 -0.140625,0.01563 -0.140625,0.125 0,0.03125 0.015625,0.0625 0.046875,0.09375 C 2,-14.21875 4.53125,-11.59375 4.53125,-5.171875 4.53125,1.28125 2.03125,3.90625 1.015625,4.9375 0.984375,4.984375 0.96875,5 0.96875,5.046875 c 0,0.09375 0.078125,0.125 0.140625,0.125 0.234375,0 1.984375,-1.53125 3,-3.8125 1.03125,-2.28125 1.328125,-4.515625 1.328125,-6.5 z m 0,0"
             id="path25" />
        </g>
      </g>
    </g>
    <g
       inkscape:label=""
       transform="translate(151.3693,129.53281)"
       id="g39">
      <g
         fill="#000000"
         fill-opacity="1"
         id="g30"
         transform="matrix(0.352778,0,0,0.352778,-1.04484,-0.70635)">
        <g
           id="g29"
           transform="translate(1.993,17.471001)">
          <path
             d="m 7.59375,-12.703125 c 0.1875,-0.765625 0.28125,-0.8125 1.078125,-0.8125 h 1.484375 c 1.78125,0 3.109375,0.546875 3.109375,2.15625 0,1.046875 -0.546875,4.09375 -4.6875,4.09375 h -2.34375 z m 2.875,5.6875 c 2.5625,-0.5625 4.5625,-2.21875 4.5625,-4 0,-1.609375 -1.625,-3.09375 -4.5,-3.09375 H 4.9375 c -0.40625,0 -0.59375,0 -0.59375,0.390625 0,0.203125 0.140625,0.203125 0.53125,0.203125 1.234375,0 1.234375,0.171875 1.234375,0.40625 0,0.03125 0,0.15625 -0.078125,0.46875 L 3.25,-1.53125 c -0.1875,0.71875 -0.234375,0.9375 -1.65625,0.9375 -0.484375,0 -0.625,0 -0.625,0.390625 C 0.96875,0 1.203125,0 1.265625,0 1.625,0 2.0625,-0.046875 2.453125,-0.046875 h 2.4375 c 0.375,0 0.8125,0.046875 1.1875,0.046875 0.15625,0 0.390625,0 0.390625,-0.390625 0,-0.203125 -0.1875,-0.203125 -0.5,-0.203125 -1.265625,0 -1.265625,-0.171875 -1.265625,-0.375 0,-0.015625 0,-0.171875 0.046875,-0.328125 l 1.390625,-5.5625 h 2.46875 c 1.96875,0 2.34375,1.234375 2.34375,1.921875 0,0.3125 -0.21875,1.109375 -0.359375,1.65625 -0.21875,0.953125 -0.28125,1.171875 -0.28125,1.5625 0,1.46875 1.1875,2.15625 2.578125,2.15625 1.671875,0 2.390625,-2.046875 2.390625,-2.34375 0,-0.140625 -0.09375,-0.203125 -0.21875,-0.203125 -0.171875,0 -0.203125,0.125 -0.25,0.296875 -0.5,1.46875 -1.34375,1.828125 -1.859375,1.828125 -0.515625,0 -0.84375,-0.21875 -0.84375,-1.15625 0,-0.484375 0.25,-2.375 0.265625,-2.46875 0.09375,-0.765625 0.09375,-0.859375 0.09375,-1.015625 0,-1.515625 -1.21875,-2.15625 -2,-2.390625 z m 0,0"
             id="path28" />
        </g>
      </g>
      <g
         fill="#000000"
         fill-opacity="1"
         id="g32"
         transform="matrix(0.352778,0,0,0.352778,-1.04484,-0.70635)">
        <g
           id="g31"
           transform="translate(17.392,20.57)">
          <path
             d="M 1.828125,-1.15625 C 2.4375,-1.859375 2.9375,-2.3125 3.65625,-2.953125 c 0.859375,-0.75 1.234375,-1.109375 1.4375,-1.328125 1,-0.984375 1.5,-1.8125 1.5,-1.921875 0,-0.125 -0.109375,-0.125 -0.140625,-0.125 -0.09375,0 -0.125,0.0625 -0.203125,0.15625 C 5.890625,-5.546875 5.546875,-5.25 5.171875,-5.25 4.875,-5.25 4.71875,-5.375 4.453125,-5.71875 4.140625,-6.078125 3.90625,-6.328125 3.484375,-6.328125 c -1.046875,0 -1.671875,1.3125 -1.671875,1.609375 0,0.046875 0.015625,0.125 0.140625,0.125 0.109375,0 0.125,-0.046875 0.171875,-0.15625 0.234375,-0.578125 0.9375,-0.671875 1.203125,-0.671875 0.296875,0 0.59375,0.09375 0.890625,0.234375 0.546875,0.21875 0.765625,0.21875 0.921875,0.21875 0.09375,0 0.15625,0 0.21875,-0.015625 -0.46875,0.5625 -1.25,1.25 -1.890625,1.84375 L 2.015625,-1.8125 c -0.875,0.890625 -1.40625,1.734375 -1.40625,1.84375 0,0.078125 0.078125,0.109375 0.171875,0.109375 0.078125,0 0.09375,-0.015625 0.1875,-0.1875 C 1.203125,-0.40625 1.65625,-0.9375 2.1875,-0.9375 c 0.3125,0 0.453125,0.109375 0.734375,0.46875 0.28125,0.3125 0.515625,0.609375 0.984375,0.609375 1.40625,0 2.203125,-1.8125 2.203125,-2.15625 0,-0.046875 -0.015625,-0.140625 -0.15625,-0.140625 -0.109375,0 -0.125,0.0625 -0.171875,0.203125 -0.3125,0.84375 -1.15625,1.1875 -1.71875,1.1875 -0.296875,0 -0.59375,-0.09375 -0.890625,-0.21875 C 2.59375,-1.21875 2.4375,-1.21875 2.25,-1.21875 c -0.140625,0 -0.296875,0 -0.421875,0.0625 z m 0,0"
             id="path30" />
        </g>
      </g>
      <g
         fill="#000000"
         fill-opacity="1"
         id="g34"
         transform="matrix(0.352778,0,0,0.352778,-1.04484,-0.70635)">
        <g
           id="g33"
           transform="translate(25.055,17.471001)">
          <path
             d="m 6.328125,5.046875 c 0,-0.03125 0,-0.0625 -0.0625,-0.125 -0.953125,-0.96875 -3.5,-3.625 -3.5,-10.0625 0,-6.453125 2.5,-9.078125 3.515625,-10.109375 0,-0.01563 0.046875,-0.0625 0.046875,-0.125 0,-0.0625 -0.0625,-0.09375 -0.15625,-0.09375 -0.21875,0 -1.984375,1.53125 -2.984375,3.796875 -1.046875,2.296875 -1.328125,4.53125 -1.328125,6.5 0,1.5 0.140625,4.015625 1.390625,6.6875 0.984375,2.140625 2.671875,3.65625 2.921875,3.65625 0.109375,0 0.15625,-0.046875 0.15625,-0.125 z m 0,0"
             id="path32" />
        </g>
      </g>
      <g
         fill="#000000"
         fill-opacity="1"
         id="g36"
         transform="matrix(0.352778,0,0,0.352778,-1.04484,-0.70635)">
        <g
           id="g35"
           transform="translate(32.372002,17.471001)">
          <path
             d="M 7.8125,-2.515625 C 7.765625,-3.53125 7.71875,-5.125 6.9375,-6.984375 c -0.40625,-1.03125 -1.109375,-2.125 -2.625,-2.125 -2.53125,0 -3.921875,3.25 -3.921875,3.78125 0,0.1875 0.140625,0.1875 0.203125,0.1875 0.1875,0 0.1875,-0.046875 0.296875,-0.3125 0.4375,-1.28125 1.75,-2.296875 3.171875,-2.296875 2.875,0 3.296875,3.203125 3.296875,5.25 0,1.296875 -0.15625,1.734375 -0.28125,2.15625 -0.390625,1.265625 -1.0625,3.828125 -1.0625,4.40625 0,0.171875 0.0625,0.359375 0.21875,0.359375 0.3125,0 0.5,-0.6875 0.734375,-1.515625 0.484375,-1.8125 0.609375,-2.71875 0.71875,-3.546875 0.0625,-0.5 1.234375,-3.90625 2.875,-7.140625 0.140625,-0.34375 0.421875,-0.890625 0.421875,-0.953125 0,-0.03125 -0.01563,-0.171875 -0.203125,-0.171875 -0.04687,0 -0.140625,0 -0.1875,0.09375 -0.03125,0.03125 -0.765625,1.4375 -1.375,2.84375 -0.3125,0.703125 -0.734375,1.625 -1.40625,3.453125 z m 0,0"
             id="path34" />
        </g>
      </g>
      <g
         fill="#000000"
         fill-opacity="1"
         id="g38"
         transform="matrix(0.352778,0,0,0.352778,-1.04484,-0.70635)">
        <g
           id="g37"
           transform="translate(43.990002,17.471001)">
          <path
             d="m 5.4375,-5.140625 c 0,-1.484375 -0.15625,-4.015625 -1.390625,-6.671875 -0.984375,-2.15625 -2.6875,-3.65625 -2.9375,-3.65625 -0.0625,0 -0.140625,0.01563 -0.140625,0.125 0,0.03125 0.015625,0.0625 0.046875,0.09375 C 2,-14.21875 4.53125,-11.59375 4.53125,-5.171875 4.53125,1.28125 2.03125,3.90625 1.015625,4.9375 0.984375,4.984375 0.96875,5 0.96875,5.046875 c 0,0.09375 0.078125,0.125 0.140625,0.125 0.234375,0 1.984375,-1.53125 3,-3.8125 1.03125,-2.28125 1.328125,-4.515625 1.328125,-6.5 z m 0,0"
             id="path36" />
        </g>
      </g>
    </g>
  </g>
</svg>
