<?xml version="1.0" encoding="UTF-8" standalone="no"?>
<!-- Created with Inkscape (http://www.inkscape.org/) -->

<svg
   width="94.496765mm"
   height="74.586601mm"
   viewBox="0 0 94.496765 74.586601"
   version="1.1"
   id="svg5"
   inkscape:version="1.3.2 (091e20e, 2023-11-25, custom)"
   sodipodi:docname="batata06.svg"
   inkscape:export-filename="batata06.png"
   inkscape:export-xdpi="300"
   inkscape:export-ydpi="300"
   xmlns:inkscape="http://www.inkscape.org/namespaces/inkscape"
   xmlns:sodipodi="http://sodipodi.sourceforge.net/DTD/sodipodi-0.dtd"
   xmlns="http://www.w3.org/2000/svg"
   xmlns:svg="http://www.w3.org/2000/svg">
  <sodipodi:namedview
     id="namedview7"
     pagecolor="#ffffff"
     bordercolor="#999999"
     borderopacity="1"
     inkscape:pageshadow="0"
     inkscape:pageopacity="0"
     inkscape:pagecheckerboard="0"
     inkscape:document-units="mm"
     showgrid="false"
     inkscape:zoom="2.1649824"
     inkscape:cx="230.94876"
     inkscape:cy="134.64313"
     inkscape:window-width="1920"
     inkscape:window-height="1009"
     inkscape:window-x="-8"
     inkscape:window-y="-8"
     inkscape:window-maximized="1"
     inkscape:current-layer="layer1"
     inkscape:showpageshadow="2"
     inkscape:deskcolor="#d1d1d1"
     inkscape:export-bgcolor="#ffffffff" />
  <defs
     id="defs2">
    <marker
       style="overflow:visible"
       id="marker15"
       refX="0"
       refY="0"
       orient="auto-start-reverse"
       inkscape:stockid="Triangle arrow"
       markerWidth="1"
       markerHeight="1"
       viewBox="0 0 1 1"
       inkscape:isstock="true"
       inkscape:collect="always"
       preserveAspectRatio="xMidYMid">
      <path
         transform="scale(0.5)"
         style="fill:context-stroke;fill-rule:evenodd;stroke:context-stroke;stroke-width:1pt"
         d="M 5.77,0 -2.88,5 V -5 Z"
         id="path15" />
    </marker>
    <marker
       style="overflow:visible"
       id="marker14"
       refX="0"
       refY="0"
       orient="auto-start-reverse"
       inkscape:stockid="Triangle arrow"
       markerWidth="1"
       markerHeight="1"
       viewBox="0 0 1 1"
       inkscape:isstock="true"
       inkscape:collect="always"
       preserveAspectRatio="xMidYMid">
      <path
         transform="scale(0.5)"
         style="fill:context-stroke;fill-rule:evenodd;stroke:context-stroke;stroke-width:1pt"
         d="M 5.77,0 -2.88,5 V -5 Z"
         id="path14" />
    </marker>
    <marker
       style="overflow:visible"
       id="Triangle"
       refX="0"
       refY="0"
       orient="auto-start-reverse"
       inkscape:stockid="Triangle arrow"
       markerWidth="1"
       markerHeight="1"
       viewBox="0 0 1 1"
       inkscape:isstock="true"
       inkscape:collect="always"
       preserveAspectRatio="xMidYMid">
      <path
         transform="scale(0.5)"
         style="fill:context-stroke;fill-rule:evenodd;stroke:context-stroke;stroke-width:1pt"
         d="M 5.77,0 -2.88,5 V -5 Z"
         id="path135" />
    </marker>
    <inkscape:path-effect
       effect="spiro"
       id="path-effect2311"
       is_visible="true"
       lpeversion="1" />
    <inkscape:path-effect
       effect="simplify"
       id="path-effect2309"
       is_visible="true"
       lpeversion="1"
       steps="1"
       threshold="0.00243902"
       smooth_angles="360"
       helper_size="0"
       simplify_individual_paths="false"
       simplify_just_coalesce="false" />
    <inkscape:path-effect
       effect="spiro"
       id="path-effect2066"
       is_visible="true"
       lpeversion="1" />
    <inkscape:path-effect
       effect="simplify"
       id="path-effect2064"
       is_visible="true"
       lpeversion="1"
       steps="1"
       threshold="0.00243902"
       smooth_angles="360"
       helper_size="0"
       simplify_individual_paths="false"
       simplify_just_coalesce="false" />
    <inkscape:path-effect
       effect="spiro"
       id="path-effect2060"
       is_visible="true"
       lpeversion="1" />
    <inkscape:path-effect
       effect="simplify"
       id="path-effect2058"
       is_visible="true"
       lpeversion="1"
       steps="1"
       threshold="0.00243902"
       smooth_angles="360"
       helper_size="0"
       simplify_individual_paths="false"
       simplify_just_coalesce="false" />
    <inkscape:path-effect
       effect="spiro"
       id="path-effect1717"
       is_visible="true"
       lpeversion="1" />
    <inkscape:path-effect
       effect="simplify"
       id="path-effect1715"
       is_visible="true"
       lpeversion="1"
       steps="1"
       threshold="0.00243902"
       smooth_angles="360"
       helper_size="0"
       simplify_individual_paths="false"
       simplify_just_coalesce="false" />
    <marker
       inkscape:stockid="DistanceStart"
       orient="auto"
       refY="0"
       refX="0"
       id="DistanceStart"
       style="overflow:visible"
       inkscape:isstock="true">
      <g
         id="g2300">
        <path
           id="path2306"
           d="M 0,0 H 2"
           style="fill:none;stroke:#ffffff;stroke-width:1.15;stroke-linecap:square" />
        <path
           id="path2302"
           d="M 0,0 13,4 9,0 13,-4 Z"
           style="fill:#000000;fill-rule:evenodd;stroke:none" />
        <path
           id="path2304"
           d="M 0,-4 V 40"
           style="fill:none;stroke:#000000;stroke-width:1;stroke-linecap:square" />
      </g>
    </marker>
    <marker
       style="overflow:visible"
       id="marker1788"
       refX="0"
       refY="0"
       orient="auto"
       inkscape:stockid="Arrow1Lend"
       inkscape:isstock="true">
      <path
         transform="matrix(-0.8,0,0,-0.8,-10,0)"
         style="fill:#ff0000;fill-opacity:1;fill-rule:evenodd;stroke:#ff0000;stroke-width:1pt;stroke-opacity:1"
         d="M 0,0 5,-5 -12.5,0 5,5 Z"
         id="path1786" />
    </marker>
    <marker
       style="overflow:visible"
       id="marker1399"
       refX="0"
       refY="0"
       orient="auto"
       inkscape:stockid="Arrow1Lend"
       inkscape:isstock="true">
      <path
         transform="matrix(-0.8,0,0,-0.8,-10,0)"
         style="fill:#0000ff;fill-opacity:1;fill-rule:evenodd;stroke:#0000ff;stroke-width:1pt;stroke-opacity:1"
         d="M 0,0 5,-5 -12.5,0 5,5 Z"
         id="path1397" />
    </marker>
    <marker
       style="overflow:visible"
       id="marker1379"
       refX="0"
       refY="0"
       orient="auto"
       inkscape:stockid="Arrow1Lend"
       inkscape:isstock="true">
      <path
         transform="matrix(-0.8,0,0,-0.8,-10,0)"
         style="fill:#0000ff;fill-opacity:1;fill-rule:evenodd;stroke:#0000ff;stroke-width:1pt;stroke-opacity:1"
         d="M 0,0 5,-5 -12.5,0 5,5 Z"
         id="path1377" />
    </marker>
  </defs>
  <g
     inkscape:label="Camada 1"
     inkscape:groupmode="layer"
     id="layer1"
     transform="translate(-14.5344, -99.384)">
    <g
       id="g176"
       style="stroke-width:0.2;stroke-miterlimit:4;stroke-dasharray:none"
       transform="translate(-11.396398,18.884007)">
      <path
         style="fill:none;stroke:#000000;stroke-width:0.2;stroke-linecap:butt;stroke-linejoin:miter;stroke-miterlimit:4;stroke-dasharray:none;stroke-opacity:1"
         d="M 73.612159,127.5 V 80.499998"
         id="path170" />
      <path
         style="fill:none;stroke:#000000;stroke-width:0.2;stroke-linecap:butt;stroke-linejoin:miter;stroke-miterlimit:4;stroke-dasharray:none;stroke-opacity:1"
         d="M 120.37753,154.5 73.612159,127.5 25.980763,155 v 0"
         id="path172" />
    </g>
    <path
       style="fill:none;stroke:#000000;stroke-width:0.5;stroke-linecap:butt;stroke-linejoin:miter;stroke-miterlimit:4;stroke-dasharray:none;stroke-opacity:1;marker-end:url(#Triangle)"
       d="m 62.215759,146.38401 v -30"
       id="path12" />
    <path
       style="fill:none;stroke:#000000;stroke-width:0.5;stroke-linecap:butt;stroke-linejoin:miter;stroke-miterlimit:4;stroke-dasharray:none;stroke-opacity:1;marker-end:url(#marker14)"
       d="m 62.215759,146.38401 25.980763,15"
       id="path16" />
    <path
       style="fill:none;stroke:#000000;stroke-width:0.5;stroke-linecap:butt;stroke-linejoin:miter;stroke-miterlimit:4;stroke-dasharray:none;stroke-opacity:1;marker-end:url(#marker15)"
       d="m 62.215759,146.38401 -25.98076,15"
       id="path20" />
    <path
       style="fill:none;stroke:#000000;stroke-width:0.921889;stroke-linecap:butt;stroke-linejoin:miter;stroke-miterlimit:4;stroke-dasharray:none;stroke-opacity:1"
       d="m 103.77059,106.64506 c -1.41978,-1.1355 -2.7796,-2.35033 -4.259328,-3.4065 -0.57386,-0.40961 -1.7868,-0.35166 -2.47714,-0.43939 -0.93755,-0.11916 -1.62177,0.0413 -2.50448,0.42914 -3.49252,1.53463 -2.04437,5.177 -4.43425,7.11846 -0.59293,0.48168 -1.658896,0.83894 -2.301511,1.11933 -4.261885,1.85957 -9.210377,2.35869 -12.147912,6.38729 -1.159543,1.59016 -1.700059,3.43193 -2.131358,5.3349 -2.214678,9.77131 7.018645,18.36264 16.596531,16.76735 2.57767,-0.42934 7.82006,-3.44954 9.05573,-5.90825 1.176618,-2.34118 0.52664,-5.16203 1.778068,-7.45603 1.21258,-2.22278 3.20884,-4.02321 4.33035,-6.3012 0.56205,-1.14156 1.22465,-2.34501 1.69333,-3.52199 0.34048,-0.85499 0.14889,-1.8249 0.26106,-2.70742 0.38634,-3.03991 -1.00875,-5.77484 -3.45913,-7.41571 z"
       id="path1557" />
    <g
       id="g1908">
      <path
         style="fill:none;stroke:#ff0000;stroke-width:0.264583px;stroke-linecap:butt;stroke-linejoin:miter;stroke-opacity:1"
         d="M 62.215759,146.38401 79.354536,123.36142"
         id="path1713"
         inkscape:path-effect="#path-effect1715;#path-effect1717"
         inkscape:original-d="M 62.215759,146.38401 79.354536,123.36142" />
      <path
         style="fill:#ff0000;stroke:#ff0000;stroke-width:0.264583px;stroke-linecap:butt;stroke-linejoin:miter;stroke-opacity:1"
         d="m 79.354536,123.36142 -1.591802,0.94075 1.120547,0.77316 z"
         id="path1752" />
    </g>
    <g
       id="g2239">
      <path
         style="fill:none;stroke:#0000ff;stroke-width:0.264583px;stroke-linecap:butt;stroke-linejoin:miter;stroke-opacity:1"
         d="M 79.354536,123.36142 96.74308,115.53209"
         id="path2056"
         inkscape:path-effect="#path-effect2058;#path-effect2060"
         inkscape:original-d="M 79.354536,123.36142 96.74308,115.53209" />
      <path
         style="fill:#0000ff;stroke:#0000ff;stroke-width:0.264583px;stroke-linecap:butt;stroke-linejoin:miter;stroke-opacity:1"
         d="m 96.74308,115.53209 -2.568279,0.32162 0.6463,1.55815 z"
         id="path2101" />
    </g>
    <g
       id="g2517">
      <path
         style="fill:none;stroke:#00ff00;stroke-width:0.264583px;stroke-linecap:butt;stroke-linejoin:miter;stroke-opacity:1"
         d="M 62.215759,146.38401 96.74308,115.53209"
         id="path2307"
         inkscape:path-effect="#path-effect2309;#path-effect2311"
         inkscape:original-d="M 62.215759,146.38401 96.74308,115.53209" />
      <path
         style="fill:#00ff00;stroke:#00ff00;stroke-width:0.264583px;stroke-linecap:butt;stroke-linejoin:miter;stroke-opacity:1"
         d="m 96.74308,115.53209 -1.359239,2.63093 -1.63749,-1.34736 z"
         id="path2379" />
    </g>
    <g
       inkscape:label=""
       transform="translate(81.75012,104.94424)"
       id="g1">
      <g
         fill="#000000"
         fill-opacity="1"
         id="g2"
         transform="matrix(0.352778,0,0,0.352778,-1.05035,-0.706129)">
        <g
           id="use1"
           transform="translate(1.993,16.111)">
          <path
             d="m 7.5625,-12.703125 c 0.1875,-0.765625 0.265625,-0.8125 1.078125,-0.8125 H 11.3125 c 2.34375,0 2.34375,1.984375 2.34375,2.171875 0,1.671875 -1.671875,3.796875 -4.40625,3.796875 H 6.28125 Z M 11.046875,-7.375 c 2.25,-0.40625 4.296875,-1.984375 4.296875,-3.875 0,-1.625 -1.421875,-2.859375 -3.75,-2.859375 H 4.953125 c -0.390625,0 -0.578125,0 -0.578125,0.390625 0,0.203125 0.1875,0.203125 0.5,0.203125 1.265625,0 1.265625,0.171875 1.265625,0.40625 0,0.03125 0,0.15625 -0.09375,0.46875 L 3.265625,-1.53125 c -0.1875,0.71875 -0.234375,0.9375 -1.671875,0.9375 -0.390625,0 -0.609375,0 -0.609375,0.359375 C 0.984375,0 1.109375,0 1.53125,0 h 7.078125 c 3.171875,0 5.609375,-2.390625 5.609375,-4.484375 0,-1.6875 -1.5,-2.71875 -3.171875,-2.890625 z M 8.125,-0.59375 H 5.328125 c -0.28125,0 -0.328125,0 -0.453125,-0.03125 -0.234375,-0.015625 -0.25,-0.0625 -0.25,-0.21875 0,-0.140625 0.046875,-0.265625 0.078125,-0.453125 L 6.15625,-7.125 h 3.875 c 2.4375,0 2.4375,2.265625 2.4375,2.4375 0,1.984375 -1.796875,4.09375 -4.34375,4.09375 z m 0,0"
             id="path2" />
        </g>
      </g>
    </g>
    <g
       inkscape:label=""
       transform="translate(55.719307,110.68813)"
       id="g5">
      <g
         fill="#000000"
         fill-opacity="1"
         id="g4"
         transform="matrix(0.352778,0,0,0.352778,-1.03933,-0.706129)">
        <g
           id="g3"
           transform="translate(1.993,16.111)">
          <path
             d="m 15.28125,-11.9375 c 0.234375,-0.890625 0.5625,-1.515625 2.125,-1.578125 0.0625,0 0.3125,-0.01563 0.3125,-0.359375 0,-0.234375 -0.1875,-0.234375 -0.265625,-0.234375 -0.40625,0 -1.46875,0.04687 -1.875,0.04687 h -1 c -0.28125,0 -0.65625,-0.04687 -0.9375,-0.04687 -0.125,0 -0.375,0 -0.375,0.390625 0,0.203125 0.15625,0.203125 0.3125,0.203125 1.234375,0.04687 1.3125,0.515625 1.3125,0.890625 0,0.1875 -0.01563,0.25 -0.07813,0.546875 l -2.34375,9.3125 L 8.0625,-13.75 c -0.15625,-0.34375 -0.171875,-0.359375 -0.625,-0.359375 H 4.921875 c -0.421875,0 -0.609375,0 -0.609375,0.390625 0,0.203125 0.15625,0.203125 0.546875,0.203125 0.09375,0 1.3125,0 1.3125,0.1875 0,0.04687 -0.03125,0.21875 -0.0625,0.265625 l -2.75,10.953125 C 3.125,-1.09375 2.625,-0.65625 1.265625,-0.59375 c -0.109375,0 -0.3125,0.015625 -0.3125,0.390625 C 0.953125,0 1.15625,0 1.21875,0 1.625,0 2.6875,-0.046875 3.09375,-0.046875 h 1 C 4.375,-0.046875 4.734375,0 5.015625,0 c 0.15625,0 0.375,0 0.375,-0.390625 0,-0.1875 -0.203125,-0.203125 -0.28125,-0.203125 C 4.421875,-0.625 3.765625,-0.75 3.765625,-1.484375 3.765625,-1.65625 3.796875,-1.84375 3.84375,-2 L 6.625,-13.0625 c 0.125,0.21875 0.125,0.25 0.21875,0.4375 L 11.75,-0.375 C 11.859375,-0.125 11.890625,0 12.078125,0 c 0.21875,0 0.234375,-0.0625 0.3125,-0.40625 z m 0,0"
             id="path1" />
        </g>
      </g>
    </g>
    <g
       inkscape:label=""
       transform="translate(59.996671,148.32893)"
       id="g8">
      <g
         fill="#000000"
         fill-opacity="1"
         id="g7"
         transform="matrix(0.352778,0,0,0.352778,-1.05035,-0.551789)">
        <g
           id="g6"
           transform="translate(1.993,16.111)">
          <path
             d="m 15,-9.046875 c 0,-3.40625 -2.234375,-5.5 -5.125,-5.5 -4.421875,0 -8.890625,4.75 -8.890625,9.53125 0,3.234375 2.15625,5.453125 5.15625,5.453125 C 10.46875,0.4375 15,-4.09375 15,-9.046875 Z m -8.734375,9 c -1.703125,0 -3.5,-1.234375 -3.5,-4.453125 0,-1.875 0.6875,-4.953125 2.375,-7.03125 1.515625,-1.8125 3.25,-2.5625 4.625,-2.5625 1.828125,0 3.578125,1.328125 3.578125,4.296875 0,1.84375 -0.78125,4.71875 -2.171875,6.671875 -1.5,2.109375 -3.390625,3.078125 -4.90625,3.078125 z m 0,0"
             id="path5" />
        </g>
      </g>
    </g>
    <g
       inkscape:label=""
       transform="translate(76.617283,115.94318)"
       id="g11"
       style="fill:#ff0000">
      <g
         fill="#000000"
         fill-opacity="1"
         id="g10"
         transform="matrix(0.352778,0,0,0.352778,-1.05035,-0.552141)"
         style="fill:#ff0000">
        <g
           id="g9"
           transform="translate(1.993,16.112)"
           style="fill:#ff0000">
          <path
             d="M 8.796875,-0.125 C 12.359375,-1.546875 15,-5.3125 15,-9.046875 c 0,-3.40625 -2.234375,-5.5 -5.125,-5.5 -4.421875,0 -8.890625,4.75 -8.890625,9.53125 0,3.234375 2.15625,5.453125 5.15625,5.453125 0.703125,0 1.375,-0.109375 2.046875,-0.3125 -0.125,1.234375 -0.125,1.34375 -0.125,1.734375 0,0.59375 0,2.140625 1.640625,2.140625 2.46875,0 3.375,-3.859375 3.375,-3.984375 0,-0.125 -0.07813,-0.203125 -0.1875,-0.203125 -0.125,0 -0.171875,0.109375 -0.234375,0.328125 -0.453125,1.3125 -1.515625,2.046875 -2.4375,2.046875 -1.046875,0 -1.3125,-0.71875 -1.421875,-2.3125 z M 5.078125,-0.234375 C 3.453125,-0.78125 2.671875,-2.5 2.671875,-4.40625 c 0,-1.4375 0.53125,-4.1875 1.890625,-6.265625 1.53125,-2.359375 3.578125,-3.421875 5.1875,-3.421875 2.140625,0 3.59375,1.734375 3.59375,4.421875 0,1.53125 -0.71875,6.65625 -4.609375,8.921875 -0.09375,-1.046875 -0.390625,-2.28125 -1.75,-2.28125 -1.125,0 -2.0625,1.109375 -2.0625,2.125 0,0.21875 0.078125,0.53125 0.15625,0.671875 z M 8.21875,-0.46875 c -0.734375,0.328125 -1.375,0.453125 -1.953125,0.453125 -0.21875,0 -0.9375,0 -0.9375,-0.90625 0,-0.75 0.71875,-1.703125 1.65625,-1.703125 1.03125,0 1.25,0.703125 1.25,1.734375 0,0.125 0,0.296875 -0.015625,0.421875 z m 0,0"
             id="path8"
             style="fill:#ff0000" />
        </g>
      </g>
    </g>
    <g
       inkscape:label=""
       transform="translate(97.270838,110.56592)"
       id="g14"
       style="fill:#ff0000">
      <g
         fill="#000000"
         fill-opacity="1"
         id="g13"
         transform="matrix(0.352778,0,0,0.352778,-1.04484,-0.706129)"
         style="fill:#ff0000">
        <g
           id="g12"
           transform="translate(1.993,16.111)"
           style="fill:#ff0000">
          <path
             d="m 6.109375,-6.5625 h 3.46875 c 2.859375,0 5.703125,-2.109375 5.703125,-4.46875 0,-1.609375 -1.359375,-3.078125 -3.96875,-3.078125 h -6.375 c -0.390625,0 -0.578125,0 -0.578125,0.390625 0,0.203125 0.1875,0.203125 0.5,0.203125 1.25,0 1.25,0.171875 1.25,0.40625 0,0.03125 0,0.15625 -0.078125,0.46875 L 3.25,-1.53125 c -0.1875,0.71875 -0.234375,0.9375 -1.6875,0.9375 -0.390625,0 -0.59375,0 -0.59375,0.359375 C 0.96875,0 1.15625,0 1.28125,0 1.671875,0 2.09375,-0.046875 2.484375,-0.046875 h 2.40625 C 5.28125,-0.046875 5.71875,0 6.109375,0 6.28125,0 6.5,0 6.5,-0.390625 6.5,-0.59375 6.328125,-0.59375 6.015625,-0.59375 4.765625,-0.59375 4.75,-0.75 4.75,-0.953125 c 0,-0.09375 0.015625,-0.25 0.046875,-0.34375 z m 1.484375,-6.140625 c 0.1875,-0.765625 0.28125,-0.8125 1.078125,-0.8125 h 2.046875 c 1.546875,0 2.828125,0.5 2.828125,2.046875 0,0.546875 -0.265625,2.296875 -1.21875,3.25 -0.34375,0.375 -1.34375,1.15625 -3.21875,1.15625 h -2.90625 z m 0,0"
             id="path11"
             style="fill:#ff0000" />
        </g>
      </g>
    </g>
  </g>
</svg>
