<?xml version="1.0" encoding="UTF-8" standalone="no"?>
<svg
   width="94.496765mm"
   height="76.933922mm"
   viewBox="0 0 94.496776 76.933923"
   version="1.1"
   id="svg8"
   inkscape:version="1.3.2 (091e20e, 2023-11-25, custom)"
   sodipodi:docname="batata02.svg"
   inkscape:export-filename="batata02.png"
   inkscape:export-xdpi="300"
   inkscape:export-ydpi="300"
   xmlns:inkscape="http://www.inkscape.org/namespaces/inkscape"
   xmlns:sodipodi="http://sodipodi.sourceforge.net/DTD/sodipodi-0.dtd"
   xmlns="http://www.w3.org/2000/svg"
   xmlns:svg="http://www.w3.org/2000/svg"
   xmlns:rdf="http://www.w3.org/1999/02/22-rdf-syntax-ns#"
   xmlns:cc="http://creativecommons.org/ns#"
   xmlns:dc="http://purl.org/dc/elements/1.1/">
  <sodipodi:namedview
     id="base"
     pagecolor="#ffffff"
     bordercolor="#666666"
     borderopacity="1.0"
     inkscape:pageopacity="0.0"
     inkscape:pageshadow="2"
     inkscape:zoom="3.0170423"
     inkscape:cx="231.02096"
     inkscape:cy="133.07735"
     inkscape:document-units="mm"
     inkscape:current-layer="layer1"
     inkscape:document-rotation="0"
     showgrid="true"
     showguides="true"
     inkscape:guide-bbox="true"
     inkscape:snap-nodes="true"
     inkscape:snap-grids="false"
     inkscape:snap-to-guides="false"
     inkscape:snap-smooth-nodes="true"
     inkscape:object-paths="false"
     inkscape:snap-intersection-paths="false"
     inkscape:window-width="1920"
     inkscape:window-height="1009"
     inkscape:window-x="-8"
     inkscape:window-y="-8"
     inkscape:window-maximized="1"
     showborder="false"
     inkscape:snap-others="false"
     inkscape:pagecheckerboard="0"
     inkscape:showpageshadow="2"
     inkscape:deskcolor="#d1d1d1"
     inkscape:export-bgcolor="#ffffffff">
    <inkscape:grid
       type="axonomgrid"
       id="grid10"
       originx="-25.930769"
       originy="-78.152683"
       spacingy="1"
       gridanglex="30"
       gridanglez="30"
       units="mm"
       visible="true" />
  </sodipodi:namedview>
  <defs
     id="defs2">
    <marker
       style="overflow:visible"
       id="marker35"
       refX="0"
       refY="0"
       orient="auto-start-reverse"
       inkscape:stockid="Triangle arrow"
       markerWidth="1"
       markerHeight="1"
       viewBox="0 0 1 1"
       inkscape:isstock="true"
       inkscape:collect="always"
       preserveAspectRatio="xMidYMid">
      <path
         transform="scale(0.5)"
         style="fill:context-stroke;fill-rule:evenodd;stroke:context-stroke;stroke-width:1pt"
         d="M 5.77,0 -2.88,5 V -5 Z"
         id="path35" />
    </marker>
    <marker
       style="overflow:visible"
       id="marker34"
       refX="0"
       refY="0"
       orient="auto-start-reverse"
       inkscape:stockid="Triangle arrow"
       markerWidth="1"
       markerHeight="1"
       viewBox="0 0 1 1"
       inkscape:isstock="true"
       inkscape:collect="always"
       preserveAspectRatio="xMidYMid">
      <path
         transform="scale(0.5)"
         style="fill:context-stroke;fill-rule:evenodd;stroke:context-stroke;stroke-width:1pt"
         d="M 5.77,0 -2.88,5 V -5 Z"
         id="path34" />
    </marker>
    <marker
       style="overflow:visible"
       id="Triangle"
       refX="0"
       refY="0"
       orient="auto-start-reverse"
       inkscape:stockid="Triangle arrow"
       markerWidth="1"
       markerHeight="1"
       viewBox="0 0 1 1"
       inkscape:isstock="true"
       inkscape:collect="always"
       preserveAspectRatio="xMidYMid">
      <path
         transform="scale(0.5)"
         style="fill:context-stroke;fill-rule:evenodd;stroke:context-stroke;stroke-width:1pt"
         d="M 5.77,0 -2.88,5 V -5 Z"
         id="path135" />
    </marker>
    <marker
       inkscape:stockid="DistanceStart"
       orient="auto"
       refY="0"
       refX="0"
       id="DistanceStart"
       style="overflow:visible"
       inkscape:isstock="true">
      <g
         id="g2300">
        <path
           id="path2306"
           d="M 0,0 H 2"
           style="fill:none;stroke:#ffffff;stroke-width:1.15;stroke-linecap:square" />
        <path
           id="path2302"
           d="M 0,0 13,4 9,0 13,-4 Z"
           style="fill:#000000;fill-rule:evenodd;stroke:none" />
        <path
           id="path2304"
           d="M 0,-4 V 40"
           style="fill:none;stroke:#000000;stroke-width:1;stroke-linecap:square" />
      </g>
    </marker>
    <marker
       style="overflow:visible"
       id="marker1788"
       refX="0"
       refY="0"
       orient="auto"
       inkscape:stockid="Arrow1Lend"
       inkscape:isstock="true">
      <path
         transform="matrix(-0.8,0,0,-0.8,-10,0)"
         style="fill:#ff0000;fill-opacity:1;fill-rule:evenodd;stroke:#ff0000;stroke-width:1pt;stroke-opacity:1"
         d="M 0,0 5,-5 -12.5,0 5,5 Z"
         id="path1786" />
    </marker>
    <marker
       style="overflow:visible"
       id="marker1399"
       refX="0"
       refY="0"
       orient="auto"
       inkscape:stockid="Arrow1Lend"
       inkscape:isstock="true">
      <path
         transform="matrix(-0.8,0,0,-0.8,-10,0)"
         style="fill:#0000ff;fill-opacity:1;fill-rule:evenodd;stroke:#0000ff;stroke-width:1pt;stroke-opacity:1"
         d="M 0,0 5,-5 -12.5,0 5,5 Z"
         id="path1397" />
    </marker>
    <marker
       style="overflow:visible"
       id="marker1379"
       refX="0"
       refY="0"
       orient="auto"
       inkscape:stockid="Arrow1Lend"
       inkscape:isstock="true">
      <path
         transform="matrix(-0.8,0,0,-0.8,-10,0)"
         style="fill:#0000ff;fill-opacity:1;fill-rule:evenodd;stroke:#0000ff;stroke-width:1pt;stroke-opacity:1"
         d="M 0,0 5,-5 -12.5,0 5,5 Z"
         id="path1377" />
    </marker>
    <filter
       inkscape:collect="always"
       style="color-interpolation-filters:sRGB"
       id="filter1977"
       x="-0.92558722"
       width="2.8511744"
       y="-0.92558722"
       height="2.8511744">
      <feGaussianBlur
         inkscape:collect="always"
         stdDeviation="0.18001642"
         id="feGaussianBlur1979" />
    </filter>
  </defs>
  <metadata
     id="metadata5">
    <rdf:RDF>
      <cc:Work
         rdf:about="">
        <dc:format>image/svg+xml</dc:format>
        <dc:type
           rdf:resource="http://purl.org/dc/dcmitype/StillImage" />
        <dc:title />
      </cc:Work>
    </rdf:RDF>
  </metadata>
  <g
     inkscape:label="Layer 1"
     inkscape:groupmode="layer"
     id="layer1"
     transform="translate(-25.9308, -78.1527)">
    <g
       id="g176"
       style="stroke-width:0.2;stroke-miterlimit:4;stroke-dasharray:none">
      <path
         style="fill:none;stroke:#000000;stroke-width:0.2;stroke-linecap:butt;stroke-linejoin:miter;stroke-miterlimit:4;stroke-dasharray:none;stroke-opacity:1"
         d="M 73.612159,127.5 V 80.499998"
         id="path170" />
      <path
         style="fill:none;stroke:#000000;stroke-width:0.2;stroke-linecap:butt;stroke-linejoin:miter;stroke-miterlimit:4;stroke-dasharray:none;stroke-opacity:1"
         d="M 120.37753,154.5 73.612159,127.5 25.980763,155 v 0"
         id="path172" />
    </g>
    <path
       style="fill:none;stroke:#0000ff;stroke-width:0.3;stroke-linecap:butt;stroke-linejoin:miter;stroke-miterlimit:4;stroke-dasharray:none;stroke-opacity:1"
       d="m 100.38432,106.11613 8.96836,-15.510143"
       id="path1369" />
    <path
       style="fill:none;stroke:#0000ff;stroke-width:0.3;stroke-linecap:butt;stroke-linejoin:miter;stroke-miterlimit:4;stroke-dasharray:none;stroke-opacity:1"
       d="m 100.38432,106.11613 8.94799,15.52189"
       id="path1371" />
    <path
       style="fill:none;stroke:#0000ff;stroke-width:0.3;stroke-linecap:butt;stroke-linejoin:miter;stroke-miterlimit:4;stroke-dasharray:none;stroke-opacity:1"
       d="m 100.38432,106.11613 -17.916356,-0.0118"
       id="path1373" />
    <path
       style="fill:#ff0000;stroke:#ff0000;stroke-width:0.4;stroke-linecap:butt;stroke-linejoin:miter;stroke-miterlimit:4;stroke-dasharray:none;stroke-opacity:1"
       d="M 73.612157,127.5 100.38432,106.11613"
       id="path1784" />
    <path
       style="fill:none;stroke:#000000;stroke-width:0.5;stroke-linecap:butt;stroke-linejoin:miter;stroke-miterlimit:4;stroke-dasharray:none;stroke-opacity:1;marker-end:url(#Triangle)"
       d="M 73.612157,127.5 V 97.499999"
       id="path12" />
    <path
       style="fill:none;stroke:#000000;stroke-width:0.5;stroke-linecap:butt;stroke-linejoin:miter;stroke-miterlimit:4;stroke-dasharray:none;stroke-opacity:1;marker-end:url(#marker34)"
       d="m 73.612157,127.5 25.980763,15"
       id="path16" />
    <path
       style="fill:none;stroke:#000000;stroke-width:0.5;stroke-linecap:butt;stroke-linejoin:miter;stroke-miterlimit:4;stroke-dasharray:none;stroke-opacity:1;marker-end:url(#marker35)"
       d="m 73.612157,127.5 -25.98076,15"
       id="path20" />
    <path
       style="fill:#0000ff;stroke:#0000ff;stroke-width:0.264583px;stroke-linecap:butt;stroke-linejoin:miter;stroke-opacity:1"
       d="m 109.35268,90.605987 -2.67341,1.974594 2.42601,1.455605 z"
       id="path1536" />
    <path
       style="fill:none;stroke:#000000;stroke-width:0.921889;stroke-linecap:butt;stroke-linejoin:miter;stroke-miterlimit:4;stroke-dasharray:none;stroke-opacity:1"
       d="m 115.16699,87.761049 c -1.41978,-1.135499 -2.7796,-2.350327 -4.25933,-3.406498 -0.57386,-0.409603 -1.7868,-0.351656 -2.47714,-0.43939 -0.93755,-0.119159 -1.62177,0.04127 -2.50448,0.429143 -3.49252,1.534629 -2.04437,5.176996 -4.43425,7.118456 -0.59293,0.481685 -1.658896,0.838941 -2.301511,1.119336 -4.261885,1.859568 -9.210377,2.358689 -12.147912,6.387287 -1.159543,1.590157 -1.700059,3.431927 -2.131358,5.334897 -2.214678,9.77131 7.018645,18.36264 16.596531,16.76735 2.57767,-0.42934 7.82006,-3.44954 9.05573,-5.90825 1.17662,-2.34118 0.52664,-5.16203 1.77807,-7.45603 1.21258,-2.22278 3.20884,-4.02321 4.33035,-6.3012 0.56205,-1.14156 1.22465,-2.345012 1.69333,-3.521985 0.34048,-0.854995 0.14889,-1.824906 0.26106,-2.707424 0.38634,-3.039904 -1.00875,-5.77484 -3.45913,-7.415712 z"
       id="path1557" />
    <path
       style="fill:#0000ff;stroke:#0000ff;stroke-width:0.264583px;stroke-linecap:butt;stroke-linejoin:miter;stroke-opacity:1"
       d="m 82.467963,106.10433 3.293729,-1.12415 -0.215646,2.21036 -3.078083,-1.08621"
       id="path1538" />
    <path
       style="fill:#0000ff;stroke:#0000ff;stroke-width:0.264583px;stroke-linecap:butt;stroke-linejoin:miter;stroke-opacity:1"
       d="m 109.33231,121.63802 -0.11921,-3.18002 -2.31818,1.40169 z"
       id="path1540" />
    <path
       style="fill:#ff0000;stroke:#ff0000;stroke-width:0.264583px;stroke-linecap:butt;stroke-linejoin:miter;stroke-opacity:1"
       d="m 100.38432,106.11613 -3.786459,1.61352 1.779071,1.56343 z"
       id="path1548" />
    <path
       style="fill:#00ff00;stroke:#00ff00;stroke-width:0.264583px;stroke-linecap:butt;stroke-linejoin:miter;stroke-opacity:1"
       d="m 100.38432,106.11613 12.03251,-6.01059"
       id="path1559" />
    <circle
       style="fill:#808080;stroke:#808080;stroke-width:0.765;stroke-miterlimit:4;stroke-dasharray:none"
       id="path1565"
       cx="112.95187"
       cy="99.761597"
       r="1.2229581" />
    <path
       style="fill:#00ff00;stroke:#00ff00;stroke-width:0.264583px;stroke-linecap:butt;stroke-linejoin:miter;stroke-opacity:1"
       d="m 112.41683,100.10554 -1.79622,1.94909 -0.95544,-1.60513 z"
       id="path1563" />
    <circle
       style="fill:#ffffff;stroke:#ffffff;stroke-width:0.315635;stroke-miterlimit:4;stroke-dasharray:none;filter:url(#filter1977)"
       id="path1567"
       cx="113.71622"
       cy="99.111877"
       r="0.31863928" />
    <g
       inkscape:label=""
       transform="translate(67.060378,93.806112)"
       id="g1">
      <g
         fill="#000000"
         fill-opacity="1"
         id="g2"
         transform="matrix(0.352778,0,0,0.352778,-1.03933,-0.706129)">
        <g
           id="use1"
           transform="translate(1.993,16.111)">
          <path
             d="m 15.28125,-11.9375 c 0.234375,-0.890625 0.5625,-1.515625 2.125,-1.578125 0.0625,0 0.3125,-0.01563 0.3125,-0.359375 0,-0.234375 -0.1875,-0.234375 -0.265625,-0.234375 -0.40625,0 -1.46875,0.04687 -1.875,0.04687 h -1 c -0.28125,0 -0.65625,-0.04687 -0.9375,-0.04687 -0.125,0 -0.375,0 -0.375,0.390625 0,0.203125 0.15625,0.203125 0.3125,0.203125 1.234375,0.04687 1.3125,0.515625 1.3125,0.890625 0,0.1875 -0.01563,0.25 -0.07813,0.546875 l -2.34375,9.3125 L 8.0625,-13.75 c -0.15625,-0.34375 -0.171875,-0.359375 -0.625,-0.359375 H 4.921875 c -0.421875,0 -0.609375,0 -0.609375,0.390625 0,0.203125 0.15625,0.203125 0.546875,0.203125 0.09375,0 1.3125,0 1.3125,0.1875 0,0.04687 -0.03125,0.21875 -0.0625,0.265625 l -2.75,10.953125 C 3.125,-1.09375 2.625,-0.65625 1.265625,-0.59375 c -0.109375,0 -0.3125,0.015625 -0.3125,0.390625 C 0.953125,0 1.15625,0 1.21875,0 1.625,0 2.6875,-0.046875 3.09375,-0.046875 h 1 C 4.375,-0.046875 4.734375,0 5.015625,0 c 0.15625,0 0.375,0 0.375,-0.390625 0,-0.1875 -0.203125,-0.203125 -0.28125,-0.203125 C 4.421875,-0.625 3.765625,-0.75 3.765625,-1.484375 3.765625,-1.65625 3.796875,-1.84375 3.84375,-2 L 6.625,-13.0625 c 0.125,0.21875 0.125,0.25 0.21875,0.4375 L 11.75,-0.375 C 11.859375,-0.125 11.890625,0 12.078125,0 c 0.21875,0 0.234375,-0.0625 0.3125,-0.40625 z m 0,0"
             id="path2" />
        </g>
      </g>
    </g>
    <g
       inkscape:label=""
       transform="translate(71.00671,129.14771)"
       id="g5">
      <g
         fill="#000000"
         fill-opacity="1"
         id="g4"
         transform="matrix(0.352778,0,0,0.352778,-1.05035,-0.551789)">
        <g
           id="g3"
           transform="translate(1.993,16.111)">
          <path
             d="m 15,-9.046875 c 0,-3.40625 -2.234375,-5.5 -5.125,-5.5 -4.421875,0 -8.890625,4.75 -8.890625,9.53125 0,3.234375 2.15625,5.453125 5.15625,5.453125 C 10.46875,0.4375 15,-4.09375 15,-9.046875 Z m -8.734375,9 c -1.703125,0 -3.5,-1.234375 -3.5,-4.453125 0,-1.875 0.6875,-4.953125 2.375,-7.03125 1.515625,-1.8125 3.25,-2.5625 4.625,-2.5625 1.828125,0 3.578125,1.328125 3.578125,4.296875 0,1.84375 -0.78125,4.71875 -2.171875,6.671875 -1.5,2.109375 -3.390625,3.078125 -4.90625,3.078125 z m 0,0"
             id="path1" />
        </g>
      </g>
    </g>
    <g
       inkscape:label=""
       transform="matrix(0.76535682,0,0,0.76535682,80.653299,119.58881)"
       id="g8"
       style="stroke-width:1.30658">
      <g
         fill="#000000"
         fill-opacity="1"
         id="g6"
         transform="matrix(0.352778,0,0,0.352778,-0.478648,-0.706614)"
         style="stroke-width:1.30658">
        <g
           id="use5"
           transform="translate(2.109,20.250999)"
           style="stroke-width:1.30658">
          <path
             d="m 11.046875,-12.328125 c -0.25,0.21875 -1.015625,0.953125 -1.015625,1.234375 0,0.203125 0.1875,0.390625 0.40625,0.390625 0.1875,0 0.265625,-0.125 0.40625,-0.328125 0.5,-0.625 1.046875,-1.015625 1.53125,-1.28125 0.203125,-0.125 0.34375,-0.1875 0.34375,-0.40625 0,-0.1875 -0.15625,-0.296875 -0.28125,-0.390625 -0.578125,-0.40625 -0.71875,-0.953125 -0.78125,-1.203125 -0.0625,-0.171875 -0.125,-0.421875 -0.421875,-0.421875 -0.125,0 -0.375,0.09375 -0.375,0.40625 0,0.171875 0.125,0.671875 0.515625,1.234375 H 4.4375 c -0.34375,0 -0.703125,0 -0.703125,0.390625 0,0.375 0.375,0.375 0.703125,0.375 z m 0,0"
             id="path9"
             style="stroke-width:1.30658" />
        </g>
      </g>
      <g
         fill="#000000"
         fill-opacity="1"
         id="g7"
         transform="matrix(0.352778,0,0,0.352778,-0.478648,-0.706614)"
         style="stroke-width:1.30658">
        <g
           id="use6"
           transform="translate(1.9974231,20.250999)"
           style="stroke-width:1.30658">
          <path
             d="M 0.890625,2.625 C 0.75,3.25 0.65625,3.40625 -0.1875,3.40625 c -0.25,0 -0.453125,0 -0.453125,0.390625 C -0.640625,3.84375 -0.625,4 -0.390625,4 -0.125,4 0.171875,3.96875 0.4375,3.96875 H 1.328125 C 1.75,3.96875 2.8125,4 3.25,4 3.359375,4 3.609375,4 3.609375,3.640625 3.609375,3.40625 3.46875,3.40625 3.125,3.40625 c -0.953125,0 -1.015625,-0.140625 -1.015625,-0.3125 0,-0.25 0.921875,-3.796875 1.046875,-4.265625 0.234375,0.578125 0.796875,1.375 1.859375,1.375 2.34375,0 4.859375,-3.03125 4.859375,-6.0625 0,-1.90625 -1.078125,-3.25 -2.625,-3.25 -1.328125,0 -2.4375,1.28125 -2.671875,1.5625 -0.15625,-1.03125 -0.96875,-1.5625 -1.796875,-1.5625 -0.59375,0 -1.0625,0.296875 -1.453125,1.078125 -0.375,0.734375 -0.671875,2 -0.671875,2.078125 0,0.09375 0.09375,0.1875 0.234375,0.1875 0.15625,0 0.1875,-0.015625 0.3125,-0.5 0.3125,-1.21875 0.703125,-2.4375 1.53125,-2.4375 0.46875,0 0.625,0.34375 0.625,0.953125 0,0.5 -0.046875,0.703125 -0.140625,1.078125 z M 4.46875,-6.4375 C 4.609375,-7.015625 5.1875,-7.625 5.515625,-7.90625 5.75,-8.125 6.421875,-8.703125 7.203125,-8.703125 c 0.921875,0 1.328125,0.921875 1.328125,1.984375 0,1 -0.578125,3.328125 -1.09375,4.40625 -0.515625,1.109375 -1.46875,2.109375 -2.421875,2.109375 -1.40625,0 -1.625,-1.78125 -1.625,-1.859375 0,-0.0625 0.03125,-0.234375 0.0625,-0.328125 z m 0,0"
             id="path10"
             style="stroke-width:1.30658" />
        </g>
      </g>
      <g
         fill="#000000"
         fill-opacity="1"
         id="g9"
         transform="matrix(0.352778,0,0,0.352778,0.21275064,-0.706614)"
         style="stroke-width:1.30658">
        <g
           id="use7"
           transform="translate(12.147,12.753)"
           style="stroke-width:1.30658">
          <path
             d="m 6.109375,-0.09375 c 2.46875,-0.984375 4.296875,-3.59375 4.296875,-6.1875 0,-2.375 -1.546875,-3.8125 -3.546875,-3.8125 -3.078125,0 -6.171875,3.296875 -6.171875,6.609375 0,2.25 1.5,3.78125 3.578125,3.78125 0.484375,0 0.953125,-0.0625 1.421875,-0.203125 -0.09375,0.859375 -0.09375,0.921875 -0.09375,1.203125 0,0.40625 0,1.484375 1.140625,1.484375 1.71875,0 2.34375,-2.6875 2.34375,-2.765625 0,-0.09375 -0.0625,-0.140625 -0.125,-0.140625 -0.09375,0 -0.125,0.0625 -0.15625,0.21875 C 8.484375,1 7.734375,1.515625 7.09375,1.515625 c -0.71875,0 -0.90625,-0.5 -0.984375,-1.609375 z M 3.53125,-0.15625 c -1.140625,-0.390625 -1.6875,-1.578125 -1.6875,-2.90625 0,-1 0.375,-2.90625 1.328125,-4.359375 1.0625,-1.625 2.484375,-2.359375 3.59375,-2.359375 1.5,0 2.5,1.203125 2.5,3.0625 0,1.0625 -0.5,4.625 -3.203125,6.203125 C 6,-1.25 5.796875,-2.109375 4.84375,-2.109375 c -0.765625,0 -1.4375,0.78125 -1.4375,1.484375 0,0.15625 0.0625,0.359375 0.125,0.46875 z M 5.703125,-0.328125 C 5.1875,-0.09375 4.75,-0.015625 4.34375,-0.015625 c -0.140625,0 -0.640625,0 -0.640625,-0.625 0,-0.515625 0.5,-1.1875 1.140625,-1.1875 0.71875,0 0.875,0.5 0.875,1.21875 0,0.078125 0,0.1875 -0.015625,0.28125 z m 0,0"
             id="path11"
             style="stroke-width:1.30658" />
        </g>
        <g
           id="use8"
           transform="translate(23.272478,12.753)"
           style="stroke-width:1.30658">
          <path
             d="m 6.15625,-10.234375 c 0,0 0.078125,-0.21875 0.078125,-0.25 0,-0.171875 -0.140625,-0.265625 -0.25,-0.265625 -0.078125,0 -0.203125,0 -0.3125,0.3125 l -4.8125,13.5 c 0,0 -0.078125,0.21875 -0.078125,0.25 0,0.171875 0.140625,0.265625 0.25,0.265625 0.09375,0 0.21875,0 0.3125,-0.3125 z m 0,0"
             id="path5"
             style="stroke-width:1.30658" />
        </g>
        <g
           id="use9"
           transform="translate(30.296377,12.753)"
           style="stroke-width:1.30658">
          <path
             d="m 10.40625,-6.28125 c 0,-2.375 -1.546875,-3.8125 -3.546875,-3.8125 -3.078125,0 -6.171875,3.296875 -6.171875,6.609375 0,2.25 1.5,3.78125 3.578125,3.78125 3,0 6.140625,-3.140625 6.140625,-6.578125 z m -6.0625,6.25 c -1.171875,0 -2.421875,-0.859375 -2.421875,-3.09375 0,-1.3125 0.46875,-3.4375 1.65625,-4.875 1.046875,-1.265625 2.25,-1.78125 3.203125,-1.78125 1.265625,0 2.484375,0.921875 2.484375,2.984375 0,1.28125 -0.546875,3.265625 -1.5,4.625 C 6.71875,-0.703125 5.40625,-0.03125 4.34375,-0.03125 Z m 0,0"
             id="path13"
             style="stroke-width:1.30658" />
        </g>
      </g>
    </g>
    <g
       id="g22"
       transform="matrix(0.7094894,0,0,0.7094894,31.230862,14.985706)"
       style="stroke-width:1.40946">
      <g
         inkscape:label=""
         transform="translate(100.56035,124.93829)"
         id="g21"
         style="stroke-width:1.40946">
        <g
           fill="#000000"
           fill-opacity="1"
           id="g11"
           transform="matrix(0.352778,0,0,0.352778,-0.478648,-0.706614)"
           style="stroke-width:1.40946">
          <g
             id="g10"
             transform="translate(2.109,20.250999)"
             style="stroke-width:1.40946">
            <path
               d="m 11.046875,-12.328125 c -0.25,0.21875 -1.015625,0.953125 -1.015625,1.234375 0,0.203125 0.1875,0.390625 0.40625,0.390625 0.1875,0 0.265625,-0.125 0.40625,-0.328125 0.5,-0.625 1.046875,-1.015625 1.53125,-1.28125 0.203125,-0.125 0.34375,-0.1875 0.34375,-0.40625 0,-0.1875 -0.15625,-0.296875 -0.28125,-0.390625 -0.578125,-0.40625 -0.71875,-0.953125 -0.78125,-1.203125 -0.0625,-0.171875 -0.125,-0.421875 -0.421875,-0.421875 -0.125,0 -0.375,0.09375 -0.375,0.40625 0,0.171875 0.125,0.671875 0.515625,1.234375 H 4.4375 c -0.34375,0 -0.703125,0 -0.703125,0.390625 0,0.375 0.375,0.375 0.703125,0.375 z m 0,0"
               id="path8"
               style="stroke-width:1.40946" />
          </g>
        </g>
        <g
           fill="#000000"
           fill-opacity="1"
           id="g15"
           transform="matrix(0.352778,0,0,0.352778,-0.478648,-0.706614)"
           style="stroke-width:1.40946">
          <g
             id="g14"
             transform="translate(1.9974231,20.250999)"
             style="stroke-width:1.40946">
            <path
               d="M 0.890625,2.625 C 0.75,3.25 0.65625,3.40625 -0.1875,3.40625 c -0.25,0 -0.453125,0 -0.453125,0.390625 C -0.640625,3.84375 -0.625,4 -0.390625,4 -0.125,4 0.171875,3.96875 0.4375,3.96875 H 1.328125 C 1.75,3.96875 2.8125,4 3.25,4 3.359375,4 3.609375,4 3.609375,3.640625 3.609375,3.40625 3.46875,3.40625 3.125,3.40625 c -0.953125,0 -1.015625,-0.140625 -1.015625,-0.3125 0,-0.25 0.921875,-3.796875 1.046875,-4.265625 0.234375,0.578125 0.796875,1.375 1.859375,1.375 2.34375,0 4.859375,-3.03125 4.859375,-6.0625 0,-1.90625 -1.078125,-3.25 -2.625,-3.25 -1.328125,0 -2.4375,1.28125 -2.671875,1.5625 -0.15625,-1.03125 -0.96875,-1.5625 -1.796875,-1.5625 -0.59375,0 -1.0625,0.296875 -1.453125,1.078125 -0.375,0.734375 -0.671875,2 -0.671875,2.078125 0,0.09375 0.09375,0.1875 0.234375,0.1875 0.15625,0 0.1875,-0.015625 0.3125,-0.5 0.3125,-1.21875 0.703125,-2.4375 1.53125,-2.4375 0.46875,0 0.625,0.34375 0.625,0.953125 0,0.5 -0.046875,0.703125 -0.140625,1.078125 z M 4.46875,-6.4375 C 4.609375,-7.015625 5.1875,-7.625 5.515625,-7.90625 5.75,-8.125 6.421875,-8.703125 7.203125,-8.703125 c 0.921875,0 1.328125,0.921875 1.328125,1.984375 0,1 -0.578125,3.328125 -1.09375,4.40625 -0.515625,1.109375 -1.46875,2.109375 -2.421875,2.109375 -1.40625,0 -1.625,-1.78125 -1.625,-1.859375 0,-0.0625 0.03125,-0.234375 0.0625,-0.328125 z m 0,0"
               id="path14"
               style="stroke-width:1.40946" />
          </g>
        </g>
        <g
           fill="#000000"
           fill-opacity="1"
           id="g17"
           transform="matrix(0.352778,0,0,0.352778,-0.478648,-0.706614)"
           style="stroke-width:1.40946">
          <g
             id="g16"
             transform="translate(12.147,12.753)"
             style="stroke-width:1.40946">
            <path
               d="m 4.25,-4.5625 h 2.40625 c 1.984375,0 3.953125,-1.46875 3.953125,-3.09375 0,-1.125 -0.9375,-2.140625 -2.75,-2.140625 h -4.4375 c -0.265625,0 -0.390625,0 -0.390625,0.265625 0,0.15625 0.125,0.15625 0.34375,0.15625 0.875,0 0.875,0.109375 0.875,0.265625 0,0.03125 0,0.109375 -0.0625,0.328125 L 2.25,-1.0625 c -0.125,0.5 -0.15625,0.640625 -1.15625,0.640625 -0.28125,0 -0.421875,0 -0.421875,0.265625 C 0.671875,0 0.796875,0 0.890625,0 1.15625,0 1.453125,-0.03125 1.71875,-0.03125 h 1.6875 C 3.671875,-0.03125 3.96875,0 4.25,0 c 0.109375,0 0.265625,0 0.265625,-0.265625 0,-0.15625 -0.125,-0.15625 -0.34375,-0.15625 -0.859375,0 -0.875,-0.09375 -0.875,-0.234375 0,-0.078125 0.015625,-0.171875 0.03125,-0.25 z m 1.03125,-4.265625 c 0.125,-0.53125 0.1875,-0.546875 0.75,-0.546875 H 7.4375 c 1.078125,0 1.96875,0.34375 1.96875,1.421875 0,0.359375 -0.1875,1.578125 -0.84375,2.25 -0.25,0.25 -0.9375,0.796875 -2.234375,0.796875 h -2.03125 z m 0,0"
               id="path15"
               style="stroke-width:1.40946" />
          </g>
        </g>
        <g
           fill="#000000"
           fill-opacity="1"
           id="g20"
           transform="matrix(0.352778,0,0,0.352778,-0.478648,-0.706614)"
           style="stroke-width:1.40946">
          <g
             id="g18"
             transform="translate(22.377275,12.753)"
             style="stroke-width:1.40946">
            <path
               d="m 6.15625,-10.234375 c 0,0 0.078125,-0.21875 0.078125,-0.25 0,-0.171875 -0.140625,-0.265625 -0.25,-0.265625 -0.078125,0 -0.203125,0 -0.3125,0.3125 l -4.8125,13.5 c 0,0 -0.078125,0.21875 -0.078125,0.25 0,0.171875 0.140625,0.265625 0.25,0.265625 0.09375,0 0.21875,0 0.3125,-0.3125 z m 0,0"
               id="path17"
               style="stroke-width:1.40946" />
          </g>
          <g
             id="g19"
             transform="translate(29.401175,12.753)"
             style="stroke-width:1.40946">
            <path
               d="m 6.109375,-0.09375 c 2.46875,-0.984375 4.296875,-3.59375 4.296875,-6.1875 0,-2.375 -1.546875,-3.8125 -3.546875,-3.8125 -3.078125,0 -6.171875,3.296875 -6.171875,6.609375 0,2.25 1.5,3.78125 3.578125,3.78125 0.484375,0 0.953125,-0.0625 1.421875,-0.203125 -0.09375,0.859375 -0.09375,0.921875 -0.09375,1.203125 0,0.40625 0,1.484375 1.140625,1.484375 1.71875,0 2.34375,-2.6875 2.34375,-2.765625 0,-0.09375 -0.0625,-0.140625 -0.125,-0.140625 -0.09375,0 -0.125,0.0625 -0.15625,0.21875 C 8.484375,1 7.734375,1.515625 7.09375,1.515625 c -0.71875,0 -0.90625,-0.5 -0.984375,-1.609375 z M 3.53125,-0.15625 c -1.140625,-0.390625 -1.6875,-1.578125 -1.6875,-2.90625 0,-1 0.375,-2.90625 1.328125,-4.359375 1.0625,-1.625 2.484375,-2.359375 3.59375,-2.359375 1.5,0 2.5,1.203125 2.5,3.0625 0,1.0625 -0.5,4.625 -3.203125,6.203125 C 6,-1.25 5.796875,-2.109375 4.84375,-2.109375 c -0.765625,0 -1.4375,0.78125 -1.4375,1.484375 0,0.15625 0.0625,0.359375 0.125,0.46875 z M 5.703125,-0.328125 C 5.1875,-0.09375 4.75,-0.015625 4.34375,-0.015625 c -0.140625,0 -0.640625,0 -0.640625,-0.625 0,-0.515625 0.5,-1.1875 1.140625,-1.1875 0.71875,0 0.875,0.5 0.875,1.21875 0,0.078125 0,0.1875 -0.015625,0.28125 z m 0,0"
               id="path18"
               style="stroke-width:1.40946" />
          </g>
        </g>
      </g>
    </g>
    <g
       inkscape:label=""
       transform="translate(96.175538,98.980191)"
       id="g25">
      <g
         fill="#000000"
         fill-opacity="1"
         id="g24"
         transform="matrix(0.352778,0,0,0.352778,-1.05035,-0.552141)">
        <g
           id="g23"
           transform="translate(1.993,16.112)">
          <path
             d="M 8.796875,-0.125 C 12.359375,-1.546875 15,-5.3125 15,-9.046875 c 0,-3.40625 -2.234375,-5.5 -5.125,-5.5 -4.421875,0 -8.890625,4.75 -8.890625,9.53125 0,3.234375 2.15625,5.453125 5.15625,5.453125 0.703125,0 1.375,-0.109375 2.046875,-0.3125 -0.125,1.234375 -0.125,1.34375 -0.125,1.734375 0,0.59375 0,2.140625 1.640625,2.140625 2.46875,0 3.375,-3.859375 3.375,-3.984375 0,-0.125 -0.07813,-0.203125 -0.1875,-0.203125 -0.125,0 -0.171875,0.109375 -0.234375,0.328125 -0.453125,1.3125 -1.515625,2.046875 -2.4375,2.046875 -1.046875,0 -1.3125,-0.71875 -1.421875,-2.3125 z M 5.078125,-0.234375 C 3.453125,-0.78125 2.671875,-2.5 2.671875,-4.40625 c 0,-1.4375 0.53125,-4.1875 1.890625,-6.265625 1.53125,-2.359375 3.578125,-3.421875 5.1875,-3.421875 2.140625,0 3.59375,1.734375 3.59375,4.421875 0,1.53125 -0.71875,6.65625 -4.609375,8.921875 -0.09375,-1.046875 -0.390625,-2.28125 -1.75,-2.28125 -1.125,0 -2.0625,1.109375 -2.0625,2.125 0,0.21875 0.078125,0.53125 0.15625,0.671875 z M 8.21875,-0.46875 c -0.734375,0.328125 -1.375,0.453125 -1.953125,0.453125 -0.21875,0 -0.9375,0 -0.9375,-0.90625 0,-0.75 0.71875,-1.703125 1.65625,-1.703125 1.03125,0 1.25,0.703125 1.25,1.734375 0,0.125 0,0.296875 -0.015625,0.421875 z m 0,0"
             id="path22" />
        </g>
      </g>
    </g>
    <g
       inkscape:label=""
       transform="translate(112.31165,92.052187)"
       id="g28">
      <g
         fill="#000000"
         fill-opacity="1"
         id="g27"
         transform="matrix(0.352778,0,0,0.352778,-1.04484,-0.706129)">
        <g
           id="g26"
           transform="translate(1.993,16.111)">
          <path
             d="m 6.109375,-6.5625 h 3.46875 c 2.859375,0 5.703125,-2.109375 5.703125,-4.46875 0,-1.609375 -1.359375,-3.078125 -3.96875,-3.078125 h -6.375 c -0.390625,0 -0.578125,0 -0.578125,0.390625 0,0.203125 0.1875,0.203125 0.5,0.203125 1.25,0 1.25,0.171875 1.25,0.40625 0,0.03125 0,0.15625 -0.078125,0.46875 L 3.25,-1.53125 c -0.1875,0.71875 -0.234375,0.9375 -1.6875,0.9375 -0.390625,0 -0.59375,0 -0.59375,0.359375 C 0.96875,0 1.15625,0 1.28125,0 1.671875,0 2.09375,-0.046875 2.484375,-0.046875 h 2.40625 C 5.28125,-0.046875 5.71875,0 6.109375,0 6.28125,0 6.5,0 6.5,-0.390625 6.5,-0.59375 6.328125,-0.59375 6.015625,-0.59375 4.765625,-0.59375 4.75,-0.75 4.75,-0.953125 c 0,-0.09375 0.015625,-0.25 0.046875,-0.34375 z m 1.484375,-6.140625 c 0.1875,-0.765625 0.28125,-0.8125 1.078125,-0.8125 h 2.046875 c 1.546875,0 2.828125,0.5 2.828125,2.046875 0,0.546875 -0.265625,2.296875 -1.21875,3.25 -0.34375,0.375 -1.34375,1.15625 -3.21875,1.15625 h -2.90625 z m 0,0"
             id="path25" />
        </g>
      </g>
    </g>
    <g
       inkscape:label=""
       transform="translate(109.76843,77.845715)"
       id="g31">
      <g
         fill="#000000"
         fill-opacity="1"
         id="g30"
         transform="matrix(0.352778,0,0,0.352778,-1.05035,-0.706129)">
        <g
           id="g29"
           transform="translate(1.993,16.111)">
          <path
             d="m 7.5625,-12.703125 c 0.1875,-0.765625 0.265625,-0.8125 1.078125,-0.8125 H 11.3125 c 2.34375,0 2.34375,1.984375 2.34375,2.171875 0,1.671875 -1.671875,3.796875 -4.40625,3.796875 H 6.28125 Z M 11.046875,-7.375 c 2.25,-0.40625 4.296875,-1.984375 4.296875,-3.875 0,-1.625 -1.421875,-2.859375 -3.75,-2.859375 H 4.953125 c -0.390625,0 -0.578125,0 -0.578125,0.390625 0,0.203125 0.1875,0.203125 0.5,0.203125 1.265625,0 1.265625,0.171875 1.265625,0.40625 0,0.03125 0,0.15625 -0.09375,0.46875 L 3.265625,-1.53125 c -0.1875,0.71875 -0.234375,0.9375 -1.671875,0.9375 -0.390625,0 -0.609375,0 -0.609375,0.359375 C 0.984375,0 1.109375,0 1.53125,0 h 7.078125 c 3.171875,0 5.609375,-2.390625 5.609375,-4.484375 0,-1.6875 -1.5,-2.71875 -3.171875,-2.890625 z M 8.125,-0.59375 H 5.328125 c -0.28125,0 -0.328125,0 -0.453125,-0.03125 -0.234375,-0.015625 -0.25,-0.0625 -0.25,-0.21875 0,-0.140625 0.046875,-0.265625 0.078125,-0.453125 L 6.15625,-7.125 h 3.875 c 2.4375,0 2.4375,2.265625 2.4375,2.4375 0,1.984375 -1.796875,4.09375 -4.34375,4.09375 z m 0,0"
             id="path28" />
        </g>
      </g>
    </g>
    <g
       inkscape:label=""
       transform="translate(102.13886,88.456963)"
       id="g34">
      <g
         fill="#000000"
         fill-opacity="1"
         id="g33"
         transform="matrix(0.352778,0,0,0.352778,-1.05035,-0.706129)">
        <g
           id="g32"
           transform="translate(1.993,16.111)">
          <path
             d="m 7.5625,-12.703125 c 0.1875,-0.765625 0.265625,-0.8125 1.078125,-0.8125 H 11.3125 c 2.34375,0 2.34375,1.984375 2.34375,2.171875 0,1.671875 -1.671875,3.796875 -4.40625,3.796875 H 6.28125 Z M 11.046875,-7.375 c 2.25,-0.40625 4.296875,-1.984375 4.296875,-3.875 0,-1.625 -1.421875,-2.859375 -3.75,-2.859375 H 4.953125 c -0.390625,0 -0.578125,0 -0.578125,0.390625 0,0.203125 0.1875,0.203125 0.5,0.203125 1.265625,0 1.265625,0.171875 1.265625,0.40625 0,0.03125 0,0.15625 -0.09375,0.46875 L 3.265625,-1.53125 c -0.1875,0.71875 -0.234375,0.9375 -1.671875,0.9375 -0.390625,0 -0.609375,0 -0.609375,0.359375 C 0.984375,0 1.109375,0 1.53125,0 h 7.078125 c 3.171875,0 5.609375,-2.390625 5.609375,-4.484375 0,-1.6875 -1.5,-2.71875 -3.171875,-2.890625 z M 8.125,-0.59375 H 5.328125 c -0.28125,0 -0.328125,0 -0.453125,-0.03125 -0.234375,-0.015625 -0.25,-0.0625 -0.25,-0.21875 0,-0.140625 0.046875,-0.265625 0.078125,-0.453125 L 6.15625,-7.125 h 3.875 c 2.4375,0 2.4375,2.265625 2.4375,2.4375 0,1.984375 -1.796875,4.09375 -4.34375,4.09375 z m 0,0"
             id="path31" />
        </g>
      </g>
    </g>
  </g>
</svg>
