<?xml version="1.0" encoding="UTF-8" standalone="no"?>
<svg
   width="147.65387mm"
   height="67.695328mm"
   viewBox="0 0 147.65387 67.695328"
   version="1.1"
   id="svg8"
   inkscape:version="1.3.2 (091e20e, 2023-11-25, custom)"
   sodipodi:docname="biela-manivela2.svg"
   inkscape:export-filename="biela-manivela2.png"
   inkscape:export-xdpi="300"
   inkscape:export-ydpi="300"
   xmlns:inkscape="http://www.inkscape.org/namespaces/inkscape"
   xmlns:sodipodi="http://sodipodi.sourceforge.net/DTD/sodipodi-0.dtd"
   xmlns="http://www.w3.org/2000/svg"
   xmlns:svg="http://www.w3.org/2000/svg"
   xmlns:rdf="http://www.w3.org/1999/02/22-rdf-syntax-ns#"
   xmlns:cc="http://creativecommons.org/ns#"
   xmlns:dc="http://purl.org/dc/elements/1.1/">
  <sodipodi:namedview
     id="base"
     pagecolor="#ffffff"
     bordercolor="#666666"
     borderopacity="1.0"
     inkscape:pageopacity="0.0"
     inkscape:pageshadow="2"
     inkscape:zoom="1.4"
     inkscape:cx="220"
     inkscape:cy="21.071429"
     inkscape:document-units="mm"
     inkscape:current-layer="layer1"
     inkscape:document-rotation="0"
     showgrid="false"
     showguides="true"
     inkscape:guide-bbox="true"
     inkscape:snap-nodes="false"
     inkscape:snap-global="false"
     inkscape:window-width="1920"
     inkscape:window-height="1009"
     inkscape:window-x="-8"
     inkscape:window-y="-8"
     inkscape:window-maximized="1"
     inkscape:pagecheckerboard="0"
     inkscape:showpageshadow="2"
     inkscape:deskcolor="#d1d1d1"
     inkscape:export-bgcolor="#ffffffff">
    <sodipodi:guide
       position="27.291607,14.9036"
       orientation="0,-1"
       id="guide837"
       inkscape:locked="false" />
  </sodipodi:namedview>
  <defs
     id="defs2">
    <marker
       style="overflow:visible"
       id="Triangle"
       refX="0"
       refY="0"
       orient="auto-start-reverse"
       inkscape:stockid="Triangle arrow"
       markerWidth="1"
       markerHeight="1"
       viewBox="0 0 1 1"
       inkscape:isstock="true"
       inkscape:collect="always"
       preserveAspectRatio="xMidYMid">
      <path
         transform="scale(0.5)"
         style="fill:context-stroke;fill-rule:evenodd;stroke:context-stroke;stroke-width:1pt"
         d="M 5.77,0 -2.88,5 V -5 Z"
         id="path135" />
    </marker>
    <inkscape:path-effect
       effect="spiro"
       id="path-effect1625"
       is_visible="true"
       lpeversion="1" />
    <inkscape:path-effect
       effect="simplify"
       id="path-effect1621"
       is_visible="true"
       lpeversion="1"
       steps="1"
       threshold="0.00243902"
       smooth_angles="360"
       helper_size="0"
       simplify_individual_paths="false"
       simplify_just_coalesce="false" />
    <inkscape:path-effect
       effect="spiro"
       id="path-effect1502"
       is_visible="true"
       lpeversion="1" />
    <inkscape:path-effect
       effect="simplify"
       id="path-effect1500"
       is_visible="true"
       lpeversion="1"
       steps="1"
       threshold="0.00243902"
       smooth_angles="360"
       helper_size="0"
       simplify_individual_paths="false"
       simplify_just_coalesce="false" />
    <inkscape:path-effect
       effect="spiro"
       id="path-effect1053"
       is_visible="true"
       lpeversion="1" />
    <inkscape:path-effect
       effect="simplify"
       id="path-effect1051"
       is_visible="true"
       lpeversion="1"
       steps="1"
       threshold="0.00243902"
       smooth_angles="360"
       helper_size="0"
       simplify_individual_paths="false"
       simplify_just_coalesce="false" />
    <inkscape:path-effect
       effect="spiro"
       id="path-effect1125"
       is_visible="true"
       lpeversion="1" />
    <inkscape:path-effect
       effect="simplify"
       id="path-effect1123"
       is_visible="true"
       lpeversion="1"
       steps="1"
       threshold="0.00243902"
       smooth_angles="360"
       helper_size="0"
       simplify_individual_paths="false"
       simplify_just_coalesce="false" />
    <inkscape:path-effect
       effect="spiro"
       id="path-effect1086"
       is_visible="true"
       lpeversion="1" />
    <inkscape:path-effect
       effect="simplify"
       id="path-effect1082"
       is_visible="true"
       lpeversion="1"
       steps="1"
       threshold="0.00243902"
       smooth_angles="360"
       helper_size="0"
       simplify_individual_paths="false"
       simplify_just_coalesce="false" />
    <inkscape:path-effect
       effect="spiro"
       id="path-effect960"
       is_visible="true"
       lpeversion="1" />
    <inkscape:path-effect
       effect="simplify"
       id="path-effect958"
       is_visible="true"
       lpeversion="1"
       steps="1"
       threshold="0.00243902"
       smooth_angles="360"
       helper_size="0"
       simplify_individual_paths="false"
       simplify_just_coalesce="false" />
    <marker
       style="overflow:visible"
       id="marker1435"
       refX="0"
       refY="0"
       orient="auto"
       inkscape:stockid="Arrow1Lend"
       inkscape:isstock="true">
      <path
         transform="matrix(-0.8,0,0,-0.8,-10,0)"
         style="fill:#ff0000;fill-opacity:1;fill-rule:evenodd;stroke:#ff0000;stroke-width:1pt;stroke-opacity:1"
         d="M 0,0 5,-5 -12.5,0 5,5 Z"
         id="path1433" />
    </marker>
    <marker
       style="overflow:visible"
       id="marker1413"
       refX="0"
       refY="0"
       orient="auto"
       inkscape:stockid="Arrow1Lstart"
       inkscape:isstock="true">
      <path
         transform="matrix(0.8,0,0,0.8,10,0)"
         style="fill:#000000;fill-opacity:1;fill-rule:evenodd;stroke:#000000;stroke-width:1pt;stroke-opacity:1"
         d="M 0,0 5,-5 -12.5,0 5,5 Z"
         id="path1411" />
    </marker>
    <marker
       style="overflow:visible"
       id="marker1227"
       refX="0"
       refY="0"
       orient="auto"
       inkscape:stockid="Arrow1Lend"
       inkscape:isstock="true">
      <path
         transform="matrix(-0.8,0,0,-0.8,-10,0)"
         style="fill:#ff0000;fill-opacity:1;fill-rule:evenodd;stroke:#ff0000;stroke-width:1pt;stroke-opacity:1"
         d="M 0,0 5,-5 -12.5,0 5,5 Z"
         id="path1225" />
    </marker>
    <marker
       style="overflow:visible"
       id="marker1193"
       refX="0"
       refY="0"
       orient="auto"
       inkscape:stockid="Arrow1Lstart"
       inkscape:isstock="true">
      <path
         transform="matrix(0.8,0,0,0.8,10,0)"
         style="fill:#ff0000;fill-opacity:1;fill-rule:evenodd;stroke:#ff0000;stroke-width:1pt;stroke-opacity:1"
         d="M 0,0 5,-5 -12.5,0 5,5 Z"
         id="path1191" />
    </marker>
  </defs>
  <metadata
     id="metadata5">
    <rdf:RDF>
      <cc:Work
         rdf:about="">
        <dc:format>image/svg+xml</dc:format>
        <dc:type
           rdf:resource="http://purl.org/dc/dcmitype/StillImage" />
        <dc:title />
      </cc:Work>
    </rdf:RDF>
  </metadata>
  <g
     inkscape:label="Layer 1"
     inkscape:groupmode="layer"
     id="layer1"
     transform="translate(-46.073888,-82.635625)">
    <path
       style="fill:none;stroke:#000000;stroke-width:0.7;stroke-linecap:butt;stroke-linejoin:miter;stroke-miterlimit:4;stroke-dasharray:none;stroke-opacity:1"
       d="m 57.664388,125.46368 h 10.593798 l 6.025853,10.43709 H 52.416393 Z"
       id="path857" />
    <rect
       style="fill:#ffffff;stroke:#000000;stroke-width:0.7;stroke-miterlimit:4;stroke-dasharray:none"
       id="rect10"
       width="5.2892442"
       height="54.141151"
       x="138.3114"
       y="-22.091949"
       ry="2.6446221"
       inkscape:transform-center-x="-18.801227"
       inkscape:transform-center-y="-14.52191"
       transform="rotate(52.310077)" />
    <rect
       style="fill:#ffffff;stroke:#000000;stroke-width:0.7;stroke-miterlimit:4;stroke-dasharray:none"
       id="rect853"
       width="20.189341"
       height="16.185692"
       x="157.68295"
       y="119.76421" />
    <rect
       style="fill:#ffffff;stroke:#000000;stroke-width:0.699999;stroke-miterlimit:4;stroke-dasharray:none"
       id="rect835"
       width="5.2892442"
       height="77.829567"
       x="-52.52449"
       y="130.21509"
       ry="3.8017251"
       inkscape:transform-center-x="32.68512"
       inkscape:transform-center-y="-14.551955"
       transform="rotate(-66.150301)" />
    <circle
       style="fill:#ffffff;stroke:#000000;stroke-width:0.7;stroke-miterlimit:4;stroke-dasharray:none"
       id="path841"
       cx="101.62834"
       cy="100.37824"
       r="4.8302884" />
    <circle
       style="fill:#ffffff;stroke:#000000;stroke-width:0.7;stroke-miterlimit:4;stroke-dasharray:none"
       id="path843"
       cx="101.51643"
       cy="100.44621"
       r="2.3659611" />
    <circle
       style="fill:#ffffff;stroke:#000000;stroke-width:0.7;stroke-miterlimit:4;stroke-dasharray:none"
       id="circle845"
       cx="63.295891"
       cy="128.97316"
       r="4.8302884" />
    <circle
       style="fill:#ffffff;stroke:#000000;stroke-width:0.7;stroke-miterlimit:4;stroke-dasharray:none"
       id="circle847"
       cx="63.183983"
       cy="129.04114"
       r="2.3659611" />
    <circle
       style="fill:#ffffff;stroke:#000000;stroke-width:0.7;stroke-miterlimit:4;stroke-dasharray:none"
       id="circle849"
       cx="167.46436"
       cy="128.44586"
       r="4.8302884" />
    <circle
       style="fill:#ffffff;stroke:#000000;stroke-width:0.7;stroke-miterlimit:4;stroke-dasharray:none"
       id="circle851"
       cx="167.35245"
       cy="128.51384"
       r="2.3659611" />
    <path
       style="fill:none;stroke:#000000;stroke-width:0.264583px;stroke-linecap:butt;stroke-linejoin:miter;stroke-opacity:1"
       d="m 46.110173,136.0462 c 2.059744,-0.58747 136.327557,0 136.327557,0"
       id="path859" />
    <path
       style="fill:none;stroke:#000000;stroke-width:0.264583px;stroke-linecap:butt;stroke-linejoin:miter;stroke-opacity:1"
       d="m 49.215005,135.99382 14.243592,14.24359"
       id="path861" />
    <path
       style="fill:none;stroke:#000000;stroke-width:0.264583px;stroke-linecap:butt;stroke-linejoin:miter;stroke-opacity:1"
       d="m 67.206683,135.99382 14.243592,14.24359"
       id="path863" />
    <path
       style="fill:none;stroke:#000000;stroke-width:0.264583px;stroke-linecap:butt;stroke-linejoin:miter;stroke-opacity:1"
       d="m 83.081693,135.99382 14.243592,14.24359"
       id="path865" />
    <path
       style="fill:none;stroke:#000000;stroke-width:0.264583px;stroke-linecap:butt;stroke-linejoin:miter;stroke-opacity:1"
       d="m 98.956703,135.99382 14.243667,14.24359"
       id="path867" />
    <path
       style="fill:none;stroke:#000000;stroke-width:0.264583px;stroke-linecap:butt;stroke-linejoin:miter;stroke-opacity:1"
       d="m 115.89014,135.99382 14.24367,14.24359"
       id="path869" />
    <path
       style="fill:none;stroke:#000000;stroke-width:0.264583px;stroke-linecap:butt;stroke-linejoin:miter;stroke-opacity:1"
       d="m 132.29441,135.99382 14.24367,14.24359"
       id="path871" />
    <path
       style="fill:none;stroke:#000000;stroke-width:0.264583px;stroke-linecap:butt;stroke-linejoin:miter;stroke-opacity:1"
       d="m 147.64034,135.99382 14.24367,14.24359"
       id="path873" />
    <path
       style="fill:none;stroke:#000000;stroke-width:0.264583px;stroke-linecap:butt;stroke-linejoin:miter;stroke-opacity:1"
       d="m 164.04461,135.99382 14.24367,14.24359"
       id="path875" />
    <path
       style="fill:none;stroke:#000000;stroke-width:0.264583px;stroke-linecap:butt;stroke-linejoin:miter;stroke-opacity:1"
       d="m 179.39054,135.99382 14.24367,14.24359"
       id="path877" />
    <path
       style="fill:none;stroke:#ff0000;stroke-width:0.265;stroke-linecap:butt;stroke-linejoin:miter;stroke-dasharray:none;stroke-opacity:1;marker-start:url(#Triangle);marker-end:url(#Triangle)"
       d="M 84.730417,112.69418 63.143179,129.02003 47.780211,108.57531"
       id="path881" />
    <path
       style="fill:none;stroke:#000000;stroke-width:0.264583px;stroke-linecap:butt;stroke-linejoin:miter;stroke-opacity:1"
       d="m 63.580221,128.95619 34.580671,0.0924"
       id="path885" />
    <path
       style="fill:none;stroke:#000000;stroke-width:0.264583px;stroke-linecap:butt;stroke-linejoin:miter;stroke-opacity:1"
       d="m 188.54586,128.88907 -20.80168,0.16503"
       id="path887" />
    <path
       style="fill:#ff0000;stroke:#ff0000;stroke-width:0.264;stroke-linecap:butt;stroke-linejoin:miter;stroke-miterlimit:4;stroke-dasharray:0.528, 0.264;stroke-dashoffset:0;stroke-opacity:1"
       d="m 63.271925,113.25374 v 33.48209"
       id="path956"
       inkscape:path-effect="#path-effect958;#path-effect960"
       inkscape:original-d="m 63.271925,113.25374 v 33.48209" />
    <path
       style="fill:#ff0000;stroke:#ff0000;stroke-width:0.264;stroke-linecap:butt;stroke-linejoin:miter;stroke-miterlimit:4;stroke-dasharray:0.792, 0.264;stroke-dashoffset:0;stroke-opacity:1"
       d="m 167.51817,113.25374 v 33.48209"
       id="path1078"
       inkscape:path-effect="#path-effect1082;#path-effect1086"
       inkscape:original-d="m 167.51817,113.25374 v 33.48209" />
    <path
       style="fill:none;stroke:#ff0000;stroke-width:0.264583px;stroke-linecap:butt;stroke-linejoin:miter;stroke-opacity:1;marker-start:url(#Triangle);marker-end:url(#Triangle)"
       d="m 64.284104,144.7823 102.002176,0.0668"
       id="path1121"
       inkscape:path-effect="#path-effect1123;#path-effect1125"
       inkscape:original-d="m 64.284104,144.7823 102.002176,0.0668"
       sodipodi:nodetypes="cc" />
    <path
       style="fill:none;stroke:#ff0000;stroke-width:0.264583;stroke-linecap:butt;stroke-linejoin:miter;stroke-miterlimit:4;stroke-dasharray:none;stroke-dashoffset:0;stroke-opacity:1;marker-end:url(#Triangle)"
       d="M 167.51989,128.93926 144.34132,118.10864"
       id="path1498"
       inkscape:path-effect="#path-effect1500;#path-effect1502"
       inkscape:original-d="M 167.51989,128.93926 144.34132,118.10864" />
    <path
       style="fill:#ffff00;stroke:#ff0000;stroke-width:0.264999;stroke-dasharray:none;marker-end:url(#Triangle)"
       d="m 167.51989,128.93926 -9.37606,18.42985"
       id="path1" />
    <g
       inkscape:label=""
       transform="translate(54.389071,130.45433)"
       id="g1">
      <g
         fill="#000000"
         fill-opacity="1"
         id="g2"
         transform="matrix(0.352778,0,0,0.352778,-0.99523,-0.57538)">
        <g
           id="use1"
           transform="translate(1.993,13.756)">
          <path
             d="m 12.5,-7.546875 c 0,-2.84375 -1.859375,-4.578125 -4.265625,-4.578125 -3.6875,0 -7.40625,3.96875 -7.40625,7.9375 0,2.703125 1.796875,4.546875 4.28125,4.546875 3.625,0 7.390625,-3.765625 7.390625,-7.90625 z M 5.21875,-0.03125 C 3.8125,-0.03125 2.3125,-1.0625 2.3125,-3.75 2.3125,-5.328125 2.875,-7.890625 4.28125,-9.609375 5.546875,-11.125 6.984375,-11.75 8.140625,-11.75 c 1.515625,0 2.984375,1.109375 2.984375,3.59375 0,1.53125 -0.65625,3.921875 -1.8125,5.5625 -1.25,1.75 -2.828125,2.5625 -4.09375,2.5625 z m 0,0"
             id="path2" />
        </g>
      </g>
    </g>
    <g
       inkscape:label=""
       transform="translate(98.609983,88.18585)"
       id="g5">
      <g
         fill="#000000"
         fill-opacity="1"
         id="g4"
         transform="matrix(0.352778,0,0,0.352778,-0.99523,-0.57538)">
        <g
           id="g3"
           transform="translate(1.993,13.756)">
          <path
             d="m 7.328125,-0.109375 c 2.96875,-1.1875 5.171875,-4.3125 5.171875,-7.4375 0,-2.84375 -1.859375,-4.578125 -4.265625,-4.578125 -3.6875,0 -7.40625,3.96875 -7.40625,7.9375 0,2.703125 1.796875,4.546875 4.28125,4.546875 0.59375,0 1.15625,-0.078125 1.703125,-0.25 -0.09375,1.03125 -0.09375,1.109375 -0.09375,1.4375 0,0.5 0,1.796875 1.375,1.796875 2.046875,0 2.8125,-3.21875 2.8125,-3.328125 0,-0.109375 -0.07813,-0.171875 -0.15625,-0.171875 -0.109375,0 -0.140625,0.09375 -0.1875,0.28125 -0.390625,1.078125 -1.28125,1.703125 -2.046875,1.703125 -0.875,0 -1.09375,-0.609375 -1.1875,-1.9375 z M 4.234375,-0.1875 C 2.875,-0.65625 2.21875,-2.078125 2.21875,-3.671875 2.21875,-4.875 2.671875,-7.15625 3.8125,-8.90625 5.078125,-10.859375 6.78125,-11.75 8.125,-11.75 c 1.796875,0 3,1.453125 3,3.6875 0,1.28125 -0.609375,5.546875 -3.84375,7.4375 C 7.203125,-1.5 6.953125,-2.53125 5.8125,-2.53125 c -0.921875,0 -1.71875,0.9375 -1.71875,1.78125 0,0.1875 0.078125,0.4375 0.140625,0.5625 z m 2.625,-0.203125 c -0.625,0.265625 -1.15625,0.375 -1.640625,0.375 -0.171875,0 -0.78125,0 -0.78125,-0.765625 0,-0.609375 0.609375,-1.40625 1.375,-1.40625 0.875,0 1.0625,0.59375 1.0625,1.453125 0,0.09375 0,0.234375 -0.015625,0.34375 z m 0,0"
             id="path3" />
        </g>
      </g>
    </g>
    <g
       inkscape:label=""
       transform="translate(171.93967,121.19392)"
       id="g8">
      <g
         fill="#000000"
         fill-opacity="1"
         id="g7"
         transform="matrix(0.352778,0,0,0.352778,-0.989718,-0.70216)">
        <g
           id="g6"
           transform="translate(1.993,13.756)">
          <path
             d="m 5.09375,-5.46875 h 2.890625 c 2.375,0 4.75,-1.765625 4.75,-3.71875 0,-1.34375 -1.125,-2.578125 -3.296875,-2.578125 H 4.109375 c -0.328125,0 -0.46875,0 -0.46875,0.328125 0,0.171875 0.140625,0.171875 0.40625,0.171875 1.046875,0 1.046875,0.140625 1.046875,0.328125 0,0.03125 0,0.140625 -0.0625,0.40625 l -2.328125,9.25 C 2.546875,-0.671875 2.515625,-0.5 1.3125,-0.5 c -0.328125,0 -0.5,0 -0.5,0.3125 C 0.8125,0 0.96875,0 1.0625,0 c 0.328125,0 0.671875,-0.03125 1,-0.03125 H 4.078125 C 4.40625,-0.03125 4.765625,0 5.09375,0 5.234375,0 5.421875,0 5.421875,-0.328125 5.421875,-0.5 5.265625,-0.5 5.015625,-0.5 c -1.03125,0 -1.0625,-0.125 -1.0625,-0.296875 C 3.953125,-0.875 3.984375,-1 4,-1.078125 Z m 1.25,-5.125 c 0.140625,-0.640625 0.21875,-0.671875 0.890625,-0.671875 H 8.9375 c 1.296875,0 2.359375,0.421875 2.359375,1.703125 0,0.453125 -0.21875,1.921875 -1.015625,2.703125 -0.296875,0.3125 -1.125,0.96875 -2.6875,0.96875 H 5.171875 Z m 0,0"
             id="path5" />
        </g>
      </g>
    </g>
    <g
       inkscape:label=""
       transform="translate(79.713476,122.70582)"
       id="g11">
      <g
         fill="#000000"
         fill-opacity="1"
         id="g10"
         transform="matrix(0.352778,0,0,0.352778,-0.945621,-0.642761)">
        <g
           id="g9"
           transform="translate(1.993,13.947)">
          <path
             d="M 7.625,-8.65625 C 7.625,-10.421875 7.078125,-12.125 5.671875,-12.125 3.25,-12.125 0.6875,-7.078125 0.6875,-3.28125 0.6875,-2.5 0.859375,0.171875 2.671875,0.171875 5.015625,0.171875 7.625,-4.75 7.625,-8.65625 Z m -5.21875,2.421875 c 0.265625,-1.015625 0.625,-2.46875 1.3125,-3.6875 0.5625,-1.03125 1.171875,-1.859375 1.921875,-1.859375 0.578125,0 0.953125,0.484375 0.953125,2.140625 0,0.625 -0.046875,1.484375 -0.546875,3.40625 z M 5.921875,-5.71875 C 5.5,-4.03125 5.125,-2.9375 4.515625,-1.859375 c -0.5,0.875 -1.109375,1.6875 -1.828125,1.6875 -0.53125,0 -0.96875,-0.40625 -0.96875,-2.125 0,-1.109375 0.28125,-2.28125 0.546875,-3.421875 z m 0,0"
             id="path8" />
        </g>
      </g>
    </g>
    <g
       inkscape:label=""
       transform="translate(179.97606,110.68749)"
       id="g14">
      <g
         fill="#000000"
         fill-opacity="1"
         id="g13"
         transform="matrix(0.352778,0,0,0.352778,-0.989718,-0.703748)">
        <g
           id="g12"
           transform="translate(1.993,13.948)">
          <path
             d="m 7.40625,-11.796875 c 0,-0.15625 -0.125,-0.15625 -0.171875,-0.15625 -0.15625,0 -0.171875,0.03125 -0.25,0.328125 L 6.0625,-7.921875 c -0.046875,0.21875 -0.078125,0.25 -0.09375,0.265625 -0.015625,0.03125 -0.125,0.046875 -0.171875,0.046875 -2.8125,0.234375 -4.984375,2.5625 -4.984375,4.71875 0,1.859375 1.421875,3 3.21875,3.09375 -0.140625,0.53125 -0.265625,1.09375 -0.390625,1.625 C 3.390625,2.734375 3.25,3.3125 3.25,3.375 c 0,0.03125 0,0.140625 0.171875,0.140625 0.0625,0 0.125,0 0.15625,-0.078125 C 3.609375,3.40625 3.71875,3 3.78125,2.765625 l 0.640625,-2.5625 c 2.953125,-0.15625 5.1875,-2.5625 5.1875,-4.734375 0,-1.734375 -1.3125,-2.96875 -3.21875,-3.09375 z m -1.125,4.515625 c 1.140625,0.0625 2.28125,0.703125 2.28125,2.390625 0,1.953125 -1.359375,4.53125 -4.046875,4.734375 z m -2.171875,7.140625 c -0.84375,-0.046875 -2.25,-0.5 -2.25,-2.390625 0,-2.171875 1.5625,-4.578125 4.046875,-4.734375 z m 0,0"
             id="path11" />
        </g>
      </g>
    </g>
    <g
       inkscape:label=""
       transform="translate(86.233239,115.10694)"
       id="g18">
      <g
         fill="#000000"
         fill-opacity="1"
         id="g15"
         transform="matrix(0.352778,0,0,0.352778,-0.945621,-0.703748)">
        <g
           id="use3"
           transform="translate(2.4690001,13.948)">
          <path
             d="M 3.9375,-11.953125 1.828125,-9.609375 2.03125,-9.40625 3.9375,-11.265625 5.859375,-9.40625 6.0625,-9.609375 Z m 0,0"
             id="path6" />
        </g>
      </g>
      <g
         fill="#000000"
         fill-opacity="1"
         id="g16"
         transform="matrix(0.352778,0,0,0.352778,-0.945621,-0.703748)">
        <g
           id="use4"
           transform="translate(1.993,13.949)">
          <path
             d="M 5.1875,-2.046875 C 5.09375,-1.75 5.09375,-1.71875 4.859375,-1.390625 c -0.375,0.484375 -1.140625,1.21875 -1.953125,1.21875 -0.703125,0 -1.09375,-0.640625 -1.09375,-1.65625 0,-0.9375 0.53125,-2.875 0.859375,-3.59375 C 3.25,-6.625 4.0625,-7.25 4.734375,-7.25 c 1.140625,0 1.359375,1.40625 1.359375,1.546875 0,0.015625 -0.046875,0.25 -0.0625,0.28125 z m 1.09375,-4.40625 C 6.09375,-6.90625 5.625,-7.59375 4.734375,-7.59375 c -1.9375,0 -4.046875,2.515625 -4.046875,5.0625 0,1.703125 1,2.703125 2.171875,2.703125 0.953125,0 1.75,-0.734375 2.234375,-1.3125 0.171875,1.015625 0.984375,1.3125 1.5,1.3125 0.515625,0 0.9375,-0.3125 1.234375,-0.921875 C 8.109375,-1.34375 8.34375,-2.390625 8.34375,-2.46875 8.34375,-2.546875 8.28125,-2.625 8.171875,-2.625 8.03125,-2.625 8,-2.53125 7.9375,-2.265625 7.671875,-1.25 7.359375,-0.171875 6.640625,-0.171875 c -0.5,0 -0.53125,-0.453125 -0.53125,-0.796875 0,-0.390625 0.0625,-0.578125 0.203125,-1.25 0.125,-0.4375 0.21875,-0.8125 0.34375,-1.3125 0.640625,-2.578125 0.796875,-3.203125 0.796875,-3.296875 0,-0.25 -0.1875,-0.4375 -0.4375,-0.4375 -0.5625,0 -0.703125,0.609375 -0.734375,0.8125 z m 0,0"
             id="path7" />
        </g>
      </g>
      <g
         fill="#000000"
         fill-opacity="1"
         id="g17"
         transform="matrix(0.352778,0,0,0.352778,-0.945621,-0.703748)">
        <g
           id="use5"
           transform="translate(10.841,16.531)">
          <path
             d="m 5.671875,-4.875 c -0.390625,0.0625 -0.53125,0.359375 -0.53125,0.578125 0,0.296875 0.21875,0.390625 0.390625,0.390625 0.359375,0 0.609375,-0.3125 0.609375,-0.640625 0,-0.5 -0.578125,-0.71875 -1.078125,-0.71875 -0.71875,0 -1.125,0.71875 -1.234375,0.9375 -0.28125,-0.890625 -1.015625,-0.9375 -1.234375,-0.9375 -1.21875,0 -1.859375,1.5625 -1.859375,1.828125 0,0.046875 0.046875,0.109375 0.125,0.109375 0.09375,0 0.125,-0.078125 0.140625,-0.125 0.40625,-1.328125 1.21875,-1.578125 1.5625,-1.578125 0.53125,0 0.640625,0.5 0.640625,0.78125 0,0.265625 -0.078125,0.546875 -0.21875,1.125 L 2.578125,-1.5 c -0.171875,0.71875 -0.515625,1.375 -1.15625,1.375 -0.0625,0 -0.359375,0 -0.609375,-0.15625 C 1.25,-0.359375 1.34375,-0.71875 1.34375,-0.859375 1.34375,-1.09375 1.15625,-1.25 0.9375,-1.25 c -0.296875,0 -0.609375,0.265625 -0.609375,0.640625 0,0.5 0.5625,0.734375 1.078125,0.734375 0.578125,0 0.984375,-0.453125 1.234375,-0.953125 C 2.828125,-0.125 3.4375,0.125 3.875,0.125 5.09375,0.125 5.734375,-1.453125 5.734375,-1.703125 5.734375,-1.765625 5.6875,-1.8125 5.625,-1.8125 5.515625,-1.8125 5.5,-1.75 5.46875,-1.65625 5.140625,-0.609375 4.453125,-0.125 3.90625,-0.125 3.484375,-0.125 3.265625,-0.4375 3.265625,-0.921875 3.265625,-1.1875 3.3125,-1.375 3.5,-2.15625 L 3.921875,-3.796875 C 4.09375,-4.5 4.5,-5.03125 5.0625,-5.03125 c 0.015625,0 0.359375,0 0.609375,0.15625 z m 0,0"
             id="path16" />
        </g>
      </g>
    </g>
    <g
       inkscape:label=""
       transform="translate(48.880356,103.20394)"
       id="g25">
      <g
         fill="#000000"
         fill-opacity="1"
         id="g20"
         transform="matrix(0.352778,0,0,0.352778,-0.945621,-0.703395)">
        <g
           id="g19"
           transform="translate(2.4690001,13.947)">
          <path
             d="M 3.9375,-11.953125 1.828125,-9.609375 2.03125,-9.40625 3.9375,-11.265625 5.859375,-9.40625 6.0625,-9.609375 Z m 0,0"
             id="path18" />
        </g>
      </g>
      <g
         fill="#000000"
         fill-opacity="1"
         id="g22"
         transform="matrix(0.352778,0,0,0.352778,-0.945621,-0.703395)">
        <g
           id="g21"
           transform="translate(1.993,13.949)">
          <path
             d="M 5.1875,-2.046875 C 5.09375,-1.75 5.09375,-1.71875 4.859375,-1.390625 c -0.375,0.484375 -1.140625,1.21875 -1.953125,1.21875 -0.703125,0 -1.09375,-0.640625 -1.09375,-1.65625 0,-0.9375 0.53125,-2.875 0.859375,-3.59375 C 3.25,-6.625 4.0625,-7.25 4.734375,-7.25 c 1.140625,0 1.359375,1.40625 1.359375,1.546875 0,0.015625 -0.046875,0.25 -0.0625,0.28125 z m 1.09375,-4.40625 C 6.09375,-6.90625 5.625,-7.59375 4.734375,-7.59375 c -1.9375,0 -4.046875,2.515625 -4.046875,5.0625 0,1.703125 1,2.703125 2.171875,2.703125 0.953125,0 1.75,-0.734375 2.234375,-1.3125 0.171875,1.015625 0.984375,1.3125 1.5,1.3125 0.515625,0 0.9375,-0.3125 1.234375,-0.921875 C 8.109375,-1.34375 8.34375,-2.390625 8.34375,-2.46875 8.34375,-2.546875 8.28125,-2.625 8.171875,-2.625 8.03125,-2.625 8,-2.53125 7.9375,-2.265625 7.671875,-1.25 7.359375,-0.171875 6.640625,-0.171875 c -0.5,0 -0.53125,-0.453125 -0.53125,-0.796875 0,-0.390625 0.0625,-0.578125 0.203125,-1.25 0.125,-0.4375 0.21875,-0.8125 0.34375,-1.3125 0.640625,-2.578125 0.796875,-3.203125 0.796875,-3.296875 0,-0.25 -0.1875,-0.4375 -0.4375,-0.4375 -0.5625,0 -0.703125,0.609375 -0.734375,0.8125 z m 0,0"
             id="path20" />
        </g>
      </g>
      <g
         fill="#000000"
         fill-opacity="1"
         id="g24"
         transform="matrix(0.352778,0,0,0.352778,-0.945621,-0.703395)">
        <g
           id="g23"
           transform="translate(10.841,16.531)">
          <path
             d="m 3.140625,1.34375 c -0.3125,0.453125 -0.78125,0.859375 -1.375,0.859375 C 1.625,2.203125 1.046875,2.171875 0.875,1.625 c 0.03125,0.015625 0.09375,0.015625 0.109375,0.015625 0.359375,0 0.609375,-0.3125 0.609375,-0.59375 C 1.59375,0.78125 1.359375,0.6875 1.1875,0.6875 c -0.203125,0 -0.609375,0.140625 -0.609375,0.71875 0,0.609375 0.515625,1.03125 1.1875,1.03125 C 2.96875,2.4375 4.171875,1.34375 4.5,0.015625 L 5.671875,-4.65625 C 5.6875,-4.703125 5.71875,-4.78125 5.71875,-4.859375 5.71875,-5.03125 5.5625,-5.15625 5.390625,-5.15625 5.28125,-5.15625 5.03125,-5.109375 4.9375,-4.75 L 4.046875,-1.234375 C 4,-1.015625 4,-0.984375 3.890625,-0.859375 3.65625,-0.53125 3.265625,-0.125 2.6875,-0.125 c -0.671875,0 -0.734375,-0.65625 -0.734375,-0.96875 0,-0.6875 0.328125,-1.609375 0.65625,-2.46875 0.125,-0.34375 0.203125,-0.515625 0.203125,-0.75 0,-0.5 -0.359375,-0.953125 -0.953125,-0.953125 -1.09375,0 -1.53125,1.734375 -1.53125,1.828125 0,0.046875 0.046875,0.109375 0.125,0.109375 0.109375,0 0.125,-0.046875 0.171875,-0.21875 0.28125,-1 0.734375,-1.484375 1.203125,-1.484375 0.109375,0 0.3125,0 0.3125,0.390625 0,0.3125 -0.125,0.65625 -0.3125,1.109375 C 1.25,-1.953125 1.25,-1.5625 1.25,-1.28125 1.25,-0.140625 2.0625,0.125 2.65625,0.125 3,0.125 3.4375,0.015625 3.84375,-0.4375 l 0.015625,0.015625 C 3.6875,0.28125 3.5625,0.75 3.140625,1.34375 Z m 0,0"
             id="path22" />
        </g>
      </g>
    </g>
    <g
       inkscape:label=""
       transform="translate(144.69648,108.8166)"
       id="g32">
      <g
         fill="#000000"
         fill-opacity="1"
         id="g27"
         transform="matrix(0.352778,0,0,0.352778,-0.978694,-0.703748)">
        <g
           id="g26"
           transform="translate(1.628,13.948)">
          <path
             d="M 3.9375,-11.953125 1.828125,-9.609375 2.03125,-9.40625 3.9375,-11.265625 5.859375,-9.40625 6.0625,-9.609375 Z m 0,0"
             id="path25" />
        </g>
      </g>
      <g
         fill="#000000"
         fill-opacity="1"
         id="g29"
         transform="matrix(0.352778,0,0,0.352778,-0.978694,-0.703748)">
        <g
           id="g28"
           transform="translate(1.993,18.492001)">
          <path
             d="M 3.984375,-11.515625 C 4,-11.59375 4.03125,-11.6875 4.03125,-11.78125 c 0,-0.171875 -0.171875,-0.171875 -0.203125,-0.171875 -0.015625,0 -0.640625,0.0625 -0.953125,0.09375 -0.296875,0.01563 -0.546875,0.04687 -0.859375,0.0625 -0.421875,0.03125 -0.53125,0.04687 -0.53125,0.359375 0,0.171875 0.171875,0.171875 0.34375,0.171875 0.875,0 0.875,0.15625 0.875,0.328125 0,0.125 -0.140625,0.625 -0.203125,0.9375 L 2.078125,-8.34375 C 1.90625,-7.65625 0.9375,-3.75 0.859375,-3.4375 0.78125,-3.015625 0.78125,-2.71875 0.78125,-2.5 c 0,1.765625 0.96875,2.671875 2.09375,2.671875 2,0 4.0625,-2.5625 4.0625,-5.0625 0,-1.578125 -0.890625,-2.703125 -2.1875,-2.703125 -0.890625,0 -1.703125,0.734375 -2.03125,1.078125 z m -1.09375,11.34375 c -0.546875,0 -1.15625,-0.40625 -1.15625,-1.75 0,-0.578125 0.0625,-0.90625 0.359375,-2.109375 C 2.15625,-4.25 2.421875,-5.359375 2.5,-5.578125 2.53125,-5.71875 3.546875,-7.25 4.71875,-7.25 c 0.75,0 1.09375,0.765625 1.09375,1.65625 0,0.828125 -0.46875,2.765625 -0.90625,3.671875 -0.421875,0.921875 -1.21875,1.75 -2.015625,1.75 z m 0,0"
             id="path27" />
        </g>
      </g>
      <g
         fill="#000000"
         fill-opacity="1"
         id="g31"
         transform="matrix(0.352778,0,0,0.352778,-0.978694,-0.703748)">
        <g
           id="g30"
           transform="translate(9.1599998,21.073999)">
          <path
             d="m 5.671875,-4.875 c -0.390625,0.0625 -0.53125,0.359375 -0.53125,0.578125 0,0.296875 0.21875,0.390625 0.390625,0.390625 0.359375,0 0.609375,-0.3125 0.609375,-0.640625 0,-0.5 -0.578125,-0.71875 -1.078125,-0.71875 -0.71875,0 -1.125,0.71875 -1.234375,0.9375 -0.28125,-0.890625 -1.015625,-0.9375 -1.234375,-0.9375 -1.21875,0 -1.859375,1.5625 -1.859375,1.828125 0,0.046875 0.046875,0.109375 0.125,0.109375 0.09375,0 0.125,-0.078125 0.140625,-0.125 0.40625,-1.328125 1.21875,-1.578125 1.5625,-1.578125 0.53125,0 0.640625,0.5 0.640625,0.78125 0,0.265625 -0.078125,0.546875 -0.21875,1.125 L 2.578125,-1.5 c -0.171875,0.71875 -0.515625,1.375 -1.15625,1.375 -0.0625,0 -0.359375,0 -0.609375,-0.15625 C 1.25,-0.359375 1.34375,-0.71875 1.34375,-0.859375 1.34375,-1.09375 1.15625,-1.25 0.9375,-1.25 c -0.296875,0 -0.609375,0.265625 -0.609375,0.640625 0,0.5 0.5625,0.734375 1.078125,0.734375 0.578125,0 0.984375,-0.453125 1.234375,-0.953125 C 2.828125,-0.125 3.4375,0.125 3.875,0.125 5.09375,0.125 5.734375,-1.453125 5.734375,-1.703125 5.734375,-1.765625 5.6875,-1.8125 5.625,-1.8125 5.515625,-1.8125 5.5,-1.75 5.46875,-1.65625 5.140625,-0.609375 4.453125,-0.125 3.90625,-0.125 3.484375,-0.125 3.265625,-0.4375 3.265625,-0.921875 3.265625,-1.1875 3.3125,-1.375 3.5,-2.15625 L 3.921875,-3.796875 C 4.09375,-4.5 4.5,-5.03125 5.0625,-5.03125 c 0.015625,0 0.359375,0 0.609375,0.15625 z m 0,0"
             id="path29" />
        </g>
      </g>
    </g>
    <g
       inkscape:label=""
       transform="translate(155.11999,136.479)"
       id="g39">
      <g
         fill="#000000"
         fill-opacity="1"
         id="g34"
         transform="matrix(0.352778,0,0,0.352778,-0.978694,-0.703748)">
        <g
           id="g33"
           transform="translate(1.628,13.948)">
          <path
             d="M 3.9375,-11.953125 1.828125,-9.609375 2.03125,-9.40625 3.9375,-11.265625 5.859375,-9.40625 6.0625,-9.609375 Z m 0,0"
             id="path32" />
        </g>
      </g>
      <g
         fill="#000000"
         fill-opacity="1"
         id="g36"
         transform="matrix(0.352778,0,0,0.352778,-0.978694,-0.703748)">
        <g
           id="g35"
           transform="translate(1.993,18.492001)">
          <path
             d="M 3.984375,-11.515625 C 4,-11.59375 4.03125,-11.6875 4.03125,-11.78125 c 0,-0.171875 -0.171875,-0.171875 -0.203125,-0.171875 -0.015625,0 -0.640625,0.0625 -0.953125,0.09375 -0.296875,0.01563 -0.546875,0.04687 -0.859375,0.0625 -0.421875,0.03125 -0.53125,0.04687 -0.53125,0.359375 0,0.171875 0.171875,0.171875 0.34375,0.171875 0.875,0 0.875,0.15625 0.875,0.328125 0,0.125 -0.140625,0.625 -0.203125,0.9375 L 2.078125,-8.34375 C 1.90625,-7.65625 0.9375,-3.75 0.859375,-3.4375 0.78125,-3.015625 0.78125,-2.71875 0.78125,-2.5 c 0,1.765625 0.96875,2.671875 2.09375,2.671875 2,0 4.0625,-2.5625 4.0625,-5.0625 0,-1.578125 -0.890625,-2.703125 -2.1875,-2.703125 -0.890625,0 -1.703125,0.734375 -2.03125,1.078125 z m -1.09375,11.34375 c -0.546875,0 -1.15625,-0.40625 -1.15625,-1.75 0,-0.578125 0.0625,-0.90625 0.359375,-2.109375 C 2.15625,-4.25 2.421875,-5.359375 2.5,-5.578125 2.53125,-5.71875 3.546875,-7.25 4.71875,-7.25 c 0.75,0 1.09375,0.765625 1.09375,1.65625 0,0.828125 -0.46875,2.765625 -0.90625,3.671875 -0.421875,0.921875 -1.21875,1.75 -2.015625,1.75 z m 0,0"
             id="path34" />
        </g>
      </g>
      <g
         fill="#000000"
         fill-opacity="1"
         id="g38"
         transform="matrix(0.352778,0,0,0.352778,-0.978694,-0.703748)">
        <g
           id="g37"
           transform="translate(9.1599998,21.073999)">
          <path
             d="m 3.140625,1.34375 c -0.3125,0.453125 -0.78125,0.859375 -1.375,0.859375 C 1.625,2.203125 1.046875,2.171875 0.875,1.625 c 0.03125,0.015625 0.09375,0.015625 0.109375,0.015625 0.359375,0 0.609375,-0.3125 0.609375,-0.59375 C 1.59375,0.78125 1.359375,0.6875 1.1875,0.6875 c -0.203125,0 -0.609375,0.140625 -0.609375,0.71875 0,0.609375 0.515625,1.03125 1.1875,1.03125 C 2.96875,2.4375 4.171875,1.34375 4.5,0.015625 L 5.671875,-4.65625 C 5.6875,-4.703125 5.71875,-4.78125 5.71875,-4.859375 5.71875,-5.03125 5.5625,-5.15625 5.390625,-5.15625 5.28125,-5.15625 5.03125,-5.109375 4.9375,-4.75 L 4.046875,-1.234375 C 4,-1.015625 4,-0.984375 3.890625,-0.859375 3.65625,-0.53125 3.265625,-0.125 2.6875,-0.125 c -0.671875,0 -0.734375,-0.65625 -0.734375,-0.96875 0,-0.6875 0.328125,-1.609375 0.65625,-2.46875 0.125,-0.34375 0.203125,-0.515625 0.203125,-0.75 0,-0.5 -0.359375,-0.953125 -0.953125,-0.953125 -1.09375,0 -1.53125,1.734375 -1.53125,1.828125 0,0.046875 0.046875,0.109375 0.125,0.109375 0.109375,0 0.125,-0.046875 0.171875,-0.21875 0.28125,-1 0.734375,-1.484375 1.203125,-1.484375 0.109375,0 0.3125,0 0.3125,0.390625 0,0.3125 -0.125,0.65625 -0.3125,1.109375 C 1.25,-1.953125 1.25,-1.5625 1.25,-1.28125 1.25,-0.140625 2.0625,0.125 2.65625,0.125 3,0.125 3.4375,0.015625 3.84375,-0.4375 l 0.015625,0.015625 C 3.6875,0.28125 3.5625,0.75 3.140625,1.34375 Z m 0,0"
             id="path36" />
        </g>
      </g>
    </g>
    <g
       inkscape:label=""
       transform="translate(115.43047,141.02258)"
       id="g42">
      <g
         fill="#000000"
         fill-opacity="1"
         id="g41"
         transform="matrix(0.352778,0,0,0.352778,-0.873963,-0.638616)">
        <g
           id="g40"
           transform="translate(1.993,9.4040003)">
          <path
             d="m 8.15625,-7.03125 c -0.546875,0.109375 -0.75,0.515625 -0.75,0.84375 0,0.421875 0.328125,0.5625 0.5625,0.5625 0.515625,0 0.875,-0.453125 0.875,-0.921875 0,-0.71875 -0.8125,-1.046875 -1.546875,-1.046875 -1.046875,0 -1.625,1.03125 -1.78125,1.359375 -0.40625,-1.296875 -1.46875,-1.359375 -1.78125,-1.359375 -1.75,0 -2.6875,2.25 -2.6875,2.640625 0,0.0625 0.078125,0.15625 0.1875,0.15625 0.140625,0 0.171875,-0.109375 0.21875,-0.171875 C 2.03125,-6.890625 3.1875,-7.25 3.6875,-7.25 c 0.765625,0 0.921875,0.71875 0.921875,1.140625 0,0.375 -0.09375,0.765625 -0.296875,1.59375 L 3.71875,-2.15625 c -0.25,1.03125 -0.75,1.984375 -1.671875,1.984375 -0.078125,0 -0.515625,0 -0.875,-0.21875 0.625,-0.125 0.75,-0.640625 0.75,-0.84375 0,-0.34375 -0.25,-0.5625 -0.578125,-0.5625 -0.40625,0 -0.859375,0.375 -0.859375,0.921875 0,0.71875 0.8125,1.046875 1.546875,1.046875 0.828125,0 1.40625,-0.65625 1.78125,-1.359375 0.265625,1.015625 1.125,1.359375 1.765625,1.359375 1.75,0 2.6875,-2.25 2.6875,-2.640625 0,-0.078125 -0.0625,-0.15625 -0.171875,-0.15625 -0.15625,0 -0.171875,0.09375 -0.21875,0.234375 -0.46875,1.515625 -1.46875,2.21875 -2.25,2.21875 -0.59375,0 -0.921875,-0.453125 -0.921875,-1.15625 0,-0.375 0.0625,-0.65625 0.34375,-1.78125 l 0.59375,-2.34375 C 5.90625,-6.484375 6.484375,-7.25 7.28125,-7.25 c 0.03125,0 0.515625,0 0.875,0.21875 z m 0,0"
             id="path39" />
        </g>
      </g>
    </g>
    <g
       inkscape:label=""
       transform="translate(76.275483,105.60937)"
       id="g45">
      <g
         fill="#000000"
         fill-opacity="1"
         id="g44"
         transform="matrix(0.352778,0,0,0.352778,-0.907036,-0.514747)">
        <g
           id="g43"
           transform="translate(1.993,13.756)">
          <path
             d="M 2.921875,-1.90625 C 2.328125,-0.890625 1.734375,-0.546875 0.90625,-0.5 0.71875,-0.484375 0.578125,-0.484375 0.578125,-0.171875 0.578125,-0.0625 0.671875,0 0.796875,0 1.109375,0 1.875,-0.03125 2.1875,-0.03125 2.6875,-0.03125 3.234375,0 3.71875,0 3.828125,0 4.03125,0 4.03125,-0.328125 4.03125,-0.484375 3.890625,-0.5 3.78125,-0.5 3.390625,-0.53125 3.0625,-0.671875 3.0625,-1.078125 c 0,-0.25 0.109375,-0.4375 0.328125,-0.8125 L 4.703125,-4.0625 H 9.09375 c 0.015625,0.15625 0.015625,0.296875 0.03125,0.453125 0.046875,0.4375 0.265625,2.234375 0.265625,2.5625 C 9.390625,-0.53125 8.5,-0.5 8.234375,-0.5 c -0.1875,0 -0.375,0 -0.375,0.3125 C 7.859375,0 8,0 8.109375,0 8.40625,0 8.75,-0.03125 9.046875,-0.03125 h 0.96875 c 1.0625,0 1.8125,0.03125 1.828125,0.03125 0.125,0 0.3125,0 0.3125,-0.328125 C 12.15625,-0.5 12,-0.5 11.75,-0.5 c -0.953125,0 -0.96875,-0.15625 -1.015625,-0.671875 l -1.0625,-10.75 c -0.03125,-0.34375 -0.09375,-0.375 -0.28125,-0.375 -0.171875,0 -0.28125,0.03125 -0.4375,0.296875 z M 5,-4.5625 l 3.453125,-5.78125 0.59375,5.78125 z m 0,0"
             id="path42" />
        </g>
      </g>
    </g>
    <g
       inkscape:label=""
       transform="translate(130.5312,103.20394)"
       id="g48">
      <g
         fill="#000000"
         fill-opacity="1"
         id="g47"
         transform="matrix(0.352778,0,0,0.352778,-0.99523,-0.70216)">
        <g
           id="g46"
           transform="translate(1.993,13.756)">
          <path
             d="m 6.296875,-10.59375 c 0.15625,-0.640625 0.234375,-0.671875 0.90625,-0.671875 H 9.4375 c 1.9375,0 1.9375,1.65625 1.9375,1.8125 0,1.390625 -1.390625,3.171875 -3.65625,3.171875 H 5.234375 Z m 2.921875,4.453125 c 1.875,-0.34375 3.578125,-1.65625 3.578125,-3.25 0,-1.34375 -1.1875,-2.375 -3.140625,-2.375 H 4.125 c -0.3125,0 -0.46875,0 -0.46875,0.328125 0,0.171875 0.15625,0.171875 0.40625,0.171875 1.046875,0 1.046875,0.140625 1.046875,0.328125 0,0.03125 0,0.140625 -0.0625,0.40625 l -2.328125,9.25 C 2.5625,-0.671875 2.53125,-0.5 1.328125,-0.5 c -0.328125,0 -0.5,0 -0.5,0.3125 C 0.828125,0 0.9375,0 1.28125,0 H 7.1875 c 2.625,0 4.65625,-2 4.65625,-3.734375 0,-1.40625 -1.234375,-2.28125 -2.625,-2.40625 z M 6.765625,-0.5 H 4.4375 c -0.234375,0 -0.265625,0 -0.375,-0.015625 C 3.875,-0.53125 3.859375,-0.5625 3.859375,-0.703125 c 0,-0.125 0.03125,-0.234375 0.0625,-0.375 L 5.125,-5.9375 h 3.25 c 2.03125,0 2.03125,1.890625 2.03125,2.03125 0,1.65625 -1.5,3.40625 -3.640625,3.40625 z m 0,0"
             id="path45" />
        </g>
      </g>
    </g>
    <path
       style="fill:none;stroke:#ff0000;stroke-width:0.264999;stroke-dasharray:none;marker-start:url(#Triangle)"
       id="path48"
       sodipodi:type="arc"
       sodipodi:cx="63.17915"
       sodipodi:cy="128.92859"
       sodipodi:rx="13.76438"
       sodipodi:ry="13.76438"
       sodipodi:start="5.7239583"
       sodipodi:end="0.0058734355"
       sodipodi:arc-type="arc"
       d="m 74.84674,121.62616 a 13.76438,13.76438 0 0 1 2.096553,7.38327"
       sodipodi:open="true" />
    <path
       style="fill:none;stroke:#ff0000;stroke-width:0.264999;stroke-dasharray:none;marker-start:url(#Triangle)"
       id="path49"
       sodipodi:type="arc"
       sodipodi:cx="167.41426"
       sodipodi:cy="128.79495"
       sodipodi:rx="18.174328"
       sodipodi:ry="18.174328"
       sodipodi:start="3.6438063"
       sodipodi:end="0.0109225"
       sodipodi:arc-type="arc"
       d="m 151.48411,120.04643 a 18.174328,18.174328 0 0 1 20.54211,-8.8309 18.174328,18.174328 0 0 1 13.56128,17.77793"
       sodipodi:open="true" />
    <path
       style="fill:none;stroke:#000000;stroke-width:0.3"
       d="M 101.53233,100.46439 87.90158,86.16547"
       id="path4" />
    <path
       style="fill:none;stroke:#000000;stroke-width:0.3;marker-start:url(#Triangle);marker-end:url(#Triangle)"
       d="M 89.171112,89.23907 54.559707,115.69875"
       id="path9"
       sodipodi:nodetypes="cc" />
    <path
       style="fill:none;stroke:#000000;stroke-width:0.3"
       d="m 101.53233,100.19712 6.949,-17.506154"
       id="path10"
       sodipodi:nodetypes="cc" />
    <path
       style="fill:none;stroke:#000000;stroke-width:0.3"
       d="m 167.5479,128.66132 7.21628,-18.70886"
       id="path12"
       sodipodi:nodetypes="cc" />
    <path
       style="fill:none;stroke:#000000;stroke-width:0.3;marker-start:url(#Triangle);marker-end:url(#Triangle)"
       d="m 108.3477,86.299105 63.87742,27.395125"
       id="path13"
       sodipodi:nodetypes="cc" />
    <g
       inkscape:label=""
       transform="translate(66.787258,95.453061)"
       id="g52">
      <g
         fill="#000000"
         fill-opacity="1"
         id="g49"
         transform="matrix(0.352778,0,0,0.352778,-1.03933,-0.710097)">
        <g
           id="use2"
           transform="translate(1.993,16.341)">
          <path
             d="m 5.25,-13.8125 c 0.015625,-0.09375 0.0625,-0.21875 0.0625,-0.3125 0,-0.203125 -0.203125,-0.203125 -0.25,-0.203125 -0.015625,0 -0.765625,0.04687 -1.140625,0.09375 -0.34375,0.01563 -0.65625,0.0625 -1.03125,0.07813 -0.5,0.04687 -0.640625,0.0625 -0.640625,0.4375 0,0.203125 0.203125,0.203125 0.421875,0.203125 1.046875,0 1.046875,0.1875 1.046875,0.40625 0,0.07813 0,0.109375 -0.109375,0.484375 l -2.5625,10.25 c -0.0625,0.234375 -0.09375,0.390625 -0.09375,0.71875 0,1.03125 0.765625,1.859375 1.8125,1.859375 0.6875,0 1.140625,-0.453125 1.46875,-1.09375 C 4.578125,-1.5625 4.875,-2.875 4.875,-2.953125 c 0,-0.109375 -0.078125,-0.1875 -0.203125,-0.1875 -0.1875,0 -0.203125,0.109375 -0.296875,0.40625 -0.375,1.4375 -0.734375,2.53125 -1.5625,2.53125 -0.625,0 -0.625,-0.671875 -0.625,-0.953125 0,-0.078125 0,-0.515625 0.140625,-1.09375 z m 0,0"
             id="path14" />
        </g>
      </g>
      <g
         fill="#000000"
         fill-opacity="1"
         id="g51"
         transform="matrix(0.352778,0,0,0.352778,-1.03933,-0.710097)">
        <g
           id="g50"
           transform="translate(8.0190001,19.440001)">
          <path
             d="M 2.4375,-1.59375 C 1.9375,-0.75 1.453125,-0.453125 0.765625,-0.421875 0.609375,-0.40625 0.484375,-0.40625 0.484375,-0.140625 0.484375,-0.0625 0.5625,0 0.65625,0 0.921875,0 1.5625,-0.03125 1.828125,-0.03125 2.234375,-0.03125 2.703125,0 3.09375,0 3.1875,0 3.359375,0 3.359375,-0.265625 c 0,-0.140625 -0.125,-0.15625 -0.203125,-0.15625 C 2.828125,-0.4375 2.546875,-0.5625 2.546875,-0.90625 c 0,-0.203125 0.09375,-0.359375 0.28125,-0.671875 l 1.09375,-1.8125 h 3.65625 c 0.015625,0.140625 0.015625,0.25 0.03125,0.375 0.03125,0.375 0.203125,1.875 0.203125,2.140625 0,0.4375 -0.734375,0.453125 -0.953125,0.453125 -0.15625,0 -0.3125,0 -0.3125,0.265625 C 6.546875,0 6.671875,0 6.75,0 7,0 7.28125,-0.03125 7.53125,-0.03125 h 0.8125 C 9.21875,-0.03125 9.859375,0 9.875,0 c 0.09375,0 0.25,0 0.25,-0.265625 0,-0.15625 -0.125,-0.15625 -0.34375,-0.15625 -0.78125,0 -0.796875,-0.125 -0.84375,-0.546875 l -0.875,-8.953125 c -0.03125,-0.296875 -0.09375,-0.3125 -0.25,-0.3125 -0.140625,0 -0.21875,0.01563 -0.359375,0.234375 z M 4.15625,-3.796875 7.046875,-8.625 7.53125,-3.796875 Z m 0,0"
             id="path50" />
        </g>
      </g>
    </g>
    <g
       inkscape:label=""
       transform="translate(142.0236,93.715453)"
       id="g57">
      <g
         fill="#000000"
         fill-opacity="1"
         id="g54"
         transform="matrix(0.352778,0,0,0.352778,-1.03933,-0.710097)">
        <g
           id="g53"
           transform="translate(1.993,16.341)">
          <path
             d="m 5.25,-13.8125 c 0.015625,-0.09375 0.0625,-0.21875 0.0625,-0.3125 0,-0.203125 -0.203125,-0.203125 -0.25,-0.203125 -0.015625,0 -0.765625,0.04687 -1.140625,0.09375 -0.34375,0.01563 -0.65625,0.0625 -1.03125,0.07813 -0.5,0.04687 -0.640625,0.0625 -0.640625,0.4375 0,0.203125 0.203125,0.203125 0.421875,0.203125 1.046875,0 1.046875,0.1875 1.046875,0.40625 0,0.07813 0,0.109375 -0.109375,0.484375 l -2.5625,10.25 c -0.0625,0.234375 -0.09375,0.390625 -0.09375,0.71875 0,1.03125 0.765625,1.859375 1.8125,1.859375 0.6875,0 1.140625,-0.453125 1.46875,-1.09375 C 4.578125,-1.5625 4.875,-2.875 4.875,-2.953125 c 0,-0.109375 -0.078125,-0.1875 -0.203125,-0.1875 -0.1875,0 -0.203125,0.109375 -0.296875,0.40625 -0.375,1.4375 -0.734375,2.53125 -1.5625,2.53125 -0.625,0 -0.625,-0.671875 -0.625,-0.953125 0,-0.078125 0,-0.515625 0.140625,-1.09375 z m 0,0"
             id="path52" />
        </g>
      </g>
      <g
         fill="#000000"
         fill-opacity="1"
         id="g56"
         transform="matrix(0.352778,0,0,0.352778,-1.03933,-0.710097)">
        <g
           id="g55"
           transform="translate(8.0190001,19.440001)">
          <path
             d="M 5.25,-8.828125 C 5.375,-9.359375 5.4375,-9.375 6,-9.375 h 1.859375 c 1.625,0 1.625,1.375 1.625,1.5 0,1.15625 -1.171875,2.640625 -3.0625,2.640625 h -2.0625 z M 7.671875,-5.125 c 1.5625,-0.28125 2.984375,-1.375 2.984375,-2.6875 0,-1.125 -0.984375,-1.984375 -2.609375,-1.984375 H 3.4375 c -0.265625,0 -0.390625,0 -0.390625,0.265625 0,0.15625 0.125,0.15625 0.34375,0.15625 0.875,0 0.875,0.109375 0.875,0.265625 0,0.03125 0,0.109375 -0.0625,0.328125 l -1.9375,7.71875 c -0.125,0.5 -0.15625,0.640625 -1.15625,0.640625 -0.28125,0 -0.421875,0 -0.421875,0.265625 C 0.6875,0 0.78125,0 1.0625,0 H 5.984375 C 8.171875,0 9.875,-1.65625 9.875,-3.109375 9.875,-4.28125 8.828125,-5 7.671875,-5.125 Z m -2.03125,4.703125 h -1.9375 c -0.203125,0 -0.234375,0 -0.3125,-0.015625 -0.15625,0 -0.171875,-0.03125 -0.171875,-0.15625 0,-0.09375 0.015625,-0.1875 0.046875,-0.3125 L 4.28125,-4.953125 h 2.6875 c 1.6875,0 1.6875,1.578125 1.6875,1.703125 0,1.375 -1.234375,2.828125 -3.015625,2.828125 z m 0,0"
             id="path54" />
        </g>
      </g>
    </g>
  </g>
</svg>
