<?xml version="1.0" encoding="UTF-8" standalone="no"?>
<svg
   xmlns:dc="http://purl.org/dc/elements/1.1/"
   xmlns:cc="http://creativecommons.org/ns#"
   xmlns:rdf="http://www.w3.org/1999/02/22-rdf-syntax-ns#"
   xmlns:svg="http://www.w3.org/2000/svg"
   xmlns="http://www.w3.org/2000/svg"
   xmlns:sodipodi="http://sodipodi.sourceforge.net/DTD/sodipodi-0.dtd"
   xmlns:inkscape="http://www.inkscape.org/namespaces/inkscape"
   width="102.47662mm"
   height="120.54956mm"
   viewBox="0 0 102.47662 120.54956"
   version="1.1"
   id="svg8"
   sodipodi:docname="cinetica01.svg"
   inkscape:version="1.0.1 (3bc2e813f5, 2020-09-07)">
  <defs
     id="defs2">
    <marker
       style="overflow:visible"
       id="marker1977"
       refX="0"
       refY="0"
       orient="auto"
       inkscape:stockid="Arrow1Lend"
       inkscape:isstock="true">
      <path
         transform="matrix(-0.8,0,0,-0.8,-10,0)"
         style="fill:#ff0000;fill-opacity:1;fill-rule:evenodd;stroke:#ff0000;stroke-width:1pt;stroke-opacity:1"
         d="M 0,0 5,-5 -12.5,0 5,5 Z"
         id="path1975" />
    </marker>
    <marker
       style="overflow:visible"
       id="marker1967"
       refX="0"
       refY="0"
       orient="auto"
       inkscape:stockid="Arrow1Lstart"
       inkscape:isstock="true">
      <path
         transform="matrix(0.8,0,0,0.8,10,0)"
         style="fill:#ff0000;fill-opacity:1;fill-rule:evenodd;stroke:#ff0000;stroke-width:1pt;stroke-opacity:1"
         d="M 0,0 5,-5 -12.5,0 5,5 Z"
         id="path1965" />
    </marker>
    <marker
       style="overflow:visible"
       id="marker1255"
       refX="0"
       refY="0"
       orient="auto"
       inkscape:stockid="Arrow1Lend"
       inkscape:isstock="true">
      <path
         transform="matrix(-0.8,0,0,-0.8,-10,0)"
         style="fill:#000000;fill-opacity:1;fill-rule:evenodd;stroke:#000000;stroke-width:1pt;stroke-opacity:1"
         d="M 0,0 5,-5 -12.5,0 5,5 Z"
         id="path1253" />
    </marker>
    <marker
       style="overflow:visible"
       id="Arrow1Lstart"
       refX="0"
       refY="0"
       orient="auto"
       inkscape:stockid="Arrow1Lstart"
       inkscape:isstock="true"
       inkscape:collect="always">
      <path
         transform="matrix(0.8,0,0,0.8,10,0)"
         style="fill:#0000ff;fill-opacity:1;fill-rule:evenodd;stroke:#0000ff;stroke-width:1pt;stroke-opacity:1"
         d="M 0,0 5,-5 -12.5,0 5,5 Z"
         id="path925" />
    </marker>
    <marker
       style="overflow:visible"
       id="Arrow1Lend"
       refX="0"
       refY="0"
       orient="auto"
       inkscape:stockid="Arrow1Lend"
       inkscape:isstock="true"
       inkscape:collect="always">
      <path
         transform="matrix(-0.8,0,0,-0.8,-10,0)"
         style="fill:#0000ff;fill-opacity:1;fill-rule:evenodd;stroke:#0000ff;stroke-width:1pt;stroke-opacity:1"
         d="M 0,0 5,-5 -12.5,0 5,5 Z"
         id="path928" />
    </marker>
  </defs>
  <sodipodi:namedview
     id="base"
     pagecolor="#ffffff"
     bordercolor="#666666"
     borderopacity="1.0"
     inkscape:pageopacity="0.0"
     inkscape:pageshadow="2"
     inkscape:zoom="1.4"
     inkscape:cx="240.4933"
     inkscape:cy="232.76549"
     inkscape:document-units="mm"
     inkscape:current-layer="layer1"
     inkscape:document-rotation="0"
     showgrid="false"
     showguides="true"
     inkscape:guide-bbox="true"
     showborder="false"
     inkscape:window-width="1920"
     inkscape:window-height="1017"
     inkscape:window-x="-8"
     inkscape:window-y="-8"
     inkscape:window-maximized="1">
    <sodipodi:guide
       position="58.106262,72.153935"
       orientation="1,0"
       id="guide841" />
    <sodipodi:guide
       position="58.106262,72.153945"
       orientation="0,-1"
       id="guide843" />
  </sodipodi:namedview>
  <metadata
     id="metadata5">
    <rdf:RDF>
      <cc:Work
         rdf:about="">
        <dc:format>image/svg+xml</dc:format>
        <dc:type
           rdf:resource="http://purl.org/dc/dcmitype/StillImage" />
        <dc:title />
      </cc:Work>
    </rdf:RDF>
  </metadata>
  <g
     inkscape:label="Layer 1"
     inkscape:groupmode="layer"
     id="layer1"
     transform="translate(-47.999735,-47.286868)">
    <rect
       style="fill:#ffffff;stroke:none;stroke-width:0.7;stroke-miterlimit:4;stroke-dasharray:none;stroke-dashoffset:0"
       id="rect2983"
       width="101.77662"
       height="119.84956"
       x="48.349735"
       y="47.636868" />
    <path
       id="path847"
       style="fill:#ffffff;stroke:#000000;stroke-width:0.7;stroke-miterlimit:4;stroke-dasharray:none"
       d="M 106.0049,54.389961 A 41.292592,41.292592 0 0 0 64.813613,95.682532 41.292592,41.292592 0 0 0 106.10618,136.9751 V 54.389961 a 41.292592,41.292592 0 0 0 -0.10128,0 z" />
    <path
       id="path849"
       style="fill:#ffffff;stroke:#000000;stroke-width:0.7;stroke-miterlimit:4;stroke-dasharray:none"
       d="M 106.07156,61.880977 A 33.801269,33.801269 0 0 0 72.304629,95.682532 33.801269,33.801269 0 0 0 106.10618,129.48357 V 61.880977 a 33.801269,33.801269 0 0 0 -0.0346,0 z" />
    <circle
       style="fill:#ffffff;stroke:none;stroke-width:0.7;stroke-miterlimit:4;stroke-dasharray:none"
       id="path877"
       cx="108.58739"
       cy="95.635269"
       r="33.534904" />
    <rect
       style="fill:#ffffff;stroke:#000000;stroke-width:0.7;stroke-miterlimit:4;stroke-dasharray:none"
       id="rect889"
       width="7.0241175"
       height="19.420881"
       x="102.59394"
       y="136.78543" />
    <g
       id="g909"
       transform="translate(55.445834,-12.430846)"
       style="stroke-width:0.7;stroke-miterlimit:4;stroke-dasharray:none">
      <path
         style="fill:none;stroke:#000000;stroke-width:0.7;stroke-linecap:butt;stroke-linejoin:miter;stroke-miterlimit:4;stroke-dasharray:none;stroke-opacity:1"
         d="m 37.407228,168.347 c 0.749056,-0.0147 24.321412,0 24.321412,0"
         id="path891" />
      <path
         style="fill:none;stroke:#000000;stroke-width:0.7;stroke-linecap:butt;stroke-linejoin:miter;stroke-miterlimit:4;stroke-dasharray:none;stroke-opacity:1"
         d="m 40.413881,168.63716 3.680955,6.3756"
         id="path893" />
      <path
         style="fill:none;stroke:#000000;stroke-width:0.7;stroke-linecap:butt;stroke-linejoin:miter;stroke-miterlimit:4;stroke-dasharray:none;stroke-opacity:1"
         d="m 45.705551,168.63716 3.680955,6.3756"
         id="path895" />
      <path
         style="fill:none;stroke:#000000;stroke-width:0.7;stroke-linecap:butt;stroke-linejoin:miter;stroke-miterlimit:4;stroke-dasharray:none;stroke-opacity:1"
         d="m 50.468054,168.63716 3.680955,6.3756"
         id="path897" />
      <path
         style="fill:none;stroke:#000000;stroke-width:0.7;stroke-linecap:butt;stroke-linejoin:miter;stroke-miterlimit:4;stroke-dasharray:none;stroke-opacity:1"
         d="m 54.172223,168.63716 3.680955,6.3756"
         id="path899" />
      <path
         style="fill:none;stroke:#000000;stroke-width:0.7;stroke-linecap:butt;stroke-linejoin:miter;stroke-miterlimit:4;stroke-dasharray:none;stroke-opacity:1"
         d="m 58.405559,168.63716 3.680955,6.3756"
         id="path901" />
    </g>
    <rect
       style="fill:#ffffff;stroke:#000000;stroke-width:0.7;stroke-miterlimit:4;stroke-dasharray:none"
       id="rect911"
       width="10.188842"
       height="12.259392"
       x="101.01158"
       y="143.81641" />
    <circle
       style="fill:#ff0000;stroke:#000000;stroke-width:0.7;stroke-miterlimit:4;stroke-dasharray:none"
       id="path913"
       cx="71.62294"
       cy="111.5125"
       r="2.8949738" />
    <path
       style="fill:#000000;stroke:#000000;stroke-width:0.264583px;stroke-linecap:butt;stroke-linejoin:miter;stroke-opacity:1;marker-end:url(#marker1255)"
       d="M 106.106,95.682479 71.630685,111.79818"
       id="path1251" />
    <path
       style="fill:none;stroke:#000000;stroke-width:0.264583;stroke-linecap:butt;stroke-linejoin:miter;stroke-miterlimit:4;stroke-dasharray:2.11667, 2.11667;stroke-dashoffset:0;stroke-opacity:1"
       d="M 106.106,95.682479 H 68.845737"
       id="path1335" />
    <path
       style="fill:none;stroke:#ff0000;stroke-width:0.264583px;stroke-linecap:butt;stroke-linejoin:miter;stroke-opacity:1;marker-start:url(#marker1967);marker-end:url(#marker1977)"
       d="m 88.247277,95.682481 17.825053,-0.02113 0.0337,-16.904"
       id="path1963"
       sodipodi:nodetypes="ccc"
       inkscape:transform-center-x="8.8165596"
       inkscape:transform-center-y="-7.9935108" />
    <path
       style="fill:none;stroke:#0000ff;stroke-width:0.264583px;stroke-linecap:butt;stroke-linejoin:miter;stroke-opacity:1;marker-start:url(#Arrow1Lstart);marker-end:url(#Arrow1Lend)"
       d="M 90.248706,103.19164 106.106,95.682479 99.580957,80.088564"
       id="path923"
       sodipodi:nodetypes="ccc" />
    <path
       style="fill:none;stroke:#000000;stroke-width:0.264583px;stroke-linecap:butt;stroke-linejoin:miter;stroke-opacity:1"
       d="m 95.614208,100.55673 c -1.26138,-1.203647 -1.604262,-2.872305 -1.288825,-4.874251"
       id="path1337"
       sodipodi:nodetypes="cc" />
    <path
       style="fill:#000000;stroke:#000000;stroke-width:0.264583;stroke-miterlimit:4;stroke-dasharray:2.11666, 2.11666;stroke-dashoffset:0"
       id="path1347"
       d="m 68.886879,107.44512 c 0.03331,-0.29609 0.05456,-0.59352 0.06128,-0.89138 -0.0021,-0.24828 -0.01521,-0.49627 -0.0227,-0.74442 -0.01945,-0.19459 0.0093,-0.38062 0.05788,-0.56817 0.0416,-0.15028 0.08841,-0.29931 0.122852,-0.45147 0.0073,-0.0191 0.01617,-0.12801 0.01513,-0.10992 0.05204,-0.19358 -0.221729,-0.26717 -0.273765,-0.0736 v 0 c -0.0084,0.0403 -0.01162,0.0807 -0.01797,0.12142 -0.03318,0.14942 -0.08094,0.29523 -0.120785,0.4429 -0.05456,0.21321 -0.0871,0.42654 -0.0667,0.64739 0.0074,0.24321 0.01995,0.48627 0.02265,0.72959 -0.0062,0.28861 -0.0273,0.57677 -0.05931,0.86367 -0.02402,0.199 0.257411,0.23298 0.28144,0.034 z" />
    <path
       style="fill:#000000;stroke:#000000;stroke-width:0.264583;stroke-miterlimit:4;stroke-dasharray:none;stroke-dashoffset:0"
       id="path1349"
       d="m 67.612521,103.91777 c 0.482859,-0.0939 0.971645,-0.14397 1.461632,-0.18092 0.513541,-0.0448 1.027293,-0.0402 1.537711,0.0303 0.300003,0.0447 0.512215,0.10691 0.672722,0.37501 0.120158,0.2526 0.07786,0.41575 -0.05429,0.64811 -0.154834,0.23409 -0.362667,0.42254 -0.599093,0.57078 -0.273704,0.14889 -0.564716,0.26231 -0.859848,0.36043 -0.408329,0.12189 -0.832811,0.1768 -1.253969,0.23421 -0.164542,0.0204 -0.329115,0.0425 -0.494956,0.0481 -0.0385,0.001 -0.07702,0.001 -0.115531,7.9e-4 -0.200437,-0.002 -0.203737,0.28113 -0.0033,0.28346 v 0 c 0.04287,5.3e-4 0.08576,2.7e-4 0.128619,-7.9e-4 0.175374,-0.006 0.349486,-0.0284 0.523463,-0.0505 0.438578,-0.0598 0.880483,-0.11771 1.305308,-0.24615 0.316701,-0.10581 0.629354,-0.22746 0.921893,-0.38988 0.275265,-0.1758 0.518367,-0.39543 0.695344,-0.67282 0.186936,-0.34395 0.221144,-0.57717 0.04545,-0.93788 -0.23689,-0.35728 -0.459828,-0.43659 -0.873226,-0.50354 -0.530355,-0.0725 -1.06408,-0.079 -1.597641,-0.0321 -0.500253,0.0378 -0.999292,0.0891 -1.492279,0.18492 -0.197054,0.0368 -0.145056,0.31544 0.052,0.27868 z" />
    <path
       style="fill:#000000;stroke:#000000;stroke-width:0.264583;stroke-miterlimit:4;stroke-dasharray:none;stroke-dashoffset:0"
       id="path1355"
       d="m 81.874365,93.887749 c 0.418663,-0.08567 0.812967,-0.283867 1.111655,-0.59386 0.06874,-0.07134 0.125701,-0.153138 0.188552,-0.229709 0.255567,-0.360791 0.399627,-0.767141 0.38118,-1.208921 -0.01508,-0.173286 -0.06131,-0.340704 -0.116866,-0.504732 -0.05314,-0.136673 -7.94e-4,-0.04652 -0.02188,0.0016 -0.05664,0.129998 -0.163052,0.08367 0.0065,0.114295 0.498173,0.09132 0.992857,0.200612 1.488569,0.304273 0.150167,0.03122 0.300276,0.06273 0.450541,0.09348 0.09272,0.01847 0.08978,0.02652 -0.0771,-0.221398 -0.0016,-0.0021 -0.03055,0.02167 -0.09752,0.07524 -0.169426,0.132773 -0.300661,0.295052 -0.409268,0.479433 -0.148873,0.265908 -0.188087,0.547923 -0.139782,0.845322 0.102055,0.393843 0.440952,0.559319 0.783712,0.715912 0.216276,0.08896 0.43539,0.176755 0.663231,0.231892 0.05282,0.01116 0.1065,0.02053 0.160597,0.01654 -0.02294,-0.0026 -0.04591,-0.0052 -0.06886,-0.0078 0.171927,0.103063 0.31768,-0.140078 0.145754,-0.243141 v 0 c -0.03579,-0.01029 -0.07157,-0.02059 -0.10736,-0.03089 0.02858,-1.69e-4 -0.06285,-0.0045 -0.06444,-0.01048 -0.210458,-0.04907 -0.411573,-0.134295 -0.611537,-0.214164 -0.252997,-0.114552 -0.532363,-0.219594 -0.621863,-0.506767 -0.04437,-0.229585 -0.0071,-0.447062 0.105351,-0.653484 0.08978,-0.155432 0.199779,-0.289954 0.341972,-0.401349 0.07097,-0.05726 0.373467,-0.271225 0.05394,-0.352597 -0.149868,-0.03066 -0.299574,-0.0621 -0.449345,-0.09323 -0.502118,-0.104999 -1.003162,-0.215982 -1.507939,-0.307625 -0.05276,-0.006 -0.10709,-0.03191 -0.15829,-0.01783 -0.185835,0.05106 -0.183676,0.144827 -0.133413,0.27378 0.04728,0.139097 0.08774,0.280784 0.102182,0.427612 0.02191,0.370628 -0.109294,0.712411 -0.318254,1.016447 -0.05241,0.06562 -0.09964,0.135731 -0.157237,0.19685 -0.255013,0.27061 -0.593955,0.444002 -0.954185,0.523499 -0.199216,0.02223 -0.167791,0.303956 0.03143,0.281736 z" />
    <path
       style="fill:#000000;stroke:#000000;stroke-width:0.264583;stroke-miterlimit:4;stroke-dasharray:none;stroke-dashoffset:0"
       id="path1359"
       d="m 88.991423,97.136197 c -0.29663,0.241705 -0.530741,0.542796 -0.73651,0.862582 -0.212286,0.319484 -0.318299,0.670409 -0.338296,1.050335 0.02898,0.479647 0.28126,0.76336 0.647705,1.040606 0.436597,0.27812 0.917935,0.46706 1.424241,0.56713 0.404062,0.0457 0.824365,0.0137 1.189826,-0.18019 0.0722,-0.0383 0.137787,-0.0879 0.206682,-0.13191 0.404773,-0.2979 0.550368,-0.740498 0.635363,-1.214134 0.04897,-0.342074 0.014,-0.705204 -0.173855,-1.00443 -0.04005,-0.0638 -0.09124,-0.119882 -0.136859,-0.179824 -0.276756,-0.310642 -0.64163,-0.493265 -1.026837,-0.630311 -0.372173,-0.125429 -0.761037,-0.174554 -1.151959,-0.18205 -0.261913,0.0066 -0.525282,0.0266 -0.77384,0.11316 -0.122004,0.04258 -0.186592,0.136332 -0.252722,0.239792 -0.103203,0.171844 0.139822,0.317794 0.243025,0.145949 v 0 c 0.02951,-0.05608 0.04185,-0.09412 0.104696,-0.118649 0.214947,-0.07866 0.447177,-0.08681 0.673822,-0.09681 0.360421,0.0058 0.718992,0.05129 1.062363,0.165838 0.334322,0.11774 0.654061,0.271743 0.897951,0.537467 0.240646,0.298532 0.309639,0.57907 0.255093,0.960353 -0.06921,0.395208 -0.17567,0.771921 -0.51067,1.025919 -0.379955,0.25223 -0.73352,0.32289 -1.187704,0.27161 -0.465008,-0.0897 -0.906068,-0.26506 -1.308896,-0.515971 -0.276993,-0.20405 -0.50827,-0.438542 -0.534252,-0.800294 0.0131,-0.330448 0.110283,-0.632962 0.29369,-0.910457 0.188071,-0.293809 0.402069,-0.570548 0.673505,-0.793131 0.157384,-0.12414 -0.01818,-0.346718 -0.175562,-0.222576 z" />
    <path
       style="fill:#000000;stroke:#000000;stroke-width:0.264583;stroke-miterlimit:4;stroke-dasharray:none;stroke-dashoffset:0"
       id="path1361"
       d="m 88.09325,98.950321 c 0.564785,0 1.12957,0 1.694355,0 0.51957,0 1.03914,0 1.55871,0 0.132731,0 0.265462,0 0.398193,0 0.0436,-0.0037 0.02948,-0.01207 0.04895,0.0052 0.196485,0.03968 0.252598,-0.238199 0.05611,-0.277876 v 0 c -0.09852,-0.01307 -0.06372,-0.01839 -0.105063,-0.01082 -0.132731,0 -0.265462,0 -0.398193,0 -0.51957,0 -1.03914,0 -1.55871,0 -0.564785,0 -1.12957,0 -1.694355,0 -0.200454,0 -0.200454,0.283482 0,0.283482 z" />
    <g
       id="g2128"
       style="fill:#0000ff;stroke:#0000ff">
      <path
         style="fill:#0000ff;stroke:#0000ff;stroke-width:0.264583;stroke-miterlimit:4;stroke-dasharray:none;stroke-dashoffset:0"
         id="path1365"
         d="m 92.201068,105.20079 c -0.02955,0.36331 -0.06635,0.72597 -0.09662,1.08922 -0.01865,0.25231 -0.04827,0.50318 -0.09202,0.7523 -0.02037,0.11185 -0.04787,0.22205 -0.07743,0.33175 -0.02336,0.0734 -0.03191,0.14726 -0.02627,0.22367 0.09606,0.21169 0.341448,0.27444 0.549717,0.32822 0.28784,0.0662 0.583383,0.0631 0.874549,0.0255 0.27388,-0.043 0.498972,-0.17592 0.669597,-0.39116 0.118456,-0.19313 0.10429,-0.39073 0.0091,-0.58746 -0.09163,-0.17345 -0.254027,-0.26208 -0.42576,-0.34008 -0.159485,-0.0707 -0.327702,-0.1101 -0.499779,-0.13321 -0.262869,-0.0254 -0.526622,-0.0364 -0.773785,0.0651 -0.138864,0.15807 -0.09825,0.0641 -0.110685,0.28646 0.03098,0.19804 0.311057,0.15423 0.280077,-0.0438 v 0 c -0.03816,0.0309 -0.02008,0.0327 -0.05228,0.0155 0.182814,-0.10106 0.420457,-0.045 0.619636,-0.0422 0.144785,0.0187 0.286014,0.0517 0.420317,0.11059 0.111935,0.05 0.225975,0.0979 0.289192,0.20939 0.05106,0.0939 0.06999,0.18565 0.01979,0.28621 -0.119113,0.15974 -0.285485,0.25081 -0.482563,0.28362 -0.255328,0.0346 -0.515128,0.0369 -0.767943,-0.0193 -0.09319,-0.0229 -0.179342,-0.0485 -0.266279,-0.0896 -0.03141,-0.0148 -0.0727,-0.0404 -0.07541,-0.0363 -0.0062,0.009 0.0021,0.0222 0.0033,0.0334 -5.29e-4,-0.005 0.006,-0.0824 0.01921,-0.11083 0.03176,-0.11786 0.06109,-0.23633 0.08293,-0.35652 0.04517,-0.25755 0.07598,-0.51692 0.0953,-0.77776 0.03032,-0.36402 0.06726,-0.72745 0.0968,-1.09154 0.015,-0.19989 -0.267682,-0.22111 -0.282686,-0.0212 z" />
      <path
         style="fill:#0000ff;stroke:#0000ff;stroke-width:0.264583;stroke-miterlimit:4;stroke-dasharray:none;stroke-dashoffset:0"
         id="path1369"
         d="m 94.557089,105.95978 c -0.09484,0.2492 -0.227901,0.497 -0.253843,0.76687 -0.0057,0.0592 -5.3e-4,0.11896 -7.94e-4,0.17845 0.0557,0.40137 0.283128,0.61028 0.64013,0.76276 0.311991,0.0758 0.691433,0.13597 0.983126,-0.0452 0.05637,-0.035 0.101219,-0.0858 0.151828,-0.12875 0.188624,-0.2356 0.222946,-0.50971 0.142126,-0.79246 -0.06198,-0.16626 -0.143499,-0.24519 -0.329313,-0.0756 -0.02893,0.0264 -0.02426,0.21936 -0.02461,0.23887 0.04998,0.48954 0.258811,0.94464 0.344774,1.42732 0.02106,0.11831 0.02868,0.23862 0.04301,0.35794 -0.0024,0.11103 0.0059,0.22285 -0.0075,0.3331 -0.02543,0.20986 -0.154977,0.66336 -0.407258,0.71999 -0.02741,0.006 -0.0557,-0.007 -0.08355,-0.0111 -0.06486,-0.0627 -0.142597,-0.15005 -0.113136,-0.25146 0.06422,-0.22105 0.454197,-0.56433 0.592487,-0.7016 0.60167,-0.54911 1.224859,-1.07656 1.889892,-1.54751 0.163539,-0.11591 -2.64e-4,-0.34719 -0.163925,-0.23128 v 0 c -0.677593,0.48066 -1.313688,1.01736 -1.926241,1.57817 -0.271878,0.27281 -0.847989,0.72091 -0.610473,1.18207 0.03311,0.0643 0.08232,0.12246 0.140684,0.16518 0.06069,0.0444 0.138102,0.0596 0.207153,0.0894 0.07072,-0.009 0.145505,-0.003 0.212148,-0.0283 0.355637,-0.1359 0.508072,-0.62146 0.545651,-0.95839 0.01378,-0.1235 0.0036,-0.24851 0.0054,-0.37277 -0.01617,-0.12959 -0.02548,-0.26023 -0.04853,-0.38877 -0.08264,-0.46069 -0.274656,-0.89573 -0.337148,-1.36021 -7.94e-4,-0.0797 -0.0011,-0.12108 -0.0019,-0.12105 -0.05985,0.003 -0.115493,0.0427 -0.175329,0.0396 -0.04524,-0.002 -0.06124,-0.1003 -0.02421,-0.003 0.05439,0.17461 0.04501,0.34712 -0.06126,0.50252 -0.02556,0.0265 -0.04651,0.0584 -0.07665,0.0795 -0.216593,0.15188 -0.521666,0.0894 -0.759021,0.042 -0.235087,-0.0929 -0.423439,-0.23875 -0.464984,-0.50376 -0.0095,-0.29557 0.119973,-0.56334 0.231976,-0.83119 0.0786,-0.1844 -0.182184,-0.29555 -0.260781,-0.11115 z" />
      <path
         style="fill:#0000ff;stroke:#0000ff;stroke-width:0.264583;stroke-miterlimit:4;stroke-dasharray:none;stroke-dashoffset:0"
         id="path1371"
         d="m 92.949881,104.51434 c 0.297042,-0.23036 0.574815,-0.48421 0.845642,-0.7445 0.06485,-0.0631 0.129181,-0.12679 0.1923,-0.19165 0.01606,-0.0165 0.07007,-0.0555 0.04768,-0.05 -0.0426,0.0103 -0.08231,0.0301 -0.123473,0.0452 -2.65e-4,0.009 -0.0061,0.0197 -7.94e-4,0.0271 0.02439,0.0349 0.251624,0.28375 0.256101,0.28859 0.168849,0.18256 0.343112,0.35994 0.517255,0.53742 0.108273,0.13372 0.239911,0.22145 0.390493,0.29805 0.180502,0.0872 0.303798,-0.16807 0.123299,-0.25526 v 0 c -0.12541,-0.0554 -0.222552,-0.13441 -0.311454,-0.24134 -0.171466,-0.17473 -0.343072,-0.34936 -0.509374,-0.52906 -0.08786,-0.0949 -0.166118,-0.19879 -0.257611,-0.29024 -0.03826,-0.0382 -0.08204,-0.0705 -0.123055,-0.10578 -0.05598,0.0104 -0.112885,0.0167 -0.167942,0.0313 -0.04324,0.0114 -0.184068,0.22957 -0.229753,0.23134 -0.260864,0.2508 -0.528379,0.49535 -0.813861,0.71812 -0.163164,0.11644 0.0016,0.34719 0.164674,0.23075 z" />
    </g>
    <g
       id="g2123">
      <path
         style="fill:#0000ff;stroke:#0000ff;stroke-width:0.264583;stroke-miterlimit:4;stroke-dasharray:none;stroke-dashoffset:0"
         id="path1373"
         d="m 93.760361,78.819968 c 0.0711,-0.495167 0.0813,-0.99536 0.071,-1.494583 -0.0124,-0.353394 -0.0419,-0.706131 -0.0851,-1.057064 -0.0202,-0.121917 -0.015,-0.187367 -0.29466,0.02135 -0.0398,0.02971 -0.003,0.09929 -0.004,0.148953 -0.004,0.245782 -0.003,0.491603 -8e-4,0.737393 0.008,0.437275 0.047,0.87312 0.063,1.310032 0.029,0.117104 -0.0436,0.356716 0.001,0.464717 0.0202,0.04912 0.054,0.09155 0.0809,0.137324 0.32167,0.231971 0.72596,0.288345 1.11282,0.294671 0.48928,-0.04329 0.82945,-0.212071 1.15276,-0.578029 0.16997,-0.236271 0.26607,-0.540335 0.0695,-0.794624 -0.0362,-0.04687 -0.0853,-0.0822 -0.12797,-0.123298 -0.35346,-0.240146 -0.7856,-0.277807 -1.20115,-0.257932 -0.0605,0.01 -0.12094,0.02 -0.18141,0.02998 -0.1976,0.03373 -0.1499,0.313169 0.0477,0.279442 v 0 c 0.0495,-0.0088 0.099,-0.01754 0.14849,-0.02633 0.3394,-0.01945 0.698,0.0059 0.99606,0.184925 0.21502,0.174358 0.1769,0.296889 0.0344,0.52232 -0.24164,0.286853 -0.55857,0.448429 -0.9349,0.480081 -0.31081,-0.0024 -0.61813,-0.04994 -0.89856,-0.192699 -0.005,0.0069 -0.0107,0.0277 -0.0162,0.0208 -0.0326,-0.04138 0.0199,-0.390228 -1.5e-4,-0.451762 -0.016,-0.434182 -0.0545,-0.867323 -0.0628,-1.301846 -0.002,-0.242586 -0.003,-0.485097 7.9e-4,-0.727678 5.3e-4,-0.04248 0.0385,-0.104177 0.003,-0.127423 -0.31242,-0.204237 -0.28724,-0.122881 -0.26869,-0.01577 0.042,0.341394 0.0707,0.684561 0.083,1.028345 0.0102,0.482653 5.3e-4,0.966229 -0.0677,1.44503 -0.0309,0.198059 0.24923,0.241723 0.2801,0.04366 z" />
      <path
         style="fill:#0000ff;stroke:#0000ff;stroke-width:0.264583;stroke-miterlimit:4;stroke-dasharray:none;stroke-dashoffset:0"
         id="path1375"
         d="m 96.585051,79.31199 c 0.23122,0.371189 0.49949,0.717889 0.77046,1.060598 0.11836,0.144415 0.22013,0.301707 0.37868,0.404059 0.17173,0.103391 0.31795,-0.139473 0.14621,-0.242864 v 0 c -0.1355,-0.06627 -0.19397,-0.240305 -0.30252,-0.337026 -0.2617,-0.33092 -0.52073,-0.665613 -0.74542,-1.023149 -0.0978,-0.174945 -0.34526,-0.03656 -0.24741,0.138382 z" />
      <path
         style="fill:#0000ff;stroke:#0000ff;stroke-width:0.264583;stroke-miterlimit:4;stroke-dasharray:none;stroke-dashoffset:0"
         id="path1377"
         d="m 98.339991,79.523106 c -0.56664,0.250804 -1.0945,0.580769 -1.62309,0.902097 -0.16202,0.08333 -0.29397,0.181586 -0.40621,0.322313 -0.11809,0.161973 0.11097,0.32898 0.22907,0.167005 v 0 c 0.0688,-0.119798 0.21658,-0.172074 0.32439,-0.247084 0.51559,-0.313446 1.03029,-0.635603 1.58233,-0.88161 0.18577,-0.0753 0.0793,-0.338021 -0.10649,-0.262721 z" />
      <path
         style="fill:#0000ff;stroke:#0000ff;stroke-width:0.264583;stroke-miterlimit:4;stroke-dasharray:none;stroke-dashoffset:0"
         id="path1379"
         d="m 93.481741,74.914586 c 0.18193,-0.215135 0.3686,-0.426577 0.54465,-0.646594 0.0816,-0.104733 0.16078,-0.211222 0.23691,-0.319961 -0.007,0.04678 -0.0818,0.01786 -0.0956,0.05129 -0.008,0.02053 0.0322,0.03061 0.0494,0.04469 0.15776,0.12923 0.32193,0.251275 0.48327,0.375965 0.20527,0.156869 0.41618,0.306081 0.62112,0.463362 0.15904,0.122018 0.3316,-0.102896 0.17256,-0.224914 v 0 c -0.20472,-0.15702 -0.41519,-0.306261 -0.62033,-0.462749 -0.0924,-0.07139 -0.53077,-0.440962 -0.61978,-0.466386 -0.1365,-0.03899 -0.14484,-0.0093 -0.22289,0.05617 -0.0727,0.103835 -0.14831,0.205493 -0.22612,0.305543 -0.17267,0.216297 -0.35656,0.423548 -0.53495,0.635103 -0.13328,0.149725 0.0785,0.338209 0.21174,0.188484 z" />
    </g>
    <path
       style="fill:#ff0000;stroke:#ff0000;stroke-width:0.264583;stroke-miterlimit:4;stroke-dasharray:none;stroke-dashoffset:0"
       id="path1385"
       d="m 100.90961,146.87513 c -0.53811,0.0244 -1.057647,0.14751 -1.569703,0.3068 -0.587325,0.18949 -1.138209,0.46626 -1.656842,0.79786 -0.295222,0.21621 -0.63287,0.43512 -0.807199,0.77082 -0.03262,0.0628 -0.05242,0.13147 -0.07863,0.19721 -0.07734,0.31809 -0.06964,0.65602 0.133175,0.92773 0.04363,0.0584 0.09793,0.10812 0.146897,0.16217 0.4635,0.41678 1.044165,0.65152 1.619432,0.86853 0.784728,0.28811 1.59698,0.4772 2.41904,0.61931 0.95863,0.15147 1.92211,0.26871 2.88818,0.36028 0.9166,0.0799 1.83703,0.095 2.75633,0.11828 0.8349,0.0279 1.66993,0.0207 2.50438,-0.0144 0.68039,-0.0207 1.35636,-0.0969 2.02968,-0.19253 0.50357,-0.074 1.00258,-0.17499 1.49874,-0.28771 0.42503,-0.0942 0.84164,-0.22156 1.24677,-0.38032 0.35643,-0.13989 0.66505,-0.35864 0.94687,-0.61375 0.2273,-0.21139 0.32702,-0.47824 0.36613,-0.77856 0.0316,-0.28341 -0.0844,-0.52892 -0.23607,-0.75893 -0.20075,-0.26603 -0.47716,-0.45407 -0.75758,-0.6266 -0.31699,-0.18721 -0.66361,-0.31479 -1.00996,-0.43551 -0.37209,-0.12809 -0.75469,-0.2196 -1.13811,-0.30604 -0.2767,-0.0604 -0.55382,-0.11887 -0.83244,-0.16973 -0.10254,-0.0274 -0.13987,-0.007 -0.24402,0.0334 -0.16543,0.1132 -0.005,0.34715 0.16008,0.23396 v 0 c -0.13683,7.9e-4 0.0192,-0.001 0.033,0.0115 0.2748,0.0501 0.5481,0.10788 0.821,0.1674 0.37296,0.0841 0.74521,0.17273 1.1072,0.29721 0.32716,0.11389 0.655,0.23348 0.9549,0.40939 0.24576,0.15051 0.49006,0.31285 0.66997,0.54219 0.1155,0.17122 0.21274,0.35313 0.19069,0.56659 -0.0277,0.23357 -0.0986,0.43867 -0.27539,0.60383 -0.25563,0.23285 -0.53576,0.43218 -0.85989,0.55976 -0.3917,0.15402 -0.79498,0.27647 -1.20601,0.36776 -0.48856,0.11106 -0.97995,0.21057 -1.47581,0.28349 -0.66403,0.0944 -1.33068,0.1697 -2.00172,0.18995 -0.82808,0.0349 -1.65674,0.042 -2.48528,0.0143 -0.91276,-0.0231 -1.82666,-0.038 -2.73676,-0.11711 -0.95887,-0.0908 -1.91516,-0.20724 -2.86667,-0.3574 -0.80449,-0.1388 -1.599327,-0.3236 -2.367343,-0.60525 -0.534353,-0.20106 -1.075076,-0.41606 -1.511292,-0.79576 -0.258043,-0.27135 -0.292256,-0.42244 -0.223295,-0.79635 0.01714,-0.0479 0.02893,-0.0981 0.05145,-0.14376 0.14927,-0.30257 0.463339,-0.49168 0.722361,-0.68656 0.496945,-0.3186 1.025368,-0.5837 1.588341,-0.76597 0.492038,-0.15366 0.991138,-0.27201 1.508468,-0.2949 0.19979,-0.0163 0.17668,-0.29888 -0.0231,-0.28254 z" />
    <path
       style="fill:#ffffff;stroke:#ff0000;stroke-width:0.264583;stroke-miterlimit:4;stroke-dasharray:none;stroke-dashoffset:0"
       id="path1389"
       d="m 112.95911,148.24636 c -0.004,-0.20962 -0.0104,-0.41917 -0.0168,-0.62872 -0.002,-0.0589 2.7e-4,-0.11772 -0.0137,-0.17533 -0.0104,-0.0446 -0.008,-0.0908 -0.007,-0.13626 0.006,-0.0685 0.0157,-0.13667 0.0286,-0.20421 0.0127,-0.0779 0.0747,0.0388 -0.23969,-0.15595 -0.23535,0.13254 -0.4994,0.20073 -0.75712,0.27523 -0.22929,0.0618 -0.45624,0.13192 -0.68522,0.19478 -0.0235,0.005 -0.26562,0.0678 -0.26508,0.0774 0.005,0.0967 0.0448,0.18848 0.0672,0.28272 0.25988,0.0971 0.53092,0.16098 0.79722,0.23809 0.2437,0.0717 0.48249,0.1592 0.71667,0.25742 0.13153,0.0578 0.26407,0.1132 0.38946,0.1836 0.22678,0.14039 0.27329,-0.0609 0.27189,-0.23565 -0.0148,-0.17386 -0.0492,-0.3454 -0.0858,-0.51578 -0.0142,-0.089 -0.0316,-0.10409 -0.0952,-0.18283 -0.0486,-0.0362 -0.0919,-0.0778 -0.14196,-0.11207 -0.16558,-0.06 -0.3482,-0.0531 -0.52251,-0.058 -0.16935,-0.003 -0.16072,-0.0112 -0.11193,0.29085 0.002,0.0149 0.11626,0.0454 0.13556,0.0519 0.0123,-0.0976 0.0489,-0.19515 0.0371,-0.29284 -0.003,-0.0276 -0.0518,-0.0205 -0.0764,-0.0335 -0.008,-0.004 -0.0216,-0.0275 -0.0215,-0.0181 0.003,0.25616 -0.0124,0.22922 0.17117,0.22428 0.0387,-0.005 0.0773,-0.009 0.11601,-0.0137 0.19896,-0.0244 0.16442,-0.3058 -0.0345,-0.28137 v 0 c -0.03,0.004 -0.0601,0.008 -0.0901,0.0117 -0.0336,0.001 -0.25183,0.003 -0.27057,0.0296 -0.13706,0.19626 -0.10442,0.24255 0.0158,0.30726 0.15547,0.0837 0.0894,0.014 0.24368,-0.20198 -0.01,-0.003 -0.0961,-0.0353 -0.0962,-0.0352 -0.15116,0.2788 -0.16117,0.24112 -0.0261,0.24441 0.12584,0.004 0.26002,0.0127 0.38091,0.0155 0.0388,0.0286 0.0811,0.0712 0.12468,0.10045 -0.0671,-0.12575 -0.0167,-0.0285 -0.015,0.0133 0.0328,0.15218 0.0633,0.30527 0.0795,0.4602 5.3e-4,0.0252 -0.0206,0.0834 0.003,0.0754 0.23928,-0.0804 0.20091,-0.0542 0.14679,-0.0911 -0.13492,-0.0754 -0.2768,-0.13616 -0.41843,-0.19771 -0.24427,-0.10225 -0.49319,-0.19365 -0.74738,-0.26826 -0.25062,-0.0726 -0.50474,-0.13458 -0.75124,-0.22033 -0.0192,0.0738 -0.0339,0.14898 -0.0577,0.22147 -0.002,0.005 -0.0214,0.005 -0.0161,0.004 0.0738,-0.0199 0.14857,-0.036 0.22197,-0.0574 0.2302,-0.0633 0.45841,-0.13358 0.68891,-0.19582 0.27916,-0.0808 0.56422,-0.15651 0.81859,-0.30119 -0.17588,-0.19997 -0.15281,-0.26514 -0.17907,-0.14318 -0.0155,0.0823 -0.0275,0.16532 -0.0334,0.24889 -0.002,0.0712 -0.003,0.14323 0.015,0.21285 0.008,0.0376 0.002,0.077 0.005,0.11541 0.006,0.2067 0.013,0.41338 0.0167,0.62014 0,0.20045 0.28348,0.20045 0.28348,0 z" />
    <path
       style="fill:#ff0000;stroke:#ff0000;stroke-width:0.264583;stroke-miterlimit:4;stroke-dasharray:none;stroke-dashoffset:0"
       id="path1395"
       d="m 118.12004,148.6629 c -0.25695,0.16533 -0.4939,0.35253 -0.70417,0.57407 -0.17195,0.18406 -0.29311,0.39472 -0.36876,0.63358 -0.0696,0.21004 -0.0562,0.40612 0.0234,0.60976 0.0736,0.18459 0.2014,0.30131 0.37565,0.38772 0.21921,0.099 0.45089,0.16131 0.68503,0.21275 0.24676,0.0667 0.46955,0.0429 0.69717,-0.0681 0.16728,-0.0965 0.29591,-0.2378 0.39989,-0.39809 0.0667,-0.11998 0.14799,-0.21255 -0.19828,-0.0756 -0.0206,0.008 0.0199,0.0396 0.0298,0.0594 0.14744,0.20988 0.3703,0.34563 0.59226,0.46483 0.20829,0.10621 0.44037,0.14872 0.66999,0.18007 0.27792,0.0182 0.48301,-0.14763 0.65924,-0.342 0.179,-0.24432 0.23188,-0.54196 0.25736,-0.8369 0.0176,-0.28878 -0.0816,-0.53269 -0.26762,-0.74733 -0.16841,-0.14321 -0.36436,-0.29891 -0.58893,-0.3335 -0.20045,-0.001 -0.2018,0.28252 -0.001,0.28348 v 0 c -0.0111,-0.004 -0.0437,-0.0179 -0.0332,-0.0124 0.11214,0.059 0.22568,0.10515 0.32844,0.18196 0.0289,0.0216 0.0556,0.0461 0.0835,0.0691 0.13973,0.15023 0.20726,0.32716 0.19671,0.53496 -0.0189,0.23322 -0.0549,0.47277 -0.1864,0.67187 -0.10813,0.12386 -0.2338,0.25114 -0.40977,0.24979 -0.19614,-0.0261 -0.39548,-0.0604 -0.5742,-0.1491 -0.17282,-0.0921 -0.3451,-0.19459 -0.47414,-0.34498 -0.0623,-0.11477 -0.28371,-0.13944 -0.32172,-0.007 -0.0755,0.11828 -0.16797,0.22437 -0.28894,0.29836 -0.16738,0.088 -0.32538,0.0945 -0.50914,0.0445 -0.21278,-0.0465 -0.42339,-0.10231 -0.62297,-0.19136 -0.11353,-0.0518 -0.18852,-0.11963 -0.23584,-0.2391 -0.061,-0.14082 -0.0638,-0.2712 -0.0154,-0.41836 0.0608,-0.19817 0.16233,-0.37061 0.30414,-0.52331 0.1958,-0.20796 0.41915,-0.38042 0.65903,-0.53539 0.16506,-0.11374 0.004,-0.34717 -0.16084,-0.23344 z" />
    <path
       style="fill:none;stroke:#000000;stroke-width:0.264583px;stroke-linecap:butt;stroke-linejoin:miter;stroke-opacity:1"
       d="m 95.656456,98.898195 -0.04225,1.658535 -1.699704,-0.558114"
       id="path1913" />
    <g
       id="g2169">
      <path
         style="fill:#ff0000;stroke:#ff0000;stroke-width:0.264583;stroke-miterlimit:4;stroke-dasharray:none;stroke-dashoffset:0"
         id="path2148"
         d="m 91.753178,91.354959 c -0.257225,-0.0032 -0.506719,0.04601 -0.749305,0.127627 -0.240583,0.09683 -0.372996,0.187008 -0.477822,0.427802 -0.07826,0.266425 0.0627,0.406686 0.266187,0.553376 0.260736,0.161629 0.562464,0.224468 0.863073,0.259768 0.223367,0.0062 0.492914,0.0026 0.66706,-0.16379 0.03149,-0.03008 0.05295,-0.06915 0.07943,-0.103727 0.110916,-0.235561 0.03101,-0.468657 -0.07115,-0.690277 -0.04785,-0.0946 -0.09983,-0.187629 -0.162679,-0.273177 -0.03579,-0.04981 -0.07402,-0.09782 -0.112167,-0.145844 -0.07685,-0.06797 -0.14496,-0.0091 -0.143076,0.0808 7.93e-4,0.03641 0.02763,0.118769 0.04125,0.147849 0.01635,0.03489 0.03779,0.06715 0.05669,0.10073 0.169151,0.25832 0.422833,0.426249 0.68798,0.572442 0.132252,0.08086 0.27994,0.1242 0.424032,0.176591 0.09427,0.03405 0.142415,-0.09926 0.04815,-0.133311 v 0 c -0.137367,-0.04934 -0.277858,-0.09062 -0.403828,-0.167452 -0.242528,-0.133286 -0.47661,-0.284297 -0.633498,-0.518991 -0.01537,-0.02593 -0.03275,-0.05075 -0.04608,-0.07778 -0.0098,-0.01982 -0.01619,-0.04117 -0.02294,-0.06222 -0.0043,-0.01331 -0.0021,-0.02918 -0.01005,-0.04073 -0.0028,-0.004 -0.0067,0.008 -0.01154,0.0091 -0.08761,0.01984 -0.06876,0.03431 -0.09809,0.0011 0.03709,0.04669 0.0743,0.09336 0.109085,0.141814 0.05753,0.07761 0.104026,0.162867 0.148124,0.248595 0.08028,0.172577 0.157197,0.358888 0.08477,0.547867 -0.01548,0.02365 -0.02678,0.05068 -0.04646,0.07099 -0.142692,0.147267 -0.382008,0.141009 -0.568656,0.138596 -0.276881,-0.03188 -0.555736,-0.08814 -0.797226,-0.234426 -0.152379,-0.106979 -0.266372,-0.180829 -0.217853,-0.382749 0.07968,-0.196281 0.198953,-0.270835 0.39262,-0.348691 0.228309,-0.07746 0.463222,-0.123336 0.705499,-0.120182 0.100221,-0.0011 0.09866,-0.14283 -0.0016,-0.141732 z" />
      <path
         style="fill:#ff0000;stroke:#ff0000;stroke-width:0.264583;stroke-miterlimit:4;stroke-dasharray:none;stroke-dashoffset:0"
         id="path2154"
         d="m 93.668031,91.784161 c -0.06636,0.163674 -0.105238,0.352025 -0.02315,0.518456 0.0168,0.03405 0.04216,0.06314 0.06325,0.09471 0.03155,0.02548 0.05996,0.05545 0.09465,0.07646 0.14705,0.08905 0.332867,0.08348 0.487545,0.01799 0.03603,-0.01524 0.06859,-0.03766 0.102883,-0.05649 0.16333,-0.114361 0.224512,-0.254889 0.190365,-0.448746 -0.02471,-0.08605 -0.07723,-0.164579 -0.173164,-0.05733 -0.02484,0.02778 0.0064,0.137197 0.01003,0.155356 0.08466,0.274402 0.170268,0.549544 0.216766,0.833662 0.01352,0.0826 0.02133,0.166039 0.032,0.249058 0.0093,0.288218 0.05095,0.64608 -0.09326,0.911907 -0.01315,0.02424 -0.03157,0.04523 -0.04735,0.06785 -0.02511,0.01744 -0.0678,0.07765 -0.106976,0.07421 -0.0013,-1.24e-4 0.02111,-0.01968 0.02109,-0.0199 -0.0024,-0.01574 -0.01193,-0.02951 -0.01789,-0.04426 -0.04161,-0.132082 -0.111826,-0.272573 -0.09196,-0.415229 0.0052,-0.03733 0.01826,-0.07313 0.02738,-0.109693 0.02035,-0.04608 0.03672,-0.09415 0.06108,-0.138248 0.200255,-0.362484 0.517091,-0.657172 0.815607,-0.937347 0.04715,-0.04089 0.09431,-0.08178 0.14146,-0.122666 0.0757,-0.06569 -0.0172,-0.172744 -0.09289,-0.107061 v 0 c -0.04853,0.04214 -0.09706,0.08427 -0.145595,0.126402 -0.311941,0.293068 -0.643948,0.602469 -0.848664,0.984385 -0.02782,0.05189 -0.04606,0.108376 -0.06909,0.162565 -0.01035,0.04752 -0.02572,0.09422 -0.03102,0.14256 -0.01802,0.164097 0.05427,0.324072 0.10573,0.475282 0.01341,0.02595 0.02185,0.05518 0.04028,0.07787 0.102457,0.126251 0.229428,0.01736 0.30894,-0.06956 0.02008,-0.03048 0.04342,-0.05905 0.06022,-0.09145 0.154538,-0.298051 0.116208,-0.664157 0.1035,-0.98579 -0.01122,-0.08633 -0.01953,-0.173088 -0.03364,-0.258987 -0.04688,-0.285015 -0.131556,-0.561579 -0.217406,-0.836661 -0.02783,-0.104822 0.005,-0.03758 -0.103388,-0.04508 -0.02439,-0.0016 -0.03123,-0.05466 -0.01103,0.0046 0.02617,0.123558 -0.01392,0.226277 -0.120819,0.298876 -0.168227,0.09854 -0.334822,0.132194 -0.499189,0.0043 -0.0154,-0.02064 -0.03374,-0.0394 -0.04622,-0.06194 -0.07167,-0.129456 -0.03191,-0.281821 0.01863,-0.410605 0.04202,-0.09099 -0.08666,-0.150421 -0.12868,-0.05943 z" />
      <path
         style="fill:#ff0000;stroke:#ff0000;stroke-width:0.264583;stroke-miterlimit:4;stroke-dasharray:none;stroke-dashoffset:0"
         id="path2156"
         d="m 91.632986,90.250554 c 0.26733,-0.131606 0.510736,-0.304292 0.74658,-0.484952 0.05598,-0.04385 0.111331,-0.08852 0.165261,-0.134872 0.01394,-0.01198 0.05948,-0.0345 0.04122,-0.03667 -0.0083,-0.0011 -0.01379,0.0094 -0.02069,0.01413 -0.01807,-0.0011 -0.04347,-0.01746 -0.05422,-0.0029 -0.0099,0.01339 0.0158,0.02932 0.024,0.04381 0.0159,0.02809 0.03174,0.05624 0.04836,0.08392 0.08228,0.13708 0.171058,0.269591 0.260869,0.401793 0.0876,0.130273 0.178985,0.256919 0.285588,0.372197 0.06821,0.07344 0.172064,-0.02302 0.103857,-0.09646 v 0 C 93.13156,90.301 93.045732,90.179037 92.961602,90.055151 92.873742,89.925871 92.7868,89.79631 92.706306,89.662248 c -0.01646,-0.02741 -0.03188,-0.05543 -0.04789,-0.08311 -0.01177,-0.02035 -0.01775,-0.04551 -0.03547,-0.06098 -0.02551,-0.02228 -0.05963,-0.03206 -0.08944,-0.04809 -0.09227,0.04136 -0.155223,0.128456 -0.240141,0.183031 -0.22656,0.173667 -0.46019,0.339831 -0.716521,0.467318 -0.09203,0.0397 -0.03588,0.169849 0.05615,0.130143 z" />
    </g>
    <g
       id="g2164">
      <path
         style="fill:#ff0000;stroke:#ff0000;stroke-width:0.264583;stroke-miterlimit:4;stroke-dasharray:none;stroke-dashoffset:0"
         id="path2132"
         d="m 108.92177,78.982098 c -0.29078,0.02037 -0.57283,0.08482 -0.84578,0.185031 -0.22311,0.09833 -0.45158,0.223962 -0.58592,0.435928 -0.0226,0.03559 -0.0389,0.07474 -0.0584,0.112117 -0.0778,0.194646 -0.0699,0.397049 0.0768,0.557744 0.0288,0.03151 0.0641,0.05643 0.0961,0.08465 0.29831,0.173048 0.64709,0.188687 0.98295,0.166811 0.25782,-0.02958 0.51275,-0.110802 0.70619,-0.290636 0.0301,-0.02797 0.0559,-0.06024 0.0838,-0.09036 0.14608,-0.199204 0.16296,-0.383447 0.0827,-0.611423 -0.0452,-0.09962 -0.10492,-0.192137 -0.17625,-0.274933 -10e-4,-0.0087 -0.0533,-0.04436 -0.0344,-0.03363 -0.0283,-0.03954 -0.0583,-0.07771 -0.0891,-0.115324 -0.0415,-0.04981 -0.0584,-0.08464 -0.13678,0.06806 -0.0117,0.02275 0.0222,0.04604 0.0333,0.06906 0.10822,0.177027 0.24206,0.335208 0.38768,0.482184 0.1384,0.126373 0.28693,0.243166 0.46314,0.310153 0.0966,0.02962 0.1962,0.04812 0.29628,0.06101 -0.004,2.9e-5 -0.009,6e-5 -0.0131,8.9e-5 0.0834,0.05552 0.16196,-0.06249 0.0785,-0.118009 v 0 c -0.0158,-0.0076 -0.0316,-0.01511 -0.0473,-0.02267 -0.0894,-0.01143 -0.17836,-0.02786 -0.2649,-0.05327 -0.15775,-0.057 -0.2875,-0.167481 -0.41195,-0.277148 -0.136,-0.136816 -0.26059,-0.284144 -0.36284,-0.448313 -0.007,-0.01093 -0.007,-0.03249 -0.0202,-0.03275 -0.17505,-0.0035 -0.14955,0.0048 -0.11152,0.05137 0.0305,0.03729 0.0602,0.07526 0.0883,0.114376 0.0369,0.03832 0.0142,0.01315 0.0377,0.03753 0.0604,0.06948 0.11058,0.147603 0.15024,0.230642 0.0657,0.17367 0.0554,0.31179 -0.0539,0.467162 -0.19812,0.218826 -0.40261,0.299844 -0.69507,0.335396 -0.29884,0.02061 -0.61027,0.0093 -0.88117,-0.132953 -0.17414,-0.144349 -0.2152,-0.250515 -0.13905,-0.470281 0.0391,-0.0782 0.0502,-0.112914 0.10939,-0.179827 0.12233,-0.138353 0.29214,-0.225845 0.4578,-0.299773 0.26123,-0.0968 0.53174,-0.157202 0.81023,-0.176921 0.0998,-0.0095 0.0863,-0.150635 -0.0135,-0.141097 z" />
      <path
         style="fill:#ff0000;stroke:#ff0000;stroke-width:0.264583;stroke-miterlimit:4;stroke-dasharray:none;stroke-dashoffset:0"
         id="path2134"
         d="m 111.14529,79.69832 c 0.16772,0.189584 0.35992,0.354756 0.5576,0.511953 0.13108,0.09494 0.25754,0.197339 0.39398,0.284678 0.011,0.0061 0.022,0.01225 0.033,0.01836 0.0877,0.04841 0.15622,-0.0757 0.0685,-0.124108 v 0 c -0.008,-0.0046 -0.0169,-0.0092 -0.0253,-0.01378 -0.13265,-0.08409 -0.25441,-0.184774 -0.38195,-0.276111 -0.1912,-0.151887 -0.37716,-0.311441 -0.53942,-0.494652 -0.0662,-0.07522 -0.17261,0.01844 -0.10638,0.09366 z" />
      <path
         style="fill:#ff0000;stroke:#ff0000;stroke-width:0.264583;stroke-miterlimit:4;stroke-dasharray:none;stroke-dashoffset:0"
         id="path2136"
         d="m 112.22816,79.686247 c -0.31675,0.166669 -0.60884,0.375817 -0.90236,0.57962 -0.12949,0.0887 -0.068,0.0471 -0.1842,0.12501 -0.0832,0.05583 -0.004,0.173546 0.079,0.117713 v 0 c 0.11755,-0.07885 0.0555,-0.03682 0.18609,-0.126298 0.28762,-0.199716 0.57374,-0.404797 0.8838,-0.56872 0.09,-0.04404 0.0277,-0.171365 -0.0623,-0.127325 z" />
      <path
         style="fill:#ff0000;stroke:#ff0000;stroke-width:0.264583;stroke-miterlimit:4;stroke-dasharray:none;stroke-dashoffset:0"
         id="path2158"
         d="m 109.04257,78.190044 c 0.14936,-0.168137 0.31357,-0.322284 0.47665,-0.476893 0.005,0.01394 0.0774,-0.09155 0.0871,-0.07222 0.002,0.0042 -0.007,0.0098 -0.004,0.01355 0.01,0.01254 0.0251,0.019 0.0369,0.0294 0.0307,0.02714 0.0604,0.05546 0.0906,0.0832 0.23389,0.233259 0.46979,0.464505 0.70417,0.697267 0.0711,0.07062 0.17099,-0.02995 0.0999,-0.100576 v 0 c -0.23595,-0.234297 -0.4733,-0.467175 -0.70894,-0.701784 -0.1676,-0.149849 -0.23019,-0.229481 -0.40296,-0.05169 -0.16589,0.157279 -0.33284,0.314174 -0.48475,0.485232 -0.0668,0.07469 0.0388,0.169209 0.10562,0.09452 z" />
    </g>
  </g>
</svg>
