<?xml version="1.0" encoding="UTF-8" standalone="no"?>
<svg
   width="44.08593mm"
   height="58.578156mm"
   viewBox="0 0 44.08593 58.578156"
   version="1.1"
   id="svg2202"
   inkscape:version="1.3.2 (091e20e, 2023-11-25, custom)"
   sodipodi:docname="cinetica02.svg"
   inkscape:export-filename="cinetica02.png"
   inkscape:export-xdpi="96"
   inkscape:export-ydpi="96"
   xmlns:inkscape="http://www.inkscape.org/namespaces/inkscape"
   xmlns:sodipodi="http://sodipodi.sourceforge.net/DTD/sodipodi-0.dtd"
   xmlns="http://www.w3.org/2000/svg"
   xmlns:svg="http://www.w3.org/2000/svg"
   xmlns:rdf="http://www.w3.org/1999/02/22-rdf-syntax-ns#"
   xmlns:cc="http://creativecommons.org/ns#"
   xmlns:dc="http://purl.org/dc/elements/1.1/">
  <defs
     id="defs2196">
    <marker
       style="overflow:visible"
       id="marker2813"
       refX="0"
       refY="0"
       orient="auto"
       inkscape:stockid="Arrow1Lstart"
       inkscape:isstock="true">
      <path
         transform="matrix(0.8,0,0,0.8,10,0)"
         style="fill:#000000;fill-opacity:1;fill-rule:evenodd;stroke:#000000;stroke-width:1pt;stroke-opacity:1"
         d="M 0,0 5,-5 -12.5,0 5,5 Z"
         id="path2811" />
    </marker>
    <marker
       style="overflow:visible"
       id="Arrow1Lend"
       refX="0"
       refY="0"
       orient="auto"
       inkscape:stockid="Arrow1Lend"
       inkscape:isstock="true">
      <path
         transform="matrix(-0.8,0,0,-0.8,-10,0)"
         style="fill:#000000;fill-opacity:1;fill-rule:evenodd;stroke:#000000;stroke-width:1pt;stroke-opacity:1"
         d="M 0,0 5,-5 -12.5,0 5,5 Z"
         id="path928" />
    </marker>
    <marker
       style="overflow:visible"
       id="Arrow1Lstart"
       refX="0"
       refY="0"
       orient="auto"
       inkscape:stockid="Arrow1Lstart"
       inkscape:isstock="true"
       inkscape:collect="always">
      <path
         transform="matrix(0.8,0,0,0.8,10,0)"
         style="fill:#000000;fill-opacity:1;fill-rule:evenodd;stroke:#000000;stroke-width:1pt;stroke-opacity:1"
         d="M 0,0 5,-5 -12.5,0 5,5 Z"
         id="path925" />
    </marker>
  </defs>
  <sodipodi:namedview
     id="base"
     pagecolor="#ffffff"
     bordercolor="#666666"
     borderopacity="1.0"
     inkscape:pageopacity="0.0"
     inkscape:pageshadow="2"
     inkscape:zoom="1.979899"
     inkscape:cx="71.215754"
     inkscape:cy="76.519055"
     inkscape:document-units="mm"
     inkscape:current-layer="layer1"
     inkscape:document-rotation="0"
     showgrid="false"
     showborder="false"
     inkscape:window-width="1920"
     inkscape:window-height="1009"
     inkscape:window-x="-8"
     inkscape:window-y="-8"
     inkscape:window-maximized="1"
     inkscape:showpageshadow="2"
     inkscape:pagecheckerboard="0"
     inkscape:deskcolor="#d1d1d1"
     inkscape:export-bgcolor="#ffffffff" />
  <metadata
     id="metadata2199">
    <rdf:RDF>
      <cc:Work
         rdf:about="">
        <dc:format>image/svg+xml</dc:format>
        <dc:type
           rdf:resource="http://purl.org/dc/dcmitype/StillImage" />
        <dc:title />
      </cc:Work>
    </rdf:RDF>
  </metadata>
  <g
     inkscape:label="Layer 1"
     inkscape:groupmode="layer"
     id="layer1"
     transform="translate(-49.539331,-86.416633)">
    <circle
       style="fill:#ff0000;stroke:#000000;stroke-width:0.7;stroke-miterlimit:4;stroke-dasharray:none"
       id="path2765"
       cx="80.4655"
       cy="127.09251"
       r="5.8895173" />
    <path
       style="fill:none;stroke:#000000;stroke-width:0.264583px;stroke-linecap:butt;stroke-linejoin:miter;stroke-opacity:1;marker-start:url(#Arrow1Lstart)"
       d="M 75.67945,121.82916 66.394602,105.74733"
       id="path2767" />
    <path
       style="fill:none;stroke:#000000;stroke-width:0.264583px;stroke-linecap:butt;stroke-linejoin:miter;stroke-opacity:1;marker-start:url(#marker2813)"
       d="m 75.73819,131.91792 -14.715376,9.4612"
       id="path2783" />
    <path
       style="fill:none;stroke:#000000;stroke-width:0.264583px;stroke-linecap:butt;stroke-linejoin:miter;stroke-opacity:1;marker-end:url(#Arrow1Lend)"
       d="m 80.181568,133.73812 v 10.01551"
       id="path2845" />
    <path
       style="fill:#ff0000;stroke:#000000;stroke-width:0.7;stroke-miterlimit:4;stroke-dasharray:none"
       id="path2855"
       d="m 80.837028,119.5598 c -5.29e-4,-0.2798 0.03975,-0.55744 0.06736,-0.83532 0.04696,-0.4734 0.05033,-0.94923 0.05164,-1.42445 -0.0036,-0.46957 -7.94e-4,-0.93906 0.0051,-1.40859 0.005,-0.37739 0.0079,-0.7548 0.0093,-1.13221 -0.0029,-0.31507 0.01209,-0.62992 0.009,-0.94495 -0.0059,-0.17908 -0.01138,-0.35834 -0.02426,-0.53709 -0.0072,-0.1 -0.148596,-0.0898 -0.141373,0.0102 v 0 c 0.01275,0.17582 0.01791,0.35215 0.02389,0.52829 0.0032,0.31439 -0.01207,0.6286 -0.009,0.94302 -0.0013,0.37699 -0.0043,0.75397 -0.0093,1.13093 -0.006,0.47 -0.0087,0.93996 -0.0051,1.41 -0.0013,0.47067 -0.0045,0.94196 -0.05095,1.41082 -0.0282,0.28396 -0.06934,0.56768 -0.06799,0.85362 0.003,0.10018 0.144701,0.0959 0.141677,-0.004 z" />
    <path
       style="fill:#ff0000;stroke:#000000;stroke-width:0.7;stroke-miterlimit:4;stroke-dasharray:none"
       id="path2857"
       d="m 77.524339,111.97538 c 0.502764,-0.0786 1.013119,-0.10091 1.520672,-0.12974 0.899898,-0.0364 1.799098,0.0378 2.691897,0.14394 0.596776,0.0829 1.191879,0.19363 1.768628,0.37079 0.332079,0.102 0.403839,0.13908 0.717685,0.26711 0.318871,0.15246 0.667163,0.31477 0.876057,0.61508 0.104071,0.14963 0.102195,0.19793 0.149849,0.36917 -2.14e-4,0.0714 0.0074,0.14325 -5.29e-4,0.2142 -0.04338,0.38383 -0.303392,0.71119 -0.577255,0.96593 -0.09214,0.0857 -0.194026,0.16031 -0.291041,0.24046 -0.808779,0.58945 -1.734394,0.88836 -2.683772,1.16406 -0.619763,0.16553 -1.248534,0.30098 -1.887416,0.36559 -0.332909,0.0337 -0.396491,0.03 -0.717502,0.039 -0.302226,0.006 -0.602652,-0.0177 -0.898292,-0.0794 -0.09812,-0.0204 -0.127011,0.11834 -0.02889,0.13877 v 0 c 0.306517,0.0636 0.617892,0.0884 0.93119,0.0823 0.326612,-0.009 0.392491,-0.006 0.73075,-0.04 0.646409,-0.0656 1.282647,-0.2025 1.909702,-0.37016 0.404757,-0.11762 0.64298,-0.17961 1.040011,-0.3242 0.597289,-0.21752 1.180256,-0.49028 1.694659,-0.86683 0.101327,-0.0842 0.207817,-0.16256 0.303977,-0.25263 0.299217,-0.28024 0.576392,-0.6425 0.615614,-1.06419 0.0078,-0.0837 -0.0033,-0.16809 -0.0049,-0.25214 -0.05863,-0.19782 -0.05679,-0.25123 -0.179075,-0.42292 -0.225287,-0.31629 -0.589066,-0.49265 -0.929545,-0.65336 -0.321474,-0.13089 -0.393501,-0.16819 -0.733427,-0.27247 -0.583645,-0.17906 -1.185789,-0.29113 -1.789652,-0.37492 -0.901026,-0.10702 -1.808494,-0.1818 -2.716665,-0.14471 -0.514742,0.0292 -1.032405,0.0518 -1.54214,0.13262 -0.09803,0.0209 -0.06852,0.1595 0.02951,0.13864 z" />
    <path
       style="fill:#ff0000;stroke:#000000;stroke-width:0.7;stroke-miterlimit:4;stroke-dasharray:none"
       id="path2861"
       d="m 83.331321,138.95126 c 0.214284,0.24034 0.30861,0.54306 0.388438,0.8481 0.111628,0.53759 0.136631,1.08828 0.141377,1.63585 -5.29e-4,0.0587 -2.09e-4,0.1986 -0.0053,0.26659 -0.0013,0.0163 -0.02402,0.0497 -0.0078,0.0484 0.01963,-0.002 0.01373,-0.0409 0.03105,-0.0503 0.0876,-0.0475 0.08514,0.0627 0.05454,-0.0803 -0.04889,-0.28636 -0.03325,-0.58316 0.03388,-0.86553 0.0164,-0.069 0.03902,-0.13645 0.05853,-0.20468 0.103367,-0.26895 0.239948,-0.54344 0.465029,-0.73298 0.02906,-0.0245 0.06263,-0.043 0.09394,-0.0645 0.03188,-0.0102 0.06253,-0.0256 0.09563,-0.0305 0.183052,-0.0268 0.372666,0.10295 0.48863,0.2303 0.04378,0.0481 0.07863,0.10357 0.117943,0.15536 0.03201,0.062 0.07039,0.12116 0.09603,0.18608 0.132622,0.33589 0.123954,0.71009 0.104224,1.06375 0.03567,0.068 -0.03716,0.12547 -0.03228,0.1893 0.0011,0.0146 0.0071,-0.0312 0.01918,-0.0394 0.01902,-0.0129 0.05756,0.002 0.06645,-0.0188 0.01249,-0.0299 -0.0158,-0.0631 -0.01868,-0.0953 -0.0047,-0.0525 -0.0026,-0.10545 -0.0039,-0.15818 0.02058,-0.3781 0.159038,-0.75372 0.433731,-1.02239 0.05265,-0.0515 0.113707,-0.0936 0.170558,-0.14045 0.230011,-0.132 0.539459,-0.24981 0.78146,-0.0721 0.03517,0.0258 0.06174,0.0617 0.09261,0.0925 0.06183,0.0987 0.09428,0.13264 0.12133,0.24922 0.04063,0.17509 0.01246,0.36238 0.003,0.53868 -0.0038,0.0719 -0.0062,0.14393 -0.0092,0.21589 -0.007,0.2348 0.04161,0.46062 0.187111,0.65151 0.163214,0.21413 0.39457,0.34002 0.625266,0.46502 0.06651,0.0291 0.133027,0.0582 0.199543,0.0874 0.09186,0.0401 0.148559,-0.0898 0.0567,-0.12991 v 0 c -0.06299,-0.0274 -0.125982,-0.0548 -0.188971,-0.0822 -0.333502,-0.1789 -0.665626,-0.37218 -0.730515,-0.78166 -0.01066,-0.0672 -0.005,-0.13605 -0.0075,-0.20407 0.0105,-0.24652 0.05778,-0.57293 -0.0028,-0.81072 -0.03646,-0.14305 -0.0764,-0.18142 -0.156192,-0.30178 -0.112286,-0.10306 -0.130495,-0.14261 -0.279646,-0.18963 -0.274611,-0.0866 -0.548846,0.0227 -0.782746,0.1629 -0.165256,0.13849 -0.226708,0.17213 -0.35366,0.35252 -0.190069,0.27008 -0.287399,0.5967 -0.301702,0.92386 0.0016,0.0412 -0.0019,0.25349 0.03578,0.30882 0.170733,0.25182 0.211643,-0.076 0.216662,-0.1831 0.02529,-0.46102 0.01894,-0.93763 -0.229454,-1.34412 -0.04553,-0.0584 -0.08575,-0.12141 -0.136589,-0.17528 -0.155532,-0.1648 -0.393636,-0.30419 -0.628951,-0.25776 -0.04545,0.009 -0.08689,0.0322 -0.130334,0.0483 -0.03757,0.0268 -0.0776,0.0504 -0.112707,0.0803 -0.242345,0.20656 -0.390687,0.50262 -0.501243,0.79453 -0.02048,0.0724 -0.04428,0.14391 -0.06148,0.21715 -0.07086,0.3018 -0.08632,0.6186 -0.0326,0.9242 0.0086,0.0344 0.0045,0.0748 0.02574,0.10314 0.06997,0.0936 0.117146,0.10891 0.166827,0.0163 0.03446,-0.0642 -0.003,-0.27347 0.01461,-0.33734 -0.0049,-0.55928 -0.03084,-1.12176 -0.146026,-1.67064 -0.08829,-0.33448 -0.186208,-0.64186 -0.419394,-0.90602 -0.06643,-0.075 -0.172563,0.0189 -0.106129,0.094 z" />
    <path
       style="fill:#ff0000;stroke:#000000;stroke-width:0.7;stroke-miterlimit:4;stroke-dasharray:none"
       id="path2865"
       d="m 90.215952,139.66935 c -0.345607,0.0884 -0.670738,0.25698 -0.920139,0.51601 -0.06763,0.0702 -0.122902,0.15141 -0.184354,0.22711 -0.04001,0.0793 -0.09623,0.15227 -0.120044,0.23782 -0.07816,0.28079 0.0472,0.50855 0.300389,0.63619 0.216416,0.10909 0.349243,0.0882 0.583354,0.0968 0.298214,-0.0635 0.540705,-0.14557 0.659659,-0.45534 0.08889,-0.2315 0.0294,-0.46955 -0.02754,-0.69722 -0.05172,-0.11443 -0.07614,-0.27031 -0.171585,-0.36294 -0.01696,-0.0165 -0.05469,-0.0572 -0.06192,-0.0346 -0.08735,0.27208 0.06384,0.40551 0.189227,0.64523 0.297302,0.56661 0.596604,1.13536 0.819954,1.73648 0.144376,0.38857 0.247645,0.70936 0.266685,1.12364 0.0069,0.15076 -0.02138,0.30108 -0.03207,0.45162 -0.04353,0.11495 -0.06699,0.23968 -0.130593,0.34487 -0.134424,0.22232 -0.425122,0.406 -0.692806,0.36399 -0.06565,-0.0103 -0.135133,-0.034 -0.182179,-0.081 -0.04724,-0.0471 -0.05467,-0.12173 -0.082,-0.1826 0.02809,-0.12039 0.04079,-0.24543 0.08425,-0.36115 0.169132,-0.45034 0.40921,-0.80939 0.686192,-1.20491 0.289951,-0.41404 0.711657,-0.94661 1.048906,-1.32526 0.169584,-0.1904 0.35206,-0.36893 0.52809,-0.55339 0.157241,-0.14668 0.314481,-0.29336 0.47172,-0.44004 0.07328,-0.0684 -0.02342,-0.17201 -0.09671,-0.10363 v 0 c -0.159192,0.14861 -0.318384,0.29722 -0.477576,0.44584 -0.178101,0.18678 -0.362704,0.36757 -0.534307,0.56035 -0.338863,0.38066 -0.768303,0.92274 -1.059096,1.33908 -0.24529,0.35118 -0.568764,0.83132 -0.70653,1.25579 -0.04742,0.14611 -0.0461,0.30375 -0.06915,0.45562 0.05122,0.082 0.0796,0.18383 0.153673,0.24595 0.06731,0.0564 0.160205,0.0808 0.247515,0.0905 0.324096,0.0359 0.655217,-0.18478 0.812945,-0.45601 0.06851,-0.11781 0.09271,-0.25632 0.139068,-0.38448 0.01029,-0.16056 0.03891,-0.32099 0.0309,-0.48168 -0.02125,-0.4261 -0.127751,-0.75884 -0.276198,-1.15788 -0.224994,-0.60481 -0.525886,-1.17728 -0.825109,-1.74744 -0.06557,-0.1252 -0.108182,-0.26542 -0.196712,-0.37558 -0.0364,-0.0453 -0.108466,-0.0422 -0.16024,-0.0686 -0.0066,-0.003 -0.01635,-0.0249 -0.01177,-0.019 0.07281,0.0936 0.112708,0.20468 0.150072,0.31622 0.04955,0.19123 0.105751,0.39363 0.04236,0.59105 -0.08033,0.25018 -0.29718,0.33309 -0.532981,0.38489 -0.214231,-0.004 -0.305756,0.0152 -0.505238,-0.0705 -0.189201,-0.0813 -0.311081,-0.24356 -0.255704,-0.45767 0.01968,-0.0761 0.06897,-0.14129 0.103463,-0.21194 0.056,-0.07 0.106291,-0.14494 0.167986,-0.20996 0.231008,-0.24346 0.534689,-0.40057 0.85688,-0.48374 0.09784,-0.0217 0.06712,-0.16009 -0.03072,-0.13837 z" />
    <path
       style="fill:#ff0000;stroke:#000000;stroke-width:0.7;stroke-miterlimit:4;stroke-dasharray:none"
       id="path2867"
       d="m 67.690078,105.03776 c 0.122547,-0.47044 0.181134,-0.95499 0.239112,-1.43678 0.05948,-0.61774 0.11402,-1.23592 0.174628,-1.85356 0.0409,-0.39067 0.06621,-0.78265 0.08142,-1.17509 0.0029,-0.0991 0.0066,-0.19819 0.0058,-0.29732 0.0039,-0.0511 -0.05211,0.0662 -0.03054,0.0889 0.02771,0.0292 0.08049,-0.002 0.120721,-0.003 0.280165,-0.01 0.558142,-0.036 0.837195,-0.0622 0.713364,-0.0725 1.42177,-0.1847 2.126755,-0.314214 0.16945,-0.02958 0.336489,-0.07086 0.504672,-0.106434 0.04412,-0.0093 0.09344,-0.01577 0.04049,-0.0085 0.138515,0.03007 0.181041,-0.16582 0.04253,-0.19589 v 0 c -0.209942,-0.01598 -0.415118,0.104122 -0.623917,0.11366 -0.699185,0.128484 -1.401762,0.239788 -2.109253,0.311788 -0.247227,0.0232 -0.388824,0.0388 -0.630174,0.0534 -0.06447,0.004 -0.129061,0.006 -0.193611,0.008 -0.04262,0.002 -0.08809,-0.0118 -0.127895,0.003 -0.05915,0.0228 -0.105055,0.0709 -0.157583,0.10635 5.6e-5,0.002 1.09e-4,0.004 1.64e-4,0.007 7.94e-4,0.096 -0.0029,0.19189 -0.0056,0.28777 -0.01505,0.3885 -0.04011,0.77654 -0.08062,1.16328 -0.06046,0.61618 -0.114954,1.2329 -0.174151,1.8492 -0.05659,0.47067 -0.113591,0.94405 -0.232313,1.40386 -0.04021,0.13592 0.152012,0.19278 0.192218,0.0569 z" />
    <path
       style="fill:#ff0000;stroke:#000000;stroke-width:0.7;stroke-miterlimit:4;stroke-dasharray:none"
       id="path2869"
       d="m 68.089988,102.51957 c 0.587558,-0.0501 1.170631,-0.13773 1.7525,-0.23151 0.737809,-0.12365 1.472356,-0.26557 2.205619,-0.41353 0.04978,-0.007 0.09955,-0.0141 0.149334,-0.0212 0.140311,-0.0201 0.111903,-0.21851 -0.02841,-0.19843 v 0 c -0.05352,0.008 -0.10705,0.0154 -0.160576,0.0232 -0.730692,0.14744 -1.462656,0.28888 -2.197872,0.41212 -0.576932,0.093 -1.155052,0.18003 -1.73763,0.22969 -0.141229,0.012 -0.124198,0.21177 0.01704,0.19973 z" />
    <path
       style="fill:#ff0000;stroke:#000000;stroke-width:0.7;stroke-miterlimit:4;stroke-dasharray:none"
       id="path2873"
       d="m 69.168171,104.93823 c 0.39906,-0.0884 0.806762,-0.11869 1.214485,-0.12013 0.351554,0.0345 0.758237,0.0741 1.019291,0.34446 0.03531,0.0366 0.06058,0.0816 0.09088,0.12243 0.121251,0.25881 0.04278,0.40598 -0.190235,0.54058 -0.144635,0.0929 -0.32807,0.0788 -0.477891,0.14967 0.0085,0.0625 -0.0021,0.13062 0.0254,0.1874 0.01516,0.0314 0.06119,0.0337 0.09047,0.0527 0.0945,0.0613 0.196855,0.13683 0.274963,0.21689 0.152921,0.15675 0.18737,0.23094 0.308959,0.41772 0.03974,0.0864 0.09017,0.16864 0.119226,0.25919 0.133049,0.41467 0.04779,0.85393 -0.127394,1.24085 -0.04556,0.10063 -0.104275,0.19476 -0.156411,0.29214 -0.203295,0.28269 -0.498324,0.66656 -0.869093,0.7341 -0.03211,0.006 -0.06526,-0.001 -0.0979,-0.002 -0.01617,-0.011 -0.04238,-0.0145 -0.04847,-0.0331 -0.0051,-0.0156 0.01744,-0.0279 0.02355,-0.043 0.0149,-0.0369 0.02307,-0.0764 0.03935,-0.11268 0.136332,-0.3038 0.353685,-0.53888 0.568966,-0.78871 0.876615,-0.88273 2.025065,-1.37392 3.113873,-1.93163 0.126151,-0.0646 0.03476,-0.24303 -0.09139,-0.1784 v 0 c -1.111843,0.56962 -2.283164,1.07337 -3.174479,1.97935 -0.179689,0.20946 -0.88927,0.93418 -0.562975,1.25752 0.03451,0.0342 0.091,0.0341 0.136501,0.0511 0.05238,-0.003 0.105783,0.002 0.157133,-0.008 0.428771,-0.0893 0.745244,-0.49666 0.981885,-0.82985 0.05576,-0.10544 0.118824,-0.20733 0.167291,-0.31632 0.195532,-0.43971 0.275796,-0.9289 0.121346,-1.39525 -0.03294,-0.0995 -0.08891,-0.18975 -0.133361,-0.28462 -0.156596,-0.23755 -0.28706,-0.42646 -0.51336,-0.60304 -0.04433,-0.0346 -0.0916,-0.0653 -0.138838,-0.0958 -0.02167,-0.014 -0.04911,-0.0555 -0.06767,-0.0376 -0.03454,0.0333 -0.025,0.0927 -0.0375,0.13903 -0.08464,0.0104 0.11203,-0.0207 0.123148,-0.0233 0.07498,-0.0173 0.144835,-0.0368 0.216857,-0.0649 0.04484,-0.0175 0.08819,-0.0386 0.132289,-0.058 0.04435,-0.0282 0.09236,-0.0512 0.133057,-0.0845 0.252367,-0.20603 0.253505,-0.47842 0.111426,-0.74958 -0.04135,-0.0521 -0.07683,-0.10943 -0.124042,-0.15627 -0.299979,-0.29759 -0.746357,-0.35416 -1.145712,-0.38867 -0.424084,0.002 -0.848262,0.0334 -1.263157,0.12635 -0.137348,0.035 -0.08782,0.22925 0.04952,0.19423 z" />
    <path
       style="fill:#ff0000;stroke:#000000;stroke-width:0.7;stroke-miterlimit:4;stroke-dasharray:none"
       id="path2875"
       d="m 54.916392,139.3448 c 0.169212,-0.62051 0.274881,-1.25543 0.381728,-1.88889 0.08975,-0.53446 0.161782,-1.07264 0.165243,-1.61543 0.0016,-0.24848 -0.0092,-0.37939 -0.02283,-0.62244 -0.02204,-0.30777 -0.05102,-0.61498 -0.08147,-0.92201 -0.0088,-0.0618 -0.01027,-0.12389 -0.0105,-0.18617 -0.0011,-0.1301 0.01177,-0.25976 0.01955,-0.38952 -0.0084,-0.008 0.02812,-0.3105 0.0011,-0.17448 -0.0029,0.008 -0.01683,0.0221 -0.0086,0.0235 0.0471,0.008 0.526172,-0.0563 0.553974,-0.0592 0.427429,-0.0439 0.336897,-0.0348 0.78736,-0.0841 0.756396,-0.0835 1.511943,-0.17457 2.264527,-0.2876 0.0021,-0.009 0.511865,-0.0809 0.51195,-0.0816 0.0028,-0.021 -0.04203,-0.005 -0.06305,-0.008 0.100108,0.10035 0.242017,-0.0412 0.141907,-0.14157 v 0 c -0.03497,-0.0165 -0.06717,-0.0411 -0.104908,-0.0496 -0.024,-0.005 -0.04886,0.006 -0.07317,0.01 -0.147667,0.023 -0.294365,0.0524 -0.442513,0.0724 -0.749935,0.11265 -1.502839,0.20335 -2.256573,0.28657 -0.44972,0.0493 -0.358793,0.0401 -0.785725,0.0839 -0.09748,0.01 -0.359839,0.0357 -0.474641,0.0494 -0.03726,0.004 -0.07556,0.005 -0.111469,0.0157 -0.03471,0.0105 -0.0652,0.0317 -0.0978,0.0476 -0.01111,0.0247 -0.02432,0.0486 -0.03336,0.0741 -0.02236,0.0632 0.01199,0.14668 -0.0091,0.21075 -0.008,0.13401 -0.02127,0.26794 -0.01992,0.40232 2.65e-4,0.0686 0.0021,0.13705 0.01148,0.20516 0.03016,0.30418 0.05888,0.60855 0.0808,0.91346 0.01326,0.23535 0.02394,0.36495 0.0226,0.60523 -0.003,0.53363 -0.0744,1.06264 -0.162542,1.58808 -0.106209,0.62981 -0.211243,1.26105 -0.379569,1.87796 -0.0313,0.13825 0.164209,0.18251 0.195504,0.0443 z" />
    <path
       style="fill:#ff0000;stroke:#000000;stroke-width:0.7;stroke-miterlimit:4;stroke-dasharray:none"
       id="path2879"
       d="m 55.928212,136.09831 c 0.661479,-0.0728 1.322096,-0.15353 1.982949,-0.23184 0.345535,-0.0413 0.690909,-0.0839 1.036182,-0.12736 0.254008,-0.0319 0.138599,-0.0284 0.338992,-0.0232 0.141719,0.003 0.145322,-0.19787 0.0036,-0.20042 v 0 c -0.46982,-0.005 -0.934145,0.12358 -1.402365,0.15192 -0.658673,0.0781 -1.317117,0.15846 -1.976393,0.23118 -0.141229,0.012 -0.124195,0.21177 0.01704,0.19973 z" />
    <path
       style="fill:#ff0000;stroke:#000000;stroke-width:0.7;stroke-miterlimit:4;stroke-dasharray:none"
       id="path2881"
       d="m 56.029947,138.46271 c -0.16083,0.18876 -0.296217,0.44682 -0.291328,0.70278 0.0011,0.0494 0.01495,0.0977 0.02244,0.14651 0.03303,0.0484 0.05712,0.10436 0.0991,0.14527 0.222454,0.21678 0.599146,0.2142 0.8807,0.16267 0.0982,-0.018 0.192963,-0.0513 0.289444,-0.0769 0.468693,-0.18238 0.764315,-0.36546 0.841637,-0.88493 0.0046,-0.0282 -0.0045,-0.28889 -0.05315,-0.29176 -0.211794,-0.0125 -0.178493,0.0216 -0.197017,0.1611 0.04932,0.56287 0.205497,1.11058 0.251619,1.67464 0.01307,0.15998 0.01244,0.32079 0.01865,0.48118 -0.01415,0.8226 -0.27545,1.54947 -0.73738,2.22169 -0.06413,0.0617 -0.20179,0.22023 -0.31794,0.14356 -0.0991,-0.0654 -0.12682,-0.34673 -0.139684,-0.4286 0.0065,-0.2719 -0.0076,-0.41194 0.07986,-0.68397 0.256255,-0.79745 0.862021,-1.41482 1.416217,-2.01301 0.651423,-0.62932 0.32743,-0.3344 0.968687,-0.88834 0.107241,-0.0927 -0.02384,-0.24434 -0.131072,-0.15166 v 0 c -0.652221,0.56398 -0.322889,0.2639 -0.984715,0.90383 -0.580724,0.62784 -1.204262,1.2732 -1.466022,2.11164 -0.09457,0.30292 -0.0765,0.45297 -0.08039,0.75617 0.03476,0.18246 0.03357,0.33511 0.160827,0.48077 0.140348,0.16065 0.33609,0.15154 0.499914,0.0357 0.06016,-0.0426 0.106482,-0.10189 0.159721,-0.15283 0.05188,-0.0761 0.107853,-0.14948 0.155634,-0.22817 0.388001,-0.639 0.606917,-1.36649 0.616635,-2.11467 -0.0067,-0.16623 -0.0065,-0.3329 -0.02011,-0.49871 -0.04536,-0.55105 -0.191855,-1.08693 -0.250458,-1.63563 -0.01124,-0.10122 0.01214,-0.0202 -0.161009,-0.0513 -0.0071,-0.001 -0.0072,-0.0278 -0.0052,-0.0209 0.0092,0.0313 0.01426,0.0531 0.01659,0.0873 0.0016,0.0249 7.94e-4,0.0498 0.0013,0.0747 -0.05178,0.42255 -0.319611,0.57197 -0.695391,0.71876 -0.326054,0.0899 -0.746323,0.19631 -1.019606,-0.0729 -0.0067,-0.0305 -0.01871,-0.0603 -0.02024,-0.0915 -0.01008,-0.20499 0.10195,-0.417 0.224489,-0.57213 0.106267,-0.0938 -0.02638,-0.24408 -0.132649,-0.15028 z" />
    <path
       style="fill:#ff0000;stroke:#000000;stroke-width:0.7;stroke-miterlimit:4;stroke-dasharray:none"
       id="path2883"
       d="m 55.273154,91.94738 c 0.293909,-0.482172 0.295777,-1.068004 0.322921,-1.614964 0.03536,-0.729215 -0.09532,-1.446665 -0.26148,-2.15278 -0.06551,-0.255087 -0.02757,-0.138176 -0.108437,-0.35243 -0.05059,-0.132405 -0.237839,-0.06086 -0.187248,0.07155 v 0 c 0.07406,0.191103 0.03791,0.08301 0.100568,0.326824 0.162031,0.687811 0.29064,1.38653 0.256387,2.09696 -0.0249,0.507019 -0.02127,1.053402 -0.283623,1.50531 -0.08452,0.113782 0.07639,0.233315 0.160912,0.119534 z" />
    <path
       style="fill:#ff0000;stroke:#000000;stroke-width:0.7;stroke-miterlimit:4;stroke-dasharray:none"
       id="path2885"
       d="m 50.034586,87.41756 c 0.937602,-0.292 1.927839,-0.367938 2.901757,-0.437931 1.588712,-0.0558 3.21442,0.06097 4.714036,0.630042 0.277784,0.105413 0.541769,0.24411 0.812652,0.366162 0.454769,0.293706 0.833043,0.444712 1.095912,0.942639 0.08708,0.164957 0.177469,0.364281 0.129233,0.544465 -0.05901,0.22044 -0.242945,0.396555 -0.419766,0.540814 -0.623626,0.508791 -1.386724,0.736518 -2.118323,1.026728 -1.698059,0.48541 -0.857602,0.273458 -2.519958,0.641443 -0.138388,0.03066 -0.09503,0.226364 0.04335,0.19571 v 0 c 1.680652,-0.372555 0.829895,-0.157618 2.550726,-0.650907 0.692409,-0.276424 1.632405,-0.568568 2.208604,-1.098285 0.205243,-0.188685 0.392284,-0.432451 0.449532,-0.705303 0.0443,-0.211143 -0.06694,-0.435107 -0.170547,-0.624342 -0.287452,-0.52505 -0.68316,-0.685472 -1.166559,-0.995781 -0.27818,-0.124836 -0.549341,-0.266674 -0.834546,-0.374507 -1.523952,-0.576194 -3.174738,-0.69637 -4.788752,-0.638813 -0.995309,0.07189 -2.008272,0.149381 -2.965079,0.453097 -0.130652,0.05496 -0.05292,0.239731 0.07773,0.184769 z" />
    <path
       style="fill:#ff0000;stroke:#000000;stroke-width:0.7;stroke-miterlimit:4;stroke-dasharray:none"
       id="path2887"
       d="m 60.445324,91.862456 c -0.106648,0.05253 -0.05915,0.01749 -0.141745,0.106167 -0.08553,0.113027 0.07432,0.233984 0.159845,0.120954 v 0 c -0.0075,-0.02458 -0.0066,-0.009 0.03287,-0.03326 0.137083,-0.03604 0.08611,-0.229907 -0.05097,-0.193863 z" />
    <path
       style="fill:#ff0000;stroke:#000000;stroke-width:0.7;stroke-miterlimit:4;stroke-dasharray:none"
       id="path2889"
       d="m 67.156149,87.640532 c -0.583147,0.02995 -1.166402,0.104661 -1.734645,0.241438 -0.169429,0.04078 -0.336222,0.09182 -0.50433,0.137723 -0.514726,0.157218 -1.018384,0.35492 -1.493549,0.60892 -0.285023,0.15236 -0.525741,0.297961 -0.760172,0.521724 -0.09617,0.0918 -0.173874,0.201165 -0.260808,0.301747 -0.05511,0.105788 -0.128997,0.20375 -0.165322,0.317365 -0.116792,0.365326 -0.01617,0.737857 0.254209,1.00625 0.277204,0.275172 0.512553,0.334349 0.867989,0.489228 1.255731,0.354528 2.570509,0.292785 3.855898,0.17994 0.417343,-0.05081 0.228319,-0.02349 0.567671,-0.0777 0.139959,-0.02241 0.108283,-0.220334 -0.03168,-0.197935 v 0 c -0.329705,0.05288 -0.145394,0.02612 -0.553543,0.07595 -1.252511,0.110199 -2.53356,0.172405 -3.75907,-0.16437 -0.327671,-0.139282 -0.526031,-0.186179 -0.786183,-0.424418 -0.221943,-0.203247 -0.324318,-0.501062 -0.236802,-0.795726 0.02951,-0.09936 0.09269,-0.185436 0.139036,-0.278154 0.07813,-0.09203 0.147505,-0.192273 0.234376,-0.276098 0.222694,-0.214889 0.449651,-0.351599 0.722164,-0.497591 0.463968,-0.248555 0.955911,-0.441939 1.458661,-0.595784 0.163978,-0.04492 0.326655,-0.09488 0.491932,-0.134752 0.557189,-0.134435 1.12917,-0.207888 1.701033,-0.237426 0.141658,-0.0049 0.134789,-0.205193 -0.0069,-0.200335 z" />
    <path
       style="fill:#ff0000;stroke:#000000;stroke-width:0.7;stroke-miterlimit:4;stroke-dasharray:none"
       id="path2891"
       d="m 70.338618,90.980621 c 0.02516,0.04247 0.04292,0.09033 0.07552,0.127395 0.111808,0.127095 0.294627,0.199601 0.461584,0.20066 0.0497,2.64e-4 0.103198,-5.3e-4 0.147198,-0.02371 0.04391,-0.02307 0.06853,-0.07172 0.102796,-0.107577 -0.0024,-0.190495 -0.0836,-0.254191 -0.230425,-0.347517 -0.122105,-0.07198 -0.223901,0.1007 -0.101796,0.17268 v 0 c 0.02199,0.01122 0.0458,0.01942 0.06593,0.03369 0.07931,0.05626 0.02193,0.06171 0.09396,0.03876 0.01035,0.0044 0.04039,0.0071 0.03101,0.01326 -0.05005,0.03303 -0.155908,0.02207 -0.203478,0.0104 -0.08627,-0.02117 -0.135329,-0.05459 -0.203081,-0.106331 -0.01442,-0.01101 -0.02687,-0.02434 -0.04031,-0.03651 -0.01754,-0.14065 -0.21645,-0.115846 -0.198911,0.02479 z" />
    <path
       style="fill:#ff0000;stroke:#000000;stroke-width:0.7;stroke-miterlimit:4;stroke-dasharray:none"
       id="path2893"
       d="m 75.110156,87.221673 c -0.01154,0.752951 -0.10555,1.500224 -0.230372,2.241719 -0.104164,0.516491 -0.213318,1.040762 -0.434507,1.522156 -0.03326,0.07351 -0.167873,0.203279 -0.07641,0.294 0.06325,0.06273 0.340702,0.04379 0.393886,0.04378 1.036142,-0.01024 2.072473,-0.01484 3.108285,-0.04469 0.105227,-0.0054 0.210452,-0.01074 0.31568,-0.01611 0.141554,-0.0072 0.131326,-0.207423 -0.01024,-0.200192 v 0 c -0.10374,0.0053 -0.207483,0.01061 -0.311227,0.01593 -1.033967,0.02984 -2.068454,0.03434 -3.102752,0.04461 -0.100259,2.33e-4 -0.300175,-0.05066 -0.249674,0.134853 0.01265,0.0465 0.105812,-0.22533 0.114744,-0.188828 0.226801,-0.498184 0.344279,-1.037746 0.449884,-1.572263 0.126297,-0.751453 0.221554,-1.508733 0.233125,-2.271768 0.0024,-0.141721 -0.198163,-0.144925 -0.200427,-0.0032 z" />
    <path
       style="fill:#ff0000;stroke:#000000;stroke-width:0.7;stroke-miterlimit:4;stroke-dasharray:none"
       id="path2895"
       d="m 80.068191,90.593404 c -0.129333,0.113318 -0.227091,0.331779 -0.0724,0.476549 0.112856,0.105616 0.190397,0.07574 0.327282,0.07128 0.138507,-0.05214 0.530233,-0.198231 0.382386,-0.429969 -0.0333,-0.0522 -0.106021,-0.06398 -0.159033,-0.09597 -0.131535,-0.05282 -0.206227,0.133201 -0.07469,0.186015 v 0 c 0.0163,-0.0042 0.03396,-0.0047 0.04889,-0.01249 0.01709,-0.0089 0.05,-0.0549 0.04499,-0.03629 -0.02402,0.08917 -0.189113,0.150463 -0.259845,0.189002 -0.01881,0.0037 -0.112151,0.02722 -0.143057,0.01744 -0.106918,-0.03388 -0.02209,-0.173056 0.0305,-0.208862 0.110797,-0.0884 -0.01421,-0.245091 -0.125016,-0.156691 z" />
  </g>
</svg>
