<?xml version="1.0" encoding="UTF-8" standalone="no"?>
<!-- Created with Inkscape (http://www.inkscape.org/) -->

<svg
   width="70.829971mm"
   height="44.570415mm"
   viewBox="0 0 70.829971 44.570415"
   version="1.1"
   id="svg1"
   inkscape:version="1.3.2 (091e20e, 2023-11-25, custom)"
   sodipodi:docname="comp_vet.svg"
   inkscape:export-filename="comp_vet.png"
   inkscape:export-xdpi="600"
   inkscape:export-ydpi="600"
   xmlns:inkscape="http://www.inkscape.org/namespaces/inkscape"
   xmlns:sodipodi="http://sodipodi.sourceforge.net/DTD/sodipodi-0.dtd"
   xmlns="http://www.w3.org/2000/svg"
   xmlns:svg="http://www.w3.org/2000/svg">
  <sodipodi:namedview
     id="namedview1"
     pagecolor="#ffffff"
     bordercolor="#000000"
     borderopacity="0.25"
     inkscape:showpageshadow="2"
     inkscape:pageopacity="0.0"
     inkscape:pagecheckerboard="0"
     inkscape:deskcolor="#d1d1d1"
     inkscape:document-units="mm"
     showgrid="true"
     inkscape:zoom="2.8970539"
     inkscape:cx="127.37078"
     inkscape:cy="83.01537"
     inkscape:window-width="1920"
     inkscape:window-height="1009"
     inkscape:window-x="-8"
     inkscape:window-y="-8"
     inkscape:window-maximized="1"
     inkscape:current-layer="layer1"
     inkscape:export-bgcolor="#ffffffff"
     showguides="true">
    <inkscape:grid
       type="axonomgrid"
       id="grid1"
       units="mm"
       originx="-79.80056"
       originy="-119.418"
       spacingx="0"
       spacingy="1"
       empcolor="#0099e5"
       empopacity="0.30196078"
       color="#0099e5"
       opacity="0.14901961"
       empspacing="5"
       dotted="false"
       gridanglex="30"
       gridanglez="30"
       visible="true" />
    <sodipodi:guide
       position="13.516602,19.455103"
       orientation="0,-1"
       id="guide47"
       inkscape:locked="false" />
    <sodipodi:guide
       position="72.606083,4.8425569"
       orientation="0,-1"
       id="guide48"
       inkscape:locked="false" />
  </sodipodi:namedview>
  <defs
     id="defs1">
    <marker
       style="overflow:visible"
       id="Triangle"
       refX="0"
       refY="0"
       orient="auto-start-reverse"
       inkscape:stockid="Triangle arrow"
       markerWidth="1"
       markerHeight="1"
       viewBox="0 0 1 1"
       inkscape:isstock="true"
       inkscape:collect="always"
       preserveAspectRatio="xMidYMid">
      <path
         transform="scale(0.5)"
         style="fill:context-stroke;fill-rule:evenodd;stroke:context-stroke;stroke-width:1pt"
         d="M 5.77,0 -2.88,5 V -5 Z"
         id="path135" />
    </marker>
  </defs>
  <g
     inkscape:label="Camada 1"
     inkscape:groupmode="layer"
     id="layer1"
     transform="translate(-79.80056,-119.418)">
    <path
       style="fill:#ffffff;stroke:#0000ff;stroke-width:0.4"
       d="m 108.25317,147.49999 0.05,-24.91961"
       id="path1"
       sodipodi:nodetypes="cc" />
    <path
       style="fill:#ff0000;stroke:#ff0000;stroke-width:0.4"
       d="M 108.25317,147.49999 86.838832,160.11547"
       id="path2"
       sodipodi:nodetypes="cc" />
    <path
       style="fill:#00ff00;stroke:#00ff00;stroke-width:0.4"
       d="M 108.25317,147.49999 129.90381,160"
       id="path3"
       sodipodi:nodetypes="cc" />
    <path
       style="fill:none;stroke:#000000;stroke-width:0.2;stroke-dasharray:none"
       d="m 95.262793,155 8.660257,5 12.99038,-7.5"
       id="path4"
       sodipodi:nodetypes="ccc" />
    <path
       style="fill:none;stroke:#000000;stroke-width:0.2;stroke-dasharray:none"
       d="M 108.25317,127.49999 103.92305,130"
       id="path5"
       sodipodi:nodetypes="cc" />
    <path
       style="fill:none;stroke:#000000;stroke-width:0.2;stroke-dasharray:none"
       d="M 103.92305,160 V 130"
       id="path6"
       sodipodi:nodetypes="cc" />
    <path
       style="fill:none;stroke:#000000;stroke-width:0.2;stroke-dasharray:none"
       d="m 94.396765,154.49999 1.73205,1"
       id="path7" />
    <path
       style="fill:none;stroke:#000000;stroke-width:0.2;stroke-dasharray:none"
       d="m 98.726891,151.99999 1.732049,1"
       id="path8" />
    <path
       style="fill:none;stroke:#000000;stroke-width:0.2;stroke-dasharray:none"
       d="m 103.05702,149.49999 1.73205,1"
       id="path9" />
    <path
       style="fill:none;stroke:#000000;stroke-width:0.2;stroke-dasharray:none"
       d="m 113.44932,149.49999 -1.73205,1"
       id="path10" />
    <path
       style="fill:none;stroke:#000000;stroke-width:0.2;stroke-dasharray:none"
       d="m 107.38715,143 1.73205,-1.00001"
       id="path11" />
    <path
       style="fill:none;stroke:#000000;stroke-width:0.2;stroke-dasharray:none"
       d="m 107.38715,137.99999 1.73205,-1"
       id="path12" />
    <path
       style="fill:none;stroke:#000000;stroke-width:0.2;stroke-dasharray:none"
       d="m 107.38715,132.99999 1.73205,-1"
       id="path13" />
    <path
       style="fill:none;stroke:#000000;stroke-width:0.2;stroke-dasharray:none;marker-end:url(#Triangle)"
       d="m 108.25317,147.49999 -3.69083,2.13469"
       id="path14"
       sodipodi:nodetypes="cc" />
    <path
       style="fill:none;stroke:#000000;stroke-width:0.2;stroke-dasharray:none;marker-end:url(#Triangle)"
       d="m 108.25317,147.49999 3.87349,2.08902"
       id="path15"
       sodipodi:nodetypes="cc" />
    <path
       style="fill:none;stroke:#000000;stroke-width:0.2;stroke-dasharray:none;marker-end:url(#Triangle)"
       d="m 108.25317,147.49999 0.0457,-4.17804"
       id="path16"
       sodipodi:nodetypes="cc" />
    <path
       style="fill:none;stroke:#000000;stroke-width:0.5;stroke-dasharray:none;marker-end:url(#Triangle)"
       d="m 108.25317,147.49999 -3.90141,-15.90625"
       id="path17"
       sodipodi:nodetypes="cc" />
    <g
       inkscape:label=""
       transform="translate(88.159434,159.94121)"
       id="g18">
      <g
         fill="#000000"
         fill-opacity="1"
         id="g2"
         transform="matrix(0.352778,0,0,0.352778,-0.807817,-0.707231)">
        <g
           id="use1"
           transform="translate(1.993,10.161)">
          <path
             d="m 5.671875,-4.859375 -1.125,-2.609375 C 4.703125,-7.75 5.0625,-7.8125 5.21875,-7.8125 c 0.0625,0 0.203125,-0.015625 0.203125,-0.21875 0,-0.125 -0.109375,-0.125 -0.1875,-0.125 -0.203125,0 -0.4375,0.015625 -0.640625,0.015625 H 3.890625 c -0.71875,0 -1.25,-0.015625 -1.265625,-0.015625 -0.09375,0 -0.203125,0 -0.203125,0.21875 0,0.125 0.09375,0.125 0.25,0.125 0.703125,0 0.75,0.109375 0.859375,0.40625 l 1.421875,3.3125 -2.59375,2.78125 C 1.9375,-0.84375 1.421875,-0.390625 0.53125,-0.34375 0.390625,-0.328125 0.296875,-0.328125 0.296875,-0.125 0.296875,-0.078125 0.3125,0 0.4375,0 0.609375,0 0.78125,-0.03125 0.953125,-0.03125 h 0.5625 C 1.90625,-0.03125 2.3125,0 2.6875,0 c 0.078125,0 0.234375,0 0.234375,-0.21875 0,-0.109375 -0.09375,-0.125 -0.15625,-0.125 -0.25,-0.03125 -0.40625,-0.15625 -0.40625,-0.34375 0,-0.203125 0.15625,-0.359375 0.5,-0.71875 l 1.0625,-1.15625 C 4.1875,-2.828125 4.8125,-3.53125 5.078125,-3.796875 l 1.25,2.953125 c 0.015625,0.015625 0.0625,0.140625 0.0625,0.15625 0,0.109375 -0.265625,0.3125 -0.640625,0.34375 -0.078125,0 -0.203125,0.015625 -0.203125,0.21875 C 5.546875,0 5.671875,0 5.71875,0 5.921875,0 6.171875,-0.03125 6.375,-0.03125 H 7.6875 C 7.90625,-0.03125 8.125,0 8.328125,0 c 0.09375,0 0.21875,0 0.21875,-0.234375 0,-0.109375 -0.125,-0.109375 -0.234375,-0.109375 C 7.609375,-0.359375 7.578125,-0.421875 7.375,-0.859375 L 5.796875,-4.5625 7.3125,-6.1875 c 0.125,-0.125 0.390625,-0.421875 0.5,-0.546875 0.515625,-0.53125 1,-1.015625 1.96875,-1.078125 0.109375,-0.015625 0.234375,-0.015625 0.234375,-0.21875 0,-0.125 -0.109375,-0.125 -0.15625,-0.125 -0.171875,0 -0.34375,0.015625 -0.515625,0.015625 H 8.796875 C 8.421875,-8.140625 8,-8.15625 7.625,-8.15625 c -0.078125,0 -0.21875,0 -0.21875,0.203125 0,0.125 0.078125,0.140625 0.140625,0.140625 0.203125,0.015625 0.40625,0.109375 0.40625,0.34375 L 7.9375,-7.453125 C 7.921875,-7.359375 7.90625,-7.25 7.765625,-7.09375 Z m 0,0"
             id="path18" />
        </g>
      </g>
    </g>
    <g
       inkscape:label=""
       transform="translate(130.35153,159.31328)"
       id="g21">
      <g
         fill="#000000"
         fill-opacity="1"
         id="g20"
         transform="matrix(0.352778,0,0,0.352778,-0.84089,-0.707231)">
        <g
           id="g19"
           transform="translate(1.993,10.161)">
          <path
             d="M 7.03125,-6.84375 7.296875,-7.109375 C 7.828125,-7.65625 8.265625,-7.78125 8.6875,-7.8125 8.828125,-7.828125 8.921875,-7.84375 8.921875,-8.046875 8.921875,-8.15625 8.8125,-8.15625 8.78125,-8.15625 c -0.140625,0 -0.296875,0.015625 -0.4375,0.015625 H 7.859375 c -0.359375,0 -0.71875,-0.015625 -1.0625,-0.015625 -0.078125,0 -0.203125,0 -0.203125,0.21875 0,0.109375 0.109375,0.125 0.140625,0.125 0.359375,0.015625 0.359375,0.203125 0.359375,0.265625 0,0.140625 -0.09375,0.3125 -0.328125,0.59375 L 3.921875,-3.6875 2.5625,-7.328125 C 2.5,-7.5 2.5,-7.515625 2.5,-7.546875 c 0,-0.25 0.484375,-0.265625 0.625,-0.265625 0.15625,0 0.28125,0 0.28125,-0.21875 0,-0.125 -0.109375,-0.125 -0.171875,-0.125 -0.203125,0 -0.453125,0.015625 -0.65625,0.015625 H 1.25 c -0.203125,0 -0.4375,-0.015625 -0.640625,-0.015625 -0.078125,0 -0.21875,0 -0.21875,0.21875 0,0.125 0.109375,0.125 0.296875,0.125 0.578125,0 0.6875,0.109375 0.796875,0.375 l 1.484375,3.984375 c 0,0.03125 0.046875,0.171875 0.046875,0.203125 0,0.03125 -0.59375,2.390625 -0.625,2.515625 -0.09375,0.3125 -0.21875,0.375 -0.984375,0.390625 -0.203125,0 -0.296875,0 -0.296875,0.21875 C 1.109375,0 1.25,0 1.28125,0 1.5,0 1.75,-0.03125 1.96875,-0.03125 H 3.375 C 3.59375,-0.03125 3.84375,0 4.0625,0 c 0.078125,0 0.234375,0 0.234375,-0.21875 0,-0.125 -0.09375,-0.125 -0.296875,-0.125 -0.734375,0 -0.734375,-0.09375 -0.734375,-0.21875 0,-0.078125 0.09375,-0.46875 0.15625,-0.703125 l 0.421875,-1.71875 c 0.078125,-0.25 0.078125,-0.28125 0.1875,-0.390625 z m 0,0"
             id="path19" />
        </g>
      </g>
    </g>
    <g
       inkscape:label=""
       transform="translate(109.36007,121.8058)"
       id="g24">
      <g
         fill="#000000"
         fill-opacity="1"
         id="g23"
         transform="matrix(0.352778,0,0,0.352778,-0.945621,-0.707231)">
        <g
           id="g22"
           transform="translate(1.993,10.161)">
          <path
             d="M 8.359375,-7.796875 C 8.4375,-7.875 8.5,-7.953125 8.5,-8.0625 8.5,-8.15625 8.484375,-8.15625 8.21875,-8.15625 h -4.9375 c -0.28125,0 -0.296875,0 -0.359375,0.21875 l -0.65625,2.15625 C 2.21875,-5.671875 2.21875,-5.640625 2.21875,-5.625 c 0,0.0625 0.046875,0.125 0.125,0.125 0.09375,0 0.125,-0.046875 0.171875,-0.203125 C 2.953125,-7 3.53125,-7.8125 5.421875,-7.8125 h 1.96875 L 0.84375,-0.40625 C 0.734375,-0.28125 0.6875,-0.234375 0.6875,-0.09375 0.6875,0 0.734375,0 0.96875,0 H 6.078125 C 6.34375,0 6.359375,-0.015625 6.4375,-0.234375 L 7.265625,-2.875 c 0.015625,-0.03125 0.03125,-0.109375 0.03125,-0.15625 0,-0.0625 -0.046875,-0.125 -0.109375,-0.125 -0.09375,0 -0.109375,0.015625 -0.203125,0.3125 -0.5,1.546875 -1.03125,2.46875 -3.109375,2.46875 H 1.8125 Z m 0,0"
             id="path21" />
        </g>
      </g>
    </g>
    <g
       inkscape:label=""
       transform="translate(100.88461,129.3243)"
       id="g25">
      <g
         fill="#000000"
         fill-opacity="1"
         id="g3"
         transform="matrix(0.352778,0,0,0.352778,-0.873365,-0.704629)">
        <g
           id="use2"
           transform="translate(1.219,10.513)">
          <path
             d="M 6.390625,-7.140625 C 6.25,-7 5.8125,-6.59375 5.8125,-6.421875 c 0,0.125 0.109375,0.234375 0.21875,0.234375 0.109375,0 0.15625,-0.078125 0.25,-0.203125 0.28125,-0.34375 0.609375,-0.578125 0.875,-0.734375 0.125,-0.078125 0.203125,-0.109375 0.203125,-0.234375 0,-0.109375 -0.09375,-0.171875 -0.15625,-0.234375 C 6.859375,-7.8125 6.78125,-8.140625 6.734375,-8.28125 6.703125,-8.375 6.671875,-8.515625 6.5,-8.515625 c -0.0625,0 -0.21875,0.046875 -0.21875,0.21875 0,0.109375 0.078125,0.390625 0.3125,0.71875 H 2.5625 c -0.203125,0 -0.40625,0 -0.40625,0.234375 0,0.203125 0.21875,0.203125 0.40625,0.203125 z m 0,0"
             id="path24" />
        </g>
      </g>
      <g
         fill="#000000"
         fill-opacity="1"
         id="g4"
         transform="matrix(0.352778,0,0,0.352778,-0.873365,-0.704629)">
        <g
           id="use3"
           transform="translate(1.9913059,10.513)">
          <path
             d="M 3.59375,-1.421875 C 3.53125,-1.21875 3.53125,-1.1875 3.375,-0.96875 3.109375,-0.640625 2.578125,-0.125 2.015625,-0.125 1.53125,-0.125 1.25,-0.5625 1.25,-1.265625 c 0,-0.65625 0.375,-2 0.609375,-2.5 0.40625,-0.84375 0.96875,-1.265625 1.421875,-1.265625 0.796875,0 0.953125,0.984375 0.953125,1.078125 0,0.015625 -0.03125,0.15625 -0.046875,0.1875 z m 0.765625,-3.0625 c -0.125,-0.3125 -0.453125,-0.78125 -1.078125,-0.78125 -1.34375,0 -2.796875,1.734375 -2.796875,3.515625 0,1.171875 0.6875,1.875 1.5,1.875 0.65625,0 1.21875,-0.515625 1.546875,-0.90625 0.125,0.703125 0.6875,0.90625 1.046875,0.90625 0.359375,0 0.640625,-0.21875 0.859375,-0.65625 0.1875,-0.40625 0.359375,-1.125 0.359375,-1.171875 0,-0.0625 -0.046875,-0.109375 -0.125,-0.109375 C 5.5625,-1.8125 5.5625,-1.75 5.515625,-1.578125 5.328125,-0.875 5.109375,-0.125 4.609375,-0.125 4.265625,-0.125 4.25,-0.4375 4.25,-0.671875 c 0,-0.265625 0.03125,-0.40625 0.140625,-0.875 C 4.46875,-1.84375 4.53125,-2.109375 4.625,-2.453125 5.0625,-4.25 5.171875,-4.671875 5.171875,-4.75 c 0,-0.15625 -0.125,-0.296875 -0.3125,-0.296875 -0.375,0 -0.46875,0.421875 -0.5,0.5625 z m 0,0"
             id="path25" />
        </g>
      </g>
    </g>
    <g
       inkscape:label=""
       transform="translate(112.49653,133.4849)"
       id="g38">
      <g
         fill="#000000"
         fill-opacity="1"
         id="g13"
         transform="matrix(0.352778,0,0,0.352778,-0.873365,-0.704629)">
        <g
           id="use12"
           transform="translate(1.219,10.513)">
          <path
             d="M 6.390625,-7.140625 C 6.25,-7 5.8125,-6.59375 5.8125,-6.421875 c 0,0.125 0.109375,0.234375 0.21875,0.234375 0.109375,0 0.15625,-0.078125 0.25,-0.203125 0.28125,-0.34375 0.609375,-0.578125 0.875,-0.734375 0.125,-0.078125 0.203125,-0.109375 0.203125,-0.234375 0,-0.109375 -0.09375,-0.171875 -0.15625,-0.234375 C 6.859375,-7.8125 6.78125,-8.140625 6.734375,-8.28125 6.703125,-8.375 6.671875,-8.515625 6.5,-8.515625 c -0.0625,0 -0.21875,0.046875 -0.21875,0.21875 0,0.109375 0.078125,0.390625 0.3125,0.71875 H 2.5625 c -0.203125,0 -0.40625,0 -0.40625,0.234375 0,0.203125 0.21875,0.203125 0.40625,0.203125 z m 0,0"
             id="path29" />
        </g>
      </g>
      <g
         fill="#000000"
         fill-opacity="1"
         id="g14"
         transform="matrix(0.352778,0,0,0.352778,-0.873365,-0.704629)">
        <g
           id="use13"
           transform="translate(1.9913059,10.513)">
          <path
             d="M 3.59375,-1.421875 C 3.53125,-1.21875 3.53125,-1.1875 3.375,-0.96875 3.109375,-0.640625 2.578125,-0.125 2.015625,-0.125 1.53125,-0.125 1.25,-0.5625 1.25,-1.265625 c 0,-0.65625 0.375,-2 0.609375,-2.5 0.40625,-0.84375 0.96875,-1.265625 1.421875,-1.265625 0.796875,0 0.953125,0.984375 0.953125,1.078125 0,0.015625 -0.03125,0.15625 -0.046875,0.1875 z m 0.765625,-3.0625 c -0.125,-0.3125 -0.453125,-0.78125 -1.078125,-0.78125 -1.34375,0 -2.796875,1.734375 -2.796875,3.515625 0,1.171875 0.6875,1.875 1.5,1.875 0.65625,0 1.21875,-0.515625 1.546875,-0.90625 0.125,0.703125 0.6875,0.90625 1.046875,0.90625 0.359375,0 0.640625,-0.21875 0.859375,-0.65625 0.1875,-0.40625 0.359375,-1.125 0.359375,-1.171875 0,-0.0625 -0.046875,-0.109375 -0.125,-0.109375 C 5.5625,-1.8125 5.5625,-1.75 5.515625,-1.578125 5.328125,-0.875 5.109375,-0.125 4.609375,-0.125 4.265625,-0.125 4.25,-0.4375 4.25,-0.671875 c 0,-0.265625 0.03125,-0.40625 0.140625,-0.875 C 4.46875,-1.84375 4.53125,-2.109375 4.625,-2.453125 5.0625,-4.25 5.171875,-4.671875 5.171875,-4.75 c 0,-0.15625 -0.125,-0.296875 -0.3125,-0.296875 -0.375,0 -0.46875,0.421875 -0.5,0.5625 z m 0,0"
             id="path30" />
        </g>
      </g>
      <g
         fill="#000000"
         fill-opacity="1"
         id="g15"
         transform="matrix(0.352778,0,0,0.352778,-0.873365,-0.704629)">
        <g
           id="use14"
           transform="translate(11.458,10.513)">
          <path
             d="m 8.0625,-3.875 c 0.171875,0 0.390625,0 0.390625,-0.21875 C 8.453125,-4.3125 8.25,-4.3125 8.0625,-4.3125 H 1.03125 c -0.171875,0 -0.390625,0 -0.390625,0.21875 0,0.21875 0.203125,0.21875 0.390625,0.21875 z m 0,2.21875 c 0.171875,0 0.390625,0 0.390625,-0.203125 C 8.453125,-2.09375 8.25,-2.09375 8.0625,-2.09375 H 1.03125 c -0.171875,0 -0.390625,0 -0.390625,0.21875 0,0.21875 0.203125,0.21875 0.390625,0.21875 z m 0,0"
             id="path31" />
        </g>
      </g>
      <g
         fill="#000000"
         fill-opacity="1"
         id="g16"
         transform="matrix(0.352778,0,0,0.352778,-0.873365,-0.704629)">
        <g
           id="use15"
           transform="translate(23.886625,10.513)">
          <path
             d="m 2.203125,-4.296875 c -0.203125,0.015625 -0.25,0.03125 -0.25,0.140625 0,0.109375 0.0625,0.109375 0.265625,0.109375 h 0.546875 c 1.03125,0 1.484375,0.84375 1.484375,1.984375 0,1.578125 -0.8125,1.984375 -1.40625,1.984375 -0.578125,0 -1.546875,-0.265625 -1.90625,-1.0625 0.390625,0.0625 0.734375,-0.15625 0.734375,-0.578125 0,-0.34375 -0.25,-0.59375 -0.578125,-0.59375 -0.296875,0 -0.609375,0.171875 -0.609375,0.625 0,1.0625 1.0625,1.9375 2.390625,1.9375 1.421875,0 2.484375,-1.09375 2.484375,-2.296875 C 5.359375,-3.140625 4.46875,-4 3.328125,-4.203125 4.359375,-4.5 5.03125,-5.375 5.03125,-6.3125 c 0,-0.9375 -0.984375,-1.640625 -2.140625,-1.640625 -1.1875,0 -2.078125,0.734375 -2.078125,1.609375 0,0.46875 0.375,0.578125 0.546875,0.578125 0.25,0 0.546875,-0.1875 0.546875,-0.546875 0,-0.375 -0.296875,-0.546875 -0.5625,-0.546875 -0.0625,0 -0.09375,0 -0.125,0.015625 0.453125,-0.8125 1.578125,-0.8125 1.640625,-0.8125 0.390625,0 1.171875,0.171875 1.171875,1.34375 0,0.234375 -0.03125,0.890625 -0.390625,1.40625 C 3.28125,-4.375 2.875,-4.34375 2.5625,-4.328125 Z m 0,0"
             id="path32" />
        </g>
      </g>
      <g
         fill="#000000"
         fill-opacity="1"
         id="g17"
         transform="matrix(0.352778,0,0,0.352778,-0.873365,-0.704629)">
        <g
           id="use16"
           transform="translate(30.301786,10.513)">
          <path
             d="m 2.921875,-8.296875 -1.5625,1.625 0.1875,0.1875 1.375,-1.234375 1.375,1.234375 0.1875,-0.1875 z m 0,0"
             id="path33" />
        </g>
      </g>
      <g
         fill="#000000"
         fill-opacity="1"
         id="g26"
         transform="matrix(0.352778,0,0,0.352778,-0.873365,-0.704629)">
        <g
           id="use17"
           transform="translate(29.737,10.513)">
          <path
             d="M 2.46875,-3.5 C 2.484375,-3.578125 2.78125,-4.171875 3.234375,-4.546875 3.53125,-4.84375 3.9375,-5.03125 4.40625,-5.03125 c 0.484375,0 0.65625,0.359375 0.65625,0.828125 0,0.6875 -0.5,2.046875 -0.734375,2.703125 -0.109375,0.28125 -0.171875,0.4375 -0.171875,0.65625 0,0.53125 0.375,0.96875 0.953125,0.96875 1.109375,0 1.53125,-1.765625 1.53125,-1.828125 0,-0.0625 -0.046875,-0.109375 -0.125,-0.109375 -0.109375,0 -0.125,0.03125 -0.1875,0.234375 C 6.0625,-0.59375 5.609375,-0.125 5.140625,-0.125 c -0.125,0 -0.3125,0 -0.3125,-0.390625 0,-0.296875 0.125,-0.65625 0.203125,-0.828125 C 5.265625,-2 5.765625,-3.328125 5.765625,-4.015625 c 0,-0.71875 -0.40625,-1.25 -1.3125,-1.25 -1.078125,0 -1.625,0.75 -1.84375,1.046875 -0.046875,-0.6875 -0.53125,-1.046875 -1.0625,-1.046875 -0.375,0 -0.640625,0.21875 -0.84375,0.625 -0.21875,0.4375 -0.375,1.15625 -0.375,1.203125 0,0.046875 0.046875,0.109375 0.125,0.109375 0.09375,0 0.109375,-0.015625 0.1875,-0.296875 0.1875,-0.71875 0.40625,-1.40625 0.875,-1.40625 0.28125,0 0.375,0.1875 0.375,0.546875 0,0.265625 -0.125,0.734375 -0.203125,1.109375 l -0.34375,1.28125 c -0.046875,0.234375 -0.171875,0.765625 -0.234375,0.984375 -0.078125,0.3125 -0.21875,0.875 -0.21875,0.9375 0,0.15625 0.140625,0.296875 0.3125,0.296875 0.140625,0 0.3125,-0.078125 0.40625,-0.25 C 1.640625,-0.1875 1.75,-0.609375 1.8125,-0.84375 l 0.25,-1.078125 z m 0,0"
             id="path34" />
        </g>
      </g>
      <g
         fill="#000000"
         fill-opacity="1"
         id="g27"
         transform="matrix(0.352778,0,0,0.352778,-0.873365,-0.704629)">
        <g
           id="use18"
           transform="translate(36.723999,12.307)">
          <path
             d="M 4,-3.171875 C 3.640625,-3.09375 3.625,-2.78125 3.625,-2.75 c 0,0.171875 0.140625,0.296875 0.3125,0.296875 0.171875,0 0.4375,-0.140625 0.4375,-0.484375 0,-0.453125 -0.5,-0.578125 -0.796875,-0.578125 C 3.21875,-3.515625 2.90625,-3.25 2.71875,-2.9375 2.546875,-3.359375 2.140625,-3.515625 1.8125,-3.515625 c -0.875,0 -1.359375,1 -1.359375,1.21875 0,0.078125 0.0625,0.109375 0.125,0.109375 0.09375,0 0.109375,-0.046875 0.125,-0.140625 0.1875,-0.578125 0.671875,-0.96875 1.078125,-0.96875 0.3125,0 0.46875,0.234375 0.46875,0.515625 C 2.25,-2.625 2.15625,-2.25 2.09375,-2 c -0.0625,0.234375 -0.234375,0.9375 -0.28125,1.09375 -0.109375,0.421875 -0.390625,0.765625 -0.75,0.765625 -0.03125,0 -0.234375,0 -0.40625,-0.109375 0.359375,-0.09375 0.359375,-0.421875 0.359375,-0.4375 0,-0.1875 -0.140625,-0.296875 -0.3125,-0.296875 -0.21875,0 -0.453125,0.1875 -0.453125,0.484375 0,0.375 0.390625,0.578125 0.796875,0.578125 0.421875,0 0.71875,-0.3125 0.859375,-0.578125 0.1875,0.390625 0.546875,0.578125 0.9375,0.578125 0.859375,0 1.34375,-1 1.34375,-1.21875 C 4.1875,-1.21875 4.125,-1.25 4.0625,-1.25 c -0.09375,0 -0.109375,0.0625 -0.140625,0.140625 -0.15625,0.53125 -0.609375,0.96875 -1.0625,0.96875 -0.265625,0 -0.453125,-0.171875 -0.453125,-0.515625 0,-0.15625 0.046875,-0.34375 0.15625,-0.78125 0.046875,-0.25 0.21875,-0.9375 0.265625,-1.09375 0.109375,-0.421875 0.390625,-0.765625 0.75,-0.765625 0.046875,0 0.25,0 0.421875,0.125 z m 0,0"
             id="path35" />
        </g>
      </g>
      <g
         fill="#000000"
         fill-opacity="1"
         id="g28"
         transform="matrix(0.352778,0,0,0.352778,-0.873365,-0.704629)">
        <g
           id="use19"
           transform="translate(44.646,10.513)">
          <path
             d="M 4.765625,-2.765625 H 8.0625 c 0.171875,0 0.390625,0 0.390625,-0.203125 0,-0.234375 -0.203125,-0.234375 -0.390625,-0.234375 H 4.765625 V -6.5 c 0,-0.171875 0,-0.390625 -0.21875,-0.390625 -0.21875,0 -0.21875,0.203125 -0.21875,0.390625 v 3.296875 H 1.03125 c -0.171875,0 -0.390625,0 -0.390625,0.21875 0,0.21875 0.203125,0.21875 0.390625,0.21875 H 4.328125 V 0.53125 c 0,0.171875 0,0.390625 0.21875,0.390625 0.21875,0 0.21875,-0.203125 0.21875,-0.390625 z m 0,0"
             id="path36" />
        </g>
      </g>
      <g
         fill="#000000"
         fill-opacity="1"
         id="g29"
         transform="matrix(0.352778,0,0,0.352778,-0.873365,-0.704629)">
        <g
           id="use20"
           transform="translate(56.405136,10.513)">
          <path
             d="M 5.265625,-2.015625 H 5 c -0.046875,0.203125 -0.140625,0.875 -0.25,1.0625 C 4.65625,-0.84375 3.984375,-0.84375 3.625,-0.84375 H 1.40625 c 0.328125,-0.28125 1.0625,-1.046875 1.359375,-1.328125 1.828125,-1.671875 2.5,-2.296875 2.5,-3.484375 0,-1.375 -1.09375,-2.296875 -2.484375,-2.296875 -1.375,0 -2.203125,1.1875 -2.203125,2.21875 0,0.609375 0.53125,0.609375 0.5625,0.609375 0.265625,0 0.5625,-0.1875 0.5625,-0.5625 0,-0.34375 -0.21875,-0.5625 -0.5625,-0.5625 -0.09375,0 -0.125,0 -0.15625,0.015625 0.21875,-0.8125 0.875,-1.375 1.640625,-1.375 1.015625,0 1.640625,0.859375 1.640625,1.953125 C 4.265625,-4.640625 3.6875,-3.75 3,-2.984375 L 0.578125,-0.28125 V 0 h 4.375 z m 0,0"
             id="path37" />
        </g>
      </g>
      <g
         fill="#000000"
         fill-opacity="1"
         id="g30"
         transform="matrix(0.352778,0,0,0.352778,-0.873365,-0.704629)">
        <g
           id="use21"
           transform="translate(62.832249,10.513)">
          <path
             d="m 2.921875,-8.296875 -1.5625,1.625 0.1875,0.1875 1.375,-1.234375 1.375,1.234375 0.1875,-0.1875 z m 0,0"
             id="path38" />
        </g>
      </g>
      <g
         fill="#000000"
         fill-opacity="1"
         id="g31"
         transform="matrix(0.352778,0,0,0.352778,-0.873365,-0.704629)">
        <g
           id="use22"
           transform="translate(62.259998,10.513)">
          <path
             d="M 2.46875,-3.5 C 2.484375,-3.578125 2.78125,-4.171875 3.234375,-4.546875 3.53125,-4.84375 3.9375,-5.03125 4.40625,-5.03125 c 0.484375,0 0.65625,0.359375 0.65625,0.828125 0,0.6875 -0.5,2.046875 -0.734375,2.703125 -0.109375,0.28125 -0.171875,0.4375 -0.171875,0.65625 0,0.53125 0.375,0.96875 0.953125,0.96875 1.109375,0 1.53125,-1.765625 1.53125,-1.828125 0,-0.0625 -0.046875,-0.109375 -0.125,-0.109375 -0.109375,0 -0.125,0.03125 -0.1875,0.234375 C 6.0625,-0.59375 5.609375,-0.125 5.140625,-0.125 c -0.125,0 -0.3125,0 -0.3125,-0.390625 0,-0.296875 0.125,-0.65625 0.203125,-0.828125 C 5.265625,-2 5.765625,-3.328125 5.765625,-4.015625 c 0,-0.71875 -0.40625,-1.25 -1.3125,-1.25 -1.078125,0 -1.625,0.75 -1.84375,1.046875 -0.046875,-0.6875 -0.53125,-1.046875 -1.0625,-1.046875 -0.375,0 -0.640625,0.21875 -0.84375,0.625 -0.21875,0.4375 -0.375,1.15625 -0.375,1.203125 0,0.046875 0.046875,0.109375 0.125,0.109375 0.09375,0 0.109375,-0.015625 0.1875,-0.296875 0.1875,-0.71875 0.40625,-1.40625 0.875,-1.40625 0.28125,0 0.375,0.1875 0.375,0.546875 0,0.265625 -0.125,0.734375 -0.203125,1.109375 l -0.34375,1.28125 c -0.046875,0.234375 -0.171875,0.765625 -0.234375,0.984375 -0.078125,0.3125 -0.21875,0.875 -0.21875,0.9375 0,0.15625 0.140625,0.296875 0.3125,0.296875 0.140625,0 0.3125,-0.078125 0.40625,-0.25 C 1.640625,-0.1875 1.75,-0.609375 1.8125,-0.84375 l 0.25,-1.078125 z m 0,0"
             id="path39" />
        </g>
      </g>
      <g
         fill="#000000"
         fill-opacity="1"
         id="g32"
         transform="matrix(0.352778,0,0,0.352778,-0.873365,-0.704629)">
        <g
           id="use23"
           transform="translate(69.248001,12.307)">
          <path
             d="m 4.125,-3 c 0.03125,-0.109375 0.03125,-0.125 0.03125,-0.1875 0,-0.203125 -0.15625,-0.25 -0.25,-0.25 -0.046875,0 -0.21875,0.015625 -0.328125,0.21875 -0.015625,0.046875 -0.09375,0.328125 -0.125,0.5 L 2.96875,-0.8125 c 0,0.03125 -0.34375,0.671875 -0.921875,0.671875 -0.390625,0 -0.53125,-0.296875 -0.53125,-0.640625 0,-0.46875 0.265625,-1.171875 0.453125,-1.640625 C 2.046875,-2.625 2.078125,-2.6875 2.078125,-2.84375 c 0,-0.4375 -0.359375,-0.671875 -0.71875,-0.671875 -0.796875,0 -1.125,1.125 -1.125,1.21875 0,0.078125 0.0625,0.109375 0.125,0.109375 0.109375,0 0.109375,-0.046875 0.140625,-0.125 0.203125,-0.703125 0.546875,-0.984375 0.828125,-0.984375 0.125,0 0.1875,0.078125 0.1875,0.265625 0,0.171875 -0.0625,0.359375 -0.109375,0.5 -0.328125,0.84375 -0.46875,1.25 -0.46875,1.625 0,0.78125 0.59375,0.984375 1.0625,0.984375 0.375,0 0.640625,-0.171875 0.84375,-0.34375 -0.125,0.4375 -0.203125,0.75 -0.5,1.140625 C 2.078125,1.1875 1.765625,1.40625 1.40625,1.40625 1.265625,1.40625 0.96875,1.375 0.8125,1.140625 1.234375,1.109375 1.265625,0.75 1.265625,0.703125 c 0,-0.1875 -0.15625,-0.296875 -0.3125,-0.296875 C 0.765625,0.40625 0.5,0.546875 0.5,0.9375 0.5,1.3125 0.84375,1.625 1.40625,1.625 2.21875,1.625 3.125,0.96875 3.375,0.015625 Z m 0,0"
             id="path40" />
        </g>
      </g>
      <g
         fill="#000000"
         fill-opacity="1"
         id="g33"
         transform="matrix(0.352778,0,0,0.352778,-0.873365,-0.704629)">
        <g
           id="use24"
           transform="translate(76.874001,10.513)">
          <path
             d="M 4.765625,-2.765625 H 8.0625 c 0.171875,0 0.390625,0 0.390625,-0.203125 0,-0.234375 -0.203125,-0.234375 -0.390625,-0.234375 H 4.765625 V -6.5 c 0,-0.171875 0,-0.390625 -0.21875,-0.390625 -0.21875,0 -0.21875,0.203125 -0.21875,0.390625 v 3.296875 H 1.03125 c -0.171875,0 -0.390625,0 -0.390625,0.21875 0,0.21875 0.203125,0.21875 0.390625,0.21875 H 4.328125 V 0.53125 c 0,0.171875 0,0.390625 0.21875,0.390625 0.21875,0 0.21875,-0.203125 0.21875,-0.390625 z m 0,0"
             id="path41" />
        </g>
      </g>
      <g
         fill="#000000"
         fill-opacity="1"
         id="g34"
         transform="matrix(0.352778,0,0,0.352778,-0.873365,-0.704629)">
        <g
           id="use25"
           transform="translate(88.633133,10.513)">
          <path
             d="m 4.3125,-7.78125 c 0,-0.234375 0,-0.28125 -0.171875,-0.28125 -0.09375,0 -0.125,0 -0.21875,0.140625 L 0.328125,-2.34375 V -2 H 3.46875 v 1.09375 c 0,0.4375 -0.03125,0.5625 -0.90625,0.5625 H 2.328125 V 0 c 0.28125,-0.03125 1.21875,-0.03125 1.5625,-0.03125 0.328125,0 1.28125,0 1.5625,0.03125 V -0.34375 H 5.21875 c -0.875,0 -0.90625,-0.125 -0.90625,-0.5625 V -2 H 5.515625 V -2.34375 H 4.3125 Z m -0.78125,0.9375 v 4.5 H 0.625 Z m 0,0"
             id="path42" />
        </g>
      </g>
      <g
         fill="#000000"
         fill-opacity="1"
         id="g35"
         transform="matrix(0.352778,0,0,0.352778,-0.873365,-0.704629)">
        <g
           id="use26"
           transform="translate(95.060249,10.513)">
          <path
             d="m 2.921875,-8.296875 -1.5625,1.625 0.1875,0.1875 1.375,-1.234375 1.375,1.234375 0.1875,-0.1875 z m 0,0"
             id="path43" />
        </g>
      </g>
      <g
         fill="#000000"
         fill-opacity="1"
         id="g36"
         transform="matrix(0.352778,0,0,0.352778,-0.873365,-0.704629)">
        <g
           id="use27"
           transform="translate(94.488998,10.513)">
          <path
             d="M 2.46875,-3.5 C 2.484375,-3.578125 2.78125,-4.171875 3.234375,-4.546875 3.53125,-4.84375 3.9375,-5.03125 4.40625,-5.03125 c 0.484375,0 0.65625,0.359375 0.65625,0.828125 0,0.6875 -0.5,2.046875 -0.734375,2.703125 -0.109375,0.28125 -0.171875,0.4375 -0.171875,0.65625 0,0.53125 0.375,0.96875 0.953125,0.96875 1.109375,0 1.53125,-1.765625 1.53125,-1.828125 0,-0.0625 -0.046875,-0.109375 -0.125,-0.109375 -0.109375,0 -0.125,0.03125 -0.1875,0.234375 C 6.0625,-0.59375 5.609375,-0.125 5.140625,-0.125 c -0.125,0 -0.3125,0 -0.3125,-0.390625 0,-0.296875 0.125,-0.65625 0.203125,-0.828125 C 5.265625,-2 5.765625,-3.328125 5.765625,-4.015625 c 0,-0.71875 -0.40625,-1.25 -1.3125,-1.25 -1.078125,0 -1.625,0.75 -1.84375,1.046875 -0.046875,-0.6875 -0.53125,-1.046875 -1.0625,-1.046875 -0.375,0 -0.640625,0.21875 -0.84375,0.625 -0.21875,0.4375 -0.375,1.15625 -0.375,1.203125 0,0.046875 0.046875,0.109375 0.125,0.109375 0.09375,0 0.109375,-0.015625 0.1875,-0.296875 0.1875,-0.71875 0.40625,-1.40625 0.875,-1.40625 0.28125,0 0.375,0.1875 0.375,0.546875 0,0.265625 -0.125,0.734375 -0.203125,1.109375 l -0.34375,1.28125 c -0.046875,0.234375 -0.171875,0.765625 -0.234375,0.984375 -0.078125,0.3125 -0.21875,0.875 -0.21875,0.9375 0,0.15625 0.140625,0.296875 0.3125,0.296875 0.140625,0 0.3125,-0.078125 0.40625,-0.25 C 1.640625,-0.1875 1.75,-0.609375 1.8125,-0.84375 l 0.25,-1.078125 z m 0,0"
             id="path44" />
        </g>
      </g>
      <g
         fill="#000000"
         fill-opacity="1"
         id="g37"
         transform="matrix(0.352778,0,0,0.352778,-0.873365,-0.704629)">
        <g
           id="use28"
           transform="translate(101.476,12.307)">
          <path
             d="M 1.15625,-0.6875 C 1.4375,-0.984375 1.53125,-1.078125 2.234375,-1.65625 2.3125,-1.734375 2.875,-2.1875 3.09375,-2.40625 c 0.5,-0.484375 0.8125,-0.921875 0.8125,-1.015625 0,-0.0625 -0.0625,-0.09375 -0.125,-0.09375 -0.078125,0 -0.078125,0.015625 -0.15625,0.140625 -0.25,0.359375 -0.421875,0.421875 -0.578125,0.421875 -0.140625,0 -0.234375,-0.0625 -0.40625,-0.21875 C 2.4375,-3.375 2.28125,-3.515625 2.03125,-3.515625 c -0.640625,0 -1.046875,0.71875 -1.046875,0.9375 0,0 0,0.09375 0.125,0.09375 0.078125,0 0.109375,-0.03125 0.140625,-0.125 0.09375,-0.234375 0.4375,-0.3125 0.671875,-0.3125 0.1875,0 0.375,0.046875 0.578125,0.109375 0.328125,0.09375 0.40625,0.09375 0.578125,0.09375 -0.15625,0.171875 -0.390625,0.390625 -1,0.890625 C 1.75,-1.546875 1.40625,-1.28125 1.1875,-1.0625 c -0.578125,0.578125 -0.84375,0.96875 -0.84375,1.046875 0,0.078125 0.0625,0.09375 0.125,0.09375 C 0.546875,0.078125 0.5625,0.0625 0.609375,0 c 0.15625,-0.234375 0.40625,-0.484375 0.703125,-0.484375 0.1875,0 0.265625,0.0625 0.421875,0.21875 0.25,0.25 0.390625,0.34375 0.625,0.34375 0.828125,0 1.328125,-0.984375 1.328125,-1.234375 0,-0.078125 -0.046875,-0.109375 -0.125,-0.109375 -0.078125,0 -0.09375,0.046875 -0.125,0.140625 C 3.28125,-0.734375 2.84375,-0.515625 2.453125,-0.515625 2.296875,-0.515625 2.125,-0.5625 1.875,-0.625 1.546875,-0.703125 1.46875,-0.703125 1.34375,-0.703125 c -0.078125,0 -0.125,0 -0.1875,0.015625 z m 0,0"
             id="path45" />
        </g>
      </g>
    </g>
    <rect
       style="fill:none;stroke:none;stroke-width:0.499999;stroke-dasharray:none"
       id="rect38"
       width="70.829971"
       height="44.570415"
       x="79.80056"
       y="119.418" />
    <path
       style="fill:none;stroke:#000000;stroke-width:0.2;stroke-dasharray:none"
       d="m 117.77945,152 -1.73205,1"
       id="path46" />
    <path
       style="fill:none;stroke:#000000;stroke-width:0.2;stroke-dasharray:none"
       d="m 107.38715,128 1.78205,-1.00175"
       id="path47" />
  </g>
</svg>
