<?xml version="1.0" encoding="UTF-8" standalone="no"?>
<svg
   xmlns:dc="http://purl.org/dc/elements/1.1/"
   xmlns:cc="http://creativecommons.org/ns#"
   xmlns:rdf="http://www.w3.org/1999/02/22-rdf-syntax-ns#"
   xmlns:svg="http://www.w3.org/2000/svg"
   xmlns="http://www.w3.org/2000/svg"
   xmlns:sodipodi="http://sodipodi.sourceforge.net/DTD/sodipodi-0.dtd"
   xmlns:inkscape="http://www.inkscape.org/namespaces/inkscape"
   width="152.14642mm"
   height="96.205948mm"
   viewBox="0 0 152.14642 96.205948"
   version="1.1"
   id="svg1217"
   inkscape:version="1.0.1 (3bc2e813f5, 2020-09-07)"
   sodipodi:docname="Din_Corpo_2.svg">
  <defs
     id="defs1211">
    <marker
       style="overflow:visible"
       id="marker3226"
       refX="0"
       refY="0"
       orient="auto"
       inkscape:stockid="Arrow1Lend"
       inkscape:isstock="true">
      <path
         transform="matrix(-0.8,0,0,-0.8,-10,0)"
         style="fill:#000000;fill-opacity:1;fill-rule:evenodd;stroke:#000000;stroke-width:1pt;stroke-opacity:1"
         d="M 0,0 5,-5 -12.5,0 5,5 Z"
         id="path3224" />
    </marker>
    <marker
       style="overflow:visible"
       id="marker3216"
       refX="0"
       refY="0"
       orient="auto"
       inkscape:stockid="Arrow1Lend"
       inkscape:isstock="true">
      <path
         transform="matrix(-0.8,0,0,-0.8,-10,0)"
         style="fill:#000000;fill-opacity:1;fill-rule:evenodd;stroke:#000000;stroke-width:1pt;stroke-opacity:1"
         d="M 0,0 5,-5 -12.5,0 5,5 Z"
         id="path3214" />
    </marker>
    <marker
       style="overflow:visible"
       id="Arrow1Lstart"
       refX="0"
       refY="0"
       orient="auto"
       inkscape:stockid="Arrow1Lstart"
       inkscape:isstock="true">
      <path
         transform="matrix(0.8,0,0,0.8,10,0)"
         style="fill:#000000;fill-opacity:1;fill-rule:evenodd;stroke:#000000;stroke-width:1pt;stroke-opacity:1"
         d="M 0,0 5,-5 -12.5,0 5,5 Z"
         id="path2806" />
    </marker>
  </defs>
  <sodipodi:namedview
     id="base"
     pagecolor="#ffffff"
     bordercolor="#666666"
     borderopacity="1.0"
     inkscape:pageopacity="0.0"
     inkscape:pageshadow="2"
     inkscape:zoom="1.4"
     inkscape:cx="265.58599"
     inkscape:cy="175.43011"
     inkscape:document-units="mm"
     inkscape:current-layer="layer2"
     inkscape:document-rotation="0"
     showgrid="false"
     showguides="true"
     inkscape:guide-bbox="true"
     inkscape:snap-global="false"
     inkscape:window-width="1920"
     inkscape:window-height="1017"
     inkscape:window-x="-8"
     inkscape:window-y="-8"
     inkscape:window-maximized="1">
    <sodipodi:guide
       position="88.889322,56.621346"
       orientation="1,0"
       id="guide2752" />
    <sodipodi:guide
       position="119.37355,57.209256"
       orientation="1,0"
       id="guide2802" />
  </sodipodi:namedview>
  <metadata
     id="metadata1214">
    <rdf:RDF>
      <cc:Work
         rdf:about="">
        <dc:format>image/svg+xml</dc:format>
        <dc:type
           rdf:resource="http://purl.org/dc/dcmitype/StillImage" />
        <dc:title />
      </cc:Work>
    </rdf:RDF>
  </metadata>
  <g
     inkscape:groupmode="layer"
     id="layer2"
     inkscape:label="fundo"
     transform="translate(26.180357,16.541963)">
    <rect
       style="fill:#ffffff;stroke:#ffffff;stroke-width:0.2"
       id="rect50"
       width="151.94643"
       height="96.005951"
       x="-26.080357"
       y="-16.441963"
       ry="7.1815476" />
  </g>
  <g
     inkscape:label="Layer 1"
     inkscape:groupmode="layer"
     id="layer1"
     transform="translate(-25.769293,-52.757018)"
     sodipodi:insensitive="true">
    <circle
       style="fill:#ffffff;stroke:#000000;stroke-width:0.974859"
       id="path2602"
       cx="120.30408"
       cy="110.0825"
       r="24.394423" />
    <circle
       style="fill:#ffffff;stroke:#000000;stroke-width:0.974861"
       id="circle2604"
       cx="120.30408"
       cy="110.0825"
       r="4.0466838" />
    <g
       transform="matrix(0,-1.3926562,1.5258167,0,-137.45359,207.71696)"
       id="g6265"
       style="stroke-width:0.955368">
      <path
         inkscape:export-ydpi="96"
         inkscape:export-xdpi="96"
         style="fill:#cccccc;fill-opacity:1;stroke:#000000;stroke-width:0.565556;stroke-miterlimit:4;stroke-dasharray:none"
         d="m 84.559426,162.90993 a 1.2824262,0.80917558 0 0 0 -1.28234,-0.80928 1.2824262,0.80917558 0 0 0 -1.28289,0.80928 1.2824262,0.80917558 0 0 0 0.0496,0.22126 v 5.72229 a 1.2824262,0.80917558 0 0 0 -0.0496,0.21913 1.2824262,0.80917558 0 0 0 1.28289,0.80928 1.2824262,0.80917558 0 0 0 1.28234,-0.80928 1.2824262,0.80917558 0 0 0 -0.0205,-0.14231 h 0.0205 z"
         id="path1619"
         inkscape:connector-curvature="0" />
      <path
         inkscape:export-ydpi="96"
         inkscape:export-xdpi="96"
         style="fill:#cccccc;stroke:#000000;stroke-width:0.668758;stroke-linecap:butt;stroke-linejoin:miter;stroke-miterlimit:4;stroke-dasharray:none;stroke-opacity:1"
         d="m 82.920936,123.439 c 5.5486,0.77136 9.85293,2.19095 15.00276,4.31568 0.65086,-0.53764 1.21248,-0.40761 0.77069,-1.17701 -4.49535,-2.44153 -9.24121,-4.00901 -15.10552,-5.05676 -0.80901,0.28401 -0.80635,1.05991 -0.66793,1.91809 z"
         id="path1606"
         inkscape:connector-curvature="0"
         sodipodi:nodetypes="ccccc" />
      <path
         sodipodi:nodetypes="ccccc"
         inkscape:connector-curvature="0"
         id="path823"
         d="m 82.920936,153.63755 c 5.5486,0.77137 9.85293,2.19095 15.00276,4.31566 0.65086,-0.53763 1.21248,-0.4076 0.77069,-1.177 -4.49535,-2.44152 -9.24121,-4.00898 -15.10552,-5.05673 -0.80901,0.284 -0.80635,1.05991 -0.66793,1.91807 z"
         style="fill:#cccccc;stroke:#000000;stroke-width:0.668758;stroke-linecap:butt;stroke-linejoin:miter;stroke-miterlimit:4;stroke-dasharray:none;stroke-opacity:1" />
      <path
         style="fill:#cccccc;stroke:#000000;stroke-width:0.668758;stroke-linecap:butt;stroke-linejoin:miter;stroke-miterlimit:4;stroke-dasharray:none;stroke-opacity:1"
         d="m 82.920936,143.42534 c 5.5486,0.77136 9.85293,2.19095 15.00276,4.31566 0.65086,-0.53763 1.21248,-0.40761 0.77069,-1.177 -4.49535,-2.44152 -9.24121,-4.00898 -15.10552,-5.05673 -0.80901,0.284 -0.80635,1.0599 -0.66793,1.91807 z"
         id="path827"
         inkscape:connector-curvature="0"
         sodipodi:nodetypes="ccccc" />
      <path
         sodipodi:nodetypes="ccccc"
         inkscape:connector-curvature="0"
         id="path817-3"
         d="m 99.904276,147.88545 c -6.2408,0.96562 -11.54903,3.16623 -16.29035,6.09769 -1.02218,-0.27267 -1.91202,-0.62956 -1.3176,-1.93093 5.17397,-2.63742 10.63984,-4.85028 16.76948,-6.0977 0.53977,0.35972 1.219214,0.56708 0.83847,1.93094 z"
         style="fill:#ffffff;stroke:#000000;stroke-width:0.668758;stroke-linecap:butt;stroke-linejoin:miter;stroke-miterlimit:4;stroke-dasharray:none;stroke-opacity:1" />
      <path
         style="fill:#ffffff;stroke:#000000;stroke-width:0.668758;stroke-linecap:butt;stroke-linejoin:miter;stroke-miterlimit:4;stroke-dasharray:none;stroke-opacity:1"
         d="m 99.904276,158.34674 c -6.2408,0.96562 -11.54903,3.16623 -16.29035,6.09769 -1.02218,-0.27268 -1.91202,-0.62956 -1.3176,-1.93094 5.17397,-2.63741 10.63984,-4.85027 16.76948,-6.09769 0.53977,0.35972 1.219214,0.56708 0.83847,1.93094 z"
         id="path825"
         inkscape:connector-curvature="0"
         sodipodi:nodetypes="ccccc" />
      <path
         sodipodi:nodetypes="ccccc"
         inkscape:connector-curvature="0"
         id="path839-6"
         d="m 82.920936,132.964 c 5.5486,0.77137 9.85293,2.19096 15.00276,4.31568 0.65086,-0.53763 1.21248,-0.40761 0.77069,-1.177 -4.49535,-2.44154 -9.24121,-4.00901 -15.10552,-5.05676 -0.80901,0.284 -0.80635,1.05991 -0.66793,1.91808 z"
         style="fill:#cccccc;stroke:#000000;stroke-width:0.668758;stroke-linecap:butt;stroke-linejoin:miter;stroke-miterlimit:4;stroke-dasharray:none;stroke-opacity:1" />
      <path
         style="fill:#ffffff;stroke:#000000;stroke-width:0.668758;stroke-linecap:butt;stroke-linejoin:miter;stroke-miterlimit:4;stroke-dasharray:none;stroke-opacity:1"
         d="m 99.904276,137.67321 c -6.2408,0.96563 -11.54903,3.16625 -16.29035,6.09772 -1.02218,-0.27268 -1.91202,-0.62957 -1.3176,-1.93094 5.17397,-2.63743 10.63984,-4.8503 16.76948,-6.09773 0.53977,0.35973 1.219214,0.56708 0.83847,1.93095 z"
         id="path829"
         inkscape:connector-curvature="0"
         sodipodi:nodetypes="ccccc" />
      <path
         sodipodi:nodetypes="ccccc"
         inkscape:connector-curvature="0"
         id="path833"
         d="m 99.904276,127.46094 c -6.2408,0.96563 -11.54903,3.16625 -16.29035,6.09773 -1.02218,-0.27268 -1.91202,-0.62957 -1.3176,-1.93095 5.17397,-2.63743 10.63984,-4.8503 16.76948,-6.09773 0.53977,0.35973 1.219214,0.56708 0.83847,1.93095 z"
         style="fill:#ffffff;stroke:#000000;stroke-width:0.668758;stroke-linecap:butt;stroke-linejoin:miter;stroke-miterlimit:4;stroke-dasharray:none;stroke-opacity:1" />
      <path
         inkscape:connector-curvature="0"
         id="path1610"
         d="m 84.691716,116.79684 a 1.2824262,0.80917558 0 0 0 -1.28234,-0.80928 1.2824262,0.80917558 0 0 0 -1.28289,0.80928 1.2824262,0.80917558 0 0 0 0.0496,0.22126 v 5.72229 a 1.2824262,0.80917558 0 0 0 -0.0496,0.21913 1.2824262,0.80917558 0 0 0 1.28289,0.80928 1.2824262,0.80917558 0 0 0 1.28234,-0.80928 1.2824262,0.80917558 0 0 0 -0.0205,-0.14231 h 0.0205 z"
         style="fill:#ffffff;stroke:#000000;stroke-width:0.565556;stroke-miterlimit:4;stroke-dasharray:none" />
    </g>
    <g
       id="layer1-9"
       inkscape:label="Layer 1"
       transform="matrix(1.9538472,0,0,1.3926562,-110.52712,-42.122073)"
       style="stroke-width:0.844261">
      <rect
         style="fill:#ffffff;stroke:#000000;stroke-width:0.590983;stroke-miterlimit:4;stroke-dasharray:none"
         id="rect1718"
         width="16.510056"
         height="2.1250565"
         x="101.72212"
         y="108.30544" />
      <rect
         style="fill:#ffffff;stroke:#000000;stroke-width:0.684566;stroke-miterlimit:4;stroke-dasharray:none"
         id="rect1731"
         width="15.094382"
         height="2.0999031"
         x="76.874931"
         y="108.44493" />
      <rect
         y="104.7997"
         x="92.554405"
         height="9.2270832"
         width="7.2063184"
         id="rect3464"
         style="fill:#808080;stroke:#808080;stroke-width:0.590983" />
      <path
         style="fill:#ffffff;stroke:#000000;stroke-width:0.590983;stroke-miterlimit:4;stroke-dasharray:none"
         d="m 88.29373,103.05019 v 2.14922 h 11.466999 v 8.82737 H 88.29373 v 2.14922 h 13.28911 v -13.12581 z"
         id="rect1720"
         inkscape:connector-curvature="0" />
      <rect
         style="fill:#ffffff;stroke:#000000;stroke-width:0.694458;stroke-miterlimit:4;stroke-dasharray:none"
         id="rect1729"
         width="2.6107433"
         height="7.8277359"
         x="91.626671"
         y="105.74422" />
    </g>
    <path
       id="rect2606"
       style="fill:#b3b3b3;stroke:#000000;stroke-width:0.97486"
       d="m 33.458477,67.823905 v 67.042765 6.49579 h 6.505863 127.14427 v -6.49579 H 39.96434 V 67.823905 Z" />
    <path
       style="fill:none;stroke:#000000;stroke-width:0.368473px;stroke-linecap:butt;stroke-linejoin:miter;stroke-opacity:1"
       d="m 120.30308,110.15213 h 42.74444"
       id="path2798" />
    <path
       style="fill:none;stroke:#000000;stroke-width:0.368473px;stroke-linecap:butt;stroke-linejoin:miter;stroke-opacity:1"
       d="m 120.5218,91.564034 h 42.10824"
       id="path2800" />
    <path
       style="fill:none;stroke:#000000;stroke-width:0.369054;stroke-linecap:butt;stroke-linejoin:miter;stroke-miterlimit:4;stroke-dasharray:none;stroke-opacity:1;marker-start:url(#Arrow1Lstart);marker-end:url(#marker3216)"
       d="M 157.83451,91.550927 V 110.30719"
       id="path2804" />
    <path
       style="fill:none;stroke:#000000;stroke-width:0.368473px;stroke-linecap:butt;stroke-linejoin:miter;stroke-opacity:1;marker-end:url(#marker3226)"
       d="m 120.51278,110.23974 14.74182,19.3223"
       id="path3108" />
    <path
       style="fill:#b3b3b3;stroke:#000000;stroke-width:0.369052;stroke-miterlimit:4;stroke-dasharray:none"
       id="path3146"
       d="m 161.00179,98.354999 c 0.0485,0.545919 0.13662,1.087398 0.21525,1.629563 0.0752,0.519928 0.15262,1.039588 0.19702,1.563198 0.0357,0.42824 -0.0207,0.85489 -0.057,1.28085 -0.0152,0.3885 -0.0727,0.77209 -0.13272,1.15549 -0.0475,0.28161 -0.0944,0.56324 -0.14797,0.84378 -0.0227,0.12033 -0.0531,0.23919 -0.0902,0.35584 -0.0379,0.11225 -0.039,0.10222 0.17566,0.2812 0.0174,0.0145 0.38344,0.0249 0.4038,0.0258 0.28405,0.0111 0.46534,0.0163 0.75664,0.026 1.05656,0.0363 2.11374,0.0524 3.17076,0.0315 0.31079,-0.003 0.63156,-0.0294 0.93787,-0.0329 0.2753,0.0462 0.3407,-0.3431 0.0655,-0.38935 v 0 c -0.33384,-0.0382 -0.6758,0.051 -1.01106,0.0276 -1.05006,0.0207 -2.10028,0.004 -3.14988,-0.0315 -0.33364,-0.0111 -0.43583,-0.0141 -0.75408,-0.0259 -0.0774,-0.003 -0.15481,-0.006 -0.23221,-0.01 -0.0269,-10e-4 -0.0813,-0.0291 -0.0806,-0.003 0.0125,0.4766 0.0667,0.29999 0.094,0.21832 0.0416,-0.1316 0.076,-0.26558 0.10166,-0.40125 0.0543,-0.28484 0.10208,-0.57079 0.15021,-0.85675 0.0614,-0.39256 0.12005,-0.78543 0.13607,-1.18316 0.038,-0.44818 0.0958,-0.89713 0.057,-1.34767 -0.0453,-0.53135 -0.12298,-1.05878 -0.19967,-1.586387 -0.0776,-0.534641 -0.16457,-1.0686 -0.21264,-1.606918 -0.024,-0.278123 -0.41737,-0.244128 -0.39333,0.03401 z" />
    <path
       style="fill:#b3b3b3;stroke:#000000;stroke-width:0.369052;stroke-miterlimit:4;stroke-dasharray:none"
       id="path3148"
       d="m 123.30103,88.402261 c 0.0288,-0.707771 0.037,-1.416176 0.0439,-2.124438 0.004,-0.715484 0.0188,-1.430953 -0.0164,-2.14581 -0.0313,-0.573635 -0.13592,-1.138863 -0.25338,-1.700034 -0.0192,-0.107917 -0.0448,-0.212333 -0.087,-0.313144 -0.1181,-0.252968 -0.47581,-0.08601 -0.35774,0.166963 v 0 c 0.0227,0.07041 0.0498,0.152548 0.0585,0.227083 0.11336,0.540946 0.21488,1.085693 0.24547,1.638668 0.0352,0.707057 0.0192,1.414784 0.016,2.122464 -0.007,0.702866 -0.0149,1.405871 -0.0435,2.108254 -0.0142,0.278803 0.38014,0.2988 0.39429,0.02001 z" />
    <path
       style="fill:#b3b3b3;stroke:#000000;stroke-width:0.369052;stroke-miterlimit:4;stroke-dasharray:none"
       id="path3150"
       d="m 119.74344,79.598177 c 0.85418,-0.09747 1.70941,-0.215148 2.57053,-0.22635 0.24251,-0.0033 0.485,0.0086 0.72751,0.01295 1.03549,0.08708 2.03759,0.384068 2.82538,1.086147 0.11113,0.09898 0.20746,0.213283 0.31119,0.319928 0.1121,0.166848 0.27021,0.335052 0.27239,0.554791 0.004,0.420727 -0.68369,0.856207 -0.95971,1.058102 -0.96145,0.616264 -2.05987,0.949803 -3.15994,1.218395 -0.37567,0.101608 -0.76604,0.130645 -1.14409,0.21831 -0.27166,0.06427 -0.18077,0.448457 0.0909,0.384188 v 0 c 0.37781,-0.09165 0.77172,-0.111831 1.14693,-0.218998 1.15057,-0.28154 2.29789,-0.634034 3.30037,-1.284057 0.39282,-0.291334 0.87301,-0.592262 1.04553,-1.083519 0.15609,-0.444523 -0.0443,-0.78328 -0.31047,-1.123591 -0.11684,-0.11832 -0.22559,-0.245104 -0.3504,-0.354939 -0.85656,-0.753764 -1.94046,-1.078604 -3.06126,-1.169491 -0.25068,-0.0042 -0.50134,-0.01607 -0.75203,-0.01267 -0.87052,0.01184 -1.73514,0.129796 -2.59864,0.22862 -0.27728,0.03239 -0.23146,0.424526 0.0458,0.392126 z" />
    <path
       style="fill:#b3b3b3;stroke:#000000;stroke-width:0.369052;stroke-miterlimit:4;stroke-dasharray:none"
       id="path3152"
       d="m 129.57966,120.06747 c 0.72694,-0.41761 0.94831,-0.8938 1.00922,-1.70757 0.027,-0.14259 -0.0904,-0.4818 0.067,-0.59856 0.12673,-0.094 0.63548,-0.0787 0.76277,-0.0784 0.35786,0.0681 0.93763,0.0944 1.09255,0.51001 0.0223,0.0599 0.0301,0.3961 0.0312,0.42006 0.0575,0.56442 0.46257,0.83726 0.8706,1.17087 0.21776,0.17469 0.4648,-0.13328 0.24706,-0.30793 v 0 c -0.19442,-0.15253 -0.52463,-0.36388 -0.65597,-0.60777 -0.045,-0.0834 -0.045,-0.18408 -0.0674,-0.27612 -0.0125,-0.21208 -0.006,-0.43332 -0.10571,-0.63082 -0.2629,-0.51634 -0.90829,-0.60182 -1.41496,-0.67309 -0.39245,0.006 -0.83667,-0.0242 -1.12098,0.31327 -0.16457,0.19537 -0.0961,0.50534 -0.1,0.73167 -0.0384,0.64561 -0.20226,1.04423 -0.78458,1.37764 -0.25221,0.11963 -0.083,0.47636 0.16925,0.35668 z" />
    <path
       style="fill:#b3b3b3;stroke:#000000;stroke-width:0.369052;stroke-miterlimit:4;stroke-dasharray:none"
       id="path3158"
       d="m 120.31083,125.86491 c -0.55627,0.01 -1.10024,0.12952 -1.63626,0.26862 -0.68426,0.18773 -1.28315,0.55442 -1.79659,1.03676 -0.33975,0.37993 -0.54665,0.76499 -0.50208,1.28066 0.11949,0.48256 0.5537,0.77366 0.95409,1.01862 0.67829,0.35915 1.42906,0.51879 2.18106,0.63281 0.48951,0.0859 0.9743,0.0798 1.45621,-0.0355 0.0979,-0.0284 0.19353,-0.0617 0.29539,-0.0699 0.27736,-0.0316 0.23266,-0.42385 -0.0447,-0.39225 v 0 c -0.1174,0.0153 -0.2312,0.0393 -0.34345,0.0784 -0.43183,0.10557 -0.86553,0.10598 -1.30448,0.0288 -0.70055,-0.10542 -1.40069,-0.25087 -2.03513,-0.5799 -0.29299,-0.17637 -0.64235,-0.38687 -0.76641,-0.72289 -0.0514,-0.36792 0.1467,-0.68238 0.38092,-0.95223 0.46114,-0.44045 1.0069,-0.76898 1.62452,-0.94138 0.50779,-0.1323 1.02311,-0.24697 1.5503,-0.25613 0.27899,-0.01 0.26561,-0.40404 -0.0139,-0.39457 z" />
    <path
       style="fill:#b3b3b3;stroke:#000000;stroke-width:0.369052;stroke-miterlimit:4;stroke-dasharray:none"
       id="path3162"
       d="m 115.78096,99.215922 c -0.44946,0.371676 -0.89853,0.743919 -1.34654,1.117388 -0.47508,0.37894 -0.82799,0.84872 -1.06224,1.40594 -0.20795,0.52286 -0.15362,1.04048 0.0143,1.56253 0.23637,0.59543 0.72738,0.98883 1.25692,1.31468 0.63854,0.33155 1.34119,0.49588 2.05031,0.58436 0.74389,0.0811 1.44916,-0.0954 2.12614,-0.38769 0.63862,-0.30727 1.08208,-0.82881 1.42067,-1.43603 0.24041,-0.49306 0.3301,-1.02891 0.29186,-1.57248 -0.0862,-0.57875 -0.48853,-0.94609 -0.93957,-1.27038 -0.58099,-0.37644 -1.21627,-0.65085 -1.86723,-0.87945 -0.79316,-0.257284 -1.6172,-0.365166 -2.44818,-0.33813 -0.57985,0.10548 -0.29721,0.01295 -0.84484,0.286919 -0.24731,0.129517 -0.0642,0.479251 0.18314,0.34974 v 0 c 0.41699,-0.231611 0.19266,-0.148745 0.67537,-0.242106 0.7818,-0.02888 1.55726,0.07703 2.30393,0.316157 0.61608,0.21543 1.21704,0.47467 1.76823,0.82804 0.35451,0.2517 0.69543,0.52661 0.77553,0.97946 0.0395,0.46547 -0.0444,0.92709 -0.24364,1.35099 -0.29248,0.53251 -0.67616,0.99279 -1.23251,1.26515 -0.61096,0.26692 -1.24757,0.42964 -1.92056,0.35799 -0.6536,-0.0797 -1.30143,-0.23031 -1.89263,-0.52931 -0.44976,-0.27332 -0.87857,-0.60005 -1.08766,-1.10049 -0.14321,-0.43075 -0.19594,-0.85438 -0.0249,-1.28865 0.20444,-0.50059 0.52706,-0.91487 0.95039,-1.25401 0.44627,-0.37203 0.89365,-0.742807 1.34135,-1.11312 0.21743,-0.175076 -0.0302,-0.482577 -0.2476,-0.307498 z" />
    <path
       style="fill:#b3b3b3;stroke:#000000;stroke-width:0.369052;stroke-miterlimit:4;stroke-dasharray:none"
       id="path3164"
       d="m 77.824801,66.190583 c 0.106482,-0.741045 0.175504,-1.48741 0.23485,-2.233568 0.06649,-0.915175 0.07356,-1.833091 0.09795,-2.749971 0.02617,-0.887723 0.04508,-1.775491 0.01592,-2.663283 -0.01003,-0.257445 -0.02472,-0.514652 -0.04356,-0.771584 -0.02044,-0.278412 -0.414179,-0.249497 -0.393732,0.02893 v 0 c 0.01849,0.251635 0.03287,0.503546 0.04271,0.755681 0.02915,0.879955 0.0097,1.759892 -0.01599,2.639778 -0.0242,0.909945 -0.03117,1.820919 -0.09685,2.729188 -0.05839,0.735374 -0.126467,1.470943 -0.230947,2.201332 -0.04491,0.275526 0.344739,0.339039 0.389648,0.06352 z" />
    <path
       style="fill:#b3b3b3;stroke:#000000;stroke-width:0.369052;stroke-miterlimit:4;stroke-dasharray:none"
       id="path3170"
       d="m 78.445314,62.192803 c 0.692535,0.438815 1.419563,0.820023 2.138452,1.213232 0.707243,0.391132 1.426965,0.758902 2.12998,1.157626 0.512866,0.304614 1.004749,0.642751 1.499945,0.974868 0.09229,0.0702 0.195453,0.124462 0.289724,0.191735 0.05882,0.04199 0.08423,0.104825 -0.02664,-0.07146 0.01831,0.278559 0.412264,0.252649 0.393944,-0.0259 v 0 c -0.02395,-0.05607 -0.03873,-0.117025 -0.07189,-0.16819 -0.07848,-0.121105 -0.27678,-0.145569 -0.365254,-0.254051 -0.503379,-0.3376 -1.003431,-0.681279 -1.525098,-0.990406 -0.70482,-0.399635 -1.426166,-0.768636 -2.135274,-1.160574 -0.70723,-0.386834 -1.422335,-0.761989 -2.104457,-1.192339 -0.230145,-0.158003 -0.453591,0.167474 -0.223446,0.325472 z" />
    <path
       style="fill:#b3b3b3;stroke:#000000;stroke-width:0.369052;stroke-miterlimit:4;stroke-dasharray:none"
       id="path3172"
       d="m 81.208421,63.187313 c 0.705862,-0.55201 1.402988,-1.11467 2.093438,-1.685815 0.780873,-0.66138 1.568813,-1.314677 2.339762,-1.987657 0.24634,-0.216891 0.491839,-0.434725 0.736738,-0.653241 0.105104,-0.09378 0.213214,-0.176782 0.295023,-0.2914 0.132219,-0.245864 -0.215496,-0.432846 -0.347707,-0.186978 v 0 c 0.125965,-0.130868 -0.185055,0.161399 -0.209953,0.183614 -0.142589,0.127233 -0.295228,0.263042 -0.437467,0.388946 -0.09866,0.08733 -0.197509,0.174432 -0.296264,0.261649 -0.768281,0.670725 -1.553621,1.321686 -2.331774,1.980867 -0.688545,0.569598 -1.383792,1.130672 -2.08772,1.681175 -0.218384,0.173894 0.02752,0.482734 0.245924,0.30884 z" />
    <path
       style="fill:#b3b3b3;stroke:#000000;stroke-width:0.369052;stroke-miterlimit:4;stroke-dasharray:none"
       id="path3176"
       d="m 78.80864,122.92231 c -0.764395,-0.0678 -1.518439,0.008 -2.263689,0.17755 -0.87334,0.23008 -1.63054,0.69928 -2.329936,1.25544 -0.396197,0.34604 -0.815844,0.72438 -0.986812,1.24004 -0.02783,0.084 -0.04001,0.17228 -0.06002,0.25842 -0.06224,0.61508 0.21793,1.01186 0.636638,1.42446 0.502428,0.45117 1.111214,0.7213 1.738422,0.94771 0.69465,0.23434 1.419334,0.34959 2.14714,0.41438 0.739626,0.0422 1.479141,-0.0305 2.209138,-0.14495 0.178195,-0.0312 0.356945,-0.0618 0.531892,-0.10849 0.269617,-0.0724 0.167262,-0.45367 -0.10236,-0.38129 v 0 c -0.161232,0.0437 -0.326632,0.07 -0.490796,0.0999 -0.698221,0.10988 -1.405523,0.18039 -2.113066,0.14171 -0.694105,-0.0611 -1.385299,-0.17042 -2.048132,-0.39255 -0.574403,-0.20656 -1.133926,-0.44906 -1.596714,-0.85903 -0.303858,-0.29217 -0.563389,-0.61024 -0.526516,-1.05725 0.109338,-0.54404 0.49038,-0.92889 0.907193,-1.27416 0.651897,-0.52048 1.357011,-0.96135 2.171534,-1.17926 0.708504,-0.16223 1.425517,-0.23307 2.15253,-0.1684 0.278662,0.0167 0.302212,-0.37744 0.02355,-0.39409 z" />
  </g>
</svg>
