<?xml version="1.0" encoding="UTF-8" standalone="no"?>
<svg
   xmlns:dc="http://purl.org/dc/elements/1.1/"
   xmlns:cc="http://creativecommons.org/ns#"
   xmlns:rdf="http://www.w3.org/1999/02/22-rdf-syntax-ns#"
   xmlns:svg="http://www.w3.org/2000/svg"
   xmlns="http://www.w3.org/2000/svg"
   xmlns:sodipodi="http://sodipodi.sourceforge.net/DTD/sodipodi-0.dtd"
   xmlns:inkscape="http://www.inkscape.org/namespaces/inkscape"
   width="87.972816mm"
   height="69.353561mm"
   viewBox="0 0 87.972816 69.353562"
   version="1.1"
   id="svg1217"
   inkscape:version="1.0.1 (3bc2e813f5, 2020-09-07)"
   sodipodi:docname="Din_Corpo_3.svg">
  <defs
     id="defs1211">
    <marker
       style="overflow:visible"
       id="marker3226"
       refX="0"
       refY="0"
       orient="auto"
       inkscape:stockid="Arrow1Lend"
       inkscape:isstock="true">
      <path
         transform="matrix(-0.8,0,0,-0.8,-10,0)"
         style="fill:#000000;fill-opacity:1;fill-rule:evenodd;stroke:#000000;stroke-width:1pt;stroke-opacity:1"
         d="M 0,0 5,-5 -12.5,0 5,5 Z"
         id="path3224" />
    </marker>
    <marker
       style="overflow:visible"
       id="marker3216"
       refX="0"
       refY="0"
       orient="auto"
       inkscape:stockid="Arrow1Lend"
       inkscape:isstock="true">
      <path
         transform="matrix(-0.8,0,0,-0.8,-10,0)"
         style="fill:#000000;fill-opacity:1;fill-rule:evenodd;stroke:#000000;stroke-width:1pt;stroke-opacity:1"
         d="M 0,0 5,-5 -12.5,0 5,5 Z"
         id="path3214" />
    </marker>
    <marker
       style="overflow:visible"
       id="Arrow1Lstart"
       refX="0"
       refY="0"
       orient="auto"
       inkscape:stockid="Arrow1Lstart"
       inkscape:isstock="true">
      <path
         transform="matrix(0.8,0,0,0.8,10,0)"
         style="fill:#000000;fill-opacity:1;fill-rule:evenodd;stroke:#000000;stroke-width:1pt;stroke-opacity:1"
         d="M 0,0 5,-5 -12.5,0 5,5 Z"
         id="path2806" />
    </marker>
  </defs>
  <sodipodi:namedview
     id="base"
     pagecolor="#ffffff"
     bordercolor="#666666"
     borderopacity="1.0"
     inkscape:pageopacity="0.0"
     inkscape:pageshadow="2"
     inkscape:zoom="1.979899"
     inkscape:cx="182.08"
     inkscape:cy="148.496"
     inkscape:document-units="mm"
     inkscape:current-layer="layer1"
     inkscape:document-rotation="0"
     showgrid="false"
     showguides="true"
     inkscape:guide-bbox="true"
     inkscape:snap-global="false"
     inkscape:window-width="1920"
     inkscape:window-height="1017"
     inkscape:window-x="-8"
     inkscape:window-y="-8"
     inkscape:window-maximized="1"
     inkscape:pagecheckerboard="0">
    <sodipodi:guide
       position="44.204944,47.254999"
       orientation="1,0"
       id="guide2752" />
    <sodipodi:guide
       position="74.689175,47.842909"
       orientation="1,0"
       id="guide2802" />
  </sodipodi:namedview>
  <metadata
     id="metadata1214">
    <rdf:RDF>
      <cc:Work
         rdf:about="">
        <dc:format>image/svg+xml</dc:format>
        <dc:type
           rdf:resource="http://purl.org/dc/dcmitype/StillImage" />
        <dc:title />
      </cc:Work>
    </rdf:RDF>
  </metadata>
  <g
     inkscape:groupmode="layer"
     id="layer2"
     inkscape:label="fundo"
     transform="translate(17.75144,14.421889)"
     sodipodi:insensitive="true">
    <rect
       style="fill:#ffffff;stroke:#ffffff;stroke-width:0.681186;stroke-linejoin:bevel;stroke-miterlimit:4;stroke-dasharray:none"
       id="rect3262"
       width="87.291634"
       height="68.672379"
       x="-17.410847"
       y="-14.081296" />
    <text
       xml:space="preserve"
       style="font-size:7.7611px;line-height:1.25;font-family:sans-serif;-inkscape-font-specification:sans-serif;stroke-width:0.264583"
       x="10.819967"
       y="5.9865012"
       id="text5340"><tspan
         sodipodi:role="line"
         id="tspan5338"
         style="stroke-width:0.264583"
         x="10.819967"
         y="5.9865012" /></text>
  </g>
  <g
     inkscape:label="Layer 1"
     inkscape:groupmode="layer"
     id="layer1"
     transform="translate(-70.453676,-70.243054)">
    <path
       id="path2602"
       style="fill:#ffffff;stroke:#000000;stroke-width:1.04533"
       d="m 115.12242,81.782511 a 26.157679,26.157679 0 0 0 -26.158108,26.157339 26.157679,26.157679 0 0 0 26.158108,26.15811 26.157679,26.157679 0 0 0 26.15735,-26.15811 26.157679,26.157679 0 0 0 -26.15735,-26.157339 z m 0,21.818099 a 4.3391826,4.3391826 0 0 1 4.33923,4.33924 4.3391826,4.3391826 0 0 1 -4.33923,4.33923 4.3391826,4.3391826 0 0 1 -4.33924,-4.33923 4.3391826,4.3391826 0 0 1 4.33924,-4.33924 z" />
    <path
       style="fill:#b3b3b3;stroke:#000000;stroke-width:0.395728;stroke-miterlimit:4;stroke-dasharray:none"
       id="path3148"
       d="m 118.33573,84.692753 c 0.0309,-0.75893 0.0397,-1.518539 0.047,-2.277995 0.004,-0.7672 0.0201,-1.534384 -0.0177,-2.300912 -0.0336,-0.615098 -0.14575,-1.22118 -0.2717,-1.822914 -0.0207,-0.115717 -0.0481,-0.22768 -0.0933,-0.335778 -0.12663,-0.271253 -0.51021,-0.09223 -0.3836,0.179031 v 0 c 0.0244,0.0755 0.0535,0.163575 0.0627,0.243498 0.12156,0.580044 0.23041,1.164167 0.26321,1.757112 0.0378,0.758164 0.0207,1.517046 0.0171,2.275877 -0.007,0.753671 -0.016,1.50749 -0.0466,2.260642 -0.0152,0.298955 0.40761,0.320398 0.42278,0.02146 z" />
    <path
       style="fill:#b3b3b3;stroke:#000000;stroke-width:0.395728;stroke-miterlimit:4;stroke-dasharray:none"
       id="path3150"
       d="m 114.521,75.2523 c 0.91591,-0.104517 1.83295,-0.2307 2.75632,-0.242711 0.26005,-0.0036 0.52006,0.0093 0.78009,0.01389 1.11035,0.09338 2.18487,0.411829 3.02961,1.164654 0.11916,0.10613 0.22245,0.2287 0.33368,0.343052 0.1202,0.178909 0.28975,0.35927 0.29207,0.594893 0.004,0.451137 -0.7331,0.918095 -1.02907,1.134583 -1.03094,0.660809 -2.20875,1.018456 -3.38834,1.306461 -0.40283,0.108953 -0.82142,0.140088 -1.2268,0.23409 -0.29128,0.06892 -0.19382,0.480873 0.0975,0.411957 v 0 c 0.40512,-0.09827 0.82751,-0.119912 1.22984,-0.234827 1.23373,-0.30189 2.46397,-0.679862 3.53892,-1.37687 0.42121,-0.312392 0.9361,-0.635071 1.1211,-1.161836 0.16737,-0.476654 -0.0475,-0.839897 -0.33291,-1.204806 -0.12529,-0.126872 -0.2419,-0.262821 -0.37573,-0.380594 -0.91847,-0.808247 -2.08071,-1.156566 -3.28253,-1.254023 -0.26879,-0.0044 -0.53758,-0.01723 -0.80639,-0.01359 -0.93345,0.01269 -1.86056,0.139178 -2.78647,0.245144 -0.29732,0.03474 -0.24819,0.455212 0.0491,0.42047 z" />
    <path
       style="fill:#b3b3b3;stroke:#000000;stroke-width:0.395728;stroke-miterlimit:4;stroke-dasharray:none"
       id="path3158"
       d="m 110.82969,127.09533 c -0.59647,0.0104 -1.17977,0.13888 -1.75453,0.28803 -0.73372,0.2013 -1.3759,0.59449 -1.92644,1.1117 -0.36431,0.4074 -0.58618,0.82028 -0.53838,1.37322 0.12814,0.51745 0.59372,0.82959 1.02305,1.09225 0.72732,0.38511 1.53235,0.55629 2.33871,0.67855 0.52489,0.0921 1.04473,0.0856 1.56147,-0.0381 0.10497,-0.0305 0.20752,-0.0662 0.31675,-0.075 0.29741,-0.0339 0.24946,-0.4545 -0.0479,-0.42062 v 0 c -0.12589,0.0164 -0.24791,0.0421 -0.36827,0.084 -0.46304,0.11321 -0.92809,0.11365 -1.39878,0.0309 -0.75118,-0.11305 -1.50193,-0.269 -2.18223,-0.62182 -0.31417,-0.18911 -0.68878,-0.41483 -0.8218,-0.77514 -0.0551,-0.39452 0.15731,-0.73171 0.40845,-1.02105 0.49447,-0.47229 1.07968,-0.82457 1.74195,-1.00943 0.54448,-0.14186 1.09706,-0.26483 1.66236,-0.27465 0.29915,-0.0104 0.2848,-0.43324 -0.015,-0.42309 z" />
    <path
       style="fill:#ff0000;stroke:#ff0000;stroke-width:0.843726;stroke-linecap:butt;stroke-linejoin:miter;stroke-miterlimit:4;stroke-dasharray:none;stroke-opacity:1"
       d="m 114.65753,134.00318 h 28.26616"
       id="path2377" />
    <path
       style="fill:#ff0000;stroke:#ff0000;stroke-width:0.395107px;stroke-linecap:butt;stroke-linejoin:miter;stroke-opacity:1"
       d="m 142.46437,133.89503 0.001,-3.5437 6.97929,3.47438 -7.20516,3.54586 z"
       id="path2445" />
    <path
       style="fill:none;stroke:#ff0000;stroke-width:0.843726;stroke-linecap:butt;stroke-linejoin:miter;stroke-miterlimit:4;stroke-dasharray:none;stroke-opacity:1"
       d="M 115.02237,134.02368 V 117.19214"
       id="path2626" />
    <path
       style="fill:#ff0000;stroke:#ff0000;stroke-width:0.395107px;stroke-linecap:butt;stroke-linejoin:miter;stroke-opacity:1"
       d="m 115.02378,120.70341 -3.47649,0.0659 3.52872,-6.43155 3.40343,6.50338 z"
       id="path2628"
       sodipodi:nodetypes="ccccc" />
    <path
       style="fill:#ff0000;stroke:#ff0000;stroke-width:0.843726;stroke-linecap:butt;stroke-linejoin:miter;stroke-miterlimit:4;stroke-dasharray:none;stroke-opacity:1"
       d="M 115.24369,108.08408 H 82.652058"
       id="path2954" />
    <path
       style="fill:#ff0000;stroke:#ff0000;stroke-width:0.395107px;stroke-linecap:butt;stroke-linejoin:miter;stroke-opacity:1"
       d="m 82.996761,107.92909 v -4.02166 l -6.988366,4.15414 6.843786,3.95047 z"
       id="path3022"
       sodipodi:nodetypes="ccccc" />
    <path
       style="fill:#ff0000;stroke:#ff0000;stroke-width:0.843726;stroke-linecap:butt;stroke-linejoin:miter;stroke-miterlimit:4;stroke-dasharray:none;stroke-opacity:1"
       d="M 115.24369,88.328642 H 82.652058"
       id="path3235" />
    <path
       style="fill:#ff0000;stroke:#ff0000;stroke-width:0.395107px;stroke-linecap:butt;stroke-linejoin:miter;stroke-opacity:1"
       d="m 82.996761,88.17365 v -4.021635 l -6.988366,4.154122 6.843786,3.950449 z"
       id="path3237"
       sodipodi:nodetypes="ccccc" />
    <text
       xml:space="preserve"
       style="font-size:11.5898px;line-height:1.25;font-family:sans-serif;-inkscape-font-specification:sans-serif;stroke-width:0.395107"
       x="82.660637"
       y="103.0664"
       id="text10474"><tspan
         sodipodi:role="line"
         id="tspan10472"
         style="stroke-width:0.395107"
         x="82.660637"
         y="103.0664">F<tspan
   style="font-size:7.53337px;baseline-shift:sub;stroke-width:0.395107"
   id="tspan10940">am</tspan></tspan></text>
    <text
       xml:space="preserve"
       style="font-size:11.5898px;line-height:1.25;font-family:sans-serif;-inkscape-font-specification:sans-serif;stroke-width:0.395107"
       x="116.17484"
       y="121.10642"
       id="text12146"><tspan
         sodipodi:role="line"
         id="tspan12144"
         style="stroke-width:0.395107"
         x="116.17484"
         y="121.10642">Nor</tspan></text>
    <text
       xml:space="preserve"
       style="font-size:11.5898px;line-height:1.25;font-family:sans-serif;-inkscape-font-specification:sans-serif;stroke-width:0.395107"
       x="137.76845"
       y="127.23151"
       id="text14210"><tspan
         sodipodi:role="line"
         id="tspan14208"
         style="stroke-width:0.395107"
         x="137.76845"
         y="127.23151">F<tspan
   style="font-size:7.53337px;baseline-shift:sub;stroke-width:0.395107"
   id="tspan15708">at</tspan></tspan></text>
    <text
       xml:space="preserve"
       style="font-size:11.5898px;line-height:1.25;font-family:sans-serif;-inkscape-font-specification:sans-serif;stroke-width:0.395107"
       x="81.530594"
       y="81.743385"
       id="text16606"><tspan
         sodipodi:role="line"
         id="tspan16604"
         style="stroke-width:0.395107"
         x="81.530594"
         y="81.743385">F<tspan
   style="font-size:7.53337px;baseline-shift:sub;stroke-width:0.395107"
   id="tspan17038">mola</tspan></tspan></text>
    <path
       style="fill:none;stroke:#ff0000;stroke-width:0.791893;stroke-linecap:butt;stroke-linejoin:miter;stroke-miterlimit:4;stroke-dasharray:none;stroke-opacity:1"
       d="M 115.02237,90.132571 V 104.95959"
       id="path92" />
    <path
       style="fill:#ff0000;stroke:#ff0000;stroke-width:0.395107px;stroke-linecap:butt;stroke-linejoin:miter;stroke-opacity:1"
       d="m 115.02378,101.44832 -3.47649,-0.0659 3.52872,6.43155 3.40343,-6.50338 z"
       id="path94"
       sodipodi:nodetypes="ccccc" />
    <path
       style="fill:#b3b3b3;stroke:#000000;stroke-width:0.395728;stroke-miterlimit:4;stroke-dasharray:none"
       id="path3162"
       d="m 107.06487,95.619864 c -0.48196,0.398542 -0.96348,0.797691 -1.44387,1.19815 -0.50942,0.406331 -0.88785,0.910073 -1.13902,1.507565 -0.22298,0.560652 -0.16472,1.115697 0.0154,1.675481 0.25346,0.63847 0.77996,1.0603 1.34778,1.4097 0.68468,0.35552 1.43813,0.53174 2.19851,0.6266 0.79765,0.0869 1.55391,-0.10233 2.27982,-0.41571 0.68477,-0.32948 1.16029,-0.88871 1.52335,-1.53984 0.25779,-0.528694 0.35396,-1.103278 0.31295,-1.686135 -0.0924,-0.620578 -0.52383,-1.014471 -1.00748,-1.362205 -0.62298,-0.403644 -1.30418,-0.697893 -2.0022,-0.943016 -0.85048,-0.275881 -1.73408,-0.39156 -2.62513,-0.362571 -0.62175,0.113104 -0.31869,0.01389 -0.9059,0.307659 -0.26519,0.138878 -0.0689,0.513887 0.19638,0.375019 v 0 c 0.44713,-0.248352 0.20659,-0.159496 0.72418,-0.259605 0.8383,-0.03097 1.66982,0.0826 2.47046,0.339005 0.66061,0.231002 1.30501,0.508983 1.89604,0.887898 0.38014,0.269887 0.74571,0.564668 0.83159,1.050251 0.0424,0.499112 -0.0476,0.994096 -0.26125,1.448636 -0.31363,0.571004 -0.72503,1.064564 -1.3216,1.356614 -0.65512,0.28621 -1.33775,0.46068 -2.05938,0.38386 -0.70084,-0.0854 -1.3955,-0.24696 -2.02943,-0.56757 -0.48227,-0.29308 -0.94208,-0.64343 -1.16629,-1.180034 -0.15355,-0.46189 -0.21009,-0.916142 -0.0267,-1.381803 0.21922,-0.536774 0.56516,-0.980991 1.01907,-1.344644 0.47854,-0.398926 0.95826,-0.796501 1.43831,-1.19358 0.23315,-0.187731 -0.0324,-0.51746 -0.2655,-0.329725 z" />
    <text
       xml:space="preserve"
       style="font-style:normal;font-variant:normal;font-weight:normal;font-stretch:normal;font-size:9.87777px;line-height:1.25;font-family:sans-serif;-inkscape-font-specification:sans-serif;letter-spacing:0px;word-spacing:0px;fill:#000000;fill-opacity:1;stroke:none;stroke-width:0.264583"
       x="114.68678"
       y="98.974525"
       id="text104"><tspan
         sodipodi:role="line"
         id="tspan102"
         x="114.68678"
         y="98.974525"
         style="stroke-width:0.264583">Peso</tspan></text>
  </g>
</svg>
