<?xml version="1.0" encoding="UTF-8" standalone="no"?>
<svg
   xmlns:dc="http://purl.org/dc/elements/1.1/"
   xmlns:cc="http://creativecommons.org/ns#"
   xmlns:rdf="http://www.w3.org/1999/02/22-rdf-syntax-ns#"
   xmlns:svg="http://www.w3.org/2000/svg"
   xmlns="http://www.w3.org/2000/svg"
   xmlns:sodipodi="http://sodipodi.sourceforge.net/DTD/sodipodi-0.dtd"
   xmlns:inkscape="http://www.inkscape.org/namespaces/inkscape"
   width="153.34543mm"
   height="99.089722mm"
   viewBox="0 0 153.34543 99.089721"
   version="1.1"
   id="svg1217"
   inkscape:version="1.0.1 (3bc2e813f5, 2020-09-07)"
   sodipodi:docname="Din_Corpo_2.svg">
  <defs
     id="defs1211">
    <marker
       style="overflow:visible"
       id="marker3226"
       refX="0"
       refY="0"
       orient="auto"
       inkscape:stockid="Arrow1Lend"
       inkscape:isstock="true">
      <path
         transform="matrix(-0.8,0,0,-0.8,-10,0)"
         style="fill:#000000;fill-opacity:1;fill-rule:evenodd;stroke:#000000;stroke-width:1pt;stroke-opacity:1"
         d="M 0,0 5,-5 -12.5,0 5,5 Z"
         id="path3224" />
    </marker>
    <marker
       style="overflow:visible"
       id="marker3216"
       refX="0"
       refY="0"
       orient="auto"
       inkscape:stockid="Arrow1Lend"
       inkscape:isstock="true">
      <path
         transform="matrix(-0.8,0,0,-0.8,-10,0)"
         style="fill:#000000;fill-opacity:1;fill-rule:evenodd;stroke:#000000;stroke-width:1pt;stroke-opacity:1"
         d="M 0,0 5,-5 -12.5,0 5,5 Z"
         id="path3214" />
    </marker>
    <marker
       style="overflow:visible"
       id="Arrow1Lstart"
       refX="0"
       refY="0"
       orient="auto"
       inkscape:stockid="Arrow1Lstart"
       inkscape:isstock="true">
      <path
         transform="matrix(0.8,0,0,0.8,10,0)"
         style="fill:#000000;fill-opacity:1;fill-rule:evenodd;stroke:#000000;stroke-width:1pt;stroke-opacity:1"
         d="M 0,0 5,-5 -12.5,0 5,5 Z"
         id="path2806" />
    </marker>
  </defs>
  <sodipodi:namedview
     id="base"
     pagecolor="#ffffff"
     bordercolor="#666666"
     borderopacity="1.0"
     inkscape:pageopacity="0.0"
     inkscape:pageshadow="2"
     inkscape:zoom="0.98994949"
     inkscape:cx="241.09409"
     inkscape:cy="145.64066"
     inkscape:document-units="mm"
     inkscape:current-layer="layer5"
     inkscape:document-rotation="0"
     showgrid="false"
     showguides="true"
     inkscape:guide-bbox="true"
     inkscape:snap-global="false"
     inkscape:window-width="1920"
     inkscape:window-height="1017"
     inkscape:window-x="-8"
     inkscape:window-y="-8"
     inkscape:window-maximized="1"
     inkscape:pagecheckerboard="0">
    <sodipodi:guide
       position="91.139537,57.772758"
       orientation="1,0"
       id="guide2752" />
    <sodipodi:guide
       position="121.62377,58.360668"
       orientation="1,0"
       id="guide2802" />
  </sodipodi:namedview>
  <metadata
     id="metadata1214">
    <rdf:RDF>
      <cc:Work
         rdf:about="">
        <dc:format>image/svg+xml</dc:format>
        <dc:type
           rdf:resource="http://purl.org/dc/dcmitype/StillImage" />
        <dc:title />
      </cc:Work>
    </rdf:RDF>
  </metadata>
  <g
     inkscape:groupmode="layer"
     id="layer5"
     inkscape:label="fundo"
     transform="translate(28.430569,18.274327)">
    <rect
       style="fill:#ffffff;stroke:#ffffff;stroke-width:0.205625"
       id="rect1568"
       width="153.1398"
       height="98.884094"
       x="-28.327757"
       y="-18.171515" />
  </g>
  <g
     inkscape:label="Layer 1"
     inkscape:groupmode="layer"
     id="layer1"
     transform="translate(-23.519081,-51.024654)">
    <path
       id="path2602"
       style="fill:#ffffff;stroke:#000000;stroke-width:1.02127"
       d="m 121.25753,85.024834 a 25.555849,25.555849 0 0 0 -25.556273,25.555516 25.555849,25.555849 0 0 0 25.556273,25.55627 25.555849,25.555849 0 0 0 25.55551,-25.55627 25.555849,25.555849 0 0 0 -25.55551,-25.555516 z m 0,21.316116 a 4.2393476,4.2393476 0 0 1 4.2394,4.2394 4.2393476,4.2393476 0 0 1 -4.2394,4.2394 4.2393476,4.2393476 0 0 1 -4.2394,-4.2394 4.2393476,4.2393476 0 0 1 4.2394,-4.2394 z" />
    <g
       transform="matrix(0,-1.458961,1.5984613,0,-148.77233,212.86343)"
       id="g6265"
       style="stroke-width:0.955368">
      <path
         inkscape:export-ydpi="96"
         inkscape:export-xdpi="96"
         style="fill:#cccccc;fill-opacity:1;stroke:#000000;stroke-width:0.565556;stroke-miterlimit:4;stroke-dasharray:none"
         d="m 84.559426,162.90993 a 1.2824262,0.80917558 0 0 0 -1.28234,-0.80928 1.2824262,0.80917558 0 0 0 -1.28289,0.80928 1.2824262,0.80917558 0 0 0 0.0496,0.22126 v 5.72229 a 1.2824262,0.80917558 0 0 0 -0.0496,0.21913 1.2824262,0.80917558 0 0 0 1.28289,0.80928 1.2824262,0.80917558 0 0 0 1.28234,-0.80928 1.2824262,0.80917558 0 0 0 -0.0205,-0.14231 h 0.0205 z"
         id="path1619"
         inkscape:connector-curvature="0" />
      <path
         inkscape:export-ydpi="96"
         inkscape:export-xdpi="96"
         style="fill:#cccccc;stroke:#000000;stroke-width:0.668758;stroke-linecap:butt;stroke-linejoin:miter;stroke-miterlimit:4;stroke-dasharray:none;stroke-opacity:1"
         d="m 82.920936,123.439 c 5.5486,0.77136 9.85293,2.19095 15.00276,4.31568 0.65086,-0.53764 1.21248,-0.40761 0.77069,-1.17701 -4.49535,-2.44153 -9.24121,-4.00901 -15.10552,-5.05676 -0.80901,0.28401 -0.80635,1.05991 -0.66793,1.91809 z"
         id="path1606"
         inkscape:connector-curvature="0"
         sodipodi:nodetypes="ccccc" />
      <path
         sodipodi:nodetypes="ccccc"
         inkscape:connector-curvature="0"
         id="path823"
         d="m 82.920936,153.63755 c 5.5486,0.77137 9.85293,2.19095 15.00276,4.31566 0.65086,-0.53763 1.21248,-0.4076 0.77069,-1.177 -4.49535,-2.44152 -9.24121,-4.00898 -15.10552,-5.05673 -0.80901,0.284 -0.80635,1.05991 -0.66793,1.91807 z"
         style="fill:#cccccc;stroke:#000000;stroke-width:0.668758;stroke-linecap:butt;stroke-linejoin:miter;stroke-miterlimit:4;stroke-dasharray:none;stroke-opacity:1" />
      <path
         style="fill:#cccccc;stroke:#000000;stroke-width:0.668758;stroke-linecap:butt;stroke-linejoin:miter;stroke-miterlimit:4;stroke-dasharray:none;stroke-opacity:1"
         d="m 82.920936,143.42534 c 5.5486,0.77136 9.85293,2.19095 15.00276,4.31566 0.65086,-0.53763 1.21248,-0.40761 0.77069,-1.177 -4.49535,-2.44152 -9.24121,-4.00898 -15.10552,-5.05673 -0.80901,0.284 -0.80635,1.0599 -0.66793,1.91807 z"
         id="path827"
         inkscape:connector-curvature="0"
         sodipodi:nodetypes="ccccc" />
      <path
         sodipodi:nodetypes="ccccc"
         inkscape:connector-curvature="0"
         id="path817-3"
         d="m 99.904276,147.88545 c -6.2408,0.96562 -11.54903,3.16623 -16.29035,6.09769 -1.02218,-0.27267 -1.91202,-0.62956 -1.3176,-1.93093 5.17397,-2.63742 10.63984,-4.85028 16.76948,-6.0977 0.53977,0.35972 1.219214,0.56708 0.83847,1.93094 z"
         style="fill:#ffffff;stroke:#000000;stroke-width:0.668758;stroke-linecap:butt;stroke-linejoin:miter;stroke-miterlimit:4;stroke-dasharray:none;stroke-opacity:1" />
      <path
         style="fill:#ffffff;stroke:#000000;stroke-width:0.668758;stroke-linecap:butt;stroke-linejoin:miter;stroke-miterlimit:4;stroke-dasharray:none;stroke-opacity:1"
         d="m 99.904276,158.34674 c -6.2408,0.96562 -11.54903,3.16623 -16.29035,6.09769 -1.02218,-0.27268 -1.91202,-0.62956 -1.3176,-1.93094 5.17397,-2.63741 10.63984,-4.85027 16.76948,-6.09769 0.53977,0.35972 1.219214,0.56708 0.83847,1.93094 z"
         id="path825"
         inkscape:connector-curvature="0"
         sodipodi:nodetypes="ccccc" />
      <path
         sodipodi:nodetypes="ccccc"
         inkscape:connector-curvature="0"
         id="path839-6"
         d="m 82.920936,132.964 c 5.5486,0.77137 9.85293,2.19096 15.00276,4.31568 0.65086,-0.53763 1.21248,-0.40761 0.77069,-1.177 -4.49535,-2.44154 -9.24121,-4.00901 -15.10552,-5.05676 -0.80901,0.284 -0.80635,1.05991 -0.66793,1.91808 z"
         style="fill:#cccccc;stroke:#000000;stroke-width:0.668758;stroke-linecap:butt;stroke-linejoin:miter;stroke-miterlimit:4;stroke-dasharray:none;stroke-opacity:1" />
      <path
         style="fill:#ffffff;stroke:#000000;stroke-width:0.668758;stroke-linecap:butt;stroke-linejoin:miter;stroke-miterlimit:4;stroke-dasharray:none;stroke-opacity:1"
         d="m 99.904276,137.67321 c -6.2408,0.96563 -11.54903,3.16625 -16.29035,6.09772 -1.02218,-0.27268 -1.91202,-0.62957 -1.3176,-1.93094 5.17397,-2.63743 10.63984,-4.8503 16.76948,-6.09773 0.53977,0.35973 1.219214,0.56708 0.83847,1.93095 z"
         id="path829"
         inkscape:connector-curvature="0"
         sodipodi:nodetypes="ccccc" />
      <path
         sodipodi:nodetypes="ccccc"
         inkscape:connector-curvature="0"
         id="path833"
         d="m 99.904276,127.46094 c -6.2408,0.96563 -11.54903,3.16625 -16.29035,6.09773 -1.02218,-0.27268 -1.91202,-0.62957 -1.3176,-1.93095 5.17397,-2.63743 10.63984,-4.8503 16.76948,-6.09773 0.53977,0.35973 1.219214,0.56708 0.83847,1.93095 z"
         style="fill:#ffffff;stroke:#000000;stroke-width:0.668758;stroke-linecap:butt;stroke-linejoin:miter;stroke-miterlimit:4;stroke-dasharray:none;stroke-opacity:1" />
      <path
         inkscape:connector-curvature="0"
         id="path1610"
         d="m 84.691716,116.79684 a 1.2824262,0.80917558 0 0 0 -1.28234,-0.80928 1.2824262,0.80917558 0 0 0 -1.28289,0.80928 1.2824262,0.80917558 0 0 0 0.0496,0.22126 v 5.72229 a 1.2824262,0.80917558 0 0 0 -0.0496,0.21913 1.2824262,0.80917558 0 0 0 1.28289,0.80928 1.2824262,0.80917558 0 0 0 1.28234,-0.80928 1.2824262,0.80917558 0 0 0 -0.0205,-0.14231 h 0.0205 z"
         style="fill:#ffffff;stroke:#000000;stroke-width:0.565556;stroke-miterlimit:4;stroke-dasharray:none" />
    </g>
    <g
       id="layer1-9"
       inkscape:label="Layer 1"
       transform="matrix(2.0468705,0,0,1.458961,-120.56388,-48.87052)"
       style="stroke-width:0.844261">
      <rect
         style="fill:#ffffff;stroke:#000000;stroke-width:0.590983;stroke-miterlimit:4;stroke-dasharray:none"
         id="rect1718"
         width="16.510056"
         height="2.1250565"
         x="101.72212"
         y="108.30544" />
      <rect
         style="fill:#ffffff;stroke:#000000;stroke-width:0.684566;stroke-miterlimit:4;stroke-dasharray:none"
         id="rect1731"
         width="15.094382"
         height="2.0999031"
         x="76.874931"
         y="108.44493" />
      <rect
         y="104.7997"
         x="92.554405"
         height="9.2270832"
         width="7.2063184"
         id="rect3464"
         style="fill:#808080;stroke:#808080;stroke-width:0.590983" />
      <path
         style="fill:#ffffff;stroke:#000000;stroke-width:0.590983;stroke-miterlimit:4;stroke-dasharray:none"
         d="m 88.29373,103.05019 v 2.14922 h 11.466999 v 8.82737 H 88.29373 v 2.14922 h 13.28911 v -13.12581 z"
         id="rect1720"
         inkscape:connector-curvature="0" />
      <rect
         style="fill:#ffffff;stroke:#000000;stroke-width:0.694458;stroke-miterlimit:4;stroke-dasharray:none"
         id="rect1729"
         width="2.6107433"
         height="7.8277359"
         x="91.626671"
         y="105.74422" />
    </g>
    <path
       id="rect2606"
       style="fill:#b3b3b3;stroke:#000000;stroke-width:1.02127"
       d="m 30.276915,66.310021 v 70.234699 6.80505 h 6.815609 133.197646 v -6.80505 H 37.092524 V 66.310021 Z" />
    <path
       style="fill:none;stroke:#000000;stroke-width:0.386016px;stroke-linecap:butt;stroke-linejoin:miter;stroke-opacity:1"
       d="m 121.25622,110.65351 h 44.77951"
       id="path2798" />
    <path
       style="fill:none;stroke:#000000;stroke-width:0.386016px;stroke-linecap:butt;stroke-linejoin:miter;stroke-opacity:1"
       d="m 121.48535,91.180424 h 44.11303"
       id="path2800" />
    <path
       style="fill:none;stroke:#000000;stroke-width:0.386625;stroke-linecap:butt;stroke-linejoin:miter;stroke-miterlimit:4;stroke-dasharray:none;stroke-opacity:1;marker-start:url(#Arrow1Lstart);marker-end:url(#marker3216)"
       d="M 160.57453,91.166694 V 110.81595"
       id="path2804" />
    <path
       style="fill:none;stroke:#000000;stroke-width:0.386016px;stroke-linecap:butt;stroke-linejoin:miter;stroke-opacity:1;marker-end:url(#marker3226)"
       d="m 121.4759,110.74529 15.44368,20.24224"
       id="path3108" />
    <path
       style="fill:#b3b3b3;stroke:#000000;stroke-width:0.386623;stroke-miterlimit:4;stroke-dasharray:none"
       id="path3146"
       d="m 163.8926,98.294709 c 0.0508,0.571911 0.14313,1.13917 0.2255,1.707151 0.0788,0.54468 0.15989,1.08908 0.2064,1.63762 0.0374,0.44863 -0.0217,0.89559 -0.0597,1.34183 -0.0159,0.40699 -0.0762,0.80885 -0.13904,1.2105 -0.0497,0.29502 -0.0989,0.59006 -0.15501,0.88396 -0.0238,0.12605 -0.0556,0.25057 -0.0945,0.37278 -0.0397,0.11759 -0.0409,0.10708 0.18402,0.29459 0.0182,0.0152 0.4017,0.0261 0.42303,0.027 0.29757,0.0117 0.4875,0.0171 0.79267,0.0273 1.10685,0.0381 2.21436,0.0549 3.32172,0.033 0.32558,-0.003 0.66162,-0.0308 0.98252,-0.0344 0.28841,0.0484 0.35692,-0.35943 0.0686,-0.40788 v 0 c -0.34973,-0.04 -0.70798,0.0534 -1.05919,0.0289 -1.10006,0.0217 -2.20028,0.004 -3.29985,-0.033 -0.34952,-0.0117 -0.45658,-0.0147 -0.78998,-0.0271 -0.0811,-0.003 -0.16218,-0.006 -0.24327,-0.0102 -0.0282,-0.001 -0.0852,-0.0305 -0.0845,-0.003 0.0131,0.4993 0.0699,0.31427 0.0985,0.22872 0.0436,-0.13787 0.0797,-0.27822 0.10651,-0.42035 0.0569,-0.29841 0.10694,-0.59797 0.15736,-0.89754 0.0643,-0.41125 0.12577,-0.82283 0.14254,-1.23949 0.0398,-0.46953 0.10038,-0.93985 0.0597,-1.41184 -0.0474,-0.55665 -0.12882,-1.10919 -0.20917,-1.661914 -0.0813,-0.560095 -0.1724,-1.119477 -0.22277,-1.683424 -0.0251,-0.291365 -0.43723,-0.255751 -0.41205,0.03563 z" />
    <path
       style="fill:#b3b3b3;stroke:#000000;stroke-width:0.386623;stroke-miterlimit:4;stroke-dasharray:none"
       id="path3148"
       d="m 124.3969,87.868119 c 0.0302,-0.741469 0.0388,-1.483601 0.046,-2.225584 0.004,-0.749548 0.0197,-1.499081 -0.0172,-2.247973 -0.0328,-0.600946 -0.1424,-1.193084 -0.26545,-1.780972 -0.0201,-0.113055 -0.047,-0.222442 -0.0912,-0.328053 -0.12372,-0.265012 -0.49847,-0.09011 -0.37478,0.174911 v 0 c 0.0238,0.07377 0.0522,0.159812 0.0613,0.237896 0.11876,0.5667 0.22512,1.137382 0.25715,1.716685 0.0369,0.74072 0.0201,1.482142 0.0168,2.223515 -0.007,0.73633 -0.0156,1.472805 -0.0455,2.208629 -0.0149,0.292076 0.39824,0.313026 0.41306,0.02097 z" />
    <path
       style="fill:#b3b3b3;stroke:#000000;stroke-width:0.386623;stroke-miterlimit:4;stroke-dasharray:none"
       id="path3150"
       d="m 120.66994,78.64487 c 0.89484,-0.102113 1.79078,-0.225392 2.6929,-0.237127 0.25407,-0.0035 0.5081,0.009 0.76215,0.01357 1.0848,0.09123 2.13461,0.402353 2.9599,1.137858 0.11642,0.103688 0.21734,0.223438 0.326,0.33516 0.11745,0.174792 0.28308,0.351004 0.28536,0.581205 0.004,0.440757 -0.71623,0.896972 -1.0054,1.108479 -1.00722,0.645605 -2.15793,0.995023 -3.31038,1.276402 -0.39356,0.106446 -0.80252,0.136865 -1.19857,0.228704 -0.28458,0.06733 -0.18937,0.469809 0.0953,0.402479 v 0 c 0.3958,-0.09601 0.80847,-0.117154 1.20154,-0.229424 1.20535,-0.294944 2.40729,-0.66422 3.45751,-1.345191 0.41151,-0.305205 0.91456,-0.62046 1.0953,-1.135106 0.16352,-0.465687 -0.0464,-0.820572 -0.32525,-1.177085 -0.1224,-0.123953 -0.23634,-0.256774 -0.36709,-0.371838 -0.89733,-0.789651 -2.03284,-1.129957 -3.207,-1.225171 -0.26261,-0.0044 -0.52521,-0.01684 -0.78784,-0.01328 -0.91196,0.0124 -1.81775,0.135975 -2.72236,0.239505 -0.29048,0.03393 -0.24248,0.444738 0.048,0.410795 z" />
    <path
       style="fill:#b3b3b3;stroke:#000000;stroke-width:0.386623;stroke-miterlimit:4;stroke-dasharray:none"
       id="path3152"
       d="m 130.97446,121.04091 c 0.76155,-0.43748 0.99345,-0.93634 1.05727,-1.78886 0.0283,-0.14938 -0.0947,-0.50474 0.0702,-0.62706 0.13277,-0.0985 0.66574,-0.0824 0.79909,-0.0821 0.37489,0.0713 0.98227,0.0989 1.14457,0.53429 0.0233,0.0627 0.0315,0.41496 0.0327,0.44007 0.0603,0.59128 0.48459,0.87711 0.91206,1.2266 0.22812,0.18301 0.48692,-0.13962 0.25881,-0.32259 v 0 c -0.20367,-0.15978 -0.5496,-0.3812 -0.68719,-0.6367 -0.0471,-0.0874 -0.0471,-0.19285 -0.0706,-0.28927 -0.0131,-0.22217 -0.006,-0.45394 -0.11073,-0.66085 -0.27543,-0.54093 -0.95154,-0.63048 -1.48234,-0.70513 -0.41113,0.006 -0.8765,-0.0254 -1.17434,0.32817 -0.17241,0.20468 -0.10067,0.5294 -0.10476,0.76651 -0.0403,0.67635 -0.21188,1.09395 -0.82193,1.44324 -0.26422,0.12532 -0.087,0.49903 0.17731,0.37365 z" />
    <path
       style="fill:#b3b3b3;stroke:#000000;stroke-width:0.386623;stroke-miterlimit:4;stroke-dasharray:none"
       id="path3158"
       d="m 121.26433,127.11438 c -0.58275,0.0102 -1.15262,0.13568 -1.71416,0.2814 -0.71683,0.19667 -1.34424,0.58082 -1.88212,1.08613 -0.35593,0.39802 -0.57268,0.8014 -0.52598,1.34163 0.12518,0.50553 0.58005,0.8105 0.9995,1.06711 0.71059,0.37625 1.4971,0.54349 2.28491,0.66294 0.51281,0.09 1.02069,0.0836 1.52553,-0.0372 0.10257,-0.0298 0.20275,-0.0646 0.30946,-0.0732 0.29057,-0.0331 0.24374,-0.44404 -0.0468,-0.41093 v 0 c -0.12299,0.016 -0.2422,0.0411 -0.35979,0.0821 -0.4524,0.11059 -0.90675,0.11103 -1.3666,0.0302 -0.7339,-0.11045 -1.46738,-0.26282 -2.13202,-0.60752 -0.30694,-0.18476 -0.67293,-0.40528 -0.8029,-0.7573 -0.0538,-0.38544 0.15369,-0.71488 0.39906,-0.99756 0.48309,-0.46143 1.05484,-0.8056 1.70186,-0.9862 0.53197,-0.1386 1.07183,-0.25874 1.62412,-0.26834 0.29227,-0.0102 0.27825,-0.42327 -0.0146,-0.41335 z" />
    <path
       style="fill:#b3b3b3;stroke:#000000;stroke-width:0.386623;stroke-miterlimit:4;stroke-dasharray:none"
       id="path3162"
       d="m 116.5188,99.196621 c -0.47087,0.389372 -0.94131,0.779338 -1.41066,1.170579 -0.49769,0.39699 -0.86741,0.88914 -1.1128,1.47288 -0.21786,0.54776 -0.16094,1.09002 0.015,1.63693 0.24763,0.62378 0.76202,1.0359 1.31677,1.37727 0.66894,0.34734 1.40504,0.51949 2.14793,0.61218 0.7793,0.0849 1.51815,-0.0999 2.22737,-0.40614 0.66902,-0.32191 1.13359,-0.86827 1.4883,-1.50441 0.25186,-0.51653 0.34581,-1.0779 0.30575,-1.64734 -0.0903,-0.6063 -0.51179,-0.99113 -0.9843,-1.33087 -0.60865,-0.39435 -1.27417,-0.681832 -1.95613,-0.921316 -0.83092,-0.269533 -1.69419,-0.382552 -2.56474,-0.354229 -0.60745,0.110502 -0.31136,0.01357 -0.88506,0.30058 -0.25909,0.135683 -0.0673,0.502065 0.19187,0.366392 v 0 c 0.43684,-0.242639 0.20183,-0.155828 0.70752,-0.253633 0.81902,-0.03026 1.63139,0.08069 2.41362,0.331206 0.64541,0.22569 1.27498,0.49727 1.85241,0.86747 0.37139,0.26368 0.72855,0.55168 0.81245,1.02609 0.0414,0.48762 -0.0465,0.97123 -0.25523,1.4153 -0.30641,0.55787 -0.70835,1.04007 -1.29119,1.3254 -0.64005,0.27962 -1.30697,0.45009 -2.012,0.37502 -0.68472,-0.0834 -1.3634,-0.24126 -1.98274,-0.5545 -0.47117,-0.28634 -0.9204,-0.62863 -1.13945,-1.15289 -0.15003,-0.45126 -0.20526,-0.89506 -0.0261,-1.35 0.21418,-0.52443 0.55216,-0.95843 0.99564,-1.31371 0.46753,-0.38975 0.9362,-0.778177 1.40522,-1.16612 0.22778,-0.183412 -0.0317,-0.505553 -0.25939,-0.322139 z" />
    <path
       style="fill:#b3b3b3;stroke:#000000;stroke-width:0.386623;stroke-miterlimit:4;stroke-dasharray:none"
       id="path3164"
       d="m 76.755533,64.598936 c 0.111552,-0.776326 0.18386,-1.558226 0.246032,-2.33991 0.06965,-0.958746 0.07706,-1.920364 0.102609,-2.880897 0.02741,-0.929987 0.04723,-1.860023 0.01668,-2.790082 -0.01051,-0.269702 -0.0259,-0.539155 -0.04564,-0.80832 -0.02142,-0.291667 -0.433898,-0.261376 -0.412478,0.0303 v 0 c 0.01938,0.263616 0.03443,0.52752 0.04475,0.791659 0.03054,0.92185 0.01021,1.843682 -0.01675,2.765459 -0.02536,0.953268 -0.03265,1.907613 -0.101457,2.859126 -0.06117,0.770385 -0.132488,1.540975 -0.241942,2.306137 -0.04705,0.288644 0.361153,0.355181 0.4082,0.06654 z" />
    <path
       style="fill:#b3b3b3;stroke:#000000;stroke-width:0.386623;stroke-miterlimit:4;stroke-dasharray:none"
       id="path3170"
       d="m 77.405589,60.410821 c 0.725507,0.459706 1.487149,0.859063 2.240264,1.270994 0.740916,0.409753 1.494904,0.795033 2.231389,1.212741 0.537284,0.319117 1.052587,0.673353 1.571358,1.021281 0.09669,0.07355 0.204759,0.130387 0.303518,0.200864 0.06163,0.04399 0.08824,0.109816 -0.02791,-0.07486 0.01918,0.291821 0.431892,0.264677 0.412699,-0.02714 v 0 c -0.02509,-0.05874 -0.04057,-0.122596 -0.07531,-0.176197 -0.08221,-0.126871 -0.289957,-0.1525 -0.382644,-0.266147 -0.527345,-0.353672 -1.051204,-0.713715 -1.597708,-1.037559 -0.738377,-0.418662 -1.494066,-0.805231 -2.236936,-1.215829 -0.740901,-0.405252 -1.490053,-0.798268 -2.20465,-1.249107 -0.241102,-0.165525 -0.475187,0.175447 -0.234085,0.340968 z" />
    <path
       style="fill:#b3b3b3;stroke:#000000;stroke-width:0.386623;stroke-miterlimit:4;stroke-dasharray:none"
       id="path3172"
       d="m 80.300248,61.452679 c 0.739469,-0.578291 1.469785,-1.167739 2.193108,-1.766076 0.818051,-0.69287 1.643504,-1.37727 2.451159,-2.082291 0.258068,-0.227217 0.515255,-0.455422 0.771814,-0.684342 0.110108,-0.09825 0.223365,-0.185199 0.309069,-0.305274 0.138514,-0.257569 -0.225755,-0.453454 -0.364262,-0.19588 v 0 c 0.131963,-0.137099 -0.193865,0.169083 -0.219948,0.192357 -0.149378,0.13329 -0.309284,0.275565 -0.458295,0.407463 -0.103353,0.09149 -0.206913,0.182737 -0.310369,0.274106 -0.804859,0.702659 -1.627589,1.384613 -2.442791,2.075177 -0.721326,0.596716 -1.449675,1.184504 -2.187117,1.761217 -0.228781,0.182173 0.02883,0.505716 0.257632,0.323543 z" />
    <path
       style="fill:#b3b3b3;stroke:#000000;stroke-width:0.386623;stroke-miterlimit:4;stroke-dasharray:none"
       id="path3176"
       d="m 77.786213,124.03168 c -0.800788,-0.071 -1.590732,0.009 -2.371463,0.18601 -0.914921,0.24103 -1.708171,0.73257 -2.440865,1.31521 -0.41506,0.3625 -0.854687,0.75886 -1.033795,1.29907 -0.02915,0.088 -0.04192,0.18049 -0.06288,0.27072 -0.0652,0.64437 0.228306,1.06004 0.666948,1.49229 0.52635,0.47264 1.16412,0.75564 1.821189,0.99282 0.727723,0.2455 1.486909,0.36624 2.249367,0.43411 0.774839,0.0442 1.549563,-0.0319 2.314316,-0.15184 0.186678,-0.0327 0.373939,-0.0648 0.557215,-0.11366 0.282453,-0.0759 0.175225,-0.47527 -0.107234,-0.39945 v 0 c -0.168908,0.0458 -0.342183,0.0734 -0.514162,0.10461 -0.731464,0.11511 -1.472441,0.18898 -2.21367,0.14845 -0.727152,-0.064 -1.451254,-0.17853 -2.145645,-0.41124 -0.601749,-0.21639 -1.187912,-0.47044 -1.672733,-0.89993 -0.318325,-0.30607 -0.590213,-0.63929 -0.551584,-1.10758 0.114543,-0.56995 0.513727,-0.97312 0.950385,-1.33482 0.682934,-0.54526 1.421619,-1.00712 2.274921,-1.23541 0.742236,-0.16995 1.493387,-0.24417 2.255013,-0.17641 0.291929,0.0175 0.3166,-0.39541 0.02467,-0.41286 z" />
  </g>
</svg>
