<?xml version="1.0" encoding="UTF-8" standalone="no"?>
<svg
   width="152.14642mm"
   height="96.205948mm"
   viewBox="0 0 152.14642 96.205948"
   version="1.1"
   id="svg1217"
   inkscape:version="1.3.2 (091e20e, 2023-11-25, custom)"
   sodipodi:docname="Din_Corpo_2.svg"
   inkscape:export-filename="Din_Corpo_2.png"
   inkscape:export-xdpi="300"
   inkscape:export-ydpi="300"
   xmlns:inkscape="http://www.inkscape.org/namespaces/inkscape"
   xmlns:sodipodi="http://sodipodi.sourceforge.net/DTD/sodipodi-0.dtd"
   xmlns="http://www.w3.org/2000/svg"
   xmlns:svg="http://www.w3.org/2000/svg"
   xmlns:rdf="http://www.w3.org/1999/02/22-rdf-syntax-ns#"
   xmlns:cc="http://creativecommons.org/ns#"
   xmlns:dc="http://purl.org/dc/elements/1.1/">
  <sodipodi:namedview
     id="base"
     pagecolor="#ffffff"
     bordercolor="#666666"
     borderopacity="1.0"
     inkscape:pageopacity="0.0"
     inkscape:pageshadow="2"
     inkscape:zoom="1.4"
     inkscape:cx="265.71429"
     inkscape:cy="175.35714"
     inkscape:document-units="mm"
     inkscape:current-layer="layer1"
     inkscape:document-rotation="0"
     showgrid="false"
     showguides="true"
     inkscape:guide-bbox="true"
     inkscape:snap-global="false"
     inkscape:window-width="1920"
     inkscape:window-height="1009"
     inkscape:window-x="-8"
     inkscape:window-y="-8"
     inkscape:window-maximized="1"
     inkscape:showpageshadow="2"
     inkscape:pagecheckerboard="0"
     inkscape:deskcolor="#d1d1d1"
     inkscape:export-bgcolor="#ffffffff">
    <sodipodi:guide
       position="88.889322,56.621346"
       orientation="1,0"
       id="guide2752"
       inkscape:locked="false" />
    <sodipodi:guide
       position="119.37355,57.209256"
       orientation="1,0"
       id="guide2802"
       inkscape:locked="false" />
  </sodipodi:namedview>
  <defs
     id="defs1211">
    <marker
       style="overflow:visible"
       id="Triangle"
       refX="0"
       refY="0"
       orient="auto-start-reverse"
       inkscape:stockid="Triangle arrow"
       markerWidth="1"
       markerHeight="1"
       viewBox="0 0 1 1"
       inkscape:isstock="true"
       inkscape:collect="always"
       preserveAspectRatio="xMidYMid">
      <path
         transform="scale(0.5)"
         style="fill:context-stroke;fill-rule:evenodd;stroke:context-stroke;stroke-width:1pt"
         d="M 5.77,0 -2.88,5 V -5 Z"
         id="path135" />
    </marker>
    <marker
       style="overflow:visible"
       id="marker3226"
       refX="0"
       refY="0"
       orient="auto"
       inkscape:stockid="Arrow1Lend"
       inkscape:isstock="true">
      <path
         transform="matrix(-0.8,0,0,-0.8,-10,0)"
         style="fill:#000000;fill-opacity:1;fill-rule:evenodd;stroke:#000000;stroke-width:1pt;stroke-opacity:1"
         d="M 0,0 5,-5 -12.5,0 5,5 Z"
         id="path3224" />
    </marker>
    <marker
       style="overflow:visible"
       id="marker3216"
       refX="0"
       refY="0"
       orient="auto"
       inkscape:stockid="Arrow1Lend"
       inkscape:isstock="true">
      <path
         transform="matrix(-0.8,0,0,-0.8,-10,0)"
         style="fill:#000000;fill-opacity:1;fill-rule:evenodd;stroke:#000000;stroke-width:1pt;stroke-opacity:1"
         d="M 0,0 5,-5 -12.5,0 5,5 Z"
         id="path3214" />
    </marker>
    <marker
       style="overflow:visible"
       id="Arrow1Lstart"
       refX="0"
       refY="0"
       orient="auto"
       inkscape:stockid="Arrow1Lstart"
       inkscape:isstock="true">
      <path
         transform="matrix(0.8,0,0,0.8,10,0)"
         style="fill:#000000;fill-opacity:1;fill-rule:evenodd;stroke:#000000;stroke-width:1pt;stroke-opacity:1"
         d="M 0,0 5,-5 -12.5,0 5,5 Z"
         id="path2806" />
    </marker>
  </defs>
  <metadata
     id="metadata1214">
    <rdf:RDF>
      <cc:Work
         rdf:about="">
        <dc:format>image/svg+xml</dc:format>
        <dc:type
           rdf:resource="http://purl.org/dc/dcmitype/StillImage" />
        <dc:title />
      </cc:Work>
    </rdf:RDF>
  </metadata>
  <g
     inkscape:groupmode="layer"
     id="layer2"
     inkscape:label="fundo"
     transform="translate(26.180357,16.541963)" />
  <g
     inkscape:label="Layer 1"
     inkscape:groupmode="layer"
     id="layer1"
     transform="translate(-25.7693, -52.757)">
    <circle
       style="fill:#ffffff;stroke:#000000;stroke-width:0.974859"
       id="path2602"
       cx="120.30408"
       cy="110.0825"
       r="24.394423" />
    <circle
       style="fill:#ffffff;stroke:#000000;stroke-width:0.974861"
       id="circle2604"
       cx="120.30408"
       cy="110.0825"
       r="4.0466838" />
    <g
       transform="matrix(0,-1.3926562,1.5258167,0,-137.45359,207.71696)"
       id="g6265"
       style="stroke-width:0.955368">
      <path
         inkscape:export-ydpi="96"
         inkscape:export-xdpi="96"
         style="fill:#cccccc;fill-opacity:1;stroke:#000000;stroke-width:0.565556;stroke-miterlimit:4;stroke-dasharray:none"
         d="m 84.559426,162.90993 a 1.2824262,0.80917558 0 0 0 -1.28234,-0.80928 1.2824262,0.80917558 0 0 0 -1.28289,0.80928 1.2824262,0.80917558 0 0 0 0.0496,0.22126 v 5.72229 a 1.2824262,0.80917558 0 0 0 -0.0496,0.21913 1.2824262,0.80917558 0 0 0 1.28289,0.80928 1.2824262,0.80917558 0 0 0 1.28234,-0.80928 1.2824262,0.80917558 0 0 0 -0.0205,-0.14231 h 0.0205 z"
         id="path1619"
         inkscape:connector-curvature="0" />
      <path
         inkscape:export-ydpi="96"
         inkscape:export-xdpi="96"
         style="fill:#cccccc;stroke:#000000;stroke-width:0.668758;stroke-linecap:butt;stroke-linejoin:miter;stroke-miterlimit:4;stroke-dasharray:none;stroke-opacity:1"
         d="m 82.920936,123.439 c 5.5486,0.77136 9.85293,2.19095 15.00276,4.31568 0.65086,-0.53764 1.21248,-0.40761 0.77069,-1.17701 -4.49535,-2.44153 -9.24121,-4.00901 -15.10552,-5.05676 -0.80901,0.28401 -0.80635,1.05991 -0.66793,1.91809 z"
         id="path1606"
         inkscape:connector-curvature="0"
         sodipodi:nodetypes="ccccc" />
      <path
         sodipodi:nodetypes="ccccc"
         inkscape:connector-curvature="0"
         id="path823"
         d="m 82.920936,153.63755 c 5.5486,0.77137 9.85293,2.19095 15.00276,4.31566 0.65086,-0.53763 1.21248,-0.4076 0.77069,-1.177 -4.49535,-2.44152 -9.24121,-4.00898 -15.10552,-5.05673 -0.80901,0.284 -0.80635,1.05991 -0.66793,1.91807 z"
         style="fill:#cccccc;stroke:#000000;stroke-width:0.668758;stroke-linecap:butt;stroke-linejoin:miter;stroke-miterlimit:4;stroke-dasharray:none;stroke-opacity:1" />
      <path
         style="fill:#cccccc;stroke:#000000;stroke-width:0.668758;stroke-linecap:butt;stroke-linejoin:miter;stroke-miterlimit:4;stroke-dasharray:none;stroke-opacity:1"
         d="m 82.920936,143.42534 c 5.5486,0.77136 9.85293,2.19095 15.00276,4.31566 0.65086,-0.53763 1.21248,-0.40761 0.77069,-1.177 -4.49535,-2.44152 -9.24121,-4.00898 -15.10552,-5.05673 -0.80901,0.284 -0.80635,1.0599 -0.66793,1.91807 z"
         id="path827"
         inkscape:connector-curvature="0"
         sodipodi:nodetypes="ccccc" />
      <path
         sodipodi:nodetypes="ccccc"
         inkscape:connector-curvature="0"
         id="path817-3"
         d="m 99.904276,147.88545 c -6.2408,0.96562 -11.54903,3.16623 -16.29035,6.09769 -1.02218,-0.27267 -1.91202,-0.62956 -1.3176,-1.93093 5.17397,-2.63742 10.63984,-4.85028 16.76948,-6.0977 0.53977,0.35972 1.219214,0.56708 0.83847,1.93094 z"
         style="fill:#ffffff;stroke:#000000;stroke-width:0.668758;stroke-linecap:butt;stroke-linejoin:miter;stroke-miterlimit:4;stroke-dasharray:none;stroke-opacity:1" />
      <path
         style="fill:#ffffff;stroke:#000000;stroke-width:0.668758;stroke-linecap:butt;stroke-linejoin:miter;stroke-miterlimit:4;stroke-dasharray:none;stroke-opacity:1"
         d="m 99.904276,158.34674 c -6.2408,0.96562 -11.54903,3.16623 -16.29035,6.09769 -1.02218,-0.27268 -1.91202,-0.62956 -1.3176,-1.93094 5.17397,-2.63741 10.63984,-4.85027 16.76948,-6.09769 0.53977,0.35972 1.219214,0.56708 0.83847,1.93094 z"
         id="path825"
         inkscape:connector-curvature="0"
         sodipodi:nodetypes="ccccc" />
      <path
         sodipodi:nodetypes="ccccc"
         inkscape:connector-curvature="0"
         id="path839-6"
         d="m 82.920936,132.964 c 5.5486,0.77137 9.85293,2.19096 15.00276,4.31568 0.65086,-0.53763 1.21248,-0.40761 0.77069,-1.177 -4.49535,-2.44154 -9.24121,-4.00901 -15.10552,-5.05676 -0.80901,0.284 -0.80635,1.05991 -0.66793,1.91808 z"
         style="fill:#cccccc;stroke:#000000;stroke-width:0.668758;stroke-linecap:butt;stroke-linejoin:miter;stroke-miterlimit:4;stroke-dasharray:none;stroke-opacity:1" />
      <path
         style="fill:#ffffff;stroke:#000000;stroke-width:0.668758;stroke-linecap:butt;stroke-linejoin:miter;stroke-miterlimit:4;stroke-dasharray:none;stroke-opacity:1"
         d="m 99.904276,137.67321 c -6.2408,0.96563 -11.54903,3.16625 -16.29035,6.09772 -1.02218,-0.27268 -1.91202,-0.62957 -1.3176,-1.93094 5.17397,-2.63743 10.63984,-4.8503 16.76948,-6.09773 0.53977,0.35973 1.219214,0.56708 0.83847,1.93095 z"
         id="path829"
         inkscape:connector-curvature="0"
         sodipodi:nodetypes="ccccc" />
      <path
         sodipodi:nodetypes="ccccc"
         inkscape:connector-curvature="0"
         id="path833"
         d="m 99.904276,127.46094 c -6.2408,0.96563 -11.54903,3.16625 -16.29035,6.09773 -1.02218,-0.27268 -1.91202,-0.62957 -1.3176,-1.93095 5.17397,-2.63743 10.63984,-4.8503 16.76948,-6.09773 0.53977,0.35973 1.219214,0.56708 0.83847,1.93095 z"
         style="fill:#ffffff;stroke:#000000;stroke-width:0.668758;stroke-linecap:butt;stroke-linejoin:miter;stroke-miterlimit:4;stroke-dasharray:none;stroke-opacity:1" />
      <path
         inkscape:connector-curvature="0"
         id="path1610"
         d="m 84.691716,116.79684 a 1.2824262,0.80917558 0 0 0 -1.28234,-0.80928 1.2824262,0.80917558 0 0 0 -1.28289,0.80928 1.2824262,0.80917558 0 0 0 0.0496,0.22126 v 5.72229 a 1.2824262,0.80917558 0 0 0 -0.0496,0.21913 1.2824262,0.80917558 0 0 0 1.28289,0.80928 1.2824262,0.80917558 0 0 0 1.28234,-0.80928 1.2824262,0.80917558 0 0 0 -0.0205,-0.14231 h 0.0205 z"
         style="fill:#ffffff;stroke:#000000;stroke-width:0.565556;stroke-miterlimit:4;stroke-dasharray:none" />
    </g>
    <g
       id="layer1-9"
       inkscape:label="Layer 1"
       transform="matrix(1.9538472,0,0,1.3926562,-110.52712,-42.122073)"
       style="stroke-width:0.844261">
      <rect
         style="fill:#ffffff;stroke:#000000;stroke-width:0.590983;stroke-miterlimit:4;stroke-dasharray:none"
         id="rect1718"
         width="16.510056"
         height="2.1250565"
         x="101.72212"
         y="108.30544" />
      <rect
         style="fill:#ffffff;stroke:#000000;stroke-width:0.684566;stroke-miterlimit:4;stroke-dasharray:none"
         id="rect1731"
         width="15.094382"
         height="2.0999031"
         x="76.874931"
         y="108.44493" />
      <rect
         y="104.7997"
         x="92.554405"
         height="9.2270832"
         width="7.2063184"
         id="rect3464"
         style="fill:#808080;stroke:#808080;stroke-width:0.590983" />
      <path
         style="fill:#ffffff;stroke:#000000;stroke-width:0.590983;stroke-miterlimit:4;stroke-dasharray:none"
         d="m 88.29373,103.05019 v 2.14922 h 11.466999 v 8.82737 H 88.29373 v 2.14922 h 13.28911 v -13.12581 z"
         id="rect1720"
         inkscape:connector-curvature="0" />
      <rect
         style="fill:#ffffff;stroke:#000000;stroke-width:0.694458;stroke-miterlimit:4;stroke-dasharray:none"
         id="rect1729"
         width="2.6107433"
         height="7.8277359"
         x="91.626671"
         y="105.74422" />
    </g>
    <path
       id="rect2606"
       style="fill:#b3b3b3;stroke:#000000;stroke-width:0.97486"
       d="m 33.458477,67.823905 v 67.042765 6.49579 h 6.505863 127.14427 v -6.49579 H 39.96434 V 67.823905 Z" />
    <path
       style="fill:none;stroke:#000000;stroke-width:0.5;stroke-linecap:butt;stroke-linejoin:miter;stroke-opacity:1;stroke-dasharray:none"
       d="m 120.30308,110.15213 h 42.74444"
       id="path2798" />
    <path
       style="fill:none;stroke:#000000;stroke-width:0.6;stroke-linecap:butt;stroke-linejoin:miter;stroke-opacity:1;stroke-dasharray:none"
       d="m 120.5218,91.564034 h 42.10824"
       id="path2800" />
    <path
       style="fill:none;stroke:#000000;stroke-width:0.5;stroke-linecap:butt;stroke-linejoin:miter;stroke-miterlimit:4;stroke-dasharray:none;stroke-opacity:1;marker-start:url(#Triangle);marker-end:url(#Triangle)"
       d="M 157.83451,93.629796 V 108.22832"
       id="path2804"
       sodipodi:nodetypes="cc" />
    <path
       style="fill:none;stroke:#000000;stroke-width:0.5;stroke-linecap:butt;stroke-linejoin:miter;stroke-dasharray:none;stroke-opacity:1;marker-end:url(#Triangle)"
       d="m 120.51278,110.23974 14.74182,16.29849"
       id="path3108"
       sodipodi:nodetypes="cc" />
    <g
       inkscape:label=""
       transform="translate(95.12796,161.89765)"
       id="g1">
      <g
         fill="#000000"
         fill-opacity="1"
         id="g2"
         transform="matrix(0.352778,0,0,0.352778,-0.99523,-0.627459)">
        <g
           id="use1"
           transform="translate(1.993,10.888)">
          <path
             d="m -44.407461,-115.96905 c -0.705222,0 -1.043728,0 -1.579697,0.45134 -0.225671,0.16916 -0.620596,0.73343 -0.620596,1.32581 0,0.76165 0.564178,1.21299 1.2694,1.21299 0.902684,0 1.889995,-0.76165 1.889995,-2.25671 0,-1.77717 -1.720742,-3.1594 -4.28775,-3.1594 -4.880137,0 -9.760274,5.33147 -9.760274,10.63474 0,3.24403 2.002831,6.17776 5.81103,6.17776 5.077599,0 8.293412,-3.94925 8.293412,-4.42881 0,-0.22567 -0.225671,-0.42312 -0.394924,-0.42312 -0.112836,0 -0.141054,0.0563 -0.479551,0.39492 -2.369547,3.1594 -5.923866,3.72358 -7.33431,3.72358 -2.567009,0 -3.413275,-2.25671 -3.413275,-4.1185 0,-1.29761 0.648804,-4.90835 2.00283,-7.44715 0.959103,-1.74895 2.961933,-3.77999 5.33148,-3.77999 0.479551,0 2.51059,0.0847 3.27223,1.69254 z m 0,0"
             id="path2"
             style="stroke-width:1.80537" />
        </g>
      </g>
    </g>
    <g
       inkscape:label=""
       transform="matrix(1.5898614,0,0,1.5898614,75.08262,58.332172)"
       id="g5">
      <g
         fill="#000000"
         fill-opacity="1"
         id="g4"
         transform="matrix(0.352778,0,0,0.352778,-1.10547,-0.710097)">
        <g
           id="g3"
           transform="translate(1.993,16.341)">
          <path
             d="m 5.796875,-13.8125 c 0.03125,-0.09375 0.0625,-0.21875 0.0625,-0.3125 0,-0.203125 -0.203125,-0.203125 -0.234375,-0.203125 -0.03125,0 -0.765625,0.04687 -1.140625,0.09375 -0.359375,0.01563 -0.65625,0.0625 -1.03125,0.07813 -0.5,0.04687 -0.640625,0.0625 -0.640625,0.4375 0,0.203125 0.203125,0.203125 0.40625,0.203125 1.0625,0 1.0625,0.1875 1.0625,0.40625 0,0.07813 0,0.109375 -0.109375,0.484375 L 1.21875,-0.8125 C 1.140625,-0.5 1.140625,-0.453125 1.140625,-0.328125 c 0,0.453125 0.34375,0.53125 0.546875,0.53125 0.578125,0 0.703125,-0.453125 0.875,-1.09375 L 3.53125,-4.75 c 1.484375,0.171875 2.375,0.78125 2.375,1.78125 0,0.125 0,0.203125 -0.0625,0.515625 -0.078125,0.3125 -0.078125,0.546875 -0.078125,0.65625 0,1.203125 0.78125,2 1.828125,2 0.953125,0 1.453125,-0.859375 1.625,-1.15625 0.421875,-0.765625 0.703125,-1.921875 0.703125,-2 0,-0.109375 -0.09375,-0.1875 -0.21875,-0.1875 -0.1875,0 -0.203125,0.078125 -0.28125,0.40625 -0.296875,1.078125 -0.71875,2.53125 -1.78125,2.53125 -0.40625,0 -0.671875,-0.203125 -0.671875,-1 0,-0.390625 0.078125,-0.84375 0.15625,-1.15625 C 7.203125,-2.734375 7.203125,-2.75 7.203125,-3 c 0,-1.21875 -1.09375,-1.890625 -2.984375,-2.140625 0.734375,-0.453125 1.484375,-1.265625 1.765625,-1.578125 1.1875,-1.3125 1.984375,-1.984375 2.9375,-1.984375 0.484375,0 0.59375,0.125 0.75,0.25 -0.765625,0.09375 -1.0625,0.625 -1.0625,1.03125 0,0.5 0.390625,0.671875 0.6875,0.671875 0.5625,0 1.046875,-0.484375 1.046875,-1.140625 0,-0.59375 -0.46875,-1.21875 -1.40625,-1.21875 -1.125,0 -2.0625,0.8125 -3.53125,2.453125 -0.203125,0.25 -0.96875,1.03125 -1.734375,1.328125 z m 0,0"
             id="path1" />
        </g>
      </g>
    </g>
    <g
       inkscape:label=""
       transform="matrix(1.4602106,0,0,1.4602106,132.06815,115.40658)"
       id="g8">
      <g
         fill="#000000"
         fill-opacity="1"
         id="g7"
         transform="matrix(0.352778,0,0,0.352778,-0.901524,-0.627459)">
        <g
           id="g6"
           transform="translate(1.993,10.888)">
          <path
             d="m 8.03125,-8.453125 c -0.640625,0.125 -0.96875,0.578125 -0.96875,1.03125 0,0.5 0.390625,0.671875 0.6875,0.671875 0.578125,0 1.046875,-0.5 1.046875,-1.125 0,-0.65625 -0.640625,-1.234375 -1.671875,-1.234375 -0.828125,0 -1.78125,0.375 -2.640625,1.625 -0.140625,-1.09375 -0.96875,-1.625 -1.796875,-1.625 -0.8125,0 -1.21875,0.625 -1.46875,1.078125 -0.34375,0.734375 -0.65625,1.984375 -0.65625,2.078125 0,0.09375 0.078125,0.1875 0.21875,0.1875 0.171875,0 0.1875,-0.015625 0.3125,-0.5 0.3125,-1.234375 0.703125,-2.4375 1.53125,-2.4375 0.5,0 0.640625,0.359375 0.640625,0.953125 0,0.453125 -0.203125,1.265625 -0.359375,1.90625 l -0.578125,2.234375 c -0.078125,0.390625 -0.296875,1.3125 -0.40625,1.6875 -0.140625,0.53125 -0.375,1.515625 -0.375,1.609375 0,0.296875 0.234375,0.515625 0.546875,0.515625 0.21875,0 0.609375,-0.140625 0.734375,-0.546875 C 2.890625,-0.515625 3.65625,-3.640625 3.78125,-4.109375 3.890625,-4.5625 4,-5 4.109375,-5.453125 4.1875,-5.75 4.28125,-6.078125 4.34375,-6.34375 4.40625,-6.53125 4.953125,-7.546875 5.46875,-8 c 0.25,-0.21875 0.796875,-0.703125 1.640625,-0.703125 0.328125,0 0.65625,0.0625 0.921875,0.25 z m 0,0"
             id="path5" />
        </g>
      </g>
    </g>
    <g
       inkscape:label=""
       transform="matrix(1.3796865,0,0,1.3796865,150.63751,97.452707)"
       id="g11">
      <g
         fill="#000000"
         fill-opacity="1"
         id="g10"
         transform="matrix(0.352778,0,0,0.352778,-1.03933,-0.706129)">
        <g
           id="g9"
           transform="translate(1.993,16.111)">
          <path
             d="m 7.578125,-12.515625 c 0.1875,-0.78125 0.25,-1 2.0625,-1 0.5625,0 0.703125,0 0.703125,-0.390625 0,-0.203125 -0.21875,-0.203125 -0.3125,-0.203125 -0.40625,0 -0.875,0.04687 -1.296875,0.04687 H 5.96875 c -0.390625,0 -0.84375,-0.04687 -1.234375,-0.04687 -0.171875,0 -0.390625,0 -0.390625,0.390625 0,0.203125 0.1875,0.203125 0.484375,0.203125 1.265625,0 1.265625,0.171875 1.265625,0.40625 0,0.03125 0,0.15625 -0.078125,0.46875 L 3.21875,-1.53125 C 3.03125,-0.8125 3,-0.59375 1.546875,-0.59375 c -0.390625,0 -0.59375,0 -0.59375,0.359375 C 0.953125,0 1.078125,0 1.484375,0 h 9.25 c 0.46875,0 0.484375,-0.015625 0.625,-0.390625 l 1.59375,-4.40625 c 0.04687,-0.09375 0.07813,-0.21875 0.07813,-0.28125 0,-0.125 -0.09375,-0.203125 -0.203125,-0.203125 -0.01563,0 -0.125,0 -0.171875,0.078125 C 12.625,-5.1875 12.625,-5.140625 12.453125,-4.75 11.796875,-2.9375 10.859375,-0.59375 7.375,-0.59375 H 5.390625 c -0.28125,0 -0.328125,0 -0.453125,-0.03125 -0.234375,-0.015625 -0.25,-0.0625 -0.25,-0.21875 0,-0.140625 0.046875,-0.265625 0.078125,-0.453125 z m 0,0"
             id="path8" />
        </g>
      </g>
    </g>
    <g
       inkscape:label=""
       transform="matrix(1.2278119,0,0,1.2278119,122.14509,93.483958)"
       id="g14">
      <g
         fill="#000000"
         fill-opacity="1"
         id="g13"
         transform="matrix(0.352778,0,0,0.352778,-1.04484,-0.706129)">
        <g
           id="g12"
           transform="translate(1.993,16.111)">
          <path
             d="m 6.109375,-6.5625 h 3.46875 c 2.859375,0 5.703125,-2.109375 5.703125,-4.46875 0,-1.609375 -1.359375,-3.078125 -3.96875,-3.078125 h -6.375 c -0.390625,0 -0.578125,0 -0.578125,0.390625 0,0.203125 0.1875,0.203125 0.5,0.203125 1.25,0 1.25,0.171875 1.25,0.40625 0,0.03125 0,0.15625 -0.078125,0.46875 L 3.25,-1.53125 c -0.1875,0.71875 -0.234375,0.9375 -1.6875,0.9375 -0.390625,0 -0.59375,0 -0.59375,0.359375 C 0.96875,0 1.15625,0 1.28125,0 1.671875,0 2.09375,-0.046875 2.484375,-0.046875 h 2.40625 C 5.28125,-0.046875 5.71875,0 6.109375,0 6.28125,0 6.5,0 6.5,-0.390625 6.5,-0.59375 6.328125,-0.59375 6.015625,-0.59375 4.765625,-0.59375 4.75,-0.75 4.75,-0.953125 c 0,-0.09375 0.015625,-0.25 0.046875,-0.34375 z m 1.484375,-6.140625 c 0.1875,-0.765625 0.28125,-0.8125 1.078125,-0.8125 h 2.046875 c 1.546875,0 2.828125,0.5 2.828125,2.046875 0,0.546875 -0.265625,2.296875 -1.21875,3.25 -0.34375,0.375 -1.34375,1.15625 -3.21875,1.15625 h -2.90625 z m 0,0"
             id="path11" />
        </g>
      </g>
    </g>
    <g
       inkscape:label=""
       transform="matrix(1.3575151,0,0,1.3575151,116.16673,115.40657)"
       id="g17">
      <g
         fill="#000000"
         fill-opacity="1"
         id="g16"
         transform="matrix(0.352778,0,0,0.352778,-1.05035,-0.551789)">
        <g
           id="g15"
           transform="translate(1.993,16.111)">
          <path
             d="m 15,-9.046875 c 0,-3.40625 -2.234375,-5.5 -5.125,-5.5 -4.421875,0 -8.890625,4.75 -8.890625,9.53125 0,3.234375 2.15625,5.453125 5.15625,5.453125 C 10.46875,0.4375 15,-4.09375 15,-9.046875 Z m -8.734375,9 c -1.703125,0 -3.5,-1.234375 -3.5,-4.453125 0,-1.875 0.6875,-4.953125 2.375,-7.03125 1.515625,-1.8125 3.25,-2.5625 4.625,-2.5625 1.828125,0 3.578125,1.328125 3.578125,4.296875 0,1.84375 -0.78125,4.71875 -2.171875,6.671875 -1.5,2.109375 -3.390625,3.078125 -4.90625,3.078125 z m 0,0"
             id="path14" />
        </g>
      </g>
    </g>
    <g
       inkscape:label=""
       transform="matrix(1.4290181,0,0,1.4290181,121.44105,136.19527)"
       id="g20">
      <g
         fill="#000000"
         fill-opacity="1"
         id="g19"
         transform="matrix(0.352778,0,0,0.352778,-1.06689,-0.551789)">
        <g
           id="g18"
           transform="translate(1.993,16.111)">
          <path
             d="m 15.4375,-14.359375 c 0,-0.1875 -0.15625,-0.1875 -0.1875,-0.1875 -0.04687,0 -0.125,0 -0.296875,0.21875 l -1.421875,1.734375 c -0.71875,-1.25 -1.859375,-1.953125 -3.40625,-1.953125 -4.46875,0 -9.09375,4.53125 -9.09375,9.375 0,3.453125 2.421875,5.609375 5.4375,5.609375 1.65625,0 3.09375,-0.703125 4.296875,-1.71875 1.796875,-1.5 2.328125,-3.515625 2.328125,-3.671875 0,-0.1875 -0.15625,-0.1875 -0.21875,-0.1875 -0.1875,0 -0.21875,0.125 -0.25,0.203125 -0.953125,3.21875 -3.75,4.765625 -5.8125,4.765625 -2.1875,0 -4.078125,-1.390625 -4.078125,-4.328125 0,-0.671875 0.203125,-4.265625 2.53125,-6.96875 1.140625,-1.3125 3.078125,-2.46875 5.046875,-2.46875 2.265625,0 3.28125,1.875 3.28125,3.984375 0,0.53125 -0.0625,0.984375 -0.0625,1.078125 0,0.171875 0.203125,0.171875 0.265625,0.171875 0.234375,0 0.25,-0.015625 0.328125,-0.390625 z m 0,0"
             id="path17" />
        </g>
      </g>
    </g>
  </g>
</svg>
