<?xml version="1.0" encoding="UTF-8" standalone="no"?>
<svg
   height="1085.7139"
   version="1.1"
   width="1361.2007"
   id="svg263"
   sodipodi:docname="DinEx1.svg"
   inkscape:version="1.3.2 (091e20e, 2023-11-25, custom)"
   inkscape:export-filename="DinEx1.png"
   inkscape:export-xdpi="96"
   inkscape:export-ydpi="96"
   xmlns:inkscape="http://www.inkscape.org/namespaces/inkscape"
   xmlns:sodipodi="http://sodipodi.sourceforge.net/DTD/sodipodi-0.dtd"
   xmlns="http://www.w3.org/2000/svg"
   xmlns:svg="http://www.w3.org/2000/svg"
   xmlns:rdf="http://www.w3.org/1999/02/22-rdf-syntax-ns#"
   xmlns:cc="http://creativecommons.org/ns#"
   xmlns:dc="http://purl.org/dc/elements/1.1/">
  <metadata
     id="metadata269">
    <rdf:RDF>
      <cc:Work
         rdf:about="">
        <dc:format>image/svg+xml</dc:format>
        <dc:type
           rdf:resource="http://purl.org/dc/dcmitype/StillImage" />
      </cc:Work>
    </rdf:RDF>
  </metadata>
  <defs
     id="defs267">
    <marker
       style="overflow:visible"
       id="marker993"
       refX="0"
       refY="0"
       orient="auto"
       inkscape:stockid="Arrow1Lstart"
       inkscape:isstock="true">
      <path
         transform="matrix(0.8,0,0,0.8,10,0)"
         style="fill:#ff0000;fill-opacity:1;fill-rule:evenodd;stroke:#ff0000;stroke-width:1pt;stroke-opacity:1"
         d="M 0,0 5,-5 -12.5,0 5,5 Z"
         id="path991" />
    </marker>
    <marker
       style="overflow:visible"
       id="marker947"
       refX="0"
       refY="0"
       orient="auto"
       inkscape:stockid="Arrow1Lend"
       inkscape:isstock="true">
      <path
         transform="matrix(-0.8,0,0,-0.8,-10,0)"
         style="fill:#ff0000;fill-opacity:1;fill-rule:evenodd;stroke:#ff0000;stroke-width:1pt;stroke-opacity:1"
         d="M 0,0 5,-5 -12.5,0 5,5 Z"
         id="path945" />
    </marker>
    <marker
       style="overflow:visible"
       id="marker1456"
       refX="0"
       refY="0"
       orient="auto"
       inkscape:stockid="Arrow1Lend"
       inkscape:isstock="true"
       inkscape:collect="always">
      <path
         transform="matrix(-0.8,0,0,-0.8,-10,0)"
         style="fill:#ff0000;fill-opacity:1;fill-rule:evenodd;stroke:#ff0000;stroke-width:1pt;stroke-opacity:1"
         d="M 0,0 5,-5 -12.5,0 5,5 Z"
         id="path1454" />
    </marker>
    <marker
       style="overflow:visible"
       id="marker1416"
       refX="0"
       refY="0"
       orient="auto"
       inkscape:stockid="Arrow1Lstart"
       inkscape:isstock="true"
       inkscape:collect="always">
      <path
         transform="matrix(0.8,0,0,0.8,10,0)"
         style="fill:#ff0000;fill-opacity:1;fill-rule:evenodd;stroke:#ff0000;stroke-width:1pt;stroke-opacity:1"
         d="M 0,0 5,-5 -12.5,0 5,5 Z"
         id="path1414" />
    </marker>
    <marker
       style="overflow:visible"
       id="Arrow1Lend"
       refX="0"
       refY="0"
       orient="auto"
       inkscape:stockid="Arrow1Lend"
       inkscape:isstock="true"
       inkscape:collect="always">
      <path
         transform="matrix(-0.8,0,0,-0.8,-10,0)"
         style="fill:#ff0000;fill-opacity:1;fill-rule:evenodd;stroke:#ff0000;stroke-width:1pt;stroke-opacity:1"
         d="M 0,0 5,-5 -12.5,0 5,5 Z"
         id="path1115" />
    </marker>
    <marker
       style="overflow:visible"
       id="Arrow1Lstart"
       refX="0"
       refY="0"
       orient="auto"
       inkscape:stockid="Arrow1Lstart"
       inkscape:isstock="true"
       inkscape:collect="always">
      <path
         transform="matrix(0.8,0,0,0.8,10,0)"
         style="fill:#ff0000;fill-opacity:1;fill-rule:evenodd;stroke:#ff0000;stroke-width:1pt;stroke-opacity:1"
         d="M 0,0 5,-5 -12.5,0 5,5 Z"
         id="path1112" />
    </marker>
  </defs>
  <sodipodi:namedview
     pagecolor="#ffffff"
     bordercolor="#666666"
     borderopacity="1"
     objecttolerance="10"
     gridtolerance="10"
     guidetolerance="10"
     inkscape:pageopacity="0"
     inkscape:pageshadow="2"
     inkscape:window-width="1920"
     inkscape:window-height="1009"
     id="namedview265"
     showgrid="false"
     showguides="true"
     inkscape:guide-bbox="true"
     inkscape:zoom="3.9755114"
     inkscape:cx="847.1866"
     inkscape:cy="212.92858"
     inkscape:window-x="-8"
     inkscape:window-y="-8"
     inkscape:window-maximized="1"
     inkscape:current-layer="svg263"
     inkscape:document-rotation="0"
     inkscape:showpageshadow="2"
     inkscape:pagecheckerboard="0"
     inkscape:deskcolor="#d1d1d1"
     inkscape:export-bgcolor="#ffffffff">
    <sodipodi:guide
       position="675.86982,877.61099"
       orientation="1,0"
       id="guide271"
       inkscape:locked="false" />
    <sodipodi:guide
       position="798.84382,986.96999"
       orientation="1,0"
       id="guide273"
       inkscape:locked="false" />
    <sodipodi:guide
       position="878.93782,850.46999"
       orientation="1,0"
       id="guide275"
       inkscape:locked="false" />
    <sodipodi:guide
       position="821.73913,912.11703"
       orientation="1,0"
       id="guide933"
       inkscape:locked="false" />
    <sodipodi:guide
       position="968.3004,801.12889"
       orientation="1,0"
       id="guide935"
       inkscape:locked="false" />
    <sodipodi:guide
       position="991.34472,777.37102"
       orientation="1,0"
       id="guide939"
       inkscape:locked="false" />
  </sodipodi:namedview>
  <g
     id="View Layer_LineSet"
     inkscape:label="View Layer_LineSet"
     transform="translate(-282.15118,4.5088742)">
    <g
       id="strokes"
       inkscape:groupmode="layer"
       inkscape:label="strokes">
      <path
         d="m 1302.673,639.756 -0.65,9.979 -0.077,1.183 9.098,4.151 0.706,0.323 9.098,4.151 9.098,4.152 9.097,4.151 9.098,4.151 9.097,4.151 9.098,4.152 9.098,4.151 9.097,4.151 9.098,4.152 9.098,4.151 9.097,4.151 9.098,4.152 9.097,4.151 9.098,4.151 9.098,4.152 9.72,4.435 -0.957,9.954 -0.723,7.517 10,-0.104 9.999,-0.103 10,-0.103 9.999,-0.104 10,-0.103 7.562,-0.078 7.864,-0.082 -2.917,-2.814 -7.196,-6.943 -7.197,-6.944 -7.196,-6.943 -7.197,-6.943 -7.196,-6.944 -7.197,-6.943 -7.196,-6.943 -6.52,-6.291 -0.956,9.955 -0.75,7.793 -9.122,-4.096 -9.123,-4.096 -9.122,-4.096 -9.123,-4.096 -9.123,-4.096 -9.122,-4.096 -9.123,-4.096 -9.123,-4.096 -9.122,-4.096 -9.123,-4.096 -9.123,-4.096 -9.122,-4.096 -9.123,-4.096 -9.122,-4.096 -6.49,-2.914 -9.122,-4.096 -3.579,-1.607 -9.123,-4.096 -0.728,-0.327 -0.65,9.979 -0.08,1.23"
         fill="none"
         stroke="#000000"
         stroke-linecap="butt"
         stroke-linejoin="round"
         stroke-opacity="1"
         stroke-width="3"
         id="path163" />
      <path
         d="m 1303.403,628.547 -0.65,9.979 -0.08,1.23 -0.65,9.979 -0.077,1.183"
         fill="none"
         stroke="#000000"
         stroke-linecap="butt"
         stroke-linejoin="round"
         stroke-opacity="1"
         stroke-width="3"
         id="path165" />
      <path
         d="m 1325.955,638.673 8.908,-4.544 8.909,-4.543 8.908,-4.543 8.908,-4.544 8.908,-4.543 8.909,-4.544 8.908,-4.543 8.908,-4.544 8.909,-4.543 8.908,-4.544 6.912,-3.525 -0.866,9.962 -0.556,6.388 6.774,-7.357 6.774,-7.356 6.774,-7.356 2.33,-2.531 6.774,-7.356 6.774,-7.356 6.774,-7.356 1.81,-1.966 -9.891,-1.474 -9.891,-1.473 -9.891,-1.474 -9.89,-1.474 -0.473,-0.07 -0.866,9.962 -0.576,6.623 -5.854,2.941 -8.936,4.488 -8.936,4.489 -8.936,4.489 -8.936,4.489 -8.936,4.489 -8.935,4.489 -8.936,4.489 -8.936,4.489 -8.936,4.489 -8.936,4.489 -8.936,4.488 -5.781,2.905"
         fill="none"
         stroke="#000000"
         stroke-linecap="butt"
         stroke-linejoin="round"
         stroke-opacity="1"
         stroke-width="3"
         id="path167" />
      <path
         d="m 1313.254,632.97 0.65,-9.698 0.669,-9.978 0.668,-9.977 0.669,-9.978 0.669,-9.978 0.669,-9.977 0.669,-9.978 0.669,-9.977 0.669,-9.978 0.669,-9.978 0.211,-3.149 0.669,-9.978 0.669,-9.977 0.668,-9.978 0.669,-9.978 0.696,-10.372 9.287,3.708 6.297,2.515 -2.606,-9.655 -2.606,-9.654 -2.606,-9.655 -2.606,-9.654 -2.606,-9.655 -2.606,-9.654 -2.605,-9.655 -2.606,-9.654 -0.44,-1.63 -4.542,8.909 -4.542,8.909 -4.542,8.909 -4.542,8.909 -4.542,8.909 -4.542,8.909 -2.554,5.01 9.287,3.708 5.949,2.376 -0.63,9.98 -0.631,9.98 -0.631,9.98 -0.631,9.98 -0.639,10.119 -0.631,9.98 -0.631,9.98 -0.631,9.98 -0.631,9.98 -0.63,9.98 -0.631,9.98 -0.631,9.98 -0.631,9.981 -0.631,9.98 -0.63,9.98 -0.631,9.98 -0.631,9.98 -0.303,4.801 9.097,4.151 0.646,0.295 9.098,4.151 0.706,0.323 0.01,-0.075"
         fill="none"
         stroke="#000000"
         stroke-linecap="butt"
         stroke-linejoin="round"
         stroke-opacity="1"
         stroke-width="3"
         id="path169" />
      <path
         d="m 908.116,493.346 -9.29,3.701 -9.29,3.701 -9.29,3.701 -9.29,3.702 -9.29,3.701 -9.289,3.701 -3.682,1.466 0.207,9.998 0.207,9.998 0.206,9.998 0.207,9.998 0.207,9.998 0.206,9.998 0.207,9.998 0.207,9.997 0.206,9.998 0.207,9.998 0.207,9.998 0.206,9.998 0.207,9.998 0.119,5.751 8.824,4.704 8.824,4.705 8.824,4.705 8.825,4.704 8.824,4.705 8.824,4.704 8.824,4.705 8.824,4.704 8.825,4.705 8.824,4.705 8.824,4.704 6.271,3.343 9.043,-4.269 9.043,-4.269 9.043,-4.269 9.043,-4.268 9.043,-4.269 9.043,-4.269 9.043,-4.269 9.043,-4.269 9.043,-4.269 9.043,-4.269 9.043,-4.269 9.043,-4.269 1.726,-0.815 0.201,-9.998 0.2,-9.998 0.2,-9.998 0.2,-9.998 0.201,-9.998 0.2,-9.998 0.2,-9.998 0.2,-9.998 0.201,-9.998 0.2,-9.998 0.2,-9.998 0.2,-9.998 0.201,-9.998 0.119,-5.966 -9.126,-4.088 -9.126,-4.088 -9.126,-4.089 -9.126,-4.088 -9.126,-4.089 -9.126,-4.088 -4.588,-2.056"
         fill="none"
         stroke="#000000"
         stroke-linecap="butt"
         stroke-linejoin="round"
         stroke-opacity="1"
         stroke-width="3"
         id="path171" />
      <path
         d="m 1067.803,519.854 -9.194,3.935 -9.193,3.934 -9.194,3.935 -9.193,3.934 -9.194,3.934 -9.193,3.935 -9.194,3.934 -9.193,3.934 -9.194,3.935 -9.193,3.934 -9.194,3.934 -9.193,3.935 -2.782,1.19"
         fill="none"
         stroke="#000000"
         stroke-linecap="butt"
         stroke-linejoin="round"
         stroke-opacity="1"
         stroke-width="3"
         id="path173" />
      <path
         d="m 848.695,517.019 9.004,4.352 9.003,4.352 9.004,4.352 9.003,4.352 9.004,4.352 9.003,4.352 9.003,4.351 9.004,4.352 9.003,4.352 9.004,4.352 9.003,4.352 6.966,3.367 0.01,10 0.01,10 0.01,10 0.01,10 0.01,10 0.01,10 0.01,10 0.01,10 0.01,10 0.009,10 0.01,10 0.01,10 0.01,10 0.01,9.579"
         fill="none"
         stroke="#000000"
         stroke-linecap="butt"
         stroke-linejoin="round"
         stroke-opacity="1"
         stroke-width="3"
         id="path175" />
      <path
         d="m 776.065,460.964 -9.37,3.495 -9.369,3.495 -9.37,3.494 -9.369,3.495 -9.37,3.495 -9.369,3.494 -9.369,3.495 -9.37,3.495 -9.369,3.495 -9.37,3.494 -9.369,3.495 -9.37,3.495 -9.369,3.495 -9.37,3.494 -9.369,3.495 -9.37,3.495 -9.369,3.495 -9.37,3.494 -9.369,3.495 -9.37,3.495 -9.369,3.494 -9.369,3.495 -9.37,3.495 -9.369,3.495 -9.37,3.494 -9.369,3.495 -9.37,3.495 -9.369,3.495 -9.37,3.494 -9.369,3.495 -9.37,3.495 -9.369,3.494 -9.37,3.495 -9.369,3.495 -9.37,3.495 -9.369,3.494 -9.369,3.495 -9.37,3.495 -9.369,3.495 -9.37,3.494 -9.369,3.495 -9.37,3.495 -9.369,3.494 -9.37,3.495 -9.369,3.495 -9.37,3.495 -9.369,3.494 -9.37,3.495 -9.369,3.495 -9.37,3.495 -9.369,3.494 -9.369,3.495 -5.202,1.94 8.302,5.574 8.302,5.575 8.302,5.574 8.303,5.574 8.302,5.574 8.302,5.575 8.303,5.574 8.302,5.574 8.302,5.574 8.302,5.574 8.303,5.575 8.302,5.574 8.302,5.574 8.303,5.574 8.302,5.575 8.302,5.574 8.302,5.574 8.303,5.574 8.302,5.574 8.302,5.575 8.303,5.574 8.302,5.574 8.302,5.574 8.303,5.575 8.302,5.574 8.302,5.574 8.302,5.574 8.303,5.574 8.302,5.575 8.302,5.574 8.303,5.574 8.302,5.574 8.302,5.574 8.303,5.575 8.302,5.574 8.302,5.574 8.302,5.574 8.303,5.575 8.302,5.574 8.302,5.574 8.303,5.574 8.302,5.574 8.302,5.575 8.302,5.574 8.303,5.574 8.302,5.574 8.302,5.575 8.303,5.574 8.302,5.574 8.302,5.574 8.303,5.574 8.302,5.575 8.302,5.574 8.302,5.574 8.303,5.574 8.302,5.575 8.302,5.574 8.303,5.574 8.302,5.574 8.302,5.574 8.302,5.575 8.303,5.574 8.302,5.574 8.302,5.574 8.303,5.574 8.302,5.575 8.302,5.574 8.303,5.574 8.302,5.574 8.302,5.575 8.302,5.574 8.303,5.574 8.302,5.574 8.302,5.574 8.303,5.575 8.302,5.574 8.302,5.574 8.728,5.86 8.631,-5.051 8.63,-5.052 8.63,-5.051 8.631,-5.051 8.63,-5.051 8.631,-5.052 8.63,-5.051 8.631,-5.051 8.63,-5.052 8.63,-5.051 8.631,-5.051 8.63,-5.052 8.631,-5.051 8.63,-5.051 8.631,-5.051 8.63,-5.052 8.63,-5.051 8.631,-5.051 8.63,-5.052 8.631,-5.051 8.63,-5.051 8.631,-5.052 8.63,-5.051 8.63,-5.051 8.631,-5.051 8.63,-5.052 8.631,-5.051 8.63,-5.051 8.631,-5.052 8.63,-5.051 8.63,-5.051 8.631,-5.052 8.63,-5.051 8.631,-5.051 8.63,-5.051 8.631,-5.052 8.63,-5.051 8.63,-5.051 8.631,-5.052 8.63,-5.051 8.631,-5.051 8.63,-5.052 8.631,-5.051 8.63,-5.051 8.631,-5.052 8.63,-5.051 8.63,-5.051 8.631,-5.051 8.63,-5.052 8.631,-5.051 8.63,-5.051 8.631,-5.052 8.63,-5.051 8.63,-5.051 8.631,-5.052 8.63,-5.051 8.631,-5.051 8.63,-5.051 8.63,-5.052 8.631,-5.051 8.63,-5.051 8.631,-5.052 8.63,-5.051 8.631,-5.051 8.63,-5.052 8.631,-5.051 12.551,-7.346"
         fill="none"
         stroke="#000000"
         stroke-linecap="butt"
         stroke-linejoin="round"
         stroke-opacity="1"
         stroke-width="3"
         id="path177" />
      <path
         d="m 1518.762,736.077 8.631,-5.051 8.63,-5.051 8.631,-5.052 8.63,-5.051 8.631,-5.051 8.63,-5.052 8.63,-5.051 8.631,-5.051 8.63,-5.051 8.631,-5.052 8.63,-5.051 8.631,-5.051 8.63,-5.052 8.63,-5.051 2.264,-1.325 -9.234,-3.838 -9.234,-3.838 -9.234,-3.838 -9.235,-3.837 -9.234,-3.838 -9.234,-3.838 -9.234,-3.838 -9.234,-3.838 -9.235,-3.838 -9.234,-3.838 -9.234,-3.838 -9.234,-3.837 -9.235,-3.838 -9.234,-3.838 -9.234,-3.838 -9.234,-3.838 -9.234,-3.838 -9.235,-3.838 -9.234,-3.837 -9.234,-3.838 -9.234,-3.838 -4.754,-1.976"
         fill="none"
         stroke="#000000"
         stroke-linecap="butt"
         stroke-linejoin="round"
         stroke-opacity="1"
         stroke-width="3"
         id="path179" />
      <path
         d="m 1114.873,205.353 -1.96,-8.567 -1.606,-7.025 -1.807,-0.596 -1.983,-0.653 -0.357,-0.118 -4.589,-1.514 -9.517,3.069 -9.518,3.07 -0.732,0.236 -0.632,0.204 -1.259,0.406 -0.856,3.532 -0.181,0.744 -1.144,4.719"
         fill="none"
         stroke="#000000"
         stroke-linecap="butt"
         stroke-linejoin="round"
         stroke-opacity="1"
         stroke-width="3"
         id="path181" />
      <path
         d="m 1037.013,231.262 -1.599,6.679 -2.328,9.725 -2.329,9.725 -2.328,9.725 -1.627,6.799 9.382,3.46 9.382,3.461 9.382,3.46 9.382,3.46 2.916,1.076 9.433,-3.322 9.432,-3.322 9.432,-3.322 9.432,-3.322 9.432,-3.321 9.432,-3.322 5.152,-1.814 -2.039,-8.914 -2.229,-9.748 -2.23,-9.749 -2.229,-9.748 -1.683,-7.357"
         fill="none"
         stroke="#000000"
         stroke-linecap="butt"
         stroke-linejoin="round"
         stroke-opacity="1"
         stroke-width="3"
         id="path183" />
      <path
         d="m 1111.307,189.761 -9.512,3.086 -9.512,3.086 -2.636,0.855"
         fill="none"
         stroke="#000000"
         stroke-linecap="butt"
         stroke-linejoin="round"
         stroke-opacity="1"
         stroke-width="3"
         id="path185" />
      <path
         d="m 1080.913,193.865 1.472,0.492 0.392,0.132 3.082,1.031 3.788,1.268 -1.043,4.288 -0.967,3.973 -1.351,5.549 -0.026,0.11 -1.086,4.462 -0.015,0.061 -2.365,9.716 -2.364,9.716 -2.365,9.717 -0.192,0.789 -2.29,9.409 -2.006,8.241 -2.364,9.716 -2.365,9.717 -1.602,6.58"
         fill="none"
         stroke="#000000"
         stroke-linecap="butt"
         stroke-linejoin="round"
         stroke-opacity="1"
         stroke-width="3"
         id="path187" />
      <path
         d="m 1078.732,202.86 -0.01,0.035 -1.074,4.431 -2.357,9.719 -2.357,9.718 -2.357,9.718 -1.639,6.757 -0.76,3.134 -0.491,2.022 -0.093,0.384 -0.569,2.348 -0.405,1.67 -0.018,0.075 -1.958,8.073 -1.311,5.402 -9.404,-3.4 -9.404,-3.401 -4.71,-1.703"
         fill="none"
         stroke="#000000"
         stroke-linecap="butt"
         stroke-linejoin="round"
         stroke-opacity="1"
         stroke-width="3"
         id="path189" />
      <path
         d="m 1060.696,250.765 -9.471,3.21 -9.47,3.21 -1.939,0.657 2.336,-9.723 1.505,-6.263"
         fill="none"
         stroke="#000000"
         stroke-linecap="butt"
         stroke-linejoin="round"
         stroke-opacity="1"
         stroke-width="3"
         id="path191" />
      <path
         d="m 954.211,233.176 -9.999,0.066 -1.061,0.008 -9.992,0.404 -9.992,0.404 -1.433,0.058 -9.972,0.747 -9.972,0.747 -1.199,0.09 -9.94,1.101 -9.939,1.1 -0.83,0.092 -9.892,1.47 -9.891,1.471 -0.33,0.049 -9.825,1.862 -9.532,1.806 -9.736,2.284 -8.706,2.043 -9.615,2.745 -7.753,2.214 -9.455,3.257 -6.686,2.303 -9.237,3.832 -5.524,2.293 -8.935,4.49 -4.298,2.159 -8.513,5.247 -3.051,1.88 -7.909,6.12 -1.851,1.432 -7.031,7.111 -0.798,0.807 -5.786,8.221 -3.641,8.454 -1.411,8.612 0.428,9.991 0.429,9.99 0.429,9.991 0.428,9.991 0.429,9.991 0.429,9.991 0.428,9.99 0.429,9.991 0.062,1.443 0.899,9.19 3.207,9.179 5.207,8.538 0.327,0.537 6.629,7.486 1.227,1.385 7.639,6.453 2.507,2.117 8.345,5.509 4.028,2.659 8.841,4.673 3.242,1.714 2.425,1.282 9.192,3.936 7.326,3.136 9.446,3.283 8.928,3.103 9.629,2.697 9.63,2.698 0.786,0.22 9.763,2.164 9.763,2.164 1.976,0.439 9.86,1.671 9.859,1.672 3.004,0.51 9.926,1.209 9.927,1.209 3.828,0.467 6.783,0.522 9.97,0.767 7.609,0.586 6.464,0.219 9.995,0.339 8.294,0.282 9.999,-0.085 0.865,-0.007 10,-0.084 3.98,-0.033 8.81,-0.449 9.987,-0.509 5.84,-0.297 8.53,-0.807 9.955,-0.941 5.647,-0.534 9.903,-1.39 9.903,-1.39 3.536,-0.496 9.825,-1.863 9.825,-1.863 2.631,-0.499 9.715,-2.369 9.715,-2.369 1.535,-0.374 9.564,-2.921 9.564,-2.921 0.295,-0.09 9.356,-3.53 8.32,-3.14 9.069,-4.213 6.689,-3.108 2.364,-1.36 8.668,-4.987 2.664,-1.533 8.101,-5.863 3.421,-2.477 7.29,-6.845 1.978,-1.857 6.134,-7.897 0.828,-1.067 4.528,-8.916 0.107,-0.211 2.314,-9.195 0.421,-9.991 0.422,-9.991 0.421,-9.991 0.422,-9.992 0.422,-9.991 0.421,-9.991 0.422,-9.991 0.422,-9.991 0.122,-2.895 -0.01,-8.66 -2.279,-8.551 -4.479,-8.363 -6.308,-7.759 -0.278,-0.343 -7.414,-6.71 -1.174,-1.063 -8.172,-5.763 -2.298,-1.62 -8.697,-4.935 -3.527,-2.001 -9.066,-4.219 -4.773,-2.222 -9.331,-3.595 -0.644,-0.248"
         fill="none"
         stroke="#000000"
         stroke-linecap="butt"
         stroke-linejoin="round"
         stroke-opacity="1"
         stroke-width="3"
         id="path193" />
      <path
         d="m 720.476,320.155 0.885,8.688 3.227,8.68 5.459,8.379 0.132,0.203 6.878,7.26 1.073,1.133 7.851,6.194 2.427,1.915 8.513,5.247 4.03,2.484 9.242,3.819 5.432,2.244 9.288,3.707 7.476,2.984 9.514,3.082 9.14,2.96 9.676,2.526 9.675,2.525 1.004,0.262 9.794,2.023 9.793,2.023 2.254,0.466 9.878,1.56 9.877,1.561 3.329,0.526 9.936,1.128 9.936,1.128 4.189,0.475 9.975,0.715 9.974,0.716 0.867,0.062 3.94,0.283 6.568,0.207 9.995,0.316 8.59,0.271 10,-0.078 9.999,-0.079 5.248,-0.041 8.952,-0.424 9.989,-0.474 6.094,-0.289 9.961,-0.878 7.929,-0.698 6.631,-0.585 9.916,-1.296 9.916,-1.297 3.884,-0.508 9.848,-1.74 9.847,-1.739 2.938,-0.519 9.752,-2.216 9.751,-2.216 1.791,-0.407 9.618,-2.737 9.618,-2.738 0.486,-0.138 9.434,-3.318 8.51,-2.992 9.176,-3.975 6.814,-2.951 8.812,-4.727 5.079,-2.725 8.288,-5.596 3.392,-2.29 7.521,-6.591 1.867,-1.636 6.393,-7.689 0.65,-0.783 4.68,-8.625 2.321,-8.687"
         fill="none"
         stroke="#000000"
         stroke-linecap="butt"
         stroke-linejoin="round"
         stroke-opacity="1"
         stroke-width="3"
         id="path195" />
      <path
         d="m 1035.414,237.941 -7.094,-0.946 -9.954,-0.958 -9.954,-0.959 -0.986,-0.095 -9.982,-0.609 -9.981,-0.61 -1.305,-0.08 -9.996,-0.269 -9.661,-0.26"
         fill="none"
         stroke="#000000"
         stroke-linecap="butt"
         stroke-linejoin="round"
         stroke-opacity="1"
         stroke-width="3"
         id="path197" />
      <path
         d="m 932.159,494.918 0.052,10 0.051,10 0.009,1.735 0.026,1.111 0.276,1.106 0.522,1.089 0.765,1.062 1.001,1.026 1.228,0.977 1.442,0.921 1.645,0.854 1.83,0.78 1.998,0.698 2.147,0.608 2.275,0.512 2.38,0.412 2.463,0.307 2.52,0.199 2.554,0.088 2.561,-0.022 1.4,-0.073 1.143,-0.06 2.501,-0.242 2.434,-0.349 2.343,-0.452 2.228,-0.551 2.092,-0.645 1.935,-0.731 1.761,-0.81 1.568,-0.882 1.361,-0.945 1.142,-0.998 0.911,-1.041 0.672,-1.074 0.427,-1.098 0.179,-1.109 0.045,-10 0.045,-10 0.011,-2.44"
         fill="none"
         stroke="#000000"
         stroke-linecap="butt"
         stroke-linejoin="round"
         stroke-opacity="1"
         stroke-width="3"
         id="path199" />
      <path
         d="m 1075.911,151.635 -2.774,0.682 -3.746,1.386 -3.728,1.845 -3.672,2.286 -3.58,2.706 -3.451,3.099 -3.288,3.464 -0.565,0.668 -2.991,3.669 -2.769,3.952 -2.521,4.195 -2.246,4.396 -1.95,4.553 -1.632,4.663 -1.3,4.727 -0.955,4.744 -0.6,4.713 -0.24,4.635 -0.013,0.819 0.125,4.661 0.497,4.486 0.862,4.267 1.217,4.007 0.422,1.004 1.138,2.704 1.885,3.373 0.983,1.349 1.208,1.658 1.43,1.51 1.045,1.104 2.732,2.195 2.963,1.759 3.163,1.306 7.136,2.545 5.907,2.106"
         fill="none"
         stroke="#000000"
         stroke-linecap="butt"
         stroke-linejoin="round"
         stroke-opacity="1"
         stroke-width="3"
         id="path201" />
      <path
         d="m 1121.113,212.007 1.195,-4.242 0.976,-4.64 0.643,-4.621 0.301,-4.557 -0.01,-0.858 -0.035,-3.594 -0.061,-0.931 -0.4,-4.443 -0.143,-0.807 -0.61,-3.442 -1.1,-4.016 -1.438,-3.742 -1.764,-3.435 -2.074,-3.091 -2.366,-2.718 -2.637,-2.318 -2.883,-1.892 -3.104,-1.447 -9.525,-3.043 -5.202,-1.662 -3.299,-0.988 -3.457,-0.518 -0.409,-0.005"
         fill="none"
         stroke="#000000"
         stroke-linecap="butt"
         stroke-linejoin="round"
         stroke-opacity="1"
         stroke-width="3"
         id="path203" />
      <path
         d="m 1055.007,238.463 1.432,2.588 0.382,0.69 2.11,2.921 2.385,2.538 2.637,2.131 2.861,1.707 0.212,0.088"
         fill="none"
         stroke="#000000"
         stroke-linecap="butt"
         stroke-linejoin="round"
         stroke-opacity="1"
         stroke-width="3"
         id="path205" />
      <path
         d="m 1066.621,252.796 -1.723,-0.712 -2.956,-1.76 -2.725,-2.199 -2.466,-2.619 -2.182,-3.015 -1.081,-1.951 -0.794,-1.433 -1.549,-3.719 -1.206,-4.021 -0.85,-4.284 -0.484,-4.503 -0.113,-4.68 0.261,-4.811 0.632,-4.892 0.984,-4.846 0.016,-0.08 1.356,-4.909 1.699,-4.844 2.027,-4.729 1.871,-3.664 0.461,-0.903 2.616,-4.359 0.509,-0.728 2.363,-3.38 3.099,-3.814 3.295,-3.484 3.457,-3.119 2.535,-1.927 1.05,-0.797 3.676,-2.302 3.147,-1.569 0.584,-0.291 3.748,-1.399 3.728,-0.927 3.672,-0.448 3.58,0.034 3.454,0.514 3.293,0.987"
         fill="none"
         stroke="#000000"
         stroke-linecap="butt"
         stroke-linejoin="round"
         stroke-opacity="1"
         stroke-width="3"
         id="path207" />
      <path
         d="m 1120.609,173.56 -1.708,-3.325 -2.01,-2.993 -2.292,-2.631 -2.553,-2.243 -2.793,-1.83 -3.005,-1.4 -3.19,-0.952 -3.344,-0.495 -3.466,-0.031 -3.555,0.436 -3.609,0.901 -3.628,1.357 -1.966,0.981 -1.646,0.822 -3.558,2.231 -2.673,2.033 -0.797,0.606 -3.346,3.021 -3.189,3.375 -3,3.694 -0.577,0.825 -2.203,3.152 -2.532,4.221 -0.301,0.589 -1.958,3.834 -1.962,4.579 -1.646,4.689 -1.314,4.754 -0.079,0.39 -0.89,4.379 -0.614,4.737 -0.255,4.658 0.108,4.532 0.466,4.361 0.821,4.148 1.165,3.895 1.497,3.603"
         fill="none"
         stroke="#000000"
         stroke-linecap="butt"
         stroke-linejoin="round"
         stroke-opacity="1"
         stroke-width="3"
         id="path209" />
      <path
         d="m 1051.672,167.103 -3.09,3.793 -2.863,4.084 -2.605,4.337 -2.322,4.543 -2.015,4.706 -1.688,4.821 -1.344,4.886 -0.987,4.903 -0.62,4.871 -0.248,4.79"
         fill="none"
         stroke="#000000"
         stroke-linecap="butt"
         stroke-linejoin="round"
         stroke-opacity="1"
         stroke-width="3"
         id="path211" />
      <path
         d="m 1124.185,189.495 -0.387,-4.304 -0.326,-1.842 -0.403,-2.274 -1.066,-3.89 -1.394,-3.625"
         fill="none"
         stroke="#000000"
         stroke-linecap="butt"
         stroke-linejoin="round"
         stroke-opacity="1"
         stroke-width="3"
         id="path213" />
      <path
         d="m 1104.072,200.752 -0.631,-0.177 -0.661,-0.086 -0.683,0.005 -0.7,0.097 -0.658,0.175 -0.051,0.013 -0.05,0.02 -0.661,0.257 -0.707,0.363 -0.696,0.446 -0.678,0.524 -0.653,0.598 -0.623,0.666 -0.075,0.093 -0.51,0.634 -0.543,0.782 -0.495,0.828 -0.148,0.291 -0.294,0.576 -0.385,0.897 -0.325,0.919 -0.228,0.817 -0.032,0.114 -0.194,0.935 -0.126,0.929 -0.056,0.915 0.01,0.57 v 0.322 l 0.084,0.859 0.152,0.819 0.221,0.771 0.285,0.715 0.348,0.653 0.407,0.584 0.462,0.51 0.513,0.43 0.558,0.347 0.599,0.26"
         fill="none"
         stroke="#000000"
         stroke-linecap="butt"
         stroke-linejoin="round"
         stroke-opacity="1"
         stroke-width="3"
         id="path215" />
      <path
         d="m 1112.542,219.519 -0.337,0.343 -0.65,0.599 -0.674,0.527 -0.377,0.244 -0.316,0.205 -0.704,0.366 -0.709,0.282 -0.707,0.193 -0.699,0.102 -0.682,0.011 -0.661,-0.08 -0.633,-0.171 -0.597,-0.26 -0.558,-0.347 -0.512,-0.431 -0.461,-0.511 -0.406,-0.584 -0.346,-0.654 -0.285,-0.717 -0.218,-0.772 -0.152,-0.821 -0.082,-0.862 -0.01,-0.322 -0.01,-0.571 0.057,-0.917 0.127,-0.932 0.196,-0.937 0.261,-0.934 0.326,-0.922 0.386,-0.899 0.444,-0.87 0.496,-0.83 0.543,-0.784 0.512,-0.636 0.075,-0.094 0.623,-0.668 0.654,-0.6 0.678,-0.527 0.697,-0.447 0.707,-0.365 0.712,-0.278 0.708,-0.189 0.7,-0.098 0.683,-0.006 0.66,0.085 0.631,0.177 0.596,0.265 0.555,0.353 0.508,0.435 0.458,0.514 0.116,0.169 0.286,0.418 0.342,0.656 0.28,0.718 0.215,0.772 0.148,0.82 0.079,0.859 0.046,0.782"
         fill="none"
         stroke="#000000"
         stroke-linecap="butt"
         stroke-linejoin="round"
         stroke-opacity="1"
         stroke-width="3"
         id="path217" />
      <path
         d="m 1116.267,210.378 -0.064,-0.695 -0.127,-0.704 -0.184,-0.663 -0.241,-0.615 -0.294,-0.563 -0.115,-0.168 -0.23,-0.337 -0.392,-0.44 -0.437,-0.374 -0.476,-0.301 -0.511,-0.228 -0.542,-0.151 -0.566,-0.073 -0.586,0.005 -0.601,0.085 -0.608,0.162 -0.61,0.239 -0.607,0.314 -0.597,0.384 -0.582,0.452 -0.561,0.515 -0.108,0.116 -0.427,0.458 -0.503,0.626 -0.466,0.673 -0.426,0.713 -0.38,0.746 -0.332,0.772"
         fill="none"
         stroke="#000000"
         stroke-linecap="butt"
         stroke-linejoin="round"
         stroke-opacity="1"
         stroke-width="3"
         id="path219" />
      <path
         d="m 1104.694,211.326 -0.279,0.79 -0.225,0.801 -0.168,0.805 -0.109,0.799 -0.05,0.787 0.011,0.767 0.048,0.515 0.022,0.224 0.129,0.705 0.188,0.663 0.243,0.615 0.297,0.561 0.348,0.502 0.396,0.439 0.439,0.37 0.478,0.298 0.512,0.224 0.543,0.147 0.567,0.069 0.586,-0.01 0.599,-0.087 0.607,-0.166 0.608,-0.241 0.605,-0.315 0.595,-0.386 0.579,-0.452 0.258,-0.238"
         fill="none"
         stroke="#000000"
         stroke-linecap="butt"
         stroke-linejoin="round"
         stroke-opacity="1"
         stroke-width="3"
         id="path221" />
      <path
         d="m 1112.64,203.617 -4.914,-1.643 -1.809,-0.605 -0.453,-0.152 -1.392,-0.465"
         fill="none"
         stroke="#000000"
         stroke-linecap="butt"
         stroke-linejoin="round"
         stroke-opacity="1"
         stroke-width="3"
         id="path223" />
      <path
         d="m 1096.852,219.223 1.538,0.526 2.24,0.765 4.763,1.626"
         fill="none"
         stroke="#000000"
         stroke-linecap="butt"
         stroke-linejoin="round"
         stroke-opacity="1"
         stroke-width="3"
         id="path225" />
      <path
         d="m 1087.347,126.42 -0.204,9.246 8.649,2.717 0.235,-9.998 0.236,-9.997 0.235,-9.997 0.122,-5.168 9.114,2.753 3.389,0.816 3.09,0.326 2.792,-0.14 2.497,-0.579 2.205,-0.994 1.914,-1.381 1.626,-1.744 1.342,-2.08 1.059,-2.39 0.779,-2.672 0.503,-2.927 0.23,-3.156 -0.037,-3.276 -0.304,-3.226 -0.576,-3.146 -0.852,-3.038 -1.135,-2.901 -1.42,-2.735 -1.711,-2.54 -2.005,-2.317 -2.303,-2.065 -2.604,-1.785 -2.909,-1.477 -3.216,-1.141 -9.614,-2.751 -9.529,-2.726 -0.22,9.998 -0.221,9.997 -0.22,9.998 -0.221,9.997 -0.22,9.998 -0.22,9.998 -0.085,3.828"
         fill="none"
         stroke="#000000"
         stroke-linecap="butt"
         stroke-linejoin="round"
         stroke-opacity="1"
         stroke-width="3"
         id="path227" />
      <path
         d="m 1097.47,67.146 9.605,2.783 0.741,0.215 1.892,0.682 1.665,0.868 1.449,1.033 1.243,1.175 1.049,1.298 0.867,1.397 0.694,1.475 0.535,1.532 0.387,1.566 0.249,1.58 0.125,1.572 0.011,1.542 -0.141,1.967 -0.309,1.764 -0.468,1.559 -0.621,1.351 -0.767,1.142 -0.906,0.931 -1.037,0.718 -1.163,0.502 -1.281,0.286 -1.391,0.066 -1.496,-0.155 -1.594,-0.377 -9.582,-2.86 -0.357,-0.107 0.235,-9.997 0.236,-9.997 0.13,-5.511"
         fill="none"
         stroke="#000000"
         stroke-linecap="butt"
         stroke-linejoin="round"
         stroke-opacity="1"
         stroke-width="3"
         id="path229" />
      <path
         d="m 1039.187,344.841 -7.134,-7.007 -7.134,-7.008 -7.134,-7.007 -1.029,-1.011 -0.081,7.965 -9.317,-3.634 -9.317,-3.633 -9.316,-3.633 -9.317,-3.633 -7.453,-2.907 -9.317,-3.633 -0.8,-0.312 -0.099,-0.039 -3.682,-1.436 10e-4,1.462 10e-4,3.679"
         fill="none"
         stroke="#000000"
         stroke-linecap="butt"
         stroke-linejoin="round"
         stroke-opacity="1"
         stroke-width="3"
         id="path231" />
      <path
         d="m 1039.655,284.685 -9.725,-2.329 -9.725,-2.329 -2.23,-0.535 -0.08,7.714 -9.45,3.27 -9.45,3.271 -9.45,3.27 -9.45,3.27 -9.45,3.27 -8.806,3.047"
         fill="none"
         stroke="#000000"
         stroke-linecap="butt"
         stroke-linejoin="round"
         stroke-opacity="1"
         stroke-width="3"
         id="path233" />
      <path
         d="m 958.057,307.913 10e-4,1.462 10e-4,3.679"
         fill="none"
         stroke="#000000"
         stroke-linecap="butt"
         stroke-linejoin="round"
         stroke-opacity="1"
         stroke-width="3"
         id="path235" />
      <path
         d="m 961.838,309.388 v -0.04 l 0.001,-2.744 0.003,-10 0.004,-10 0.003,-10 0.003,-10 0.003,-10 0.004,-10 0.003,-10 v -1.371 l 5.844,2.125 -1.205,-4.203 -2.758,-9.613 -2.757,-9.612 -2.757,-9.612 -0.208,-0.724 -3.377,9.412 -3.377,9.413 -2.844,7.928 5.788,2.104 v 0.725 l 0.011,9.999 0.01,10 0.01,10 0.01,10 0.011,10 0.01,10 0.01,10 0.006,6.228 0.003,2.175 3.767,1.476"
         fill="none"
         stroke="#000000"
         stroke-linecap="butt"
         stroke-linejoin="round"
         stroke-opacity="1"
         stroke-width="3"
         id="path237" />
      <path
         d="m 1109.901,218.621 2.62,0.891 0.01,0.002 0.014,0.005 4.803,1.632 0.207,0.07 1.029,0.35 9.469,3.217 9.468,3.217 0.513,0.174 -0.247,7.86 9.751,-2.219 9.751,-2.219 3.803,-0.866 -7.334,-6.798 -7.334,-6.798 -7.334,-6.798 -0.482,-0.447 -0.249,7.911 -9.478,-3.187 -7.765,-2.611 -0.2,-0.067 -4.644,-1.562 v 0 l -0.035,-0.012 -0.231,-0.078 -8.324,-2.799"
         fill="none"
         stroke="#000000"
         stroke-linecap="butt"
         stroke-linejoin="round"
         stroke-opacity="1"
         stroke-width="3"
         id="path239" />
      <path
         d="m 1124.22,193.089 9.505,-3.107 0.889,-0.29 -0.233,7.613 7.34,-6.792 7.34,-6.791 6.164,-5.703 -9.577,-2.88 -9.576,-2.879 -0.917,-0.276 -0.234,7.66 -9.515,3.079 -1.825,0.591"
         fill="none"
         stroke="#000000"
         stroke-linecap="butt"
         stroke-linejoin="round"
         stroke-opacity="1"
         stroke-width="3"
         id="path241" />
      <path
         d="m 1083.546,158.743 0.137,-6.386 0.03,-1.36 0.215,-9.998 0.215,-9.998 0.119,-5.54 3.085,0.959 2.853,0.887 -2.662,-9.562 -2.681,-9.634 -2.682,-9.634 -1.18,-4.242 -3.594,9.332 -3.594,9.332 -3.202,8.315 5.882,1.829 -0.201,9.998 -0.202,9.998 -0.173,8.596 -0.018,0.888"
         fill="none"
         stroke="#000000"
         stroke-linecap="butt"
         stroke-linejoin="round"
         stroke-opacity="1"
         stroke-width="3"
         id="path243" />
      <path
         d="m 1374.335,400.896 -5.777,-2.128 -0.74,9.972 -0.741,9.973 -0.74,9.972 -0.74,9.973 -0.741,9.973 -0.63,8.485 6.735,2.608 0.753,-9.972 0.753,-9.972 0.753,-9.971 0.753,-9.972 0.377,-4.993 4.646,8.855 4.647,8.856 4.646,8.855 4.646,8.855 4.647,8.855 4.646,8.855 2.537,4.834 6.304,2.441 0.828,-9.966 0.829,-9.965 0.828,-9.966 0.828,-9.966 0.828,-9.965 0.764,-9.184 -6.989,-2.575 -0.816,9.967 -0.815,9.966 -0.815,9.967 -0.815,9.967 -0.479,5.855 -4.673,-8.841 -4.672,-8.842 -4.673,-8.841 -4.672,-8.841 -4.672,-8.842 -4.673,-8.841 -2.875,-5.441"
         fill="none"
         stroke="#000000"
         stroke-linecap="butt"
         stroke-linejoin="round"
         stroke-opacity="1"
         stroke-width="3"
         id="path245" />
      <path
         d="m 922.603,165.932 -4.202,-1.444 -3.116,9.502 -3.116,9.502 -3.117,9.502 -3.116,9.502 -3.116,9.502 -1.518,4.629 5.956,2.173 3.14,-9.494 1.86,-5.623 9.413,3.376 8.122,2.913 2.824,9.593 2.799,9.507 6.105,2.227 -2.78,-9.605 -2.78,-9.606 -2.78,-9.606 -2.78,-9.606 -2.78,-9.605 -2.78,-9.606 -2.238,-7.733"
         fill="none"
         stroke="#000000"
         stroke-linecap="butt"
         stroke-linejoin="round"
         stroke-opacity="1"
         stroke-width="3"
         id="path247" />
      <path
         d="m 914.483,197.025 3.027,-9.531 2.988,-9.407 2.786,9.604 2.787,9.604 1.247,4.299 -9.421,-3.353 -3.414,-1.216"
         fill="none"
         stroke="#000000"
         stroke-linecap="butt"
         stroke-linejoin="round"
         stroke-opacity="1"
         stroke-width="3"
         id="path249" />
      <path
         d="m 1167.909,179.79 -0.363,9.993 -0.363,9.994 -0.363,9.993 -0.363,9.994 -0.363,9.993 -0.207,5.7 9.47,3.211 5.318,1.803 2.582,0.713 2.322,0.319 2.07,-0.038 1.825,-0.364 1.588,-0.654 1.359,-0.909 1.138,-1.131 0.926,-1.317 0.722,-1.468 0.525,-1.583 0.338,-1.664 0.158,-1.71 -0.01,-1.868 -0.171,-1.831 -0.331,-1.785 -0.488,-1.731 -0.638,-1.668 -0.785,-1.597 -0.927,-1.517 -1.064,-1.428 -1.195,-1.332 -1.322,-1.226 -1.444,-1.113 -1.561,-0.991 0.01,-0.165 1.112,-0.267 1.015,-0.361 0.918,-0.457 0.824,-0.554 0.73,-0.655 0.637,-0.756 0.545,-0.86 0.455,-0.966 0.365,-1.073 0.276,-1.184 0.189,-1.295 0.103,-1.408 -0.013,-1.804 -0.187,-1.841 -0.368,-1.856 -0.555,-1.845 -0.747,-1.809 -0.944,-1.748 -1.148,-1.664 -1.356,-1.553 -1.57,-1.418 -1.788,-1.26 -2.012,-1.075 -2.239,-0.866 -9.524,-3.051 -3.112,-0.997"
         fill="none"
         stroke="#000000"
         stroke-linecap="butt"
         stroke-linejoin="round"
         stroke-opacity="1"
         stroke-width="3"
         id="path251" />
      <path
         d="m 1173.878,189.046 5.747,1.855 1.356,0.512 1.197,0.604 1.044,0.686 0.899,0.761 0.759,0.826 0.629,0.883 0.505,0.933 0.388,0.972 0.28,1.005 0.178,1.029 0.085,1.043 -10e-4,1.051 -0.12,1.42 -0.242,1.251 -0.363,1.083 -0.486,0.914 -0.608,0.747 -0.732,0.578 -0.855,0.411 -0.98,0.243 -1.105,0.076 -1.23,-0.092 -1.355,-0.257 -1.482,-0.425 -4.135,-1.357 0.374,-9.993 0.253,-6.759"
         fill="none"
         stroke="#000000"
         stroke-linecap="butt"
         stroke-linejoin="round"
         stroke-opacity="1"
         stroke-width="3"
         id="path253" />
      <path
         d="m 1172.982,212.993 7.504,2.483 1.567,0.593 1.418,0.688 1.271,0.777 1.124,0.859 0.98,0.933 0.836,1.001 0.696,1.061 0.555,1.115 0.417,1.161 0.282,1.2 0.146,1.233 0.015,1.258 -0.086,1.035 -0.181,1.006 -0.286,0.955 -0.402,0.882 -0.53,0.786 -0.668,0.67 -0.817,0.531 -0.977,0.371 -1.147,0.189 -1.329,-0.014 -1.52,-0.239 -1.723,-0.485 -7.797,-2.625 0.374,-9.993 0.278,-7.431"
         fill="none"
         stroke="#000000"
         stroke-linecap="butt"
         stroke-linejoin="round"
         stroke-opacity="1"
         stroke-width="3"
         id="path255" />
      <path
         d="m 1300.071,521.985 -9.235,-3.838 -9.234,-3.838 -9.234,-3.838 -9.234,-3.838 -9.234,-3.838 -9.235,-3.837 -9.234,-3.838 -9.234,-3.838 -9.234,-3.838 -9.235,-3.838 -9.234,-3.838 -9.234,-3.838 -9.234,-3.837 -9.234,-3.838 -9.235,-3.838 -9.234,-3.838 -6.453,-2.682"
         fill="none"
         stroke="#000000"
         stroke-linecap="butt"
         stroke-linejoin="round"
         stroke-opacity="1"
         stroke-width="3"
         id="path257" />
      <path
         d="m 1417.98,570.99 -9.234,-3.838 -9.235,-3.838 -9.234,-3.838 -9.234,-3.838 -9.234,-3.838 -9.234,-3.838 -9.235,-3.838 -9.234,-3.837 -9.234,-3.838 -9.234,-3.838 -5.503,-2.287"
         fill="none"
         stroke="#000000"
         stroke-linecap="butt"
         stroke-linejoin="round"
         stroke-opacity="1"
         stroke-width="3"
         id="path259" />
    </g>
  </g>
  <path
     style="fill:#ff0000;stroke:#ff0000;stroke-width:1px;stroke-linecap:butt;stroke-linejoin:miter;stroke-opacity:1"
     d="M 675.86982,192.78116 V 26.332545"
     id="path277" />
  <path
     style="fill:#ff0000;stroke:#ff0000;stroke-width:1px;stroke-linecap:butt;stroke-linejoin:miter;stroke-opacity:1"
     d="M 798.84382,87.684345 V 10.860074"
     id="path279" />
  <path
     style="fill:#ff0000;stroke:#ff0000;stroke-width:1px;stroke-linecap:butt;stroke-linejoin:miter;stroke-opacity:1;marker-start:url(#Arrow1Lstart);marker-end:url(#Arrow1Lend)"
     d="m 675.86982,75.07876 122.974,-39.606459"
     id="path281" />
  <path
     style="fill:none;stroke:#ff0000;stroke-width:1px;stroke-linecap:butt;stroke-linejoin:miter;stroke-opacity:1"
     d="m 878.93782,235.24387 108.3373,38.00941"
     id="path283" />
  <path
     style="fill:none;stroke:#ff0000;stroke-width:1px;stroke-linecap:butt;stroke-linejoin:miter;stroke-opacity:1"
     d="m 801.39482,163.25187 186.82653,62.05754"
     id="path285"
     sodipodi:nodetypes="cc" />
  <path
     style="fill:none;stroke:#ff0000;stroke-width:1px;stroke-linecap:butt;stroke-linejoin:miter;stroke-opacity:1;marker-start:url(#marker1416);marker-end:url(#marker1456)"
     d="m 967.94572,216.60827 v 51.29899"
     id="path287" />
  <text
     xml:space="preserve"
     style="font-size:57.5048px;line-height:1.25;font-family:sans-serif;stroke-width:1"
     x="673.96527"
     y="256.49133"
     id="text1502"
     transform="rotate(-16.764962)"><tspan
       sodipodi:role="line"
       id="tspan1500"
       x="673.96527"
       y="256.49133"
       style="stroke-width:1">R</tspan></text>
  <text
     xml:space="preserve"
     style="font-size:46.7121px;line-height:1.25;font-family:sans-serif;stroke-width:0.999996"
     x="978.88336"
     y="259.89926"
     id="text1506"><tspan
       sodipodi:role="line"
       id="tspan1504"
       x="978.88336"
       y="259.89926"
       style="stroke-width:0.999996">r</tspan></text>
  <path
     style="fill:none;stroke:#ff0000;stroke-width:1px;stroke-linecap:butt;stroke-linejoin:miter;stroke-opacity:1"
     d="m 821.73913,283.14034 166.48222,60.15449"
     id="path941" />
  <path
     style="fill:none;stroke:#ff0000;stroke-width:1.0015748;stroke-linecap:butt;stroke-linejoin:miter;stroke-opacity:1;stroke-miterlimit:4;stroke-dasharray:none;marker-end:url(#marker947);marker-start:url(#marker993)"
     d="m 968.3004,337.85252 -0.35468,-69.94526"
     id="path943" />
  <text
     xml:space="preserve"
     style="font-size:46.7121px;line-height:1.25;font-family:sans-serif;stroke-width:0.999996"
     x="975.27045"
     y="322.05011"
     id="text1057"
     inkscape:transform-center-x="-4.1913493"
     inkscape:transform-center-y="11.264026"><tspan
       sodipodi:role="line"
       x="975.27045"
       y="322.05011"
       style="stroke-width:0.999996"
       id="tspan1059">l</tspan></text>
  <path
     style="fill:#ff0000;stroke:#ff0000;stroke-width:2.64567;stroke-linecap:butt;stroke-linejoin:miter;stroke-miterlimit:4;stroke-dasharray:none;stroke-opacity:1"
     d="m 790.79417,151.55743 11.44067,16.12871"
     id="path1063"
     sodipodi:nodetypes="cc" />
  <path
     style="fill:#ff0000;stroke:#ff0000;stroke-width:2.64567;stroke-linecap:butt;stroke-linejoin:miter;stroke-miterlimit:4;stroke-dasharray:none;stroke-opacity:1"
     d="m 784.8409,164.57408 24.21462,-10.12975"
     id="path1065"
     sodipodi:nodetypes="cc" />
</svg>
