<?xml version="1.0" encoding="UTF-8" standalone="no"?>
<svg
   width="136.42647mm"
   height="89.924995mm"
   viewBox="0 0 136.42647 89.924995"
   version="1.1"
   id="svg8"
   inkscape:version="1.3.2 (091e20e, 2023-11-25, custom)"
   sodipodi:docname="disco1.svg"
   inkscape:export-filename="disco1.png"
   inkscape:export-xdpi="300"
   inkscape:export-ydpi="300"
   xmlns:inkscape="http://www.inkscape.org/namespaces/inkscape"
   xmlns:sodipodi="http://sodipodi.sourceforge.net/DTD/sodipodi-0.dtd"
   xmlns="http://www.w3.org/2000/svg"
   xmlns:svg="http://www.w3.org/2000/svg"
   xmlns:rdf="http://www.w3.org/1999/02/22-rdf-syntax-ns#"
   xmlns:cc="http://creativecommons.org/ns#"
   xmlns:dc="http://purl.org/dc/elements/1.1/">
  <sodipodi:namedview
     id="base"
     pagecolor="#ffffff"
     bordercolor="#666666"
     borderopacity="1.0"
     inkscape:pageopacity="0.0"
     inkscape:pageshadow="2"
     inkscape:zoom="1.4"
     inkscape:cx="329.28571"
     inkscape:cy="203.92857"
     inkscape:document-units="mm"
     inkscape:current-layer="layer1"
     inkscape:document-rotation="0"
     showgrid="false"
     inkscape:snap-object-midpoints="true"
     showguides="true"
     inkscape:guide-bbox="true"
     inkscape:snap-others="true"
     inkscape:snap-grids="false"
     inkscape:snap-to-guides="true"
     inkscape:snap-smooth-nodes="true"
     inkscape:window-width="1920"
     inkscape:window-height="1009"
     inkscape:window-x="-8"
     inkscape:window-y="-8"
     inkscape:window-maximized="1"
     inkscape:showpageshadow="2"
     inkscape:pagecheckerboard="0"
     inkscape:deskcolor="#d1d1d1"
     inkscape:export-bgcolor="#ffffffff">
    <sodipodi:guide
       position="89.879257,36.070175"
       orientation="0,-1"
       id="guide873"
       inkscape:locked="false" />
    <sodipodi:guide
       position="9.8320373,89.924994"
       orientation="0,-1"
       id="guide909"
       inkscape:locked="false" />
  </sodipodi:namedview>
  <defs
     id="defs2" />
  <metadata
     id="metadata5">
    <rdf:RDF>
      <cc:Work
         rdf:about="">
        <dc:format>image/svg+xml</dc:format>
        <dc:type
           rdf:resource="http://purl.org/dc/dcmitype/StillImage" />
        <dc:title />
      </cc:Work>
    </rdf:RDF>
  </metadata>
  <g
     inkscape:label="Layer 1"
     inkscape:groupmode="layer"
     id="layer1"
     transform="translate(-0.591474, -51.3157)">
    <circle
       style="fill:#ffffff;stroke:#000000;stroke-width:0.5;stroke-miterlimit:4;stroke-dasharray:none"
       id="path833"
       cx="90.470734"
       cy="105.17056"
       r="22.584274" />
    <g
       id="g871"
       transform="translate(3.7417734,-31.003265)"
       style="stroke-width:0.5;stroke-miterlimit:4;stroke-dasharray:none">
      <path
         style="fill:none;stroke:#000000;stroke-width:0.5;stroke-linecap:butt;stroke-linejoin:miter;stroke-miterlimit:4;stroke-dasharray:none;stroke-opacity:1"
         d="M 35.012307,159.02537 H 125.88395"
         id="path835" />
      <path
         style="fill:none;stroke:#000000;stroke-width:0.5;stroke-linecap:butt;stroke-linejoin:miter;stroke-miterlimit:4;stroke-dasharray:none;stroke-opacity:1"
         d="M 35.012307,159.02537 42.571921,172.119"
         id="path837" />
      <path
         style="fill:none;stroke:#000000;stroke-width:0.5;stroke-linecap:butt;stroke-linejoin:miter;stroke-miterlimit:4;stroke-dasharray:none;stroke-opacity:1"
         d="M 44.537313,159.02537 52.096927,172.119"
         id="path839" />
      <path
         style="fill:none;stroke:#000000;stroke-width:0.5;stroke-linecap:butt;stroke-linejoin:miter;stroke-miterlimit:4;stroke-dasharray:none;stroke-opacity:1"
         d="M 55.120653,159.02537 62.680267,172.119"
         id="path841" />
      <path
         style="fill:none;stroke:#000000;stroke-width:0.5;stroke-linecap:butt;stroke-linejoin:miter;stroke-miterlimit:4;stroke-dasharray:none;stroke-opacity:1"
         d="M 65.174826,159.02537 72.73444,172.119"
         id="path843" />
      <path
         style="fill:none;stroke:#000000;stroke-width:0.5;stroke-linecap:butt;stroke-linejoin:miter;stroke-miterlimit:4;stroke-dasharray:none;stroke-opacity:1"
         d="M 75.228999,159.02537 82.788613,172.119"
         id="path845" />
      <path
         style="fill:none;stroke:#000000;stroke-width:0.5;stroke-linecap:butt;stroke-linejoin:miter;stroke-miterlimit:4;stroke-dasharray:none;stroke-opacity:1"
         d="M 84.224838,159.02537 91.784452,172.119"
         id="path847" />
      <path
         style="fill:none;stroke:#000000;stroke-width:0.5;stroke-linecap:butt;stroke-linejoin:miter;stroke-miterlimit:4;stroke-dasharray:none;stroke-opacity:1"
         d="M 93.220677,159.02537 100.78029,172.119"
         id="path849" />
      <path
         style="fill:none;stroke:#000000;stroke-width:0.5;stroke-linecap:butt;stroke-linejoin:miter;stroke-miterlimit:4;stroke-dasharray:none;stroke-opacity:1"
         d="m 101.68736,159.02537 7.55965,13.09363"
         id="path851" />
      <path
         style="fill:none;stroke:#000000;stroke-width:0.5;stroke-linecap:butt;stroke-linejoin:miter;stroke-miterlimit:4;stroke-dasharray:none;stroke-opacity:1"
         d="M 110.68325,159.02537 118.2429,172.119"
         id="path853" />
      <path
         style="fill:none;stroke:#000000;stroke-width:0.5;stroke-linecap:butt;stroke-linejoin:miter;stroke-miterlimit:4;stroke-dasharray:none;stroke-opacity:1"
         d="m 119.14997,159.02537 7.55965,13.09363"
         id="path855" />
      <path
         style="fill:none;stroke:#000000;stroke-width:0.5;stroke-linecap:butt;stroke-linejoin:miter;stroke-miterlimit:4;stroke-dasharray:none;stroke-opacity:1"
         d="m 125.50001,159.02537 7.55965,13.09363"
         id="path857" />
    </g>
    <path
       style="fill:#ff0000;stroke:#ff0000;stroke-width:0.5;stroke-linecap:butt;stroke-linejoin:miter;stroke-miterlimit:4;stroke-dasharray:none;stroke-opacity:1"
       d="M 10.423511,105.17056 V 66.817382"
       id="path875" />
    <path
       style="fill:#ff0000;stroke:#ff0000;stroke-width:0.5;stroke-linecap:butt;stroke-linejoin:miter;stroke-miterlimit:4;stroke-dasharray:none;stroke-opacity:1"
       d="M 10.423511,105.17056 H 46.504896"
       id="path877" />
    <path
       style="fill:#ff0000;stroke:#ff0000;stroke-width:0.5;stroke-linecap:butt;stroke-linejoin:miter;stroke-miterlimit:4;stroke-dasharray:none;stroke-opacity:1"
       d="m 46.504896,105.17056 -4.276312,-1.46998 0.133636,3.07359 z"
       id="path879" />
    <path
       style="fill:#ff0000;stroke:#ff0000;stroke-width:0.5;stroke-linecap:butt;stroke-linejoin:miter;stroke-miterlimit:4;stroke-dasharray:none;stroke-opacity:1"
       d="M 10.423511,66.817382 8.41899,71.360963 h 3.741773 z"
       id="path881" />
    <g
       id="g905"
       style="stroke-width:0.5;stroke-miterlimit:4;stroke-dasharray:none">
      <path
         style="fill:none;stroke:#0000ff;stroke-width:0.5;stroke-linecap:butt;stroke-linejoin:miter;stroke-miterlimit:4;stroke-dasharray:none;stroke-opacity:1"
         d="m 90.47073,105.17056 12.2944,-12.2944"
         id="path893" />
      <path
         style="fill:none;stroke:#0000ff;stroke-width:0.5;stroke-linecap:butt;stroke-linejoin:miter;stroke-miterlimit:4;stroke-dasharray:none;stroke-opacity:1"
         d="m 90.47073,105.17056 11.42577,11.42577"
         id="path895" />
      <path
         style="fill:#0000ff;stroke:#0000ff;stroke-width:0.5;stroke-linecap:butt;stroke-linejoin:miter;stroke-miterlimit:4;stroke-dasharray:none;stroke-opacity:1"
         d="m 101.8965,116.59633 -1.02411,-2.58926 -1.417405,1.46465 z"
         id="path897" />
      <path
         style="fill:#0000ff;stroke:#0000ff;stroke-width:0.5;stroke-linecap:butt;stroke-linejoin:miter;stroke-miterlimit:4;stroke-dasharray:none;stroke-opacity:1"
         d="m 102.76513,92.87616 -2.31796,0.909182 1.41741,1.228421 z"
         id="path899" />
    </g>
    <path
       style="fill:none;stroke:#000000;stroke-width:0.264583px;stroke-linecap:butt;stroke-linejoin:miter;stroke-opacity:1"
       d="M 10.423511,66.817382 V 51.315749"
       id="path907" />
    <path
       style="fill:none;stroke:#000000;stroke-width:0.264583px;stroke-linecap:butt;stroke-linejoin:miter;stroke-opacity:1"
       d="M 90.47073,105.17056 V 51.315741"
       id="path911" />
    <path
       style="fill:none;stroke:#000000;stroke-width:0.264583px;stroke-linecap:butt;stroke-linejoin:miter;stroke-opacity:1"
       d="M 10.423511,62.407434 H 90.470735"
       id="path913" />
    <path
       style="fill:#000000;stroke:#000000;stroke-width:0.264583px;stroke-linecap:butt;stroke-linejoin:miter;stroke-opacity:1"
       d="m 90.470735,62.407434 -5.142611,-1.553268 v 3.118302 z"
       id="path919" />
    <path
       style="fill:none;stroke:#000000;stroke-width:0.264583px;stroke-linecap:butt;stroke-linejoin:miter;stroke-opacity:1"
       d="m 90.470732,77.632935 c 14.711798,1.322936 25.387318,8.377375 27.537628,27.537625"
       id="path943"
       sodipodi:nodetypes="cc" />
    <path
       style="fill:#000000;stroke:#000000;stroke-width:0.264583px;stroke-linecap:butt;stroke-linejoin:miter;stroke-opacity:1"
       d="m 118.00836,105.17056 0.72341,-5.243106 -3.44903,1.039436 z"
       id="path985" />
    <path
       style="fill:#000000;stroke:#000000;stroke-width:0.264583px;stroke-linecap:butt;stroke-linejoin:miter;stroke-opacity:1"
       d="m 90.47073,105.17056 -19.269467,11.52959 5.43341,-1.41741 -1.842634,-2.97656 -3.590776,4.39397"
       id="path987" />
    <path
       style="fill:#00ffff;stroke:#00ffff;stroke-width:0.26458299;stroke-linecap:butt;stroke-linejoin:miter;stroke-opacity:1;stroke-miterlimit:4;stroke-dasharray:1.58749792, 0.52916596999999999;stroke-dashoffset:0"
       d="m 90.47073,105.17056 16.13145,16.13145"
       id="path1019" />
    <g
       inkscape:label=""
       transform="translate(48.0275,57.080036)"
       id="g1">
      <g
         fill="#000000"
         fill-opacity="1"
         id="g2"
         transform="matrix(0.352778,0,0,0.352778,-0.907036,-0.627459)">
        <g
           id="use1"
           transform="translate(1.993,10.888)">
          <path
             d="m 9.796875,-8.421875 c -0.671875,0.125 -0.921875,0.609375 -0.921875,1 0,0.5 0.40625,0.671875 0.6875,0.671875 0.625,0 1.0625,-0.546875 1.0625,-1.09375 0,-0.875 -1,-1.265625 -1.859375,-1.265625 -1.265625,0 -1.96875,1.234375 -2.15625,1.625 -0.46875,-1.546875 -1.75,-1.625 -2.125,-1.625 -2.109375,0 -3.21875,2.703125 -3.21875,3.15625 0,0.09375 0.078125,0.1875 0.21875,0.1875 0.171875,0 0.203125,-0.125 0.25,-0.203125 0.703125,-2.296875 2.09375,-2.734375 2.6875,-2.734375 0.921875,0 1.109375,0.875 1.109375,1.375 0,0.453125 -0.125,0.921875 -0.359375,1.921875 L 4.46875,-2.578125 c -0.3125,1.234375 -0.921875,2.375 -2.015625,2.375 -0.09375,0 -0.609375,0 -1.046875,-0.265625 C 2.140625,-0.625 2.3125,-1.234375 2.3125,-1.484375 2.3125,-1.90625 2,-2.140625 1.609375,-2.140625 c -0.5,0 -1.03125,0.421875 -1.03125,1.09375 0,0.859375 0.96875,1.25 1.859375,1.25 0.984375,0 1.6875,-0.78125 2.125,-1.625 0.328125,1.21875 1.359375,1.625 2.125,1.625 2.109375,0 3.234375,-2.703125 3.234375,-3.15625 0,-0.109375 -0.09375,-0.1875 -0.21875,-0.1875 -0.1875,0 -0.203125,0.109375 -0.265625,0.265625 -0.5625,1.828125 -1.75,2.671875 -2.6875,2.671875 -0.71875,0 -1.109375,-0.546875 -1.109375,-1.390625 0,-0.453125 0.078125,-0.78125 0.40625,-2.140625 l 0.734375,-2.8125 c 0.296875,-1.234375 1,-2.15625 1.953125,-2.15625 0.046875,0 0.625,0 1.0625,0.28125 z m 0,0"
             id="path2" />
        </g>
      </g>
    </g>
    <g
       inkscape:label=""
       transform="translate(13.442679,65.395512)"
       id="g3"
       style="fill:#ff0000">
      <g
         fill="#000000"
         fill-opacity="1"
         id="g4"
         transform="matrix(0.352778,0,0,0.352778,-0.901524,-0.710097)"
         style="fill:#ff0000">
        <g
           id="use3"
           transform="translate(3.293,16.341)"
           style="fill:#ff0000">
          <path
             d="m 4.734375,-14.328125 -2.546875,2.796875 0.25,0.25 2.296875,-2.234375 2.28125,2.234375 0.25,-0.25 z m 0,0"
             id="path6"
             style="fill:#ff0000" />
        </g>
      </g>
      <g
         fill="#000000"
         fill-opacity="1"
         id="g5"
         transform="matrix(0.352778,0,0,0.352778,-0.901524,-0.710097)"
         style="fill:#ff0000">
        <g
           id="use4"
           transform="translate(1.993,16.343)"
           style="fill:#ff0000">
          <path
             d="M 4.25,-6.046875 C 4.296875,-6.171875 4.8125,-7.203125 5.578125,-7.875 6.109375,-8.359375 6.8125,-8.703125 7.625,-8.703125 c 0.828125,0 1.109375,0.625 1.109375,1.453125 0,1.171875 -0.84375,3.53125 -1.25,4.640625 -0.1875,0.5 -0.296875,0.765625 -0.296875,1.140625 0,0.9375 0.640625,1.671875 1.625,1.671875 1.921875,0 2.65625,-3.03125 2.65625,-3.15625 0,-0.109375 -0.09375,-0.1875 -0.21875,-0.1875 -0.171875,0 -0.203125,0.0625 -0.296875,0.40625 -0.484375,1.703125 -1.265625,2.53125 -2.078125,2.53125 -0.203125,0 -0.53125,-0.03125 -0.53125,-0.6875 0,-0.515625 0.234375,-1.140625 0.359375,-1.421875 0.40625,-1.140625 1.28125,-3.453125 1.28125,-4.625 0,-1.25 -0.734375,-2.171875 -2.296875,-2.171875 -1.84375,0 -2.8125,1.296875 -3.1875,1.8125 -0.0625,-1.171875 -0.90625,-1.8125 -1.8125,-1.8125 -0.65625,0 -1.125,0.390625 -1.46875,1.09375 -0.375,0.75 -0.65625,1.984375 -0.65625,2.0625 0,0.09375 0.078125,0.1875 0.21875,0.1875 0.171875,0 0.1875,-0.015625 0.3125,-0.5 0.328125,-1.25 0.703125,-2.4375 1.53125,-2.4375 0.46875,0 0.640625,0.34375 0.640625,0.953125 0,0.453125 -0.203125,1.265625 -0.359375,1.90625 l -0.578125,2.234375 c -0.078125,0.390625 -0.296875,1.3125 -0.40625,1.6875 -0.140625,0.53125 -0.375,1.515625 -0.375,1.609375 0,0.296875 0.234375,0.515625 0.546875,0.515625 0.234375,0 0.53125,-0.125 0.6875,-0.4375 0.046875,-0.09375 0.234375,-0.8125 0.34375,-1.234375 l 0.453125,-1.859375 z m 0,0"
             id="path7"
             style="fill:#ff0000" />
        </g>
      </g>
      <g
         fill="#000000"
         fill-opacity="1"
         id="g6"
         transform="matrix(0.352778,0,0,0.352778,-0.901524,-0.710097)"
         style="fill:#ff0000">
        <g
           id="use5"
           transform="translate(14.069,19.441999)"
           style="fill:#ff0000">
          <path
             d="m 3.765625,1.609375 c -0.375,0.546875 -0.9375,1.03125 -1.640625,1.03125 -0.171875,0 -0.859375,-0.03125 -1.078125,-0.6875 C 1.09375,1.96875 1.15625,1.96875 1.1875,1.96875 c 0.4375,0 0.71875,-0.375 0.71875,-0.703125 C 1.90625,0.9375 1.640625,0.8125 1.421875,0.8125 1.1875,0.8125 0.6875,0.984375 0.6875,1.6875 c 0,0.734375 0.625,1.234375 1.4375,1.234375 1.4375,0 2.875,-1.3125 3.28125,-2.90625 l 1.40625,-5.59375 c 0.015625,-0.078125 0.046875,-0.15625 0.046875,-0.25 0,-0.203125 -0.171875,-0.359375 -0.390625,-0.359375 -0.125,0 -0.4375,0.0625 -0.546875,0.5 l -1.0625,4.203125 c -0.0625,0.265625 -0.0625,0.296875 -0.1875,0.453125 -0.28125,0.40625 -0.75,0.890625 -1.4375,0.890625 -0.8125,0 -0.875,-0.796875 -0.875,-1.171875 0,-0.828125 0.375,-1.921875 0.765625,-2.96875 0.15625,-0.40625 0.25,-0.609375 0.25,-0.890625 0,-0.609375 -0.4375,-1.15625 -1.140625,-1.15625 -1.3125,0 -1.84375,2.078125 -1.84375,2.203125 0,0.046875 0.046875,0.125 0.15625,0.125 C 0.671875,-4 0.6875,-4.0625 0.75,-4.265625 1.09375,-5.46875 1.640625,-6.03125 2.1875,-6.03125 c 0.140625,0 0.375,0 0.375,0.46875 0,0.375 -0.15625,0.78125 -0.375,1.328125 -0.703125,1.875 -0.703125,2.359375 -0.703125,2.703125 0,1.359375 0.984375,1.671875 1.703125,1.671875 0.40625,0 0.921875,-0.125 1.4375,-0.65625 L 4.640625,-0.5 c -0.21875,0.84375 -0.359375,1.40625 -0.875,2.109375 z m 0,0"
             id="path8"
             style="fill:#ff0000" />
        </g>
      </g>
    </g>
    <g
       inkscape:label=""
       transform="translate(46.326607,105.83896)"
       id="g13"
       style="fill:#ff0000">
      <g
         fill="#000000"
         fill-opacity="1"
         id="g8"
         transform="matrix(0.352778,0,0,0.352778,-0.901524,-0.71045)"
         style="fill:#ff0000">
        <g
           id="g7"
           transform="translate(3.293,16.341999)"
           style="fill:#ff0000">
          <path
             d="m 4.734375,-14.328125 -2.546875,2.796875 0.25,0.25 2.296875,-2.234375 2.28125,2.234375 0.25,-0.25 z m 0,0"
             id="path3"
             style="fill:#ff0000" />
        </g>
      </g>
      <g
         fill="#000000"
         fill-opacity="1"
         id="g10"
         transform="matrix(0.352778,0,0,0.352778,-0.901524,-0.71045)"
         style="fill:#ff0000">
        <g
           id="g9"
           transform="translate(1.993,16.343)"
           style="fill:#ff0000">
          <path
             d="M 4.25,-6.046875 C 4.296875,-6.171875 4.8125,-7.203125 5.578125,-7.875 6.109375,-8.359375 6.8125,-8.703125 7.625,-8.703125 c 0.828125,0 1.109375,0.625 1.109375,1.453125 0,1.171875 -0.84375,3.53125 -1.25,4.640625 -0.1875,0.5 -0.296875,0.765625 -0.296875,1.140625 0,0.9375 0.640625,1.671875 1.625,1.671875 1.921875,0 2.65625,-3.03125 2.65625,-3.15625 0,-0.109375 -0.09375,-0.1875 -0.21875,-0.1875 -0.171875,0 -0.203125,0.0625 -0.296875,0.40625 -0.484375,1.703125 -1.265625,2.53125 -2.078125,2.53125 -0.203125,0 -0.53125,-0.03125 -0.53125,-0.6875 0,-0.515625 0.234375,-1.140625 0.359375,-1.421875 0.40625,-1.140625 1.28125,-3.453125 1.28125,-4.625 0,-1.25 -0.734375,-2.171875 -2.296875,-2.171875 -1.84375,0 -2.8125,1.296875 -3.1875,1.8125 -0.0625,-1.171875 -0.90625,-1.8125 -1.8125,-1.8125 -0.65625,0 -1.125,0.390625 -1.46875,1.09375 -0.375,0.75 -0.65625,1.984375 -0.65625,2.0625 0,0.09375 0.078125,0.1875 0.21875,0.1875 0.171875,0 0.1875,-0.015625 0.3125,-0.5 0.328125,-1.25 0.703125,-2.4375 1.53125,-2.4375 0.46875,0 0.640625,0.34375 0.640625,0.953125 0,0.453125 -0.203125,1.265625 -0.359375,1.90625 l -0.578125,2.234375 c -0.078125,0.390625 -0.296875,1.3125 -0.40625,1.6875 -0.140625,0.53125 -0.375,1.515625 -0.375,1.609375 0,0.296875 0.234375,0.515625 0.546875,0.515625 0.234375,0 0.53125,-0.125 0.6875,-0.4375 0.046875,-0.09375 0.234375,-0.8125 0.34375,-1.234375 l 0.453125,-1.859375 z m 0,0"
             id="path9"
             style="fill:#ff0000" />
        </g>
      </g>
      <g
         fill="#000000"
         fill-opacity="1"
         id="g12"
         transform="matrix(0.352778,0,0,0.352778,-0.901524,-0.71045)"
         style="fill:#ff0000">
        <g
           id="g11"
           transform="translate(14.069,19.441999)"
           style="fill:#ff0000">
          <path
             d="m 6.796875,-5.859375 c -0.453125,0.09375 -0.625,0.4375 -0.625,0.703125 0,0.34375 0.265625,0.46875 0.46875,0.46875 0.4375,0 0.734375,-0.375 0.734375,-0.765625 0,-0.59375 -0.6875,-0.875 -1.296875,-0.875 -0.875,0 -1.359375,0.859375 -1.484375,1.140625 C 4.265625,-6.265625 3.375,-6.328125 3.109375,-6.328125 1.65625,-6.328125 0.875,-4.453125 0.875,-4.125 0.875,-4.078125 0.9375,-4 1.03125,-4 1.140625,-4 1.171875,-4.09375 1.203125,-4.140625 1.6875,-5.734375 2.65625,-6.03125 3.0625,-6.03125 c 0.65625,0 0.78125,0.59375 0.78125,0.9375 0,0.3125 -0.078125,0.640625 -0.265625,1.328125 l -0.484375,1.96875 c -0.203125,0.859375 -0.625,1.65625 -1.390625,1.65625 -0.0625,0 -0.421875,0 -0.734375,-0.1875 0.515625,-0.109375 0.640625,-0.53125 0.640625,-0.703125 0,-0.28125 -0.21875,-0.453125 -0.484375,-0.453125 -0.34375,0 -0.71875,0.296875 -0.71875,0.75 0,0.609375 0.671875,0.875 1.28125,0.875 0.6875,0 1.1875,-0.546875 1.484375,-1.125 0.234375,0.84375 0.9375,1.125 1.46875,1.125 1.46875,0 2.25,-1.875 2.25,-2.1875 0,-0.078125 -0.0625,-0.140625 -0.15625,-0.140625 -0.125,0 -0.140625,0.078125 -0.171875,0.1875 -0.390625,1.265625 -1.234375,1.859375 -1.875,1.859375 -0.5,0 -0.765625,-0.375 -0.765625,-0.96875 0,-0.3125 0.046875,-0.546875 0.28125,-1.484375 l 0.5,-1.953125 C 4.921875,-5.40625 5.40625,-6.03125 6.0625,-6.03125 c 0.03125,0 0.4375,0 0.734375,0.171875 z m 0,0"
             id="path10"
             style="fill:#ff0000" />
        </g>
      </g>
    </g>
    <g
       inkscape:label=""
       transform="translate(6.6391072,106.21694)"
       id="g16"
       style="fill:#ff0000">
      <g
         fill="#000000"
         fill-opacity="1"
         id="g15"
         transform="matrix(0.352778,0,0,0.352778,-1.05035,-0.551789)"
         style="fill:#ff0000">
        <g
           id="g14"
           transform="translate(1.993,16.111)"
           style="fill:#ff0000">
          <path
             d="m 15,-9.046875 c 0,-3.40625 -2.234375,-5.5 -5.125,-5.5 -4.421875,0 -8.890625,4.75 -8.890625,9.53125 0,3.234375 2.15625,5.453125 5.15625,5.453125 C 10.46875,0.4375 15,-4.09375 15,-9.046875 Z m -8.734375,9 c -1.703125,0 -3.5,-1.234375 -3.5,-4.453125 0,-1.875 0.6875,-4.953125 2.375,-7.03125 1.515625,-1.8125 3.25,-2.5625 4.625,-2.5625 1.828125,0 3.578125,1.328125 3.578125,4.296875 0,1.84375 -0.78125,4.71875 -2.171875,6.671875 -1.5,2.109375 -3.390625,3.078125 -4.90625,3.078125 z m 0,0"
             id="path13"
             style="fill:#ff0000" />
        </g>
      </g>
    </g>
    <g
       inkscape:label=""
       transform="translate(3.8042858,65.395512)"
       id="g19"
       style="fill:#ff0000">
      <g
         fill="#000000"
         fill-opacity="1"
         id="g18"
         transform="matrix(0.352778,0,0,0.352778,-1.03933,-0.706129)"
         style="fill:#ff0000">
        <g
           id="g17"
           transform="translate(1.993,16.111)"
           style="fill:#ff0000">
          <path
             d="m 15.28125,-11.9375 c 0.234375,-0.890625 0.5625,-1.515625 2.125,-1.578125 0.0625,0 0.3125,-0.01563 0.3125,-0.359375 0,-0.234375 -0.1875,-0.234375 -0.265625,-0.234375 -0.40625,0 -1.46875,0.04687 -1.875,0.04687 h -1 c -0.28125,0 -0.65625,-0.04687 -0.9375,-0.04687 -0.125,0 -0.375,0 -0.375,0.390625 0,0.203125 0.15625,0.203125 0.3125,0.203125 1.234375,0.04687 1.3125,0.515625 1.3125,0.890625 0,0.1875 -0.01563,0.25 -0.07813,0.546875 l -2.34375,9.3125 L 8.0625,-13.75 c -0.15625,-0.34375 -0.171875,-0.359375 -0.625,-0.359375 H 4.921875 c -0.421875,0 -0.609375,0 -0.609375,0.390625 0,0.203125 0.15625,0.203125 0.546875,0.203125 0.09375,0 1.3125,0 1.3125,0.1875 0,0.04687 -0.03125,0.21875 -0.0625,0.265625 l -2.75,10.953125 C 3.125,-1.09375 2.625,-0.65625 1.265625,-0.59375 c -0.109375,0 -0.3125,0.015625 -0.3125,0.390625 C 0.953125,0 1.15625,0 1.21875,0 1.625,0 2.6875,-0.046875 3.09375,-0.046875 h 1 C 4.375,-0.046875 4.734375,0 5.015625,0 c 0.15625,0 0.375,0 0.375,-0.390625 0,-0.1875 -0.203125,-0.203125 -0.28125,-0.203125 C 4.421875,-0.625 3.765625,-0.75 3.765625,-1.484375 3.765625,-1.65625 3.796875,-1.84375 3.84375,-2 L 6.625,-13.0625 c 0.125,0.21875 0.125,0.25 0.21875,0.4375 L 11.75,-0.375 C 11.859375,-0.125 11.890625,0 12.078125,0 c 0.21875,0 0.234375,-0.0625 0.3125,-0.40625 z m 0,0"
             id="path16"
             style="fill:#ff0000" />
        </g>
      </g>
    </g>
    <g
       inkscape:label=""
       transform="translate(85.825119,108.4848)"
       id="g23"
       style="fill:#0000ff">
      <g
         fill="#000000"
         fill-opacity="1"
         id="g20"
         transform="matrix(0.352778,0,0,0.352778,-1.05035,-0.552141)"
         style="fill:#0000ff">
        <g
           id="use2"
           transform="translate(1.993,16.112)"
           style="fill:#0000ff">
          <path
             d="m 15,-9.046875 c 0,-3.40625 -2.234375,-5.5 -5.125,-5.5 -4.421875,0 -8.890625,4.75 -8.890625,9.53125 0,3.234375 2.15625,5.453125 5.15625,5.453125 C 10.46875,0.4375 15,-4.09375 15,-9.046875 Z m -8.734375,9 c -1.703125,0 -3.5,-1.234375 -3.5,-4.453125 0,-1.875 0.6875,-4.953125 2.375,-7.03125 1.515625,-1.8125 3.25,-2.5625 4.625,-2.5625 1.828125,0 3.578125,1.328125 3.578125,4.296875 0,1.84375 -0.78125,4.71875 -2.171875,6.671875 -1.5,2.109375 -3.390625,3.078125 -4.90625,3.078125 z m 0,0"
             id="path4"
             style="fill:#0000ff" />
        </g>
      </g>
      <g
         fill="#000000"
         fill-opacity="1"
         id="g22"
         transform="matrix(0.352778,0,0,0.352778,-1.05035,-0.552141)"
         style="fill:#0000ff">
        <g
           id="g21"
           transform="translate(17.454,19.211)"
           style="fill:#0000ff">
          <path
             d="m 2.25,-1.0625 c -0.125,0.5 -0.15625,0.640625 -1.15625,0.640625 -0.28125,0 -0.421875,0 -0.421875,0.265625 C 0.671875,0 0.765625,0 1.046875,0 H 5.59375 c 2.890625,0 5.71875,-3 5.71875,-6.203125 0,-2.0625 -1.234375,-3.59375 -3.28125,-3.59375 H 3.421875 c -0.265625,0 -0.390625,0 -0.390625,0.265625 0,0.15625 0.125,0.15625 0.34375,0.15625 0.875,0 0.875,0.109375 0.875,0.265625 0,0.03125 0,0.109375 -0.0625,0.328125 z m 3.03125,-7.765625 c 0.125,-0.53125 0.1875,-0.546875 0.75,-0.546875 h 1.578125 c 1.34375,0 2.578125,0.71875 2.578125,2.703125 0,0.71875 -0.296875,3.21875 -1.6875,4.796875 -0.390625,0.46875 -1.484375,1.453125 -3.140625,1.453125 h -1.625 c -0.203125,0 -0.234375,0 -0.328125,-0.015625 -0.15625,0 -0.171875,-0.03125 -0.171875,-0.15625 0,-0.09375 0.03125,-0.1875 0.0625,-0.3125 z m 0,0"
             id="path5"
             style="fill:#0000ff" />
        </g>
      </g>
    </g>
    <g
       inkscape:label=""
       transform="translate(80.72244,103.19313)"
       id="g26">
      <g
         fill="#000000"
         fill-opacity="1"
         id="g25"
         transform="matrix(0.352778,0,0,0.352778,-0.901524,-0.627459)">
        <g
           id="g24"
           transform="translate(1.993,10.888)">
          <path
             d="m 8.03125,-8.453125 c -0.640625,0.125 -0.96875,0.578125 -0.96875,1.03125 0,0.5 0.390625,0.671875 0.6875,0.671875 0.578125,0 1.046875,-0.5 1.046875,-1.125 0,-0.65625 -0.640625,-1.234375 -1.671875,-1.234375 -0.828125,0 -1.78125,0.375 -2.640625,1.625 -0.140625,-1.09375 -0.96875,-1.625 -1.796875,-1.625 -0.8125,0 -1.21875,0.625 -1.46875,1.078125 -0.34375,0.734375 -0.65625,1.984375 -0.65625,2.078125 0,0.09375 0.078125,0.1875 0.21875,0.1875 0.171875,0 0.1875,-0.015625 0.3125,-0.5 0.3125,-1.234375 0.703125,-2.4375 1.53125,-2.4375 0.5,0 0.640625,0.359375 0.640625,0.953125 0,0.453125 -0.203125,1.265625 -0.359375,1.90625 l -0.578125,2.234375 c -0.078125,0.390625 -0.296875,1.3125 -0.40625,1.6875 -0.140625,0.53125 -0.375,1.515625 -0.375,1.609375 0,0.296875 0.234375,0.515625 0.546875,0.515625 0.21875,0 0.609375,-0.140625 0.734375,-0.546875 C 2.890625,-0.515625 3.65625,-3.640625 3.78125,-4.109375 3.890625,-4.5625 4,-5 4.109375,-5.453125 4.1875,-5.75 4.28125,-6.078125 4.34375,-6.34375 4.40625,-6.53125 4.953125,-7.546875 5.46875,-8 c 0.25,-0.21875 0.796875,-0.703125 1.640625,-0.703125 0.328125,0 0.65625,0.0625 0.921875,0.25 z m 0,0"
             id="path23" />
        </g>
      </g>
    </g>
    <g
       inkscape:label=""
       transform="translate(75.052798,79.191643)"
       id="g29">
      <g
         fill="#000000"
         fill-opacity="1"
         id="g28"
         transform="matrix(0.352778,0,0,0.352778,-1.04484,-0.706129)">
        <g
           id="g27"
           transform="translate(1.993,16.111)">
          <path
             d="m 3.25,-1.53125 c -0.1875,0.71875 -0.234375,0.9375 -1.6875,0.9375 -0.390625,0 -0.59375,0 -0.59375,0.359375 C 0.96875,0 1.09375,0 1.515625,0 H 8.0625 c 4.171875,0 8.234375,-4.3125 8.234375,-8.921875 0,-2.96875 -1.78125,-5.1875 -4.734375,-5.1875 h -6.625 c -0.390625,0 -0.578125,0 -0.578125,0.390625 0,0.203125 0.1875,0.203125 0.5,0.203125 1.25,0 1.25,0.171875 1.25,0.40625 0,0.03125 0,0.15625 -0.078125,0.46875 z m 4.34375,-11.171875 c 0.1875,-0.765625 0.28125,-0.8125 1.078125,-0.8125 h 2.28125 c 1.9375,0 3.71875,1.0625 3.71875,3.90625 0,1.03125 -0.421875,4.625 -2.421875,6.90625 -0.578125,0.671875 -2.15625,2.109375 -4.53125,2.109375 H 5.375 c -0.296875,0 -0.328125,0 -0.453125,-0.03125 -0.234375,-0.015625 -0.25,-0.0625 -0.25,-0.21875 0,-0.140625 0.03125,-0.265625 0.078125,-0.453125 z m 0,0"
             id="path26" />
        </g>
      </g>
    </g>
    <g
       inkscape:label=""
       transform="translate(112.85041,80.892536)"
       id="g32">
      <g
         fill="#000000"
         fill-opacity="1"
         id="g31"
         transform="matrix(0.352778,0,0,0.352778,-0.99523,-0.632927)">
        <g
           id="g30"
           transform="translate(1.993,16.341)">
          <path
             d="m 9.15625,-10.390625 c 0,-2.109375 -0.671875,-4.15625 -2.359375,-4.15625 -2.890625,0 -5.96875,6.0625 -5.96875,10.59375 0,0.953125 0.203125,4.15625 2.375,4.15625 2.8125,0 5.953125,-5.90625 5.953125,-10.59375 z m -6.265625,2.90625 c 0.3125,-1.21875 0.75,-2.953125 1.578125,-4.40625 0.671875,-1.25 1.390625,-2.234375 2.3125,-2.234375 0.671875,0 1.125,0.578125 1.125,2.5625 0,0.734375 -0.0625,1.765625 -0.65625,4.078125 z m 4.21875,0.625 c -0.515625,2.03125 -0.953125,3.328125 -1.703125,4.625 -0.59375,1.0625 -1.3125,2.03125 -2.1875,2.03125 -0.640625,0 -1.15625,-0.5 -1.15625,-2.546875 0,-1.34375 0.328125,-2.75 0.671875,-4.109375 z m 0,0"
             id="path29" />
        </g>
      </g>
    </g>
    <g
       inkscape:label=""
       transform="translate(107.36976,120.95801)"
       id="g35">
      <g
         fill="#000000"
         fill-opacity="1"
         id="g34"
         transform="matrix(0.352778,0,0,0.352778,-1.06689,-0.551789)">
        <g
           id="g33"
           transform="translate(1.993,16.111)">
          <path
             d="m 15.4375,-14.359375 c 0,-0.1875 -0.15625,-0.1875 -0.1875,-0.1875 -0.04687,0 -0.125,0 -0.296875,0.21875 l -1.421875,1.734375 c -0.71875,-1.25 -1.859375,-1.953125 -3.40625,-1.953125 -4.46875,0 -9.09375,4.53125 -9.09375,9.375 0,3.453125 2.421875,5.609375 5.4375,5.609375 1.65625,0 3.09375,-0.703125 4.296875,-1.71875 1.796875,-1.5 2.328125,-3.515625 2.328125,-3.671875 0,-0.1875 -0.15625,-0.1875 -0.21875,-0.1875 -0.1875,0 -0.21875,0.125 -0.25,0.203125 -0.953125,3.21875 -3.75,4.765625 -5.8125,4.765625 -2.1875,0 -4.078125,-1.390625 -4.078125,-4.328125 0,-0.671875 0.203125,-4.265625 2.53125,-6.96875 1.140625,-1.3125 3.078125,-2.46875 5.046875,-2.46875 2.265625,0 3.28125,1.875 3.28125,3.984375 0,0.53125 -0.0625,0.984375 -0.0625,1.078125 0,0.171875 0.203125,0.171875 0.265625,0.171875 0.234375,0 0.25,-0.015625 0.328125,-0.390625 z m 0,0"
             id="path32" />
        </g>
      </g>
    </g>
    <g
       inkscape:label=""
       transform="translate(93.573631,86.184202)"
       id="g42"
       style="fill:#0000ff">
      <g
         fill="#000000"
         fill-opacity="1"
         id="g37"
         transform="matrix(0.352778,0,0,0.352778,-0.99523,-0.71045)"
         style="fill:#0000ff">
        <g
           id="g36"
           transform="translate(5.8829999,16.341999)"
           style="fill:#0000ff">
          <path
             d="m 4.734375,-14.328125 -2.546875,2.796875 0.25,0.25 2.296875,-2.234375 2.28125,2.234375 0.25,-0.25 z m 0,0"
             id="path35"
             style="fill:#0000ff" />
        </g>
      </g>
      <g
         fill="#000000"
         fill-opacity="1"
         id="g39"
         transform="matrix(0.352778,0,0,0.352778,-0.99523,-0.71045)"
         style="fill:#0000ff">
        <g
           id="g38"
           transform="translate(1.993,21.796)"
           style="fill:#0000ff">
          <path
             d="m 10.390625,-13.8125 c 0.01563,-0.09375 0.0625,-0.21875 0.0625,-0.3125 0,-0.203125 -0.203125,-0.203125 -0.25,-0.203125 -0.01563,0 -1.03125,0.07813 -1.140625,0.09375 -0.34375,0.01563 -0.65625,0.0625 -1.03125,0.07813 -0.515625,0.04687 -0.65625,0.0625 -0.65625,0.4375 0,0.203125 0.171875,0.203125 0.453125,0.203125 1.015625,0 1.03125,0.1875 1.03125,0.40625 0,0.109375 -0.046875,0.28125 -0.0625,0.34375 l -1.25,5.01562 C 7.3125,-8.28125 6.75,-9.109375 5.6875,-9.109375 c -2.34375,0 -4.859375,3.015625 -4.859375,6.078125 0,2.046875 1.203125,3.234375 2.59375,3.234375 1.140625,0 2.109375,-0.890625 2.6875,-1.5625 0.21875,1.21875 1.1875,1.5625 1.796875,1.5625 0.625,0 1.125,-0.375 1.5,-1.109375 0.328125,-0.703125 0.609375,-1.96875 0.609375,-2.046875 0,-0.109375 -0.078125,-0.1875 -0.203125,-0.1875 -0.1875,0 -0.203125,0.109375 -0.296875,0.40625 -0.296875,1.21875 -0.703125,2.53125 -1.546875,2.53125 -0.59375,0 -0.640625,-0.546875 -0.640625,-0.953125 0,-0.078125 0,-0.515625 0.15625,-1.09375 z M 6.21875,-2.453125 c -0.109375,0.34375 -0.109375,0.390625 -0.390625,0.78125 -0.453125,0.578125 -1.359375,1.46875 -2.34375,1.46875 -0.84375,0 -1.3125,-0.765625 -1.3125,-1.984375 0,-1.140625 0.640625,-3.453125 1.03125,-4.3125 C 3.90625,-7.953125 4.875,-8.703125 5.6875,-8.703125 c 1.359375,0 1.625,1.703125 1.625,1.859375 0,0.03125 -0.0625,0.296875 -0.078125,0.34375 z m 0,0"
             id="path37"
             style="fill:#0000ff" />
        </g>
      </g>
      <g
         fill="#000000"
         fill-opacity="1"
         id="g41"
         transform="matrix(0.352778,0,0,0.352778,-0.99523,-0.71045)"
         style="fill:#0000ff">
        <g
           id="g40"
           transform="translate(12.505,24.895)"
           style="fill:#0000ff">
          <path
             d="m 3.765625,1.609375 c -0.375,0.546875 -0.9375,1.03125 -1.640625,1.03125 -0.171875,0 -0.859375,-0.03125 -1.078125,-0.6875 C 1.09375,1.96875 1.15625,1.96875 1.1875,1.96875 c 0.4375,0 0.71875,-0.375 0.71875,-0.703125 C 1.90625,0.9375 1.640625,0.8125 1.421875,0.8125 1.1875,0.8125 0.6875,0.984375 0.6875,1.6875 c 0,0.734375 0.625,1.234375 1.4375,1.234375 1.4375,0 2.875,-1.3125 3.28125,-2.90625 l 1.40625,-5.59375 c 0.015625,-0.078125 0.046875,-0.15625 0.046875,-0.25 0,-0.203125 -0.171875,-0.359375 -0.390625,-0.359375 -0.125,0 -0.4375,0.0625 -0.546875,0.5 l -1.0625,4.203125 c -0.0625,0.265625 -0.0625,0.296875 -0.1875,0.453125 -0.28125,0.40625 -0.75,0.890625 -1.4375,0.890625 -0.8125,0 -0.875,-0.796875 -0.875,-1.171875 0,-0.828125 0.375,-1.921875 0.765625,-2.96875 0.15625,-0.40625 0.25,-0.609375 0.25,-0.890625 0,-0.609375 -0.4375,-1.15625 -1.140625,-1.15625 -1.3125,0 -1.84375,2.078125 -1.84375,2.203125 0,0.046875 0.046875,0.125 0.15625,0.125 C 0.671875,-4 0.6875,-4.0625 0.75,-4.265625 1.09375,-5.46875 1.640625,-6.03125 2.1875,-6.03125 c 0.140625,0 0.375,0 0.375,0.46875 0,0.375 -0.15625,0.78125 -0.375,1.328125 -0.703125,1.875 -0.703125,2.359375 -0.703125,2.703125 0,1.359375 0.984375,1.671875 1.703125,1.671875 0.40625,0 0.921875,-0.125 1.4375,-0.65625 L 4.640625,-0.5 c -0.21875,0.84375 -0.359375,1.40625 -0.875,2.109375 z m 0,0"
             id="path39"
             style="fill:#0000ff" />
        </g>
      </g>
    </g>
    <g
       inkscape:label=""
       transform="translate(98.487321,104.70504)"
       id="g49"
       style="fill:#0000ff">
      <g
         fill="#000000"
         fill-opacity="1"
         id="g44"
         transform="matrix(0.352778,0,0,0.352778,-0.99523,-0.710097)"
         style="fill:#0000ff">
        <g
           id="g43"
           transform="translate(5.8829999,16.341)"
           style="fill:#0000ff">
          <path
             d="m 4.734375,-14.328125 -2.546875,2.796875 0.25,0.25 2.296875,-2.234375 2.28125,2.234375 0.25,-0.25 z m 0,0"
             id="path42"
             style="fill:#0000ff" />
        </g>
      </g>
      <g
         fill="#000000"
         fill-opacity="1"
         id="g46"
         transform="matrix(0.352778,0,0,0.352778,-0.99523,-0.710097)"
         style="fill:#0000ff">
        <g
           id="g45"
           transform="translate(1.993,21.795)"
           style="fill:#0000ff">
          <path
             d="m 10.390625,-13.8125 c 0.01563,-0.09375 0.0625,-0.21875 0.0625,-0.3125 0,-0.203125 -0.203125,-0.203125 -0.25,-0.203125 -0.01563,0 -1.03125,0.07813 -1.140625,0.09375 -0.34375,0.01563 -0.65625,0.0625 -1.03125,0.07813 -0.515625,0.04687 -0.65625,0.0625 -0.65625,0.4375 0,0.203125 0.171875,0.203125 0.453125,0.203125 1.015625,0 1.03125,0.1875 1.03125,0.40625 0,0.109375 -0.046875,0.28125 -0.0625,0.34375 l -1.25,5.01562 C 7.3125,-8.28125 6.75,-9.109375 5.6875,-9.109375 c -2.34375,0 -4.859375,3.015625 -4.859375,6.078125 0,2.046875 1.203125,3.234375 2.59375,3.234375 1.140625,0 2.109375,-0.890625 2.6875,-1.5625 0.21875,1.21875 1.1875,1.5625 1.796875,1.5625 0.625,0 1.125,-0.375 1.5,-1.109375 0.328125,-0.703125 0.609375,-1.96875 0.609375,-2.046875 0,-0.109375 -0.078125,-0.1875 -0.203125,-0.1875 -0.1875,0 -0.203125,0.109375 -0.296875,0.40625 -0.296875,1.21875 -0.703125,2.53125 -1.546875,2.53125 -0.59375,0 -0.640625,-0.546875 -0.640625,-0.953125 0,-0.078125 0,-0.515625 0.15625,-1.09375 z M 6.21875,-2.453125 c -0.109375,0.34375 -0.109375,0.390625 -0.390625,0.78125 -0.453125,0.578125 -1.359375,1.46875 -2.34375,1.46875 -0.84375,0 -1.3125,-0.765625 -1.3125,-1.984375 0,-1.140625 0.640625,-3.453125 1.03125,-4.3125 C 3.90625,-7.953125 4.875,-8.703125 5.6875,-8.703125 c 1.359375,0 1.625,1.703125 1.625,1.859375 0,0.03125 -0.0625,0.296875 -0.078125,0.34375 z m 0,0"
             id="path44"
             style="fill:#0000ff" />
        </g>
      </g>
      <g
         fill="#000000"
         fill-opacity="1"
         id="g48"
         transform="matrix(0.352778,0,0,0.352778,-0.99523,-0.710097)"
         style="fill:#0000ff">
        <g
           id="g47"
           transform="translate(12.505,24.893999)"
           style="fill:#0000ff">
          <path
             d="m 6.796875,-5.859375 c -0.453125,0.09375 -0.625,0.4375 -0.625,0.703125 0,0.34375 0.265625,0.46875 0.46875,0.46875 0.4375,0 0.734375,-0.375 0.734375,-0.765625 0,-0.59375 -0.6875,-0.875 -1.296875,-0.875 -0.875,0 -1.359375,0.859375 -1.484375,1.140625 C 4.265625,-6.265625 3.375,-6.328125 3.109375,-6.328125 1.65625,-6.328125 0.875,-4.453125 0.875,-4.125 0.875,-4.078125 0.9375,-4 1.03125,-4 1.140625,-4 1.171875,-4.09375 1.203125,-4.140625 1.6875,-5.734375 2.65625,-6.03125 3.0625,-6.03125 c 0.65625,0 0.78125,0.59375 0.78125,0.9375 0,0.3125 -0.078125,0.640625 -0.265625,1.328125 l -0.484375,1.96875 c -0.203125,0.859375 -0.625,1.65625 -1.390625,1.65625 -0.0625,0 -0.421875,0 -0.734375,-0.1875 0.515625,-0.109375 0.640625,-0.53125 0.640625,-0.703125 0,-0.28125 -0.21875,-0.453125 -0.484375,-0.453125 -0.34375,0 -0.71875,0.296875 -0.71875,0.75 0,0.609375 0.671875,0.875 1.28125,0.875 0.6875,0 1.1875,-0.546875 1.484375,-1.125 0.234375,0.84375 0.9375,1.125 1.46875,1.125 1.46875,0 2.25,-1.875 2.25,-2.1875 0,-0.078125 -0.0625,-0.140625 -0.15625,-0.140625 -0.125,0 -0.140625,0.078125 -0.171875,0.1875 -0.390625,1.265625 -1.234375,1.859375 -1.875,1.859375 -0.5,0 -0.765625,-0.375 -0.765625,-0.96875 0,-0.3125 0.046875,-0.546875 0.28125,-1.484375 l 0.5,-1.953125 C 4.921875,-5.40625 5.40625,-6.03125 6.0625,-6.03125 c 0.03125,0 0.4375,0 0.734375,0.171875 z m 0,0"
             id="path46"
             style="fill:#0000ff" />
        </g>
      </g>
    </g>
  </g>
</svg>
