<?xml version="1.0" encoding="UTF-8" standalone="no"?>
<svg
   xmlns:dc="http://purl.org/dc/elements/1.1/"
   xmlns:cc="http://creativecommons.org/ns#"
   xmlns:rdf="http://www.w3.org/1999/02/22-rdf-syntax-ns#"
   xmlns:svg="http://www.w3.org/2000/svg"
   xmlns="http://www.w3.org/2000/svg"
   xmlns:sodipodi="http://sodipodi.sourceforge.net/DTD/sodipodi-0.dtd"
   xmlns:inkscape="http://www.inkscape.org/namespaces/inkscape"
   width="156.72002mm"
   height="95.04113mm"
   viewBox="0 0 156.72002 95.041131"
   version="1.1"
   id="svg1057"
   sodipodi:docname="engrenagens.svg"
   inkscape:version="1.0.1 (3bc2e813f5, 2020-09-07)">
  <defs
     id="defs1051" />
  <sodipodi:namedview
     id="base"
     pagecolor="#ffffff"
     bordercolor="#666666"
     borderopacity="1.0"
     inkscape:pageopacity="0.0"
     inkscape:pageshadow="2"
     inkscape:zoom="1.4"
     inkscape:cx="347.86957"
     inkscape:cy="137.67215"
     inkscape:document-units="mm"
     inkscape:current-layer="layer1"
     inkscape:document-rotation="0"
     showgrid="false"
     inkscape:window-width="1920"
     inkscape:window-height="1017"
     inkscape:window-x="-8"
     inkscape:window-y="-8"
     inkscape:window-maximized="1"
     inkscape:snap-nodes="true"
     inkscape:snap-others="true"
     inkscape:snap-grids="false"
     inkscape:snap-to-guides="true"
     inkscape:snap-object-midpoints="true"
     showguides="true"
     inkscape:guide-bbox="true"
     inkscape:snap-smooth-nodes="true">
    <sodipodi:guide
       position="48.805662,47.565578"
       orientation="1,0"
       id="guide1830" />
    <sodipodi:guide
       position="98.682095,47.532168"
       orientation="1,0"
       id="guide1832" />
  </sodipodi:namedview>
  <metadata
     id="metadata1054">
    <rdf:RDF>
      <cc:Work
         rdf:about="">
        <dc:format>image/svg+xml</dc:format>
        <dc:type
           rdf:resource="http://purl.org/dc/dcmitype/StillImage" />
        <dc:title />
      </cc:Work>
    </rdf:RDF>
  </metadata>
  <g
     inkscape:label="Layer 1"
     inkscape:groupmode="layer"
     id="layer1"
     transform="translate(-32.025614,-93.07577)">
    <g
       inkscape:label="Rendered Gears"
       transform="matrix(1.5190139,0,0,1.5190139,65.492162,140.52796)"
       id="g1627">
      <path
         style="fill:none;stroke:#000000;stroke-width:0.264583"
         d="m 18.502461,-0.97787411 0.464754,-0.024566 1.230948,0.23661064 1.698929,0.7665040355 -0.0332,1.2046626245 -1.738566,0.6717699 -1.242113,0.1684555 -0.462694,-0.050126 -0.295444,1.8487926 0.455312,0.09657 1.127756,0.5471357 L 21.15078,5.6680355 20.80693,6.8230512 18.953747,7.0219641 17.710349,6.8632 17.276417,6.6950319 l -0.76388,1.709335 0.414742,0.2111057 0.94776,0.8203808 1.088023,1.5133086 -0.631021,1.026605 -1.84158,-0.287442 -1.159849,-0.475232 -0.375673,-0.274754 -1.180288,1.453437 0.346057,0.311251 0.70308,1.037663 0.659324,1.743325 -0.875353,0.8284 -1.704366,-0.75434 -0.997365,-0.759164 -0.291719,-0.362674 -1.516236,1.098447 0.253646,0.390236 0.410631,1.184261 0.185578,1.854617 L 9.888127,19.537319 8.4370404,18.3676 7.6701039,17.376096 7.482161,16.950356 l -1.748812,0.668577 0.1440134,0.442535 0.090041,1.250255 -0.3006775,1.839415 -1.1722006,0.279714 -1.0988542,-1.505444 -0.4841926,-1.156177 -0.071346,-0.45994 -1.86225839,0.19317 0.024566,0.464754 -0.23661064,1.230948 -0.7665040355,1.698929 -1.2046626245,-0.0332 -0.6717699,-1.738566 -0.1684555,-1.242113 0.050126,-0.462694 -1.8487926,-0.295444 -0.09657,0.455312 -0.5471357,1.127756 -1.1801006,1.442637 -1.1550157,-0.34385 -0.1989129,-1.853183 0.1587641,-1.243398 0.1681681,-0.433932 -1.709335,-0.76388 -0.2111057,0.414742 -0.8203808,0.94776 -1.5133086,1.088023 -1.026605,-0.631021 0.287442,-1.84158 0.475232,-1.159849 0.274754,-0.375673 -1.453437,-1.180288 -0.311251,0.346057 -1.037663,0.70308 -1.743325,0.659324 -0.8284,-0.875353 0.75434,-1.704366 0.759164,-0.997365 0.362674,-0.291719 -1.098447,-1.516236 -0.390236,0.253646 -1.184261,0.410631 -1.854617,0.185578 -0.573521,-1.059802 1.169719,-1.4510866 0.991504,-0.7669365 0.42574,-0.1879429 -0.668577,-1.748812 -0.442535,0.1440134 -1.250255,0.090041 -1.839415,-0.3006775 -0.279714,-1.1722006 1.505444,-1.0988542 1.156177,-0.4841926 0.45994,-0.071346 -0.19317,-1.86225839 -0.464754,0.024566 -1.230948,-0.23661064 -1.698929,-0.7665040355 0.0332,-1.2046626245 1.738566,-0.6717699 1.242113,-0.1684555 0.462694,0.050126 0.295444,-1.8487926 -0.455312,-0.09657 -1.127756,-0.5471357 -1.442637,-1.1801006 0.34385,-1.1550157 1.853183,-0.1989129 1.243398,0.1587641 0.433932,0.1681681 0.76388,-1.709335 -0.414742,-0.2111057 -0.94776,-0.8203808 -1.088023,-1.5133086 0.631021,-1.026605 1.84158,0.287442 1.159849,0.475232 0.375673,0.274754 1.180288,-1.453437 -0.346057,-0.311251 -0.70308,-1.037663 -0.659324,-1.743325 0.875353,-0.8284 1.704366,0.75434 0.997365,0.759164 0.291719,0.362674 1.516236,-1.098447 -0.253646,-0.390236 -0.410631,-1.184261 -0.185578,-1.854617 1.0598023,-0.573521 1.4510866,1.169719 0.7669365,0.991504 0.1879429,0.42574 1.748812,-0.668577 -0.1440134,-0.442535 -0.090041,-1.250255 0.3006775,-1.839415 1.1722006,-0.279714 1.0988542,1.505444 0.4841926,1.156177 0.071346,0.45994 1.86225844,-0.19317 -0.024566,-0.464754 0.23661079,-1.230948 0.7665040355,-1.698929 1.2046624745,0.0332 0.6717699,1.738566 0.1684555,1.242113 -0.050126,0.462694 1.8487926,0.295444 0.09657,-0.455312 0.5471357,-1.127756 1.1801006,-1.442637 1.1550157,0.34385 0.1989129,1.853183 -0.1587641,1.243398 -0.1681681,0.433932 1.709335,0.76388 0.2111057,-0.414742 0.8203808,-0.94776 1.5133083,-1.088023 1.026605,0.631021 -0.287442,1.84158 -0.475232,1.159849 -0.274754,0.375673 1.453437,1.180288 0.311251,-0.346057 1.037663,-0.70308 1.743325,-0.659324 0.8284,0.875353 -0.75434,1.704366 -0.759164,0.997365 -0.362674,0.291719 1.098447,1.516236 0.390236,-0.253646 1.184261,-0.410631 1.854617,-0.185578 0.573521,1.0598023 -1.169719,1.4510866 -0.991504,0.7669365 -0.42574,0.1879429 0.668577,1.748812 0.442535,-0.1440134 1.250255,-0.090041 1.839415,0.3006775 0.279714,1.1722006 -1.505444,1.0988542 -1.156177,0.4841926 -0.45994,0.071346 z"
         id="path1623" />
      <circle
         style="fill:none;stroke:#000000;stroke-width:0.264583"
         id="path1625"
         cx="0"
         cy="0"
         r="2.6458333" />
    </g>
    <g
       inkscape:label="Rendered Gears"
       transform="matrix(1.5190139,0,0,1.5190139,141.20857,140.57871)"
       id="g1823">
      <path
         style="fill:none;stroke:#000000;stroke-width:0.264583"
         d="m 27.712528,-2.1057151 1.709188,0.305247 1.718698,0.6625896 0.02055,1.26389298 -1.696252,0.71810795 -1.698362,0.36064507 -0.123143,1.6716326 1.627258,0.6055284 1.572794,0.9588305 -0.205453,1.2472344 -1.797175,0.403707 -1.735491,0.051578 -0.419677,1.6227864 1.493006,0.8863679 1.376282,1.2242499 -0.424904,1.1904644 -1.840303,0.07632 -1.716839,-0.259126 -0.702655,1.521823 1.310782,1.138643 1.135526,1.450333 -0.630676,1.095497 -1.824361,-0.253478 -1.643046,-0.561566 -0.963026,1.371935 1.08636,1.35442 0.858306,1.629764 -0.816017,0.965292 -1.749882,-0.575231 -1.51635,-0.845863 -1.19251,1.17794 0.827024,1.526558 0.553531,1.756834 -0.975257,0.80416 -1.619094,-0.878498 -1.340906,-1.102948 -1.383605,0.946015 0.541088,1.649723 0.230937,1.827487 -1.103216,0.617015 -1.436138,-1.153408 -1.122383,-1.32473 -1.530387,0.683767 0.237888,1.719861 -0.09901,1.839352 L 9.5099006,29.675133 8.3027757,28.283871 7.4349448,26.77998 5.807094,27.179494 5.7340526,28.91421 5.3081568,30.70627 4.0584609,30.896309 3.1191612,29.311868 2.5338013,27.677168 0.86077496,27.779577 0.4791582,29.473404 -0.25988292,31.16064 -1.5234078,31.12447 l -0.6412928,-1.726703 -0.2840813,-1.712909 -1.664428,-0.19797 -0.6779266,1.598431 -1.0284259,1.528119 -1.2367698,-0.26123 -0.3226599,-1.813395 0.026332,-1.736157 -1.602328,-0.491919 -0.9524385,1.451674 -1.2847134,1.319958 -1.170322,-0.47784 0.0064,-1.841946 0.335854,-1.703485 -1.488717,-0.770202 -1.196303,1.258313 -1.499815,1.069421 -1.066181,-0.679159 0.335202,-1.811288 0.634613,-1.616129 -1.327314,-1.02356 -1.401733,1.024421 -1.666669,0.784396 -0.927679,-0.858534 0.653089,-1.722343 0.913015,-1.476837 -1.123172,-1.244107 -1.56219,0.757694 -1.779927,0.474196 -0.759526,-1.010487 0.950175,-1.577954 1.162084,-1.29006 -0.882977,-1.424736 -1.672437,0.466548 -1.835924,0.148763 -0.566841,-1.129835 1.216581,-1.382959 1.373822,-1.061772 -0.614432,-1.559538 -1.72882,0.1604836 -1.832993,-0.1814981 -0.356062,-1.2128624 1.444003,-1.1434937 1.541308,-0.7994901 -0.326069,-1.6441369 -1.72968,-0.1507934 -1.771157,-0.5058662 -0.13375,-1.2569619 1.625017,-0.8672697 1.659206,-0.5114285 -0.02725,-1.67593854 -1.674953,-0.45722354 -1.65235,-0.81398812 0.09282,-1.2606454 1.753777,-0.5631726 1.723864,-0.2069392 0.272452,-1.6538673 -1.566482,-0.7489654 -1.48041,-1.0959502 0.316448,-1.2237957 1.826124,-0.240986 1.733123,0.1042013 0.563412,-1.578687 -1.40761,-1.016553 -1.260892,-1.342681 0.529814,-1.147664 1.83979,0.08901 1.686719,0.411936 0.836197,-1.452684 -1.203404,-1.251604 -1.000967,-1.546233 0.726277,-1.034643 1.794401,0.416087 1.585994,0.706512 1.082137,-1.279959 -0.960538,-1.446378 -0.708731,-1.700204 0.89928,-0.888235 1.691287,0.729804 1.434292,0.978314 1.29334,-1.066164 -0.686812,-1.594646 -0.393902,-1.799435 1.04354,-0.713457 1.533785,1.020102 1.236574,1.21876 1.462894,-0.818188 -0.39105,-1.691666 -0.06623,-1.840767 1.15417,-0.51563 1.326942,1.277499 0.9991237,1.419947 1.5854908,-0.543744 -0.082754,-1.734384 0.2635426,-1.822925 1.2276246,-0.301295 1.0775559,1.493881 0.7295274,1.575549 1.6571131,-0.25197 0.2282509,-1.721237 0.5848252,-1.746638 1.2616814,-0.07722 0.79349641,1.662321 0.43647513,1.680527 1.67547116,0.04797 0.5319125,-1.652865 0.8872989,-1.614136 1.2552131,0.149316 0.4839239,1.777268 0.129392,1.731426 1.6399773,0.346387 0.8184863,-1.531307 1.1612621,-1.429765 1.2084205,0.371005 0.1587521,1.835162 -0.1818563,1.726684 1.5518053,0.633659 1.078727,-1.360515 1.397887,-1.199481 1.12269,0.580827 -0.17141,1.834029 -0.487176,1.666439 1.413625,0.90054 1.304345,-1.145954 1.589681,-0.930664 1.000882,0.772033 -0.49613,1.773899 -0.776964,1.552635 1.23017,1.138553 1.488053,-0.894707 1.730258,-0.631809 0.846964,0.938256 -0.804875,1.656803 -1.041759,1.389017 1.007114,1.339907 1.623923,-0.614679 1.815157,-0.312647 0.665953,1.074416 -1.08778,1.486479 -1.273077,1.18065 0.751753,1.498178 1.707509,-0.314797 1.841811,0.01646 0.463377,1.176023 -1.335759,1.2683404 -1.463404,0.9344315 0.472206,1.6082867 1.73625,-0.00486 1.809348,0.3450741 0.245888,1.2398968 -1.540795,1.0094495 -1.606714,0.6581046 z"
         id="path1819" />
      <circle
         style="fill:none;stroke:#000000;stroke-width:0.264583"
         id="path1821"
         cx="0"
         cy="0"
         r="2.6458333" />
      <path
         style="fill:#ff0000;stroke:#ff0000;stroke-width:0.065;stroke-linecap:butt;stroke-linejoin:miter;stroke-miterlimit:4;stroke-dasharray:none;stroke-opacity:1"
         d="M -49.845764,-0.03341637 -38.120121,16.369882"
         id="path1840" />
      <path
         style="fill:none;stroke:#ff0000;stroke-width:0.065;stroke-linecap:butt;stroke-linejoin:miter;stroke-miterlimit:4;stroke-dasharray:none;stroke-opacity:1"
         d="M 0.03066779,-2.1461462e-6 -18.156571,23.451942"
         id="path1842" />
      <path
         style="fill:#ff0000;stroke:#ff0000;stroke-width:0.065;stroke-linecap:butt;stroke-linejoin:miter;stroke-miterlimit:4;stroke-dasharray:none;stroke-opacity:1"
         d="m -18.156573,23.451939 0.467725,-1.23612 0.601355,0.467723 z"
         id="path1844" />
      <path
         style="fill:#ff0000;stroke:#ff0000;stroke-width:0.065;stroke-linecap:butt;stroke-linejoin:miter;stroke-miterlimit:4;stroke-dasharray:none;stroke-opacity:1"
         d="m -38.120121,16.36988 -0.449159,-1.270112 -0.593003,0.451017 z"
         id="path1846" />
      <text
         xml:space="preserve"
         style="font-style:normal;font-variant:normal;font-weight:normal;font-stretch:normal;font-size:5.72991px;line-height:1.25;font-family:sans-serif;-inkscape-font-specification:sans-serif;letter-spacing:0px;word-spacing:0px;fill:#ff0000;fill-opacity:1;stroke:none;stroke-width:0.15348"
         x="-43.844227"
         y="7.6764336"
         id="text1850"><tspan
           sodipodi:role="line"
           id="tspan1848"
           x="-43.844227"
           y="7.6764336"
           style="fill:#ff0000;stroke-width:0.15348">r<tspan
   style="font-size:65%;baseline-shift:sub"
   id="tspan1856">1</tspan></tspan></text>
      <text
         xml:space="preserve"
         style="font-style:normal;font-variant:normal;font-weight:normal;font-stretch:normal;font-size:5.72991px;line-height:1.25;font-family:sans-serif;-inkscape-font-specification:sans-serif;letter-spacing:0px;word-spacing:0px;fill:#ff0000;fill-opacity:1;stroke:none;stroke-width:0.15348"
         x="-13.133661"
         y="8.9048557"
         id="text1854"><tspan
           sodipodi:role="line"
           id="tspan1852"
           x="-13.133661"
           y="8.9048557"
           style="fill:#ff0000;stroke-width:0.15348">r<tspan
   style="font-size:65%;baseline-shift:sub"
   id="tspan1858">2</tspan></tspan></text>
      <circle
         style="fill:none;stroke:none;stroke-width:0.0649999;stroke-miterlimit:4;stroke-dasharray:none"
         id="path1860"
         cx="-49.845768"
         cy="-0.033410996"
         r="5.5193257" />
    </g>
    <circle
       style="fill:none;stroke:#ff0000;stroke-width:0.0987357"
       id="path1836"
       cx="65.492157"
       cy="140.52795"
       r="30.658041" />
    <circle
       style="fill:none;stroke:#ff0000;stroke-width:0.0987359;stroke-miterlimit:4;stroke-dasharray:none"
       id="path1838"
       cx="141.20856"
       cy="140.5787"
       r="45.058361" />
    <g
       id="g1880"
       transform="matrix(1.5190139,0,0,1.5190139,-26.802629,-112.52915)">
      <circle
         style="fill:none;stroke:#ff0000;stroke-width:0.0649999;stroke-miterlimit:4;stroke-dasharray:none"
         id="path1874"
         cx="60.75967"
         cy="166.59302"
         r="4.8191962" />
      <path
         style="fill:#ff0000;stroke:#ff0000;stroke-width:0.264583px;stroke-linecap:butt;stroke-linejoin:miter;stroke-opacity:1"
         d="m 65.578865,166.59302 -0.699188,-1.18659 1.202714,-0.16705 z"
         id="path1876" />
    </g>
    <g
       id="g1886"
       transform="matrix(-1.5190139,0,0,1.5190139,233.54994,-112.4784)">
      <circle
         style="fill:none;stroke:#ff0000;stroke-width:0.0649999;stroke-miterlimit:4;stroke-dasharray:none"
         id="circle1882"
         cx="60.75967"
         cy="166.59302"
         r="4.8191962" />
      <path
         style="fill:#ff0000;stroke:#ff0000;stroke-width:0.264583px;stroke-linecap:butt;stroke-linejoin:miter;stroke-opacity:1"
         d="m 65.578865,166.59302 -0.699188,-1.18659 1.202714,-0.16705 z"
         id="path1884" />
    </g>
  </g>
</svg>
