<?xml version="1.0" encoding="UTF-8" standalone="no"?>
<!-- Created with Inkscape (http://www.inkscape.org/) -->

<svg
   width="146.31459mm"
   height="165.10001mm"
   viewBox="0 0 146.31459 165.10001"
   version="1.1"
   id="svg1"
   xml:space="preserve"
   inkscape:version="1.3.2 (091e20e, 2023-11-25, custom)"
   sodipodi:docname="esfericas2.svg"
   inkscape:export-filename="esfericas2.png"
   inkscape:export-xdpi="300"
   inkscape:export-ydpi="300"
   xmlns:inkscape="http://www.inkscape.org/namespaces/inkscape"
   xmlns:sodipodi="http://sodipodi.sourceforge.net/DTD/sodipodi-0.dtd"
   xmlns="http://www.w3.org/2000/svg"
   xmlns:svg="http://www.w3.org/2000/svg"><sodipodi:namedview
     id="namedview1"
     pagecolor="#ffffff"
     bordercolor="#000000"
     borderopacity="0.25"
     inkscape:showpageshadow="2"
     inkscape:pageopacity="0.0"
     inkscape:pagecheckerboard="0"
     inkscape:deskcolor="#d1d1d1"
     inkscape:document-units="mm"
     inkscape:zoom="1.0242632"
     inkscape:cx="226.50428"
     inkscape:cy="245.54236"
     inkscape:window-width="1920"
     inkscape:window-height="1009"
     inkscape:window-x="-8"
     inkscape:window-y="-8"
     inkscape:window-maximized="1"
     inkscape:current-layer="layer2"
     inkscape:export-bgcolor="#ffffffff" /><defs
     id="defs1"><marker
       style="overflow:visible"
       id="marker10"
       refX="0"
       refY="0"
       orient="auto-start-reverse"
       inkscape:stockid="Triangle arrow"
       markerWidth="1"
       markerHeight="1"
       viewBox="0 0 1 1"
       inkscape:isstock="true"
       inkscape:collect="always"
       preserveAspectRatio="xMidYMid"><path
         transform="scale(0.5)"
         style="fill:context-stroke;fill-rule:evenodd;stroke:context-stroke;stroke-width:1pt"
         d="M 5.77,0 -2.88,5 V -5 Z"
         id="path10" /></marker><marker
       style="overflow:visible"
       id="Triangle"
       refX="0"
       refY="0"
       orient="auto-start-reverse"
       inkscape:stockid="Triangle arrow"
       markerWidth="1"
       markerHeight="1"
       viewBox="0 0 1 1"
       inkscape:isstock="true"
       inkscape:collect="always"
       preserveAspectRatio="xMidYMid"><path
         transform="scale(0.5)"
         style="fill:context-stroke;fill-rule:evenodd;stroke:context-stroke;stroke-width:1pt"
         d="M 5.77,0 -2.88,5 V -5 Z"
         id="path135" /></marker></defs><g
     inkscape:label="Camada 1"
     inkscape:groupmode="layer"
     id="layer1"
     style="display:inline"
     transform="translate(-34.1822, -68.5385)"><g
       inkscape:label=""
       transform="translate(112.42774,177.49318)"
       id="g4"><g
   fill="#000000"
   fill-opacity="1"
   id="g3"
   transform="matrix(0.352778,0,0,0.352778,-1.1165,-0.70657)">
    <g
   id="g1"
   transform="translate(1.993,19.205999)">
      <path
   d="m 10.65625,-16.96875 c 0,-0.234375 -0.171875,-0.234375 -0.25,-0.234375 -0.21875,0 -0.25,0.04687 -0.34375,0.46875 l -1.34375,5.328125 c -0.0625,0.328125 -0.09375,0.359375 -0.125,0.375 -0.015625,0.04687 -0.1875,0.07813 -0.25,0.07813 -4.0625,0.34375 -7.171875,3.6875 -7.171875,6.796875 0,2.671875 2.046875,4.3125 4.625,4.453125 C 5.59375,1.0625 5.421875,1.859375 5.234375,2.625 4.875,3.9375 4.6875,4.765625 4.6875,4.859375 c 0,0.046875 0,0.203125 0.25,0.203125 0.0625,0 0.171875,0 0.21875,-0.109375 C 5.203125,4.90625 5.359375,4.3125 5.453125,3.984375 L 6.375,0.296875 c 4.234375,-0.21875 7.453125,-3.6875 7.453125,-6.8125 0,-2.5 -1.890625,-4.28125 -4.640625,-4.46875 z m -1.609375,6.484375 c 1.640625,0.09375 3.265625,1.015625 3.265625,3.453125 0,2.796875 -1.953125,6.515625 -5.8125,6.8125 z m -3.125,10.28125 c -1.21875,-0.0625 -3.25,-0.71875 -3.25,-3.4375 0,-3.125 2.265625,-6.59375 5.828125,-6.8125 z m 0,0"
   id="path1" />
    </g>
  </g>
</g><g
       inkscape:label=""
       transform="translate(126.24143,155.93968)"
       id="g10"><g
   fill="#000000"
   fill-opacity="1"
   id="g9"
   transform="matrix(0.352778,0,0,0.352778,-1.16611,-0.706217)">
    <g
   id="g8"
   transform="translate(1.993,19.205)">
      <path
   d="m 7.65625,-15.4375 c -0.625,-1.765625 -2.578125,-1.765625 -2.890625,-1.765625 -0.15625,0 -0.421875,0 -0.421875,0.25 0,0.203125 0.140625,0.21875 0.265625,0.25 0.375,0.04687 0.671875,0.09375 1.0625,0.8125 0.25,0.484375 2.796875,7.890625 2.796875,7.9375 0,0.015625 -0.015625,0.046875 -0.21875,0.25 L 1.8125,-1.1875 c -0.296875,0.296875 -0.5,0.5 -0.5,0.8125 0,0.34375 0.296875,0.640625 0.6875,0.640625 0.109375,0 0.375,-0.046875 0.53125,-0.1875 0.390625,-0.375 3.9375,-4.71875 6.1875,-7.390625 0.65625,1.9375 1.4375,4.21875 2.203125,6.296875 0.125,0.375 0.25,0.71875 0.59375,1.046875 0.25,0.21875 0.3125,0.21875 1,0.21875 h 0.46875 c 0.09375,0 0.28125,0 0.28125,-0.203125 0,-0.09375 -0.03125,-0.125 -0.125,-0.21875 -0.234375,-0.28125 -0.40625,-0.71875 -0.5,-1.015625 z m 0,0"
   id="path8" />
    </g>
  </g>
</g><g
       inkscape:label=""
       transform="translate(100.85154,80.867889)"
       id="g11"><g
   fill="#000000"
   fill-opacity="1"
   id="g2"
   transform="matrix(0.352778,0,0,0.352778,-0.807817,-0.603559)">
    <g
   id="use1"
   transform="translate(1.993,12.664)">
      <path
   d="m 14.71875,-9.3125 c 0,-0.71875 -0.203125,-1.640625 -1.0625,-1.640625 -0.5,0 -1.0625,0.625 -1.0625,1.109375 0,0.234375 0.09375,0.375 0.296875,0.59375 0.375,0.421875 0.84375,1.09375 0.84375,2.265625 0,0.890625 -0.546875,2.296875 -0.953125,3.0625 -0.6875,1.375 -1.828125,2.53125 -3.109375,2.53125 -1.5625,0 -2.15625,-0.984375 -2.4375,-2.375 0.28125,-0.640625 0.84375,-2.25 0.84375,-2.90625 0,-0.265625 -0.09375,-0.484375 -0.421875,-0.484375 -0.171875,0 -0.375,0.09375 -0.5,0.296875 -0.34375,0.546875 -0.65625,2.5 -0.640625,3.015625 -0.46875,0.921875 -1.8125,2.453125 -3.390625,2.453125 -1.65625,0 -2.109375,-1.453125 -2.109375,-2.875 0,-2.578125 1.609375,-4.828125 2.0625,-5.453125 0.25,-0.375 0.421875,-0.609375 0.421875,-0.671875 0,-0.171875 -0.109375,-0.4375 -0.328125,-0.4375 -0.390625,0 -0.515625,0.328125 -0.71875,0.625 C 1.1875,-8.25 0.296875,-5.5 0.296875,-3.125 c 0,1.53125 0.578125,3.375 2.421875,3.375 2.0625,0 3.359375,-1.765625 3.875,-2.703125 C 6.796875,-1.0625 7.53125,0.25 9.34375,0.25 c 1.875,0 3.078125,-1.65625 3.96875,-3.671875 0.640625,-1.4375 1.40625,-4.53125 1.40625,-5.890625 z m 0,0"
   id="path2" />
    </g>
  </g>
</g><g
       inkscape:label=""
       transform="translate(117.108,87.260878)"
       id="g14"><g
   fill="#000000"
   fill-opacity="1"
   id="g13"
   transform="matrix(0.352778,0,0,0.352778,-0.940109,-0.614936)">
    <g
   id="g12"
   transform="translate(1.993,12.665)">
      <path
   d="M 6.515625,2.78125 C 5.84375,3.71875 4.875,4.5625 3.671875,4.5625 3.375,4.5625 2.1875,4.515625 1.8125,3.375 1.890625,3.390625 2,3.390625 2.0625,3.390625 2.796875,3.390625 3.296875,2.75 3.296875,2.1875 3.296875,1.609375 2.828125,1.40625 2.453125,1.40625 2.0625,1.40625 1.1875,1.703125 1.1875,2.921875 1.1875,4.1875 2.25,5.0625 3.671875,5.0625 c 2.46875,0 4.984375,-2.28125 5.671875,-5.03125 l 2.421875,-9.671875 c 0.03125,-0.125 0.07813,-0.265625 0.07813,-0.421875 0,-0.375 -0.296875,-0.625 -0.671875,-0.625 -0.21875,0 -0.734375,0.109375 -0.9375,0.84375 l -1.82813,7.296875 c -0.125,0.4375 -0.125,0.484375 -0.328125,0.765625 -0.5,0.6875 -1.3125,1.53125 -2.5,1.53125 C 4.1875,-0.25 4.0625,-1.609375 4.0625,-2.28125 c 0,-1.40625 0.671875,-3.3125 1.34375,-5.109375 0.265625,-0.71875 0.421875,-1.0625 0.421875,-1.5625 0,-1.03125 -0.75,-1.96875 -1.96875,-1.96875 -2.265625,0 -3.1875,3.59375 -3.1875,3.78125 0,0.109375 0.09375,0.234375 0.265625,0.234375 0.234375,0 0.25,-0.109375 0.34375,-0.453125 0.609375,-2.078125 1.546875,-3.078125 2.515625,-3.078125 0.21875,0 0.640625,0 0.640625,0.828125 0,0.640625 -0.28125,1.359375 -0.640625,2.296875 -1.21875,3.25 -1.21875,4.0625 -1.21875,4.65625 0,2.359375 1.6875,2.90625 2.921875,2.90625 0.71875,0 1.609375,-0.21875 2.484375,-1.140625 L 8,-0.875 C 7.625,0.59375 7.390625,1.5625 6.515625,2.78125 Z m 0,0"
   id="path11" />
    </g>
  </g>
</g><g
       inkscape:label=""
       transform="translate(172.81833,113.56346)"
       id="g17"><g
   fill="#000000"
   fill-opacity="1"
   id="g16"
   transform="matrix(0.352778,0,0,0.352778,-0.945621,-0.614583)">
    <g
   id="g15"
   transform="translate(1.993,12.664)">
      <path
   d="m 11.75,-10.109375 c -0.796875,0.140625 -1.09375,0.734375 -1.09375,1.21875 0,0.59375 0.46875,0.78125 0.8125,0.78125 0.75,0 1.265625,-0.640625 1.265625,-1.3125 0,-1.03125 -1.1875,-1.5 -2.234375,-1.5 -1.5,0 -2.34375,1.484375 -2.5625,1.953125 -0.578125,-1.859375 -2.109375,-1.953125 -2.5625,-1.953125 -2.53125,0 -3.859375,3.234375 -3.859375,3.78125 0,0.109375 0.09375,0.234375 0.265625,0.234375 0.203125,0 0.25,-0.15625 0.296875,-0.25 0.84375,-2.75 2.5,-3.28125 3.21875,-3.28125 1.125,0 1.34375,1.046875 1.34375,1.640625 C 6.640625,-8.25 6.5,-7.6875 6.1875,-6.5 l -0.828125,3.40625 c -0.375,1.484375 -1.09375,2.84375 -2.40625,2.84375 -0.125,0 -0.75,0 -1.265625,-0.3125 0.890625,-0.1875 1.09375,-0.921875 1.09375,-1.21875 0,-0.5 -0.375,-0.796875 -0.84375,-0.796875 -0.59375,0 -1.25,0.515625 -1.25,1.3125 0,1.046875 1.171875,1.515625 2.234375,1.515625 1.1875,0 2.03125,-0.9375 2.5625,-1.953125 C 5.875,-0.25 7.109375,0.25 8.03125,0.25 c 2.53125,0 3.859375,-3.25 3.859375,-3.796875 0,-0.125 -0.09375,-0.21875 -0.25,-0.21875 -0.21875,0 -0.234375,0.125 -0.3125,0.328125 -0.671875,2.171875 -2.109375,3.1875 -3.21875,3.1875 -0.875,0 -1.34375,-0.640625 -1.34375,-1.65625 0,-0.546875 0.09375,-0.9375 0.5,-2.578125 L 8.125,-7.859375 C 8.5,-9.34375 9.34375,-10.4375 10.484375,-10.4375 c 0.04687,0 0.734375,0 1.265625,0.328125 z m 0,0"
   id="path15" />
    </g>
  </g>
</g><g
       inkscape:label=""
       transform="translate(164.05081,87.078221)"
       id="g20"><g
   fill="#000000"
   fill-opacity="1"
   id="g19"
   transform="matrix(0.352778,0,0,0.352778,-1.07791,-0.614583)">
    <g
   id="g18"
   transform="translate(1.993,12.664)">
      <path
   d="m 3.140625,-2 c 1.078125,-1.21875 1.9375,-1.984375 3.171875,-3.109375 1.5,-1.28125 2.140625,-1.90625 2.484375,-2.28125 1.734375,-1.703125 2.609375,-3.140625 2.609375,-3.34375 0,-0.1875 -0.203125,-0.1875 -0.25,-0.1875 -0.171875,0 -0.234375,0.09375 -0.359375,0.265625 -0.609375,1.0625 -1.203125,1.59375 -1.84375,1.59375 -0.53125,0 -0.796875,-0.234375 -1.265625,-0.828125 -0.53125,-0.609375 -0.953125,-1.03125 -1.671875,-1.03125 -1.796875,0 -2.890625,2.25 -2.890625,2.765625 0,0.078125 0.015625,0.21875 0.25,0.21875 0.1875,0 0.21875,-0.09375 0.296875,-0.265625 C 4.09375,-9.1875 5.28125,-9.375 5.75,-9.375 c 0.515625,0 1.015625,0.1875 1.53125,0.40625 0.953125,0.390625 1.34375,0.390625 1.59375,0.390625 0.171875,0 0.265625,0 0.390625,-0.015625 C 8.453125,-7.625 7.109375,-6.4375 6,-5.421875 L 3.5,-3.125 c -1.515625,1.53125 -2.4375,3 -2.4375,3.171875 0,0.15625 0.125,0.203125 0.28125,0.203125 0.140625,0 0.171875,-0.03125 0.34375,-0.328125 0.390625,-0.609375 1.1875,-1.53125 2.109375,-1.53125 0.515625,0 0.765625,0.171875 1.265625,0.796875 0.46875,0.546875 0.890625,1.0625 1.671875,1.0625 2.4375,0 3.828125,-3.15625 3.828125,-3.71875 0,-0.09375 -0.03125,-0.25 -0.28125,-0.25 -0.1875,0 -0.21875,0.09375 -0.296875,0.34375 -0.546875,1.46875 -2,2.0625 -2.96875,2.0625 C 6.5,-1.3125 6,-1.484375 5.484375,-1.703125 c -1,-0.40625 -1.265625,-0.40625 -1.59375,-0.40625 -0.25,0 -0.515625,0 -0.75,0.109375 z m 0,0"
   id="path17" />
    </g>
  </g>
</g></g><g
     inkscape:groupmode="layer"
     id="layer2"
     inkscape:label="Camada 2"
     transform="translate(-34.182243,-68.538528)"><path
       style="fill:none;stroke:#000000;stroke-width:0.750807"
       id="path4"
       sodipodi:type="arc"
       sodipodi:cx="107.45937"
       sodipodi:cy="163.25555"
       sodipodi:rx="67.944267"
       sodipodi:ry="67.944267"
       sodipodi:start="4.1603032"
       sodipodi:end="4.1569358"
       sodipodi:open="true"
       sodipodi:arc-type="arc"
       d="m 71.825033,105.4056 a 67.944267,67.944267 0 0 1 93.454277,22.16693 67.944267,67.944267 0 0 1 -22.08824,93.4729 67.944267,67.944267 0 0 1 -93.49147,-22.00955 67.944267,67.944267 0 0 1 21.930831,-93.50996" /><path
       style="fill:none;stroke:#000000;stroke-width:0.437611;stroke-dasharray:2.62567, 2.62567;stroke-dashoffset:0"
       id="path3"
       sodipodi:type="arc"
       sodipodi:cx="107.71769"
       sodipodi:cy="162.60957"
       sodipodi:rx="68.103798"
       sodipodi:ry="23.027834"
       sodipodi:start="3.1513525"
       sodipodi:end="0.056024081"
       sodipodi:open="true"
       sodipodi:arc-type="arc"
       d="m 39.617135,162.38483 a 68.103798,23.027834 0 0 1 35.544475,-20.00153 68.103798,23.027834 0 0 1 68.97399,0.76739 68.103798,23.027834 0 0 1 31.57904,20.74832" /><path
       style="fill:none;stroke:#000000;stroke-width:0.437611"
       id="path5"
       sodipodi:type="arc"
       sodipodi:cx="107.71769"
       sodipodi:cy="162.60957"
       sodipodi:rx="68.103798"
       sodipodi:ry="23.027834"
       sodipodi:start="0.031692537"
       sodipodi:end="3.2345583"
       sodipodi:open="true"
       sodipodi:arc-type="arc"
       d="M 175.78729,163.33926 A 68.103798,23.027834 0 0 1 138.65091,183.12498 68.103798,23.027834 0 0 1 69.48064,181.66531 68.103798,23.027834 0 0 1 39.907977,160.47186" /><path
       style="fill:none;stroke:#000000;stroke-width:0.765;stroke-dasharray:none;stroke-dashoffset:0;marker-end:url(#marker10)"
       d="M 108.49262,162.73893 V 73.878307"
       id="path6" /><path
       style="fill:none;stroke:#000000;stroke-width:0.765;stroke-dasharray:none;stroke-dashoffset:0;marker-start:url(#marker10);marker-end:url(#marker10)"
       d="M 38.230733,215.17703 108.2343,162.2223 151.88967,180.3044"
       id="path7"
       sodipodi:nodetypes="ccc" /><path
       style="fill:none;stroke:#000000;stroke-width:0.765;stroke-dasharray:none;stroke-dashoffset:0"
       d="m 108.2343,97.126725 c 38.2804,13.850145 37.80531,49.313935 41.58884,82.402725"
       id="path14"
       sodipodi:nodetypes="cc" /><path
       style="fill:none;stroke:#000000;stroke-width:0.765;stroke-dasharray:none;stroke-dashoffset:0;marker-end:url(#marker10)"
       d="m 138.32809,122.44167 34.35599,-11.36589"
       id="path20" /><path
       style="fill:none;stroke:#000000;stroke-width:0.765;stroke-dasharray:none;stroke-dashoffset:0;marker-end:url(#Triangle)"
       d="M 138.45725,122.31251 123.47493,90.539672"
       id="path21" /><path
       style="fill:none;stroke:#000000;stroke-width:0.765;stroke-dasharray:none;stroke-dashoffset:0;marker-end:url(#marker10)"
       d="m 138.32809,122.18335 22.086,-30.22294"
       id="path22" /><path
       style="fill:none;stroke:#000000;stroke-width:0.765;stroke-dasharray:4.59, 4.59;stroke-dashoffset:0"
       d="m 108.88009,162.73893 29.31884,-40.55558"
       id="path34" /><circle
       style="fill:#1a1a1a;stroke:#000000;stroke-width:0.765;stroke-dasharray:none;stroke-dashoffset:0"
       id="circle12"
       cx="138.26352"
       cy="122.24794"
       r="1.3561578" /><path
       style="fill:none;stroke:#000000;stroke-width:0.765;stroke-dasharray:none;stroke-dashoffset:0;marker-start:url(#marker10)"
       d="m 119.72936,151.37303 c 3.40449,6.56454 3.82386,10.39761 2.06652,16.2739"
       id="path13"
       sodipodi:nodetypes="cc" /><path
       style="fill:none;stroke:#000000;stroke-width:0.765;stroke-dasharray:none;stroke-dashoffset:0;marker-start:url(#Triangle);marker-end:url(#marker10)"
       d="m 93.639462,176.04219 c 14.545628,3.23913 24.802788,1.8777 36.939158,-2.454"
       id="path23"
       sodipodi:nodetypes="cc" /></g></svg>
