<?xml version="1.0" encoding="UTF-8" standalone="no"?>
<!-- Created with Inkscape (http://www.inkscape.org/) -->

<svg
   width="146.31459mm"
   height="165.10001mm"
   viewBox="0 0 146.31459 165.10001"
   version="1.1"
   id="svg1"
   xml:space="preserve"
   inkscape:version="1.3.2 (091e20e, 2023-11-25, custom)"
   sodipodi:docname="esfericas2.svg"
   inkscape:export-filename="esfericas2.png"
   inkscape:export-xdpi="96"
   inkscape:export-ydpi="96"
   xmlns:inkscape="http://www.inkscape.org/namespaces/inkscape"
   xmlns:sodipodi="http://sodipodi.sourceforge.net/DTD/sodipodi-0.dtd"
   xmlns="http://www.w3.org/2000/svg"
   xmlns:svg="http://www.w3.org/2000/svg"><sodipodi:namedview
     id="namedview1"
     pagecolor="#ffffff"
     bordercolor="#000000"
     borderopacity="0.25"
     inkscape:showpageshadow="2"
     inkscape:pageopacity="0.0"
     inkscape:pagecheckerboard="0"
     inkscape:deskcolor="#d1d1d1"
     inkscape:document-units="mm"
     inkscape:zoom="1.0242632"
     inkscape:cx="258.72256"
     inkscape:cy="280.68957"
     inkscape:window-width="1920"
     inkscape:window-height="1009"
     inkscape:window-x="-8"
     inkscape:window-y="-8"
     inkscape:window-maximized="1"
     inkscape:current-layer="layer2" /><defs
     id="defs1"><marker
       style="overflow:visible"
       id="marker10"
       refX="0"
       refY="0"
       orient="auto-start-reverse"
       inkscape:stockid="Triangle arrow"
       markerWidth="1"
       markerHeight="1"
       viewBox="0 0 1 1"
       inkscape:isstock="true"
       inkscape:collect="always"
       preserveAspectRatio="xMidYMid"><path
         transform="scale(0.5)"
         style="fill:context-stroke;fill-rule:evenodd;stroke:context-stroke;stroke-width:1pt"
         d="M 5.77,0 -2.88,5 V -5 Z"
         id="path10" /></marker><marker
       style="overflow:visible"
       id="Triangle"
       refX="0"
       refY="0"
       orient="auto-start-reverse"
       inkscape:stockid="Triangle arrow"
       markerWidth="1"
       markerHeight="1"
       viewBox="0 0 1 1"
       inkscape:isstock="true"
       inkscape:collect="always"
       preserveAspectRatio="xMidYMid"><path
         transform="scale(0.5)"
         style="fill:context-stroke;fill-rule:evenodd;stroke:context-stroke;stroke-width:1pt"
         d="M 5.77,0 -2.88,5 V -5 Z"
         id="path135" /></marker></defs><g
     inkscape:label="Camada 1"
     inkscape:groupmode="layer"
     id="layer1"
     style="display:inline"
     transform="translate(-34.1822, -68.5385)"><g
       inkscape:label=""
       transform="translate(100.05284,72.28448)"
       id="g12"><g
   fill="#000000"
   fill-opacity="1"
   id="g2"
   transform="matrix(0.352778,0,0,0.352778,-0.923572,-0.607748)">
    <g
   id="use1"
   transform="translate(1.993,13.754)">
      <path
   d="M 10.859375,-2.515625 H 10.5625 c -0.15625,0.796875 -0.21875,1 -0.296875,1.28125 -0.09375,0.25 -0.140625,0.390625 -1.140625,0.390625 H 7.734375 c 0.1875,-1 0.59375,-1.734375 1.328125,-2.890625 0.890625,-1.46875 1.625,-2.65625 1.625,-4.078125 0,-2.328125 -2.203125,-4.21875 -4.9375,-4.21875 -2.8125,0 -4.953125,1.90625 -4.953125,4.21875 0,1.421875 0.75,2.640625 1.59375,4 C 3.15625,-2.578125 3.5625,-1.84375 3.75,-0.84375 H 2.359375 c -0.984375,0 -1.03125,-0.140625 -1.125,-0.375 -0.09375,-0.28125 -0.125,-0.5 -0.296875,-1.296875 H 0.625 L 1.125,0 h 2.59375 c 0.359375,0 0.375,-0.015625 0.375,-0.28125 0,-1.21875 -0.625,-2.8125 -0.921875,-3.5625 C 2.625,-5.1875 2.09375,-6.484375 2.09375,-7.828125 c 0,-2.578125 1.84375,-3.9375 3.640625,-3.9375 1.875,0 3.65625,1.421875 3.65625,3.9375 0,1.3125 -0.46875,2.5 -1.109375,4.078125 C 8,-3.046875 7.390625,-1.484375 7.390625,-0.28125 7.390625,0 7.40625,0 7.765625,0 h 2.59375 z m 0,0"
   id="path2" />
    </g>
  </g>
</g><g
       inkscape:label=""
       transform="translate(126.14273,158.82026)"
       id="g15"><g
   fill="#000000"
   fill-opacity="1"
   id="g14"
   transform="matrix(0.352778,0,0,0.352778,-1.02279,-0.703395)">
    <g
   id="g13"
   transform="translate(1.993,13.947)">
      <path
   d="m 5.328125,-10.734375 c -0.4375,-1.21875 -1.796875,-1.21875 -2.015625,-1.21875 -0.109375,0 -0.296875,0 -0.296875,0.171875 0,0.140625 0.09375,0.15625 0.1875,0.171875 0.265625,0.03125 0.46875,0.07813 0.734375,0.578125 0.171875,0.328125 1.953125,5.46875 1.953125,5.5 0,0.015625 -0.015625,0.03125 -0.15625,0.171875 L 1.25,-0.828125 c -0.203125,0.203125 -0.34375,0.34375 -0.34375,0.5625 0,0.25 0.21875,0.453125 0.484375,0.453125 0.078125,0 0.265625,-0.03125 0.359375,-0.140625 0.28125,-0.25 2.75,-3.265625 4.3125,-5.125 0.453125,1.34375 1,2.921875 1.53125,4.375 0.078125,0.25 0.171875,0.5 0.40625,0.71875 0.171875,0.15625 0.21875,0.15625 0.703125,0.15625 h 0.3125 c 0.078125,0 0.203125,0 0.203125,-0.140625 0,-0.0625 -0.03125,-0.078125 -0.09375,-0.15625 -0.15625,-0.1875 -0.28125,-0.5 -0.34375,-0.703125 z m 0,0"
   id="path12" />
    </g>
  </g>
</g><g
       inkscape:label=""
       transform="translate(113.48526,178.19394)"
       id="g25"><g
   fill="#000000"
   fill-opacity="1"
   id="g24"
   transform="matrix(0.352778,0,0,0.352778,-0.989718,-0.703748)">
    <g
   id="g23"
   transform="translate(1.993,13.948)">
      <path
   d="m 7.40625,-11.796875 c 0,-0.15625 -0.125,-0.15625 -0.171875,-0.15625 -0.15625,0 -0.171875,0.03125 -0.25,0.328125 L 6.0625,-7.921875 c -0.046875,0.21875 -0.078125,0.25 -0.09375,0.265625 -0.015625,0.03125 -0.125,0.046875 -0.171875,0.046875 -2.8125,0.234375 -4.984375,2.5625 -4.984375,4.71875 0,1.859375 1.421875,3 3.21875,3.09375 -0.140625,0.53125 -0.265625,1.09375 -0.390625,1.625 C 3.390625,2.734375 3.25,3.3125 3.25,3.375 c 0,0.03125 0,0.140625 0.171875,0.140625 0.0625,0 0.125,0 0.15625,-0.078125 C 3.609375,3.40625 3.71875,3 3.78125,2.765625 l 0.640625,-2.5625 c 2.953125,-0.15625 5.1875,-2.5625 5.1875,-4.734375 0,-1.734375 -1.3125,-2.96875 -3.21875,-3.09375 z m -1.125,4.515625 c 1.140625,0.0625 2.28125,0.703125 2.28125,2.390625 0,1.953125 -1.359375,4.53125 -4.046875,4.734375 z m -2.171875,7.140625 c -0.84375,-0.046875 -2.25,-0.5 -2.25,-2.390625 0,-2.171875 1.5625,-4.578125 4.046875,-4.734375 z m 0,0"
   id="path23" />
    </g>
  </g>
</g><g
       inkscape:label=""
       transform="translate(176.25599,108.96532)"
       id="g28"><g
   fill="#000000"
   fill-opacity="1"
   id="g27"
   transform="matrix(0.352778,0,0,0.352778,-0.873963,-0.638616)">
    <g
   id="g26"
   transform="translate(1.993,9.4040003)">
      <path
   d="m 8.15625,-7.03125 c -0.546875,0.109375 -0.75,0.515625 -0.75,0.84375 0,0.421875 0.328125,0.5625 0.5625,0.5625 0.515625,0 0.875,-0.453125 0.875,-0.921875 0,-0.71875 -0.8125,-1.046875 -1.546875,-1.046875 -1.046875,0 -1.625,1.03125 -1.78125,1.359375 -0.40625,-1.296875 -1.46875,-1.359375 -1.78125,-1.359375 -1.75,0 -2.6875,2.25 -2.6875,2.640625 0,0.0625 0.078125,0.15625 0.1875,0.15625 0.140625,0 0.171875,-0.109375 0.21875,-0.171875 C 2.03125,-6.890625 3.1875,-7.25 3.6875,-7.25 c 0.765625,0 0.921875,0.71875 0.921875,1.140625 0,0.375 -0.09375,0.765625 -0.296875,1.59375 L 3.71875,-2.15625 c -0.25,1.03125 -0.75,1.984375 -1.671875,1.984375 -0.078125,0 -0.515625,0 -0.875,-0.21875 0.625,-0.125 0.75,-0.640625 0.75,-0.84375 0,-0.34375 -0.25,-0.5625 -0.578125,-0.5625 -0.40625,0 -0.859375,0.375 -0.859375,0.921875 0,0.71875 0.8125,1.046875 1.546875,1.046875 0.828125,0 1.40625,-0.65625 1.78125,-1.359375 0.265625,1.015625 1.125,1.359375 1.765625,1.359375 1.75,0 2.6875,-2.25 2.6875,-2.640625 0,-0.078125 -0.0625,-0.15625 -0.171875,-0.15625 -0.15625,0 -0.171875,0.09375 -0.21875,0.234375 -0.46875,1.515625 -1.46875,2.21875 -2.25,2.21875 -0.59375,0 -0.921875,-0.453125 -0.921875,-1.15625 0,-0.375 0.0625,-0.65625 0.34375,-1.78125 l 0.59375,-2.34375 C 5.90625,-6.484375 6.484375,-7.25 7.28125,-7.25 c 0.03125,0 0.515625,0 0.875,0.21875 z m 0,0"
   id="path25" />
    </g>
  </g>
</g><g
       inkscape:label=""
       transform="translate(119.16821,86.750163)"
       id="g31"><g
   fill="#000000"
   fill-opacity="1"
   id="g30"
   transform="matrix(0.352778,0,0,0.352778,-0.868451,-0.638969)">
    <g
   id="g29"
   transform="translate(1.993,9.4049997)">
      <path
   d="m 4.53125,1.921875 c -0.46875,0.65625 -1.140625,1.25 -1.984375,1.25 -0.203125,0 -1.03125,-0.03125 -1.296875,-0.828125 0.0625,0.015625 0.140625,0.015625 0.171875,0.015625 0.53125,0 0.875,-0.453125 0.875,-0.84375 0,-0.390625 -0.328125,-0.53125 -0.59375,-0.53125 -0.28125,0 -0.875,0.203125 -0.875,1.046875 0,0.875 0.734375,1.484375 1.71875,1.484375 1.71875,0 3.46875,-1.59375 3.9375,-3.5 l 1.6875,-6.71875 c 0.03125,-0.078125 0.0625,-0.1875 0.0625,-0.28125 0,-0.265625 -0.203125,-0.4375 -0.46875,-0.4375 -0.15625,0 -0.515625,0.0625 -0.65625,0.59375 L 5.84375,-1.78125 C 5.75,-1.46875 5.75,-1.421875 5.609375,-1.234375 5.265625,-0.75 4.703125,-0.171875 3.875,-0.171875 c -0.96875,0 -1.046875,-0.953125 -1.046875,-1.40625 0,-0.984375 0.453125,-2.3125 0.921875,-3.546875 0.1875,-0.5 0.296875,-0.75 0.296875,-1.09375 0,-0.71875 -0.515625,-1.375 -1.359375,-1.375 -1.578125,0 -2.21875,2.5 -2.21875,2.640625 0,0.0625 0.0625,0.15625 0.1875,0.15625 0.15625,0 0.171875,-0.078125 0.234375,-0.3125 C 1.3125,-6.5625 1.96875,-7.25 2.640625,-7.25 c 0.15625,0 0.4375,0 0.4375,0.5625 0,0.453125 -0.1875,0.953125 -0.4375,1.609375 -0.84375,2.25 -0.84375,2.828125 -0.84375,3.234375 0,1.640625 1.171875,2.015625 2.03125,2.015625 0.5,0 1.109375,-0.15625 1.71875,-0.796875 L 5.5625,-0.609375 C 5.296875,0.40625 5.125,1.078125 4.53125,1.921875 Z m 0,0"
   id="path28" />
    </g>
  </g>
</g><g
       inkscape:label=""
       transform="translate(165.66505,85.7169)"
       id="g34"><g
   fill="#000000"
   fill-opacity="1"
   id="g33"
   transform="matrix(0.352778,0,0,0.352778,-0.962157,-0.638616)">
    <g
   id="g32"
   transform="translate(1.993,9.4040003)">
      <path
   d="m 2.1875,-1.390625 c 0.734375,-0.84375 1.34375,-1.375 2.203125,-2.15625 C 5.421875,-4.4375 5.875,-4.875 6.109375,-5.125 7.3125,-6.3125 7.921875,-7.3125 7.921875,-7.453125 7.921875,-7.59375 7.78125,-7.59375 7.75,-7.59375 c -0.125,0 -0.15625,0.0625 -0.25,0.1875 -0.421875,0.75 -0.84375,1.109375 -1.28125,1.109375 -0.359375,0 -0.546875,-0.15625 -0.875,-0.578125 -0.375,-0.421875 -0.65625,-0.71875 -1.15625,-0.71875 -1.265625,0 -2.015625,1.5625 -2.015625,1.921875 0,0.0625 0.015625,0.15625 0.171875,0.15625 0.140625,0 0.15625,-0.0625 0.203125,-0.1875 0.296875,-0.6875 1.125,-0.8125 1.453125,-0.8125 0.359375,0 0.703125,0.125 1.0625,0.28125 0.65625,0.28125 0.921875,0.28125 1.109375,0.28125 0.109375,0 0.1875,0 0.265625,-0.015625 -0.5625,0.671875 -1.5,1.484375 -2.265625,2.203125 l -1.75,1.59375 c -1.046875,1.0625 -1.6875,2.078125 -1.6875,2.203125 0,0.109375 0.09375,0.140625 0.203125,0.140625 0.09375,0 0.109375,-0.015625 0.234375,-0.21875 C 1.453125,-0.484375 2,-1.125 2.640625,-1.125 3,-1.125 3.171875,-1 3.515625,-0.5625 3.84375,-0.1875 4.125,0.171875 4.6875,0.171875 c 1.6875,0 2.640625,-2.1875 2.640625,-2.578125 0,-0.078125 -0.015625,-0.171875 -0.1875,-0.171875 -0.125,0 -0.15625,0.0625 -0.203125,0.234375 -0.375,1.015625 -1.390625,1.4375 -2.0625,1.4375 -0.359375,0 -0.703125,-0.125 -1.0625,-0.28125 -0.703125,-0.28125 -0.890625,-0.28125 -1.109375,-0.28125 -0.171875,0 -0.359375,0 -0.515625,0.078125 z m 0,0"
   id="path31" />
    </g>
  </g>
</g></g><g
     inkscape:groupmode="layer"
     id="layer2"
     inkscape:label="Camada 2"
     transform="translate(-34.182243,-68.538528)"><path
       style="fill:none;stroke:#000000;stroke-width:0.750807"
       id="path1"
       sodipodi:type="arc"
       sodipodi:cx="107.45937"
       sodipodi:cy="163.25555"
       sodipodi:rx="67.944267"
       sodipodi:ry="67.944267"
       sodipodi:start="4.1603032"
       sodipodi:end="4.1569358"
       sodipodi:open="true"
       sodipodi:arc-type="arc"
       d="m 71.825033,105.4056 a 67.944267,67.944267 0 0 1 93.454277,22.16693 67.944267,67.944267 0 0 1 -22.08824,93.4729 67.944267,67.944267 0 0 1 -93.49147,-22.00955 67.944267,67.944267 0 0 1 21.930831,-93.50996" /><path
       style="fill:none;stroke:#000000;stroke-width:0.437611;stroke-dasharray:2.62567, 2.62567;stroke-dashoffset:0"
       id="path3"
       sodipodi:type="arc"
       sodipodi:cx="107.71769"
       sodipodi:cy="162.60957"
       sodipodi:rx="68.103798"
       sodipodi:ry="23.027834"
       sodipodi:start="3.1513525"
       sodipodi:end="0.056024081"
       sodipodi:open="true"
       sodipodi:arc-type="arc"
       d="m 39.617135,162.38483 a 68.103798,23.027834 0 0 1 35.544475,-20.00153 68.103798,23.027834 0 0 1 68.97399,0.76739 68.103798,23.027834 0 0 1 31.57904,20.74832" /><path
       style="fill:none;stroke:#000000;stroke-width:0.437611"
       id="path4"
       sodipodi:type="arc"
       sodipodi:cx="107.71769"
       sodipodi:cy="162.60957"
       sodipodi:rx="68.103798"
       sodipodi:ry="23.027834"
       sodipodi:start="0.031692537"
       sodipodi:end="3.2345583"
       sodipodi:open="true"
       sodipodi:arc-type="arc"
       d="M 175.78729,163.33926 A 68.103798,23.027834 0 0 1 138.65091,183.12498 68.103798,23.027834 0 0 1 69.48064,181.66531 68.103798,23.027834 0 0 1 39.907977,160.47186" /><path
       style="fill:none;stroke:#000000;stroke-width:0.765;stroke-dasharray:none;stroke-dashoffset:0;marker-end:url(#marker10)"
       d="M 108.49262,162.73893 V 73.878307"
       id="path5" /><path
       style="fill:none;stroke:#000000;stroke-width:0.765;stroke-dasharray:none;stroke-dashoffset:0"
       d="M 38.230733,215.17703 108.2343,162.2223 151.88967,180.3044"
       id="path6"
       sodipodi:nodetypes="ccc" /><path
       style="fill:none;stroke:#000000;stroke-width:0.765;stroke-dasharray:none;stroke-dashoffset:0"
       d="m 108.2343,97.126725 c 38.2804,13.850145 37.80531,49.313935 41.58884,82.402725"
       id="path7"
       sodipodi:nodetypes="cc" /><path
       style="fill:none;stroke:#000000;stroke-width:0.765;stroke-dasharray:none;stroke-dashoffset:0;marker-end:url(#marker10)"
       d="m 138.32809,122.44167 34.35599,-11.36589"
       id="path20" /><path
       style="fill:none;stroke:#000000;stroke-width:0.765;stroke-dasharray:none;stroke-dashoffset:0;marker-end:url(#Triangle)"
       d="M 138.45725,122.31251 123.47493,90.539672"
       id="path21" /><path
       style="fill:none;stroke:#000000;stroke-width:0.765;stroke-dasharray:none;stroke-dashoffset:0;marker-end:url(#marker10)"
       d="m 138.32809,122.18335 22.086,-30.22294"
       id="path22" /><path
       style="fill:none;stroke:#000000;stroke-width:0.765;stroke-dasharray:4.59, 4.59;stroke-dashoffset:0"
       d="m 108.88009,162.73893 29.31884,-40.55558"
       id="path34" /><circle
       style="fill:#1a1a1a;stroke:#000000;stroke-width:0.765;stroke-dasharray:none;stroke-dashoffset:0"
       id="circle12"
       cx="138.26352"
       cy="122.24794"
       r="1.3561578" /><path
       style="fill:none;stroke:#000000;stroke-width:0.765;stroke-dasharray:none;stroke-dashoffset:0;marker-start:url(#marker10)"
       d="m 119.72936,151.37303 c 3.40449,6.56454 3.82386,10.39761 2.06652,16.2739"
       id="path13"
       sodipodi:nodetypes="cc" /><path
       style="fill:none;stroke:#000000;stroke-width:0.765;stroke-dasharray:none;stroke-dashoffset:0;marker-start:url(#Triangle);marker-end:url(#marker10)"
       d="m 93.639462,176.04219 c 14.545628,3.23913 24.802788,1.8777 36.939158,-2.454"
       id="path14"
       sodipodi:nodetypes="cc" /></g></svg>
