<?xml version="1.0" encoding="UTF-8" standalone="no"?>
<!-- Created with Inkscape (http://www.inkscape.org/) -->

<svg
   width="99.529282mm"
   height="103.15215mm"
   viewBox="0 0 99.529282 103.15215"
   version="1.1"
   id="svg1"
   xml:space="preserve"
   inkscape:version="1.3.2 (091e20e, 2023-11-25, custom)"
   sodipodi:docname="ex6-1.svg"
   inkscape:export-filename="ex6-1.png"
   inkscape:export-xdpi="300"
   inkscape:export-ydpi="300"
   xmlns:inkscape="http://www.inkscape.org/namespaces/inkscape"
   xmlns:sodipodi="http://sodipodi.sourceforge.net/DTD/sodipodi-0.dtd"
   xmlns="http://www.w3.org/2000/svg"
   xmlns:svg="http://www.w3.org/2000/svg"><sodipodi:namedview
     id="namedview1"
     pagecolor="#ffffff"
     bordercolor="#000000"
     borderopacity="0.25"
     inkscape:showpageshadow="2"
     inkscape:pageopacity="0.0"
     inkscape:pagecheckerboard="0"
     inkscape:deskcolor="#d1d1d1"
     inkscape:document-units="mm"
     inkscape:zoom="1.0242632"
     inkscape:cx="129.84943"
     inkscape:cy="233.82661"
     inkscape:window-width="1920"
     inkscape:window-height="1009"
     inkscape:window-x="-8"
     inkscape:window-y="-8"
     inkscape:window-maximized="1"
     inkscape:current-layer="layer1"
     inkscape:export-bgcolor="#ffffffff" /><defs
     id="defs1"><marker
       style="overflow:visible"
       id="Triangle"
       refX="0"
       refY="0"
       orient="auto-start-reverse"
       inkscape:stockid="Triangle arrow"
       markerWidth="1"
       markerHeight="1"
       viewBox="0 0 1 1"
       inkscape:isstock="true"
       inkscape:collect="always"
       preserveAspectRatio="xMidYMid"><path
         transform="scale(0.5)"
         style="fill:context-stroke;fill-rule:evenodd;stroke:context-stroke;stroke-width:1pt"
         d="M 5.77,0 -2.88,5 V -5 Z"
         id="path135" /></marker></defs><g
     inkscape:label="Camada 1"
     inkscape:groupmode="layer"
     id="layer1"
     transform="translate(-60.158697,-90.374024)"><g
       id="strokes"
       inkscape:label="strokes"
       transform="matrix(0.10083372,0,0,0.10083372,12.914737,84.897645)"
       style="stroke-width:6.95204;stroke-dasharray:none"><path
         fill="none"
         stroke-width="3"
         stroke-linecap="butt"
         stroke-opacity="1"
         stroke="#000000"
         stroke-linejoin="round"
         d="m 615.109,373.192 9.047,4.26 9.048,4.259 9.047,4.26 9.048,4.259 9.047,4.26 9.048,4.259 9.047,4.26 9.048,4.259 9.047,4.26 9.047,4.26 9.048,4.259 9.047,4.26 9.048,4.259 9.047,4.26 9.048,4.259 9.047,4.26 9.048,4.259 9.047,4.26 9.048,4.259 9.047,4.26 9.048,4.259 9.047,4.26 9.047,4.259 9.048,4.26 9.047,4.259 9.048,4.26 9.047,4.259 9.048,4.26 9.047,4.26 9.048,4.259 9.047,4.26 9.048,4.259 9.047,4.26 9.047,4.259 9.048,4.26 9.047,4.259 5.52,2.599"
         id="path1"
         style="stroke-width:6.95204;stroke-dasharray:none" /><path
         fill="none"
         stroke-width="3"
         stroke-linecap="butt"
         stroke-opacity="1"
         stroke="#000000"
         stroke-linejoin="round"
         d="m 947.487,981.492 -0.026,-10 -0.025,-10 -0.025,-10 -0.026,-10 -0.025,-10 -0.026,-10 -0.025,-10 -0.026,-10 -0.025,-10 -0.025,-10 -0.026,-10 -0.025,-10 -0.026,-10 -0.025,-10 -0.026,-10 -0.025,-10 -0.025,-10 -0.026,-10 -0.025,-10 -0.026,-10 -0.025,-10 -0.026,-10 -0.025,-10 -0.025,-10 -0.026,-10 -0.025,-9.999 -0.026,-10 -0.025,-10 -0.026,-10 -0.025,-10 -0.025,-10 -0.026,-10 -0.025,-10 -0.026,-10 -0.025,-10 -0.026,-10 -0.025,-10 -0.025,-10 -0.026,-10 -0.025,-10 -0.026,-10 -0.025,-10 -0.026,-10 -0.025,-10 -0.031,-12.359 9.237,-3.829 9.238,-3.829 9.238,-3.829 9.238,-3.829 9.238,-3.829 9.238,-3.829 9.238,-3.829 9.238,-3.829 9.238,-3.829 9.238,-3.829 9.237,-3.829 9.238,-3.829 9.238,-3.829 9.238,-3.829 9.238,-3.829 9.238,-3.829 9.238,-3.829 9.238,-3.829 9.238,-3.829 9.237,-3.829 9.238,-3.829 9.238,-3.829 9.238,-3.829 9.238,-3.83 9.238,-3.828 9.238,-3.83 9.238,-3.829 9.238,-3.829 9.238,-3.829 9.237,-3.829 9.238,-3.829 9.238,-3.829 9.238,-3.829 9.238,-3.829 9.238,-3.829 9.238,-3.829 9.238,-3.829 9.069,-3.759 6.195,-2.567 v 0.022 l -0.294,4.74 -0.621,9.98 -0.621,9.981 -0.621,9.981 -0.62,9.981 -0.621,9.98 -0.621,9.981 -0.621,9.981 -0.62,9.98 -0.621,9.981 -0.621,9.981 -0.621,9.981 -0.621,9.98 -0.62,9.981 -0.621,9.981 -0.621,9.98 -0.621,9.981 -0.62,9.981 -0.621,9.981 -0.621,9.98 -0.621,9.981 -0.62,9.981 -0.621,9.98 -0.621,9.981 -0.621,9.981 -0.62,9.981 -0.621,9.98 -0.621,9.981 -0.621,9.981 -0.621,9.98 -0.62,9.981 -0.621,9.981 -0.621,9.981 -0.621,9.98 -0.62,9.981 -0.621,9.981 -0.621,9.98 -0.621,9.981 -0.62,9.981 -0.621,9.98 -0.621,9.981 -0.775,12.468 -8.736,4.868 -8.735,4.867 -8.735,4.868 -8.736,4.868 -8.735,4.868 -8.735,4.867 -8.735,4.868 -8.736,4.868 -8.735,4.868 -8.735,4.867 -8.736,4.868 -8.735,4.868 -8.735,4.867 -8.735,4.868 -8.736,4.868 -8.735,4.868 -8.735,4.867 -8.736,4.868 -8.735,4.868 -8.735,4.868 -8.735,4.867 -8.736,4.868 -8.735,4.868 -8.735,4.867 -8.736,4.868 -8.735,4.868 -8.735,4.868 -8.736,4.867 -8.735,4.868 -8.735,4.868 -8.735,4.868 -8.736,4.867 -8.735,4.868 -8.735,4.868 -8.735,4.867 -8.736,4.868 -8.735,4.868 -6.808,3.794 -8.452,-5.346 -8.451,-5.345 -8.452,-5.345 -8.451,-5.345 -8.452,-5.346 -8.451,-5.345 -8.452,-5.345 -8.451,-5.345 -8.452,-5.346 -8.451,-5.345 -8.452,-5.345 -8.451,-5.345 -8.452,-5.346 -8.451,-5.345 -8.452,-5.345 -8.451,-5.346 -8.452,-5.345 -8.451,-5.345 -8.452,-5.345 -8.452,-5.346 -8.451,-5.345 -8.452,-5.345 -8.451,-5.345 -8.452,-5.346 -8.451,-5.345 -8.452,-5.345 -8.451,-5.345 -8.452,-5.346 -8.451,-5.345 -8.452,-5.345 -8.451,-5.346 -8.452,-5.345 -8.451,-5.345 -8.452,-5.345 -8.451,-5.346 -10.724,-6.782 -0.623,-9.981 -0.622,-9.98 -0.623,-9.981 -0.622,-9.981 -0.623,-9.98 -0.623,-9.981 -0.622,-9.98 -0.623,-9.981 -0.622,-9.981 -0.623,-9.98 -0.622,-9.981 -0.623,-9.98 -0.622,-9.981 -0.623,-9.981 -0.623,-9.98 -0.622,-9.981 -0.623,-9.98 -0.622,-9.981 -0.623,-9.981 -0.622,-9.98 -0.623,-9.981 -0.622,-9.98 -0.623,-9.981 -0.623,-9.981 -0.622,-9.98 -0.623,-9.981 -0.622,-9.98 -0.623,-9.981 -0.622,-9.981 -0.623,-9.98 -0.622,-9.981 -0.623,-9.98 -0.623,-9.981 -0.622,-9.981 -0.623,-9.98 -0.622,-9.981 -0.623,-9.98 -0.622,-9.981 -0.623,-9.981 -0.622,-9.98 -0.623,-9.981 -0.326,-5.228 9.494,-3.14 9.494,-3.141 9.494,-3.141 9.494,-3.141 9.494,-3.14 9.494,-3.141 9.494,-3.141 9.494,-3.141 9.494,-3.14 9.494,-3.141 9.494,-3.141 9.494,-3.141 9.494,-3.14 9.494,-3.141 9.494,-3.141 9.494,-3.141 9.494,-3.14 9.494,-3.141 9.494,-3.141 9.494,-3.14 9.494,-3.141 9.494,-3.141 9.494,-3.141 9.494,-3.14 9.494,-3.141 9.494,-3.141 9.494,-3.141 9.494,-3.14 9.494,-3.141 9.494,-3.141 9.494,-3.141 9.494,-3.14 9.493,-3.141 9.494,-3.141 9.494,-3.141 9.494,-3.14 10.485,-3.469"
         id="path2"
         style="stroke-width:6.95204;stroke-dasharray:none" /><path
         fill="none"
         stroke-width="3"
         stroke-linecap="butt"
         stroke-opacity="1"
         stroke="#000000"
         stroke-linejoin="round"
         d="m 1303.107,385.896 9.372,3.486 1.973,0.734 9.41,3.386 3.392,1.221 9.999,0.112 4.03,0.045 9.613,-2.753 5.104,-1.461 8.716,-4.903 6.146,-3.457 7.66,-6.428 6.814,-5.718 6.6,-7.513 6.6,-7.513 0.383,-0.436 5.574,-8.303 5.573,-8.303 1.078,-1.604 4.574,-8.893 4.574,-8.892 1.301,-2.529 3.577,-9.338 3.576,-9.339 1.162,-3.033 2.546,-9.671 2.545,-9.671 0.795,-3.016 1.44,-9.896 1.44,-9.896 0.355,-2.436 0.208,-9.998 0.208,-9.998 0.028,-1.315 -1.214,-9.926 -1.185,-9.694 -2.896,-9.572 -2.304,-7.616 -4.875,-8.731 -2.984,-5.343 -7.037,-7.105 -3.234,-3.264 -8.938,-4.484 -3.399,-1.704 -9.6,-2.799 -9.6,-2.8 -9.6,-2.799 -9.601,-2.799 -9.6,-2.799 -9.6,-2.799 -9.6,-2.799 -9.601,-2.8 -9.6,-2.799 -9.6,-2.799 -9.6,-2.799 -9.601,-2.799 -9.6,-2.799 -9.6,-2.8 -9.6,-2.799 -9.601,-2.799 -9.6,-2.799 -9.6,-2.799 -9.6,-2.799 -9.601,-2.8 -9.6,-2.799 -9.6,-2.799 -9.6,-2.799 -9.601,-2.799 -9.6,-2.799 -9.6,-2.8 -9.6,-2.799 -9.6,-2.799 -9.601,-2.799 -9.6,-2.799 -9.6,-2.799 -9.6,-2.8 -9.601,-2.799 -9.6,-2.799 -9.6,-2.799 -11.263,-3.284 -9.897,-1.427 -4.574,-0.659 -9.905,1.374 -5.371,0.745 -9.26,3.774 -6.214,2.533 -8.253,5.647 -6.787,4.644 -7.092,7.05 -6.884,6.844 -5.881,8.088 -5.88,8.088 -0.559,0.768 -4.65,8.853 -4.65,8.853 -0.836,1.591 -3.397,9.406 -3.396,9.405 -0.733,2.03 -2.095,9.779 -2.094,9.778 -0.417,1.95 -0.709,9.975 -0.709,9.975 -0.094,1.322 0.8,9.968 0.8,9.968 0.018,0.224 2.466,9.691 2.176,8.546 4.301,9.028 3.135,6.58 6.234,7.818 3.648,4.575"
         id="path3"
         style="stroke-width:6.95204;stroke-dasharray:none" /><path
         fill="none"
         stroke-width="3"
         stroke-linecap="butt"
         stroke-opacity="1"
         stroke="#000000"
         stroke-linejoin="round"
         d="m 1314.452,390.116 -7.767,-6.298 -3.284,-2.662"
         id="path4"
         style="stroke-width:6.95204;stroke-dasharray:none" /><path
         fill="none"
         stroke-width="3"
         stroke-linecap="butt"
         stroke-opacity="1"
         stroke="#000000"
         stroke-linejoin="round"
         d="m 1303.394,381.149 -0.018,-0.025 -5.607,-8.28 -3.225,-4.761 -3.497,-9.369 -2.746,-7.358 -1.664,-9.861 -1.673,-9.916 -0.111,-9.999 -0.111,-9.999 -0.023,-2.063 1.227,-9.925 1.227,-9.924 0.446,-3.61 2.42,-9.702 2.42,-9.703 1.116,-4.476 3.527,-9.357 3.526,-9.358 1.726,-4.579 4.596,-8.882 4.596,-8.881 2.047,-3.954 5.666,-8.239 5.667,-8.24 1.883,-2.739 6.766,-7.364 6.765,-7.364 1.096,-1.194 7.893,-6.14 7.519,-5.848 8.983,-4.395 6.567,-3.213 9.809,-1.944 5.242,-1.039 9.929,1.195 4.029,0.485"
         id="path5"
         style="stroke-width:6.95204;stroke-dasharray:none" /></g><path
       style="fill:#ff0000;stroke:#ff0000;stroke-width:0.4;stroke-dasharray:3.2, 0.8, 0.4, 0.8;stroke-dashoffset:0"
       d="m 155.50609,98.289146 -9.94516,29.964624"
       id="path6" /><path
       style="fill:#ff0000;stroke:#ff0000;stroke-width:0.2;stroke-dasharray:1.6, 0.4, 0.2, 0.4;stroke-dashoffset:0"
       d="m 140.73708,107.49354 18.90498,9.77214"
       id="path7" /><path
       style="fill:#ff0000;stroke:#ff0000;stroke-width:0.2;stroke-dasharray:none;stroke-dashoffset:0"
       d="m 152.56411,107.17389 -3.28782,9.90913"
       id="path9" /><path
       style="fill:#ff0000;stroke:#ff0000;stroke-width:0.4;stroke-dasharray:none;stroke-dashoffset:0"
       d="m 147.90636,111.19234 5.70803,3.01384"
       id="path10" /><path
       style="fill:#ff0000;stroke:#ff0000;stroke-width:0.4;stroke-dasharray:none;stroke-dashoffset:0;marker-end:url(#Triangle)"
       d="m 150.72724,112.62567 -6.20148,6.79186"
       id="path11"
       sodipodi:nodetypes="cc" /><path
       style="fill:#ff0000;stroke:#ff0000;stroke-width:0.4;stroke-dasharray:none;stroke-dashoffset:0"
       d="M 76.53321,163.75184 65.66513,157.54151"
       id="path12" /><path
       style="fill:#ff0000;stroke:#ff0000;stroke-width:0.4;stroke-dasharray:none;stroke-dashoffset:0"
       d="m 74.432656,122.28874 -10.86808,-6.21033"
       id="path13" /><path
       style="fill:#ff0000;stroke:#ff0000;stroke-width:0.4;stroke-dasharray:none;stroke-dashoffset:0;marker-start:url(#Triangle);marker-end:url(#Triangle)"
       d="m 65.756455,119.2749 2.46587,37.99262"
       id="path14"
       sodipodi:nodetypes="cc" /><path
       style="fill:#ff0000;stroke:#ff0000;stroke-width:0.4;stroke-dasharray:none;stroke-dashoffset:0"
       d="m 107.45936,184.37287 -16.984265,8.97648"
       id="path15" /><path
       style="fill:#ff0000;stroke:#ff0000;stroke-width:0.4;stroke-dasharray:none;stroke-dashoffset:0"
       d="m 77.236416,164.54714 -16.984265,8.97648"
       id="path16" /><path
       style="fill:#ff0000;stroke:#ff0000;stroke-width:0.4;stroke-dasharray:none;stroke-dashoffset:0;marker-start:url(#Triangle);marker-end:url(#Triangle)"
       d="m 64.512459,172.78 28.407457,17.38472"
       id="path17"
       sodipodi:nodetypes="cc" /><path
       style="fill:#ff0000;stroke:#ff0000;stroke-width:0.4;stroke-dasharray:none;stroke-dashoffset:0"
       d="m 109.32011,184.20941 8.0369,5.93634"
       id="path18" /><path
       style="fill:#ff0000;stroke:#ff0000;stroke-width:0.4;stroke-dasharray:none;stroke-dashoffset:0"
       d="m 142.10701,165.66974 8.0369,5.93634"
       id="path19" /><path
       style="fill:#ff0000;stroke:#ff0000;stroke-width:0.4;stroke-dasharray:none;stroke-dashoffset:0;marker-start:url(#Triangle);marker-end:url(#Triangle)"
       d="m 117.63099,188.31919 29.04244,-17.71772"
       id="path20"
       sodipodi:nodetypes="cc" /><path
       style="fill:#0000ff;stroke:#0000ff;stroke-width:0.4;stroke-dasharray:none;stroke-dashoffset:0;marker-end:url(#Triangle)"
       d="M 77.537822,164.34548 76.624539,150.60055"
       id="path21" /><path
       style="fill:#0000ff;stroke:#ff0000;stroke-width:0.4;stroke-dasharray:none;stroke-dashoffset:0;marker-end:url(#Triangle)"
       d="m 77.492158,164.29981 11.50738,7.30628"
       id="path22" /><path
       style="fill:#0000ff;stroke:#00ff00;stroke-width:0.4;stroke-dasharray:none;stroke-dashoffset:0;marker-end:url(#Triangle)"
       d="m 77.583487,164.34548 10.731087,-5.47971"
       id="path23" /><g
       inkscape:label=""
       transform="translate(61.372662,136.53608)"
       id="g27"><g
   fill="#000000"
   fill-opacity="1"
   id="g26"
   transform="matrix(0.352778,0,0,0.352778,-1.03933,-0.706129)">
    <g
   id="g25"
   transform="translate(1.993,16.111)">
      <path
   d="m 7.578125,-12.515625 c 0.1875,-0.78125 0.25,-1 2.0625,-1 0.5625,0 0.703125,0 0.703125,-0.390625 0,-0.203125 -0.21875,-0.203125 -0.3125,-0.203125 -0.40625,0 -0.875,0.04687 -1.296875,0.04687 H 5.96875 c -0.390625,0 -0.84375,-0.04687 -1.234375,-0.04687 -0.171875,0 -0.390625,0 -0.390625,0.390625 0,0.203125 0.1875,0.203125 0.484375,0.203125 1.265625,0 1.265625,0.171875 1.265625,0.40625 0,0.03125 0,0.15625 -0.078125,0.46875 L 3.21875,-1.53125 C 3.03125,-0.8125 3,-0.59375 1.546875,-0.59375 c -0.390625,0 -0.59375,0 -0.59375,0.359375 C 0.953125,0 1.078125,0 1.484375,0 h 9.25 c 0.46875,0 0.484375,-0.015625 0.625,-0.390625 l 1.59375,-4.40625 c 0.04687,-0.09375 0.07813,-0.21875 0.07813,-0.28125 0,-0.125 -0.09375,-0.203125 -0.203125,-0.203125 -0.01563,0 -0.125,0 -0.171875,0.078125 C 12.625,-5.1875 12.625,-5.140625 12.453125,-4.75 11.796875,-2.9375 10.859375,-0.59375 7.375,-0.59375 H 5.390625 c -0.28125,0 -0.328125,0 -0.453125,-0.03125 -0.234375,-0.015625 -0.25,-0.0625 -0.25,-0.21875 0,-0.140625 0.046875,-0.265625 0.078125,-0.453125 z m 0,0"
   id="path25" />
    </g>
  </g>
</g><g
       inkscape:label=""
       transform="translate(80.551629,176.35527)"
       id="g30"><g
   fill="#000000"
   fill-opacity="1"
   id="g29"
   transform="matrix(0.352778,0,0,0.352778,-1.03933,-0.706129)">
    <g
   id="g28"
   transform="translate(1.993,16.111)">
      <path
   d="m 7.578125,-12.515625 c 0.1875,-0.78125 0.25,-1 2.0625,-1 0.5625,0 0.703125,0 0.703125,-0.390625 0,-0.203125 -0.21875,-0.203125 -0.3125,-0.203125 -0.40625,0 -0.875,0.04687 -1.296875,0.04687 H 5.96875 c -0.390625,0 -0.84375,-0.04687 -1.234375,-0.04687 -0.171875,0 -0.390625,0 -0.390625,0.390625 0,0.203125 0.1875,0.203125 0.484375,0.203125 1.265625,0 1.265625,0.171875 1.265625,0.40625 0,0.03125 0,0.15625 -0.078125,0.46875 L 3.21875,-1.53125 C 3.03125,-0.8125 3,-0.59375 1.546875,-0.59375 c -0.390625,0 -0.59375,0 -0.59375,0.359375 C 0.953125,0 1.078125,0 1.484375,0 h 9.25 c 0.46875,0 0.484375,-0.015625 0.625,-0.390625 l 1.59375,-4.40625 c 0.04687,-0.09375 0.07813,-0.21875 0.07813,-0.28125 0,-0.125 -0.09375,-0.203125 -0.203125,-0.203125 -0.01563,0 -0.125,0 -0.171875,0.078125 C 12.625,-5.1875 12.625,-5.140625 12.453125,-4.75 11.796875,-2.9375 10.859375,-0.59375 7.375,-0.59375 H 5.390625 c -0.28125,0 -0.328125,0 -0.453125,-0.03125 -0.234375,-0.015625 -0.25,-0.0625 -0.25,-0.21875 0,-0.140625 0.046875,-0.265625 0.078125,-0.453125 z m 0,0"
   id="path27" />
    </g>
  </g>
</g><g
       inkscape:label=""
       transform="translate(127.85975,173.79807)"
       id="g33"><g
   fill="#000000"
   fill-opacity="1"
   id="g32"
   transform="matrix(0.352778,0,0,0.352778,-1.03933,-0.706129)">
    <g
   id="g31"
   transform="translate(1.993,16.111)">
      <path
   d="m 7.578125,-12.515625 c 0.1875,-0.78125 0.25,-1 2.0625,-1 0.5625,0 0.703125,0 0.703125,-0.390625 0,-0.203125 -0.21875,-0.203125 -0.3125,-0.203125 -0.40625,0 -0.875,0.04687 -1.296875,0.04687 H 5.96875 c -0.390625,0 -0.84375,-0.04687 -1.234375,-0.04687 -0.171875,0 -0.390625,0 -0.390625,0.390625 0,0.203125 0.1875,0.203125 0.484375,0.203125 1.265625,0 1.265625,0.171875 1.265625,0.40625 0,0.03125 0,0.15625 -0.078125,0.46875 L 3.21875,-1.53125 C 3.03125,-0.8125 3,-0.59375 1.546875,-0.59375 c -0.390625,0 -0.59375,0 -0.59375,0.359375 C 0.953125,0 1.078125,0 1.484375,0 h 9.25 c 0.46875,0 0.484375,-0.015625 0.625,-0.390625 l 1.59375,-4.40625 c 0.04687,-0.09375 0.07813,-0.21875 0.07813,-0.28125 0,-0.125 -0.09375,-0.203125 -0.203125,-0.203125 -0.01563,0 -0.125,0 -0.171875,0.078125 C 12.625,-5.1875 12.625,-5.140625 12.453125,-4.75 11.796875,-2.9375 10.859375,-0.59375 7.375,-0.59375 H 5.390625 c -0.28125,0 -0.328125,0 -0.453125,-0.03125 -0.234375,-0.015625 -0.25,-0.0625 -0.25,-0.21875 0,-0.140625 0.046875,-0.265625 0.078125,-0.453125 z m 0,0"
   id="path30" />
    </g>
  </g>
</g><g
       inkscape:label=""
       transform="translate(142.65495,110.59881)"
       id="g34"><g
   fill="#000000"
   fill-opacity="1"
   id="g2"
   transform="matrix(0.352778,0,0,0.352778,-1.04484,-0.706129)">
    <g
   id="use1"
   transform="translate(1.993,16.111)">
      <path
   d="m 7.59375,-12.703125 c 0.1875,-0.765625 0.28125,-0.8125 1.078125,-0.8125 h 1.484375 c 1.78125,0 3.109375,0.546875 3.109375,2.15625 0,1.046875 -0.546875,4.09375 -4.6875,4.09375 h -2.34375 z m 2.875,5.6875 c 2.5625,-0.5625 4.5625,-2.21875 4.5625,-4 0,-1.609375 -1.625,-3.09375 -4.5,-3.09375 H 4.9375 c -0.40625,0 -0.59375,0 -0.59375,0.390625 0,0.203125 0.140625,0.203125 0.53125,0.203125 1.234375,0 1.234375,0.171875 1.234375,0.40625 0,0.03125 0,0.15625 -0.078125,0.46875 L 3.25,-1.53125 c -0.1875,0.71875 -0.234375,0.9375 -1.65625,0.9375 -0.484375,0 -0.625,0 -0.625,0.390625 C 0.96875,0 1.203125,0 1.265625,0 1.625,0 2.0625,-0.046875 2.453125,-0.046875 h 2.4375 c 0.375,0 0.8125,0.046875 1.1875,0.046875 0.15625,0 0.390625,0 0.390625,-0.390625 0,-0.203125 -0.1875,-0.203125 -0.5,-0.203125 -1.265625,0 -1.265625,-0.171875 -1.265625,-0.375 0,-0.015625 0,-0.171875 0.046875,-0.328125 l 1.390625,-5.5625 h 2.46875 c 1.96875,0 2.34375,1.234375 2.34375,1.921875 0,0.3125 -0.21875,1.109375 -0.359375,1.65625 -0.21875,0.953125 -0.28125,1.171875 -0.28125,1.5625 0,1.46875 1.1875,2.15625 2.578125,2.15625 1.671875,0 2.390625,-2.046875 2.390625,-2.34375 0,-0.140625 -0.09375,-0.203125 -0.21875,-0.203125 -0.171875,0 -0.203125,0.125 -0.25,0.296875 -0.5,1.46875 -1.34375,1.828125 -1.859375,1.828125 -0.515625,0 -0.84375,-0.21875 -0.84375,-1.15625 0,-0.484375 0.25,-2.375 0.265625,-2.46875 0.09375,-0.765625 0.09375,-0.859375 0.09375,-1.015625 0,-1.515625 -1.21875,-2.15625 -2,-2.390625 z m 0,0"
   id="path33" />
    </g>
  </g>
</g><g
       inkscape:label=""
       transform="translate(91.511039,166.4918)"
       id="g35"><g
   fill="#000000"
   fill-opacity="1"
   id="g4"
   transform="matrix(0.352778,0,0,0.352778,-0.901524,-0.71045)">
    <g
   id="use3"
   transform="translate(3.293,16.341999)">
      <path
   d="m 4.734375,-14.328125 -2.546875,2.796875 0.25,0.25 2.296875,-2.234375 2.28125,2.234375 0.25,-0.25 z m 0,0"
   id="path34" />
    </g>
  </g>
  <g
   fill="#000000"
   fill-opacity="1"
   id="g5"
   transform="matrix(0.352778,0,0,0.352778,-0.901524,-0.71045)">
    <g
   id="use4"
   transform="translate(1.993,16.343)">
      <path
   d="M 4.25,-6.046875 C 4.296875,-6.171875 4.8125,-7.203125 5.578125,-7.875 6.109375,-8.359375 6.8125,-8.703125 7.625,-8.703125 c 0.828125,0 1.109375,0.625 1.109375,1.453125 0,1.171875 -0.84375,3.53125 -1.25,4.640625 -0.1875,0.5 -0.296875,0.765625 -0.296875,1.140625 0,0.9375 0.640625,1.671875 1.625,1.671875 1.921875,0 2.65625,-3.03125 2.65625,-3.15625 0,-0.109375 -0.09375,-0.1875 -0.21875,-0.1875 -0.171875,0 -0.203125,0.0625 -0.296875,0.40625 -0.484375,1.703125 -1.265625,2.53125 -2.078125,2.53125 -0.203125,0 -0.53125,-0.03125 -0.53125,-0.6875 0,-0.515625 0.234375,-1.140625 0.359375,-1.421875 0.40625,-1.140625 1.28125,-3.453125 1.28125,-4.625 0,-1.25 -0.734375,-2.171875 -2.296875,-2.171875 -1.84375,0 -2.8125,1.296875 -3.1875,1.8125 -0.0625,-1.171875 -0.90625,-1.8125 -1.8125,-1.8125 -0.65625,0 -1.125,0.390625 -1.46875,1.09375 -0.375,0.75 -0.65625,1.984375 -0.65625,2.0625 0,0.09375 0.078125,0.1875 0.21875,0.1875 0.171875,0 0.1875,-0.015625 0.3125,-0.5 0.328125,-1.25 0.703125,-2.4375 1.53125,-2.4375 0.46875,0 0.640625,0.34375 0.640625,0.953125 0,0.453125 -0.203125,1.265625 -0.359375,1.90625 l -0.578125,2.234375 c -0.078125,0.390625 -0.296875,1.3125 -0.40625,1.6875 -0.140625,0.53125 -0.375,1.515625 -0.375,1.609375 0,0.296875 0.234375,0.515625 0.546875,0.515625 0.234375,0 0.53125,-0.125 0.6875,-0.4375 0.046875,-0.09375 0.234375,-0.8125 0.34375,-1.234375 l 0.453125,-1.859375 z m 0,0"
   id="path35" />
    </g>
  </g>
  <g
   fill="#000000"
   fill-opacity="1"
   id="g6"
   transform="matrix(0.352778,0,0,0.352778,-0.901524,-0.71045)">
    <g
   id="use5"
   transform="translate(14.069,19.441999)">
      <path
   d="m 6.796875,-5.859375 c -0.453125,0.09375 -0.625,0.4375 -0.625,0.703125 0,0.34375 0.265625,0.46875 0.46875,0.46875 0.4375,0 0.734375,-0.375 0.734375,-0.765625 0,-0.59375 -0.6875,-0.875 -1.296875,-0.875 -0.875,0 -1.359375,0.859375 -1.484375,1.140625 C 4.265625,-6.265625 3.375,-6.328125 3.109375,-6.328125 1.65625,-6.328125 0.875,-4.453125 0.875,-4.125 0.875,-4.078125 0.9375,-4 1.03125,-4 1.140625,-4 1.171875,-4.09375 1.203125,-4.140625 1.6875,-5.734375 2.65625,-6.03125 3.0625,-6.03125 c 0.65625,0 0.78125,0.59375 0.78125,0.9375 0,0.3125 -0.078125,0.640625 -0.265625,1.328125 l -0.484375,1.96875 c -0.203125,0.859375 -0.625,1.65625 -1.390625,1.65625 -0.0625,0 -0.421875,0 -0.734375,-0.1875 0.515625,-0.109375 0.640625,-0.53125 0.640625,-0.703125 0,-0.28125 -0.21875,-0.453125 -0.484375,-0.453125 -0.34375,0 -0.71875,0.296875 -0.71875,0.75 0,0.609375 0.671875,0.875 1.28125,0.875 0.6875,0 1.1875,-0.546875 1.484375,-1.125 0.234375,0.84375 0.9375,1.125 1.46875,1.125 1.46875,0 2.25,-1.875 2.25,-2.1875 0,-0.078125 -0.0625,-0.140625 -0.15625,-0.140625 -0.125,0 -0.140625,0.078125 -0.171875,0.1875 -0.390625,1.265625 -1.234375,1.859375 -1.875,1.859375 -0.5,0 -0.765625,-0.375 -0.765625,-0.96875 0,-0.3125 0.046875,-0.546875 0.28125,-1.484375 l 0.5,-1.953125 C 4.921875,-5.40625 5.40625,-6.03125 6.0625,-6.03125 c 0.03125,0 0.4375,0 0.734375,0.171875 z m 0,0"
   id="path8" />
    </g>
  </g>
</g><g
       inkscape:label=""
       transform="translate(89.68447,153.52317)"
       id="g42"><g
   fill="#000000"
   fill-opacity="1"
   id="g37"
   transform="matrix(0.352778,0,0,0.352778,-0.901524,-0.710097)">
    <g
   id="g36"
   transform="translate(3.293,16.341)">
      <path
   d="m 4.734375,-14.328125 -2.546875,2.796875 0.25,0.25 2.296875,-2.234375 2.28125,2.234375 0.25,-0.25 z m 0,0"
   id="path36" />
    </g>
  </g>
  <g
   fill="#000000"
   fill-opacity="1"
   id="g39"
   transform="matrix(0.352778,0,0,0.352778,-0.901524,-0.710097)">
    <g
   id="g38"
   transform="translate(1.993,16.343)">
      <path
   d="M 4.25,-6.046875 C 4.296875,-6.171875 4.8125,-7.203125 5.578125,-7.875 6.109375,-8.359375 6.8125,-8.703125 7.625,-8.703125 c 0.828125,0 1.109375,0.625 1.109375,1.453125 0,1.171875 -0.84375,3.53125 -1.25,4.640625 -0.1875,0.5 -0.296875,0.765625 -0.296875,1.140625 0,0.9375 0.640625,1.671875 1.625,1.671875 1.921875,0 2.65625,-3.03125 2.65625,-3.15625 0,-0.109375 -0.09375,-0.1875 -0.21875,-0.1875 -0.171875,0 -0.203125,0.0625 -0.296875,0.40625 -0.484375,1.703125 -1.265625,2.53125 -2.078125,2.53125 -0.203125,0 -0.53125,-0.03125 -0.53125,-0.6875 0,-0.515625 0.234375,-1.140625 0.359375,-1.421875 0.40625,-1.140625 1.28125,-3.453125 1.28125,-4.625 0,-1.25 -0.734375,-2.171875 -2.296875,-2.171875 -1.84375,0 -2.8125,1.296875 -3.1875,1.8125 -0.0625,-1.171875 -0.90625,-1.8125 -1.8125,-1.8125 -0.65625,0 -1.125,0.390625 -1.46875,1.09375 -0.375,0.75 -0.65625,1.984375 -0.65625,2.0625 0,0.09375 0.078125,0.1875 0.21875,0.1875 0.171875,0 0.1875,-0.015625 0.3125,-0.5 0.328125,-1.25 0.703125,-2.4375 1.53125,-2.4375 0.46875,0 0.640625,0.34375 0.640625,0.953125 0,0.453125 -0.203125,1.265625 -0.359375,1.90625 l -0.578125,2.234375 c -0.078125,0.390625 -0.296875,1.3125 -0.40625,1.6875 -0.140625,0.53125 -0.375,1.515625 -0.375,1.609375 0,0.296875 0.234375,0.515625 0.546875,0.515625 0.234375,0 0.53125,-0.125 0.6875,-0.4375 0.046875,-0.09375 0.234375,-0.8125 0.34375,-1.234375 l 0.453125,-1.859375 z m 0,0"
   id="path37" />
    </g>
  </g>
  <g
   fill="#000000"
   fill-opacity="1"
   id="g41"
   transform="matrix(0.352778,0,0,0.352778,-0.901524,-0.710097)">
    <g
   id="g40"
   transform="translate(14.069,19.441999)">
      <path
   d="m 3.765625,1.609375 c -0.375,0.546875 -0.9375,1.03125 -1.640625,1.03125 -0.171875,0 -0.859375,-0.03125 -1.078125,-0.6875 C 1.09375,1.96875 1.15625,1.96875 1.1875,1.96875 c 0.4375,0 0.71875,-0.375 0.71875,-0.703125 C 1.90625,0.9375 1.640625,0.8125 1.421875,0.8125 1.1875,0.8125 0.6875,0.984375 0.6875,1.6875 c 0,0.734375 0.625,1.234375 1.4375,1.234375 1.4375,0 2.875,-1.3125 3.28125,-2.90625 l 1.40625,-5.59375 c 0.015625,-0.078125 0.046875,-0.15625 0.046875,-0.25 0,-0.203125 -0.171875,-0.359375 -0.390625,-0.359375 -0.125,0 -0.4375,0.0625 -0.546875,0.5 l -1.0625,4.203125 c -0.0625,0.265625 -0.0625,0.296875 -0.1875,0.453125 -0.28125,0.40625 -0.75,0.890625 -1.4375,0.890625 -0.8125,0 -0.875,-0.796875 -0.875,-1.171875 0,-0.828125 0.375,-1.921875 0.765625,-2.96875 0.15625,-0.40625 0.25,-0.609375 0.25,-0.890625 0,-0.609375 -0.4375,-1.15625 -1.140625,-1.15625 -1.3125,0 -1.84375,2.078125 -1.84375,2.203125 0,0.046875 0.046875,0.125 0.15625,0.125 C 0.671875,-4 0.6875,-4.0625 0.75,-4.265625 1.09375,-5.46875 1.640625,-6.03125 2.1875,-6.03125 c 0.140625,0 0.375,0 0.375,0.46875 0,0.375 -0.15625,0.78125 -0.375,1.328125 -0.703125,1.875 -0.703125,2.359375 -0.703125,2.703125 0,1.359375 0.984375,1.671875 1.703125,1.671875 0.40625,0 0.921875,-0.125 1.4375,-0.65625 L 4.640625,-0.5 c -0.21875,0.84375 -0.359375,1.40625 -0.875,2.109375 z m 0,0"
   id="path39" />
    </g>
  </g>
</g><g
       inkscape:label=""
       transform="translate(78.725061,147.49549)"
       id="g49"><g
   fill="#000000"
   fill-opacity="1"
   id="g44"
   transform="matrix(0.352778,0,0,0.352778,-0.901524,-0.71045)">
    <g
   id="g43"
   transform="translate(3.293,16.341999)">
      <path
   d="m 4.734375,-14.328125 -2.546875,2.796875 0.25,0.25 2.296875,-2.234375 2.28125,2.234375 0.25,-0.25 z m 0,0"
   id="path42" />
    </g>
  </g>
  <g
   fill="#000000"
   fill-opacity="1"
   id="g46"
   transform="matrix(0.352778,0,0,0.352778,-0.901524,-0.71045)">
    <g
   id="g45"
   transform="translate(1.993,16.343)">
      <path
   d="M 4.25,-6.046875 C 4.296875,-6.171875 4.8125,-7.203125 5.578125,-7.875 6.109375,-8.359375 6.8125,-8.703125 7.625,-8.703125 c 0.828125,0 1.109375,0.625 1.109375,1.453125 0,1.171875 -0.84375,3.53125 -1.25,4.640625 -0.1875,0.5 -0.296875,0.765625 -0.296875,1.140625 0,0.9375 0.640625,1.671875 1.625,1.671875 1.921875,0 2.65625,-3.03125 2.65625,-3.15625 0,-0.109375 -0.09375,-0.1875 -0.21875,-0.1875 -0.171875,0 -0.203125,0.0625 -0.296875,0.40625 -0.484375,1.703125 -1.265625,2.53125 -2.078125,2.53125 -0.203125,0 -0.53125,-0.03125 -0.53125,-0.6875 0,-0.515625 0.234375,-1.140625 0.359375,-1.421875 0.40625,-1.140625 1.28125,-3.453125 1.28125,-4.625 0,-1.25 -0.734375,-2.171875 -2.296875,-2.171875 -1.84375,0 -2.8125,1.296875 -3.1875,1.8125 -0.0625,-1.171875 -0.90625,-1.8125 -1.8125,-1.8125 -0.65625,0 -1.125,0.390625 -1.46875,1.09375 -0.375,0.75 -0.65625,1.984375 -0.65625,2.0625 0,0.09375 0.078125,0.1875 0.21875,0.1875 0.171875,0 0.1875,-0.015625 0.3125,-0.5 0.328125,-1.25 0.703125,-2.4375 1.53125,-2.4375 0.46875,0 0.640625,0.34375 0.640625,0.953125 0,0.453125 -0.203125,1.265625 -0.359375,1.90625 l -0.578125,2.234375 c -0.078125,0.390625 -0.296875,1.3125 -0.40625,1.6875 -0.140625,0.53125 -0.375,1.515625 -0.375,1.609375 0,0.296875 0.234375,0.515625 0.546875,0.515625 0.234375,0 0.53125,-0.125 0.6875,-0.4375 0.046875,-0.09375 0.234375,-0.8125 0.34375,-1.234375 l 0.453125,-1.859375 z m 0,0"
   id="path44" />
    </g>
  </g>
  <g
   fill="#000000"
   fill-opacity="1"
   id="g48"
   transform="matrix(0.352778,0,0,0.352778,-0.901524,-0.71045)">
    <g
   id="g47"
   transform="translate(14.069,19.441999)">
      <path
   d="M 1.828125,-1.15625 C 2.4375,-1.859375 2.9375,-2.3125 3.65625,-2.953125 c 0.859375,-0.75 1.234375,-1.109375 1.4375,-1.328125 1,-0.984375 1.5,-1.8125 1.5,-1.921875 0,-0.125 -0.109375,-0.125 -0.140625,-0.125 -0.09375,0 -0.125,0.0625 -0.203125,0.15625 C 5.890625,-5.546875 5.546875,-5.25 5.171875,-5.25 4.875,-5.25 4.71875,-5.375 4.453125,-5.71875 4.140625,-6.078125 3.90625,-6.328125 3.484375,-6.328125 c -1.046875,0 -1.671875,1.3125 -1.671875,1.609375 0,0.046875 0.015625,0.125 0.140625,0.125 0.109375,0 0.125,-0.046875 0.171875,-0.15625 0.234375,-0.578125 0.9375,-0.671875 1.203125,-0.671875 0.296875,0 0.59375,0.09375 0.890625,0.234375 0.546875,0.21875 0.765625,0.21875 0.921875,0.21875 0.09375,0 0.15625,0 0.21875,-0.015625 -0.46875,0.5625 -1.25,1.25 -1.890625,1.84375 L 2.015625,-1.8125 c -0.875,0.890625 -1.40625,1.734375 -1.40625,1.84375 0,0.078125 0.078125,0.109375 0.171875,0.109375 0.078125,0 0.09375,-0.015625 0.1875,-0.1875 C 1.203125,-0.40625 1.65625,-0.9375 2.1875,-0.9375 c 0.3125,0 0.453125,0.109375 0.734375,0.46875 0.28125,0.3125 0.515625,0.609375 0.984375,0.609375 1.40625,0 2.203125,-1.8125 2.203125,-2.15625 0,-0.046875 -0.015625,-0.140625 -0.15625,-0.140625 -0.109375,0 -0.125,0.0625 -0.171875,0.203125 -0.3125,0.84375 -1.15625,1.1875 -1.71875,1.1875 -0.296875,0 -0.59375,-0.09375 -0.890625,-0.21875 C 2.59375,-1.21875 2.4375,-1.21875 2.25,-1.21875 c -0.140625,0 -0.296875,0 -0.421875,0.0625 z m 0,0"
   id="path46" />
    </g>
  </g>
</g><path
       style="fill:#0000ff;stroke:#000000;stroke-width:0.2;stroke-dasharray:2.4, 2.4;stroke-dashoffset:0"
       d="m 109.95941,110.69004 34.15683,12.96863"
       id="path49" /></g></svg>
