<?xml version="1.0" encoding="UTF-8" standalone="no"?>
<!-- Created with Inkscape (http://www.inkscape.org/) -->

<svg
   width="146.94328mm"
   height="131.99178mm"
   viewBox="0 0 146.94328 131.99178"
   version="1.1"
   id="svg5"
   inkscape:version="1.3.2 (091e20e, 2023-11-25, custom)"
   sodipodi:docname="exemplo2-5.svg"
   inkscape:export-filename="exemplo2-5.png"
   inkscape:export-xdpi="300"
   inkscape:export-ydpi="300"
   xmlns:inkscape="http://www.inkscape.org/namespaces/inkscape"
   xmlns:sodipodi="http://sodipodi.sourceforge.net/DTD/sodipodi-0.dtd"
   xmlns="http://www.w3.org/2000/svg"
   xmlns:svg="http://www.w3.org/2000/svg">
  <sodipodi:namedview
     id="namedview7"
     pagecolor="#ffffff"
     bordercolor="#999999"
     borderopacity="1"
     inkscape:pageshadow="0"
     inkscape:pageopacity="0"
     inkscape:pagecheckerboard="0"
     inkscape:document-units="mm"
     showgrid="false"
     showguides="true"
     inkscape:guide-bbox="true"
     inkscape:snap-object-midpoints="true"
     inkscape:snap-to-guides="true"
     inkscape:zoom="1.2931177"
     inkscape:cx="292.31677"
     inkscape:cy="280.33023"
     inkscape:window-width="1920"
     inkscape:window-height="1009"
     inkscape:window-x="-8"
     inkscape:window-y="-8"
     inkscape:window-maximized="1"
     inkscape:current-layer="layer1"
     inkscape:showpageshadow="2"
     inkscape:deskcolor="#d1d1d1"
     inkscape:export-bgcolor="#ffffffff">
    <sodipodi:guide
       position="70.984035,121.96815"
       orientation="1,0"
       id="guide1436"
       inkscape:locked="false" />
    <sodipodi:guide
       position="88.754734,37.900761"
       orientation="0,-1"
       id="guide1790"
       inkscape:locked="false" />
    <sodipodi:guide
       position="8.6763068,90.583873"
       orientation="1,0"
       id="guide1792"
       inkscape:locked="false" />
    <sodipodi:guide
       position="28.240937,88.511783"
       orientation="1,0"
       id="guide1794"
       inkscape:locked="false" />
    <sodipodi:guide
       position="113.72713,88.608083"
       orientation="1,0"
       id="guide1796"
       inkscape:locked="false" />
    <sodipodi:guide
       position="48.341382,111.86481"
       orientation="0,-1"
       id="guide1798"
       inkscape:locked="false" />
    <sodipodi:guide
       position="0.77795447,88.608083"
       orientation="1,0"
       id="guide1839"
       inkscape:locked="false" />
    <sodipodi:guide
       position="21.523566,88.608083"
       orientation="1,0"
       id="guide1841"
       inkscape:locked="false" />
    <sodipodi:guide
       position="28.240934,130.14325"
       orientation="0,-1"
       id="guide1861"
       inkscape:locked="false" />
    <sodipodi:guide
       position="28.240934,105.5254"
       orientation="0,-1"
       id="guide1863"
       inkscape:locked="false" />
    <sodipodi:guide
       position="53.107108,121.96815"
       orientation="0,-1"
       id="guide1871"
       inkscape:locked="false" />
  </sodipodi:namedview>
  <defs
     id="defs2">
    <marker
       style="overflow:visible"
       id="marker26"
       refX="0"
       refY="0"
       orient="auto-start-reverse"
       inkscape:stockid="Triangle arrow"
       markerWidth="1"
       markerHeight="1"
       viewBox="0 0 1 1"
       inkscape:isstock="true"
       inkscape:collect="always"
       preserveAspectRatio="xMidYMid">
      <path
         transform="scale(0.5)"
         style="fill:context-stroke;fill-rule:evenodd;stroke:context-stroke;stroke-width:1pt"
         d="M 5.77,0 -2.88,5 V -5 Z"
         id="path26" />
    </marker>
    <marker
       style="overflow:visible"
       id="marker24"
       refX="0"
       refY="0"
       orient="auto-start-reverse"
       inkscape:stockid="Triangle arrow"
       markerWidth="1"
       markerHeight="1"
       viewBox="0 0 1 1"
       inkscape:isstock="true"
       inkscape:collect="always"
       preserveAspectRatio="xMidYMid">
      <path
         transform="scale(0.5)"
         style="fill:context-stroke;fill-rule:evenodd;stroke:context-stroke;stroke-width:1pt"
         d="M 5.77,0 -2.88,5 V -5 Z"
         id="path24" />
    </marker>
    <marker
       style="overflow:visible"
       id="Triangle"
       refX="0"
       refY="0"
       orient="auto-start-reverse"
       inkscape:stockid="Triangle arrow"
       markerWidth="1"
       markerHeight="1"
       viewBox="0 0 1 1"
       inkscape:isstock="true"
       inkscape:collect="always"
       preserveAspectRatio="xMidYMid">
      <path
         transform="scale(0.5)"
         style="fill:context-stroke;fill-rule:evenodd;stroke:context-stroke;stroke-width:1pt"
         d="M 5.77,0 -2.88,5 V -5 Z"
         id="path135" />
    </marker>
    <inkscape:path-effect
       effect="spiro"
       id="path-effect41321"
       is_visible="true"
       lpeversion="1" />
    <inkscape:path-effect
       effect="skeletal"
       id="path-effect41214"
       is_visible="true"
       lpeversion="1"
       pattern="M 0,4.9921382 C 0,2.2364779 2.2364779,0 4.9921382,0 c 2.7556604,0 4.9921383,2.2364779 4.9921383,4.9921382 0,2.7556604 -2.2364779,4.9921383 -4.9921383,4.9921383 C 2.2364779,9.9842765 0,7.7477986 0,4.9921382 Z"
       copytype="single_stretched"
       prop_scale="1"
       scale_y_rel="false"
       spacing="0"
       normal_offset="0"
       tang_offset="0"
       prop_units="false"
       vertical_pattern="false"
       hide_knot="false"
       fuse_tolerance="0" />
    <inkscape:path-effect
       effect="skeletal"
       id="path-effect41177"
       is_visible="true"
       lpeversion="1"
       pattern="M 0,4.9921382 C 0,2.2364779 2.2364779,0 4.9921382,0 c 2.7556604,0 4.9921383,2.2364779 4.9921383,4.9921382 0,2.7556604 -2.2364779,4.9921383 -4.9921383,4.9921383 C 2.2364779,9.9842765 0,7.7477986 0,4.9921382 Z"
       copytype="single_stretched"
       prop_scale="1"
       scale_y_rel="false"
       spacing="0"
       normal_offset="0"
       tang_offset="0"
       prop_units="false"
       vertical_pattern="false"
       hide_knot="false"
       fuse_tolerance="0" />
    <inkscape:path-effect
       effect="simplify"
       id="path-effect40192"
       is_visible="true"
       lpeversion="1"
       steps="1"
       threshold="0.00243902"
       smooth_angles="360"
       helper_size="0"
       simplify_individual_paths="false"
       simplify_just_coalesce="false" />
    <inkscape:path-effect
       effect="simplify"
       id="path-effect40186"
       is_visible="true"
       lpeversion="1"
       steps="1"
       threshold="0.00243902"
       smooth_angles="360"
       helper_size="0"
       simplify_individual_paths="false"
       simplify_just_coalesce="false" />
    <inkscape:path-effect
       effect="simplify"
       id="path-effect40180"
       is_visible="true"
       lpeversion="1"
       steps="1"
       threshold="0.00243902"
       smooth_angles="360"
       helper_size="0"
       simplify_individual_paths="false"
       simplify_just_coalesce="false" />
    <inkscape:path-effect
       effect="simplify"
       id="path-effect40174"
       is_visible="true"
       lpeversion="1"
       steps="1"
       threshold="0.00243902"
       smooth_angles="360"
       helper_size="0"
       simplify_individual_paths="false"
       simplify_just_coalesce="false" />
    <inkscape:path-effect
       effect="simplify"
       id="path-effect40168"
       is_visible="true"
       lpeversion="1"
       steps="1"
       threshold="0.00243902"
       smooth_angles="360"
       helper_size="0"
       simplify_individual_paths="false"
       simplify_just_coalesce="false" />
    <inkscape:path-effect
       effect="simplify"
       id="path-effect40162"
       is_visible="true"
       lpeversion="1"
       steps="1"
       threshold="0.00243902"
       smooth_angles="360"
       helper_size="0"
       simplify_individual_paths="false"
       simplify_just_coalesce="false" />
    <inkscape:path-effect
       effect="simplify"
       id="path-effect40156"
       is_visible="true"
       lpeversion="1"
       steps="1"
       threshold="0.00243902"
       smooth_angles="360"
       helper_size="0"
       simplify_individual_paths="false"
       simplify_just_coalesce="false" />
    <inkscape:path-effect
       effect="simplify"
       id="path-effect40150"
       is_visible="true"
       lpeversion="1"
       steps="1"
       threshold="0.00243902"
       smooth_angles="360"
       helper_size="0"
       simplify_individual_paths="false"
       simplify_just_coalesce="false" />
    <inkscape:path-effect
       effect="simplify"
       id="path-effect40144"
       is_visible="true"
       lpeversion="1"
       steps="1"
       threshold="0.00243902"
       smooth_angles="360"
       helper_size="0"
       simplify_individual_paths="false"
       simplify_just_coalesce="false" />
    <inkscape:path-effect
       effect="simplify"
       id="path-effect40138"
       is_visible="true"
       lpeversion="1"
       steps="1"
       threshold="0.00243902"
       smooth_angles="360"
       helper_size="0"
       simplify_individual_paths="false"
       simplify_just_coalesce="false" />
    <inkscape:path-effect
       effect="simplify"
       id="path-effect40132"
       is_visible="true"
       lpeversion="1"
       steps="1"
       threshold="0.00243902"
       smooth_angles="360"
       helper_size="0"
       simplify_individual_paths="false"
       simplify_just_coalesce="false" />
    <inkscape:path-effect
       effect="simplify"
       id="path-effect31871"
       is_visible="true"
       lpeversion="1"
       steps="1"
       threshold="0.00243902"
       smooth_angles="360"
       helper_size="0"
       simplify_individual_paths="false"
       simplify_just_coalesce="false" />
    <inkscape:path-effect
       effect="spiro"
       id="path-effect31867"
       is_visible="true"
       lpeversion="1" />
    <inkscape:path-effect
       effect="simplify"
       id="path-effect31865"
       is_visible="true"
       lpeversion="1"
       steps="1"
       threshold="0.00243902"
       smooth_angles="360"
       helper_size="0"
       simplify_individual_paths="false"
       simplify_just_coalesce="false" />
    <inkscape:path-effect
       effect="simplify"
       id="path-effect31859"
       is_visible="true"
       lpeversion="1"
       steps="1"
       threshold="0.00243902"
       smooth_angles="360"
       helper_size="0"
       simplify_individual_paths="false"
       simplify_just_coalesce="false" />
    <inkscape:path-effect
       effect="spiro"
       id="path-effect1877"
       is_visible="true"
       lpeversion="1" />
    <inkscape:path-effect
       effect="simplify"
       id="path-effect1875"
       is_visible="true"
       lpeversion="1"
       steps="1"
       threshold="0.00243902"
       smooth_angles="360"
       helper_size="0"
       simplify_individual_paths="false"
       simplify_just_coalesce="false" />
    <inkscape:path-effect
       effect="spiro"
       id="path-effect1869"
       is_visible="true"
       lpeversion="1" />
    <inkscape:path-effect
       effect="simplify"
       id="path-effect1867"
       is_visible="true"
       lpeversion="1"
       steps="1"
       threshold="0.00243902"
       smooth_angles="360"
       helper_size="0"
       simplify_individual_paths="false"
       simplify_just_coalesce="false" />
    <inkscape:path-effect
       effect="spiro"
       id="path-effect1859"
       is_visible="true"
       lpeversion="1" />
    <inkscape:path-effect
       effect="simplify"
       id="path-effect1857"
       is_visible="true"
       lpeversion="1"
       steps="1"
       threshold="0.00243902"
       smooth_angles="360"
       helper_size="0"
       simplify_individual_paths="false"
       simplify_just_coalesce="false" />
    <inkscape:path-effect
       effect="spiro"
       id="path-effect1853"
       is_visible="true"
       lpeversion="1" />
    <inkscape:path-effect
       effect="simplify"
       id="path-effect1851"
       is_visible="true"
       lpeversion="1"
       steps="1"
       threshold="0.00243902"
       smooth_angles="360"
       helper_size="0"
       simplify_individual_paths="false"
       simplify_just_coalesce="false" />
    <inkscape:path-effect
       effect="spiro"
       id="path-effect1847"
       is_visible="true"
       lpeversion="1" />
    <inkscape:path-effect
       effect="simplify"
       id="path-effect1845"
       is_visible="true"
       lpeversion="1"
       steps="1"
       threshold="0.00243902"
       smooth_angles="360"
       helper_size="0"
       simplify_individual_paths="false"
       simplify_just_coalesce="false" />
    <inkscape:path-effect
       effect="spiro"
       id="path-effect1837"
       is_visible="true"
       lpeversion="1" />
    <inkscape:path-effect
       effect="simplify"
       id="path-effect1835"
       is_visible="true"
       lpeversion="1"
       steps="1"
       threshold="0.00243902"
       smooth_angles="360"
       helper_size="0"
       simplify_individual_paths="false"
       simplify_just_coalesce="false" />
  </defs>
  <g
     inkscape:label="Camada 1"
     inkscape:groupmode="layer"
     id="layer1"
     transform="translate(-14.9474, -54.7902)">
    <g
       id="g1556"
       transform="matrix(0.64001015,0,0,0.64001015,40.430036,73.041091)"
       style="stroke-width:1.56248">
      <circle
         style="fill:#ffffff;stroke:#000000;stroke-width:1.03905;stroke-linejoin:bevel"
         id="path1470"
         cx="155.63034"
         cy="130.74449"
         r="11.79154" />
      <circle
         style="fill:#ffffff;stroke:#000000;stroke-width:1.03905;stroke-linejoin:bevel"
         id="circle1552"
         cx="155.63034"
         cy="130.74449"
         r="8.1579542" />
    </g>
    <g
       inkscape:label="Layer 1"
       id="layer1-5"
       transform="matrix(0.40579467,0,0,0.40568626,121.85928,134.86008)"
       style="stroke-width:1.4577">
      <path
         id="path839"
         style="fill:#ffffff;stroke:#000000;stroke-width:1.02039;stroke-linejoin:bevel;stroke-miterlimit:4;stroke-dasharray:none"
         d="m 45.017937,42.968273 a 10.583333,10.583333 0 0 0 -10.56318,10.583333 10.583333,10.583333 0 0 0 0,0.02016 V 72.072439 H 55.621423 V 53.551606 A 10.583333,10.583333 0 0 0 45.03809,42.968273 a 10.583333,10.583333 0 0 0 -0.02016,0 z" />
      <path
         style="fill:none;stroke:#000000;stroke-width:1.02039;stroke-linecap:butt;stroke-linejoin:miter;stroke-miterlimit:4;stroke-dasharray:none;stroke-opacity:1"
         d="M 9.3193405,72.072434 H 86.048507"
         id="path850" />
      <path
         style="fill:none;stroke:#000000;stroke-width:1.02039;stroke-linecap:butt;stroke-linejoin:miter;stroke-miterlimit:4;stroke-dasharray:none;stroke-opacity:1"
         d="m 9.3193405,72.072434 9.9292225,17.19792"
         id="path852" />
      <path
         style="fill:none;stroke:#000000;stroke-width:1.02039;stroke-linecap:butt;stroke-linejoin:miter;stroke-miterlimit:4;stroke-dasharray:none;stroke-opacity:1"
         d="m 26.781852,72.072434 9.929222,17.19792"
         id="path854" />
      <path
         style="fill:none;stroke:#000000;stroke-width:1.02039;stroke-linecap:butt;stroke-linejoin:miter;stroke-miterlimit:4;stroke-dasharray:none;stroke-opacity:1"
         d="m 43.715196,72.072434 9.929222,17.19792"
         id="path856" />
      <path
         style="fill:none;stroke:#000000;stroke-width:1.02039;stroke-linecap:butt;stroke-linejoin:miter;stroke-miterlimit:4;stroke-dasharray:none;stroke-opacity:1"
         d="m 61.177707,72.072434 9.929222,17.19792"
         id="path858" />
      <path
         style="fill:none;stroke:#000000;stroke-width:1.02039;stroke-linecap:butt;stroke-linejoin:miter;stroke-miterlimit:4;stroke-dasharray:none;stroke-opacity:1"
         d="m 78.640218,72.072434 9.92923,17.19792"
         id="path860" />
      <circle
         style="fill:#ffffff;stroke:#000000;stroke-width:1.02039;stroke-linejoin:bevel"
         id="path1592"
         cx="45.096153"
         cy="53.425228"
         r="3.6994057" />
    </g>
    <g
       inkscape:label="Layer 1"
       id="g1130"
       transform="matrix(0.40579467,0,0,-0.40568626,19.544195,154.03463)"
       style="stroke-width:1.4577">
      <path
         id="path1114"
         style="fill:#ffffff;stroke:#000000;stroke-width:3.85658;stroke-linejoin:bevel;stroke-miterlimit:4;stroke-dasharray:none"
         d="M 219.92383,480 A 39.999999,39.999999 0 0 0 180,520 a 39.999999,39.999999 0 0 0 0,0.0762 V 590 h 80 v -70 a 39.999999,39.999999 0 0 0 -40,-40 39.999999,39.999999 0 0 0 -0.0762,0 z"
         transform="scale(0.26458333)" />
      <path
         style="fill:none;stroke:#000000;stroke-width:1.02039;stroke-linecap:butt;stroke-linejoin:miter;stroke-miterlimit:4;stroke-dasharray:none;stroke-opacity:1"
         d="M 22.489583,156.10416 H 99.218749"
         id="path1116" />
      <path
         style="fill:none;stroke:#000000;stroke-width:1.02039;stroke-linecap:butt;stroke-linejoin:miter;stroke-miterlimit:4;stroke-dasharray:none;stroke-opacity:1"
         d="m 22.489583,156.10416 9.929222,17.19792"
         id="path1118" />
      <path
         style="fill:none;stroke:#000000;stroke-width:1.02039;stroke-linecap:butt;stroke-linejoin:miter;stroke-miterlimit:4;stroke-dasharray:none;stroke-opacity:1"
         d="m 39.952094,156.10416 9.929222,17.19792"
         id="path1120" />
      <path
         style="fill:none;stroke:#000000;stroke-width:1.02039;stroke-linecap:butt;stroke-linejoin:miter;stroke-miterlimit:4;stroke-dasharray:none;stroke-opacity:1"
         d="m 56.885438,156.10416 9.929222,17.19792"
         id="path1122" />
      <path
         style="fill:none;stroke:#000000;stroke-width:1.02039;stroke-linecap:butt;stroke-linejoin:miter;stroke-miterlimit:4;stroke-dasharray:none;stroke-opacity:1"
         d="m 74.347949,156.10416 9.929222,17.19792"
         id="path1124" />
      <path
         style="fill:none;stroke:#000000;stroke-width:1.02039;stroke-linecap:butt;stroke-linejoin:miter;stroke-miterlimit:4;stroke-dasharray:none;stroke-opacity:1"
         d="m 91.81046,156.10416 9.92923,17.19792"
         id="path1126" />
      <circle
         style="fill:#ffffff;stroke:#000000;stroke-width:1.02039;stroke-linejoin:bevel"
         id="circle1128"
         cx="58.266396"
         cy="137.45695"
         r="3.6994057" />
    </g>
    <path
       style="fill:none;stroke:#000000;stroke-width:0.665;stroke-linecap:butt;stroke-linejoin:miter;stroke-miterlimit:4;stroke-dasharray:none;stroke-opacity:1"
       d="M 43.188387,98.270231 82.248623,148.88125 H 88.2788 l 36.86123,-52.336494 7.16828,0.719129 v 59.714825"
       id="path1591"
       sodipodi:nodetypes="cccccc" />
    <g
       inkscape:label="Layer 1"
       id="g1148"
       transform="matrix(0.40579467,0,0,-0.40568626,104.89252,154.03463)"
       style="stroke-width:1.4577">
      <path
         id="path1132"
         style="fill:#ffffff;stroke:#000000;stroke-width:3.85658;stroke-linejoin:bevel;stroke-miterlimit:4;stroke-dasharray:none"
         d="M 219.92383,480 A 39.999999,39.999999 0 0 0 180,520 a 39.999999,39.999999 0 0 0 0,0.0762 V 590 h 80 v -70 a 39.999999,39.999999 0 0 0 -40,-40 39.999999,39.999999 0 0 0 -0.0762,0 z"
         transform="scale(0.26458333)" />
      <path
         style="fill:none;stroke:#000000;stroke-width:1.02039;stroke-linecap:butt;stroke-linejoin:miter;stroke-miterlimit:4;stroke-dasharray:none;stroke-opacity:1"
         d="M 22.489583,156.10416 H 99.218749"
         id="path1134" />
      <path
         style="fill:none;stroke:#000000;stroke-width:1.02039;stroke-linecap:butt;stroke-linejoin:miter;stroke-miterlimit:4;stroke-dasharray:none;stroke-opacity:1"
         d="m 22.489583,156.10416 9.929222,17.19792"
         id="path1136" />
      <path
         style="fill:none;stroke:#000000;stroke-width:1.02039;stroke-linecap:butt;stroke-linejoin:miter;stroke-miterlimit:4;stroke-dasharray:none;stroke-opacity:1"
         d="m 39.952094,156.10416 9.929222,17.19792"
         id="path1138" />
      <path
         style="fill:none;stroke:#000000;stroke-width:1.02039;stroke-linecap:butt;stroke-linejoin:miter;stroke-miterlimit:4;stroke-dasharray:none;stroke-opacity:1"
         d="m 56.885438,156.10416 9.929222,17.19792"
         id="path1140" />
      <path
         style="fill:none;stroke:#000000;stroke-width:1.02039;stroke-linecap:butt;stroke-linejoin:miter;stroke-miterlimit:4;stroke-dasharray:none;stroke-opacity:1"
         d="m 74.347949,156.10416 9.929222,17.19792"
         id="path1142" />
      <path
         style="fill:none;stroke:#000000;stroke-width:1.02039;stroke-linecap:butt;stroke-linejoin:miter;stroke-miterlimit:4;stroke-dasharray:none;stroke-opacity:1"
         d="m 91.81046,156.10416 9.92923,17.19792"
         id="path1144" />
      <circle
         style="fill:#ffffff;stroke:#000000;stroke-width:1.02039;stroke-linejoin:bevel"
         id="circle1146"
         cx="58.266396"
         cy="137.45695"
         r="3.6994057" />
    </g>
    <g
       id="g1440"
       transform="translate(-12.391528,-1.6825942)">
      <circle
         style="fill:#ffffff;stroke:#000000;stroke-width:0.665001;stroke-linejoin:bevel"
         id="path1172"
         cx="97.642868"
         cy="147.87027"
         r="3.8273335" />
      <circle
         style="fill:#ffffff;stroke:#000000;stroke-width:0.665001;stroke-linejoin:bevel"
         id="circle1300"
         cx="97.642868"
         cy="147.87027"
         r="2.0138447" />
    </g>
    <rect
       style="fill:#ffffff;stroke:#000000;stroke-width:0.665001;stroke-linejoin:bevel"
       id="rect1354"
       width="22.867756"
       height="22.867756"
       x="74.51194"
       y="163.58176" />
    <g
       id="g1446"
       transform="translate(30.904031,-49.046527)">
      <circle
         style="fill:#ffffff;stroke:#000000;stroke-width:0.665001;stroke-linejoin:bevel"
         id="circle1442"
         cx="97.642868"
         cy="147.87027"
         r="3.8273335" />
      <circle
         style="fill:#ffffff;stroke:#000000;stroke-width:0.665001;stroke-linejoin:bevel"
         id="circle1444"
         cx="97.642868"
         cy="147.87027"
         r="2.0138447" />
    </g>
    <path
       style="fill:none;stroke:#000000;stroke-width:0.665;stroke-linecap:butt;stroke-linejoin:miter;stroke-miterlimit:4;stroke-dasharray:none;stroke-opacity:1"
       d="m 85.786273,150.3777 v 12.99107"
       id="path1706" />
    <path
       style="fill:none;stroke:#000000;stroke-width:0.264583px;stroke-linecap:butt;stroke-linejoin:miter;stroke-opacity:1"
       d="M 36.471016,98.173938 H 15.725404"
       id="path1833"
       inkscape:path-effect="#path-effect1835;#path-effect1837"
       inkscape:original-d="M 36.471016,98.173938 H 15.725404" />
    <path
       style="fill:none;stroke:#000000;stroke-width:0.264583px;stroke-linecap:butt;stroke-linejoin:miter;stroke-opacity:1"
       d="M 36.471016,148.88125 H 15.725404"
       id="path1843"
       inkscape:path-effect="#path-effect1845;#path-effect1847"
       inkscape:original-d="M 36.471016,148.88125 H 15.725404" />
    <path
       style="fill:none;stroke:#000000;stroke-width:0.264583px;stroke-linecap:butt;stroke-linejoin:miter;stroke-opacity:1;marker-end:url(#Triangle)"
       d="M 23.637997,98.173938 V 147.72381"
       id="path1849"
       inkscape:path-effect="#path-effect1851;#path-effect1853"
       inkscape:original-d="M 23.637997,98.173938 V 147.72381"
       sodipodi:nodetypes="cc" />
    <path
       style="fill:none;stroke:#000000;stroke-width:0.264583px;stroke-linecap:butt;stroke-linejoin:miter;stroke-opacity:1"
       d="M 43.188384,81.25662 V 56.638771"
       id="path1855"
       inkscape:path-effect="#path-effect1857;#path-effect1859"
       inkscape:original-d="M 43.188384,81.25662 V 56.638771" />
    <path
       style="fill:none;stroke:#000000;stroke-width:0.264583px;stroke-linecap:butt;stroke-linejoin:miter;stroke-opacity:1"
       d="M 128.67458,81.25661 V 56.638761"
       id="path1865"
       inkscape:path-effect="#path-effect1867;#path-effect1869"
       inkscape:original-d="M 128.67458,81.25661 V 56.638761" />
    <path
       style="fill:none;stroke:#000000;stroke-width:0.264583px;stroke-linecap:butt;stroke-linejoin:miter;stroke-opacity:1"
       d="M 43.188384,64.813859 H 128.67458"
       id="path1873"
       inkscape:path-effect="#path-effect1875;#path-effect1877"
       inkscape:original-d="M 43.188384,64.813859 H 128.67458" />
    <path
       style="fill:#000000;stroke:#000000;stroke-width:0.264583px;stroke-linecap:butt;stroke-linejoin:miter;stroke-opacity:1"
       d="m 43.188384,64.813859 4.1663,-1.07664 v 2.1511 z"
       id="path2154" />
    <path
       style="fill:#000000;stroke:#000000;stroke-width:0.264583px;stroke-linecap:butt;stroke-linejoin:miter;stroke-opacity:1"
       d="m 128.67458,64.813859 -4.1663,-1.07664 v 2.1511 z"
       id="path2156" />
    <text
       xml:space="preserve"
       style="font-size:3.88056px;line-height:1.25;font-family:sans-serif;-inkscape-font-specification:sans-serif;stroke-width:0.264583"
       x="73.773178"
       y="206.74905"
       id="text2974"><tspan
         sodipodi:role="line"
         id="tspan2972"
         style="stroke-width:0.264583"
         x="73.773178"
         y="206.74905" /></text>
    <circle
       id="path31820"
       style="fill:#000000;stroke:#000000;stroke-width:0.264583"
       cx="140.11325"
       cy="156.54338"
       r="0.0031660381" />
    <circle
       id="path31822"
       style="fill:#000000;stroke:#000000;stroke-width:0.264583"
       cx="140.11325"
       cy="156.54338"
       r="0.0031660381" />
    <path
       style="fill:none;stroke:#000000;stroke-width:0.264583px;stroke-linecap:butt;stroke-linejoin:miter;stroke-opacity:1"
       d="m 140.15906,156.53396 21.69681,5.92709"
       id="path31863"
       inkscape:path-effect="#path-effect31865;#path-effect31867"
       inkscape:original-d="m 140.15906,156.53396 21.69681,5.92709" />
    <path
       style="fill:none;stroke:#000000;stroke-width:0.264583px;stroke-linecap:butt;stroke-linejoin:miter;stroke-opacity:1;marker-end:;marker-start:url(#marker24)"
       d="m 138.97615,146.60729 c 2.32949,-0.4083 4.8038,0.0734 6.81004,1.32567 2.00623,1.25231 3.52571,3.26362 4.18207,5.53572 0.31372,1.08599 0.43558,2.2271 0.35829,3.35485"
       id="path41319"
       inkscape:path-effect="#path-effect41321"
       inkscape:original-d="m 138.97615,146.60729 c 3.66433,2.28736 7.32837,4.57448 10.99211,6.86139 3.66374,2.2869 0.23919,2.23678 0.35829,3.35485"
       inkscape:transform-center-x="-4.5289404"
       inkscape:transform-center-y="-4.8564494" />
    <g
       inkscape:label=""
       transform="translate(82.344483,57.185195)"
       id="g1">
      <g
         fill="#000000"
         fill-opacity="1"
         id="g3"
         transform="matrix(0.352778,0,0,0.352778,-1.06138,-0.706217)">
        <g
           id="use2"
           transform="translate(1.993,19.205)">
          <path
             d="m 10.328125,-3.84375 h -0.4375 C 9.640625,-2.078125 9.4375,-1.78125 9.34375,-1.640625 9.21875,-1.4375 7.4375,-1.4375 7.09375,-1.4375 H 2.328125 c 0.890625,-0.96875 2.625,-2.71875 4.734375,-4.75 1.515625,-1.4375 3.265625,-3.125 3.265625,-5.578125 C 10.328125,-14.6875 8,-16.375 5.40625,-16.375 c -2.734375,0 -4.390625,2.390625 -4.390625,4.625 0,0.96875 0.71875,1.09375 1.015625,1.09375 0.25,0 0.984375,-0.140625 0.984375,-1.015625 0,-0.765625 -0.640625,-0.984375 -0.984375,-0.984375 -0.140625,0 -0.296875,0.01563 -0.390625,0.0625 0.46875,-2.09375 1.90625,-3.140625 3.421875,-3.140625 2.15625,0 3.5625,1.703125 3.5625,3.96875 0,2.15625 -1.265625,4.015625 -2.671875,5.625 L 1.015625,-0.5625 V 0 h 8.71875 z m 0,0"
             id="path4" />
        </g>
      </g>
      <g
         fill="#000000"
         fill-opacity="1"
         id="g4"
         transform="matrix(0.352778,0,0,0.352778,-1.06138,-0.706217)">
        <g
           id="use3"
           transform="translate(13.36,19.205)">
          <path
             d="m 5.71875,-16.578125 c 0.03125,-0.09375 0.078125,-0.25 0.078125,-0.375 0,-0.25 -0.25,-0.25 -0.296875,-0.25 -0.015625,0 -0.921875,0.07813 -1.359375,0.125 C 3.71875,-17.046875 3.34375,-17 2.90625,-16.96875 c -0.609375,0.04687 -0.78125,0.0625 -0.78125,0.515625 0,0.25 0.25,0.25 0.5,0.25 1.265625,0 1.265625,0.21875 1.265625,0.46875 0,0.171875 -0.203125,0.890625 -0.296875,1.34375 L 3,-12.015625 c -0.25,0.984375 -1.65625,6.609375 -1.765625,7.0625 -0.125,0.609375 -0.125,1.03125 -0.125,1.359375 0,2.53125 1.421875,3.84375 3.03125,3.84375 2.875,0 5.84375,-3.6875 5.84375,-7.28125 0,-2.28125 -1.28125,-3.890625 -3.140625,-3.890625 -1.296875,0 -2.453125,1.0625 -2.921875,1.546875 z M 4.15625,-0.25 C 3.375,-0.25 2.5,-0.84375 2.5,-2.78125 2.5,-3.59375 2.578125,-4.0625 3.015625,-5.796875 3.09375,-6.125 3.5,-7.703125 3.59375,-8.03125 3.640625,-8.234375 5.109375,-10.4375 6.796875,-10.4375 7.875,-10.4375 8.375,-9.34375 8.375,-8.046875 8.375,-6.859375 7.6875,-4.0625 7.0625,-2.78125 6.4375,-1.4375 5.296875,-0.25 4.15625,-0.25 Z m 0,0"
             id="path5" />
        </g>
      </g>
    </g>
    <g
       inkscape:label=""
       transform="translate(17.512436,121.27076)"
       id="g5">
      <g
         fill="#000000"
         fill-opacity="1"
         id="g2"
         transform="matrix(0.352778,0,0,0.352778,-0.940109,-0.614936)">
        <g
           id="use1"
           transform="translate(1.993,12.665)">
          <path
             d="M 6.515625,2.78125 C 5.84375,3.71875 4.875,4.5625 3.671875,4.5625 3.375,4.5625 2.1875,4.515625 1.8125,3.375 1.890625,3.390625 2,3.390625 2.0625,3.390625 2.796875,3.390625 3.296875,2.75 3.296875,2.1875 3.296875,1.609375 2.828125,1.40625 2.453125,1.40625 2.0625,1.40625 1.1875,1.703125 1.1875,2.921875 1.1875,4.1875 2.25,5.0625 3.671875,5.0625 c 2.46875,0 4.984375,-2.28125 5.671875,-5.03125 l 2.421875,-9.671875 c 0.03125,-0.125 0.07813,-0.265625 0.07813,-0.421875 0,-0.375 -0.296875,-0.625 -0.671875,-0.625 -0.21875,0 -0.734375,0.109375 -0.9375,0.84375 l -1.82813,7.296875 c -0.125,0.4375 -0.125,0.484375 -0.328125,0.765625 -0.5,0.6875 -1.3125,1.53125 -2.5,1.53125 C 4.1875,-0.25 4.0625,-1.609375 4.0625,-2.28125 c 0,-1.40625 0.671875,-3.3125 1.34375,-5.109375 0.265625,-0.71875 0.421875,-1.0625 0.421875,-1.5625 0,-1.03125 -0.75,-1.96875 -1.96875,-1.96875 -2.265625,0 -3.1875,3.59375 -3.1875,3.78125 0,0.109375 0.09375,0.234375 0.265625,0.234375 0.234375,0 0.25,-0.109375 0.34375,-0.453125 0.609375,-2.078125 1.546875,-3.078125 2.515625,-3.078125 0.21875,0 0.640625,0 0.640625,0.828125 0,0.640625 -0.28125,1.359375 -0.640625,2.296875 -1.21875,3.25 -1.21875,4.0625 -1.21875,4.65625 0,2.359375 1.6875,2.90625 2.921875,2.90625 0.71875,0 1.609375,-0.21875 2.484375,-1.140625 L 8,-0.875 C 7.625,0.59375 7.390625,1.5625 6.515625,2.78125 Z m 0,0"
             id="path2" />
        </g>
      </g>
    </g>
    <g
       fill="#000000"
       fill-opacity="1"
       id="g7"
       transform="matrix(0.352778,0,0,0.352778,146.52159,143.52631)">
      <g
         id="g6"
         transform="translate(1.993,12.664)">
        <path
           d="m 14.71875,-9.3125 c 0,-0.71875 -0.203125,-1.640625 -1.0625,-1.640625 -0.5,0 -1.0625,0.625 -1.0625,1.109375 0,0.234375 0.09375,0.375 0.296875,0.59375 0.375,0.421875 0.84375,1.09375 0.84375,2.265625 0,0.890625 -0.546875,2.296875 -0.953125,3.0625 -0.6875,1.375 -1.828125,2.53125 -3.109375,2.53125 -1.5625,0 -2.15625,-0.984375 -2.4375,-2.375 0.28125,-0.640625 0.84375,-2.25 0.84375,-2.90625 0,-0.265625 -0.09375,-0.484375 -0.421875,-0.484375 -0.171875,0 -0.375,0.09375 -0.5,0.296875 -0.34375,0.546875 -0.65625,2.5 -0.640625,3.015625 -0.46875,0.921875 -1.8125,2.453125 -3.390625,2.453125 -1.65625,0 -2.109375,-1.453125 -2.109375,-2.875 0,-2.578125 1.609375,-4.828125 2.0625,-5.453125 0.25,-0.375 0.421875,-0.609375 0.421875,-0.671875 0,-0.171875 -0.109375,-0.4375 -0.328125,-0.4375 -0.390625,0 -0.515625,0.328125 -0.71875,0.625 C 1.1875,-8.25 0.296875,-5.5 0.296875,-3.125 c 0,1.53125 0.578125,3.375 2.421875,3.375 2.0625,0 3.359375,-1.765625 3.875,-2.703125 C 6.796875,-1.0625 7.53125,0.25 9.34375,0.25 c 1.875,0 3.078125,-1.65625 3.96875,-3.671875 0.640625,-1.4375 1.40625,-4.53125 1.40625,-5.890625 z m 0,0"
           id="path6" />
      </g>
    </g>
    <g
       fill="#000000"
       fill-opacity="1"
       id="g9"
       transform="matrix(0.352778,0,0,0.352778,48.235425,93.921524)">
      <g
         id="g8"
         transform="translate(1.993,18.93)">
        <path
           d="M 4.21875,-2.75 C 3.34375,-1.28125 2.5,-0.796875 1.3125,-0.71875 1.046875,-0.6875 0.84375,-0.6875 0.84375,-0.25 c 0,0.15625 0.125,0.25 0.296875,0.25 0.453125,0 1.5625,-0.046875 2,-0.046875 C 3.859375,-0.046875 4.65625,0 5.359375,0 5.5,0 5.796875,0 5.796875,-0.46875 c 0,-0.21875 -0.203125,-0.25 -0.34375,-0.25 C 4.875,-0.765625 4.40625,-0.96875 4.40625,-1.5625 c 0,-0.34375 0.15625,-0.625 0.46875,-1.15625 l 1.890625,-3.125 h 6.3125 c 0.03125,0.21875 0.03125,0.421875 0.0625,0.640625 0.0625,0.640625 0.359375,3.21875 0.359375,3.6875 0,0.75 -1.265625,0.796875 -1.65625,0.796875 -0.265625,0 -0.546875,0 -0.546875,0.453125 C 11.296875,0 11.515625,0 11.671875,0 c 0.421875,0 0.921875,-0.046875 1.34375,-0.046875 h 1.40625 C 15.9375,-0.046875 17.03125,0 17.046875,0 17.21875,0 17.5,0 17.5,-0.46875 c 0,-0.25 -0.234375,-0.25 -0.59375,-0.25 -1.375,0 -1.390625,-0.21875 -1.46875,-0.96875 L 13.921875,-17.15625 C 13.875,-17.640625 13.78125,-17.6875 13.5,-17.6875 c -0.234375,0 -0.390625,0.04687 -0.609375,0.421875 z m 2.96875,-3.8125 4.984375,-8.328125 0.84375,8.328125 z m 0,0"
           id="path8" />
      </g>
    </g>
    <g
       inkscape:label=""
       id="g13"
       transform="translate(90.036011,147.16816)">
      <g
         fill="#000000"
         fill-opacity="1"
         id="g12"
         transform="matrix(0.352778,0,0,0.352778,-1.12201,-0.708422)">
        <g
           id="g11"
           transform="translate(1.993,18.93)">
          <path
             d="m 9.0625,-15.234375 c 0.234375,-0.921875 0.328125,-0.96875 1.296875,-0.96875 h 3.21875 c 2.796875,0 2.796875,2.375 2.796875,2.59375 0,2.015625 -2,4.5625 -5.265625,4.5625 H 7.53125 Z m 4.203125,6.390625 c 2.6875,-0.5 5.140625,-2.375 5.140625,-4.65625 0,-1.9375 -1.703125,-3.421875 -4.5,-3.421875 H 5.953125 c -0.46875,0 -0.703125,0 -0.703125,0.46875 0,0.25 0.234375,0.25 0.59375,0.25 1.515625,0 1.515625,0.1875 1.515625,0.46875 0,0.04687 0,0.203125 -0.09375,0.5625 l -3.34375,13.34375 C 3.6875,-0.96875 3.640625,-0.71875 1.90625,-0.71875 c -0.46875,0 -0.71875,0 -0.71875,0.453125 C 1.1875,0 1.34375,0 1.828125,0 h 8.5 c 3.796875,0 6.71875,-2.875 6.71875,-5.375 0,-2.03125 -1.78125,-3.28125 -3.78125,-3.46875 z m -3.53125,8.125 H 6.390625 C 6.046875,-0.71875 6,-0.71875 5.84375,-0.75 5.578125,-0.765625 5.546875,-0.8125 5.546875,-1.015625 5.546875,-1.1875 5.59375,-1.34375 5.65625,-1.5625 l 1.734375,-6.984375 h 4.65625 c 2.921875,0 2.921875,2.71875 2.921875,2.921875 0,2.375 -2.15625,4.90625 -5.234375,4.90625 z m 0,0"
             id="path11" />
        </g>
      </g>
    </g>
    <g
       inkscape:label=""
       transform="translate(135.06669,96.096013)"
       id="g16">
      <g
         fill="#000000"
         fill-opacity="1"
         id="g15"
         transform="matrix(0.352778,0,0,0.352778,-1.13855,-0.521009)">
        <g
           id="g14"
           transform="translate(1.993,18.93)">
          <path
             d="m 18.515625,-17.21875 c 0,-0.234375 -0.171875,-0.234375 -0.234375,-0.234375 -0.04687,0 -0.140625,0 -0.34375,0.25 l -1.703125,2.09375 c -0.875,-1.5 -2.234375,-2.34375 -4.09375,-2.34375 -5.34375,0 -10.90625,5.4375 -10.90625,11.265625 0,4.125 2.90625,6.703125 6.515625,6.703125 1.984375,0 3.71875,-0.84375 5.15625,-2.046875 2.15625,-1.8125 2.8125,-4.21875 2.8125,-4.421875 0,-0.21875 -0.203125,-0.21875 -0.28125,-0.21875 -0.21875,0 -0.25,0.15625 -0.296875,0.25 C 14,-2.0625 10.65625,-0.203125 8.171875,-0.203125 c -2.625,0 -4.90625,-1.6875 -4.90625,-5.203125 0,-0.78125 0.25,-5.09375 3.046875,-8.34375 1.375,-1.59375 3.703125,-2.984375 6.046875,-2.984375 2.734375,0 3.953125,2.265625 3.953125,4.796875 0,0.640625 -0.07813,1.1875 -0.07813,1.28125 0,0.21875 0.25,0.21875 0.3125,0.21875 0.28125,0 0.296875,-0.01563 0.40625,-0.46875 z m 0,0"
             id="path13" />
        </g>
      </g>
    </g>
    <g
       inkscape:label=""
       transform="translate(82.657315,172.48721)"
       id="g19">
      <g
         fill="#000000"
         fill-opacity="1"
         id="g18"
         transform="matrix(0.352778,0,0,0.352778,-1.1165,-0.708422)">
        <g
           id="g17"
           transform="translate(1.993,18.93)">
          <path
             d="M 7.328125,-7.875 H 11.5 c 3.421875,0 6.84375,-2.53125 6.84375,-5.359375 0,-1.9375 -1.640625,-3.6875 -4.765625,-3.6875 h -7.65625 c -0.46875,0 -0.6875,0 -0.6875,0.46875 0,0.25 0.21875,0.25 0.59375,0.25 1.5,0 1.5,0.1875 1.5,0.46875 0,0.04687 0,0.203125 -0.09375,0.5625 l -3.34375,13.34375 c -0.21875,0.859375 -0.265625,1.109375 -2,1.109375 -0.484375,0 -0.71875,0 -0.71875,0.453125 C 1.171875,0 1.390625,0 1.53125,0 2,0 2.5,-0.046875 2.96875,-0.046875 H 5.875 C 6.34375,-0.046875 6.859375,0 7.328125,0 7.53125,0 7.8125,0 7.8125,-0.46875 c 0,-0.25 -0.234375,-0.25 -0.59375,-0.25 -1.5,0 -1.515625,-0.171875 -1.515625,-0.421875 0,-0.125 0.015625,-0.296875 0.046875,-0.421875 z M 9.125,-15.234375 c 0.21875,-0.921875 0.3125,-0.96875 1.28125,-0.96875 h 2.453125 c 1.859375,0 3.390625,0.59375 3.390625,2.453125 0,0.640625 -0.3125,2.75 -1.453125,3.890625 -0.421875,0.4375 -1.609375,1.390625 -3.875,1.390625 H 7.4375 Z m 0,0"
             id="path16" />
        </g>
      </g>
    </g>
    <g
       inkscape:label=""
       transform="translate(152.68258,152.37665)"
       id="g22">
      <g
         fill="#000000"
         fill-opacity="1"
         id="g21"
         transform="matrix(0.352778,0,0,0.352778,-1.1165,-0.708422)">
        <g
           id="g20"
           transform="translate(1.993,18.93)">
          <path
             d="m 9.125,-15.234375 c 0.21875,-0.921875 0.3125,-0.96875 1.28125,-0.96875 h 1.78125 c 2.140625,0 3.71875,0.640625 3.71875,2.578125 0,1.265625 -0.640625,4.90625 -5.625,4.90625 H 7.484375 Z m 3.4375,6.8125 c 3.078125,-0.671875 5.484375,-2.65625 5.484375,-4.78125 0,-1.9375 -1.96875,-3.71875 -5.40625,-3.71875 h -6.71875 c -0.5,0 -0.71875,0 -0.71875,0.46875 0,0.25 0.171875,0.25 0.640625,0.25 1.484375,0 1.484375,0.1875 1.484375,0.46875 0,0.04687 0,0.203125 -0.09375,0.5625 l -3.34375,13.34375 C 3.671875,-0.96875 3.625,-0.71875 1.90625,-0.71875 c -0.5625,0 -0.734375,0 -0.734375,0.46875 0,0.25 0.265625,0.25 0.34375,0.25 0.4375,0 0.96875,-0.046875 1.4375,-0.046875 H 5.875 C 6.3125,-0.046875 6.84375,0 7.28125,0 7.484375,0 7.75,0 7.75,-0.46875 c 0,-0.25 -0.21875,-0.25 -0.59375,-0.25 -1.5,0 -1.5,-0.203125 -1.5,-0.453125 0,-0.015625 0,-0.1875 0.046875,-0.390625 l 1.65625,-6.671875 h 2.96875 c 2.359375,0 2.8125,1.5 2.8125,2.3125 0,0.375 -0.25,1.34375 -0.421875,1.984375 -0.28125,1.140625 -0.359375,1.40625 -0.359375,1.875 0,1.765625 1.4375,2.578125 3.109375,2.578125 2,0 2.875,-2.453125 2.875,-2.796875 0,-0.171875 -0.125,-0.25 -0.28125,-0.25 -0.1875,0 -0.25,0.15625 -0.296875,0.34375 -0.59375,1.765625 -1.609375,2.21875 -2.234375,2.21875 -0.609375,0 -1.015625,-0.28125 -1.015625,-1.390625 0,-0.59375 0.296875,-2.859375 0.328125,-2.984375 0.125,-0.90625 0.125,-1.015625 0.125,-1.203125 0,-1.8125 -1.46875,-2.578125 -2.40625,-2.875 z m 0,0"
             id="path19" />
        </g>
      </g>
    </g>
    <path
       style="fill:#000000;stroke:#000000;stroke-width:0.3;marker-end:url(#marker26)"
       d="m 156.80644,161.05788 -8.1021,-2.24254"
       id="path25"
       sodipodi:nodetypes="cc" />
  </g>
</svg>
