<?xml version="1.0" encoding="UTF-8" standalone="no"?>
<!-- Created with Inkscape (http://www.inkscape.org/) -->

<svg
   width="98.194939mm"
   height="95.411919mm"
   viewBox="0 0 98.194938 95.411919"
   version="1.1"
   id="svg1"
   xml:space="preserve"
   inkscape:version="1.3.2 (091e20e, 2023-11-25, custom)"
   sodipodi:docname="Forças_11.svg"
   inkscape:export-filename="Forças_11.png"
   inkscape:export-xdpi="300"
   inkscape:export-ydpi="300"
   xmlns:inkscape="http://www.inkscape.org/namespaces/inkscape"
   xmlns:sodipodi="http://sodipodi.sourceforge.net/DTD/sodipodi-0.dtd"
   xmlns="http://www.w3.org/2000/svg"
   xmlns:svg="http://www.w3.org/2000/svg"><sodipodi:namedview
     id="namedview1"
     pagecolor="#ffffff"
     bordercolor="#000000"
     borderopacity="0.25"
     inkscape:showpageshadow="2"
     inkscape:pageopacity="0.0"
     inkscape:pagecheckerboard="0"
     inkscape:deskcolor="#d1d1d1"
     inkscape:document-units="mm"
     inkscape:zoom="1.4485269"
     inkscape:cx="203.65518"
     inkscape:cy="212.28463"
     inkscape:window-width="1920"
     inkscape:window-height="1009"
     inkscape:window-x="-8"
     inkscape:window-y="-8"
     inkscape:window-maximized="1"
     inkscape:current-layer="layer1"
     inkscape:export-bgcolor="#ffffffff" /><defs
     id="defs1"><marker
       style="overflow:visible"
       id="Triangle"
       refX="0"
       refY="0"
       orient="auto-start-reverse"
       inkscape:stockid="Triangle arrow"
       markerWidth="1"
       markerHeight="1"
       viewBox="0 0 1 1"
       inkscape:isstock="true"
       inkscape:collect="always"
       preserveAspectRatio="xMidYMid"><path
         transform="scale(0.5)"
         style="fill:context-stroke;fill-rule:evenodd;stroke:context-stroke;stroke-width:1pt"
         d="M 5.77,0 -2.88,5 V -5 Z"
         id="path135" /></marker><marker
       style="overflow:visible"
       id="marker2416"
       refX="0"
       refY="0"
       orient="auto"
       inkscape:stockid="Arrow1Lend"
       inkscape:isstock="true"><path
         transform="matrix(-0.8,0,0,-0.8,-10,0)"
         style="fill:#ff0000;fill-opacity:1;fill-rule:evenodd;stroke:#ff0000;stroke-width:1pt;stroke-opacity:1"
         d="M 0,0 5,-5 -12.5,0 5,5 Z"
         id="path2414" /></marker><filter
       inkscape:collect="always"
       style="color-interpolation-filters:sRGB"
       id="filter2408"
       x="-0.1897985"
       width="1.379597"
       y="-0.1897985"
       height="1.379597"><feGaussianBlur
         inkscape:collect="always"
         stdDeviation="0.52308203"
         id="feGaussianBlur2410" /></filter></defs><g
     inkscape:label="Camada 1"
     inkscape:groupmode="layer"
     id="layer1"
     transform="translate(-60.135314,-70.883499)"><g
       id="g916"
       transform="matrix(1.5680407,0,0,1.5662402,-104.67428,-23.220963)"
       style="stroke-width:0.638105"><circle
         style="opacity:1;mix-blend-mode:normal;fill:#000000;stroke:#000000;stroke-width:0.108975"
         id="path1649"
         cx="135.97427"
         cy="113.54485"
         r="7.4015002" /><circle
         style="opacity:1;fill:#ffffff;stroke:#000000;stroke-width:0.0755523;filter:url(#filter2408)"
         id="path1651"
         cx="138.57416"
         cy="110.38313"
         r="3.4066997" /></g><g
       id="g13"><path
         style="fill:none;stroke:#000000;stroke-width:0.565;stroke-dasharray:none"
         d="m 90.300325,116.78064 16.058525,27.78225 -3.66048,2.11096 -15.963202,-27.61732 c 0.03004,-0.15669 0.06394,-0.31267 0.09015,-0.47005 0.02554,-0.15349 -0.04071,-0.45999 0.0716,-0.57216 0.08471,-0.0846 0.569067,0.31997 0.644431,0.3576 0.0427,0.0213 0.100511,-0.0213 0.143209,0 0.04091,0.0204 0.145091,0.21268 0.21481,0.143 0.114044,-0.11387 0.212032,-0.56941 0.214809,-0.57218 0.01687,-0.0169 0.06093,0.0213 0.0716,0 0.04031,-0.0805 -0.0077,-0.47935 0.143209,-0.42912 0.283643,0.0944 0.543946,0.65811 0.716034,0.57217 0.159968,-0.0799 0.07453,-0.18319 0.143209,-0.28609 0.0296,-0.0443 0.105466,-0.0338 0.143209,-0.0716 0.008,-0.008 0.170342,-0.81384 0.286413,-0.92978 0.07094,-0.0708 0.351544,0.0719 0.358017,0.0716 0.112068,-0.005 0.21631,-0.0595 0.324464,-0.0893 z"
         id="path1" /><path
         style="fill:none;stroke:#000000;stroke-width:0.564999;stroke-dasharray:none"
         d="m 102.74446,146.21679 1.43887,-5.36991"
         id="path2" /><path
         style="fill:none;stroke:#000000;stroke-width:0.564999;stroke-dasharray:none"
         d="m 100.44514,142.40247 1.43886,-5.36991"
         id="path3" /><path
         style="fill:none;stroke:#000000;stroke-width:0.564999;stroke-dasharray:none"
         d="m 99.25787,140.39324 1.43886,-5.36991"
         id="path4" /><path
         style="fill:none;stroke:#000000;stroke-width:0.564999;stroke-dasharray:none"
         d="m 97.157316,136.74011 1.438862,-5.36991"
         id="path5" /><path
         style="fill:none;stroke:#000000;stroke-width:0.564999;stroke-dasharray:none"
         d="m 95.696062,134.36557 1.438862,-5.36991"
         id="path6" /><path
         style="fill:none;stroke:#000000;stroke-width:0.564999;stroke-dasharray:none"
         d="m 94.417464,132.26502 1.438862,-5.36991"
         id="path7" /><path
         style="fill:none;stroke:#000000;stroke-width:0.564999;stroke-dasharray:none"
         d="m 93.138866,129.79915 1.438862,-5.36991"
         id="path8" /><path
         style="fill:none;stroke:#000000;stroke-width:0.564999;stroke-dasharray:none"
         d="m 91.951597,127.60727 1.438862,-5.36991"
         id="path9" /><path
         style="fill:none;stroke:#000000;stroke-width:0.564999;stroke-dasharray:none"
         d="m 90.307686,125.1414 1.438862,-5.36991"
         id="path10" /><path
         style="fill:none;stroke:#000000;stroke-width:0.564999;stroke-dasharray:none"
         d="m 88.93776,122.67553 1.438862,-5.36991"
         id="path11" /><path
         style="fill:none;stroke:#000000;stroke-width:0.564999;stroke-dasharray:none"
         d="m 98.161929,138.47535 1.438862,-5.36991"
         id="path12" /><path
         style="fill:none;stroke:#000000;stroke-width:0.564999;stroke-dasharray:none"
         d="m 101.63241,144.22903 1.43886,-5.36991"
         id="path13" /></g><g
       id="g26"
       transform="rotate(180,83.440129,108.97153)"><path
         style="fill:none;stroke:#000000;stroke-width:0.565;stroke-dasharray:none"
         d="m 90.300325,116.78064 16.058525,27.78225 -3.66048,2.11096 -15.963202,-27.61732 c 0.03004,-0.15669 0.06394,-0.31267 0.09015,-0.47005 0.02554,-0.15349 -0.04071,-0.45999 0.0716,-0.57216 0.08471,-0.0846 0.569067,0.31997 0.644431,0.3576 0.0427,0.0213 0.100511,-0.0213 0.143209,0 0.04091,0.0204 0.145091,0.21268 0.21481,0.143 0.114044,-0.11387 0.212032,-0.56941 0.214809,-0.57218 0.01687,-0.0169 0.06093,0.0213 0.0716,0 0.04031,-0.0805 -0.0077,-0.47935 0.143209,-0.42912 0.283643,0.0944 0.543946,0.65811 0.716034,0.57217 0.159968,-0.0799 0.07453,-0.18319 0.143209,-0.28609 0.0296,-0.0443 0.105466,-0.0338 0.143209,-0.0716 0.008,-0.008 0.170342,-0.81384 0.286413,-0.92978 0.07094,-0.0708 0.351544,0.0719 0.358017,0.0716 0.112068,-0.005 0.21631,-0.0595 0.324464,-0.0893 z"
         id="path14" /><path
         style="fill:none;stroke:#000000;stroke-width:0.564999;stroke-dasharray:none"
         d="m 102.74446,146.21679 1.43887,-5.36991"
         id="path15" /><path
         style="fill:none;stroke:#000000;stroke-width:0.564999;stroke-dasharray:none"
         d="m 100.44514,142.40247 1.43886,-5.36991"
         id="path16" /><path
         style="fill:none;stroke:#000000;stroke-width:0.564999;stroke-dasharray:none"
         d="m 99.25787,140.39324 1.43886,-5.36991"
         id="path17" /><path
         style="fill:none;stroke:#000000;stroke-width:0.564999;stroke-dasharray:none"
         d="m 97.157316,136.74011 1.438862,-5.36991"
         id="path18" /><path
         style="fill:none;stroke:#000000;stroke-width:0.564999;stroke-dasharray:none"
         d="m 95.696062,134.36557 1.438862,-5.36991"
         id="path19" /><path
         style="fill:none;stroke:#000000;stroke-width:0.564999;stroke-dasharray:none"
         d="m 94.417464,132.26502 1.438862,-5.36991"
         id="path20" /><path
         style="fill:none;stroke:#000000;stroke-width:0.564999;stroke-dasharray:none"
         d="m 93.138866,129.79915 1.438862,-5.36991"
         id="path21" /><path
         style="fill:none;stroke:#000000;stroke-width:0.564999;stroke-dasharray:none"
         d="m 91.951597,127.60727 1.438862,-5.36991"
         id="path22" /><path
         style="fill:none;stroke:#000000;stroke-width:0.564999;stroke-dasharray:none"
         d="m 90.307686,125.1414 1.438862,-5.36991"
         id="path23" /><path
         style="fill:none;stroke:#000000;stroke-width:0.564999;stroke-dasharray:none"
         d="m 88.93776,122.67553 1.438862,-5.36991"
         id="path24" /><path
         style="fill:none;stroke:#000000;stroke-width:0.564999;stroke-dasharray:none"
         d="m 98.161929,138.47535 1.438862,-5.36991"
         id="path25" /><path
         style="fill:none;stroke:#000000;stroke-width:0.564999;stroke-dasharray:none"
         d="m 101.63241,144.22903 1.43886,-5.36991"
         id="path26" /></g><path
       style="fill:#ff0000;stroke:#ff0000;stroke-width:0.564999;stroke-dasharray:none;marker-end:url(#Triangle)"
       d="m 77.811807,98.817342 4.569902,7.915308"
       id="path27" /><path
       style="fill:#ff0000;stroke:#ff0000;stroke-width:0.564999;stroke-dasharray:none;marker-end:url(#Triangle)"
       d="M 90.082977,120.38431 85.513075,112.469"
       id="path28" /><g
       inkscape:label=""
       transform="translate(88.588529,106.44282)"
       id="g31"><g
   fill="#000000"
   fill-opacity="1"
   id="g4"
   transform="matrix(0.352778,0,0,0.352778,-1.03933,-0.700484)">
    <g
   id="use3"
   transform="translate(7.2350001,16.719999)">
      <path
   d="m 11.046875,-12.328125 c -0.25,0.21875 -1.015625,0.953125 -1.015625,1.234375 0,0.203125 0.1875,0.390625 0.40625,0.390625 0.1875,0 0.265625,-0.125 0.40625,-0.328125 0.5,-0.625 1.046875,-1.015625 1.53125,-1.28125 0.203125,-0.125 0.34375,-0.1875 0.34375,-0.40625 0,-0.1875 -0.15625,-0.296875 -0.28125,-0.390625 -0.578125,-0.40625 -0.71875,-0.953125 -0.78125,-1.203125 -0.0625,-0.171875 -0.125,-0.421875 -0.421875,-0.421875 -0.125,0 -0.375,0.09375 -0.375,0.40625 0,0.171875 0.125,0.671875 0.515625,1.234375 H 4.4375 c -0.34375,0 -0.703125,0 -0.703125,0.390625 0,0.375 0.375,0.375 0.703125,0.375 z m 0,0"
   id="path29" />
    </g>
  </g>
  <g
   fill="#000000"
   fill-opacity="1"
   id="g5"
   transform="matrix(0.352778,0,0,0.352778,-1.03933,-0.700484)">
    <g
   id="use4"
   transform="translate(1.993,21.943001)">
      <path
   d="M 6.140625,-6.734375 H 8.125 c 1.5625,0 1.6875,0.359375 1.6875,0.953125 0,0.265625 -0.046875,0.5625 -0.140625,1.015625 -0.046875,0.078125 -0.0625,0.1875 -0.0625,0.21875 0,0.140625 0.078125,0.234375 0.21875,0.234375 0.171875,0 0.1875,-0.09375 0.265625,-0.421875 l 1.203125,-4.8125 c 0,-0.078125 -0.0625,-0.203125 -0.203125,-0.203125 -0.1875,0 -0.203125,0.078125 -0.296875,0.4375 -0.421875,1.546875 -0.84375,1.984375 -2.640625,1.984375 h -1.875 L 7.625,-12.6875 c 0.1875,-0.71875 0.21875,-0.78125 1.078125,-0.78125 h 2.765625 c 2.578125,0 2.953125,0.765625 2.953125,2.234375 0,0.125 0,0.578125 -0.0625,1.109375 -0.03125,0.09375 -0.0625,0.359375 -0.0625,0.4375 0,0.171875 0.09375,0.234375 0.21875,0.234375 0.15625,0 0.234375,-0.09375 0.28125,-0.46875 l 0.421875,-3.609375 c 0,-0.0625 0.04687,-0.265625 0.04687,-0.3125 0,-0.21875 -0.1875,-0.21875 -0.5625,-0.21875 H 4.92187 c -0.390625,0 -0.609375,0 -0.609375,0.375 0,0.21875 0.15625,0.21875 0.5,0.21875 1.28125,0 1.28125,0.140625 1.28125,0.375 0,0.09375 -0.015625,0.1875 -0.078125,0.40625 L 3.21875,-1.53125 C 3.03125,-0.8125 3,-0.59375 1.546875,-0.59375 c -0.390625,0 -0.59375,0 -0.59375,0.359375 C 0.953125,0 1.140625,0 1.265625,0 1.65625,0 2.0625,-0.046875 2.453125,-0.046875 h 2.6875 C 5.59375,-0.046875 6.09375,0 6.546875,0 c 0.1875,0 0.4375,0 0.4375,-0.375 0,-0.21875 -0.125,-0.21875 -0.578125,-0.21875 -1.640625,0 -1.671875,-0.15625 -1.671875,-0.453125 0,-0.109375 0.03125,-0.28125 0.078125,-0.421875 z m 0,0"
   id="path30" />
    </g>
  </g>
  <g
   fill="#000000"
   fill-opacity="1"
   id="g6"
   transform="matrix(0.352778,0,0,0.352778,-1.03933,-0.700484)">
    <g
   id="use5"
   transform="translate(15.089,25.042)">
      <path
   d="M 5.984375,-8.75 C 6.0625,-9.09375 6.09375,-9.21875 6.3125,-9.28125 6.421875,-9.3125 6.90625,-9.3125 7.203125,-9.3125 c 1.4375,0 2.109375,0.0625 2.109375,1.171875 0,0.21875 -0.0625,0.765625 -0.140625,1.296875 L 9.15625,-6.671875 c 0,0.0625 0.046875,0.140625 0.140625,0.140625 0.140625,0 0.140625,-0.0625 0.1875,-0.296875 l 0.40625,-2.53125 C 9.921875,-9.5 9.921875,-9.53125 9.921875,-9.5625 c 0,-0.15625 -0.078125,-0.15625 -0.375,-0.15625 h -7.84375 c -0.328125,0 -0.34375,0.015625 -0.421875,0.265625 L 0.40625,-6.875 c -0.015625,0.03125 -0.0625,0.1875 -0.0625,0.203125 0,0.078125 0.0625,0.140625 0.140625,0.140625 0.125,0 0.140625,-0.046875 0.203125,-0.234375 C 1.296875,-8.5 1.59375,-9.3125 3.5,-9.3125 h 0.953125 c 0.359375,0 0.5,0 0.5,0.15625 0,0.046875 0,0.078125 -0.078125,0.328125 L 2.953125,-1.125 c -0.140625,0.5625 -0.171875,0.703125 -1.6875,0.703125 -0.359375,0 -0.46875,0 -0.46875,0.28125 C 0.796875,0 0.96875,0 1.03125,0 1.390625,0 1.765625,-0.03125 2.125,-0.03125 H 4.359375 C 4.71875,-0.03125 5.109375,0 5.46875,0 5.625,0 5.765625,0 5.765625,-0.265625 c 0,-0.15625 -0.09375,-0.15625 -0.46875,-0.15625 C 4,-0.421875 4,-0.546875 4,-0.765625 4,-0.78125 4,-0.875 4.0625,-1.109375 Z m 0,0"
   id="path31" />
    </g>
  </g>
</g><g
       inkscape:label=""
       transform="translate(82.378217,96.351583)"
       id="g36"><g
   fill="#000000"
   fill-opacity="1"
   id="g33"
   transform="matrix(0.352778,0,0,0.352778,-1.30942,-0.700484)">
    <g
   id="g32"
   transform="translate(1.993,21.943001)">
      <path
   d="m 13.609375,-4.75 c 0.359375,0 0.71875,0 0.71875,-0.421875 0,-0.40625 -0.359375,-0.40625 -0.71875,-0.40625 H 2.4375 c -0.34375,0 -0.71875,0 -0.71875,0.40625 0,0.421875 0.375,0.421875 0.71875,0.421875 z m 0,0"
   id="path32" />
    </g>
  </g>
  <g
   fill="#000000"
   fill-opacity="1"
   id="g35"
   transform="matrix(0.352778,0,0,0.352778,-1.30942,-0.700484)">
    <g
   id="g34"
   transform="translate(23.306,16.719999)">
      <path
   d="m 11.046875,-12.328125 c -0.25,0.21875 -1.015625,0.953125 -1.015625,1.234375 0,0.203125 0.1875,0.390625 0.40625,0.390625 0.1875,0 0.265625,-0.125 0.40625,-0.328125 0.5,-0.625 1.046875,-1.015625 1.53125,-1.28125 0.203125,-0.125 0.34375,-0.1875 0.34375,-0.40625 0,-0.1875 -0.15625,-0.296875 -0.28125,-0.390625 -0.578125,-0.40625 -0.71875,-0.953125 -0.78125,-1.203125 -0.0625,-0.171875 -0.125,-0.421875 -0.421875,-0.421875 -0.125,0 -0.375,0.09375 -0.375,0.40625 0,0.171875 0.125,0.671875 0.515625,1.234375 H 4.4375 c -0.34375,0 -0.703125,0 -0.703125,0.390625 0,0.375 0.375,0.375 0.703125,0.375 z m 0,0"
   id="path33" />
    </g>
  </g>
  <g
   fill="#000000"
   fill-opacity="1"
   id="g7"
   transform="matrix(0.352778,0,0,0.352778,-1.30942,-0.700484)">
    <g
   id="use6"
   transform="translate(18.063,21.943001)">
      <path
   d="M 6.140625,-6.734375 H 8.125 c 1.5625,0 1.6875,0.359375 1.6875,0.953125 0,0.265625 -0.046875,0.5625 -0.140625,1.015625 -0.046875,0.078125 -0.0625,0.1875 -0.0625,0.21875 0,0.140625 0.078125,0.234375 0.21875,0.234375 0.171875,0 0.1875,-0.09375 0.265625,-0.421875 l 1.203125,-4.8125 c 0,-0.078125 -0.0625,-0.203125 -0.203125,-0.203125 -0.1875,0 -0.203125,0.078125 -0.296875,0.4375 -0.421875,1.546875 -0.84375,1.984375 -2.640625,1.984375 h -1.875 L 7.625,-12.6875 c 0.1875,-0.71875 0.21875,-0.78125 1.078125,-0.78125 h 2.765625 c 2.578125,0 2.953125,0.765625 2.953125,2.234375 0,0.125 0,0.578125 -0.0625,1.109375 -0.03125,0.09375 -0.0625,0.359375 -0.0625,0.4375 0,0.171875 0.09375,0.234375 0.21875,0.234375 0.15625,0 0.234375,-0.09375 0.28125,-0.46875 l 0.421875,-3.609375 c 0,-0.0625 0.04687,-0.265625 0.04687,-0.3125 0,-0.21875 -0.1875,-0.21875 -0.5625,-0.21875 H 4.92187 c -0.390625,0 -0.609375,0 -0.609375,0.375 0,0.21875 0.15625,0.21875 0.5,0.21875 1.28125,0 1.28125,0.140625 1.28125,0.375 0,0.09375 -0.015625,0.1875 -0.078125,0.40625 L 3.21875,-1.53125 C 3.03125,-0.8125 3,-0.59375 1.546875,-0.59375 c -0.390625,0 -0.59375,0 -0.59375,0.359375 C 0.953125,0 1.140625,0 1.265625,0 1.65625,0 2.0625,-0.046875 2.453125,-0.046875 h 2.6875 C 5.59375,-0.046875 6.09375,0 6.546875,0 c 0.1875,0 0.4375,0 0.4375,-0.375 0,-0.21875 -0.125,-0.21875 -0.578125,-0.21875 -1.640625,0 -1.671875,-0.15625 -1.671875,-0.453125 0,-0.109375 0.03125,-0.28125 0.078125,-0.421875 z m 0,0"
   id="path35" />
    </g>
  </g>
  <g
   fill="#000000"
   fill-opacity="1"
   id="g8"
   transform="matrix(0.352778,0,0,0.352778,-1.30942,-0.700484)">
    <g
   id="use7"
   transform="translate(31.16,25.042)">
      <path
   d="M 5.984375,-8.75 C 6.0625,-9.09375 6.09375,-9.21875 6.3125,-9.28125 6.421875,-9.3125 6.90625,-9.3125 7.203125,-9.3125 c 1.4375,0 2.109375,0.0625 2.109375,1.171875 0,0.21875 -0.0625,0.765625 -0.140625,1.296875 L 9.15625,-6.671875 c 0,0.0625 0.046875,0.140625 0.140625,0.140625 0.140625,0 0.140625,-0.0625 0.1875,-0.296875 l 0.40625,-2.53125 C 9.921875,-9.5 9.921875,-9.53125 9.921875,-9.5625 c 0,-0.15625 -0.078125,-0.15625 -0.375,-0.15625 h -7.84375 c -0.328125,0 -0.34375,0.015625 -0.421875,0.265625 L 0.40625,-6.875 c -0.015625,0.03125 -0.0625,0.1875 -0.0625,0.203125 0,0.078125 0.0625,0.140625 0.140625,0.140625 0.125,0 0.140625,-0.046875 0.203125,-0.234375 C 1.296875,-8.5 1.59375,-9.3125 3.5,-9.3125 h 0.953125 c 0.359375,0 0.5,0 0.5,0.15625 0,0.046875 0,0.078125 -0.078125,0.328125 L 2.953125,-1.125 c -0.140625,0.5625 -0.171875,0.703125 -1.6875,0.703125 -0.359375,0 -0.46875,0 -0.46875,0.28125 C 0.796875,0 0.96875,0 1.03125,0 1.390625,0 1.765625,-0.03125 2.125,-0.03125 H 4.359375 C 4.71875,-0.03125 5.109375,0 5.46875,0 5.625,0 5.765625,0 5.765625,-0.265625 c 0,-0.15625 -0.09375,-0.15625 -0.46875,-0.15625 C 4,-0.421875 4,-0.546875 4,-0.765625 4,-0.78125 4,-0.875 4.0625,-1.109375 Z m 0,0"
   id="path36" />
    </g>
  </g>
</g><g
       id="g37"
       transform="matrix(1.5680407,0,0,1.5662402,-66.574232,-23.220963)"
       style="stroke-width:0.638105"><circle
         style="opacity:1;mix-blend-mode:normal;fill:#000000;stroke:#000000;stroke-width:0.108975"
         id="circle36"
         cx="135.97427"
         cy="113.54485"
         r="7.4015002" /><circle
         style="opacity:1;fill:#ffffff;stroke:#000000;stroke-width:0.0755523;filter:url(#filter2408)"
         id="circle37"
         cx="138.57416"
         cy="110.38313"
         r="3.4066997" /></g><path
       style="fill:#ff0000;stroke:#ff0000;stroke-width:0.564999;stroke-dasharray:none;marker-end:url(#Triangle)"
       d="m 142.50549,144.1297 -4.56991,-7.91531"
       id="path37" /><g
       inkscape:label=""
       transform="translate(141.01104,130.18821)"
       id="g44"><g
   fill="#000000"
   fill-opacity="1"
   id="g39"
   transform="matrix(0.352778,0,0,0.352778,-1.03933,-0.700484)">
    <g
   id="g38"
   transform="translate(7.2350001,16.719999)">
      <path
   d="m 11.046875,-12.328125 c -0.25,0.21875 -1.015625,0.953125 -1.015625,1.234375 0,0.203125 0.1875,0.390625 0.40625,0.390625 0.1875,0 0.265625,-0.125 0.40625,-0.328125 0.5,-0.625 1.046875,-1.015625 1.53125,-1.28125 0.203125,-0.125 0.34375,-0.1875 0.34375,-0.40625 0,-0.1875 -0.15625,-0.296875 -0.28125,-0.390625 -0.578125,-0.40625 -0.71875,-0.953125 -0.78125,-1.203125 -0.0625,-0.171875 -0.125,-0.421875 -0.421875,-0.421875 -0.125,0 -0.375,0.09375 -0.375,0.40625 0,0.171875 0.125,0.671875 0.515625,1.234375 H 4.4375 c -0.34375,0 -0.703125,0 -0.703125,0.390625 0,0.375 0.375,0.375 0.703125,0.375 z m 0,0"
   id="path38" />
    </g>
  </g>
  <g
   fill="#000000"
   fill-opacity="1"
   id="g41"
   transform="matrix(0.352778,0,0,0.352778,-1.03933,-0.700484)">
    <g
   id="g40"
   transform="translate(1.993,21.943001)">
      <path
   d="M 6.140625,-6.734375 H 8.125 c 1.5625,0 1.6875,0.359375 1.6875,0.953125 0,0.265625 -0.046875,0.5625 -0.140625,1.015625 -0.046875,0.078125 -0.0625,0.1875 -0.0625,0.21875 0,0.140625 0.078125,0.234375 0.21875,0.234375 0.171875,0 0.1875,-0.09375 0.265625,-0.421875 l 1.203125,-4.8125 c 0,-0.078125 -0.0625,-0.203125 -0.203125,-0.203125 -0.1875,0 -0.203125,0.078125 -0.296875,0.4375 -0.421875,1.546875 -0.84375,1.984375 -2.640625,1.984375 h -1.875 L 7.625,-12.6875 c 0.1875,-0.71875 0.21875,-0.78125 1.078125,-0.78125 h 2.765625 c 2.578125,0 2.953125,0.765625 2.953125,2.234375 0,0.125 0,0.578125 -0.0625,1.109375 -0.03125,0.09375 -0.0625,0.359375 -0.0625,0.4375 0,0.171875 0.09375,0.234375 0.21875,0.234375 0.15625,0 0.234375,-0.09375 0.28125,-0.46875 l 0.421875,-3.609375 c 0,-0.0625 0.04687,-0.265625 0.04687,-0.3125 0,-0.21875 -0.1875,-0.21875 -0.5625,-0.21875 H 4.92187 c -0.390625,0 -0.609375,0 -0.609375,0.375 0,0.21875 0.15625,0.21875 0.5,0.21875 1.28125,0 1.28125,0.140625 1.28125,0.375 0,0.09375 -0.015625,0.1875 -0.078125,0.40625 L 3.21875,-1.53125 C 3.03125,-0.8125 3,-0.59375 1.546875,-0.59375 c -0.390625,0 -0.59375,0 -0.59375,0.359375 C 0.953125,0 1.140625,0 1.265625,0 1.65625,0 2.0625,-0.046875 2.453125,-0.046875 h 2.6875 C 5.59375,-0.046875 6.09375,0 6.546875,0 c 0.1875,0 0.4375,0 0.4375,-0.375 0,-0.21875 -0.125,-0.21875 -0.578125,-0.21875 -1.640625,0 -1.671875,-0.15625 -1.671875,-0.453125 0,-0.109375 0.03125,-0.28125 0.078125,-0.421875 z m 0,0"
   id="path39" />
    </g>
  </g>
  <g
   fill="#000000"
   fill-opacity="1"
   id="g43"
   transform="matrix(0.352778,0,0,0.352778,-1.03933,-0.700484)">
    <g
   id="g42"
   transform="translate(15.089,25.042)">
      <path
   d="M 5.984375,-8.75 C 6.0625,-9.09375 6.09375,-9.21875 6.3125,-9.28125 6.421875,-9.3125 6.90625,-9.3125 7.203125,-9.3125 c 1.4375,0 2.109375,0.0625 2.109375,1.171875 0,0.21875 -0.0625,0.765625 -0.140625,1.296875 L 9.15625,-6.671875 c 0,0.0625 0.046875,0.140625 0.140625,0.140625 0.140625,0 0.140625,-0.0625 0.1875,-0.296875 l 0.40625,-2.53125 C 9.921875,-9.5 9.921875,-9.53125 9.921875,-9.5625 c 0,-0.15625 -0.078125,-0.15625 -0.375,-0.15625 h -7.84375 c -0.328125,0 -0.34375,0.015625 -0.421875,0.265625 L 0.40625,-6.875 c -0.015625,0.03125 -0.0625,0.1875 -0.0625,0.203125 0,0.078125 0.0625,0.140625 0.140625,0.140625 0.125,0 0.140625,-0.046875 0.203125,-0.234375 C 1.296875,-8.5 1.59375,-9.3125 3.5,-9.3125 h 0.953125 c 0.359375,0 0.5,0 0.5,0.15625 0,0.046875 0,0.078125 -0.078125,0.328125 L 2.953125,-1.125 c -0.140625,0.5625 -0.171875,0.703125 -1.6875,0.703125 -0.359375,0 -0.46875,0 -0.46875,0.28125 C 0.796875,0 0.96875,0 1.03125,0 1.390625,0 1.765625,-0.03125 2.125,-0.03125 H 4.359375 C 4.71875,-0.03125 5.109375,0 5.46875,0 5.625,0 5.765625,0 5.765625,-0.265625 c 0,-0.15625 -0.09375,-0.15625 -0.46875,-0.15625 C 4,-0.421875 4,-0.546875 4,-0.765625 4,-0.78125 4,-0.875 4.0625,-1.109375 Z m 0,0"
   id="path41" />
    </g>
  </g>
</g></g></svg>
