<?xml version="1.0" encoding="UTF-8" standalone="no"?>
<!-- Created with Inkscape (http://www.inkscape.org/) -->

<svg
   width="116.87794mm"
   height="76.968147mm"
   viewBox="0 0 116.87794 76.968147"
   version="1.1"
   id="svg1"
   inkscape:version="1.3.2 (091e20e, 2023-11-25, custom)"
   sodipodi:docname="Forças_8.svg"
   inkscape:export-filename="Forças_8.png"
   inkscape:export-xdpi="300"
   inkscape:export-ydpi="300"
   xmlns:inkscape="http://www.inkscape.org/namespaces/inkscape"
   xmlns:sodipodi="http://sodipodi.sourceforge.net/DTD/sodipodi-0.dtd"
   xmlns="http://www.w3.org/2000/svg"
   xmlns:svg="http://www.w3.org/2000/svg">
  <sodipodi:namedview
     id="namedview1"
     pagecolor="#ffffff"
     bordercolor="#000000"
     borderopacity="0.25"
     inkscape:showpageshadow="2"
     inkscape:pageopacity="0.0"
     inkscape:pagecheckerboard="0"
     inkscape:deskcolor="#d1d1d1"
     inkscape:document-units="mm"
     showguides="true"
     inkscape:zoom="2.0485264"
     inkscape:cx="206.97805"
     inkscape:cy="157.43024"
     inkscape:window-width="1920"
     inkscape:window-height="1009"
     inkscape:window-x="-8"
     inkscape:window-y="-8"
     inkscape:window-maximized="1"
     inkscape:current-layer="layer1"
     inkscape:export-bgcolor="#ffffffff">
    <sodipodi:guide
       position="73.130536,249.94722"
       orientation="0,-1"
       id="guide3"
       inkscape:locked="false" />
  </sodipodi:namedview>
  <defs
     id="defs1">
    <marker
       style="overflow:visible"
       id="Triangle"
       refX="0"
       refY="0"
       orient="auto-start-reverse"
       inkscape:stockid="Triangle arrow"
       markerWidth="1"
       markerHeight="1"
       viewBox="0 0 1 1"
       inkscape:isstock="true"
       inkscape:collect="always"
       preserveAspectRatio="xMidYMid">
      <path
         transform="scale(0.5)"
         style="fill:context-stroke;fill-rule:evenodd;stroke:context-stroke;stroke-width:1pt"
         d="M 5.77,0 -2.88,5 V -5 Z"
         id="path135" />
    </marker>
  </defs>
  <g
     inkscape:label="Camada 1"
     inkscape:groupmode="layer"
     id="layer1"
     transform="translate(-20.024444,-79.437072)">
    <path
       id="path2"
       style="fill:#ffffff;stroke:#000000;stroke-width:0.765"
       d="m 68.83568,113.89255 c -8.046374,-2.27402 -14.128083,-2.0596 -16.15172,3.2894 l 0.120296,0.0322 c -1.803076,15.94566 46.164569,12.4402 69.030254,18.54261 l -6.78001,-1.86271 6.79152,1.81978 C 106.72025,131.64476 84.196943,118.23385 68.83568,113.89255 Z" />
    <path
       style="fill:#ffffff;stroke:#000000;stroke-width:0.765;marker-end:url(#Triangle)"
       d="M 77.494727,123.73325 V 95.447672"
       id="path3" />
    <path
       style="fill:#ffffff;stroke:#000000;stroke-width:0.765;marker-end:url(#Triangle)"
       d="M 77.365571,123.34577 H 110.30083"
       id="path4" />
    <path
       style="fill:#ffffff;stroke:#000000;stroke-width:0.765;marker-end:url(#Triangle)"
       d="M 49.338309,118.30862 H 33.839364"
       id="path5" />
    <g
       inkscape:label=""
       transform="translate(36.293322,109.46169)"
       id="g5">
      <g
         fill="#000000"
         fill-opacity="1"
         id="g6"
         transform="matrix(0.352778,0,0,0.352778,-0.89949,-0.700484)">
        <g
           id="use5"
           transform="translate(1.169,16.719999)">
          <path
             d="m 11.046875,-12.328125 c -0.25,0.21875 -1.015625,0.953125 -1.015625,1.234375 0,0.203125 0.1875,0.390625 0.40625,0.390625 0.1875,0 0.265625,-0.125 0.40625,-0.328125 0.5,-0.625 1.046875,-1.015625 1.53125,-1.28125 0.203125,-0.125 0.34375,-0.1875 0.34375,-0.40625 0,-0.1875 -0.15625,-0.296875 -0.28125,-0.390625 -0.578125,-0.40625 -0.71875,-0.953125 -0.78125,-1.203125 -0.0625,-0.171875 -0.125,-0.421875 -0.421875,-0.421875 -0.125,0 -0.375,0.09375 -0.375,0.40625 0,0.171875 0.125,0.671875 0.515625,1.234375 H 4.4375 c -0.34375,0 -0.703125,0 -0.703125,0.390625 0,0.375 0.375,0.375 0.703125,0.375 z m 0,0"
             id="path9" />
        </g>
      </g>
      <g
         fill="#000000"
         fill-opacity="1"
         id="g7"
         transform="matrix(0.352778,0,0,0.352778,-0.89949,-0.700484)">
        <g
           id="use6"
           transform="translate(1.987235,16.719999)">
          <path
             d="m 9.4375,-7.71875 c 0,-1.3125 -0.65625,-1.390625 -0.828125,-1.390625 -0.484375,0 -0.953125,0.5 -0.953125,0.90625 0,0.25 0.15625,0.390625 0.234375,0.484375 0.203125,0.171875 0.75,0.734375 0.75,1.8125 0,0.859375 -1.25,5.703125 -3.71875,5.703125 -1.265625,0 -1.515625,-1.0625 -1.515625,-1.828125 0,-1.03125 0.484375,-2.46875 1.03125,-3.953125 0.328125,-0.859375 0.421875,-1.0625 0.421875,-1.46875 0,-0.875 -0.625,-1.65625 -1.640625,-1.65625 -1.890625,0 -2.65625,3 -2.65625,3.15625 0,0.09375 0.078125,0.1875 0.21875,0.1875 0.1875,0 0.203125,-0.078125 0.296875,-0.375 0.484375,-1.765625 1.296875,-2.5625 2.078125,-2.5625 0.1875,0 0.546875,0 0.546875,0.6875 0,0.53125 -0.234375,1.140625 -0.546875,1.921875 -0.984375,2.640625 -0.984375,3.28125 -0.984375,3.78125 0,0.453125 0.0625,1.296875 0.703125,1.875 0.734375,0.640625 1.765625,0.640625 1.953125,0.640625 3.4375,0 4.609375,-6.75 4.609375,-7.921875 z m 0,0"
             id="path10" />
        </g>
      </g>
      <g
         fill="#000000"
         fill-opacity="1"
         id="g8"
         transform="matrix(0.352778,0,0,0.352778,-0.89949,-0.700484)">
        <g
           id="use7"
           transform="translate(11.774,19.819)">
          <path
             d="M 5.578125,-5.859375 C 5.140625,-5.78125 4.90625,-5.46875 4.90625,-5.15625 c 0,0.34375 0.265625,0.46875 0.46875,0.46875 0.40625,0 0.734375,-0.34375 0.734375,-0.78125 0,-0.453125 -0.4375,-0.859375 -1.15625,-0.859375 -0.578125,0 -1.234375,0.265625 -1.84375,1.140625 -0.09375,-0.765625 -0.671875,-1.140625 -1.25,-1.140625 -0.546875,0 -0.84375,0.4375 -1.015625,0.75 -0.234375,0.515625 -0.453125,1.375 -0.453125,1.453125 0,0.046875 0.046875,0.125 0.15625,0.125 0.109375,0 0.125,-0.015625 0.21875,-0.34375 0.203125,-0.859375 0.484375,-1.6875 1.0625,-1.6875 0.34375,0 0.4375,0.234375 0.4375,0.65625 0,0.3125 -0.140625,0.875 -0.25,1.3125 L 1.625,-2.515625 c -0.0625,0.28125 -0.21875,0.921875 -0.296875,1.1875 -0.09375,0.359375 -0.25,1.046875 -0.25,1.109375 0,0.203125 0.15625,0.359375 0.375,0.359375 0.15625,0 0.421875,-0.09375 0.515625,-0.390625 0.046875,-0.109375 0.5625,-2.28125 0.65625,-2.609375 0.078125,-0.3125 0.15625,-0.609375 0.234375,-0.921875 0.046875,-0.203125 0.109375,-0.4375 0.15625,-0.625 C 3.0625,-4.53125 3.4375,-5.234375 3.796875,-5.546875 3.96875,-5.703125 4.34375,-6.03125 4.9375,-6.03125 c 0.21875,0 0.453125,0.03125 0.640625,0.171875 z m 0,0"
             id="path11" />
        </g>
      </g>
      <g
         fill="#000000"
         fill-opacity="1"
         id="g9"
         transform="matrix(0.352778,0,0,0.352778,-0.89949,-0.700484)">
        <g
           id="use8"
           transform="translate(18.492325,19.819)">
          <path
             d="m 2.5625,-3.328125 c 0.390625,0 1.375,-0.03125 2.0625,-0.28125 1.078125,-0.421875 1.1875,-1.25 1.1875,-1.515625 0,-0.625 -0.546875,-1.203125 -1.5,-1.203125 -1.5,0 -3.671875,1.359375 -3.671875,3.921875 0,1.5 0.859375,2.546875 2.171875,2.546875 C 4.765625,0.140625 6,-1.375 6,-1.5625 6,-1.65625 5.90625,-1.71875 5.859375,-1.71875 c -0.046875,0 -0.0625,0.015625 -0.1875,0.140625 -0.921875,1.21875 -2.28125,1.4375 -2.828125,1.4375 -0.828125,0 -1.25,-0.640625 -1.25,-1.703125 0,-0.203125 0,-0.5625 0.21875,-1.484375 z M 1.875,-3.609375 C 2.5,-5.828125 3.859375,-6.03125 4.3125,-6.03125 c 0.640625,0 1.0625,0.359375 1.0625,0.90625 0,1.515625 -2.296875,1.515625 -2.890625,1.515625 z m 0,0"
             id="path12" />
        </g>
        <g
           id="use9"
           transform="translate(25.00263,19.819)">
          <path
             d="M 3.640625,-9.59375 C 3.65625,-9.65625 3.6875,-9.734375 3.6875,-9.8125 c 0,-0.140625 -0.140625,-0.140625 -0.171875,-0.140625 -0.015625,0 -0.53125,0.046875 -0.796875,0.0625 C 2.484375,-9.875 2.265625,-9.84375 2.015625,-9.828125 1.65625,-9.796875 1.5625,-9.78125 1.5625,-9.53125 c 0,0.15625 0.140625,0.15625 0.28125,0.15625 0.734375,0 0.734375,0.125 0.734375,0.265625 0,0.0625 0,0.09375 -0.0625,0.34375 L 0.734375,-1.65625 C 0.6875,-1.484375 0.65625,-1.375 0.65625,-1.140625 c 0,0.703125 0.53125,1.28125 1.265625,1.28125 0.46875,0 0.796875,-0.3125 1.015625,-0.75 0.25,-0.484375 0.453125,-1.390625 0.453125,-1.4375 0,-0.078125 -0.0625,-0.140625 -0.15625,-0.140625 -0.125,0 -0.140625,0.078125 -0.1875,0.296875 -0.265625,0.984375 -0.515625,1.75 -1.09375,1.75 -0.4375,0 -0.4375,-0.46875 -0.4375,-0.65625 0,-0.0625 0,-0.359375 0.109375,-0.765625 z m 0,0"
             id="path13" />
        </g>
      </g>
    </g>
    <g
       inkscape:label=""
       transform="translate(81.627738,91.379582)"
       id="g13">
      <g
         fill="#000000"
         fill-opacity="1"
         id="g4"
         transform="matrix(0.352778,0,0,0.352778,-1.03933,-0.700484)">
        <g
           id="use3"
           transform="translate(6.9219999,16.719999)">
          <path
             d="m 11.046875,-12.328125 c -0.25,0.21875 -1.015625,0.953125 -1.015625,1.234375 0,0.203125 0.1875,0.390625 0.40625,0.390625 0.1875,0 0.265625,-0.125 0.40625,-0.328125 0.5,-0.625 1.046875,-1.015625 1.53125,-1.28125 0.203125,-0.125 0.34375,-0.1875 0.34375,-0.40625 0,-0.1875 -0.15625,-0.296875 -0.28125,-0.390625 -0.578125,-0.40625 -0.71875,-0.953125 -0.78125,-1.203125 -0.0625,-0.171875 -0.125,-0.421875 -0.421875,-0.421875 -0.125,0 -0.375,0.09375 -0.375,0.40625 0,0.171875 0.125,0.671875 0.515625,1.234375 H 4.4375 c -0.34375,0 -0.703125,0 -0.703125,0.390625 0,0.375 0.375,0.375 0.703125,0.375 z m 0,0"
             id="path6" />
        </g>
      </g>
      <g
         fill="#000000"
         fill-opacity="1"
         id="g10"
         transform="matrix(0.352778,0,0,0.352778,-1.03933,-0.700484)">
        <g
           id="use4"
           transform="translate(1.993,21.943001)">
          <path
             d="M 6.140625,-6.734375 H 8.125 c 1.5625,0 1.6875,0.359375 1.6875,0.953125 0,0.265625 -0.046875,0.5625 -0.140625,1.015625 -0.046875,0.078125 -0.0625,0.1875 -0.0625,0.21875 0,0.140625 0.078125,0.234375 0.21875,0.234375 0.171875,0 0.1875,-0.09375 0.265625,-0.421875 l 1.203125,-4.8125 c 0,-0.078125 -0.0625,-0.203125 -0.203125,-0.203125 -0.1875,0 -0.203125,0.078125 -0.296875,0.4375 -0.421875,1.546875 -0.84375,1.984375 -2.640625,1.984375 h -1.875 L 7.625,-12.6875 c 0.1875,-0.71875 0.21875,-0.78125 1.078125,-0.78125 h 2.765625 c 2.578125,0 2.953125,0.765625 2.953125,2.234375 0,0.125 0,0.578125 -0.0625,1.109375 -0.03125,0.09375 -0.0625,0.359375 -0.0625,0.4375 0,0.171875 0.09375,0.234375 0.21875,0.234375 0.15625,0 0.234375,-0.09375 0.28125,-0.46875 l 0.421875,-3.609375 c 0,-0.0625 0.04687,-0.265625 0.04687,-0.3125 0,-0.21875 -0.1875,-0.21875 -0.5625,-0.21875 H 4.92187 c -0.390625,0 -0.609375,0 -0.609375,0.375 0,0.21875 0.15625,0.21875 0.5,0.21875 1.28125,0 1.28125,0.140625 1.28125,0.375 0,0.09375 -0.015625,0.1875 -0.078125,0.40625 L 3.21875,-1.53125 C 3.03125,-0.8125 3,-0.59375 1.546875,-0.59375 c -0.390625,0 -0.59375,0 -0.59375,0.359375 C 0.953125,0 1.140625,0 1.265625,0 1.65625,0 2.0625,-0.046875 2.453125,-0.046875 h 2.6875 C 5.59375,-0.046875 6.09375,0 6.546875,0 c 0.1875,0 0.4375,0 0.4375,-0.375 0,-0.21875 -0.125,-0.21875 -0.578125,-0.21875 -1.640625,0 -1.671875,-0.15625 -1.671875,-0.453125 0,-0.109375 0.03125,-0.28125 0.078125,-0.421875 z m 0,0"
             id="path7" />
        </g>
      </g>
      <g
         fill="#000000"
         fill-opacity="1"
         id="g12"
         transform="matrix(0.352778,0,0,0.352778,-1.03933,-0.700484)">
        <g
           id="g11"
           transform="translate(15.089,25.042)">
          <path
             d="m 5.265625,-8.6875 c 0.125,-0.546875 0.171875,-0.6875 1.4375,-0.6875 0.375,0 0.484375,0 0.484375,-0.28125 0,-0.140625 -0.15625,-0.140625 -0.21875,-0.140625 -0.28125,0 -0.609375,0.03125 -0.90625,0.03125 H 4.140625 c -0.265625,0 -0.578125,-0.03125 -0.859375,-0.03125 -0.109375,0 -0.265625,0 -0.265625,0.265625 0,0.15625 0.125,0.15625 0.34375,0.15625 0.875,0 0.875,0.109375 0.875,0.265625 0,0.03125 0,0.109375 -0.0625,0.328125 l -1.9375,7.71875 c -0.125,0.5 -0.15625,0.640625 -1.15625,0.640625 -0.28125,0 -0.421875,0 -0.421875,0.265625 C 0.65625,0 0.75,0 1.03125,0 H 7.453125 C 7.78125,0 7.78125,-0.015625 7.890625,-0.265625 L 9,-3.328125 c 0.015625,-0.078125 0.046875,-0.15625 0.046875,-0.203125 0,-0.078125 -0.0625,-0.140625 -0.140625,-0.140625 -0.015625,0 -0.078125,0 -0.109375,0.0625 -0.03125,0.015625 -0.03125,0.03125 -0.140625,0.3125 -0.46875,1.265625 -1.109375,2.875 -3.53125,2.875 H 3.75 c -0.203125,0 -0.234375,0 -0.328125,-0.015625 -0.15625,0 -0.171875,-0.03125 -0.171875,-0.15625 0,-0.09375 0.03125,-0.1875 0.0625,-0.3125 z m 0,0"
             id="path8" />
        </g>
      </g>
    </g>
    <rect
       style="opacity:0.146006;fill:#00ffff;stroke:#00ffff;stroke-width:0.765"
       id="rect20"
       width="116.11294"
       height="76.203148"
       x="20.406944"
       y="79.819572" />
    <g
       inkscape:label=""
       transform="translate(108.23426,111.78653)"
       id="g20">
      <g
         fill="#000000"
         fill-opacity="1"
         id="g15"
         transform="matrix(0.352778,0,0,0.352778,-1.03933,-0.700484)">
        <g
           id="g14"
           transform="translate(8.1700001,16.719999)">
          <path
             d="m 11.046875,-12.328125 c -0.25,0.21875 -1.015625,0.953125 -1.015625,1.234375 0,0.203125 0.1875,0.390625 0.40625,0.390625 0.1875,0 0.265625,-0.125 0.40625,-0.328125 0.5,-0.625 1.046875,-1.015625 1.53125,-1.28125 0.203125,-0.125 0.34375,-0.1875 0.34375,-0.40625 0,-0.1875 -0.15625,-0.296875 -0.28125,-0.390625 -0.578125,-0.40625 -0.71875,-0.953125 -0.78125,-1.203125 -0.0625,-0.171875 -0.125,-0.421875 -0.421875,-0.421875 -0.125,0 -0.375,0.09375 -0.375,0.40625 0,0.171875 0.125,0.671875 0.515625,1.234375 H 4.4375 c -0.34375,0 -0.703125,0 -0.703125,0.390625 0,0.375 0.375,0.375 0.703125,0.375 z m 0,0"
             id="path14" />
        </g>
      </g>
      <g
         fill="#000000"
         fill-opacity="1"
         id="g17"
         transform="matrix(0.352778,0,0,0.352778,-1.03933,-0.700484)">
        <g
           id="g16"
           transform="translate(1.993,21.943001)">
          <path
             d="M 6.140625,-6.734375 H 8.125 c 1.5625,0 1.6875,0.359375 1.6875,0.953125 0,0.265625 -0.046875,0.5625 -0.140625,1.015625 -0.046875,0.078125 -0.0625,0.1875 -0.0625,0.21875 0,0.140625 0.078125,0.234375 0.21875,0.234375 0.171875,0 0.1875,-0.09375 0.265625,-0.421875 l 1.203125,-4.8125 c 0,-0.078125 -0.0625,-0.203125 -0.203125,-0.203125 -0.1875,0 -0.203125,0.078125 -0.296875,0.4375 -0.421875,1.546875 -0.84375,1.984375 -2.640625,1.984375 h -1.875 L 7.625,-12.6875 c 0.1875,-0.71875 0.21875,-0.78125 1.078125,-0.78125 h 2.765625 c 2.578125,0 2.953125,0.765625 2.953125,2.234375 0,0.125 0,0.578125 -0.0625,1.109375 -0.03125,0.09375 -0.0625,0.359375 -0.0625,0.4375 0,0.171875 0.09375,0.234375 0.21875,0.234375 0.15625,0 0.234375,-0.09375 0.28125,-0.46875 l 0.421875,-3.609375 c 0,-0.0625 0.04687,-0.265625 0.04687,-0.3125 0,-0.21875 -0.1875,-0.21875 -0.5625,-0.21875 H 4.92187 c -0.390625,0 -0.609375,0 -0.609375,0.375 0,0.21875 0.15625,0.21875 0.5,0.21875 1.28125,0 1.28125,0.140625 1.28125,0.375 0,0.09375 -0.015625,0.1875 -0.078125,0.40625 L 3.21875,-1.53125 C 3.03125,-0.8125 3,-0.59375 1.546875,-0.59375 c -0.390625,0 -0.59375,0 -0.59375,0.359375 C 0.953125,0 1.140625,0 1.265625,0 1.65625,0 2.0625,-0.046875 2.453125,-0.046875 h 2.6875 C 5.59375,-0.046875 6.09375,0 6.546875,0 c 0.1875,0 0.4375,0 0.4375,-0.375 0,-0.21875 -0.125,-0.21875 -0.578125,-0.21875 -1.640625,0 -1.671875,-0.15625 -1.671875,-0.453125 0,-0.109375 0.03125,-0.28125 0.078125,-0.421875 z m 0,0"
             id="path15" />
        </g>
      </g>
      <g
         fill="#000000"
         fill-opacity="1"
         id="g19"
         transform="matrix(0.352778,0,0,0.352778,-1.03933,-0.700484)">
        <g
           id="g18"
           transform="translate(15.089,25.042)">
          <path
             d="m 2.25,-1.0625 c -0.125,0.5 -0.15625,0.640625 -1.15625,0.640625 -0.28125,0 -0.421875,0 -0.421875,0.265625 C 0.671875,0 0.765625,0 1.046875,0 H 5.59375 c 2.890625,0 5.71875,-3 5.71875,-6.203125 0,-2.0625 -1.234375,-3.59375 -3.28125,-3.59375 H 3.421875 c -0.265625,0 -0.390625,0 -0.390625,0.265625 0,0.15625 0.125,0.15625 0.34375,0.15625 0.875,0 0.875,0.109375 0.875,0.265625 0,0.03125 0,0.109375 -0.0625,0.328125 z m 3.03125,-7.765625 c 0.125,-0.53125 0.1875,-0.546875 0.75,-0.546875 h 1.578125 c 1.34375,0 2.578125,0.71875 2.578125,2.703125 0,0.71875 -0.296875,3.21875 -1.6875,4.796875 -0.390625,0.46875 -1.484375,1.453125 -3.140625,1.453125 h -1.625 c -0.203125,0 -0.234375,0 -0.328125,-0.015625 -0.15625,0 -0.171875,-0.03125 -0.171875,-0.15625 0,-0.09375 0.03125,-0.1875 0.0625,-0.3125 z m 0,0"
             id="path17" />
        </g>
      </g>
    </g>
  </g>
</svg>
