<?xml version="1.0" encoding="UTF-8" standalone="no"?>
<!-- Created with Inkscape (http://www.inkscape.org/) -->

<svg
   width="114.3777mm"
   height="103.01211mm"
   viewBox="0 0 114.3777 103.01211"
   version="1.1"
   id="svg1"
   inkscape:version="1.3.2 (091e20e, 2023-11-25, custom)"
   sodipodi:docname="Forças_7.svg"
   inkscape:export-filename="Forças_7.png"
   inkscape:export-xdpi="300"
   inkscape:export-ydpi="300"
   xmlns:inkscape="http://www.inkscape.org/namespaces/inkscape"
   xmlns:sodipodi="http://sodipodi.sourceforge.net/DTD/sodipodi-0.dtd"
   xmlns="http://www.w3.org/2000/svg"
   xmlns:svg="http://www.w3.org/2000/svg">
  <sodipodi:namedview
     id="namedview1"
     pagecolor="#ffffff"
     bordercolor="#000000"
     borderopacity="0.25"
     inkscape:showpageshadow="2"
     inkscape:pageopacity="0.0"
     inkscape:pagecheckerboard="0"
     inkscape:deskcolor="#d1d1d1"
     inkscape:document-units="mm"
     inkscape:zoom="1.4485269"
     inkscape:cx="223.67551"
     inkscape:cy="231.61461"
     inkscape:window-width="1920"
     inkscape:window-height="1009"
     inkscape:window-x="-8"
     inkscape:window-y="-8"
     inkscape:window-maximized="1"
     inkscape:current-layer="layer1"
     inkscape:export-bgcolor="#ffffffff" />
  <defs
     id="defs1">
    <marker
       style="overflow:visible"
       id="Triangle"
       refX="0"
       refY="0"
       orient="auto-start-reverse"
       inkscape:stockid="Triangle arrow"
       markerWidth="1"
       markerHeight="1"
       viewBox="0 0 1 1"
       inkscape:isstock="true"
       inkscape:collect="always"
       preserveAspectRatio="xMidYMid">
      <path
         transform="scale(0.5)"
         style="fill:context-stroke;fill-rule:evenodd;stroke:context-stroke;stroke-width:1pt"
         d="M 5.77,0 -2.88,5 V -5 Z"
         id="path135" />
    </marker>
  </defs>
  <g
     inkscape:label="Camada 1"
     inkscape:groupmode="layer"
     id="layer1"
     transform="translate(-43.820487,-66.510365)">
    <path
       id="rect1"
       style="fill:none;stroke:#1a1a1a;stroke-width:0.765;stroke-dasharray:none"
       d="M 44.202987,86.944564 V 169.13997 H 157.81569 V 86.944564 h -5.11442 V 164.75332 H 49.682756 V 86.944564 Z" />
    <rect
       style="fill:#ffffff;stroke:#000000;stroke-width:0.765;stroke-dasharray:none"
       id="rect5"
       width="26.089891"
       height="48.563362"
       x="86.836639"
       y="88.614838"
       ry="24.281681"
       rx="0" />
    <path
       style="fill:#0000ff;stroke:#0000ff;stroke-width:0.765;stroke-dasharray:none"
       d="M 49.854942,111.33409 H 152.66461"
       id="path2" />
    <path
       style="fill:#0000ff;stroke:#0000ff;stroke-width:0.765;stroke-dasharray:none"
       d="m 128.64125,116.75872 h 21.18189"
       id="path3" />
    <path
       style="fill:#0000ff;stroke:#0000ff;stroke-width:0.765;stroke-dasharray:none"
       d="m 133.29093,120.63346 h 12.91579"
       id="path4" />
    <path
       style="fill:#0000ff;stroke:#0000ff;stroke-width:0.765;stroke-dasharray:none"
       d="m 136.64903,124.76651 h 6.97453"
       id="path5" />
    <rect
       style="opacity:0.105033;fill:#00ffff;stroke:#000000;stroke-width:0.765;stroke-dasharray:none"
       id="rect6"
       width="103.2011"
       height="52.605167"
       x="49.682659"
       y="111.78598"
       ry="0" />
    <path
       style="opacity:1;fill:#00ffff;stroke:#000000;stroke-width:0.765;stroke-dasharray:none;marker-end:url(#Triangle)"
       d="M 99.827314,123.65867 V 69.226937"
       id="path7" />
    <g
       inkscape:label=""
       transform="translate(103.4805,68.222575)"
       id="g8">
      <g
         fill="#000000"
         fill-opacity="1"
         id="g6"
         transform="matrix(0.352778,0,0,0.352778,-1.03933,-0.700837)">
        <g
           id="use5"
           transform="translate(15.067,16.721001)">
          <path
             d="m 11.046875,-12.328125 c -0.25,0.21875 -1.015625,0.953125 -1.015625,1.234375 0,0.203125 0.1875,0.390625 0.40625,0.390625 0.1875,0 0.265625,-0.125 0.40625,-0.328125 0.5,-0.625 1.046875,-1.015625 1.53125,-1.28125 0.203125,-0.125 0.34375,-0.1875 0.34375,-0.40625 0,-0.1875 -0.15625,-0.296875 -0.28125,-0.390625 -0.578125,-0.40625 -0.71875,-0.953125 -0.78125,-1.203125 -0.0625,-0.171875 -0.125,-0.421875 -0.421875,-0.421875 -0.125,0 -0.375,0.09375 -0.375,0.40625 0,0.171875 0.125,0.671875 0.515625,1.234375 H 4.4375 c -0.34375,0 -0.703125,0 -0.703125,0.390625 0,0.375 0.375,0.375 0.703125,0.375 z m 0,0"
             id="path9" />
        </g>
      </g>
      <g
         fill="#000000"
         fill-opacity="1"
         id="g7"
         transform="matrix(0.352778,0,0,0.352778,-1.03933,-0.700837)">
        <g
           id="use6"
           transform="translate(1.993,21.944)">
          <path
             d="M 6.140625,-6.734375 H 8.125 c 1.5625,0 1.6875,0.359375 1.6875,0.953125 0,0.265625 -0.046875,0.5625 -0.140625,1.015625 -0.046875,0.078125 -0.0625,0.1875 -0.0625,0.21875 0,0.140625 0.078125,0.234375 0.21875,0.234375 0.171875,0 0.1875,-0.09375 0.265625,-0.421875 l 1.203125,-4.8125 c 0,-0.078125 -0.0625,-0.203125 -0.203125,-0.203125 -0.1875,0 -0.203125,0.078125 -0.296875,0.4375 -0.421875,1.546875 -0.84375,1.984375 -2.640625,1.984375 h -1.875 L 7.625,-12.6875 c 0.1875,-0.71875 0.21875,-0.78125 1.078125,-0.78125 h 2.765625 c 2.578125,0 2.953125,0.765625 2.953125,2.234375 0,0.125 0,0.578125 -0.0625,1.109375 -0.03125,0.09375 -0.0625,0.359375 -0.0625,0.4375 0,0.171875 0.09375,0.234375 0.21875,0.234375 0.15625,0 0.234375,-0.09375 0.28125,-0.46875 l 0.421875,-3.609375 c 0,-0.0625 0.04687,-0.265625 0.04687,-0.3125 0,-0.21875 -0.1875,-0.21875 -0.5625,-0.21875 H 4.92187 c -0.390625,0 -0.609375,0 -0.609375,0.375 0,0.21875 0.15625,0.21875 0.5,0.21875 1.28125,0 1.28125,0.140625 1.28125,0.375 0,0.09375 -0.015625,0.1875 -0.078125,0.40625 L 3.21875,-1.53125 C 3.03125,-0.8125 3,-0.59375 1.546875,-0.59375 c -0.390625,0 -0.59375,0 -0.59375,0.359375 C 0.953125,0 1.140625,0 1.265625,0 1.65625,0 2.0625,-0.046875 2.453125,-0.046875 h 2.6875 C 5.59375,-0.046875 6.09375,0 6.546875,0 c 0.1875,0 0.4375,0 0.4375,-0.375 0,-0.21875 -0.125,-0.21875 -0.578125,-0.21875 -1.640625,0 -1.671875,-0.15625 -1.671875,-0.453125 0,-0.109375 0.03125,-0.28125 0.078125,-0.421875 z m 0,0"
             id="path10" />
        </g>
      </g>
      <g
         fill="#000000"
         fill-opacity="1"
         id="g9"
         transform="matrix(0.352778,0,0,0.352778,-1.03933,-0.700837)">
        <g
           id="use7"
           transform="translate(15.089,25.042999)">
          <path
             d="m 2.5625,-3.328125 c 0.390625,0 1.375,-0.03125 2.0625,-0.28125 1.078125,-0.421875 1.1875,-1.25 1.1875,-1.515625 0,-0.625 -0.546875,-1.203125 -1.5,-1.203125 -1.5,0 -3.671875,1.359375 -3.671875,3.921875 0,1.5 0.859375,2.546875 2.171875,2.546875 C 4.765625,0.140625 6,-1.375 6,-1.5625 6,-1.65625 5.90625,-1.71875 5.859375,-1.71875 c -0.046875,0 -0.0625,0.015625 -0.1875,0.140625 -0.921875,1.21875 -2.28125,1.4375 -2.828125,1.4375 -0.828125,0 -1.25,-0.640625 -1.25,-1.703125 0,-0.203125 0,-0.5625 0.21875,-1.484375 z M 1.875,-3.609375 C 2.5,-5.828125 3.859375,-6.03125 4.3125,-6.03125 c 0.640625,0 1.0625,0.359375 1.0625,0.90625 0,1.515625 -2.296875,1.515625 -2.890625,1.515625 z m 0,0"
             id="path11" />
        </g>
        <g
           id="use8"
           transform="translate(21.599306,25.042999)">
          <path
             d="M 2.953125,-4.203125 C 2.984375,-4.28125 3.34375,-5 3.875,-5.46875 c 0.375,-0.34375 0.859375,-0.5625 1.421875,-0.5625 0.5625,0 0.765625,0.421875 0.765625,1 0,0.078125 0,0.375 -0.171875,1.046875 l -0.359375,1.46875 c -0.109375,0.4375 -0.375,1.5 -0.40625,1.65625 -0.0625,0.21875 -0.140625,0.59375 -0.140625,0.640625 0,0.203125 0.15625,0.359375 0.359375,0.359375 0.4375,0 0.515625,-0.328125 0.640625,-0.84375 L 6.84375,-4.125 C 6.875,-4.25 7.609375,-6.03125 9.1875,-6.03125 c 0.578125,0 0.78125,0.421875 0.78125,1 0,0.796875 -0.5625,2.359375 -0.875,3.21875 -0.125,0.34375 -0.203125,0.53125 -0.203125,0.796875 0,0.640625 0.453125,1.15625 1.140625,1.15625 1.328125,0 1.828125,-2.109375 1.828125,-2.1875 0,-0.078125 -0.04687,-0.140625 -0.140625,-0.140625 -0.125,0 -0.140625,0.046875 -0.21875,0.296875 -0.328125,1.140625 -0.859375,1.75 -1.4375,1.75 -0.140625,0 -0.359375,-0.015625 -0.359375,-0.46875 0,-0.375 0.171875,-0.84375 0.21875,-1 0.265625,-0.6875 0.90625,-2.375 0.90625,-3.203125 0,-0.875 -0.5,-1.515625 -1.59375,-1.515625 -0.953125,0 -1.734375,0.546875 -2.3125,1.390625 -0.03125,-0.765625 -0.515625,-1.390625 -1.59375,-1.390625 -1.265625,0 -1.9375,0.90625 -2.203125,1.265625 C 3.078125,-5.875 2.5,-6.328125 1.859375,-6.328125 c -0.40625,0 -0.734375,0.203125 -1.015625,0.75 -0.25,0.515625 -0.453125,1.390625 -0.453125,1.453125 0,0.046875 0.046875,0.125 0.15625,0.125 0.109375,0 0.125,-0.015625 0.21875,-0.34375 0.203125,-0.84375 0.484375,-1.6875 1.0625,-1.6875 0.328125,0 0.4375,0.21875 0.4375,0.65625 0,0.3125 -0.140625,0.875 -0.25,1.3125 L 1.625,-2.515625 c -0.0625,0.28125 -0.21875,0.921875 -0.296875,1.1875 -0.09375,0.359375 -0.25,1.046875 -0.25,1.109375 0,0.203125 0.15625,0.359375 0.375,0.359375 0.171875,0 0.375,-0.078125 0.484375,-0.296875 0.03125,-0.078125 0.15625,-0.578125 0.234375,-0.859375 l 0.3125,-1.296875 z m 0,0"
             id="path12" />
        </g>
        <g
           id="use9"
           transform="translate(33.886826,25.042999)">
          <path
             d="M 0.609375,1.828125 C 0.515625,2.25 0.453125,2.359375 -0.125,2.359375 c -0.171875,0 -0.3125,0 -0.3125,0.28125 0,0.03125 0,0.140625 0.171875,0.140625 0.171875,0 0.375,-0.03125 0.5625,-0.03125 h 0.625 c 0.296875,0 1.03125,0.03125 1.328125,0.03125 0.09375,0 0.265625,0 0.265625,-0.25 0,-0.171875 -0.109375,-0.171875 -0.34375,-0.171875 C 1.5,2.359375 1.46875,2.265625 1.46875,2.15625 c 0,-0.171875 0.640625,-2.640625 0.71875,-2.96875 0.171875,0.390625 0.546875,0.953125 1.296875,0.953125 1.625,0 3.375,-2.109375 3.375,-4.21875 0,-1.3125 -0.75,-2.25 -1.828125,-2.25 -0.921875,0 -1.6875,0.890625 -1.84375,1.09375 -0.125,-0.71875 -0.671875,-1.09375 -1.25,-1.09375 -0.421875,0 -0.75,0.203125 -1.015625,0.75 C 0.65625,-5.0625 0.453125,-4.1875 0.453125,-4.125 c 0,0.046875 0.0625,0.125 0.15625,0.125 0.125,0 0.140625,-0.015625 0.21875,-0.34375 0.21875,-0.84375 0.484375,-1.6875 1.0625,-1.6875 0.328125,0 0.453125,0.21875 0.453125,0.65625 0,0.34375 -0.046875,0.484375 -0.109375,0.734375 z M 3.09375,-4.46875 C 3.203125,-4.875 3.59375,-5.296875 3.828125,-5.5 3.984375,-5.640625 4.453125,-6.03125 5,-6.03125 c 0.640625,0 0.921875,0.625 0.921875,1.375 0,0.6875 -0.40625,2.296875 -0.765625,3.046875 -0.34375,0.78125 -1.015625,1.46875 -1.671875,1.46875 -0.96875,0 -1.125,-1.234375 -1.125,-1.296875 0,-0.046875 0.015625,-0.15625 0.03125,-0.21875 z m 0,0"
             id="path13" />
        </g>
      </g>
    </g>
    <g
       inkscape:label=""
       transform="translate(72.063574,122.83697)"
       id="g18">
      <g
         fill="#000000"
         fill-opacity="1"
         id="g5"
         transform="matrix(0.352778,0,0,0.352778,-1.09445,-0.706481)">
        <g
           id="use4"
           transform="translate(1.993,16.112)">
          <path
             d="m 12.78125,-11.8125 c 0.703125,-1.125 1.34375,-1.609375 2.40625,-1.703125 0.203125,-0.01563 0.359375,-0.01563 0.359375,-0.390625 0,-0.07813 -0.03125,-0.203125 -0.21875,-0.203125 -0.375,0 -1.265625,0.04687 -1.640625,0.04687 -0.59375,0 -1.21875,-0.04687 -1.796875,-0.04687 -0.15625,0 -0.359375,0 -0.359375,0.390625 0,0.1875 0.1875,0.203125 0.265625,0.203125 0.765625,0.0625 0.84375,0.4375 0.84375,0.6875 0,0.3125 -0.28125,0.78125 -0.3125,0.8125 L 5.84375,-1.734375 4.40625,-12.875 c 0,-0.59375 1.0625,-0.640625 1.296875,-0.640625 0.3125,0 0.5,0 0.5,-0.390625 0,-0.203125 -0.234375,-0.203125 -0.296875,-0.203125 -0.34375,0 -0.765625,0.04687 -1.109375,0.04687 h -1.15625 c -1.515625,0 -2.125,-0.04687 -2.15625,-0.04687 -0.125,0 -0.375,0 -0.375,0.375 0,0.21875 0.15625,0.21875 0.484375,0.21875 1.046875,0 1.109375,0.1875 1.171875,0.703125 l 1.65625,12.75 c 0.0625,0.4375 0.0625,0.5 0.34375,0.5 0.25,0 0.359375,-0.0625 0.5625,-0.390625 z m 0,0"
             id="path8" />
        </g>
      </g>
      <g
         fill="#000000"
         fill-opacity="1"
         id="g17"
         transform="matrix(0.352778,0,0,0.352778,-1.09445,-0.706481)">
        <g
           id="g14"
           transform="translate(13.787,19.211)">
          <path
             d="m 3.265625,-2.875 c 0.25,0.046875 0.640625,0.140625 0.71875,0.15625 0.1875,0.046875 0.828125,0.28125 0.828125,0.96875 0,0.4375 -0.390625,1.609375 -2.0625,1.609375 -0.296875,0 -1.375,-0.046875 -1.65625,-0.828125 0.5625,0.0625 0.859375,-0.375 0.859375,-0.6875 0,-0.3125 -0.203125,-0.46875 -0.484375,-0.46875 -0.328125,0 -0.734375,0.25 -0.734375,0.890625 0,0.84375 0.859375,1.375 2,1.375 2.1875,0 2.828125,-1.609375 2.828125,-2.34375 0,-0.21875 0,-0.625 -0.453125,-1.078125 C 4.75,-3.625 4.40625,-3.703125 3.625,-3.859375 c -0.390625,-0.078125 -1,-0.21875 -1,-0.859375 0,-0.28125 0.265625,-1.3125 1.625,-1.3125 0.59375,0 1.1875,0.21875 1.328125,0.734375 -0.625,0 -0.65625,0.546875 -0.65625,0.5625 0,0.296875 0.265625,0.390625 0.40625,0.390625 0.1875,0 0.59375,-0.15625 0.59375,-0.765625 0,-0.59375 -0.546875,-1.21875 -1.65625,-1.21875 -1.890625,0 -2.390625,1.484375 -2.390625,2.0625 0,1.09375 1.0625,1.328125 1.390625,1.390625 z m 0,0"
             id="path14" />
        </g>
        <g
           id="g15"
           transform="translate(20.403467,19.211)">
          <path
             d="m 4.890625,-0.828125 c 0.1875,0.796875 0.875,0.96875 1.21875,0.96875 0.453125,0 0.796875,-0.296875 1.03125,-0.78125 0.25,-0.515625 0.4375,-1.375 0.4375,-1.40625 0,-0.078125 -0.0625,-0.140625 -0.140625,-0.140625 -0.140625,0 -0.15625,0.078125 -0.203125,0.296875 -0.265625,0.984375 -0.515625,1.75 -1.09375,1.75 -0.4375,0 -0.4375,-0.46875 -0.4375,-0.65625 0,-0.34375 0.046875,-0.484375 0.1875,-1.078125 C 6,-2.265625 6.09375,-2.65625 6.1875,-3.0625 L 6.765625,-5.390625 C 6.875,-5.75 6.875,-5.78125 6.875,-5.828125 6.875,-6.03125 6.703125,-6.1875 6.484375,-6.1875 6.0625,-6.1875 5.96875,-5.828125 5.875,-5.46875 c -0.140625,0.5625 -0.90625,3.640625 -1.015625,4.15625 -0.015625,0 -0.578125,1.171875 -1.625,1.171875 -0.734375,0 -0.875,-0.640625 -0.875,-1.171875 0,-0.828125 0.390625,-1.96875 0.765625,-2.9375 0.171875,-0.453125 0.25,-0.640625 0.25,-0.921875 0,-0.625 -0.453125,-1.15625 -1.140625,-1.15625 -1.3125,0 -1.84375,2.078125 -1.84375,2.203125 0,0.046875 0.046875,0.125 0.15625,0.125 C 0.671875,-4 0.6875,-4.0625 0.75,-4.265625 1.09375,-5.5 1.65625,-6.03125 2.1875,-6.03125 c 0.15625,0 0.375,0 0.375,0.46875 0,0.375 -0.15625,0.78125 -0.375,1.328125 -0.625,1.703125 -0.703125,2.25 -0.703125,2.6875 0,1.453125 1.109375,1.6875 1.703125,1.6875 0.921875,0 1.421875,-0.625 1.703125,-0.96875 z m 0,0"
             id="path15" />
        </g>
        <g
           id="g16"
           transform="translate(28.398605,19.211)">
          <path
             d="m 3.3125,-9.59375 c 0.015625,-0.0625 0.046875,-0.140625 0.046875,-0.21875 0,-0.140625 -0.140625,-0.140625 -0.171875,-0.140625 -0.015625,0 -0.53125,0.046875 -0.796875,0.0625 -0.234375,0.015625 -0.453125,0.046875 -0.71875,0.0625 -0.34375,0.03125 -0.4375,0.046875 -0.4375,0.296875 0,0.15625 0.140625,0.15625 0.28125,0.15625 C 2.25,-9.375 2.25,-9.25 2.25,-9.109375 c 0,0.09375 -0.109375,0.515625 -0.171875,0.78125 l -0.34375,1.375 C 1.59375,-6.390625 0.78125,-3.125 0.71875,-2.875 c -0.078125,0.359375 -0.078125,0.609375 -0.078125,0.796875 0,1.46875 0.828125,2.21875 1.75,2.21875 1.671875,0 3.390625,-2.140625 3.390625,-4.21875 0,-1.3125 -0.75,-2.25 -1.828125,-2.25 -0.734375,0 -1.421875,0.625 -1.6875,0.90625 z m -0.90625,9.453125 c -0.453125,0 -0.953125,-0.34375 -0.953125,-1.46875 0,-0.46875 0.03125,-0.75 0.296875,-1.75 0.046875,-0.1875 0.265625,-1.09375 0.328125,-1.28125 0.03125,-0.125 0.875,-1.390625 1.859375,-1.390625 0.625,0 0.90625,0.625 0.90625,1.375 0,0.6875 -0.390625,2.296875 -0.75,3.046875 -0.359375,0.78125 -1.03125,1.46875 -1.6875,1.46875 z m 0,0"
             id="path16" />
        </g>
      </g>
    </g>
    <circle
       style="opacity:1;fill:#1a1a1a;stroke:#000000;stroke-width:0.765;stroke-dasharray:none"
       id="path18"
       cx="99.82196"
       cy="123.56734"
       r="1.1872693" />
    <text
       xml:space="preserve"
       style="font-size:4.9389px;font-family:Calibri;-inkscape-font-specification:Calibri;opacity:1;fill:#1a1a1a;stroke:none;stroke-width:0.765;stroke-dasharray:none"
       x="103.10977"
       y="125.30258"
       id="text18"><tspan
         sodipodi:role="line"
         style="stroke:none;stroke-width:0.765"
         x="103.10977"
         y="125.30258"
         id="tspan19" /></text>
    <g
       inkscape:label=""
       transform="translate(101.10097,124.1609)"
       id="g21">
      <g
         fill="#000000"
         fill-opacity="1"
         id="g3"
         transform="matrix(0.352778,0,0,0.352778,-1.06689,-0.551789)">
        <g
           id="use2"
           transform="translate(1.993,16.111)">
          <path
             d="m 15.4375,-14.359375 c 0,-0.1875 -0.15625,-0.1875 -0.1875,-0.1875 -0.04687,0 -0.125,0 -0.296875,0.21875 l -1.421875,1.734375 c -0.71875,-1.25 -1.859375,-1.953125 -3.40625,-1.953125 -4.46875,0 -9.09375,4.53125 -9.09375,9.375 0,3.453125 2.421875,5.609375 5.4375,5.609375 1.65625,0 3.09375,-0.703125 4.296875,-1.71875 1.796875,-1.5 2.328125,-3.515625 2.328125,-3.671875 0,-0.1875 -0.15625,-0.1875 -0.21875,-0.1875 -0.1875,0 -0.21875,0.125 -0.25,0.203125 -0.953125,3.21875 -3.75,4.765625 -5.8125,4.765625 -2.1875,0 -4.078125,-1.390625 -4.078125,-4.328125 0,-0.671875 0.203125,-4.265625 2.53125,-6.96875 1.140625,-1.3125 3.078125,-2.46875 5.046875,-2.46875 2.265625,0 3.28125,1.875 3.28125,3.984375 0,0.53125 -0.0625,0.984375 -0.0625,1.078125 0,0.171875 0.203125,0.171875 0.265625,0.171875 0.234375,0 0.25,-0.015625 0.328125,-0.390625 z m 0,0"
             id="path20" />
        </g>
      </g>
      <g
         fill="#000000"
         fill-opacity="1"
         id="g4"
         transform="matrix(0.352778,0,0,0.352778,-1.06689,-0.551789)">
        <g
           id="use3"
           transform="translate(17.954781,16.111)">
          <path
             d="M 6.140625,-6.734375 H 8.125 c 1.5625,0 1.6875,0.359375 1.6875,0.953125 0,0.265625 -0.046875,0.5625 -0.140625,1.015625 -0.046875,0.078125 -0.0625,0.1875 -0.0625,0.21875 0,0.140625 0.078125,0.234375 0.21875,0.234375 0.171875,0 0.1875,-0.09375 0.265625,-0.421875 l 1.203125,-4.8125 c 0,-0.078125 -0.0625,-0.203125 -0.203125,-0.203125 -0.1875,0 -0.203125,0.078125 -0.296875,0.4375 -0.421875,1.546875 -0.84375,1.984375 -2.640625,1.984375 h -1.875 L 7.625,-12.6875 c 0.1875,-0.71875 0.21875,-0.78125 1.078125,-0.78125 h 2.765625 c 2.578125,0 2.953125,0.765625 2.953125,2.234375 0,0.125 0,0.578125 -0.0625,1.109375 -0.03125,0.09375 -0.0625,0.359375 -0.0625,0.4375 0,0.171875 0.09375,0.234375 0.21875,0.234375 0.15625,0 0.234375,-0.09375 0.28125,-0.46875 l 0.421875,-3.609375 c 0,-0.0625 0.04687,-0.265625 0.04687,-0.3125 0,-0.21875 -0.1875,-0.21875 -0.5625,-0.21875 H 4.92187 c -0.390625,0 -0.609375,0 -0.609375,0.375 0,0.21875 0.15625,0.21875 0.5,0.21875 1.28125,0 1.28125,0.140625 1.28125,0.375 0,0.09375 -0.015625,0.1875 -0.078125,0.40625 L 3.21875,-1.53125 C 3.03125,-0.8125 3,-0.59375 1.546875,-0.59375 c -0.390625,0 -0.59375,0 -0.59375,0.359375 C 0.953125,0 1.140625,0 1.265625,0 1.65625,0 2.0625,-0.046875 2.453125,-0.046875 h 2.6875 C 5.59375,-0.046875 6.09375,0 6.546875,0 c 0.1875,0 0.4375,0 0.4375,-0.375 0,-0.21875 -0.125,-0.21875 -0.578125,-0.21875 -1.640625,0 -1.671875,-0.15625 -1.671875,-0.453125 0,-0.109375 0.03125,-0.28125 0.078125,-0.421875 z m 0,0"
             id="path21" />
        </g>
      </g>
    </g>
  </g>
</svg>
