<?xml version="1.0" encoding="UTF-8" standalone="no"?>
<!-- Created with Inkscape (http://www.inkscape.org/) -->

<svg
   width="84.443398mm"
   height="69.325989mm"
   viewBox="0 0 84.443398 69.325989"
   version="1.1"
   id="svg1"
   xml:space="preserve"
   inkscape:version="1.3.2 (091e20e, 2023-11-25, custom)"
   sodipodi:docname="Forças_12.svg"
   inkscape:export-filename="Forças_12.png"
   inkscape:export-xdpi="300"
   inkscape:export-ydpi="300"
   xmlns:inkscape="http://www.inkscape.org/namespaces/inkscape"
   xmlns:sodipodi="http://sodipodi.sourceforge.net/DTD/sodipodi-0.dtd"
   xmlns="http://www.w3.org/2000/svg"
   xmlns:svg="http://www.w3.org/2000/svg"><sodipodi:namedview
     id="namedview1"
     pagecolor="#ffffff"
     bordercolor="#000000"
     borderopacity="0.25"
     inkscape:showpageshadow="2"
     inkscape:pageopacity="0.0"
     inkscape:pagecheckerboard="0"
     inkscape:deskcolor="#d1d1d1"
     inkscape:document-units="mm"
     inkscape:zoom="2.0485264"
     inkscape:cx="166.46112"
     inkscape:cy="173.2953"
     inkscape:window-width="1448"
     inkscape:window-height="1032"
     inkscape:window-x="78"
     inkscape:window-y="0"
     inkscape:window-maximized="0"
     inkscape:current-layer="layer1"
     inkscape:export-bgcolor="#ffffffff" /><defs
     id="defs1"><marker
       style="overflow:visible"
       id="marker5"
       refX="0"
       refY="0"
       orient="auto-start-reverse"
       inkscape:stockid="Triangle arrow"
       markerWidth="1"
       markerHeight="1"
       viewBox="0 0 1 1"
       inkscape:isstock="true"
       inkscape:collect="always"
       preserveAspectRatio="xMidYMid"><path
         transform="scale(0.5)"
         style="fill:context-stroke;fill-rule:evenodd;stroke:context-stroke;stroke-width:1pt"
         d="M 5.77,0 -2.88,5 V -5 Z"
         id="path5" /></marker><marker
       style="overflow:visible"
       id="Triangle"
       refX="0"
       refY="0"
       orient="auto-start-reverse"
       inkscape:stockid="Triangle arrow"
       markerWidth="1"
       markerHeight="1"
       viewBox="0 0 1 1"
       inkscape:isstock="true"
       inkscape:collect="always"
       preserveAspectRatio="xMidYMid"><path
         transform="scale(0.5)"
         style="fill:context-stroke;fill-rule:evenodd;stroke:context-stroke;stroke-width:1pt"
         d="M 5.77,0 -2.88,5 V -5 Z"
         id="path135" /></marker><marker
       style="overflow:visible"
       id="marker3774"
       refX="0"
       refY="0"
       orient="auto"
       inkscape:stockid="Arrow1Lstart"
       inkscape:isstock="true"><path
         transform="matrix(0.8,0,0,0.8,10,0)"
         style="fill:#00ff00;fill-opacity:1;fill-rule:evenodd;stroke:#00ff00;stroke-width:1pt;stroke-opacity:1"
         d="M 0,0 5,-5 -12.5,0 5,5 Z"
         id="path3772" /></marker><marker
       style="overflow:visible"
       id="marker3722"
       refX="0"
       refY="0"
       orient="auto"
       inkscape:stockid="Arrow1Lend"
       inkscape:isstock="true"><path
         transform="matrix(-0.8,0,0,-0.8,-10,0)"
         style="fill:#00ff00;fill-opacity:1;fill-rule:evenodd;stroke:#00ff00;stroke-width:1pt;stroke-opacity:1"
         d="M 0,0 5,-5 -12.5,0 5,5 Z"
         id="path3720" /></marker><marker
       style="overflow:visible"
       id="marker3562"
       refX="0"
       refY="0"
       orient="auto"
       inkscape:stockid="Arrow1Lstart"
       inkscape:isstock="true"><path
         transform="matrix(0.8,0,0,0.8,10,0)"
         style="fill:#0000ff;fill-opacity:1;fill-rule:evenodd;stroke:#0000ff;stroke-width:1pt;stroke-opacity:1"
         d="M 0,0 5,-5 -12.5,0 5,5 Z"
         id="path3560" /></marker><marker
       style="overflow:visible"
       id="marker3516"
       refX="0"
       refY="0"
       orient="auto"
       inkscape:stockid="Arrow1Lend"
       inkscape:isstock="true"><path
         transform="matrix(-0.8,0,0,-0.8,-10,0)"
         style="fill:#0000ff;fill-opacity:1;fill-rule:evenodd;stroke:#0000ff;stroke-width:1pt;stroke-opacity:1"
         d="M 0,0 5,-5 -12.5,0 5,5 Z"
         id="path3514" /></marker><marker
       style="overflow:visible"
       id="Arrow1Lstart"
       refX="0"
       refY="0"
       orient="auto"
       inkscape:stockid="Arrow1Lstart"
       inkscape:isstock="true"><path
         transform="matrix(0.8,0,0,0.8,10,0)"
         style="fill:#ff0000;fill-opacity:1;fill-rule:evenodd;stroke:#ff0000;stroke-width:1pt;stroke-opacity:1"
         d="M 0,0 5,-5 -12.5,0 5,5 Z"
         id="path3080" /></marker><marker
       style="overflow:visible"
       id="Arrow1Lend"
       refX="0"
       refY="0"
       orient="auto"
       inkscape:stockid="Arrow1Lend"
       inkscape:isstock="true"><path
         transform="matrix(-0.8,0,0,-0.8,-10,0)"
         style="fill:#ff0000;fill-opacity:1;fill-rule:evenodd;stroke:#ff0000;stroke-width:1pt;stroke-opacity:1"
         d="M 0,0 5,-5 -12.5,0 5,5 Z"
         id="path3083" /></marker><marker
       style="overflow:visible"
       id="marker2416"
       refX="0"
       refY="0"
       orient="auto"
       inkscape:stockid="Arrow1Lend"
       inkscape:isstock="true"
       viewBox="0 0 17.773854 10.156488"
       markerWidth="17.773853"
       markerHeight="10.156488"
       preserveAspectRatio="xMidYMid"><path
         transform="matrix(-0.8,0,0,-0.8,-10,0)"
         style="fill:#ff0000;fill-opacity:1;fill-rule:evenodd;stroke:#ff0000;stroke-width:1pt;stroke-opacity:1"
         d="M 0,0 5,-5 -12.5,0 5,5 Z"
         id="path2414" /></marker><filter
       inkscape:collect="always"
       style="color-interpolation-filters:sRGB"
       id="filter2408"
       x="-0.19294295"
       width="1.3858859"
       y="-0.19294295"
       height="1.3858859"><feGaussianBlur
         inkscape:collect="always"
         stdDeviation="0.52308203"
         id="feGaussianBlur2410" /></filter></defs><g
     inkscape:label="Camada 1"
     inkscape:groupmode="layer"
     id="layer1"
     transform="translate(-54.781286,-109.94554)"><g
       inkscape:label="Layer 1"
       id="layer1-5"
       transform="rotate(180,109.11366,147.65687)"><path
         id="rect24"
         style="fill:#ffffff;stroke:#000000;stroke-width:2.64567;stroke-miterlimit:4;stroke-dasharray:none"
         d="M 59.556641,1.3222656 A 20.13322,21.885369 0 0 0 39.509766,21.322266 h -0.08789 v 1.886718 41.884766 h 40.26953 V 23.208984 21.322266 h -0.08984 A 20.13322,21.885369 0 0 0 59.558594,1.3222656 Z m 0.375,10.1542964 a 10.370582,10.370582 0 0 1 0.04297,0 A 10.370582,10.370582 0 0 1 70.345703,21.847656 10.370582,10.370582 0 0 1 59.974609,32.216797 10.370582,10.370582 0 0 1 49.603516,21.847656 10.370582,10.370582 0 0 1 59.931641,11.476562 Z"
         transform="matrix(0.26458333,0,0,0.26458333,131.37539,162.36989)" /><g
         id="g88"
         transform="translate(-5.2409363,43.353553)"
         style="stroke-width:0.7;stroke-miterlimit:4;stroke-dasharray:none"><path
           style="fill:none;stroke:#000000;stroke-width:0.7;stroke-linecap:butt;stroke-linejoin:miter;stroke-miterlimit:4;stroke-dasharray:none;stroke-opacity:1"
           d="m 136.91944,136.22022 h 31.76753"
           id="path74"
           inkscape:connector-curvature="0" /><path
           style="fill:none;stroke:#000000;stroke-width:0.7;stroke-linecap:butt;stroke-linejoin:miter;stroke-miterlimit:4;stroke-dasharray:none;stroke-opacity:1"
           d="m 136.91944,136.22022 3.24438,5.61943"
           id="path76"
           inkscape:connector-curvature="0" /><path
           inkscape:connector-curvature="0"
           id="path78"
           d="m 142.21114,136.22022 3.24438,5.61943"
           style="fill:none;stroke:#000000;stroke-width:0.7;stroke-linecap:butt;stroke-linejoin:miter;stroke-miterlimit:4;stroke-dasharray:none;stroke-opacity:1" /><path
           style="fill:none;stroke:#000000;stroke-width:0.7;stroke-linecap:butt;stroke-linejoin:miter;stroke-miterlimit:4;stroke-dasharray:none;stroke-opacity:1"
           d="m 147.50284,136.22022 3.24438,5.61943"
           id="path80"
           inkscape:connector-curvature="0" /><path
           inkscape:connector-curvature="0"
           id="path82"
           d="m 152.79454,136.22022 3.24438,5.61943"
           style="fill:none;stroke:#000000;stroke-width:0.7;stroke-linecap:butt;stroke-linejoin:miter;stroke-miterlimit:4;stroke-dasharray:none;stroke-opacity:1" /><path
           style="fill:none;stroke:#000000;stroke-width:0.7;stroke-linecap:butt;stroke-linejoin:miter;stroke-miterlimit:4;stroke-dasharray:none;stroke-opacity:1"
           d="m 158.08624,136.22022 3.24438,5.61943"
           id="path84"
           inkscape:connector-curvature="0" /><path
           inkscape:connector-curvature="0"
           id="path86"
           d="m 163.37794,136.22022 3.24438,5.61943"
           style="fill:none;stroke:#000000;stroke-width:0.7;stroke-linecap:butt;stroke-linejoin:miter;stroke-miterlimit:4;stroke-dasharray:none;stroke-opacity:1" /></g></g><rect
       style="opacity:1;fill:#b3b3b3;fill-opacity:1;stroke:#000000;stroke-width:0.765"
       id="rect1"
       width="41.272797"
       height="1.9785975"
       x="147.3293"
       y="-18.028231"
       transform="rotate(67.600959)"
       inkscape:transform-center-x="-14.274503"
       inkscape:transform-center-y="34.624764"
       ry="0" /><g
       id="g916"
       transform="rotate(-22.138451,261.18708,263.45721)"><circle
         style="opacity:1;mix-blend-mode:normal;fill:#000000;stroke:#000000;stroke-width:0.170779"
         id="path1649"
         cx="135.97427"
         cy="113.54485"
         r="7.4015002" /><circle
         style="opacity:1;fill:#ffffff;stroke:#000000;stroke-width:0.118401;filter:url(#filter2408)"
         id="path1651"
         cx="138.57416"
         cy="110.38313"
         r="3.4066997" /></g><g
       id="g3"
       transform="rotate(-22.138451,272.41881,179.76541)"><circle
         style="opacity:1;mix-blend-mode:normal;fill:#000000;stroke:#000000;stroke-width:0.170779"
         id="circle2"
         cx="135.97427"
         cy="113.54485"
         r="7.4015002" /><circle
         style="opacity:1;fill:#ffffff;stroke:#000000;stroke-width:0.118401;filter:url(#filter2408)"
         id="circle3"
         cx="138.57416"
         cy="110.38313"
         r="3.4066997" /></g><path
       style="opacity:1;fill:#b3b3b3;fill-opacity:1;stroke:#ff0000;stroke-width:0.765;marker-end:url(#Triangle)"
       d="m 119.34188,163.25556 -6.71621,-15.24063"
       id="path3" /><path
       style="opacity:1;fill:#b3b3b3;fill-opacity:1;stroke:#ff0000;stroke-width:0.765;marker-end:url(#marker5)"
       d="m 119.08357,162.86809 10.84926,-4.26221"
       id="path4" /><g
       inkscape:label=""
       transform="translate(113.5298,139.03848)"
       id="g9"><g
   fill="#000000"
   fill-opacity="1"
   id="g4"
   transform="matrix(0.352778,0,0,0.352778,-1.03933,-0.700484)">
    <g
   id="use3"
   transform="translate(7.2350001,16.719999)">
      <path
   d="m 11.046875,-12.328125 c -0.25,0.21875 -1.015625,0.953125 -1.015625,1.234375 0,0.203125 0.1875,0.390625 0.40625,0.390625 0.1875,0 0.265625,-0.125 0.40625,-0.328125 0.5,-0.625 1.046875,-1.015625 1.53125,-1.28125 0.203125,-0.125 0.34375,-0.1875 0.34375,-0.40625 0,-0.1875 -0.15625,-0.296875 -0.28125,-0.390625 -0.578125,-0.40625 -0.71875,-0.953125 -0.78125,-1.203125 -0.0625,-0.171875 -0.125,-0.421875 -0.421875,-0.421875 -0.125,0 -0.375,0.09375 -0.375,0.40625 0,0.171875 0.125,0.671875 0.515625,1.234375 H 4.4375 c -0.34375,0 -0.703125,0 -0.703125,0.390625 0,0.375 0.375,0.375 0.703125,0.375 z m 0,0"
   id="path6" />
    </g>
  </g>
  <g
   fill="#000000"
   fill-opacity="1"
   id="g5"
   transform="matrix(0.352778,0,0,0.352778,-1.03933,-0.700484)">
    <g
   id="use4"
   transform="translate(1.993,21.943001)">
      <path
   d="M 6.140625,-6.734375 H 8.125 c 1.5625,0 1.6875,0.359375 1.6875,0.953125 0,0.265625 -0.046875,0.5625 -0.140625,1.015625 -0.046875,0.078125 -0.0625,0.1875 -0.0625,0.21875 0,0.140625 0.078125,0.234375 0.21875,0.234375 0.171875,0 0.1875,-0.09375 0.265625,-0.421875 l 1.203125,-4.8125 c 0,-0.078125 -0.0625,-0.203125 -0.203125,-0.203125 -0.1875,0 -0.203125,0.078125 -0.296875,0.4375 -0.421875,1.546875 -0.84375,1.984375 -2.640625,1.984375 h -1.875 L 7.625,-12.6875 c 0.1875,-0.71875 0.21875,-0.78125 1.078125,-0.78125 h 2.765625 c 2.578125,0 2.953125,0.765625 2.953125,2.234375 0,0.125 0,0.578125 -0.0625,1.109375 -0.03125,0.09375 -0.0625,0.359375 -0.0625,0.4375 0,0.171875 0.09375,0.234375 0.21875,0.234375 0.15625,0 0.234375,-0.09375 0.28125,-0.46875 l 0.421875,-3.609375 c 0,-0.0625 0.04687,-0.265625 0.04687,-0.3125 0,-0.21875 -0.1875,-0.21875 -0.5625,-0.21875 H 4.92187 c -0.390625,0 -0.609375,0 -0.609375,0.375 0,0.21875 0.15625,0.21875 0.5,0.21875 1.28125,0 1.28125,0.140625 1.28125,0.375 0,0.09375 -0.015625,0.1875 -0.078125,0.40625 L 3.21875,-1.53125 C 3.03125,-0.8125 3,-0.59375 1.546875,-0.59375 c -0.390625,0 -0.59375,0 -0.59375,0.359375 C 0.953125,0 1.140625,0 1.265625,0 1.65625,0 2.0625,-0.046875 2.453125,-0.046875 h 2.6875 C 5.59375,-0.046875 6.09375,0 6.546875,0 c 0.1875,0 0.4375,0 0.4375,-0.375 0,-0.21875 -0.125,-0.21875 -0.578125,-0.21875 -1.640625,0 -1.671875,-0.15625 -1.671875,-0.453125 0,-0.109375 0.03125,-0.28125 0.078125,-0.421875 z m 0,0"
   id="path7" />
    </g>
  </g>
  <g
   fill="#000000"
   fill-opacity="1"
   id="g6"
   transform="matrix(0.352778,0,0,0.352778,-1.03933,-0.700484)">
    <g
   id="use5"
   transform="translate(15.089,25.042)">
      <path
   d="M 5.984375,-8.75 C 6.0625,-9.09375 6.09375,-9.21875 6.3125,-9.28125 6.421875,-9.3125 6.90625,-9.3125 7.203125,-9.3125 c 1.4375,0 2.109375,0.0625 2.109375,1.171875 0,0.21875 -0.0625,0.765625 -0.140625,1.296875 L 9.15625,-6.671875 c 0,0.0625 0.046875,0.140625 0.140625,0.140625 0.140625,0 0.140625,-0.0625 0.1875,-0.296875 l 0.40625,-2.53125 C 9.921875,-9.5 9.921875,-9.53125 9.921875,-9.5625 c 0,-0.15625 -0.078125,-0.15625 -0.375,-0.15625 h -7.84375 c -0.328125,0 -0.34375,0.015625 -0.421875,0.265625 L 0.40625,-6.875 c -0.015625,0.03125 -0.0625,0.1875 -0.0625,0.203125 0,0.078125 0.0625,0.140625 0.140625,0.140625 0.125,0 0.140625,-0.046875 0.203125,-0.234375 C 1.296875,-8.5 1.59375,-9.3125 3.5,-9.3125 h 0.953125 c 0.359375,0 0.5,0 0.5,0.15625 0,0.046875 0,0.078125 -0.078125,0.328125 L 2.953125,-1.125 c -0.140625,0.5625 -0.171875,0.703125 -1.6875,0.703125 -0.359375,0 -0.46875,0 -0.46875,0.28125 C 0.796875,0 0.96875,0 1.03125,0 1.390625,0 1.765625,-0.03125 2.125,-0.03125 H 4.359375 C 4.71875,-0.03125 5.109375,0 5.46875,0 5.625,0 5.765625,0 5.765625,-0.265625 c 0,-0.15625 -0.09375,-0.15625 -0.46875,-0.15625 C 4,-0.421875 4,-0.546875 4,-0.765625 4,-0.78125 4,-0.875 4.0625,-1.109375 Z m 0,0"
   id="path8" />
    </g>
  </g>
</g><g
       inkscape:label=""
       transform="translate(129.02874,148.72532)"
       id="g16"><g
   fill="#000000"
   fill-opacity="1"
   id="g14"
   transform="matrix(0.352778,0,0,0.352778,-1.03933,-0.700484)">
    <g
   id="g13"
   transform="translate(10.87,16.719999)">
      <path
   d="m 11.046875,-12.328125 c -0.25,0.21875 -1.015625,0.953125 -1.015625,1.234375 0,0.203125 0.1875,0.390625 0.40625,0.390625 0.1875,0 0.265625,-0.125 0.40625,-0.328125 0.5,-0.625 1.046875,-1.015625 1.53125,-1.28125 0.203125,-0.125 0.34375,-0.1875 0.34375,-0.40625 0,-0.1875 -0.15625,-0.296875 -0.28125,-0.390625 -0.578125,-0.40625 -0.71875,-0.953125 -0.78125,-1.203125 -0.0625,-0.171875 -0.125,-0.421875 -0.421875,-0.421875 -0.125,0 -0.375,0.09375 -0.375,0.40625 0,0.171875 0.125,0.671875 0.515625,1.234375 H 4.4375 c -0.34375,0 -0.703125,0 -0.703125,0.390625 0,0.375 0.375,0.375 0.703125,0.375 z m 0,0"
   id="path9" />
    </g>
  </g>
  <g
   fill="#000000"
   fill-opacity="1"
   id="g7"
   transform="matrix(0.352778,0,0,0.352778,-1.03933,-0.700484)">
    <g
   id="use6"
   transform="translate(1.993,21.943001)">
      <path
   d="M 6.140625,-6.734375 H 8.125 c 1.5625,0 1.6875,0.359375 1.6875,0.953125 0,0.265625 -0.046875,0.5625 -0.140625,1.015625 -0.046875,0.078125 -0.0625,0.1875 -0.0625,0.21875 0,0.140625 0.078125,0.234375 0.21875,0.234375 0.171875,0 0.1875,-0.09375 0.265625,-0.421875 l 1.203125,-4.8125 c 0,-0.078125 -0.0625,-0.203125 -0.203125,-0.203125 -0.1875,0 -0.203125,0.078125 -0.296875,0.4375 -0.421875,1.546875 -0.84375,1.984375 -2.640625,1.984375 h -1.875 L 7.625,-12.6875 c 0.1875,-0.71875 0.21875,-0.78125 1.078125,-0.78125 h 2.765625 c 2.578125,0 2.953125,0.765625 2.953125,2.234375 0,0.125 0,0.578125 -0.0625,1.109375 -0.03125,0.09375 -0.0625,0.359375 -0.0625,0.4375 0,0.171875 0.09375,0.234375 0.21875,0.234375 0.15625,0 0.234375,-0.09375 0.28125,-0.46875 l 0.421875,-3.609375 c 0,-0.0625 0.04687,-0.265625 0.04687,-0.3125 0,-0.21875 -0.1875,-0.21875 -0.5625,-0.21875 H 4.92187 c -0.390625,0 -0.609375,0 -0.609375,0.375 0,0.21875 0.15625,0.21875 0.5,0.21875 1.28125,0 1.28125,0.140625 1.28125,0.375 0,0.09375 -0.015625,0.1875 -0.078125,0.40625 L 3.21875,-1.53125 C 3.03125,-0.8125 3,-0.59375 1.546875,-0.59375 c -0.390625,0 -0.59375,0 -0.59375,0.359375 C 0.953125,0 1.140625,0 1.265625,0 1.65625,0 2.0625,-0.046875 2.453125,-0.046875 h 2.6875 C 5.59375,-0.046875 6.09375,0 6.546875,0 c 0.1875,0 0.4375,0 0.4375,-0.375 0,-0.21875 -0.125,-0.21875 -0.578125,-0.21875 -1.640625,0 -1.671875,-0.15625 -1.671875,-0.453125 0,-0.109375 0.03125,-0.28125 0.078125,-0.421875 z m 0,0"
   id="path10" />
    </g>
  </g>
  <g
   fill="#000000"
   fill-opacity="1"
   id="g15"
   transform="matrix(0.352778,0,0,0.352778,-1.03933,-0.700484)">
    <g
   id="use7"
   transform="translate(15.089,25.042)">
      <path
   d="m 5.609375,-5.390625 c -0.28125,0 -0.40625,0 -0.609375,0.171875 -0.078125,0.0625 -0.234375,0.28125 -0.234375,0.515625 0,0.28125 0.21875,0.453125 0.484375,0.453125 0.34375,0 0.734375,-0.28125 0.734375,-0.859375 0,-0.6875 -0.65625,-1.21875 -1.65625,-1.21875 -1.875,0 -3.75,2.046875 -3.75,4.09375 0,1.25 0.765625,2.375 2.234375,2.375 C 4.765625,0.140625 6,-1.375 6,-1.5625 6,-1.65625 5.90625,-1.71875 5.859375,-1.71875 c -0.046875,0 -0.0625,0.015625 -0.1875,0.140625 -0.921875,1.21875 -2.28125,1.4375 -2.828125,1.4375 -1,0 -1.3125,-0.859375 -1.3125,-1.578125 0,-0.5 0.25,-1.890625 0.765625,-2.875 0.375,-0.671875 1.140625,-1.4375 2.046875,-1.4375 0.1875,0 0.984375,0.015625 1.265625,0.640625 z m 0,0"
   id="path11" />
    </g>
    <g
   id="use8"
   transform="translate(21.134489,25.042)">
      <path
   d="M 4.0625,-2.046875 C 4.0625,-2.125 4,-2.1875 3.921875,-2.1875 c -0.140625,0 -0.15625,0.046875 -0.21875,0.296875 -0.375,1.296875 -0.96875,1.75 -1.4375,1.75 -0.171875,0 -0.375,-0.046875 -0.375,-0.46875 0,-0.390625 0.171875,-0.828125 0.328125,-1.25 L 3.234375,-4.53125 C 3.265625,-4.640625 3.375,-4.90625 3.375,-5.171875 c 0,-0.609375 -0.4375,-1.15625 -1.140625,-1.15625 -1.3125,0 -1.84375,2.078125 -1.84375,2.203125 0,0.046875 0.046875,0.125 0.15625,0.125 C 0.671875,-4 0.6875,-4.0625 0.75,-4.265625 1.09375,-5.46875 1.640625,-6.03125 2.1875,-6.03125 c 0.140625,0 0.375,0 0.375,0.46875 0,0.375 -0.1875,0.84375 -0.296875,1.15625 l -1,2.671875 C 1.171875,-1.5 1.09375,-1.28125 1.09375,-1.015625 c 0,0.640625 0.4375,1.15625 1.125,1.15625 1.328125,0 1.84375,-2.09375 1.84375,-2.1875 z m -0.125,-6.90625 c 0,-0.21875 -0.171875,-0.46875 -0.484375,-0.46875 -0.328125,0 -0.703125,0.3125 -0.703125,0.6875 0,0.359375 0.3125,0.46875 0.484375,0.46875 0.375,0 0.703125,-0.375 0.703125,-0.6875 z m 0,0"
   id="path12" />
    </g>
    <g
   id="use9"
   transform="translate(25.926119,25.042)">
      <path
   d="m 3.265625,-2.875 c 0.25,0.046875 0.640625,0.140625 0.71875,0.15625 0.1875,0.046875 0.828125,0.28125 0.828125,0.96875 0,0.4375 -0.390625,1.609375 -2.0625,1.609375 -0.296875,0 -1.375,-0.046875 -1.65625,-0.828125 0.5625,0.0625 0.859375,-0.375 0.859375,-0.6875 0,-0.3125 -0.203125,-0.46875 -0.484375,-0.46875 -0.328125,0 -0.734375,0.25 -0.734375,0.890625 0,0.84375 0.859375,1.375 2,1.375 2.1875,0 2.828125,-1.609375 2.828125,-2.34375 0,-0.21875 0,-0.625 -0.453125,-1.078125 C 4.75,-3.625 4.40625,-3.703125 3.625,-3.859375 c -0.390625,-0.078125 -1,-0.21875 -1,-0.859375 0,-0.28125 0.265625,-1.3125 1.625,-1.3125 0.59375,0 1.1875,0.21875 1.328125,0.734375 -0.625,0 -0.65625,0.546875 -0.65625,0.5625 0,0.296875 0.265625,0.390625 0.40625,0.390625 0.1875,0 0.59375,-0.15625 0.59375,-0.765625 0,-0.59375 -0.546875,-1.21875 -1.65625,-1.21875 -1.890625,0 -2.390625,1.484375 -2.390625,2.0625 0,1.09375 1.0625,1.328125 1.390625,1.390625 z m 0,0"
   id="path13" />
    </g>
  </g>
</g></g></svg>
