<?xml version="1.0" encoding="UTF-8" standalone="no"?>
<!-- Created with Inkscape (http://www.inkscape.org/) -->

<svg
   width="117.30756mm"
   height="81.76889mm"
   viewBox="0 0 117.30756 81.768891"
   version="1.1"
   id="svg1"
   xml:space="preserve"
   inkscape:export-filename="Forças_10.png"
   inkscape:export-xdpi="300"
   inkscape:export-ydpi="300"
   inkscape:version="1.3.2 (091e20e, 2023-11-25, custom)"
   sodipodi:docname="Forças_10.svg"
   xmlns:inkscape="http://www.inkscape.org/namespaces/inkscape"
   xmlns:sodipodi="http://sodipodi.sourceforge.net/DTD/sodipodi-0.dtd"
   xmlns="http://www.w3.org/2000/svg"
   xmlns:svg="http://www.w3.org/2000/svg"><sodipodi:namedview
     id="namedview1"
     pagecolor="#ffffff"
     bordercolor="#000000"
     borderopacity="0.25"
     inkscape:showpageshadow="2"
     inkscape:pageopacity="0.0"
     inkscape:pagecheckerboard="0"
     inkscape:deskcolor="#d1d1d1"
     inkscape:document-units="mm"
     inkscape:zoom="1.4627806"
     inkscape:cx="183.21271"
     inkscape:cy="201.32889"
     inkscape:window-width="1920"
     inkscape:window-height="1009"
     inkscape:window-x="-8"
     inkscape:window-y="-8"
     inkscape:window-maximized="1"
     inkscape:current-layer="g39"
     inkscape:export-bgcolor="#ffffffff" /><defs
     id="defs1"><marker
       style="overflow:visible"
       id="Triangle"
       refX="0"
       refY="0"
       orient="auto-start-reverse"
       inkscape:stockid="Triangle arrow"
       markerWidth="1"
       markerHeight="1"
       viewBox="0 0 1 1"
       inkscape:isstock="true"
       inkscape:collect="always"
       preserveAspectRatio="xMidYMid"><path
         transform="scale(0.5)"
         style="fill:context-stroke;fill-rule:evenodd;stroke:context-stroke;stroke-width:1pt"
         d="M 5.77,0 -2.88,5 V -5 Z"
         id="path135" /></marker></defs><g
     inkscape:label="Camada 1"
     inkscape:groupmode="layer"
     id="layer1"
     transform="translate(-22.778, -97.3118)"><g
       inkscape:label="Layer 1"
       id="layer1-1"
       transform="translate(56.527695,26.791671)"><circle
         style="fill:#ffffff;stroke:#000000;stroke-width:0.7;stroke-miterlimit:4;stroke-dasharray:none"
         id="path817"
         cx="34.883839"
         cy="138.54631"
         r="5.2117558"
         inkscape:export-filename="/home/pv/Imagens/massa-mola-amortecedor-força.png"
         inkscape:export-xdpi="96"
         inkscape:export-ydpi="96" /><rect
         style="fill:#ffffff;stroke:#000000;stroke-width:0.7;stroke-miterlimit:4;stroke-dasharray:none"
         id="rect815"
         width="41.159508"
         height="33.675961"
         x="27.801199"
         y="99.658592"
         inkscape:export-filename="/home/pv/Imagens/massa-mola-amortecedor-força.png"
         inkscape:export-xdpi="96"
         inkscape:export-ydpi="96"
         ry="4.8019919" /><circle
         style="fill:#ffffff;stroke:#000000;stroke-width:0.7;stroke-miterlimit:4;stroke-dasharray:none"
         id="circle2735"
         cx="60.81303"
         cy="138.54631"
         r="5.2117558"
         inkscape:export-filename="/home/pv/Imagens/massa-mola-amortecedor-força.png"
         inkscape:export-xdpi="96"
         inkscape:export-ydpi="96" /></g><g
       id="layer1-10"
       inkscape:label="Layer 1"
       transform="matrix(1.2753487,0,0,1.2209416,-66.408407,10.870395)"
       style="stroke-width:0.801378"><rect
         style="fill:#ffffff;stroke:#000000;stroke-width:0.560966;stroke-miterlimit:4;stroke-dasharray:none"
         id="rect1718"
         width="16.510056"
         height="2.1250565"
         x="101.72212"
         y="108.30544" /><rect
         style="fill:#ffffff;stroke:#000000;stroke-width:0.649796;stroke-miterlimit:4;stroke-dasharray:none"
         id="rect1731"
         width="15.094382"
         height="2.0999031"
         x="76.874931"
         y="108.44493" /><rect
         y="104.7997"
         x="92.554405"
         height="9.2270832"
         width="7.2063184"
         id="rect3464"
         style="fill:#808080;stroke:#808080;stroke-width:0.560966" /><path
         style="fill:#ffffff;stroke:#000000;stroke-width:0.560966;stroke-miterlimit:4;stroke-dasharray:none"
         d="m 88.29373,103.05019 v 2.14922 h 11.466999 v 8.82737 H 88.29373 v 2.14922 h 13.28911 v -13.12581 z"
         id="rect1720"
         inkscape:connector-curvature="0" /><rect
         style="fill:#ffffff;stroke:#000000;stroke-width:0.659185;stroke-miterlimit:4;stroke-dasharray:none"
         id="rect1729"
         width="2.6107433"
         height="7.8277359"
         x="91.626671"
         y="105.74422" /></g><g
       id="g19"
       transform="rotate(-90,117.9318,161.88489)"><g
         id="g18"
         transform="translate(61.178163,12.003313)"><path
           style="fill:none;stroke:#000000;stroke-width:0.665001;stroke-dasharray:none"
           d="m 47.570646,107.07917 v 56.79537"
           id="path1" /><path
           style="fill:none;stroke:#000000;stroke-width:0.665001;stroke-dasharray:none"
           d="m 47.570646,109.61145 -7.77771,7.77771"
           id="path2" /><path
           style="fill:none;stroke:#000000;stroke-width:0.665001;stroke-dasharray:none"
           d="m 47.570646,130.30714 -7.77771,7.77771"
           id="path3" /><path
           style="fill:none;stroke:#000000;stroke-width:0.665001;stroke-dasharray:none"
           d="m 47.570646,116.51001 -7.77771,7.77771"
           id="path13" /><path
           style="fill:none;stroke:#000000;stroke-width:0.665001;stroke-dasharray:none"
           d="m 47.570646,123.40857 -7.77771,7.77771"
           id="path14" /><path
           style="fill:none;stroke:#000000;stroke-width:0.665001;stroke-dasharray:none"
           d="m 47.570646,137.2057 -7.77771,7.77771"
           id="path15" /><path
           style="fill:none;stroke:#000000;stroke-width:0.665001;stroke-dasharray:none"
           d="m 47.570646,144.10426 -7.77771,7.77771"
           id="path16" /><path
           style="fill:none;stroke:#000000;stroke-width:0.665001;stroke-dasharray:none"
           d="m 47.570646,151.00282 -7.77771,7.77771"
           id="path17" /><path
           style="fill:none;stroke:#000000;stroke-width:0.665001;stroke-dasharray:none"
           d="m 47.570646,157.90138 -7.77771,7.77771"
           id="path18" /></g></g><path
       style="fill:#cccccc;stroke:#000000;stroke-width:0.665;stroke-dasharray:none"
       d="M 104.18514,126.25213 V 97.311815"
       id="path21" /><path
       style="fill:#cccccc;stroke:#000000;stroke-width:0.665;marker-end:url(#Triangle);stroke-dasharray:none"
       d="m 104.00426,112.68636 h 25.32278"
       id="path22" /><g
       inkscape:label=""
       transform="matrix(1.3103759,0,0,1.3103759,156.21748,45.095285)"
       id="g61"
       style="stroke-width:0.763142">
  
  
  
<g
   inkscape:label=""
   transform="matrix(0.889445,0,0,0.889445,-35.1627,43.5985)"
   id="g46"
   style="stroke-width:0.763142"><g
   fill="#000000"
   fill-opacity="1"
   id="g6"
   transform="matrix(0.352778,0,0,0.352778,-0.907036,-0.70635)"
   style="stroke-width:0.763142">
    <g
   id="use5"
   transform="translate(5.724,17.469999)"
   style="stroke-width:0.763142">
      <path
   d="m 3.40625,-12.71875 c 0,-0.5 -0.390625,-0.859375 -0.828125,-0.859375 -0.484375,0 -0.84375,0.40625 -0.84375,0.859375 0,0.484375 0.390625,0.84375 0.828125,0.84375 0.5,0 0.84375,-0.390625 0.84375,-0.84375 z m 0,0"
   id="path10"
   style="stroke-width:0.763142" />
    </g>
  </g>
  <g
   fill="#000000"
   fill-opacity="1"
   id="g7"
   transform="matrix(0.352778,0,0,0.352778,-0.907036,-0.70635)"
   style="stroke-width:0.763142">
    <g
   id="use6"
   transform="translate(1.993,17.471001)"
   style="stroke-width:0.763142">
      <path
   d="m 9.796875,-8.421875 c -0.671875,0.125 -0.921875,0.609375 -0.921875,1 0,0.5 0.40625,0.671875 0.6875,0.671875 0.625,0 1.0625,-0.546875 1.0625,-1.09375 0,-0.875 -1,-1.265625 -1.859375,-1.265625 -1.265625,0 -1.96875,1.234375 -2.15625,1.625 -0.46875,-1.546875 -1.75,-1.625 -2.125,-1.625 -2.109375,0 -3.21875,2.703125 -3.21875,3.15625 0,0.09375 0.078125,0.1875 0.21875,0.1875 0.171875,0 0.203125,-0.125 0.25,-0.203125 0.703125,-2.296875 2.09375,-2.734375 2.6875,-2.734375 0.921875,0 1.109375,0.875 1.109375,1.375 0,0.453125 -0.125,0.921875 -0.359375,1.921875 L 4.46875,-2.578125 c -0.3125,1.234375 -0.921875,2.375 -2.015625,2.375 -0.09375,0 -0.609375,0 -1.046875,-0.265625 C 2.140625,-0.625 2.3125,-1.234375 2.3125,-1.484375 2.3125,-1.90625 2,-2.140625 1.609375,-2.140625 c -0.5,0 -1.03125,0.421875 -1.03125,1.09375 0,0.859375 0.96875,1.25 1.859375,1.25 0.984375,0 1.6875,-0.78125 2.125,-1.625 0.328125,1.21875 1.359375,1.625 2.125,1.625 2.109375,0 3.234375,-2.703125 3.234375,-3.15625 0,-0.109375 -0.09375,-0.1875 -0.21875,-0.1875 -0.1875,0 -0.203125,0.109375 -0.265625,0.265625 -0.5625,1.828125 -1.75,2.671875 -2.6875,2.671875 -0.71875,0 -1.109375,-0.546875 -1.109375,-1.390625 0,-0.453125 0.078125,-0.78125 0.40625,-2.140625 l 0.734375,-2.8125 c 0.296875,-1.234375 1,-2.15625 1.953125,-2.15625 0.046875,0 0.625,0 1.0625,0.28125 z m 0,0"
   id="path11"
   style="stroke-width:0.763142" />
    </g>
  </g>
  <g
   fill="#000000"
   fill-opacity="1"
   id="g8"
   transform="matrix(0.352778,0,0,0.352778,-0.907036,-0.70635)"
   style="stroke-width:0.763142">
    <g
   id="use7"
   transform="translate(13.49,17.471001)"
   style="stroke-width:0.763142">
      <path
   d="m 6.328125,5.046875 c 0,-0.03125 0,-0.0625 -0.0625,-0.125 -0.953125,-0.96875 -3.5,-3.625 -3.5,-10.0625 0,-6.453125 2.5,-9.078125 3.515625,-10.109375 0,-0.01563 0.046875,-0.0625 0.046875,-0.125 0,-0.0625 -0.0625,-0.09375 -0.15625,-0.09375 -0.21875,0 -1.984375,1.53125 -2.984375,3.796875 -1.046875,2.296875 -1.328125,4.53125 -1.328125,6.5 0,1.5 0.140625,4.015625 1.390625,6.6875 0.984375,2.140625 2.671875,3.65625 2.921875,3.65625 0.109375,0 0.15625,-0.046875 0.15625,-0.125 z m 0,0"
   id="path12"
   style="stroke-width:0.763142" />
    </g>
  </g>
  <g
   fill="#000000"
   fill-opacity="1"
   id="g9"
   transform="matrix(0.352778,0,0,0.352778,-0.907036,-0.70635)"
   style="stroke-width:0.763142">
    <g
   id="use8"
   transform="translate(20.806999,17.471001)"
   style="stroke-width:0.763142">
      <path
   d="m 4.15625,-8.296875 h 1.890625 c 0.390625,0 0.609375,0 0.609375,-0.375 0,-0.234375 -0.125,-0.234375 -0.546875,-0.234375 h -1.8125 L 5.0625,-11.921875 c 0.078125,-0.28125 0.078125,-0.328125 0.078125,-0.46875 0,-0.328125 -0.265625,-0.515625 -0.53125,-0.515625 -0.171875,0 -0.640625,0.0625 -0.8125,0.71875 L 3,-8.90625 H 1.046875 c -0.40625,0 -0.59375,0 -0.59375,0.390625 0,0.21875 0.140625,0.21875 0.53125,0.21875 h 1.84375 L 1.46875,-2.84375 c -0.171875,0.71875 -0.234375,0.921875 -0.234375,1.1875 0,0.96875 0.6875,1.859375 1.84375,1.859375 2.09375,0 3.203125,-3.015625 3.203125,-3.15625 0,-0.125 -0.078125,-0.1875 -0.203125,-0.1875 -0.046875,0 -0.125,0 -0.171875,0.078125 -0.015625,0.03125 -0.046875,0.046875 -0.1875,0.375 -0.4375,1.03125 -1.375,2.484375 -2.578125,2.484375 -0.625,0 -0.65625,-0.515625 -0.65625,-0.96875 0,-0.03125 0,-0.421875 0.0625,-0.671875 z m 0,0"
   id="path45"
   style="stroke-width:0.763142" />
    </g>
  </g>
  <g
   fill="#000000"
   fill-opacity="1"
   id="g10"
   transform="matrix(0.352778,0,0,0.352778,-0.907036,-0.70635)"
   style="stroke-width:0.763142">
    <g
   id="use9"
   transform="translate(28.113001,17.471001)"
   style="stroke-width:0.763142">
      <path
   d="m 5.4375,-5.140625 c 0,-1.484375 -0.15625,-4.015625 -1.390625,-6.671875 -0.984375,-2.15625 -2.6875,-3.65625 -2.9375,-3.65625 -0.0625,0 -0.140625,0.01563 -0.140625,0.125 0,0.03125 0.015625,0.0625 0.046875,0.09375 C 2,-14.21875 4.53125,-11.59375 4.53125,-5.171875 4.53125,1.28125 2.03125,3.90625 1.015625,4.9375 0.984375,4.984375 0.96875,5 0.96875,5.046875 c 0,0.09375 0.078125,0.125 0.140625,0.125 0.234375,0 1.984375,-1.53125 3,-3.8125 1.03125,-2.28125 1.328125,-4.515625 1.328125,-6.5 z m 0,0"
   id="path46"
   style="stroke-width:0.763142" />
    </g>
  </g>
</g></g><g
       inkscape:label=""
       transform="matrix(1.8791826,0,0,1.8791826,99.120551,139.98464)"
       id="g62"
       style="stroke-width:0.532146"><g
   fill="#000000"
   fill-opacity="1"
   id="g2"
   transform="matrix(0.352778,0,0,0.352778,-0.940109,-0.614583)"
   style="stroke-width:0.532146">
    <g
   id="use1"
   transform="translate(1.993,12.664)"
   style="stroke-width:0.532146">
      <path
   d="M 5.109375,-7.265625 C 5.15625,-7.40625 5.78125,-8.65625 6.6875,-9.4375 c 0.640625,-0.59375 1.484375,-1 2.453125,-1 1,0 1.34375,0.75 1.34375,1.734375 0,0.15625 0,0.65625 -0.296875,1.8125 l -0.625,2.546875 c -0.1875,0.75 -0.671875,2.578125 -0.71875,2.859375 -0.09375,0.375 -0.25,1.015625 -0.25,1.109375 0,0.34375 0.28125,0.625 0.65625,0.625 0.734375,0 0.859375,-0.578125 1.078125,-1.46875 l 1.5,-5.921875 c 0.04687,-0.1875 1.328125,-3.296875 4.0625,-3.296875 0.984375,0 1.328125,0.75 1.328125,1.734375 0,1.390625 -0.96875,4.09375 -1.5,5.578125 -0.234375,0.59375 -0.359375,0.921875 -0.359375,1.359375 0,1.125 0.765625,2.015625 1.96875,2.015625 C 19.625,0.25 20.5,-3.390625 20.5,-3.546875 c 0,-0.125 -0.109375,-0.21875 -0.25,-0.21875 -0.234375,0 -0.25,0.078125 -0.375,0.5 C 19.296875,-1.28125 18.390625,-0.25 17.390625,-0.25 17.15625,-0.25 16.75,-0.265625 16.75,-1.0625 c 0,-0.640625 0.296875,-1.4375 0.40625,-1.71875 0.4375,-1.1875 1.546875,-4.109375 1.546875,-5.546875 0,-1.484375 -0.859375,-2.59375 -2.75,-2.59375 -1.65625,0 -3,0.9375 -3.984375,2.390625 -0.07813,-1.328125 -0.890625,-2.390625 -2.75,-2.390625 -2.203125,0 -3.375,1.546875 -3.8125,2.171875 -0.078125,-1.40625 -1.09375,-2.171875 -2.1875,-2.171875 -0.71875,0 -1.28125,0.34375 -1.75,1.28125 -0.453125,0.890625 -0.796875,2.40625 -0.796875,2.5 0,0.109375 0.09375,0.234375 0.265625,0.234375 0.203125,0 0.234375,-0.03125 0.375,-0.609375 0.375,-1.453125 0.84375,-2.921875 1.828125,-2.921875 0.578125,0 0.78125,0.40625 0.78125,1.140625 0,0.546875 -0.25,1.515625 -0.421875,2.28125 L 2.796875,-4.34375 c -0.09375,0.484375 -0.375,1.59375 -0.5,2.046875 C 2.125,-1.65625 1.859375,-0.5 1.859375,-0.375 1.859375,-0.03125 2.125,0.25 2.5,0.25 c 0.296875,0 0.640625,-0.15625 0.84375,-0.515625 0.046875,-0.125 0.28125,-1 0.390625,-1.5 l 0.546875,-2.21875 z m 0,0"
   id="path61"
   style="stroke-width:0.532146" />
    </g>
  </g>
</g><g
       id="g29"
       transform="translate(-77.596206,-7.7777061)"><g
         id="g28"
         transform="translate(61.178163,12.003313)"><path
           style="fill:none;stroke:#000000;stroke-width:0.665001;stroke-dasharray:none"
           d="m 47.570646,107.07917 v 56.79537"
           id="path47" /><path
           style="fill:none;stroke:#000000;stroke-width:0.665001;stroke-dasharray:none"
           d="m 47.570646,109.61145 -7.77771,7.77771"
           id="path19" /><path
           style="fill:none;stroke:#000000;stroke-width:0.665001;stroke-dasharray:none"
           d="m 47.570646,130.30714 -7.77771,7.77771"
           id="path20" /><path
           style="fill:none;stroke:#000000;stroke-width:0.665001;stroke-dasharray:none"
           d="m 47.570646,116.51001 -7.77771,7.77771"
           id="path23" /><path
           style="fill:none;stroke:#000000;stroke-width:0.665001;stroke-dasharray:none"
           d="m 47.570646,123.40857 -7.77771,7.77771"
           id="path24" /><path
           style="fill:none;stroke:#000000;stroke-width:0.665001;stroke-dasharray:none"
           d="m 47.570646,137.2057 -7.77771,7.77771"
           id="path25" /><path
           style="fill:none;stroke:#000000;stroke-width:0.665001;stroke-dasharray:none"
           d="m 47.570646,144.10426 -7.77771,7.77771"
           id="path26" /><path
           style="fill:none;stroke:#000000;stroke-width:0.665001;stroke-dasharray:none"
           d="m 47.570646,151.00282 -7.77771,7.77771"
           id="path27" /><path
           style="fill:none;stroke:#000000;stroke-width:0.665001;stroke-dasharray:none"
           d="m 47.570646,157.90138 -7.77771,7.77771"
           id="path28" /></g></g><path
       style="opacity:1;fill:#000000;stroke:#ff0000;stroke-width:0.765;marker-end:url(#Triangle)"
       d="M 84.095321,144.15895 H 61.123945"
       id="path29" /><g
       inkscape:label=""
       transform="matrix(1.20491 0 0 1.20491 58.9668 151.731)"
       id="g42"
       style="stroke-width:0.829938">
  <g
   fill="#000000"
   fill-opacity="1"
   id="g39"
   transform="matrix(0.352778 0 0 0.352778 3.31405 -3.85293)"
   style="stroke-width:0.829938">
    
  <g
   inkscape:label=""
   transform="matrix(2.7685709,0,0,2.7685709,16.4067,0.97964964)"
   id="g50"
   style="stroke-width:0.705236"><g
   fill="#000000"
   fill-opacity="1"
   id="g4"
   transform="matrix(0.352778,0,0,0.352778,-1.03933,-0.700484)"
   style="stroke-width:0.705236">
    <g
   id="use3"
   transform="translate(5.8299999,16.719999)"
   style="stroke-width:0.705236">
      <path
   d="m 11.046875,-12.328125 c -0.25,0.21875 -1.015625,0.953125 -1.015625,1.234375 0,0.203125 0.1875,0.390625 0.40625,0.390625 0.1875,0 0.265625,-0.125 0.40625,-0.328125 0.5,-0.625 1.046875,-1.015625 1.53125,-1.28125 0.203125,-0.125 0.34375,-0.1875 0.34375,-0.40625 0,-0.1875 -0.15625,-0.296875 -0.28125,-0.390625 -0.578125,-0.40625 -0.71875,-0.953125 -0.78125,-1.203125 -0.0625,-0.171875 -0.125,-0.421875 -0.421875,-0.421875 -0.125,0 -0.375,0.09375 -0.375,0.40625 0,0.171875 0.125,0.671875 0.515625,1.234375 H 4.4375 c -0.34375,0 -0.703125,0 -0.703125,0.390625 0,0.375 0.375,0.375 0.703125,0.375 z m 0,0"
   id="path6"
   style="stroke-width:0.705236" />
    </g>
  </g>
  <g
   fill="#000000"
   fill-opacity="1"
   id="g5"
   transform="matrix(0.352778,0,0,0.352778,-1.03933,-0.700484)"
   style="stroke-width:0.705236">
    <g
   id="use4"
   transform="translate(1.993,21.943001)"
   style="stroke-width:0.705236">
      <path
   d="M 6.140625,-6.734375 H 8.125 c 1.5625,0 1.6875,0.359375 1.6875,0.953125 0,0.265625 -0.046875,0.5625 -0.140625,1.015625 -0.046875,0.078125 -0.0625,0.1875 -0.0625,0.21875 0,0.140625 0.078125,0.234375 0.21875,0.234375 0.171875,0 0.1875,-0.09375 0.265625,-0.421875 l 1.203125,-4.8125 c 0,-0.078125 -0.0625,-0.203125 -0.203125,-0.203125 -0.1875,0 -0.203125,0.078125 -0.296875,0.4375 -0.421875,1.546875 -0.84375,1.984375 -2.640625,1.984375 h -1.875 L 7.625,-12.6875 c 0.1875,-0.71875 0.21875,-0.78125 1.078125,-0.78125 h 2.765625 c 2.578125,0 2.953125,0.765625 2.953125,2.234375 0,0.125 0,0.578125 -0.0625,1.109375 -0.03125,0.09375 -0.0625,0.359375 -0.0625,0.4375 0,0.171875 0.09375,0.234375 0.21875,0.234375 0.15625,0 0.234375,-0.09375 0.28125,-0.46875 l 0.421875,-3.609375 c 0,-0.0625 0.04687,-0.265625 0.04687,-0.3125 0,-0.21875 -0.1875,-0.21875 -0.5625,-0.21875 H 4.92187 c -0.390625,0 -0.609375,0 -0.609375,0.375 0,0.21875 0.15625,0.21875 0.5,0.21875 1.28125,0 1.28125,0.140625 1.28125,0.375 0,0.09375 -0.015625,0.1875 -0.078125,0.40625 L 3.21875,-1.53125 C 3.03125,-0.8125 3,-0.59375 1.546875,-0.59375 c -0.390625,0 -0.59375,0 -0.59375,0.359375 C 0.953125,0 1.140625,0 1.265625,0 1.65625,0 2.0625,-0.046875 2.453125,-0.046875 h 2.6875 C 5.59375,-0.046875 6.09375,0 6.546875,0 c 0.1875,0 0.4375,0 0.4375,-0.375 0,-0.21875 -0.125,-0.21875 -0.578125,-0.21875 -1.640625,0 -1.671875,-0.15625 -1.671875,-0.453125 0,-0.109375 0.03125,-0.28125 0.078125,-0.421875 z m 0,0"
   id="path7"
   style="stroke-width:0.705236" />
    </g>
  </g>
  <g
   fill="#000000"
   fill-opacity="1"
   id="g49"
   transform="matrix(0.352778,0,0,0.352778,-1.03933,-0.700484)"
   style="stroke-width:0.705236">
    <g
   id="g48"
   transform="translate(15.089,25.042)"
   style="stroke-width:0.705236">
      <path
   d="M 4.3125,-1.703125 C 4.25,-1.46875 4.25,-1.4375 4.046875,-1.15625 c -0.3125,0.390625 -0.953125,1.015625 -1.625,1.015625 -0.578125,0 -0.921875,-0.53125 -0.921875,-1.375 0,-0.796875 0.453125,-2.40625 0.71875,-3 0.5,-1 1.171875,-1.515625 1.71875,-1.515625 0.953125,0 1.140625,1.171875 1.140625,1.28125 0,0.015625 -0.046875,0.203125 -0.0625,0.234375 z M 5.234375,-5.375 C 5.078125,-5.75 4.6875,-6.328125 3.9375,-6.328125 c -1.609375,0 -3.359375,2.09375 -3.359375,4.21875 0,1.421875 0.828125,2.25 1.796875,2.25 0.796875,0 1.46875,-0.609375 1.875,-1.09375 0.140625,0.859375 0.8125,1.09375 1.25,1.09375 0.421875,0 0.765625,-0.25 1.03125,-0.765625 C 6.75,-1.125 6.953125,-2 6.953125,-2.046875 6.953125,-2.125 6.90625,-2.1875 6.8125,-2.1875 c -0.125,0 -0.140625,0.078125 -0.203125,0.296875 -0.21875,0.84375 -0.484375,1.75 -1.078125,1.75 -0.40625,0 -0.4375,-0.375 -0.4375,-0.65625 0,-0.34375 0.046875,-0.5 0.171875,-1.046875 0.09375,-0.359375 0.171875,-0.6875 0.28125,-1.09375 0.53125,-2.15625 0.65625,-2.671875 0.65625,-2.75 0,-0.203125 -0.15625,-0.359375 -0.359375,-0.359375 -0.46875,0 -0.578125,0.5 -0.609375,0.671875 z m 0,0"
   id="path8"
   style="stroke-width:0.705236" />
    </g>
  </g>
</g></g>
  
</g><g
       inkscape:label=""
       transform="matrix(1.5250271,0,0,1.440459,55.516703,129.96002)"
       id="g45"
       style="stroke-width:0.6747"><g
   fill="#000000"
   fill-opacity="1"
   id="g44"
   transform="matrix(0.352778,0,0,0.352778,-0.99523,-0.627459)"
   style="stroke-width:0.6747">
    <g
   id="g43"
   transform="translate(1.993,10.888)"
   style="stroke-width:0.6747">
      <path
   d="m 8.078125,-7.765625 c -0.390625,0 -0.578125,0 -0.875,0.25 -0.125,0.09375 -0.34375,0.40625 -0.34375,0.734375 0,0.421875 0.3125,0.671875 0.703125,0.671875 0.5,0 1.046875,-0.421875 1.046875,-1.25 0,-0.984375 -0.953125,-1.75 -2.375,-1.75 -2.703125,0 -5.40625,2.953125 -5.40625,5.890625 0,1.796875 1.109375,3.421875 3.21875,3.421875 2.8125,0 4.59375,-2.1875 4.59375,-2.453125 0,-0.125 -0.125,-0.234375 -0.21875,-0.234375 -0.0625,0 -0.078125,0.03125 -0.265625,0.21875 -1.3125,1.75 -3.28125,2.0625 -4.0625,2.0625 -1.421875,0 -1.890625,-1.25 -1.890625,-2.28125 0,-0.71875 0.359375,-2.71875 1.109375,-4.125 0.53125,-0.96875 1.640625,-2.09375 2.953125,-2.09375 0.265625,0 1.390625,0.046875 1.8125,0.9375 z m 0,0"
   id="path43"
   style="stroke-width:0.6747" />
    </g>
  </g>
</g></g></svg>
