<?xml version="1.0" encoding="UTF-8" standalone="no"?>
<!-- Created with Inkscape (http://www.inkscape.org/) -->

<svg
   width="111.32624mm"
   height="81.238617mm"
   viewBox="0 0 111.32624 81.238617"
   version="1.1"
   id="svg1"
   inkscape:version="1.3.2 (091e20e, 2023-11-25, custom)"
   sodipodi:docname="forças_5.svg"
   inkscape:export-filename="forças_5.png"
   inkscape:export-xdpi="96"
   inkscape:export-ydpi="96"
   xmlns:inkscape="http://www.inkscape.org/namespaces/inkscape"
   xmlns:sodipodi="http://sodipodi.sourceforge.net/DTD/sodipodi-0.dtd"
   xmlns="http://www.w3.org/2000/svg"
   xmlns:svg="http://www.w3.org/2000/svg">
  <sodipodi:namedview
     id="namedview1"
     pagecolor="#ffffff"
     bordercolor="#000000"
     borderopacity="0.25"
     inkscape:showpageshadow="2"
     inkscape:pageopacity="0.0"
     inkscape:pagecheckerboard="0"
     inkscape:deskcolor="#d1d1d1"
     inkscape:document-units="mm"
     inkscape:zoom="2.0485265"
     inkscape:cx="249.93575"
     inkscape:cy="163.77626"
     inkscape:window-width="1920"
     inkscape:window-height="1009"
     inkscape:window-x="-8"
     inkscape:window-y="-8"
     inkscape:window-maximized="1"
     inkscape:current-layer="layer1" />
  <defs
     id="defs1">
    <marker
       style="overflow:visible"
       id="marker7"
       refX="0"
       refY="0"
       orient="auto-start-reverse"
       inkscape:stockid="Triangle arrow"
       markerWidth="1"
       markerHeight="1"
       viewBox="0 0 1 1"
       inkscape:isstock="true"
       inkscape:collect="always"
       preserveAspectRatio="xMidYMid">
      <path
         transform="scale(0.5)"
         style="fill:context-stroke;fill-rule:evenodd;stroke:context-stroke;stroke-width:1pt"
         d="M 5.77,0 -2.88,5 V -5 Z"
         id="path7" />
    </marker>
    <marker
       style="overflow:visible"
       id="marker5"
       refX="0"
       refY="0"
       orient="auto-start-reverse"
       inkscape:stockid="Triangle arrow"
       markerWidth="1"
       markerHeight="1"
       viewBox="0 0 1 1"
       inkscape:isstock="true"
       inkscape:collect="always"
       preserveAspectRatio="xMidYMid">
      <path
         transform="scale(0.5)"
         style="fill:context-stroke;fill-rule:evenodd;stroke:context-stroke;stroke-width:1pt"
         d="M 5.77,0 -2.88,5 V -5 Z"
         id="path5" />
    </marker>
    <marker
       style="overflow:visible"
       id="Triangle"
       refX="0"
       refY="0"
       orient="auto-start-reverse"
       inkscape:stockid="Triangle arrow"
       markerWidth="1"
       markerHeight="1"
       viewBox="0 0 1 1"
       inkscape:isstock="true"
       inkscape:collect="always"
       preserveAspectRatio="xMidYMid">
      <path
         transform="scale(0.5)"
         style="fill:context-stroke;fill-rule:evenodd;stroke:context-stroke;stroke-width:1pt"
         d="M 5.77,0 -2.88,5 V -5 Z"
         id="path135" />
    </marker>
  </defs>
  <g
     inkscape:label="Camada 1"
     inkscape:groupmode="layer"
     id="layer1"
     transform="translate(-24.08529,-46.41562)">
    <path
       style="fill:#b3b3b3;stroke:#000000;stroke-width:0.765"
       d="M 24.469031,127.27062 115.14888,127.00657 24.647293,72.081162 Z"
       id="path1"
       sodipodi:nodetypes="ccc" />
    <rect
       style="fill:#ffffff;stroke:#000000;stroke-width:0.765353"
       id="rect1"
       width="28.422903"
       height="27.309008"
       x="91.382957"
       y="21.822914"
       ry="5.72013"
       transform="matrix(0.85771873,0.51411923,-0.47681868,0.87900167,0,0)" />
    <path
       style="fill:#1a1a1a;stroke:#000000;stroke-width:0.765;marker-end:url(#Triangle)"
       d="m 67.167892,97.41898 v 23.23615"
       id="path3" />
    <path
       style="fill:#ff0000;stroke:#ff0000;stroke-width:0.765;marker-end:url(#marker5)"
       d="M 67.419085,97.683024 42.329481,82.456146"
       id="path4" />
    <path
       style="fill:#0000ff;stroke:#0000ff;stroke-width:0.765;marker-end:url(#marker7)"
       d="M 67.419085,97.683024 85.739576,64.326908"
       id="path6" />
    <g
       inkscape:label=""
       transform="matrix(1.6894694,1.0126731,-0.96336659,1.7759389,70.385041,79.029692)"
       id="g1"
       style="stroke-width:0.501509">
      <g
         fill="#000000"
         fill-opacity="1"
         id="g2"
         transform="matrix(0.352778,0,0,0.352778,-0.901524,-0.627459)"
         style="stroke-width:0.501509">
        <g
           id="use1"
           transform="translate(1.993,10.888)"
           style="stroke-width:0.501509">
          <path
             d="M 4.25,-6.046875 C 4.296875,-6.171875 4.8125,-7.203125 5.578125,-7.875 6.109375,-8.359375 6.8125,-8.703125 7.625,-8.703125 c 0.828125,0 1.109375,0.625 1.109375,1.453125 0,0.125 0,0.53125 -0.25,1.5 L 7.96875,-3.609375 C 7.8125,-3 7.421875,-1.46875 7.375,-1.234375 c -0.078125,0.3125 -0.203125,0.84375 -0.203125,0.921875 0,0.296875 0.21875,0.515625 0.53125,0.515625 0.625,0 0.71875,-0.46875 0.90625,-1.21875 l 1.25,-4.9375 c 0.03125,-0.15625 1.109375,-2.75 3.375,-2.75 0.828125,0 1.125,0.625 1.125,1.453125 0,1.15625 -0.8125,3.40625 -1.265625,4.640625 -0.1875,0.5 -0.28125,0.765625 -0.28125,1.140625 0,0.9375 0.640625,1.671875 1.625,1.671875 1.921875,0 2.640625,-3.03125 2.640625,-3.15625 0,-0.109375 -0.07813,-0.1875 -0.203125,-0.1875 -0.1875,0 -0.203125,0.0625 -0.3125,0.40625 -0.46875,1.65625 -1.234375,2.53125 -2.0625,2.53125 -0.203125,0 -0.53125,-0.03125 -0.53125,-0.6875 0,-0.53125 0.25,-1.203125 0.328125,-1.421875 0.375,-1 1.296875,-3.4375 1.296875,-4.625 0,-1.25 -0.71875,-2.171875 -2.296875,-2.171875 -1.375,0 -2.5,0.78125 -3.3125,2 -0.0625,-1.109375 -0.75,-2 -2.296875,-2 -1.84375,0 -2.8125,1.296875 -3.1875,1.8125 -0.0625,-1.171875 -0.90625,-1.8125 -1.8125,-1.8125 -0.59375,0 -1.078125,0.296875 -1.46875,1.078125 -0.375,0.734375 -0.65625,2 -0.65625,2.078125 0,0.09375 0.078125,0.1875 0.21875,0.1875 0.171875,0 0.1875,-0.015625 0.3125,-0.5 0.3125,-1.21875 0.703125,-2.4375 1.53125,-2.4375 0.46875,0 0.640625,0.34375 0.640625,0.953125 0,0.453125 -0.203125,1.265625 -0.359375,1.90625 l -0.578125,2.234375 c -0.078125,0.390625 -0.296875,1.3125 -0.40625,1.6875 -0.140625,0.53125 -0.375,1.515625 -0.375,1.609375 0,0.296875 0.234375,0.515625 0.546875,0.515625 0.234375,0 0.53125,-0.125 0.6875,-0.4375 0.046875,-0.09375 0.234375,-0.8125 0.34375,-1.234375 l 0.453125,-1.859375 z m 0,0"
             id="path2"
             style="stroke-width:0.501509" />
        </g>
      </g>
    </g>
    <path
       style="fill:none;stroke:#000000;stroke-width:0.365;stroke-dasharray:none;marker-start:url(#marker7);marker-end:url(#marker7)"
       d="m 94.300052,116.57671 c -1.62949,2.55957 -2.471172,5.67001 -0.125595,8.97762"
       id="path8"
       sodipodi:nodetypes="cc" />
    <g
       inkscape:label=""
       transform="translate(87.246156,118.47005)"
       id="g14">
      <g
         fill="#000000"
         fill-opacity="1"
         id="g13"
         transform="matrix(0.352778,0,0,0.352778,-0.99523,-0.627459)">
        <g
           id="g12"
           transform="translate(1.993,10.888)">
          <path
             d="m 9.5625,-5.21875 c 0,-2.015625 -1.140625,-3.890625 -3.328125,-3.890625 -2.703125,0 -5.40625,2.953125 -5.40625,5.890625 0,1.796875 1.109375,3.421875 3.21875,3.421875 1.28125,0 2.8125,-0.5 4.28125,-1.734375 0.28125,1.15625 0.921875,1.734375 1.8125,1.734375 1.109375,0 1.671875,-1.15625 1.671875,-1.421875 0,-0.1875 -0.140625,-0.1875 -0.203125,-0.1875 -0.171875,0 -0.1875,0.0625 -0.25,0.234375 -0.1875,0.515625 -0.65625,0.96875 -1.15625,0.96875 -0.640625,0 -0.640625,-1.328125 -0.640625,-2.578125 2.109375,-2.53125 2.609375,-5.125 2.609375,-5.15625 0,-0.1875 -0.171875,-0.1875 -0.234375,-0.1875 -0.1875,0 -0.203125,0.0625 -0.28125,0.4375 -0.28125,0.90625 -0.8125,2.515625 -2.09375,4.21875 z m -1.296875,3.1875 C 6.4375,-0.390625 4.8125,-0.203125 4.09375,-0.203125 c -1.46875,0 -1.890625,-1.3125 -1.890625,-2.28125 0,-0.875 0.46875,-2.984375 1.109375,-4.125 0.84375,-1.453125 2,-2.09375 2.921875,-2.09375 2,0 2,2.625 2,4.359375 0,0.515625 -0.015625,1.0625 -0.015625,1.578125 0,0.40625 0.015625,0.515625 0.046875,0.734375 z m 0,0"
             id="path11" />
        </g>
      </g>
    </g>
    <g
       inkscape:label=""
       transform="translate(60.316715,113.85237)"
       id="g15">
      <g
         fill="#000000"
         fill-opacity="1"
         id="g3"
         transform="matrix(0.352778,0,0,0.352778,-1.04484,-0.700484)">
        <g
           id="use2"
           transform="translate(4.9569998,16.719999)">
          <path
             d="m 11.046875,-12.328125 c -0.25,0.21875 -1.015625,0.953125 -1.015625,1.234375 0,0.203125 0.1875,0.390625 0.40625,0.390625 0.1875,0 0.265625,-0.125 0.40625,-0.328125 0.5,-0.625 1.046875,-1.015625 1.53125,-1.28125 0.203125,-0.125 0.34375,-0.1875 0.34375,-0.40625 0,-0.1875 -0.15625,-0.296875 -0.28125,-0.390625 -0.578125,-0.40625 -0.71875,-0.953125 -0.78125,-1.203125 -0.0625,-0.171875 -0.125,-0.421875 -0.421875,-0.421875 -0.125,0 -0.375,0.09375 -0.375,0.40625 0,0.171875 0.125,0.671875 0.515625,1.234375 H 4.4375 c -0.34375,0 -0.703125,0 -0.703125,0.390625 0,0.375 0.375,0.375 0.703125,0.375 z m 0,0"
             id="path14" />
        </g>
      </g>
      <g
         fill="#000000"
         fill-opacity="1"
         id="g4"
         transform="matrix(0.352778,0,0,0.352778,-1.04484,-0.700484)">
        <g
           id="use3"
           transform="translate(1.993,21.943001)">
          <path
             d="m 6.109375,-6.5625 h 3.46875 c 2.859375,0 5.703125,-2.109375 5.703125,-4.46875 0,-1.609375 -1.359375,-3.078125 -3.96875,-3.078125 h -6.375 c -0.390625,0 -0.578125,0 -0.578125,0.390625 0,0.203125 0.1875,0.203125 0.5,0.203125 1.25,0 1.25,0.171875 1.25,0.40625 0,0.03125 0,0.15625 -0.078125,0.46875 L 3.25,-1.53125 c -0.1875,0.71875 -0.234375,0.9375 -1.6875,0.9375 -0.390625,0 -0.59375,0 -0.59375,0.359375 C 0.96875,0 1.15625,0 1.28125,0 1.671875,0 2.09375,-0.046875 2.484375,-0.046875 h 2.40625 C 5.28125,-0.046875 5.71875,0 6.109375,0 6.28125,0 6.5,0 6.5,-0.390625 6.5,-0.59375 6.328125,-0.59375 6.015625,-0.59375 4.765625,-0.59375 4.75,-0.75 4.75,-0.953125 c 0,-0.09375 0.015625,-0.25 0.046875,-0.34375 z m 1.484375,-6.140625 c 0.1875,-0.765625 0.28125,-0.8125 1.078125,-0.8125 h 2.046875 c 1.546875,0 2.828125,0.5 2.828125,2.046875 0,0.546875 -0.265625,2.296875 -1.21875,3.25 -0.34375,0.375 -1.34375,1.15625 -3.21875,1.15625 h -2.90625 z m 0,0"
             id="path15" />
        </g>
      </g>
    </g>
    <g
       inkscape:label=""
       transform="translate(88.214817,66.580583)"
       id="g20">
      <g
         fill="#000000"
         fill-opacity="1"
         id="g17"
         transform="matrix(0.352778,0,0,0.352778,-1.03933,-0.700484)">
        <g
           id="g16"
           transform="translate(6.211,16.719999)">
          <path
             d="m 11.046875,-12.328125 c -0.25,0.21875 -1.015625,0.953125 -1.015625,1.234375 0,0.203125 0.1875,0.390625 0.40625,0.390625 0.1875,0 0.265625,-0.125 0.40625,-0.328125 0.5,-0.625 1.046875,-1.015625 1.53125,-1.28125 0.203125,-0.125 0.34375,-0.1875 0.34375,-0.40625 0,-0.1875 -0.15625,-0.296875 -0.28125,-0.390625 -0.578125,-0.40625 -0.71875,-0.953125 -0.78125,-1.203125 -0.0625,-0.171875 -0.125,-0.421875 -0.421875,-0.421875 -0.125,0 -0.375,0.09375 -0.375,0.40625 0,0.171875 0.125,0.671875 0.515625,1.234375 H 4.4375 c -0.34375,0 -0.703125,0 -0.703125,0.390625 0,0.375 0.375,0.375 0.703125,0.375 z m 0,0"
             id="path16" />
        </g>
      </g>
      <g
         fill="#000000"
         fill-opacity="1"
         id="g19"
         transform="matrix(0.352778,0,0,0.352778,-1.03933,-0.700484)">
        <g
           id="g18"
           transform="translate(1.993,21.943001)">
          <path
             d="m 15.28125,-11.9375 c 0.234375,-0.890625 0.5625,-1.515625 2.125,-1.578125 0.0625,0 0.3125,-0.01563 0.3125,-0.359375 0,-0.234375 -0.1875,-0.234375 -0.265625,-0.234375 -0.40625,0 -1.46875,0.04687 -1.875,0.04687 h -1 c -0.28125,0 -0.65625,-0.04687 -0.9375,-0.04687 -0.125,0 -0.375,0 -0.375,0.390625 0,0.203125 0.15625,0.203125 0.3125,0.203125 1.234375,0.04687 1.3125,0.515625 1.3125,0.890625 0,0.1875 -0.01563,0.25 -0.07813,0.546875 l -2.34375,9.3125 L 8.0625,-13.75 c -0.15625,-0.34375 -0.171875,-0.359375 -0.625,-0.359375 H 4.921875 c -0.421875,0 -0.609375,0 -0.609375,0.390625 0,0.203125 0.15625,0.203125 0.546875,0.203125 0.09375,0 1.3125,0 1.3125,0.1875 0,0.04687 -0.03125,0.21875 -0.0625,0.265625 l -2.75,10.953125 C 3.125,-1.09375 2.625,-0.65625 1.265625,-0.59375 c -0.109375,0 -0.3125,0.015625 -0.3125,0.390625 C 0.953125,0 1.15625,0 1.21875,0 1.625,0 2.6875,-0.046875 3.09375,-0.046875 h 1 C 4.375,-0.046875 4.734375,0 5.015625,0 c 0.15625,0 0.375,0 0.375,-0.390625 0,-0.1875 -0.203125,-0.203125 -0.28125,-0.203125 C 4.421875,-0.625 3.765625,-0.75 3.765625,-1.484375 3.765625,-1.65625 3.796875,-1.84375 3.84375,-2 L 6.625,-13.0625 c 0.125,0.21875 0.125,0.25 0.21875,0.4375 L 11.75,-0.375 C 11.859375,-0.125 11.890625,0 12.078125,0 c 0.21875,0 0.234375,-0.0625 0.3125,-0.40625 z m 0,0"
             id="path17" />
        </g>
      </g>
    </g>
    <g
       inkscape:label=""
       transform="translate(38.876492,85.567111)"
       id="g22">
      <g
         fill="#000000"
         fill-opacity="1"
         id="g5"
         transform="matrix(0.352778,0,0,0.352778,-1.03933,-0.700484)">
        <g
           id="use4"
           transform="translate(8.3660002,16.719999)">
          <path
             d="m 11.046875,-12.328125 c -0.25,0.21875 -1.015625,0.953125 -1.015625,1.234375 0,0.203125 0.1875,0.390625 0.40625,0.390625 0.1875,0 0.265625,-0.125 0.40625,-0.328125 0.5,-0.625 1.046875,-1.015625 1.53125,-1.28125 0.203125,-0.125 0.34375,-0.1875 0.34375,-0.40625 0,-0.1875 -0.15625,-0.296875 -0.28125,-0.390625 -0.578125,-0.40625 -0.71875,-0.953125 -0.78125,-1.203125 -0.0625,-0.171875 -0.125,-0.421875 -0.421875,-0.421875 -0.125,0 -0.375,0.09375 -0.375,0.40625 0,0.171875 0.125,0.671875 0.515625,1.234375 H 4.4375 c -0.34375,0 -0.703125,0 -0.703125,0.390625 0,0.375 0.375,0.375 0.703125,0.375 z m 0,0"
             id="path20" />
        </g>
      </g>
      <g
         fill="#000000"
         fill-opacity="1"
         id="g6"
         transform="matrix(0.352778,0,0,0.352778,-1.03933,-0.700484)">
        <g
           id="use5"
           transform="translate(1.993,21.943001)">
          <path
             d="M 6.140625,-6.734375 H 8.125 c 1.5625,0 1.6875,0.359375 1.6875,0.953125 0,0.265625 -0.046875,0.5625 -0.140625,1.015625 -0.046875,0.078125 -0.0625,0.1875 -0.0625,0.21875 0,0.140625 0.078125,0.234375 0.21875,0.234375 0.171875,0 0.1875,-0.09375 0.265625,-0.421875 l 1.203125,-4.8125 c 0,-0.078125 -0.0625,-0.203125 -0.203125,-0.203125 -0.1875,0 -0.203125,0.078125 -0.296875,0.4375 -0.421875,1.546875 -0.84375,1.984375 -2.640625,1.984375 h -1.875 L 7.625,-12.6875 c 0.1875,-0.71875 0.21875,-0.78125 1.078125,-0.78125 h 2.765625 c 2.578125,0 2.953125,0.765625 2.953125,2.234375 0,0.125 0,0.578125 -0.0625,1.109375 -0.03125,0.09375 -0.0625,0.359375 -0.0625,0.4375 0,0.171875 0.09375,0.234375 0.21875,0.234375 0.15625,0 0.234375,-0.09375 0.28125,-0.46875 l 0.421875,-3.609375 c 0,-0.0625 0.04687,-0.265625 0.04687,-0.3125 0,-0.21875 -0.1875,-0.21875 -0.5625,-0.21875 H 4.92187 c -0.390625,0 -0.609375,0 -0.609375,0.375 0,0.21875 0.15625,0.21875 0.5,0.21875 1.28125,0 1.28125,0.140625 1.28125,0.375 0,0.09375 -0.015625,0.1875 -0.078125,0.40625 L 3.21875,-1.53125 C 3.03125,-0.8125 3,-0.59375 1.546875,-0.59375 c -0.390625,0 -0.59375,0 -0.59375,0.359375 C 0.953125,0 1.140625,0 1.265625,0 1.65625,0 2.0625,-0.046875 2.453125,-0.046875 h 2.6875 C 5.59375,-0.046875 6.09375,0 6.546875,0 c 0.1875,0 0.4375,0 0.4375,-0.375 0,-0.21875 -0.125,-0.21875 -0.578125,-0.21875 -1.640625,0 -1.671875,-0.15625 -1.671875,-0.453125 0,-0.109375 0.03125,-0.28125 0.078125,-0.421875 z m 0,0"
             id="path21" />
        </g>
      </g>
      <g
         fill="#000000"
         fill-opacity="1"
         id="g7"
         transform="matrix(0.352778,0,0,0.352778,-1.03933,-0.700484)">
        <g
           id="use6"
           transform="translate(15.089,25.042)">
          <path
             d="M 4.3125,-1.703125 C 4.25,-1.46875 4.25,-1.4375 4.046875,-1.15625 c -0.3125,0.390625 -0.953125,1.015625 -1.625,1.015625 -0.578125,0 -0.921875,-0.53125 -0.921875,-1.375 0,-0.796875 0.453125,-2.40625 0.71875,-3 0.5,-1 1.171875,-1.515625 1.71875,-1.515625 0.953125,0 1.140625,1.171875 1.140625,1.28125 0,0.015625 -0.046875,0.203125 -0.0625,0.234375 z M 5.234375,-5.375 C 5.078125,-5.75 4.6875,-6.328125 3.9375,-6.328125 c -1.609375,0 -3.359375,2.09375 -3.359375,4.21875 0,1.421875 0.828125,2.25 1.796875,2.25 0.796875,0 1.46875,-0.609375 1.875,-1.09375 0.140625,0.859375 0.8125,1.09375 1.25,1.09375 0.421875,0 0.765625,-0.25 1.03125,-0.765625 C 6.75,-1.125 6.953125,-2 6.953125,-2.046875 6.953125,-2.125 6.90625,-2.1875 6.8125,-2.1875 c -0.125,0 -0.140625,0.078125 -0.203125,0.296875 -0.21875,0.84375 -0.484375,1.75 -1.078125,1.75 -0.40625,0 -0.4375,-0.375 -0.4375,-0.65625 0,-0.34375 0.046875,-0.5 0.171875,-1.046875 0.09375,-0.359375 0.171875,-0.6875 0.28125,-1.09375 0.53125,-2.15625 0.65625,-2.671875 0.65625,-2.75 0,-0.203125 -0.15625,-0.359375 -0.359375,-0.359375 -0.46875,0 -0.578125,0.5 -0.609375,0.671875 z m 0,0"
             id="path22" />
        </g>
        <g
           id="use7"
           transform="translate(22.462948,25.042)">
          <path
             d="m 2.890625,-5.765625 h 1.3125 c 0.265625,0 0.421875,0 0.421875,-0.265625 C 4.625,-6.1875 4.53125,-6.1875 4.25,-6.1875 H 2.984375 l 0.53125,-2.09375 c 0.0625,-0.203125 0.0625,-0.21875 0.0625,-0.328125 0,-0.21875 -0.1875,-0.359375 -0.375,-0.359375 -0.125,0 -0.453125,0.046875 -0.5625,0.5 l -0.5625,2.28125 h -1.34375 c -0.296875,0 -0.421875,0 -0.421875,0.28125 0,0.140625 0.109375,0.140625 0.375,0.140625 h 1.28125 l -0.953125,3.78125 c -0.109375,0.5 -0.15625,0.65625 -0.15625,0.84375 0,0.671875 0.46875,1.28125 1.28125,1.28125 1.4375,0 2.21875,-2.09375 2.21875,-2.1875 0,-0.09375 -0.0625,-0.140625 -0.140625,-0.140625 -0.03125,0 -0.09375,0 -0.109375,0.0625 -0.015625,0.015625 -0.03125,0.03125 -0.140625,0.265625 -0.296875,0.71875 -0.953125,1.71875 -1.78125,1.71875 -0.4375,0 -0.46875,-0.359375 -0.46875,-0.671875 0,-0.015625 0,-0.296875 0.046875,-0.46875 z m 0,0"
             id="path10" />
        </g>
      </g>
    </g>
    <path
       style="fill:none;stroke:#000000;stroke-width:0.265;stroke-dasharray:1.59, 1.59;stroke-dashoffset:0"
       d="M 39.909784,81.111147 60.279138,46.429818"
       id="path23"
       sodipodi:nodetypes="cc" />
    <path
       style="fill:none;stroke:#000000;stroke-width:0.265;stroke-dasharray:1.59, 1.59;stroke-dashoffset:0"
       d="M 86.794093,61.866623 60.26515,46.41562"
       id="path24"
       sodipodi:nodetypes="cc" />
    <path
       style="fill:#008000;stroke:#008000;stroke-width:0.565;stroke-dasharray:none;stroke-dashoffset:0;marker-end:url(#marker5)"
       d="M 67.162097,97.772512 60.704202,48.434204"
       id="path25"
       sodipodi:nodetypes="cc" />
    <g
       inkscape:label=""
       transform="translate(63.029016,52.244378)"
       id="g32">
      <g
         fill="#000000"
         fill-opacity="1"
         id="g27"
         transform="matrix(0.352778,0,0,0.352778,-1.03933,-0.700484)">
        <g
           id="g26"
           transform="translate(7.6830001,16.719999)">
          <path
             d="m 11.046875,-12.328125 c -0.25,0.21875 -1.015625,0.953125 -1.015625,1.234375 0,0.203125 0.1875,0.390625 0.40625,0.390625 0.1875,0 0.265625,-0.125 0.40625,-0.328125 0.5,-0.625 1.046875,-1.015625 1.53125,-1.28125 0.203125,-0.125 0.34375,-0.1875 0.34375,-0.40625 0,-0.1875 -0.15625,-0.296875 -0.28125,-0.390625 -0.578125,-0.40625 -0.71875,-0.953125 -0.78125,-1.203125 -0.0625,-0.171875 -0.125,-0.421875 -0.421875,-0.421875 -0.125,0 -0.375,0.09375 -0.375,0.40625 0,0.171875 0.125,0.671875 0.515625,1.234375 H 4.4375 c -0.34375,0 -0.703125,0 -0.703125,0.390625 0,0.375 0.375,0.375 0.703125,0.375 z m 0,0"
             id="path26" />
        </g>
      </g>
      <g
         fill="#000000"
         fill-opacity="1"
         id="g29"
         transform="matrix(0.352778,0,0,0.352778,-1.03933,-0.700484)">
        <g
           id="g28"
           transform="translate(1.993,21.943001)">
          <path
             d="M 6.140625,-6.734375 H 8.125 c 1.5625,0 1.6875,0.359375 1.6875,0.953125 0,0.265625 -0.046875,0.5625 -0.140625,1.015625 -0.046875,0.078125 -0.0625,0.1875 -0.0625,0.21875 0,0.140625 0.078125,0.234375 0.21875,0.234375 0.171875,0 0.1875,-0.09375 0.265625,-0.421875 l 1.203125,-4.8125 c 0,-0.078125 -0.0625,-0.203125 -0.203125,-0.203125 -0.1875,0 -0.203125,0.078125 -0.296875,0.4375 -0.421875,1.546875 -0.84375,1.984375 -2.640625,1.984375 h -1.875 L 7.625,-12.6875 c 0.1875,-0.71875 0.21875,-0.78125 1.078125,-0.78125 h 2.765625 c 2.578125,0 2.953125,0.765625 2.953125,2.234375 0,0.125 0,0.578125 -0.0625,1.109375 -0.03125,0.09375 -0.0625,0.359375 -0.0625,0.4375 0,0.171875 0.09375,0.234375 0.21875,0.234375 0.15625,0 0.234375,-0.09375 0.28125,-0.46875 l 0.421875,-3.609375 c 0,-0.0625 0.04687,-0.265625 0.04687,-0.3125 0,-0.21875 -0.1875,-0.21875 -0.5625,-0.21875 H 4.92187 c -0.390625,0 -0.609375,0 -0.609375,0.375 0,0.21875 0.15625,0.21875 0.5,0.21875 1.28125,0 1.28125,0.140625 1.28125,0.375 0,0.09375 -0.015625,0.1875 -0.078125,0.40625 L 3.21875,-1.53125 C 3.03125,-0.8125 3,-0.59375 1.546875,-0.59375 c -0.390625,0 -0.59375,0 -0.59375,0.359375 C 0.953125,0 1.140625,0 1.265625,0 1.65625,0 2.0625,-0.046875 2.453125,-0.046875 h 2.6875 C 5.59375,-0.046875 6.09375,0 6.546875,0 c 0.1875,0 0.4375,0 0.4375,-0.375 0,-0.21875 -0.125,-0.21875 -0.578125,-0.21875 -1.640625,0 -1.671875,-0.15625 -1.671875,-0.453125 0,-0.109375 0.03125,-0.28125 0.078125,-0.421875 z m 0,0"
             id="path27" />
        </g>
      </g>
      <g
         fill="#000000"
         fill-opacity="1"
         id="g31"
         transform="matrix(0.352778,0,0,0.352778,-1.03933,-0.700484)">
        <g
           id="g30"
           transform="translate(15.089,25.042)">
          <path
             d="m 10.71875,-9.96875 c 0,-0.125 -0.109375,-0.125 -0.140625,-0.125 -0.01563,0 -0.07813,0 -0.1875,0.140625 l -1,1.203125 c -0.5,-0.859375 -1.28125,-1.34375 -2.359375,-1.34375 -3.09375,0 -6.3125,3.140625 -6.3125,6.515625 0,2.390625 1.671875,3.875 3.765625,3.875 1.15625,0 2.15625,-0.484375 2.984375,-1.1875 1.25,-1.046875 1.625,-2.4375 1.625,-2.546875 0,-0.140625 -0.109375,-0.140625 -0.15625,-0.140625 -0.125,0 -0.140625,0.09375 -0.171875,0.15625 -0.65625,2.234375 -2.59375,3.3125 -4.03125,3.3125 -1.515625,0 -2.84375,-0.984375 -2.84375,-3.015625 0,-0.453125 0.140625,-2.953125 1.765625,-4.828125 0.796875,-0.921875 2.140625,-1.734375 3.5,-1.734375 1.578125,0 2.28125,1.3125 2.28125,2.78125 0,0.359375 -0.046875,0.6875 -0.046875,0.734375 0,0.140625 0.140625,0.140625 0.1875,0.140625 0.15625,0 0.171875,-0.015625 0.234375,-0.28125 z m 0,0"
             id="path29" />
        </g>
      </g>
    </g>
    <path
       style="fill:none;stroke:#000000;stroke-width:0.365001;stroke-dasharray:none;stroke-dashoffset:0"
       id="path32"
       sodipodi:type="arc"
       sodipodi:cx="123.34577"
       sodipodi:cy="83.694298"
       sodipodi:rx="11.882525"
       sodipodi:ry="11.882525"
       sodipodi:start="4.1603032"
       sodipodi:end="4.1569358"
       sodipodi:open="true"
       sodipodi:arc-type="arc"
       d="m 117.11381,73.57713 a 11.882525,11.882525 0 0 1 16.34388,3.876693 11.882525,11.882525 0 0 1 -3.86293,16.347136 11.882525,11.882525 0 0 1 -16.35038,-3.84917 11.882525,11.882525 0 0 1 3.8354,-16.353616" />
    <path
       id="path33"
       style="fill:#808080;stroke:#000000;stroke-width:0.365001;stroke-dasharray:none;stroke-dashoffset:0"
       d="m 113.04375,83.197506 c -0.30722,-0.01163 -0.65486,0.227432 -0.93483,0.367419 -0.19055,0.09527 -0.51356,-0.372262 -0.64079,-0.0088 a 11.882525,11.882525 0 0 0 1.77612,6.395475 11.882525,11.882525 0 0 0 16.35042,3.849378 11.882525,11.882525 0 0 0 1.33584,-0.962215 c -0.0353,-0.03109 -0.0678,-0.06477 -0.0935,-0.103353 -0.19188,-0.287813 -0.0947,-0.505267 -0.51677,-0.645956 -0.54234,-0.180778 -1.10046,0.836891 -1.54978,0.387574 -0.39429,-0.39429 -0.003,-1.563219 -0.12919,-2.066541 -0.0795,-0.31809 -0.29117,-0.590958 -0.38757,-0.904337 -0.24746,-0.804238 0.14361,-0.702832 -0.51676,-1.033012 -0.87462,-0.437312 -2.65048,1.196044 -3.35794,1.549776 -0.4885,0.244245 -0.51719,-1.485886 -0.77463,-1.678967 -0.10892,-0.08169 -0.25549,-0.09617 -0.38757,-0.129191 -0.6587,-0.164674 -3.75435,0.37873 -3.8747,0.258382 -0.0304,-0.03044 0.0193,-0.09068 0,-0.129191 -0.60113,-1.202208 -0.16068,-2.369979 -0.51676,-3.616317 -0.004,-0.01405 -0.47637,-0.0067 -0.51677,0 -0.76782,0.127971 -1.72636,0.236861 -2.45411,0.516764 -0.35941,0.138234 -0.68113,0.359853 -1.03301,0.516248 -0.21105,0.0938 -0.44937,-0.218576 -0.51677,-0.387057 -0.048,-0.11992 0.0509,-0.268857 0,-0.387573 -0.0848,-0.197858 -0.25841,-0.344555 -0.38757,-0.516764 -0.0861,-0.08611 -0.20388,-0.149468 -0.25838,-0.258382 -0.0525,-0.105095 -0.0762,-0.540864 -0.12868,-0.645956 -0.13174,-0.263468 -0.30195,-0.360443 -0.48627,-0.367419 z" />
    <path
       id="path34"
       style="fill:#ffffff;stroke:#000000;stroke-width:0.365001;stroke-dasharray:none;stroke-dashoffset:0"
       d="m 123.5692,71.813704 a 11.882525,11.882525 0 0 0 -6.45542,1.7632 l -0.0341,0.02119 a 11.882525,11.882525 0 0 0 -5.07153,6.544303 c -7.7e-4,0.645788 -0.15259,2.006964 -0.0284,2.131136 0.0913,0.09133 0.25842,0 0.38757,0 0.24338,0 1.62282,0.03972 1.80816,0 0.0233,-0.005 2.08395,-0.724339 2.19573,-0.775146 0.19347,-0.08794 0.9784,-0.801938 1.2914,-0.645439 0.21482,0.107413 -0.89381,2.30438 -1.03302,2.582788 -0.0989,0.197816 -0.23026,0.101069 -0.38757,0.258382 -0.0609,0.06088 -0.0609,0.197496 0,0.258382 0.31293,0.312928 2.90613,-0.364448 2.97088,-0.387573 0.27467,-0.0981 0.52252,-0.303019 0.77463,-0.387056 0.0817,-0.02723 0.18136,0.03851 0.25838,0 0.0385,-0.01926 -0.0305,-0.09874 0,-0.129191 0.0201,-0.02014 0.49663,-0.02014 0.51676,0 0.12638,0.126385 0,1.112784 0,1.291394 0,0.428444 0.0814,0.808251 0.25839,1.162203 0.12752,0.255039 0,1.120657 0,1.421101 0,0.133617 -0.0304,0.178582 0.12919,0.258383 0.52342,0.261712 0.95867,-0.424139 1.29139,-0.645956 0.11328,-0.07552 0.27084,-0.05915 0.38758,-0.129191 0.26104,-0.156628 0.39265,-0.47709 0.64595,-0.645955 0.24668,-0.164451 0.67883,-0.162068 0.90382,-0.387057 0.10976,-0.109762 0.1342,-0.294435 0.25838,-0.387573 0.53899,-0.404241 0.55628,1.440342 0.77515,1.549776 0.0909,0.04546 1.41315,-0.06087 1.54978,-0.129191 0.11786,-0.05893 0.64278,-0.519423 0.77463,-0.387573 0.0415,0.04147 0.14388,0.789842 0.25838,0.904337 0.26206,0.262067 1.29272,-0.320986 1.67897,0.258383 0.36982,0.554727 0.17452,3.790844 0.25838,3.874699 0.0733,0.07334 1.24106,-0.732772 1.29191,-0.775147 0.76291,-0.635758 1.35844,-0.406829 2.07067,-0.09198 a 11.882525,11.882525 0 0 0 0.16227,-12.735657 11.882525,11.882525 0 0 0 -9.88829,-5.639966 z" />
    <g
       inkscape:label=""
       transform="matrix(1.6894694,1.0126731,-0.96336659,1.7759389,123.33977,72.055167)"
       id="g37"
       style="stroke-width:0.501509">
      <g
         fill="#000000"
         fill-opacity="1"
         id="g36"
         transform="matrix(0.352778,0,0,0.352778,-0.901524,-0.627459)"
         style="stroke-width:0.501509">
        <g
           id="g35"
           transform="translate(1.993,10.888)"
           style="stroke-width:0.501509">
          <path
             d="M 4.25,-6.046875 C 4.296875,-6.171875 4.8125,-7.203125 5.578125,-7.875 6.109375,-8.359375 6.8125,-8.703125 7.625,-8.703125 c 0.828125,0 1.109375,0.625 1.109375,1.453125 0,0.125 0,0.53125 -0.25,1.5 L 7.96875,-3.609375 C 7.8125,-3 7.421875,-1.46875 7.375,-1.234375 c -0.078125,0.3125 -0.203125,0.84375 -0.203125,0.921875 0,0.296875 0.21875,0.515625 0.53125,0.515625 0.625,0 0.71875,-0.46875 0.90625,-1.21875 l 1.25,-4.9375 c 0.03125,-0.15625 1.109375,-2.75 3.375,-2.75 0.828125,0 1.125,0.625 1.125,1.453125 0,1.15625 -0.8125,3.40625 -1.265625,4.640625 -0.1875,0.5 -0.28125,0.765625 -0.28125,1.140625 0,0.9375 0.640625,1.671875 1.625,1.671875 1.921875,0 2.640625,-3.03125 2.640625,-3.15625 0,-0.109375 -0.07813,-0.1875 -0.203125,-0.1875 -0.1875,0 -0.203125,0.0625 -0.3125,0.40625 -0.46875,1.65625 -1.234375,2.53125 -2.0625,2.53125 -0.203125,0 -0.53125,-0.03125 -0.53125,-0.6875 0,-0.53125 0.25,-1.203125 0.328125,-1.421875 0.375,-1 1.296875,-3.4375 1.296875,-4.625 0,-1.25 -0.71875,-2.171875 -2.296875,-2.171875 -1.375,0 -2.5,0.78125 -3.3125,2 -0.0625,-1.109375 -0.75,-2 -2.296875,-2 -1.84375,0 -2.8125,1.296875 -3.1875,1.8125 -0.0625,-1.171875 -0.90625,-1.8125 -1.8125,-1.8125 -0.59375,0 -1.078125,0.296875 -1.46875,1.078125 -0.375,0.734375 -0.65625,2 -0.65625,2.078125 0,0.09375 0.078125,0.1875 0.21875,0.1875 0.171875,0 0.1875,-0.015625 0.3125,-0.5 0.3125,-1.21875 0.703125,-2.4375 1.53125,-2.4375 0.46875,0 0.640625,0.34375 0.640625,0.953125 0,0.453125 -0.203125,1.265625 -0.359375,1.90625 l -0.578125,2.234375 c -0.078125,0.390625 -0.296875,1.3125 -0.40625,1.6875 -0.140625,0.53125 -0.375,1.515625 -0.375,1.609375 0,0.296875 0.234375,0.515625 0.546875,0.515625 0.234375,0 0.53125,-0.125 0.6875,-0.4375 0.046875,-0.09375 0.234375,-0.8125 0.34375,-1.234375 l 0.453125,-1.859375 z m 0,0"
             id="path35"
             style="stroke-width:0.501509" />
        </g>
      </g>
    </g>
    <path
       style="fill:none;stroke:#000000;stroke-width:0.365001;stroke-dasharray:none;stroke-dashoffset:0"
       id="path37"
       sodipodi:type="arc"
       sodipodi:cx="67.032936"
       sodipodi:cy="97.643349"
       sodipodi:rx="4.7788415"
       sodipodi:ry="4.7788415"
       sodipodi:start="4.1603032"
       sodipodi:end="4.1569358"
       sodipodi:open="true"
       sodipodi:arc-type="arc"
       d="m 64.526604,93.574488 a 4.7788415,4.7788415 0 0 1 6.573081,1.559105 4.7788415,4.7788415 0 0 1 -1.55357,6.574387 4.7788415,4.7788415 0 0 1 -6.575697,-1.54803 4.7788415,4.7788415 0 0 1 1.542499,-6.576999" />
    <path
       style="fill:none;stroke:#000000;stroke-width:0.365001;stroke-dasharray:none;stroke-dashoffset:0"
       d="M 71.682622,97.643356 112.49651,88.989777"
       id="path38" />
  </g>
</svg>
