<?xml version="1.0" encoding="UTF-8" standalone="no"?>
<!-- Created with Inkscape (http://www.inkscape.org/) -->

<svg
   width="112.58216mm"
   height="93.797173mm"
   viewBox="0 0 112.58216 93.797173"
   version="1.1"
   id="svg1"
   xml:space="preserve"
   inkscape:export-filename="Forças_9.png"
   inkscape:export-xdpi="300"
   inkscape:export-ydpi="300"
   inkscape:version="1.3.2 (091e20e, 2023-11-25, custom)"
   sodipodi:docname="Forças_9.svg"
   xmlns:inkscape="http://www.inkscape.org/namespaces/inkscape"
   xmlns:sodipodi="http://sodipodi.sourceforge.net/DTD/sodipodi-0.dtd"
   xmlns="http://www.w3.org/2000/svg"
   xmlns:svg="http://www.w3.org/2000/svg"><sodipodi:namedview
     id="namedview1"
     pagecolor="#ffffff"
     bordercolor="#000000"
     borderopacity="0.25"
     inkscape:showpageshadow="2"
     inkscape:pageopacity="0.0"
     inkscape:pagecheckerboard="0"
     inkscape:deskcolor="#d1d1d1"
     inkscape:document-units="mm"
     inkscape:zoom="1.4627806"
     inkscape:cx="165.43834"
     inkscape:cy="244.39755"
     inkscape:window-width="1920"
     inkscape:window-height="1009"
     inkscape:window-x="-8"
     inkscape:window-y="-8"
     inkscape:window-maximized="1"
     inkscape:current-layer="layer1"
     inkscape:export-bgcolor="#ffffffff" /><defs
     id="defs1"><marker
       style="overflow:visible"
       id="Triangle"
       refX="0"
       refY="0"
       orient="auto-start-reverse"
       inkscape:stockid="Triangle arrow"
       markerWidth="1"
       markerHeight="1"
       viewBox="0 0 1 1"
       inkscape:isstock="true"
       inkscape:collect="always"
       preserveAspectRatio="xMidYMid"><path
         transform="scale(0.5)"
         style="fill:context-stroke;fill-rule:evenodd;stroke:context-stroke;stroke-width:1pt"
         d="M 5.77,0 -2.88,5 V -5 Z"
         id="path135" /></marker></defs><g
     inkscape:label="Camada 1"
     inkscape:groupmode="layer"
     id="layer1"
     transform="translate(-27.503433,-85.283534)"><g
       inkscape:label="Layer 1"
       id="layer1-1"
       transform="translate(56.527695,26.791671)"><circle
         style="fill:#ffffff;stroke:#000000;stroke-width:0.7;stroke-miterlimit:4;stroke-dasharray:none"
         id="path817"
         cx="34.883839"
         cy="138.54631"
         r="5.2117558"
         inkscape:export-filename="/home/pv/Imagens/massa-mola-amortecedor-força.png"
         inkscape:export-xdpi="96"
         inkscape:export-ydpi="96" /><rect
         style="fill:#ffffff;stroke:#000000;stroke-width:0.7;stroke-miterlimit:4;stroke-dasharray:none"
         id="rect815"
         width="41.159508"
         height="33.675961"
         x="27.801199"
         y="99.658592"
         inkscape:export-filename="/home/pv/Imagens/massa-mola-amortecedor-força.png"
         inkscape:export-xdpi="96"
         inkscape:export-ydpi="96"
         ry="4.8019919" /><circle
         style="fill:#ffffff;stroke:#000000;stroke-width:0.7;stroke-miterlimit:4;stroke-dasharray:none"
         id="circle2735"
         cx="60.81303"
         cy="138.54631"
         r="5.2117558"
         inkscape:export-filename="/home/pv/Imagens/massa-mola-amortecedor-força.png"
         inkscape:export-xdpi="96"
         inkscape:export-ydpi="96" /></g><g
       transform="rotate(-90,70.769393,156.18522)"
       id="g6265"><path
         inkscape:export-ydpi="96"
         inkscape:export-xdpi="96"
         style="fill:#cccccc;fill-opacity:1;stroke:#000000;stroke-width:0.591977;stroke-miterlimit:4;stroke-dasharray:none"
         d="m 84.559426,162.90993 a 1.2824262,0.80917558 0 0 0 -1.28234,-0.80928 1.2824262,0.80917558 0 0 0 -1.28289,0.80928 1.2824262,0.80917558 0 0 0 0.0496,0.22126 v 5.72229 a 1.2824262,0.80917558 0 0 0 -0.0496,0.21913 1.2824262,0.80917558 0 0 0 1.28289,0.80928 1.2824262,0.80917558 0 0 0 1.28234,-0.80928 1.2824262,0.80917558 0 0 0 -0.0205,-0.14231 h 0.0205 z"
         id="path1619"
         inkscape:connector-curvature="0" /><path
         inkscape:export-ydpi="96"
         inkscape:export-xdpi="96"
         style="fill:#cccccc;stroke:#000000;stroke-width:0.7;stroke-linecap:butt;stroke-linejoin:miter;stroke-miterlimit:4;stroke-dasharray:none;stroke-opacity:1"
         d="m 82.920936,123.439 c 5.5486,0.77136 9.85293,2.19095 15.00276,4.31568 0.65086,-0.53764 1.21248,-0.40761 0.77069,-1.17701 -4.49535,-2.44153 -9.24121,-4.00901 -15.10552,-5.05676 -0.80901,0.28401 -0.80635,1.05991 -0.66793,1.91809 z"
         id="path1606"
         inkscape:connector-curvature="0"
         sodipodi:nodetypes="ccccc" /><path
         sodipodi:nodetypes="ccccc"
         inkscape:connector-curvature="0"
         id="path823"
         d="m 82.920936,153.63755 c 5.5486,0.77137 9.85293,2.19095 15.00276,4.31566 0.65086,-0.53763 1.21248,-0.4076 0.77069,-1.177 -4.49535,-2.44152 -9.24121,-4.00898 -15.10552,-5.05673 -0.80901,0.284 -0.80635,1.05991 -0.66793,1.91807 z"
         style="fill:#cccccc;stroke:#000000;stroke-width:0.7;stroke-linecap:butt;stroke-linejoin:miter;stroke-miterlimit:4;stroke-dasharray:none;stroke-opacity:1" /><path
         style="fill:#cccccc;stroke:#000000;stroke-width:0.7;stroke-linecap:butt;stroke-linejoin:miter;stroke-miterlimit:4;stroke-dasharray:none;stroke-opacity:1"
         d="m 82.920936,143.42534 c 5.5486,0.77136 9.85293,2.19095 15.00276,4.31566 0.65086,-0.53763 1.21248,-0.40761 0.77069,-1.177 -4.49535,-2.44152 -9.24121,-4.00898 -15.10552,-5.05673 -0.80901,0.284 -0.80635,1.0599 -0.66793,1.91807 z"
         id="path827"
         inkscape:connector-curvature="0"
         sodipodi:nodetypes="ccccc" /><path
         sodipodi:nodetypes="ccccc"
         inkscape:connector-curvature="0"
         id="path817-3"
         d="m 99.904276,147.88545 c -6.2408,0.96562 -11.54903,3.16623 -16.29035,6.09769 -1.02218,-0.27267 -1.91202,-0.62956 -1.3176,-1.93093 5.17397,-2.63742 10.63984,-4.85028 16.76948,-6.0977 0.53977,0.35972 1.219214,0.56708 0.83847,1.93094 z"
         style="fill:#ffffff;stroke:#000000;stroke-width:0.7;stroke-linecap:butt;stroke-linejoin:miter;stroke-miterlimit:4;stroke-dasharray:none;stroke-opacity:1" /><path
         style="fill:#ffffff;stroke:#000000;stroke-width:0.7;stroke-linecap:butt;stroke-linejoin:miter;stroke-miterlimit:4;stroke-dasharray:none;stroke-opacity:1"
         d="m 99.904276,158.34674 c -6.2408,0.96562 -11.54903,3.16623 -16.29035,6.09769 -1.02218,-0.27268 -1.91202,-0.62956 -1.3176,-1.93094 5.17397,-2.63741 10.63984,-4.85027 16.76948,-6.09769 0.53977,0.35972 1.219214,0.56708 0.83847,1.93094 z"
         id="path825"
         inkscape:connector-curvature="0"
         sodipodi:nodetypes="ccccc" /><path
         sodipodi:nodetypes="ccccc"
         inkscape:connector-curvature="0"
         id="path839-6"
         d="m 82.920936,132.964 c 5.5486,0.77137 9.85293,2.19096 15.00276,4.31568 0.65086,-0.53763 1.21248,-0.40761 0.77069,-1.177 -4.49535,-2.44154 -9.24121,-4.00901 -15.10552,-5.05676 -0.80901,0.284 -0.80635,1.05991 -0.66793,1.91808 z"
         style="fill:#cccccc;stroke:#000000;stroke-width:0.7;stroke-linecap:butt;stroke-linejoin:miter;stroke-miterlimit:4;stroke-dasharray:none;stroke-opacity:1" /><path
         style="fill:#ffffff;stroke:#000000;stroke-width:0.7;stroke-linecap:butt;stroke-linejoin:miter;stroke-miterlimit:4;stroke-dasharray:none;stroke-opacity:1"
         d="m 99.904276,137.67321 c -6.2408,0.96563 -11.54903,3.16625 -16.29035,6.09772 -1.02218,-0.27268 -1.91202,-0.62957 -1.3176,-1.93094 5.17397,-2.63743 10.63984,-4.8503 16.76948,-6.09773 0.53977,0.35973 1.219214,0.56708 0.83847,1.93095 z"
         id="path829"
         inkscape:connector-curvature="0"
         sodipodi:nodetypes="ccccc" /><path
         sodipodi:nodetypes="ccccc"
         inkscape:connector-curvature="0"
         id="path833"
         d="m 99.904276,127.46094 c -6.2408,0.96563 -11.54903,3.16625 -16.29035,6.09773 -1.02218,-0.27268 -1.91202,-0.62957 -1.3176,-1.93095 5.17397,-2.63743 10.63984,-4.8503 16.76948,-6.09773 0.53977,0.35973 1.219214,0.56708 0.83847,1.93095 z"
         style="fill:#ffffff;stroke:#000000;stroke-width:0.7;stroke-linecap:butt;stroke-linejoin:miter;stroke-miterlimit:4;stroke-dasharray:none;stroke-opacity:1" /><path
         inkscape:connector-curvature="0"
         id="path1610"
         d="m 84.691716,116.79684 a 1.2824262,0.80917558 0 0 0 -1.28234,-0.80928 1.2824262,0.80917558 0 0 0 -1.28289,0.80928 1.2824262,0.80917558 0 0 0 0.0496,0.22126 v 5.72229 a 1.2824262,0.80917558 0 0 0 -0.0496,0.21913 1.2824262,0.80917558 0 0 0 1.28289,0.80928 1.2824262,0.80917558 0 0 0 1.28234,-0.80928 1.2824262,0.80917558 0 0 0 -0.0205,-0.14231 h 0.0205 z"
         style="fill:#ffffff;stroke:#000000;stroke-width:0.591977;stroke-miterlimit:4;stroke-dasharray:none" /></g><g
       id="g19"
       transform="rotate(-90,117.9318,161.88489)"><g
         id="g18"
         transform="translate(61.178163,12.003313)"><path
           style="fill:none;stroke:#000000;stroke-width:0.665001;stroke-dasharray:none"
           d="m 47.570646,107.07917 v 56.79537"
           id="path1" /><path
           style="fill:none;stroke:#000000;stroke-width:0.665001;stroke-dasharray:none"
           d="m 47.570646,109.61145 -7.77771,7.77771"
           id="path2" /><path
           style="fill:none;stroke:#000000;stroke-width:0.665001;stroke-dasharray:none"
           d="m 47.570646,130.30714 -7.77771,7.77771"
           id="path3" /><path
           style="fill:none;stroke:#000000;stroke-width:0.665001;stroke-dasharray:none"
           d="m 47.570646,116.51001 -7.77771,7.77771"
           id="path13" /><path
           style="fill:none;stroke:#000000;stroke-width:0.665001;stroke-dasharray:none"
           d="m 47.570646,123.40857 -7.77771,7.77771"
           id="path14" /><path
           style="fill:none;stroke:#000000;stroke-width:0.665001;stroke-dasharray:none"
           d="m 47.570646,137.2057 -7.77771,7.77771"
           id="path15" /><path
           style="fill:none;stroke:#000000;stroke-width:0.665001;stroke-dasharray:none"
           d="m 47.570646,144.10426 -7.77771,7.77771"
           id="path16" /><path
           style="fill:none;stroke:#000000;stroke-width:0.665001;stroke-dasharray:none"
           d="m 47.570646,151.00282 -7.77771,7.77771"
           id="path17" /><path
           style="fill:none;stroke:#000000;stroke-width:0.665001;stroke-dasharray:none"
           d="m 47.570646,157.90138 -7.77771,7.77771"
           id="path18" /></g></g><rect
       style="fill:#cccccc;stroke:#000000;stroke-width:1.065"
       id="rect19"
       width="2.7131548"
       height="68.552368"
       x="28.035933"
       y="106.35566" /><path
       style="fill:#cccccc;stroke:#000000;stroke-width:1.065"
       d="M 104.18514,126.25213 V 97.311815"
       id="path21" /><path
       style="fill:#cccccc;stroke:#000000;stroke-width:1.065;marker-end:url(#Triangle)"
       d="m 104.00426,112.68636 h 25.32278"
       id="path22" /><g
       inkscape:label=""
       transform="translate(126.97561,98.849305)"
       id="g61"><g
   fill="#000000"
   fill-opacity="1"
   id="g5"
   transform="matrix(0.352778,0,0,0.352778,-0.945621,-0.704673)">
    <g
   id="use4"
   transform="translate(1.993,20.559999)">
      <path
   d="m 11.75,-10.109375 c -0.796875,0.140625 -1.09375,0.734375 -1.09375,1.21875 0,0.59375 0.46875,0.78125 0.8125,0.78125 0.75,0 1.265625,-0.640625 1.265625,-1.3125 0,-1.03125 -1.1875,-1.5 -2.234375,-1.5 -1.5,0 -2.34375,1.484375 -2.5625,1.953125 -0.578125,-1.859375 -2.109375,-1.953125 -2.5625,-1.953125 -2.53125,0 -3.859375,3.234375 -3.859375,3.78125 0,0.109375 0.09375,0.234375 0.265625,0.234375 0.203125,0 0.25,-0.15625 0.296875,-0.25 0.84375,-2.75 2.5,-3.28125 3.21875,-3.28125 1.125,0 1.34375,1.046875 1.34375,1.640625 C 6.640625,-8.25 6.5,-7.6875 6.1875,-6.5 l -0.828125,3.40625 c -0.375,1.484375 -1.09375,2.84375 -2.40625,2.84375 -0.125,0 -0.75,0 -1.265625,-0.3125 0.890625,-0.1875 1.09375,-0.921875 1.09375,-1.21875 0,-0.5 -0.375,-0.796875 -0.84375,-0.796875 -0.59375,0 -1.25,0.515625 -1.25,1.3125 0,1.046875 1.171875,1.515625 2.234375,1.515625 1.1875,0 2.03125,-0.9375 2.5625,-1.953125 C 5.875,-0.25 7.109375,0.25 8.03125,0.25 c 2.53125,0 3.859375,-3.25 3.859375,-3.796875 0,-0.125 -0.09375,-0.21875 -0.25,-0.21875 -0.21875,0 -0.234375,0.125 -0.3125,0.328125 -0.671875,2.171875 -2.109375,3.1875 -3.21875,3.1875 -0.875,0 -1.34375,-0.640625 -1.34375,-1.65625 0,-0.546875 0.09375,-0.9375 0.5,-2.578125 L 8.125,-7.859375 C 8.5,-9.34375 9.34375,-10.4375 10.484375,-10.4375 c 0.04687,0 0.734375,0 1.265625,0.328125 z m 0,0"
   id="path8" />
    </g>
  </g>
  <g
   fill="#000000"
   fill-opacity="1"
   id="g6"
   transform="matrix(0.352778,0,0,0.352778,-0.945621,-0.704673)">
    <g
   id="use5"
   transform="translate(15.785,20.559999)">
      <path
   d="m 7.578125,6.046875 c 0,-0.03125 0,-0.078125 -0.0625,-0.15625 -1.140625,-1.15625 -4.1875,-4.328125 -4.1875,-12.0625 0,-7.734375 2.984375,-10.875 4.203125,-12.109375 0,-0.03125 0.046875,-0.07813 0.046875,-0.15625 0,-0.07813 -0.0625,-0.125 -0.171875,-0.125 -0.265625,0 -2.375,1.828125 -3.59375,4.5625 -1.234375,2.75 -1.578125,5.421875 -1.578125,7.8125 0,1.78125 0.171875,4.796875 1.65625,8 1.1875,2.578125 3.21875,4.375 3.515625,4.375 0.125,0 0.171875,-0.046875 0.171875,-0.140625 z m 0,0"
   id="path9" />
    </g>
  </g>
  <g
   fill="#000000"
   fill-opacity="1"
   id="g7"
   transform="matrix(0.352778,0,0,0.352778,-0.945621,-0.704673)">
    <g
   id="use6"
   transform="translate(24.562,20.559999)">
      <path
   d="m 4.984375,-9.96875 h 2.28125 c 0.46875,0 0.71875,0 0.71875,-0.4375 0,-0.28125 -0.15625,-0.28125 -0.65625,-0.28125 H 5.15625 l 0.921875,-3.609375 c 0.09375,-0.34375 0.09375,-0.390625 0.09375,-0.578125 0,-0.390625 -0.328125,-0.609375 -0.640625,-0.609375 -0.203125,0 -0.765625,0.07813 -0.96875,0.859375 l -0.96875,3.9375 H 1.265625 c -0.5,0 -0.71875,0 -0.71875,0.484375 0,0.234375 0.171875,0.234375 0.640625,0.234375 h 2.203125 l -1.625,6.546875 c -0.203125,0.875 -0.28125,1.125 -0.28125,1.4375 0,1.171875 0.8125,2.234375 2.203125,2.234375 2.5,0 3.84375,-3.625 3.84375,-3.796875 0,-0.140625 -0.09375,-0.21875 -0.25,-0.21875 -0.046875,0 -0.140625,0 -0.1875,0.09375 C 7.0625,-3.640625 7.03125,-3.625 6.859375,-3.21875 6.34375,-1.984375 5.203125,-0.25 3.765625,-0.25 c -0.75,0 -0.796875,-0.625 -0.796875,-1.15625 0,-0.03125 0,-0.5 0.078125,-0.796875 z m 0,0"
   id="path10" />
    </g>
  </g>
  <g
   fill="#000000"
   fill-opacity="1"
   id="g8"
   transform="matrix(0.352778,0,0,0.352778,-0.945621,-0.704673)">
    <g
   id="use7"
   transform="translate(33.327,20.559999)">
      <path
   d="m 6.515625,-6.171875 c 0,-1.78125 -0.171875,-4.8125 -1.65625,-8 C 3.671875,-16.75 1.640625,-18.5625 1.34375,-18.5625 c -0.078125,0 -0.171875,0.03125 -0.171875,0.15625 0,0.04687 0.015625,0.0625 0.046875,0.125 1.1875,1.234375 4.203125,4.375 4.203125,12.09375 0,7.71875 -3,10.875 -4.203125,12.109375 C 1.1875,5.96875 1.171875,6 1.171875,6.046875 c 0,0.125 0.09375,0.140625 0.171875,0.140625 0.265625,0 2.375,-1.828125 3.59375,-4.546875 1.234375,-2.75 1.578125,-5.4375 1.578125,-7.8125 z m 0,0"
   id="path11" />
    </g>
  </g>
</g><g
       inkscape:label=""
       transform="matrix(1.9308992,0,0,1.9308992,97.854414,139.15921)"
       id="g62"
       style="stroke-width:0.517893"><g
   fill="#000000"
   fill-opacity="1"
   id="g2"
   transform="matrix(0.352778,0,0,0.352778,-0.940109,-0.614583)"
   style="stroke-width:0.517893">
    <g
   id="use1"
   transform="translate(1.993,12.664)"
   style="stroke-width:0.517893">
      <path
   d="M 5.109375,-7.265625 C 5.15625,-7.40625 5.78125,-8.65625 6.6875,-9.4375 c 0.640625,-0.59375 1.484375,-1 2.453125,-1 1,0 1.34375,0.75 1.34375,1.734375 0,0.15625 0,0.65625 -0.296875,1.8125 l -0.625,2.546875 c -0.1875,0.75 -0.671875,2.578125 -0.71875,2.859375 -0.09375,0.375 -0.25,1.015625 -0.25,1.109375 0,0.34375 0.28125,0.625 0.65625,0.625 0.734375,0 0.859375,-0.578125 1.078125,-1.46875 l 1.5,-5.921875 c 0.04687,-0.1875 1.328125,-3.296875 4.0625,-3.296875 0.984375,0 1.328125,0.75 1.328125,1.734375 0,1.390625 -0.96875,4.09375 -1.5,5.578125 -0.234375,0.59375 -0.359375,0.921875 -0.359375,1.359375 0,1.125 0.765625,2.015625 1.96875,2.015625 C 19.625,0.25 20.5,-3.390625 20.5,-3.546875 c 0,-0.125 -0.109375,-0.21875 -0.25,-0.21875 -0.234375,0 -0.25,0.078125 -0.375,0.5 C 19.296875,-1.28125 18.390625,-0.25 17.390625,-0.25 17.15625,-0.25 16.75,-0.265625 16.75,-1.0625 c 0,-0.640625 0.296875,-1.4375 0.40625,-1.71875 0.4375,-1.1875 1.546875,-4.109375 1.546875,-5.546875 0,-1.484375 -0.859375,-2.59375 -2.75,-2.59375 -1.65625,0 -3,0.9375 -3.984375,2.390625 -0.07813,-1.328125 -0.890625,-2.390625 -2.75,-2.390625 -2.203125,0 -3.375,1.546875 -3.8125,2.171875 -0.078125,-1.40625 -1.09375,-2.171875 -2.1875,-2.171875 -0.71875,0 -1.28125,0.34375 -1.75,1.28125 -0.453125,0.890625 -0.796875,2.40625 -0.796875,2.5 0,0.109375 0.09375,0.234375 0.265625,0.234375 0.203125,0 0.234375,-0.03125 0.375,-0.609375 0.375,-1.453125 0.84375,-2.921875 1.828125,-2.921875 0.578125,0 0.78125,0.40625 0.78125,1.140625 0,0.546875 -0.25,1.515625 -0.421875,2.28125 L 2.796875,-4.34375 c -0.09375,0.484375 -0.375,1.59375 -0.5,2.046875 C 2.125,-1.65625 1.859375,-0.5 1.859375,-0.375 1.859375,-0.03125 2.125,0.25 2.5,0.25 c 0.296875,0 0.640625,-0.15625 0.84375,-0.515625 0.046875,-0.125 0.28125,-1 0.390625,-1.5 l 0.546875,-2.21875 z m 0,0"
   id="path61"
   style="stroke-width:0.517893" />
    </g>
  </g>
</g><g
       inkscape:label=""
       transform="translate(56.614464,117.84139)"
       id="g68"><g
   fill="#000000"
   fill-opacity="1"
   id="g67"
   transform="matrix(0.352778,0,0,0.352778,-1.18264,-0.706217)">
    <g
   id="g66"
   transform="translate(1.993,19.205)">
      <path
   d="m 6.96875,-16.578125 c 0.015625,-0.09375 0.0625,-0.25 0.0625,-0.375 0,-0.25 -0.234375,-0.25 -0.296875,-0.25 -0.015625,0 -0.90625,0.07813 -1.359375,0.125 -0.421875,0.03125 -0.796875,0.07813 -1.234375,0.109375 -0.59375,0.04687 -0.765625,0.0625 -0.765625,0.515625 0,0.25 0.25,0.25 0.484375,0.25 1.265625,0 1.265625,0.21875 1.265625,0.46875 0,0.09375 0,0.140625 -0.125,0.59375 L 1.46875,-0.96875 c -0.109375,0.375 -0.109375,0.421875 -0.109375,0.578125 0,0.546875 0.421875,0.640625 0.671875,0.640625 0.6875,0 0.84375,-0.546875 1.046875,-1.3125 l 1.15625,-4.640625 C 6.015625,-5.5 7.09375,-4.765625 7.09375,-3.5625 c 0,0.140625 0,0.234375 -0.078125,0.609375 -0.109375,0.375 -0.109375,0.671875 -0.109375,0.796875 0,1.4375 0.953125,2.40625 2.21875,2.40625 1.140625,0 1.734375,-1.046875 1.921875,-1.390625 0.53125,-0.921875 0.84375,-2.296875 0.84375,-2.40625 0,-0.125 -0.09375,-0.21875 -0.25,-0.21875 -0.21875,0 -0.234375,0.09375 -0.34375,0.5 -0.34375,1.28125 -0.859375,3.015625 -2.125,3.015625 -0.5,0 -0.828125,-0.25 -0.828125,-1.1875 0,-0.46875 0.109375,-1.015625 0.203125,-1.390625 0.109375,-0.4375 0.109375,-0.46875 0.109375,-0.765625 0,-1.46875 -1.328125,-2.28125 -3.59375,-2.578125 0.890625,-0.546875 1.78125,-1.515625 2.125,-1.875 1.40625,-1.59375 2.375,-2.390625 3.515625,-2.390625 0.578125,0 0.71875,0.15625 0.890625,0.296875 -0.90625,0.109375 -1.265625,0.75 -1.265625,1.25 0,0.59375 0.46875,0.78125 0.828125,0.78125 0.671875,0 1.265625,-0.5625 1.265625,-1.359375 0,-0.71875 -0.578125,-1.453125 -1.6875,-1.453125 -1.359375,0 -2.484375,0.953125 -4.234375,2.9375 -0.25,0.296875 -1.171875,1.25 -2.09375,1.59375 z m 0,0"
   id="path65" />
    </g>
  </g>
</g></g></svg>
