<?xml version="1.0" encoding="UTF-8" standalone="no"?>
<!-- Created with Inkscape (http://www.inkscape.org/) -->

<svg
   width="100.27283mm"
   height="39.259304mm"
   viewBox="0 0 100.27283 39.259304"
   version="1.1"
   id="svg1"
   inkscape:version="1.3.2 (091e20e, 2023-11-25, custom)"
   sodipodi:docname="Forças_6.svg"
   inkscape:export-filename="Forças_6.png"
   inkscape:export-xdpi="300"
   inkscape:export-ydpi="300"
   xmlns:inkscape="http://www.inkscape.org/namespaces/inkscape"
   xmlns:sodipodi="http://sodipodi.sourceforge.net/DTD/sodipodi-0.dtd"
   xmlns="http://www.w3.org/2000/svg"
   xmlns:svg="http://www.w3.org/2000/svg">
  <sodipodi:namedview
     id="namedview1"
     pagecolor="#ffffff"
     bordercolor="#000000"
     borderopacity="0.25"
     inkscape:showpageshadow="2"
     inkscape:pageopacity="0.0"
     inkscape:pagecheckerboard="0"
     inkscape:deskcolor="#d1d1d1"
     inkscape:document-units="mm"
     inkscape:zoom="1.4485269"
     inkscape:cx="112.52811"
     inkscape:cy="123.919"
     inkscape:window-width="1920"
     inkscape:window-height="1009"
     inkscape:window-x="-8"
     inkscape:window-y="-8"
     inkscape:window-maximized="1"
     inkscape:current-layer="layer1"
     inkscape:export-bgcolor="#ffffffff" />
  <defs
     id="defs1">
    <marker
       style="overflow:visible"
       id="Triangle"
       refX="0"
       refY="0"
       orient="auto-start-reverse"
       inkscape:stockid="Triangle arrow"
       markerWidth="1"
       markerHeight="1"
       viewBox="0 0 1 1"
       inkscape:isstock="true"
       inkscape:collect="always"
       preserveAspectRatio="xMidYMid">
      <path
         transform="scale(0.5)"
         style="fill:context-stroke;fill-rule:evenodd;stroke:context-stroke;stroke-width:1pt"
         d="M 5.77,0 -2.88,5 V -5 Z"
         id="path135" />
    </marker>
  </defs>
  <g
     inkscape:label="Camada 1"
     inkscape:groupmode="layer"
     id="layer1"
     transform="translate(-57.174453,-88.049912)">
    <rect
       style="fill:none;stroke:#000000;stroke-width:1.01042;stroke-dasharray:none"
       id="rect1"
       width="31.64662"
       height="29.172461"
       x="91.324265"
       y="88.555122"
       ry="7.9622107" />
    <g
       inkscape:label=""
       transform="matrix(1.7883548,0,0,1.7883548,102.29158,99.547622)"
       id="g1">
      <g
         fill="#000000"
         fill-opacity="1"
         id="g2"
         transform="matrix(0.352778,0,0,0.352778,-0.901524,-0.627459)">
        <g
           id="use1"
           transform="translate(1.993,10.888)">
          <path
             d="M 4.25,-6.046875 C 4.296875,-6.171875 4.8125,-7.203125 5.578125,-7.875 6.109375,-8.359375 6.8125,-8.703125 7.625,-8.703125 c 0.828125,0 1.109375,0.625 1.109375,1.453125 0,0.125 0,0.53125 -0.25,1.5 L 7.96875,-3.609375 C 7.8125,-3 7.421875,-1.46875 7.375,-1.234375 c -0.078125,0.3125 -0.203125,0.84375 -0.203125,0.921875 0,0.296875 0.21875,0.515625 0.53125,0.515625 0.625,0 0.71875,-0.46875 0.90625,-1.21875 l 1.25,-4.9375 c 0.03125,-0.15625 1.109375,-2.75 3.375,-2.75 0.828125,0 1.125,0.625 1.125,1.453125 0,1.15625 -0.8125,3.40625 -1.265625,4.640625 -0.1875,0.5 -0.28125,0.765625 -0.28125,1.140625 0,0.9375 0.640625,1.671875 1.625,1.671875 1.921875,0 2.640625,-3.03125 2.640625,-3.15625 0,-0.109375 -0.07813,-0.1875 -0.203125,-0.1875 -0.1875,0 -0.203125,0.0625 -0.3125,0.40625 -0.46875,1.65625 -1.234375,2.53125 -2.0625,2.53125 -0.203125,0 -0.53125,-0.03125 -0.53125,-0.6875 0,-0.53125 0.25,-1.203125 0.328125,-1.421875 0.375,-1 1.296875,-3.4375 1.296875,-4.625 0,-1.25 -0.71875,-2.171875 -2.296875,-2.171875 -1.375,0 -2.5,0.78125 -3.3125,2 -0.0625,-1.109375 -0.75,-2 -2.296875,-2 -1.84375,0 -2.8125,1.296875 -3.1875,1.8125 -0.0625,-1.171875 -0.90625,-1.8125 -1.8125,-1.8125 -0.59375,0 -1.078125,0.296875 -1.46875,1.078125 -0.375,0.734375 -0.65625,2 -0.65625,2.078125 0,0.09375 0.078125,0.1875 0.21875,0.1875 0.171875,0 0.1875,-0.015625 0.3125,-0.5 0.3125,-1.21875 0.703125,-2.4375 1.53125,-2.4375 0.46875,0 0.640625,0.34375 0.640625,0.953125 0,0.453125 -0.203125,1.265625 -0.359375,1.90625 l -0.578125,2.234375 c -0.078125,0.390625 -0.296875,1.3125 -0.40625,1.6875 -0.140625,0.53125 -0.375,1.515625 -0.375,1.609375 0,0.296875 0.234375,0.515625 0.546875,0.515625 0.234375,0 0.53125,-0.125 0.6875,-0.4375 0.046875,-0.09375 0.234375,-0.8125 0.34375,-1.234375 l 0.453125,-1.859375 z m 0,0"
             id="path2" />
        </g>
      </g>
    </g>
    <path
       style="fill:none;stroke:#000000;stroke-width:1.01042;stroke-dasharray:none"
       d="M 71.802182,118.37333 H 138.55543"
       id="path1" />
    <path
       style="fill:none;stroke:#000000;stroke-width:1.01042;stroke-dasharray:none"
       d="m 75.334132,118.37333 5.013306,8.68328"
       id="path3" />
    <path
       style="fill:none;stroke:#000000;stroke-width:1.01042;stroke-dasharray:none"
       d="m 81.958501,118.37333 5.013306,8.68328"
       id="path4" />
    <path
       style="fill:none;stroke:#000000;stroke-width:1.01042;stroke-dasharray:none"
       d="m 88.58287,118.37333 5.013305,8.68328"
       id="path5" />
    <path
       style="fill:none;stroke:#000000;stroke-width:1.01042;stroke-dasharray:none"
       d="m 95.207238,118.37333 5.013302,8.68328"
       id="path6" />
    <path
       style="fill:none;stroke:#000000;stroke-width:1.01042;stroke-dasharray:none"
       d="m 100.88527,118.37333 5.0133,8.68328"
       id="path7" />
    <path
       style="fill:none;stroke:#000000;stroke-width:1.01042;stroke-dasharray:none"
       d="m 106.5633,118.37333 5.0133,8.68328"
       id="path8" />
    <path
       style="fill:none;stroke:#000000;stroke-width:1.01042;stroke-dasharray:none"
       d="m 113.18767,118.37333 5.0133,8.68328"
       id="path9" />
    <path
       style="fill:none;stroke:#000000;stroke-width:1.01042;stroke-dasharray:none"
       d="m 119.81204,118.37333 5.0133,8.68328"
       id="path10" />
    <path
       style="fill:none;stroke:#000000;stroke-width:1.01042;stroke-dasharray:none"
       d="m 125.49007,118.37333 5.0133,8.68328"
       id="path11" />
    <path
       style="fill:none;stroke:#000000;stroke-width:1.01042;stroke-dasharray:none"
       d="m 131.1681,118.37333 5.0133,8.68328"
       id="path12" />
    <path
       style="fill:#0000ff;stroke:#0000ff;stroke-width:1.01042;stroke-dasharray:none;marker-end:url(#Triangle)"
       d="m 122.99035,103.30469 30.86891,-0.16333"
       id="path13" />
    <g
       inkscape:label=""
       transform="matrix(1.7883548,0,0,1.7883548,135.40333,91.464097)"
       id="g15">
      <g
         fill="#000000"
         fill-opacity="1"
         id="g3"
         transform="matrix(0.352778,0,0,0.352778,-0.89949,-0.700484)">
        <g
           id="use2"
           transform="translate(1.169,16.719999)">
          <path
             d="m 11.046875,-12.328125 c -0.25,0.21875 -1.015625,0.953125 -1.015625,1.234375 0,0.203125 0.1875,0.390625 0.40625,0.390625 0.1875,0 0.265625,-0.125 0.40625,-0.328125 0.5,-0.625 1.046875,-1.015625 1.53125,-1.28125 0.203125,-0.125 0.34375,-0.1875 0.34375,-0.40625 0,-0.1875 -0.15625,-0.296875 -0.28125,-0.390625 -0.578125,-0.40625 -0.71875,-0.953125 -0.78125,-1.203125 -0.0625,-0.171875 -0.125,-0.421875 -0.421875,-0.421875 -0.125,0 -0.375,0.09375 -0.375,0.40625 0,0.171875 0.125,0.671875 0.515625,1.234375 H 4.4375 c -0.34375,0 -0.703125,0 -0.703125,0.390625 0,0.375 0.375,0.375 0.703125,0.375 z m 0,0"
             id="path14" />
        </g>
      </g>
      <g
         fill="#000000"
         fill-opacity="1"
         id="g4"
         transform="matrix(0.352778,0,0,0.352778,-0.89949,-0.700484)">
        <g
           id="use3"
           transform="translate(1.987235,16.719999)">
          <path
             d="m 9.4375,-7.71875 c 0,-1.3125 -0.65625,-1.390625 -0.828125,-1.390625 -0.484375,0 -0.953125,0.5 -0.953125,0.90625 0,0.25 0.15625,0.390625 0.234375,0.484375 0.203125,0.171875 0.75,0.734375 0.75,1.8125 0,0.859375 -1.25,5.703125 -3.71875,5.703125 -1.265625,0 -1.515625,-1.0625 -1.515625,-1.828125 0,-1.03125 0.484375,-2.46875 1.03125,-3.953125 0.328125,-0.859375 0.421875,-1.0625 0.421875,-1.46875 0,-0.875 -0.625,-1.65625 -1.640625,-1.65625 -1.890625,0 -2.65625,3 -2.65625,3.15625 0,0.09375 0.078125,0.1875 0.21875,0.1875 0.1875,0 0.203125,-0.078125 0.296875,-0.375 0.484375,-1.765625 1.296875,-2.5625 2.078125,-2.5625 0.1875,0 0.546875,0 0.546875,0.6875 0,0.53125 -0.234375,1.140625 -0.546875,1.921875 -0.984375,2.640625 -0.984375,3.28125 -0.984375,3.78125 0,0.453125 0.0625,1.296875 0.703125,1.875 0.734375,0.640625 1.765625,0.640625 1.953125,0.640625 3.4375,0 4.609375,-6.75 4.609375,-7.921875 z m 0,0"
             id="path15" />
        </g>
      </g>
    </g>
    <path
       style="fill:#ff0000;stroke:#ff0000;stroke-width:1.01042;stroke-dasharray:none;marker-end:url(#Triangle)"
       d="M 96.367948,117.67752 H 60.76253"
       id="path16" />
    <g
       inkscape:label=""
       transform="matrix(1.7883548,0,0,1.7883548,57.332728,100.2838)"
       id="g20">
      <g
         fill="#000000"
         fill-opacity="1"
         id="g5"
         transform="matrix(0.352778,0,0,0.352778,-1.03933,-0.700484)">
        <g
           id="use4"
           transform="translate(8.3660002,16.719999)">
          <path
             d="m 11.046875,-12.328125 c -0.25,0.21875 -1.015625,0.953125 -1.015625,1.234375 0,0.203125 0.1875,0.390625 0.40625,0.390625 0.1875,0 0.265625,-0.125 0.40625,-0.328125 0.5,-0.625 1.046875,-1.015625 1.53125,-1.28125 0.203125,-0.125 0.34375,-0.1875 0.34375,-0.40625 0,-0.1875 -0.15625,-0.296875 -0.28125,-0.390625 -0.578125,-0.40625 -0.71875,-0.953125 -0.78125,-1.203125 -0.0625,-0.171875 -0.125,-0.421875 -0.421875,-0.421875 -0.125,0 -0.375,0.09375 -0.375,0.40625 0,0.171875 0.125,0.671875 0.515625,1.234375 H 4.4375 c -0.34375,0 -0.703125,0 -0.703125,0.390625 0,0.375 0.375,0.375 0.703125,0.375 z m 0,0"
             id="path17" />
        </g>
      </g>
      <g
         fill="#000000"
         fill-opacity="1"
         id="g6"
         transform="matrix(0.352778,0,0,0.352778,-1.03933,-0.700484)">
        <g
           id="use5"
           transform="translate(1.993,21.943001)">
          <path
             d="M 6.140625,-6.734375 H 8.125 c 1.5625,0 1.6875,0.359375 1.6875,0.953125 0,0.265625 -0.046875,0.5625 -0.140625,1.015625 -0.046875,0.078125 -0.0625,0.1875 -0.0625,0.21875 0,0.140625 0.078125,0.234375 0.21875,0.234375 0.171875,0 0.1875,-0.09375 0.265625,-0.421875 l 1.203125,-4.8125 c 0,-0.078125 -0.0625,-0.203125 -0.203125,-0.203125 -0.1875,0 -0.203125,0.078125 -0.296875,0.4375 -0.421875,1.546875 -0.84375,1.984375 -2.640625,1.984375 h -1.875 L 7.625,-12.6875 c 0.1875,-0.71875 0.21875,-0.78125 1.078125,-0.78125 h 2.765625 c 2.578125,0 2.953125,0.765625 2.953125,2.234375 0,0.125 0,0.578125 -0.0625,1.109375 -0.03125,0.09375 -0.0625,0.359375 -0.0625,0.4375 0,0.171875 0.09375,0.234375 0.21875,0.234375 0.15625,0 0.234375,-0.09375 0.28125,-0.46875 l 0.421875,-3.609375 c 0,-0.0625 0.04687,-0.265625 0.04687,-0.3125 0,-0.21875 -0.1875,-0.21875 -0.5625,-0.21875 H 4.92187 c -0.390625,0 -0.609375,0 -0.609375,0.375 0,0.21875 0.15625,0.21875 0.5,0.21875 1.28125,0 1.28125,0.140625 1.28125,0.375 0,0.09375 -0.015625,0.1875 -0.078125,0.40625 L 3.21875,-1.53125 C 3.03125,-0.8125 3,-0.59375 1.546875,-0.59375 c -0.390625,0 -0.59375,0 -0.59375,0.359375 C 0.953125,0 1.140625,0 1.265625,0 1.65625,0 2.0625,-0.046875 2.453125,-0.046875 h 2.6875 C 5.59375,-0.046875 6.09375,0 6.546875,0 c 0.1875,0 0.4375,0 0.4375,-0.375 0,-0.21875 -0.125,-0.21875 -0.578125,-0.21875 -1.640625,0 -1.671875,-0.15625 -1.671875,-0.453125 0,-0.109375 0.03125,-0.28125 0.078125,-0.421875 z m 0,0"
             id="path18" />
        </g>
      </g>
      <g
         fill="#000000"
         fill-opacity="1"
         id="g7"
         transform="matrix(0.352778,0,0,0.352778,-1.03933,-0.700484)">
        <g
           id="use6"
           transform="translate(15.089,25.042)">
          <path
             d="M 4.3125,-1.703125 C 4.25,-1.46875 4.25,-1.4375 4.046875,-1.15625 c -0.3125,0.390625 -0.953125,1.015625 -1.625,1.015625 -0.578125,0 -0.921875,-0.53125 -0.921875,-1.375 0,-0.796875 0.453125,-2.40625 0.71875,-3 0.5,-1 1.171875,-1.515625 1.71875,-1.515625 0.953125,0 1.140625,1.171875 1.140625,1.28125 0,0.015625 -0.046875,0.203125 -0.0625,0.234375 z M 5.234375,-5.375 C 5.078125,-5.75 4.6875,-6.328125 3.9375,-6.328125 c -1.609375,0 -3.359375,2.09375 -3.359375,4.21875 0,1.421875 0.828125,2.25 1.796875,2.25 0.796875,0 1.46875,-0.609375 1.875,-1.09375 0.140625,0.859375 0.8125,1.09375 1.25,1.09375 0.421875,0 0.765625,-0.25 1.03125,-0.765625 C 6.75,-1.125 6.953125,-2 6.953125,-2.046875 6.953125,-2.125 6.90625,-2.1875 6.8125,-2.1875 c -0.125,0 -0.140625,0.078125 -0.203125,0.296875 -0.21875,0.84375 -0.484375,1.75 -1.078125,1.75 -0.40625,0 -0.4375,-0.375 -0.4375,-0.65625 0,-0.34375 0.046875,-0.5 0.171875,-1.046875 0.09375,-0.359375 0.171875,-0.6875 0.28125,-1.09375 0.53125,-2.15625 0.65625,-2.671875 0.65625,-2.75 0,-0.203125 -0.15625,-0.359375 -0.359375,-0.359375 -0.46875,0 -0.578125,0.5 -0.609375,0.671875 z m 0,0"
             id="path19" />
        </g>
        <g
           id="use7"
           transform="translate(22.462948,25.042)">
          <path
             d="m 2.890625,-5.765625 h 1.3125 c 0.265625,0 0.421875,0 0.421875,-0.265625 C 4.625,-6.1875 4.53125,-6.1875 4.25,-6.1875 H 2.984375 l 0.53125,-2.09375 c 0.0625,-0.203125 0.0625,-0.21875 0.0625,-0.328125 0,-0.21875 -0.1875,-0.359375 -0.375,-0.359375 -0.125,0 -0.453125,0.046875 -0.5625,0.5 l -0.5625,2.28125 h -1.34375 c -0.296875,0 -0.421875,0 -0.421875,0.28125 0,0.140625 0.109375,0.140625 0.375,0.140625 h 1.28125 l -0.953125,3.78125 c -0.109375,0.5 -0.15625,0.65625 -0.15625,0.84375 0,0.671875 0.46875,1.28125 1.28125,1.28125 1.4375,0 2.21875,-2.09375 2.21875,-2.1875 0,-0.09375 -0.0625,-0.140625 -0.140625,-0.140625 -0.03125,0 -0.09375,0 -0.109375,0.0625 -0.015625,0.015625 -0.03125,0.03125 -0.140625,0.265625 -0.296875,0.71875 -0.953125,1.71875 -1.78125,1.71875 -0.4375,0 -0.46875,-0.359375 -0.46875,-0.671875 0,-0.015625 0,-0.296875 0.046875,-0.46875 z m 0,0"
             id="path20" />
        </g>
      </g>
    </g>
    <path
       style="fill:#0000ff;stroke:#000000;stroke-width:0.295079;stroke-dasharray:none"
       d="M 89.181536,94.648335 H 83.30174"
       id="path21" />
    <path
       style="fill:#0000ff;stroke:#000000;stroke-width:0.295079;stroke-dasharray:none"
       d="M 89.181536,97.914872 H 80.361844"
       id="path22" />
    <path
       style="fill:#0000ff;stroke:#000000;stroke-width:0.295079;stroke-dasharray:none"
       d="m 89.018207,100.85477 -12.086242,0.16327"
       id="path23" />
    <path
       style="fill:#0000ff;stroke:#000000;stroke-width:0.295079;stroke-dasharray:none"
       d="M 88.854878,104.12132 75.78867,104.2846"
       id="path24" />
    <path
       style="fill:#0000ff;stroke:#000000;stroke-width:0.295079;stroke-dasharray:none"
       d="m 89.018207,106.8979 -10.126311,0.32665"
       id="path25" />
    <path
       style="fill:#0000ff;stroke:#000000;stroke-width:0.295079;stroke-dasharray:none"
       d="m 89.344859,110.4911 -7.676393,0.16328"
       id="path26" />
    <path
       style="fill:#0000ff;stroke:#000000;stroke-width:0.295079;stroke-dasharray:none"
       d="M 89.181536,114.08432 H 85.098344"
       id="path27" />
  </g>
</svg>
