<?xml version='1.0' encoding='ascii'?>
<svg xmlns="http://www.w3.org/2000/svg" height="1080" version="1.1" width="1920">
    <g id="View Layer_LineSet" inkscape:groupmode="lineset" inkscape:label="View Layer_LineSet" xmlns:inkscape="http://www.inkscape.org/namespaces/inkscape">
        <g id="strokes" inkscape:groupmode="layer" inkscape:label="strokes" xmlns:inkscape="http://www.inkscape.org/namespaces/inkscape">
            <path d=" M 1408.922, 166.269 1398.922, 166.269 1388.922, 166.269 1378.922, 166.269 1368.922, 166.269 1358.922, 166.269 1348.922, 166.269 1338.922, 166.269 1328.922, 166.269 1318.922, 166.269 1308.922, 166.269 1298.922, 166.269 1288.922, 166.269 1278.922, 166.269 1268.922, 166.269 1258.922, 166.269 1248.922, 166.269 1238.922, 166.269 1228.922, 166.269 1218.922, 166.269 1208.922, 166.269 1198.922, 166.269 1188.922, 166.269 1178.922, 166.269 1168.922, 166.269 1158.922, 166.269 1148.922, 166.269 1138.922, 166.269 1128.922, 166.269 1118.922, 166.269 1108.922, 166.269 1098.922, 166.269 1088.922, 166.269 1078.922, 166.269 1068.922, 166.269 1058.922, 166.269 1048.922, 166.269 1038.922, 166.269 1028.922, 166.269 1018.922, 166.269 1008.922, 166.269 998.922, 166.269 988.922, 166.269 978.922, 166.269 968.922, 166.269 958.922, 166.269 948.922, 166.269 938.922, 166.269 928.922, 166.269 918.922, 166.269 908.922, 166.269 898.922, 166.269 888.922, 166.269 878.922, 166.269 868.922, 166.269 858.922, 166.269 848.922, 166.269 838.922, 166.269 828.922, 166.269 818.922, 166.269 808.922, 166.269 798.922, 166.269 788.922, 166.269 778.922, 166.269 768.922, 166.269 758.922, 166.269 748.922, 166.269 738.922, 166.269 728.922, 166.269 718.922, 166.269 708.922, 166.269 698.922, 166.269 688.922, 166.269 678.922, 166.269 668.922, 166.269 658.922, 166.269 648.922, 166.269 638.922, 166.269 628.922, 166.269 618.922, 166.269 608.589, 166.269 608.589, 176.269 608.589, 186.269 608.589, 196.269 608.589, 206.269 608.589, 216.269 608.589, 226.269 608.589, 236.269 608.589, 246.269 608.589, 256.269 608.589, 266.269 608.589, 276.269 608.589, 286.269 608.589, 296.269 608.589, 306.269 608.589, 316.269 608.589, 326.269 608.589, 336.269 608.589, 346.269 608.589, 356.269 608.589, 366.269 608.589, 376.269 608.589, 386.269 608.589, 396.269 608.589, 406.269 608.589, 416.269 608.589, 426.269 608.589, 436.269 608.589, 446.269 608.589, 456.269 608.589, 466.269 608.589, 476.269 608.589, 486.269 608.589, 496.269 608.589, 506.269 608.589, 516.269 608.589, 526.269 608.589, 536.269 608.589, 546.269 608.589, 556.269 608.589, 566.269 608.589, 576.269 608.589, 586.269 608.589, 596.269 608.589, 606.269 608.589, 616.269 608.589, 626.269 608.589, 636.269 608.589, 646.269 608.589, 656.269 608.589, 666.269 608.589, 676.269 608.589, 686.269 608.589, 696.269 608.589, 706.269 608.589, 716.269 608.589, 726.269 608.589, 736.269 608.589, 746.269 608.589, 756.269 608.589, 766.269 608.589, 776.269 608.589, 786.269 608.589, 796.269 608.589, 806.269 608.589, 816.269 608.589, 826.269 608.589, 836.269 608.589, 846.269 608.589, 856.269 608.589, 866.269 608.589, 876.269 608.589, 886.269 608.589, 896.269 608.589, 906.269 608.589, 916.269 608.589, 926.269 608.589, 936.269 608.589, 946.269 608.589, 956.269 608.589, 966.602 618.589, 966.602 628.589, 966.602 638.589, 966.602 648.589, 966.602 658.589, 966.602 668.589, 966.602 678.589, 966.602 688.589, 966.602 698.589, 966.602 708.589, 966.602 718.589, 966.602 728.589, 966.602 738.589, 966.602 748.589, 966.602 758.589, 966.602 768.589, 966.602 778.589, 966.602 788.589, 966.602 798.589, 966.602 808.589, 966.602 818.589, 966.602 828.589, 966.602 838.589, 966.602 848.589, 966.602 858.589, 966.602 868.589, 966.602 878.589, 966.602 888.589, 966.602 898.589, 966.602 908.589, 966.602 918.589, 966.602 928.589, 966.602 938.589, 966.602 948.589, 966.602 958.589, 966.602 968.589, 966.602 978.589, 966.602 988.589, 966.602 998.589, 966.602 1008.589, 966.602 1018.589, 966.602 1028.589, 966.602 1038.589, 966.602 1048.589, 966.602 1058.589, 966.602 1068.589, 966.602 1078.589, 966.602 1088.589, 966.602 1098.589, 966.602 1108.589, 966.602 1118.589, 966.602 1128.589, 966.602 1138.589, 966.602 1148.589, 966.602 1158.589, 966.602 1168.589, 966.602 1178.589, 966.602 1188.589, 966.602 1198.589, 966.602 1208.589, 966.602 1218.589, 966.602 1228.589, 966.602 1238.589, 966.602 1248.589, 966.602 1258.589, 966.602 1268.589, 966.602 1278.589, 966.602 1288.589, 966.602 1298.589, 966.602 1308.589, 966.602 1318.589, 966.602 1328.589, 966.602 1338.589, 966.602 1348.589, 966.602 1358.589, 966.602 1368.589, 966.602 1378.589, 966.602 1388.589, 966.602 1398.589, 966.602 1408.922, 966.602 1408.922, 956.602 1408.922, 946.602 1408.922, 936.602 1408.922, 926.602 1408.922, 916.602 1408.922, 906.602 1408.922, 896.602 1408.922, 886.602 1408.922, 876.602 1408.922, 866.602 1408.922, 856.602 1408.922, 846.602 1408.922, 836.602 1408.922, 826.602 1408.922, 816.602 1408.922, 806.602 1408.922, 796.602 1408.922, 786.602 1408.922, 776.602 1408.922, 766.602 1408.922, 756.602 1408.922, 746.602 1408.922, 736.602 1408.922, 726.602 1408.922, 716.602 1408.922, 706.602 1408.922, 696.602 1408.922, 686.602 1408.922, 676.602 1408.922, 666.602 1408.922, 656.602 1408.922, 646.602 1408.922, 636.602 1408.922, 626.602 1408.922, 616.602 1408.922, 606.602 1408.922, 596.602 1408.922, 586.602 1408.922, 576.602 1408.922, 566.602 1408.922, 556.602 1408.922, 546.602 1408.922, 536.602 1408.922, 526.602 1408.922, 516.602 1408.922, 506.602 1408.922, 496.602 1408.922, 486.602 1408.922, 476.602 1408.922, 466.602 1408.922, 456.602 1408.922, 446.602 1408.922, 436.602 1408.922, 426.602 1408.922, 416.602 1408.922, 406.602 1408.922, 396.602 1408.922, 386.602 1408.922, 376.602 1408.922, 366.602 1408.922, 356.602 1408.922, 346.602 1408.922, 336.602 1408.922, 326.602 1408.922, 316.602 1408.922, 306.602 1408.922, 296.602 1408.922, 286.602 1408.922, 276.602 1408.922, 266.602 1408.922, 256.602 1408.922, 246.602 1408.922, 236.602 1408.922, 226.602 1408.922, 216.602 1408.922, 206.602 1408.922, 196.602 1408.922, 186.602 1408.922, 176.602 1408.922, 166.269 " fill="none" stroke="rgb(0, 0, 0)" stroke-linecap="butt" stroke-linejoin="round" stroke-opacity="1.0" stroke-width="3.0" />
            <path d=" M 1359.912, 215.279 1349.912, 215.279 1339.912, 215.279 1329.912, 215.279 1319.912, 215.279 1309.912, 215.279 1299.912, 215.279 1289.912, 215.279 1279.912, 215.279 1269.912, 215.279 1259.912, 215.279 1249.912, 215.279 1239.912, 215.279 1229.912, 215.279 1219.912, 215.279 1209.912, 215.279 1199.912, 215.279 1189.912, 215.279 1179.912, 215.279 1169.912, 215.279 1159.912, 215.279 1149.912, 215.279 1139.912, 215.279 1129.912, 215.279 1119.912, 215.279 1109.912, 215.279 1099.912, 215.279 1089.912, 215.279 1079.912, 215.279 1069.912, 215.279 1059.912, 215.279 1049.912, 215.279 1039.912, 215.279 1029.912, 215.279 1019.912, 215.279 1009.912, 215.279 999.912, 215.279 989.912, 215.279 979.912, 215.279 969.912, 215.279 959.912, 215.279 949.912, 215.279 939.912, 215.279 929.912, 215.279 919.912, 215.279 909.912, 215.279 899.912, 215.279 889.912, 215.279 879.912, 215.279 869.912, 215.279 859.912, 215.279 849.912, 215.279 839.912, 215.279 829.912, 215.279 819.912, 215.279 809.912, 215.279 799.912, 215.279 789.912, 215.279 779.912, 215.279 769.912, 215.279 759.912, 215.279 749.912, 215.279 739.912, 215.279 729.912, 215.279 719.912, 215.279 709.912, 215.279 699.912, 215.279 689.912, 215.279 679.912, 215.279 669.912, 215.279 657.599, 215.279 " fill="none" stroke="rgb(0, 0, 0)" stroke-linecap="butt" stroke-linejoin="round" stroke-opacity="1.0" stroke-width="3.0" />
            <path d=" M 657.599, 917.592 657.599, 907.592 657.599, 897.592 657.599, 887.592 657.599, 877.592 657.599, 867.592 657.599, 857.592 657.599, 847.592 657.599, 837.592 657.599, 827.592 657.599, 817.592 657.599, 807.592 657.599, 797.592 657.599, 787.592 657.599, 777.592 657.599, 767.592 657.599, 757.592 657.599, 747.592 657.599, 737.592 657.599, 727.592 657.599, 717.592 657.599, 707.592 657.599, 697.592 657.599, 687.592 657.599, 677.592 657.599, 667.592 657.599, 657.592 657.599, 647.592 657.599, 637.592 657.599, 627.592 657.599, 617.592 657.599, 607.592 657.599, 597.592 657.599, 587.592 657.599, 577.592 657.599, 567.592 657.599, 557.592 657.599, 547.592 657.599, 537.592 657.599, 527.592 657.599, 517.592 657.599, 507.592 657.599, 497.592 657.599, 487.592 657.599, 477.592 657.599, 467.592 657.599, 457.592 657.599, 447.592 657.599, 437.592 657.599, 427.592 657.599, 417.592 657.599, 407.592 657.599, 397.592 657.599, 387.592 657.599, 377.592 657.599, 367.592 657.599, 357.592 657.599, 347.592 657.599, 337.592 657.599, 327.592 657.599, 317.592 657.599, 307.592 657.599, 297.592 657.599, 287.592 657.599, 277.592 657.599, 267.592 657.599, 257.592 657.599, 247.592 657.599, 237.592 657.599, 227.592 657.599, 215.279 664.414, 222.597 671.229, 229.916 671.414, 230.114 " fill="none" stroke="rgb(0, 0, 0)" stroke-linecap="butt" stroke-linejoin="round" stroke-opacity="1.0" stroke-width="3.0" />
            <path d=" M 671.414, 547.583 671.414, 537.583 671.414, 527.583 671.414, 517.583 671.414, 507.583 671.414, 497.583 671.414, 487.583 671.414, 477.583 671.414, 467.583 671.414, 457.583 671.414, 447.583 671.414, 437.583 671.414, 427.583 671.414, 417.583 671.414, 407.583 671.414, 397.583 671.414, 387.583 671.414, 377.583 671.414, 367.583 671.414, 357.583 671.414, 347.583 671.414, 337.583 671.414, 327.583 671.414, 317.583 671.414, 307.583 671.414, 297.583 671.414, 287.583 671.414, 277.583 671.414, 267.583 671.414, 257.583 671.414, 247.583 671.414, 237.583 671.414, 230.114 681.414, 230.114 691.414, 230.114 701.414, 230.114 711.414, 230.114 721.414, 230.114 731.414, 230.114 741.414, 230.114 751.414, 230.114 761.414, 230.114 771.414, 230.114 781.414, 230.114 791.414, 230.114 801.414, 230.114 811.414, 230.114 821.414, 230.114 831.414, 230.114 841.414, 230.114 851.414, 230.114 861.414, 230.114 871.414, 230.114 881.414, 230.114 891.414, 230.114 901.414, 230.114 911.414, 230.114 921.414, 230.114 931.414, 230.114 941.414, 230.114 951.414, 230.114 961.414, 230.114 971.414, 230.114 981.414, 230.114 991.414, 230.114 1001.414, 230.114 1011.414, 230.114 1021.414, 230.114 1031.414, 230.114 1041.414, 230.114 1051.414, 230.114 1061.414, 230.114 1071.414, 230.114 1081.414, 230.114 1091.414, 230.114 1101.414, 230.114 1111.414, 230.114 1121.414, 230.114 1131.414, 230.114 1141.414, 230.114 1151.414, 230.114 1161.414, 230.114 1171.414, 230.114 1181.414, 230.114 1191.414, 230.114 1201.414, 230.114 1211.414, 230.114 1221.414, 230.114 1231.414, 230.114 1241.414, 230.114 1251.414, 230.114 1261.414, 230.114 1271.414, 230.114 1281.414, 230.114 1291.414, 230.114 1301.414, 230.114 1311.414, 230.114 1321.414, 230.114 1331.414, 230.114 1341.642, 230.114 1341.642, 240.114 1341.642, 250.114 1341.642, 260.114 1341.642, 270.114 1341.642, 280.114 1341.642, 290.114 1341.642, 300.114 1341.642, 310.114 1341.642, 320.114 1341.642, 330.114 1341.642, 340.114 1341.642, 350.114 1341.642, 360.114 1341.642, 370.114 1341.642, 380.114 1341.642, 390.114 1341.642, 400.114 1341.642, 410.114 1341.642, 420.114 1341.642, 430.114 1341.642, 440.114 1341.642, 450.114 1341.642, 460.114 1341.642, 470.114 1341.642, 480.114 1341.642, 490.114 1341.642, 500.114 1341.642, 510.114 1341.642, 520.114 1341.642, 530.114 1341.642, 540.114 1341.642, 547.583 " fill="none" stroke="rgb(0, 0, 0)" stroke-linecap="butt" stroke-linejoin="round" stroke-opacity="1.0" stroke-width="3.0" />
            <path d=" M 1341.642, 230.114 1349.405, 223.810 1357.168, 217.507 1359.912, 215.279 1359.912, 225.279 1359.912, 235.279 1359.912, 245.279 1359.912, 255.279 1359.912, 265.279 1359.912, 275.279 1359.912, 285.279 1359.912, 295.279 1359.912, 305.279 1359.912, 315.279 1359.912, 325.279 1359.912, 335.279 1359.912, 345.279 1359.912, 355.279 1359.912, 365.279 1359.912, 375.279 1359.912, 385.279 1359.912, 395.279 1359.912, 405.279 1359.912, 415.279 1359.912, 425.279 1359.912, 435.279 1359.912, 445.279 1359.912, 455.279 1359.912, 465.279 1359.912, 475.279 1359.912, 485.279 1359.912, 495.279 1359.912, 505.279 1359.912, 515.279 1359.912, 525.279 1359.912, 535.279 1359.912, 545.279 1359.912, 555.279 1359.912, 565.279 1359.912, 575.279 1359.912, 585.279 1359.912, 595.279 1359.912, 605.279 1359.912, 615.279 1359.912, 625.279 1359.912, 635.279 1359.912, 645.279 1359.912, 655.279 1359.912, 665.279 1359.912, 675.279 1359.912, 685.279 1359.912, 695.279 1359.912, 705.279 1359.912, 715.279 1359.912, 725.279 1359.912, 735.279 1359.912, 745.279 1359.912, 755.279 1359.912, 765.279 1359.912, 775.279 1359.912, 785.279 1359.912, 795.279 1359.912, 805.279 1359.912, 815.279 1359.912, 825.279 1359.912, 835.279 1359.912, 845.279 1359.912, 855.279 1359.912, 865.279 1359.912, 875.279 1359.912, 885.279 1359.912, 895.279 1359.912, 905.279 1359.912, 917.592 " fill="none" stroke="rgb(0, 0, 0)" stroke-linecap="butt" stroke-linejoin="round" stroke-opacity="1.0" stroke-width="3.0" />
            <path d=" M 1341.642, 900.342 1348.913, 907.208 1356.184, 914.073 1359.912, 917.592 1349.912, 917.592 1339.912, 917.592 1329.912, 917.592 1319.912, 917.592 1309.912, 917.592 1299.912, 917.592 1289.912, 917.592 1279.912, 917.592 1269.912, 917.592 1259.912, 917.592 1249.912, 917.592 1239.912, 917.592 1229.912, 917.592 1219.912, 917.592 1209.912, 917.592 1199.912, 917.592 1189.912, 917.592 1179.912, 917.592 1169.912, 917.592 1159.912, 917.592 1149.912, 917.592 1139.912, 917.592 1129.912, 917.592 1119.912, 917.592 1109.912, 917.592 1099.912, 917.592 1089.912, 917.592 1079.912, 917.592 1069.912, 917.592 1059.912, 917.592 1049.912, 917.592 1039.912, 917.592 1029.912, 917.592 1019.912, 917.592 1009.912, 917.592 999.912, 917.592 989.912, 917.592 979.912, 917.592 969.912, 917.592 959.912, 917.592 949.912, 917.592 939.912, 917.592 929.912, 917.592 919.912, 917.592 909.912, 917.592 899.912, 917.592 889.912, 917.592 879.912, 917.592 869.912, 917.592 859.912, 917.592 849.912, 917.592 839.912, 917.592 829.912, 917.592 819.912, 917.592 809.912, 917.592 799.912, 917.592 789.912, 917.592 779.912, 917.592 769.912, 917.592 759.912, 917.592 749.912, 917.592 739.912, 917.592 729.912, 917.592 719.912, 917.592 709.912, 917.592 699.912, 917.592 689.912, 917.592 679.912, 917.592 669.912, 917.592 657.599, 917.592 663.850, 909.787 670.101, 901.981 671.414, 900.342 " fill="none" stroke="rgb(0, 0, 0)" stroke-linecap="butt" stroke-linejoin="round" stroke-opacity="1.0" stroke-width="3.0" />
            <path d=" M 1341.642, 584.098 1341.642, 594.098 1341.642, 604.098 1341.642, 614.098 1341.642, 624.098 1341.642, 634.098 1341.642, 644.098 1341.642, 654.098 1341.642, 664.098 1341.642, 674.098 1341.642, 684.098 1341.642, 694.098 1341.642, 704.098 1341.642, 714.098 1341.642, 724.098 1341.642, 734.098 1341.642, 744.098 1341.642, 754.098 1341.642, 764.098 1341.642, 774.098 1341.642, 784.098 1341.642, 794.098 1341.642, 804.098 1341.642, 814.098 1341.642, 824.098 1341.642, 834.098 1341.642, 844.098 1341.642, 854.098 1341.642, 864.098 1341.642, 874.098 1341.642, 884.098 1341.642, 894.098 1341.642, 900.342 1331.642, 900.342 1321.642, 900.342 1311.642, 900.342 1301.642, 900.342 1291.642, 900.342 1281.642, 900.342 1271.642, 900.342 1261.642, 900.342 1251.642, 900.342 1241.642, 900.342 1231.642, 900.342 1221.642, 900.342 1211.642, 900.342 1201.642, 900.342 1191.642, 900.342 1181.642, 900.342 1171.642, 900.342 1161.642, 900.342 1151.642, 900.342 1141.642, 900.342 1131.642, 900.342 1121.642, 900.342 1111.642, 900.342 1101.642, 900.342 1091.642, 900.342 1081.642, 900.342 1071.642, 900.342 1061.642, 900.342 1051.642, 900.342 1041.642, 900.342 1031.642, 900.342 1021.642, 900.342 1011.642, 900.342 1001.642, 900.342 991.642, 900.342 981.642, 900.342 971.642, 900.342 961.642, 900.342 951.642, 900.342 941.642, 900.342 931.642, 900.342 921.642, 900.342 911.642, 900.342 901.642, 900.342 891.642, 900.342 881.642, 900.342 871.642, 900.342 861.642, 900.342 851.642, 900.342 841.642, 900.342 831.642, 900.342 821.642, 900.342 811.642, 900.342 801.642, 900.342 791.642, 900.342 781.642, 900.342 771.642, 900.342 761.642, 900.342 751.642, 900.342 741.642, 900.342 731.642, 900.342 721.642, 900.342 711.642, 900.342 701.642, 900.342 691.642, 900.342 681.642, 900.342 671.414, 900.342 671.414, 890.342 671.414, 880.342 671.414, 870.342 671.414, 860.342 671.414, 850.342 671.414, 840.342 671.414, 830.342 671.414, 820.342 671.414, 810.342 671.414, 800.342 671.414, 790.342 671.414, 780.342 671.414, 770.342 671.414, 760.342 671.414, 750.342 671.414, 740.342 671.414, 730.342 671.414, 720.342 671.414, 710.342 671.414, 700.342 671.414, 690.342 671.414, 680.342 671.414, 670.342 671.414, 660.342 671.414, 650.342 671.414, 640.342 671.414, 630.342 671.414, 620.342 671.414, 610.342 671.414, 600.342 671.414, 590.342 671.414, 584.098 " fill="none" stroke="rgb(0, 0, 0)" stroke-linecap="butt" stroke-linejoin="round" stroke-opacity="1.0" stroke-width="3.0" />
            <path d=" M 1284.667, 269.222 1274.667, 269.222 1264.667, 269.222 1254.667, 269.222 1244.667, 269.222 1234.667, 269.222 1224.667, 269.222 1214.667, 269.222 1204.667, 269.222 1194.667, 269.222 1184.667, 269.222 1174.667, 269.222 1164.667, 269.222 1154.667, 269.222 1144.667, 269.222 1134.667, 269.222 1124.667, 269.222 1114.667, 269.222 1104.667, 269.222 1094.667, 269.222 1084.667, 269.222 1074.667, 269.222 1064.667, 269.222 1054.667, 269.222 1044.667, 269.222 1034.667, 269.222 1024.667, 269.222 1014.667, 269.222 1004.667, 269.222 994.667, 269.222 984.667, 269.222 974.667, 269.222 964.667, 269.222 954.667, 269.222 944.667, 269.222 934.667, 269.222 924.667, 269.222 914.667, 269.222 904.667, 269.222 894.667, 269.222 884.667, 269.222 874.667, 269.222 864.667, 269.222 854.667, 269.222 844.667, 269.222 834.667, 269.222 824.667, 269.222 814.667, 269.222 804.667, 269.222 794.667, 269.222 784.667, 269.222 774.667, 269.222 764.667, 269.222 754.667, 269.222 744.667, 269.222 734.667, 269.222 724.667, 269.222 714.667, 269.222 702.773, 269.222 700.629, 277.614 698.450, 286.148 696.233, 294.826 693.979, 303.652 694.437, 313.641 694.895, 323.631 695.353, 333.620 695.811, 343.610 696.270, 353.599 696.728, 363.589 697.186, 373.578 697.644, 383.568 698.102, 393.557 698.560, 403.547 699.018, 413.536 699.476, 423.526 699.934, 433.515 700.392, 443.505 700.851, 453.494 701.309, 463.484 701.767, 473.473 702.225, 483.463 702.683, 493.452 703.141, 503.442 703.599, 513.431 704.057, 523.421 704.515, 533.411 704.973, 543.400 705.165, 547.583 705.623, 557.573 705.996, 565.703 706.454, 575.692 706.648, 579.929 706.840, 584.098 707.297, 594.081 707.756, 604.071 707.943, 608.162 708.401, 618.152 708.859, 628.141 709.317, 638.131 709.776, 648.120 710.234, 658.110 710.692, 668.099 711.150, 678.089 711.608, 688.078 712.066, 698.068 712.524, 708.057 712.982, 718.047 713.440, 728.036 713.898, 738.026 714.357, 748.015 714.815, 758.005 715.273, 767.994 715.731, 777.984 716.189, 787.973 716.647, 797.963 717.105, 807.952 717.563, 817.942 718.021, 827.931 718.479, 837.921 718.757, 843.983 728.757, 843.983 738.757, 843.983 748.757, 843.983 758.757, 843.983 768.757, 843.983 778.757, 843.983 788.757, 843.983 798.757, 843.983 808.757, 843.983 818.757, 843.983 828.757, 843.983 838.757, 843.983 848.757, 843.983 858.757, 843.983 868.757, 843.983 878.757, 843.983 888.757, 843.983 898.757, 843.983 908.757, 843.983 918.757, 843.983 928.757, 843.983 938.757, 843.983 948.757, 843.983 958.757, 843.983 968.757, 843.983 978.757, 843.983 988.757, 843.983 998.757, 843.983 1008.757, 843.983 1018.757, 843.983 1028.757, 843.983 1038.757, 843.983 1048.757, 843.983 1058.757, 843.983 1068.757, 843.983 1078.757, 843.983 1088.757, 843.983 1098.757, 843.983 1108.757, 843.983 1118.757, 843.983 1128.757, 843.983 1138.757, 843.983 1148.757, 843.983 1158.757, 843.983 1168.757, 843.983 1178.757, 843.983 1188.757, 843.983 1198.757, 843.983 1208.757, 843.983 1218.757, 843.983 1228.757, 843.983 1238.757, 843.983 1248.757, 843.983 1258.757, 843.983 1268.757, 843.983 1278.757, 843.983 1293.515, 843.983 1294.148, 834.003 1294.780, 824.023 1295.413, 814.043 1296.046, 804.063 1296.678, 794.083 1297.311, 784.103 1297.944, 774.123 1298.577, 764.143 1299.209, 754.163 1299.842, 744.183 1300.475, 734.203 1301.107, 724.223 1301.740, 714.243 1302.373, 704.263 1303.005, 694.283 1303.638, 684.303 1304.271, 674.323 1304.904, 664.343 1305.536, 654.363 1306.169, 644.383 1306.802, 634.404 1307.434, 624.424 1308.067, 614.444 1308.465, 608.162 1309.098, 598.182 1309.358, 594.081 1309.991, 584.098 1310.255, 579.929 1310.888, 569.949 1311.157, 565.703 1311.790, 555.723 1312.306, 547.583 1312.939, 537.603 1313.571, 527.623 1314.204, 517.644 1314.837, 507.664 1315.469, 497.684 1316.102, 487.704 1316.735, 477.724 1317.368, 467.744 1318.000, 457.764 1318.633, 447.784 1319.266, 437.804 1319.898, 427.824 1320.531, 417.844 1321.164, 407.864 1321.796, 397.884 1322.429, 387.904 1323.062, 377.924 1323.695, 367.944 1324.327, 357.964 1324.960, 347.984 1325.593, 338.004 1326.225, 328.024 1326.858, 318.044 1327.491, 308.064 1327.771, 303.652 1324.654, 294.826 1321.590, 286.148 1318.577, 277.614 1315.613, 269.222 1308.306, 269.222 " fill="none" stroke="rgb(0, 0, 0)" stroke-linecap="butt" stroke-linejoin="round" stroke-opacity="1.0" stroke-width="3.0" />
            <path d=" M 752.772, 813.804 752.380, 803.812 751.989, 793.820 751.598, 783.827 751.206, 773.835 750.815, 763.843 750.424, 753.850 750.032, 743.858 749.641, 733.866 749.250, 723.873 748.858, 713.881 748.467, 703.889 748.075, 693.896 747.684, 683.904 747.293, 673.912 746.901, 663.919 746.510, 653.927 746.119, 643.935 745.727, 633.942 745.336, 623.950 744.944, 613.957 744.717, 608.162 744.326, 598.170 744.166, 594.081 743.775, 584.089 743.612, 579.929 743.220, 569.936 743.054, 565.703 742.663, 555.710 742.272, 545.718 741.880, 535.726 741.489, 525.733 741.098, 515.741 740.706, 505.749 740.315, 495.756 739.923, 485.764 739.532, 475.772 739.141, 465.779 738.749, 455.787 738.358, 445.795 737.967, 435.802 737.575, 425.810 737.184, 415.818 736.793, 405.825 736.401, 395.833 736.010, 385.841 735.618, 375.848 735.227, 365.856 734.836, 355.864 734.444, 345.871 734.211, 339.911 742.963, 339.911 752.963, 339.911 762.963, 339.911 772.963, 339.911 782.963, 339.911 792.963, 339.911 802.963, 339.911 812.963, 339.911 822.963, 339.911 832.963, 339.911 842.963, 339.911 852.963, 339.911 862.963, 339.911 872.963, 339.911 882.963, 339.911 892.963, 339.911 902.963, 339.911 912.963, 339.911 922.963, 339.911 932.963, 339.911 942.963, 339.911 952.963, 339.911 962.963, 339.911 972.963, 339.911 982.963, 339.911 995.136, 339.911 1005.136, 339.911 1015.136, 339.911 1016.146, 339.911 1024.010, 339.911 1034.010, 339.911 1044.010, 339.911 1054.010, 339.911 1064.010, 339.911 1074.010, 339.911 1084.010, 339.911 1094.010, 339.911 1104.010, 339.911 1114.010, 339.911 1124.010, 339.911 1134.010, 339.911 1144.010, 339.911 1154.010, 339.911 1160.950, 339.911 1168.431, 339.911 1170.533, 339.911 1180.533, 339.911 1185.883, 339.911 1191.976, 339.911 1201.976, 339.911 1211.976, 339.911 1221.976, 339.911 1229.503, 339.911 1239.503, 339.911 1249.503, 339.911 1259.503, 339.911 1269.503, 339.911 1274.232, 339.911 1284.232, 339.911 1286.903, 339.911 " fill="none" stroke="rgb(0, 0, 0)" stroke-linecap="butt" stroke-linejoin="round" stroke-opacity="1.0" stroke-width="3.0" />
            <path d=" M 1274.232, 339.911 1273.687, 349.896 1273.143, 359.881 1272.599, 369.866 1272.054, 379.851 1271.510, 389.837 1270.966, 399.822 1270.422, 409.807 1269.877, 419.792 1269.333, 429.777 1268.789, 439.763 1268.244, 449.748 1267.700, 459.733 1267.156, 469.718 1266.612, 479.703 1266.067, 489.688 1265.523, 499.674 1264.979, 509.659 1264.434, 519.644 1264.170, 524.495 1263.626, 534.481 1263.413, 538.375 1262.869, 548.360 1262.661, 552.186 1262.116, 562.171 1261.911, 565.928 1261.367, 575.914 1260.823, 585.899 1260.279, 595.884 1259.734, 605.869 1259.190, 615.854 1258.646, 625.840 1258.102, 635.825 1257.557, 645.810 1257.013, 655.795 1256.469, 665.780 1255.924, 675.765 1255.380, 685.751 1254.836, 695.736 1254.292, 705.721 1253.747, 715.706 1253.203, 725.691 1252.659, 735.676 1252.115, 745.662 1251.570, 755.647 1250.958, 766.885 1240.958, 766.885 1230.958, 766.885 1220.958, 766.885 1210.958, 766.885 1200.958, 766.885 1190.958, 766.885 1180.958, 766.885 1170.958, 766.885 1160.958, 766.885 1150.958, 766.885 1140.958, 766.885 1130.958, 766.885 1120.958, 766.885 1110.958, 766.885 1100.958, 766.885 1090.958, 766.885 1080.958, 766.885 1070.958, 766.885 1060.741, 766.885 " fill="none" stroke="rgb(0, 0, 0)" stroke-linecap="butt" stroke-linejoin="round" stroke-opacity="1.0" stroke-width="3.0" />
            <path d=" M 790.890, 766.885 780.890, 766.885 770.890, 766.885 760.890, 766.885 759.038, 766.885 758.662, 756.892 758.285, 746.899 757.909, 736.906 757.533, 726.913 757.157, 716.920 756.781, 706.927 756.404, 696.934 756.028, 686.942 755.652, 676.949 755.276, 666.956 754.899, 656.963 754.523, 646.970 754.147, 636.977 753.771, 626.984 753.395, 616.991 753.018, 606.998 752.642, 597.005 752.266, 587.012 751.890, 577.019 751.472, 565.928 751.096, 555.936 750.955, 552.186 750.578, 542.193 750.435, 538.375 750.059, 528.382 749.912, 524.495 749.536, 514.502 749.160, 504.509 748.784, 494.517 748.407, 484.524 748.031, 474.531 747.655, 464.538 747.279, 454.545 746.902, 444.552 746.526, 434.559 746.150, 424.566 745.774, 414.573 745.398, 404.580 745.021, 394.587 744.645, 384.594 744.269, 374.602 743.893, 364.609 743.516, 354.616 743.140, 344.623 742.963, 339.911 " fill="none" stroke="rgb(0, 0, 0)" stroke-linecap="butt" stroke-linejoin="round" stroke-opacity="1.0" stroke-width="3.0" />
            <path d=" M 1260.030, 813.804 1260.596, 803.820 1261.162, 793.836 1261.728, 783.852 1262.294, 773.868 1262.860, 763.884 1263.427, 753.900 1263.993, 743.917 1264.559, 733.933 1265.125, 723.949 1265.691, 713.965 1266.257, 703.981 1266.824, 693.997 1267.390, 684.013 1267.956, 674.029 1268.522, 664.045 1269.088, 654.061 1269.654, 644.077 1270.221, 634.093 1270.787, 624.109 1271.353, 614.125 1271.691, 608.162 1272.257, 598.178 1272.490, 594.081 1273.056, 584.098 1273.292, 579.929 1273.858, 569.945 1274.099, 565.703 1274.665, 555.719 1275.231, 545.735 1275.797, 535.751 1276.363, 525.767 1276.930, 515.783 1277.496, 505.799 1278.062, 495.815 1278.628, 485.831 1279.194, 475.847 1279.760, 465.863 1280.327, 455.879 1280.893, 445.895 1281.459, 435.911 1282.025, 425.927 1282.591, 415.943 1283.157, 405.959 1283.724, 395.975 1284.290, 385.991 1284.856, 376.007 1285.422, 366.023 1285.988, 356.039 1286.554, 346.056 1286.903, 339.911 " fill="none" stroke="rgb(0, 0, 0)" stroke-linecap="butt" stroke-linejoin="round" stroke-opacity="1.0" stroke-width="3.0" />
            <path d=" M 1250.958, 766.885 1252.856, 776.703 1254.754, 786.521 1256.653, 796.339 1258.551, 806.158 1260.030, 813.804 1250.030, 813.804 1240.030, 813.804 1230.030, 813.804 1220.030, 813.804 1210.030, 813.804 1200.030, 813.804 1190.030, 813.804 1180.030, 813.804 1170.030, 813.804 1160.030, 813.804 1150.030, 813.804 1140.030, 813.804 1130.030, 813.804 1120.030, 813.804 1110.030, 813.804 1100.030, 813.804 1090.030, 813.804 1080.030, 813.804 1070.030, 813.804 1060.030, 813.804 1050.030, 813.804 1040.030, 813.804 1030.030, 813.804 1020.030, 813.804 1010.030, 813.804 1000.030, 813.804 990.030, 813.804 980.030, 813.804 970.030, 813.804 960.030, 813.804 950.030, 813.804 940.030, 813.804 930.030, 813.804 920.030, 813.804 910.030, 813.804 900.030, 813.804 890.030, 813.804 880.030, 813.804 871.481, 813.804 " fill="none" stroke="rgb(0, 0, 0)" stroke-linecap="butt" stroke-linejoin="round" stroke-opacity="1.0" stroke-width="3.0" />
            <path d=" M 1327.771, 303.652 1321.611, 303.652 " fill="none" stroke="rgb(0, 0, 0)" stroke-linecap="butt" stroke-linejoin="round" stroke-opacity="1.0" stroke-width="3.0" />
            <path d=" M 759.038, 766.885 757.714, 776.797 756.390, 786.709 755.067, 796.621 753.743, 806.533 752.772, 813.804 762.772, 813.804 772.772, 813.804 782.772, 813.804 792.772, 813.804 802.772, 813.804 808.683, 813.804 " fill="none" stroke="rgb(0, 0, 0)" stroke-linecap="butt" stroke-linejoin="round" stroke-opacity="1.0" stroke-width="3.0" />
            <path d=" M 1309.991, 584.098 1319.991, 584.098 1329.991, 584.098 1339.991, 584.098 1341.642, 584.098 1349.838, 584.098 1351.318, 578.792 1352.024, 568.817 1352.049, 568.466 1351.780, 558.469 1351.743, 557.111 1350.521, 549.136 1348.861, 547.583 1341.642, 547.583 1331.642, 547.583 1321.642, 547.583 1312.306, 547.583 " fill="none" stroke="rgb(0, 0, 0)" stroke-linecap="butt" stroke-linejoin="round" stroke-opacity="1.0" stroke-width="3.0" />
            <path d=" M 705.165, 547.583 695.165, 547.583 685.165, 547.583 675.165, 547.583 671.414, 547.583 666.251, 547.583 664.997, 549.136 664.074, 557.111 663.870, 567.109 663.843, 568.466 664.377, 578.452 664.395, 578.792 665.513, 584.098 671.414, 584.098 681.414, 584.098 691.414, 584.098 701.414, 584.098 706.840, 584.098 " fill="none" stroke="rgb(0, 0, 0)" stroke-linecap="butt" stroke-linejoin="round" stroke-opacity="1.0" stroke-width="3.0" />
            <path d=" M 808.090, 408.406 800.609, 401.628 793.217, 394.930 785.911, 388.310 778.689, 381.768 " fill="none" stroke="rgb(0, 0, 0)" stroke-linecap="butt" stroke-linejoin="round" stroke-opacity="1.0" stroke-width="3.0" />
            <path d=" M 995.113, 343.618 987.512, 344.958 977.663, 346.694 976.601, 346.881 966.753, 348.617 956.905, 350.353 947.057, 352.089 937.208, 353.825 927.360, 355.561 917.512, 357.297 907.664, 359.033 897.816, 360.769 887.968, 362.505 878.120, 364.241 868.271, 365.977 858.423, 367.713 848.575, 369.449 838.727, 371.185 828.879, 372.921 819.030, 374.657 809.182, 376.393 799.334, 378.128 789.486, 379.864 778.689, 381.768 779.006, 391.763 779.323, 401.758 779.639, 411.753 779.956, 421.748 780.147, 427.776 " fill="none" stroke="rgb(0, 0, 0)" stroke-linecap="butt" stroke-linejoin="round" stroke-opacity="1.0" stroke-width="3.0" />
            <path d=" M 781.416, 467.833 781.733, 477.828 782.049, 487.823 782.366, 497.818 782.683, 507.813 782.999, 517.808 783.316, 527.803 783.633, 537.798 783.949, 547.793 784.266, 557.788 784.583, 567.783 784.899, 577.778 785.216, 587.773 785.533, 597.768 785.849, 607.763 786.166, 617.758 786.483, 627.753 786.799, 637.748 787.116, 647.743 787.432, 657.738 787.749, 667.733 788.066, 677.728 788.382, 687.723 788.699, 697.718 789.016, 707.713 789.332, 717.708 789.649, 727.703 789.966, 737.698 790.282, 747.693 790.599, 757.688 790.890, 766.885 791.207, 776.880 791.524, 786.875 791.718, 793.006 794.499, 796.415 798.488, 801.306 804.809, 809.055 805.332, 809.696 808.683, 813.804 812.251, 818.178 818.572, 825.927 819.246, 826.754 828.952, 824.347 838.659, 821.941 848.365, 819.535 858.071, 817.129 867.777, 814.722 871.481, 813.804 881.187, 811.398 890.893, 808.992 900.599, 806.586 910.305, 804.179 920.012, 801.773 929.718, 799.367 939.424, 796.961 941.622, 796.415 951.328, 794.009 961.035, 791.603 970.741, 789.197 980.447, 786.790 990.153, 784.384 992.430, 783.820 1002.136, 781.414 1006.086, 780.434 1015.792, 778.028 1016.404, 777.877 1019.155, 777.195 1026.687, 775.327 1036.393, 772.921 1036.935, 772.787 1046.641, 770.380 1056.347, 767.974 1060.741, 766.885 1070.447, 764.479 1080.153, 762.072 1089.860, 759.666 1099.566, 757.260 1109.272, 754.854 1118.978, 752.447 1128.684, 750.041 1138.391, 747.635 1148.097, 745.229 1157.803, 742.822 1167.509, 740.416 1177.215, 738.010 1186.921, 735.604 1196.628, 733.197 1206.334, 730.791 1211.286, 729.563 1211.753, 719.574 1212.220, 709.585 1212.687, 699.596 1213.154, 689.607 1213.621, 679.618 1214.088, 669.629 1214.555, 659.640 1215.022, 649.651 1215.489, 639.662 1215.956, 629.672 1216.423, 619.683 1216.890, 609.694 1217.357, 599.705 1217.824, 589.716 1218.291, 579.727 1218.758, 569.738 1219.225, 559.749 1219.692, 549.760 1220.159, 539.771 1220.626, 529.781 1221.093, 519.792 1221.560, 509.803 1222.027, 499.814 1222.494, 489.825 1222.961, 479.836 1223.428, 469.847 1223.895, 459.858 1224.362, 449.869 1224.829, 439.880 1225.296, 429.891 1225.763, 419.902 1226.230, 409.912 1226.697, 399.923 1227.164, 389.934 1227.631, 379.945 1228.098, 369.956 1228.565, 359.967 1229.032, 349.978 1229.503, 339.911 " fill="none" stroke="rgb(0, 0, 0)" stroke-linecap="butt" stroke-linejoin="round" stroke-opacity="1.0" stroke-width="3.0" />
            <path d=" M 1189.657, 712.335 1179.942, 714.706 1170.227, 717.078 1160.512, 719.449 1150.798, 721.820 1141.083, 724.192 1131.368, 726.563 1121.653, 728.935 1111.939, 731.306 1102.224, 733.678 1092.509, 736.049 1082.794, 738.420 1073.080, 740.792 1063.365, 743.163 1053.650, 745.535 1043.935, 747.906 1037.270, 749.533 1027.555, 751.905 1026.978, 752.046 1017.263, 754.417 1016.651, 754.567 1006.936, 756.938 1006.288, 757.096 996.574, 759.467 992.864, 760.373 992.573, 760.444 982.858, 762.816 973.143, 765.187 966.188, 766.885 956.473, 769.256 946.758, 771.628 937.043, 773.999 927.329, 776.371 917.614, 778.742 907.899, 781.113 898.184, 783.485 888.470, 785.856 878.755, 788.228 869.040, 790.599 859.325, 792.971 849.611, 795.342 844.222, 796.658 844.216, 796.415 843.998, 786.418 843.867, 780.411 843.649, 770.414 843.572, 766.885 843.358, 757.074 843.140, 747.076 842.922, 737.078 842.704, 727.081 842.486, 717.083 842.268, 707.085 842.050, 697.088 841.832, 687.090 841.614, 677.093 841.396, 667.095 841.178, 657.097 840.959, 647.100 840.741, 637.102 840.523, 627.104 840.318, 617.665 840.099, 607.668 839.881, 597.670 839.663, 587.672 839.613, 585.375 839.395, 575.378 839.177, 565.380 838.959, 555.382 838.741, 545.385 838.523, 535.387 838.305, 525.390 838.087, 515.392 837.869, 505.394 837.651, 495.397 837.432, 485.399 837.214, 475.401 836.996, 465.404 836.778, 455.406 836.560, 445.409 836.342, 435.411 836.242, 430.831 846.074, 429.005 855.906, 427.179 865.738, 425.354 875.570, 423.528 885.402, 421.703 895.234, 419.877 905.066, 418.052 914.898, 416.226 924.730, 414.400 934.562, 412.575 944.394, 410.749 954.226, 408.924 964.058, 407.098 973.890, 405.273 983.722, 403.447 993.553, 401.621 1003.385, 399.796 1009.391, 398.681 1019.223, 396.855 1020.441, 396.629 1030.273, 394.803 1031.451, 394.585 1041.283, 392.759 1042.421, 392.548 1052.253, 390.722 1062.085, 388.897 1071.917, 387.071 1081.749, 385.245 1091.581, 383.420 1101.413, 381.594 1111.245, 379.769 1121.077, 377.943 1130.909, 376.118 1140.741, 374.292 1150.573, 372.466 1160.405, 370.641 1167.367, 369.348 1177.199, 367.523 1187.031, 365.697 1190.968, 364.966 1200.800, 363.140 1204.558, 362.443 " fill="none" stroke="rgb(0, 0, 0)" stroke-linecap="butt" stroke-linejoin="round" stroke-opacity="1.0" stroke-width="3.0" />
            <path d=" M 819.246, 826.754 818.980, 816.757 818.713, 806.761 818.446, 796.764 818.180, 786.768 817.913, 776.771 817.650, 766.885 817.607, 765.271 817.552, 763.210 817.285, 753.213 817.018, 743.217 816.752, 733.220 816.485, 723.224 816.219, 713.228 815.952, 703.231 815.685, 693.235 815.419, 683.238 815.152, 673.242 814.886, 663.245 814.619, 653.249 814.353, 643.252 814.086, 633.256 813.819, 623.259 813.553, 613.263 813.286, 603.267 813.020, 593.270 812.753, 583.274 812.486, 573.277 812.220, 563.281 811.953, 553.284 811.687, 543.288 811.420, 533.291 811.154, 523.295 810.887, 513.299 810.620, 503.302 810.354, 493.306 810.087, 483.309 809.821, 473.313 809.554, 463.316 809.287, 453.320 809.021, 443.323 808.754, 433.327 808.488, 423.331 808.221, 413.334 808.090, 408.406 817.929, 406.622 827.769, 404.838 837.608, 403.054 847.448, 401.270 857.288, 399.486 867.127, 397.702 876.967, 395.919 886.806, 394.135 896.646, 392.351 906.485, 390.567 916.325, 388.783 926.165, 386.999 936.004, 385.215 945.844, 383.431 955.683, 381.647 965.523, 379.863 975.363, 378.079 985.202, 376.295 995.042, 374.511 1004.881, 372.727 1009.623, 371.867 1019.462, 370.083 1020.724, 369.855 1030.564, 368.071 1031.785, 367.849 1041.625, 366.065 1042.806, 365.851 1052.646, 364.067 1062.486, 362.283 1072.325, 360.499 1082.165, 358.715 1092.004, 356.931 1101.844, 355.147 1111.683, 353.363 1121.523, 351.579 1131.363, 349.795 1141.202, 348.011 1151.042, 346.228 1160.881, 344.444 1168.316, 343.096 1173.833, 342.095 1183.672, 340.312 1185.883, 339.911 " fill="none" stroke="rgb(0, 0, 0)" stroke-linecap="butt" stroke-linejoin="round" stroke-opacity="1.0" stroke-width="3.0" />
            <path d=" M 990.424, 722.105 985.705, 723.227 975.976, 725.540 975.509, 725.651 965.780, 727.964 956.052, 730.278 946.323, 732.591 936.594, 734.904 926.865, 737.217 917.137, 739.531 907.408, 741.844 897.679, 744.157 887.950, 746.471 878.221, 748.784 868.493, 751.097 858.764, 753.410 849.035, 755.724 843.358, 757.074 " fill="none" stroke="rgb(0, 0, 0)" stroke-linecap="butt" stroke-linejoin="round" stroke-opacity="1.0" stroke-width="3.0" />
            <path d=" M 1204.558, 362.443 1204.133, 372.433 1203.707, 382.424 1203.282, 392.415 1202.856, 402.406 1202.431, 412.397 1202.005, 422.388 1201.580, 432.379 1201.154, 442.370 1200.729, 452.361 1200.303, 462.352 1199.878, 472.343 1199.452, 482.334 1199.027, 492.325 1198.601, 502.316 1198.176, 512.307 1197.750, 522.298 1197.325, 532.289 1196.899, 542.279 1196.474, 552.270 1196.048, 562.261 1195.623, 572.252 1195.197, 582.243 1194.772, 592.234 1194.346, 602.225 1193.921, 612.216 1193.495, 622.207 1193.070, 632.198 1192.644, 642.189 1192.219, 652.180 1191.793, 662.171 1191.368, 672.162 1190.942, 682.153 1190.516, 692.144 1190.091, 702.135 1189.657, 712.335 1182.152, 705.725 1174.647, 699.116 1167.143, 692.507 1159.638, 685.898 1156.036, 682.726 " fill="none" stroke="rgb(0, 0, 0)" stroke-linecap="butt" stroke-linejoin="round" stroke-opacity="1.0" stroke-width="3.0" />
            <path d=" M 1160.886, 548.583 1160.525, 558.576 1160.164, 568.570 1159.802, 578.563 1159.441, 588.557 1159.080, 598.550 1158.719, 608.544 1158.357, 618.537 1157.996, 628.531 1157.635, 638.524 1157.273, 648.518 1156.912, 658.511 1156.551, 668.504 1156.189, 678.498 1156.036, 682.726 1146.308, 685.039 1136.579, 687.352 1126.850, 689.666 1117.121, 691.979 1107.393, 694.292 1097.664, 696.605 1095.619, 697.092 " fill="none" stroke="rgb(0, 0, 0)" stroke-linecap="butt" stroke-linejoin="round" stroke-opacity="1.0" stroke-width="3.0" />
            <path d=" M 995.042, 355.311 996.343, 358.621 1002.667, 361.052 1011.599, 361.659 1019.688, 360.206 1023.818, 357.259 " fill="none" stroke="rgb(0, 0, 0)" stroke-linecap="butt" stroke-linejoin="round" stroke-opacity="1.0" stroke-width="3.0" />
            <path d=" M 992.430, 783.820 992.406, 787.809 993.602, 792.080 999.442, 795.215 1007.697, 795.998 1015.179, 794.124 1019.009, 790.322 1019.120, 780.323 1019.155, 777.195 " fill="none" stroke="rgb(0, 0, 0)" stroke-linecap="butt" stroke-linejoin="round" stroke-opacity="1.0" stroke-width="3.0" />
            <path d=" M 1023.818, 357.259 1023.929, 347.259 1024.010, 339.911 " fill="none" stroke="rgb(0, 0, 0)" stroke-linecap="butt" stroke-linejoin="round" stroke-opacity="1.0" stroke-width="3.0" />
            <path d=" M 918.293, 568.825 917.747, 565.865 916.301, 555.970 915.590, 551.114 914.522, 541.171 914.021, 536.519 913.349, 526.542 913.056, 522.201 912.803, 512.204 912.704, 508.277 912.906, 498.279 912.975, 494.866 913.673, 484.891 913.869, 482.084 915.120, 472.163 915.387, 470.046 917.261, 460.223 917.521, 458.861 920.109, 449.202 920.260, 448.637 923.589, 439.476 927.485, 431.474 931.923, 424.720 936.869, 419.296 942.285, 415.273 948.128, 412.713 954.349, 411.664 960.892, 412.162 967.698, 414.227 974.702, 417.863 981.835, 423.059 989.025, 429.784 995.606, 437.313 996.197, 437.988 1002.123, 446.043 1003.273, 447.605 1008.609, 456.063 1010.176, 458.548 1014.974, 467.321 1016.829, 470.712 1021.133, 479.738 1023.154, 483.976 1027.000, 493.207 1029.080, 498.201 1032.491, 507.601 1034.535, 513.234 1037.531, 522.775 1039.458, 528.912 1042.048, 538.570 1043.120, 542.569 1043.788, 545.058 1045.978, 554.816 1047.477, 561.493 1049.265, 571.332 1049.493, 572.588 1050.481, 578.028 1051.858, 587.933 1052.768, 594.478 1053.719, 604.433 1054.313, 610.656 1054.815, 620.644 1055.103, 626.382 1055.123, 636.382 1055.133, 641.481 1054.627, 651.469 1054.408, 655.792 1053.319, 665.733 1052.944, 669.164 1051.197, 679.010 1050.763, 681.459 1048.263, 691.142 1047.898, 692.559 1044.526, 701.973 1044.387, 702.358 1040.566, 710.182 1040.278, 710.773 1035.620, 717.735 1030.471, 723.196 1024.889, 727.123 1018.937, 729.502 1012.680, 730.336 1006.182, 729.641 999.508, 727.449 992.725, 723.803 990.424, 722.105 985.895, 718.761 979.081, 712.389 972.460, 704.894 972.343, 704.761 966.340, 696.763 965.739, 695.962 960.293, 687.575 959.324, 686.083 954.384, 677.389 953.152, 675.221 948.674, 666.279 947.271, 663.476 943.222, 654.332 941.727, 650.956 938.082, 641.644 936.565, 637.770 933.303, 628.317 931.824, 624.030 928.931, 614.458 927.540, 609.853 925.009, 600.178 924.820, 599.455 " fill="none" stroke="rgb(0, 0, 0)" stroke-linecap="butt" stroke-linejoin="round" stroke-opacity="1.0" stroke-width="3.0" />
            <path d=" M 1108.715, 577.364 1107.369, 567.455 1107.140, 565.766 1106.167, 560.375 1104.391, 550.534 1104.182, 549.380 1101.984, 539.625 1100.515, 533.102 1099.847, 530.637 1097.229, 520.986 1096.180, 517.115 1093.139, 507.588 1091.227, 501.599 1087.752, 492.222 1085.715, 486.727 1081.788, 477.530 1079.709, 472.661 1075.305, 463.684 1073.278, 459.553 1068.364, 450.844 1066.498, 447.538 1061.031, 439.165 1059.446, 436.737 1053.376, 428.790 1052.201, 427.253 1045.469, 419.858 1044.844, 419.171 1037.452, 412.558 1030.105, 407.462 1022.876, 403.912 1015.836, 401.920 1009.054, 401.482 1002.591, 402.577 992.760, 404.407 982.928, 406.237 973.097, 408.066 963.266, 409.896 953.435, 411.726 948.128, 412.713 " fill="none" stroke="rgb(0, 0, 0)" stroke-linecap="butt" stroke-linejoin="round" stroke-opacity="1.0" stroke-width="3.0" />
            <path d=" M 1111.374, 627.215 1111.448, 617.215 1111.474, 613.724 1111.044, 603.733 1110.803, 598.119 1109.910, 588.224 " fill="none" stroke="rgb(0, 0, 0)" stroke-linecap="butt" stroke-linejoin="round" stroke-opacity="1.0" stroke-width="3.0" />
            <path d=" M 1018.937, 729.502 1028.661, 727.168 1038.384, 724.833 1048.108, 722.498 1057.832, 720.164 1067.555, 717.829 1073.014, 716.519 1079.207, 714.090 1085.031, 710.128 1090.421, 704.648 1095.315, 697.682 1095.619, 697.092 1099.654, 689.280 1103.221, 679.938 1103.384, 679.510 1106.063, 669.876 1106.458, 668.457 1108.364, 658.641 1108.833, 656.225 1110.060, 646.300 1110.477, 642.932 1111.005, 634.460 " fill="none" stroke="rgb(0, 0, 0)" stroke-linecap="butt" stroke-linejoin="round" stroke-opacity="1.0" stroke-width="3.0" />
            <path d=" M 983.510, 586.807 984.091, 586.653 984.637, 586.352 985.143, 585.910 985.604, 585.329 986.015, 584.615 986.373, 583.774 986.674, 582.816 986.914, 581.748 987.092, 580.581 987.205, 579.327 987.253, 577.997 987.234, 576.605 987.150, 575.164 987.001, 573.688 986.787, 572.192 986.512, 570.689 986.179, 569.196 985.789, 567.726 985.347, 566.294 984.858, 564.914 984.327, 563.599 983.757, 562.362 983.156, 561.215 982.529, 560.170 981.882, 559.236 981.221, 558.422 980.553, 557.736 979.884, 557.185 979.222, 556.773 978.571, 556.505 977.939, 556.383 977.332, 556.407 " fill="none" stroke="rgb(0, 0, 0)" stroke-linecap="butt" stroke-linejoin="round" stroke-opacity="1.0" stroke-width="3.0" />
            <path d=" M 1106.167, 560.375 1115.942, 558.268 1125.718, 556.162 1135.493, 554.055 1145.269, 551.948 1155.045, 549.842 1160.886, 548.583 1170.662, 546.476 1180.445, 544.368 1181.108, 544.196 1181.736, 543.885 1182.323, 543.435 1182.864, 542.852 1183.354, 542.141 1183.787, 541.309 1183.881, 541.070 1184.159, 540.364 1184.467, 539.314 1184.708, 538.170 1184.878, 536.943 1184.977, 535.645 1185.004, 534.289 1184.957, 532.886 1184.838, 531.452 1184.647, 530.001 1184.387, 528.545 1184.385, 528.538 1184.060, 527.101 1183.669, 525.681 1183.218, 524.300 1182.712, 522.972 1182.155, 521.708 1181.552, 520.522 1180.911, 519.425 1180.237, 518.427 1179.536, 517.539 1178.816, 516.768 1178.084, 516.123 1177.346, 515.608 1176.610, 515.230 1175.883, 514.990 1175.172, 514.893 1174.484, 514.938 1164.698, 516.996 1162.008, 517.562 1152.222, 519.620 1142.436, 521.679 1132.651, 523.737 1122.865, 525.795 1113.079, 527.854 1103.293, 529.912 1099.847, 530.637 " fill="none" stroke="rgb(0, 0, 0)" stroke-linecap="butt" stroke-linejoin="round" stroke-opacity="1.0" stroke-width="3.0" />
            <path d=" M 977.332, 556.407 970.128, 557.923 960.342, 559.981 950.556, 562.039 940.770, 564.098 930.984, 566.156 921.198, 568.214 918.293, 568.825 908.508, 570.884 898.722, 572.942 888.936, 575.001 879.150, 577.059 869.364, 579.117 859.578, 581.176 849.792, 583.234 839.613, 585.375 " fill="none" stroke="rgb(0, 0, 0)" stroke-linecap="butt" stroke-linejoin="round" stroke-opacity="1.0" stroke-width="3.0" />
            <path d=" M 479.433, 115.747 469.433, 115.747 465.477, 115.747 461.549, 124.943 457.621, 134.139 453.693, 143.335 449.766, 152.532 445.838, 161.728 441.910, 170.924 437.982, 180.121 434.054, 189.317 430.126, 198.513 426.198, 207.710 422.271, 216.906 418.343, 226.102 414.415, 235.298 410.487, 244.495 406.214, 254.498 416.214, 254.498 426.214, 254.498 426.441, 254.498 430.374, 245.304 434.308, 236.110 438.242, 226.917 442.175, 217.723 443.835, 213.843 453.835, 213.843 463.835, 213.843 473.835, 213.843 483.835, 213.843 493.835, 213.843 502.491, 213.843 506.615, 222.953 510.740, 232.063 514.864, 241.173 518.988, 250.283 520.897, 254.498 530.897, 254.498 540.897, 254.498 541.123, 254.498 537.060, 245.360 532.998, 236.223 528.935, 227.085 524.872, 217.948 520.810, 208.810 516.747, 199.673 512.685, 190.535 508.622, 181.397 504.559, 172.260 500.497, 163.122 496.434, 153.985 492.371, 144.847 488.309, 135.710 484.246, 126.572 480.184, 117.435 479.433, 115.747 " fill="none" stroke="rgb(0, 0, 0)" stroke-linecap="butt" stroke-linejoin="round" stroke-opacity="1.0" stroke-width="3.0" />
            <path d=" M 451.521, 196.044 455.338, 186.802 459.155, 177.559 462.972, 168.316 466.789, 159.073 470.606, 149.830 472.152, 146.086 476.220, 155.221 480.288, 164.356 484.356, 173.491 488.425, 182.626 492.493, 191.761 494.400, 196.044 484.400, 196.044 474.400, 196.044 464.400, 196.044 454.400, 196.044 451.521, 196.044 " fill="none" stroke="rgb(0, 0, 0)" stroke-linecap="butt" stroke-linejoin="round" stroke-opacity="1.0" stroke-width="3.0" />
            <path d=" M 1284.714, 268.378 1284.667, 269.222 1284.111, 279.206 1283.556, 289.191 1283.000, 299.176 1282.751, 303.652 1282.196, 313.636 1281.690, 322.725 1281.677, 322.958 1281.761, 322.958 1291.761, 322.958 1301.477, 322.958 1304.915, 322.801 1308.004, 322.352 1310.755, 321.640 1312.459, 320.976 1313.179, 320.696 1315.288, 319.552 1317.094, 318.237 1318.608, 316.783 1319.840, 315.219 1320.802, 313.578 1321.506, 311.889 1321.962, 310.184 1322.181, 308.493 1322.184, 306.702 1321.969, 305.000 1321.611, 303.652 1321.542, 303.393 1320.908, 301.887 1320.073, 300.489 1319.044, 299.205 1317.826, 298.043 1316.426, 297.008 1314.850, 296.107 1313.997, 295.737 1313.103, 295.347 1311.192, 294.734 1309.123, 294.275 1309.133, 294.115 1310.612, 293.506 1311.962, 292.837 1313.184, 292.107 1314.266, 291.324 1314.280, 291.314 1315.251, 290.455 1316.100, 289.527 1316.827, 288.529 1317.435, 287.458 1317.924, 286.312 1318.297, 285.089 1318.554, 283.786 1318.699, 282.401 1318.692, 280.672 1318.455, 278.962 1317.978, 277.293 1317.254, 275.693 1316.275, 274.186 1315.372, 273.176 1315.033, 272.797 1313.521, 271.553 1311.730, 270.477 1309.652, 269.597 1308.306, 269.222 1307.281, 268.936 1304.608, 268.522 1301.626, 268.378 1291.626, 268.378 1284.714, 268.378 " fill="none" stroke="rgb(0, 0, 0)" stroke-linecap="butt" stroke-linejoin="round" stroke-opacity="1.0" stroke-width="3.0" />
            <path d=" M 1292.679, 275.478 1300.357, 275.478 1302.165, 275.550 1303.758, 275.760 1305.146, 276.096 1306.338, 276.550 1307.344, 277.109 1308.176, 277.764 1308.842, 278.505 1309.353, 279.320 1309.719, 280.200 1309.950, 281.134 1310.057, 282.113 1310.049, 283.124 1309.881, 284.529 1309.553, 285.809 1309.064, 286.966 1308.413, 287.999 1307.599, 288.910 1306.622, 289.698 1305.480, 290.363 1304.174, 290.907 1302.700, 291.330 1301.060, 291.631 1299.251, 291.812 1297.273, 291.872 1291.744, 291.872 1292.313, 281.888 1292.679, 275.478 " fill="none" stroke="rgb(0, 0, 0)" stroke-linecap="butt" stroke-linejoin="round" stroke-opacity="1.0" stroke-width="3.0" />
            <path d=" M 1291.342, 298.916 1301.368, 298.916 1303.454, 298.988 1305.340, 299.199 1307.027, 299.543 1308.518, 300.011 1309.815, 300.597 1310.921, 301.293 1311.838, 302.092 1312.569, 302.987 1312.939, 303.652 1313.116, 303.970 1313.439, 304.908 1313.482, 305.034 1313.670, 306.172 1313.681, 307.377 1313.562, 308.400 1313.316, 309.426 1313.134, 309.904 1312.932, 310.436 1312.393, 311.413 1311.685, 312.340 1310.794, 313.200 1309.705, 313.975 1308.405, 314.648 1306.877, 315.202 1305.108, 315.619 1303.084, 315.881 1300.788, 315.973 1290.788, 315.973 1290.368, 315.973 1290.938, 305.989 1291.071, 303.652 1291.342, 298.916 " fill="none" stroke="rgb(0, 0, 0)" stroke-linecap="butt" stroke-linejoin="round" stroke-opacity="1.0" stroke-width="3.0" />
            <path d=" M 792.338, 423.154 791.207, 423.339 787.797, 424.164 784.579, 425.341 781.575, 426.845 780.147, 427.776 778.807, 428.650 776.297, 430.731 774.067, 433.061 772.140, 435.615 770.536, 438.366 769.277, 441.289 768.384, 444.357 767.878, 447.543 767.780, 450.821 768.012, 453.133 768.555, 455.474 769.415, 457.784 770.595, 460.009 772.102, 462.090 773.938, 463.971 776.109, 465.596 778.620, 466.908 781.416, 467.833 781.474, 467.852 784.676, 468.373 788.232, 468.414 792.146, 467.921 793.812, 467.572 795.390, 467.176 796.888, 466.737 798.313, 466.255 799.669, 465.734 800.964, 465.174 802.205, 464.579 803.397, 463.951 804.547, 463.291 805.661, 462.601 806.745, 461.884 807.807, 461.142 807.625, 454.387 806.409, 455.380 805.175, 456.315 803.927, 457.189 802.668, 458.003 801.401, 458.753 800.128, 459.440 798.853, 460.061 797.579, 460.614 796.309, 461.099 795.046, 461.514 793.793, 461.858 792.553, 462.128 789.994, 462.475 787.577, 462.526 785.316, 462.292 783.224, 461.783 781.317, 461.010 781.198, 460.938 779.607, 459.982 778.108, 458.709 776.836, 457.201 775.804, 455.469 775.026, 453.522 774.516, 451.372 774.290, 449.028 774.367, 446.663 774.743, 444.361 775.402, 442.142 776.327, 440.025 777.502, 438.030 778.911, 436.176 780.365, 434.661 780.536, 434.483 782.360, 432.971 784.368, 431.658 786.540, 430.565 788.862, 429.710 791.314, 429.112 792.578, 428.909 793.829, 428.769 795.071, 428.691 796.308, 428.676 797.545, 428.725 798.785, 428.837 800.033, 429.013 801.294, 429.253 802.570, 429.558 803.867, 429.927 805.189, 430.361 806.540, 430.861 806.359, 424.161 804.879, 423.836 803.455, 423.558 802.081, 423.327 800.752, 423.143 799.464, 423.006 798.213, 422.916 796.993, 422.872 795.801, 422.874 794.630, 422.922 793.478, 423.015 792.338, 423.154 " fill="none" stroke="rgb(0, 0, 0)" stroke-linecap="butt" stroke-linejoin="round" stroke-opacity="1.0" stroke-width="3.0" />
            <path d=" M 1107.351, 574.361 1102.437, 583.070 1097.523, 591.780 1092.609, 600.489 1091.569, 602.333 1095.663, 611.457 1099.625, 620.286 1101.357, 623.837 1103.122, 626.879 1104.903, 629.421 1106.682, 631.473 1108.443, 633.044 1110.167, 634.142 1111.005, 634.460 1111.837, 634.777 1113.434, 634.956 1114.941, 634.689 1116.337, 633.984 1117.606, 632.850 1118.727, 631.294 1119.621, 629.500 1120.371, 627.372 1120.958, 624.932 1121.362, 622.199 1121.561, 619.195 1121.537, 615.942 1121.267, 612.461 1120.734, 608.776 1119.916, 604.908 1118.795, 600.883 1117.351, 596.723 1115.567, 592.453 1111.432, 583.348 1108.715, 577.364 1107.351, 574.361 " fill="none" stroke="rgb(0, 0, 0)" stroke-linecap="butt" stroke-linejoin="round" stroke-opacity="1.0" stroke-width="3.0" />
            <path d=" M 1108.307, 584.690 1109.910, 588.224 1112.980, 594.995 1114.338, 598.211 1115.458, 601.324 1116.348, 604.321 1117.018, 607.191 1117.477, 609.925 1117.734, 612.510 1117.799, 614.938 1117.683, 617.197 1117.394, 619.279 1116.943, 621.173 1116.341, 622.869 1115.597, 624.359 1115.026, 625.195 1114.314, 625.963 1113.470, 626.599 1112.502, 627.039 1111.419, 627.220 1111.374, 627.215 1110.228, 627.078 1108.939, 626.551 1107.559, 625.575 1106.096, 624.089 1104.559, 622.030 1102.954, 619.335 1101.290, 615.942 1097.191, 606.821 1096.546, 605.386 1101.487, 596.692 1106.427, 587.997 1108.307, 584.690 " fill="none" stroke="rgb(0, 0, 0)" stroke-linecap="butt" stroke-linejoin="round" stroke-opacity="1.0" stroke-width="3.0" />
            <path d=" M 780.365, 434.661 780.682, 444.656 780.998, 454.651 781.198, 460.938 " fill="none" stroke="rgb(0, 0, 0)" stroke-linecap="butt" stroke-linejoin="round" stroke-opacity="1.0" stroke-width="3.0" />
            <path d=" M 840.318, 617.665 850.093, 615.559 859.869, 613.452 869.644, 611.345 879.420, 609.239 889.195, 607.132 898.971, 605.026 908.747, 602.919 918.522, 600.812 924.820, 599.455 934.595, 597.349 944.371, 595.242 954.146, 593.135 963.922, 591.029 973.698, 588.922 976.608, 588.295 983.510, 586.807 " fill="none" stroke="rgb(0, 0, 0)" stroke-linecap="butt" stroke-linejoin="round" stroke-opacity="1.0" stroke-width="3.0" />
            <path d=" M 995.136, 339.911 995.113, 343.618 995.052, 353.618 995.042, 355.311 " fill="none" stroke="rgb(0, 0, 0)" stroke-linecap="butt" stroke-linejoin="round" stroke-opacity="1.0" stroke-width="3.0" />
            <path d=" M 1167.367, 369.348 1167.005, 379.342 1166.644, 389.335 1166.283, 399.329 1165.922, 409.322 1165.560, 419.315 1165.199, 429.309 1164.838, 439.302 1164.476, 449.296 1164.115, 459.289 1163.754, 469.283 1163.392, 479.276 1163.031, 489.270 1162.670, 499.263 1162.308, 509.257 1162.008, 517.562 " fill="none" stroke="rgb(0, 0, 0)" stroke-linecap="butt" stroke-linejoin="round" stroke-opacity="1.0" stroke-width="3.0" />
            <path d=" M 1282.751, 303.652 1272.751, 303.652 1262.751, 303.652 1252.751, 303.652 1242.751, 303.652 1232.751, 303.652 1222.751, 303.652 1212.751, 303.652 1202.751, 303.652 1192.751, 303.652 1182.751, 303.652 1172.751, 303.652 1162.751, 303.652 1152.751, 303.652 1142.751, 303.652 1132.751, 303.652 1122.751, 303.652 1112.751, 303.652 1102.751, 303.652 1092.751, 303.652 1082.751, 303.652 1072.751, 303.652 1062.751, 303.652 1052.751, 303.652 1042.751, 303.652 1032.751, 303.652 1022.751, 303.652 1012.751, 303.652 1002.751, 303.652 992.751, 303.652 982.751, 303.652 972.751, 303.652 962.751, 303.652 952.751, 303.652 942.751, 303.652 932.751, 303.652 922.751, 303.652 912.751, 303.652 902.751, 303.652 892.751, 303.652 882.751, 303.652 872.751, 303.652 862.751, 303.652 852.751, 303.652 842.751, 303.652 832.751, 303.652 822.751, 303.652 812.751, 303.652 802.751, 303.652 792.751, 303.652 782.751, 303.652 772.751, 303.652 762.751, 303.652 752.751, 303.652 742.751, 303.652 732.751, 303.652 722.751, 303.652 712.751, 303.652 702.751, 303.652 693.979, 303.652 " fill="none" stroke="rgb(0, 0, 0)" stroke-linecap="butt" stroke-linejoin="round" stroke-opacity="1.0" stroke-width="3.0" />
            <path d=" M 1312.939, 303.652 1302.939, 303.652 1292.939, 303.652 1291.071, 303.652 " fill="none" stroke="rgb(0, 0, 0)" stroke-linecap="butt" stroke-linejoin="round" stroke-opacity="1.0" stroke-width="3.0" />
        </g>
    </g>
</svg>
