<?xml version="1.0" encoding="UTF-8" standalone="no"?>
<!-- Created with Inkscape (http://www.inkscape.org/) -->

<svg
   width="222.827mm"
   height="245.10191mm"
   viewBox="0 0 222.827 245.10192"
   version="1.1"
   id="svg5"
   xml:space="preserve"
   inkscape:version="1.3.2 (091e20e, 2023-11-25, custom)"
   sodipodi:docname="giro3.svg"
   inkscape:export-filename="giro3.png"
   inkscape:export-xdpi="300"
   inkscape:export-ydpi="300"
   xmlns:inkscape="http://www.inkscape.org/namespaces/inkscape"
   xmlns:sodipodi="http://sodipodi.sourceforge.net/DTD/sodipodi-0.dtd"
   xmlns="http://www.w3.org/2000/svg"
   xmlns:svg="http://www.w3.org/2000/svg"><sodipodi:namedview
     id="namedview7"
     pagecolor="#ffffff"
     bordercolor="#000000"
     borderopacity="0.25"
     inkscape:showpageshadow="2"
     inkscape:pageopacity="0.0"
     inkscape:pagecheckerboard="0"
     inkscape:deskcolor="#d1d1d1"
     inkscape:document-units="mm"
     showgrid="false"
     inkscape:zoom="0.96882954"
     inkscape:cx="345.77806"
     inkscape:cy="506.28101"
     inkscape:window-width="1920"
     inkscape:window-height="1009"
     inkscape:window-x="-8"
     inkscape:window-y="-8"
     inkscape:window-maximized="1"
     inkscape:current-layer="layer3"
     inkscape:export-bgcolor="#ffffffff" /><defs
     id="defs2"><marker
       style="overflow:visible"
       id="marker1463"
       refX="0"
       refY="0"
       orient="auto-start-reverse"
       inkscape:stockid="TriangleStart"
       markerWidth="5.32440803"
       markerHeight="6.15538502"
       viewBox="0 0 5.3244081 6.1553851"
       inkscape:isstock="true"
       inkscape:collect="always"
       preserveAspectRatio="xMidYMid"><path
         transform="scale(0.5)"
         style="fill:context-stroke;fill-rule:evenodd;stroke:context-stroke;stroke-width:1pt"
         d="M 5.77,0 -2.88,5 V -5 Z"
         id="path1461" /></marker><marker
       style="overflow:visible"
       id="marker1320"
       refX="0"
       refY="0"
       orient="auto-start-reverse"
       inkscape:stockid="TriangleStart"
       markerWidth="5.3244081"
       markerHeight="6.155385"
       viewBox="0 0 5.3244081 6.1553851"
       inkscape:isstock="true"
       inkscape:collect="always"
       preserveAspectRatio="xMidYMid"><path
         transform="scale(0.5)"
         style="fill:context-stroke;fill-rule:evenodd;stroke:context-stroke;stroke-width:1pt"
         d="M 5.77,0 -2.88,5 V -5 Z"
         id="path1318" /></marker><marker
       style="overflow:visible"
       id="TriangleStart"
       refX="0"
       refY="0"
       orient="auto-start-reverse"
       inkscape:stockid="TriangleStart"
       markerWidth="5.3244081"
       markerHeight="6.155385"
       viewBox="0 0 5.3244081 6.1553851"
       inkscape:isstock="true"
       inkscape:collect="always"
       preserveAspectRatio="xMidYMid"><path
         transform="scale(0.5)"
         style="fill:context-stroke;fill-rule:evenodd;stroke:context-stroke;stroke-width:1pt"
         d="M 5.77,0 -2.88,5 V -5 Z"
         id="path135" /></marker></defs><g
     inkscape:groupmode="layer"
     id="layer4"
     inkscape:label="Camada 4"
     transform="translate(15.950807,5.9896353)"
     style="fill:#ffffff" /><g
     inkscape:label="Camada 1"
     inkscape:groupmode="layer"
     id="layer1"
     transform="translate(-20.396349,4.8454989)"
     sodipodi:insensitive="true"><g
       id="strokes"
       inkscape:label="strokes"
       transform="matrix(0.20540436,0,0,0.20540436,-84.208139,40.600602)"><path
         fill="none"
         stroke-width="3"
         stroke-linecap="butt"
         stroke-opacity="1"
         stroke="#000000"
         stroke-linejoin="round"
         d="m 819.935,238.712 9.052,-3.615 9.682,-2.503 8.952,-2.314 9.937,-1.122 8.125,-0.917 9.987,0.498 6.846,0.342 9.705,2.412 5.271,1.311 8.875,4.607 3.662,1.901 7.256,6.882 2.332,2.213 4.8,8.772 1.424,2.602 1.897,9.818 0.663,3.432 -0.862,9.962 -0.404,4.67 -3.133,9.497 -1.965,5.953 -4.892,8.722 -3.885,6.927 -6.238,7.816 -5.9,7.391 -7.284,6.851 -7.284,6.852 -0.456,0.428 -8.114,5.844 -8.115,5.843 -1.071,0.771 -8.784,4.78 -8.784,4.779 -1.292,0.703 -9.32,3.626 -9.319,3.626 -0.992,0.386 -9.723,2.337 -9.858,2.37 -9.964,0.854 -8.76,0.75 -9.96,-0.893 -7.149,-0.641 -9.556,-2.947 -5.267,-1.624 -8.514,-5.246 -3.466,-2.136 -6.621,-7.493 -2.09,-2.365 -3.974,-9.176 -1.185,-2.738 -1.085,-9.941 -0.387,-3.542 1.507,-9.886 0.706,-4.638 3.582,-9.336 2.179,-5.679 5.179,-8.554 3.875,-6.4 6.408,-7.677 5.577,-6.682 7.372,-6.757 7.095,-6.501 0.57,-0.406"
         id="path61" /><path
         fill="none"
         stroke-width="3"
         stroke-linecap="butt"
         stroke-opacity="1"
         stroke="#000000"
         stroke-linejoin="round"
         d="m 740.722,306.488 -4.769,8.79 -4.769,8.789 -4.769,8.79 -4.769,8.789 -2.307,4.252 -3.597,9.33 -3.598,9.331 -1.568,4.069 -3.573,9.34 -3.572,9.34 -3.572,9.34 -2.415,6.313 -1.588,9.873 -1.588,9.873 -1.199,7.451 -0.214,9.998 -0.215,9.997 -0.214,9.998 -0.058,2.705 0.879,9.961 0.879,9.962 0.748,8.472 2.572,9.664 2.573,9.663 2.572,9.664 2.508,9.419 3.603,9.328 3.604,9.328 3.364,8.708 4.731,8.81 4.732,8.81 4.732,8.809 4.731,8.81 4.732,8.81 4.706,8.762 5.705,8.213 5.704,8.213 5.705,8.213 5.705,8.214 5.705,8.213 5.704,8.213 5.705,8.213 5.705,8.213 3.084,4.44 6.118,7.91 6.119,7.91 6.118,7.91 0.419,0.541 6.634,7.482 6.635,7.482 6.635,7.481 6.635,7.482 6.635,7.482 2.525,2.848 7.999,6.002 7.998,6.001 7.999,6.002 0.926,0.695 8.311,5.562 8.31,5.561 8.311,5.562 2.248,1.504 9.211,3.892 9.212,3.892 9.211,3.893 1.086,0.458 9.685,2.491 9.684,2.491 4.547,1.169 9.833,1.823 9.832,1.823 9.879,1.831 9.999,-0.081 10,-0.081 10,-0.081 2.116,-0.017 9.837,-1.795 9.838,-1.795 9.837,-1.795 3.829,-0.698 9.428,-3.333 9.428,-3.334 9.428,-3.333 4.842,-1.711 5.064,-1.834 0.543,-0.292 4.299,-2.305 8.813,-4.725 8.813,-4.725 2.561,-1.373 5.892,-4.416 4.01,-3.006 8.002,-5.998 4.696,-3.52 7.149,-5.949 6.976,-7.164 6.977,-7.164 6.977,-7.164 3.168,-3.253 5.699,-8.216 5.7,-8.217 5.699,-8.217 1.701,-2.451 4.118,-9.113 4.118,-9.113 4.118,-9.112 0.418,-0.925 2.618,-9.651 2.619,-9.651 0.819,-3.02 2.183,-9.758 2.183,-9.759 2.184,-9.759 0.492,-2.198 -0.115,-9.999 -0.114,-9.999 -0.115,-10.031 -0.721,-9.974 -0.721,-9.974 -0.721,-9.974 -0.275,-3.798 -2.665,-9.638 -2.665,-9.639 -2.743,-9.925 -3.223,-9.466 -3.222,-9.467 -3.222,-9.467 -3.222,-9.466 -3.223,-9.467 -1.393,-4.091 -4.316,-9.021 -4.316,-9.02 -4.317,-9.021 -4.316,-9.02 -4.317,-9.021 -4.316,-9.02 -4.317,-9.021 -4.316,-9.02 -2.362,-4.936 -5.234,-8.521 -5.234,-8.521 -5.385,-8.768 -5.316,-8.47 -5.317,-8.47 -5.316,-8.469 -5.317,-8.47 -5.316,-8.47 -5.016,-7.989 -7.124,-7.017 -7.125,-7.017 -7.125,-7.017 -7.124,-7.017 -0.433,-0.427 -7.45,-6.671 -7.449,-6.671 -5.887,-5.272 -8.791,-4.767 -8.791,-4.766 -8.79,-4.767 -3.521,-1.909 -8.933,-4.493 -8.934,-4.494 -5.926,-2.981 -9.715,-2.372 -9.714,-2.372 -8.495,-2.074 -9.89,-1.476 -9.891,-1.477 -9.89,-1.476 -3.814,-0.569 -9.988,-0.495 -9.988,-0.496 -5.428,-0.269 -9.998,-0.208 -9.998,-0.207 -9.998,-0.208 -10.105,-0.21"
         id="path63" /><path
         fill="none"
         stroke-width="3"
         stroke-linecap="butt"
         stroke-opacity="1"
         stroke="#000000"
         stroke-linejoin="round"
         d="m 1085.7,784.981 5.097,8.604 0.435,0.735 1.994,2.293 2.57,1.796 3.048,1.227 3.409,0.611 3.639,-0.032 3.726,-0.674 3.669,-1.292 3.469,-1.858 3.133,-2.353 2.675,-2.755 2.113,-3.051 1.47,-3.225 0.77,-3.275 0.044,-3.198 -0.683,-2.998 -1.381,-2.682 -4.809,-8.423"
         id="path65" /><path
         fill="none"
         stroke-width="3"
         stroke-linecap="butt"
         stroke-opacity="1"
         stroke="#000000"
         stroke-linejoin="round"
         d="m 850.289,291.878 1.333,2.657 0.489,3.059 -0.376,3.347 -1.231,3.504 -2.039,3.525 -2.771,3.41 -3.395,3.161 -3.888,2.787 -4.227,2.304 -4.403,1.73 -4.404,1.091 -4.234,0.409 -3.9,-0.288 -3.414,-0.971 -2.798,-1.614 -2.076,-2.192"
         id="path67" /><path
         fill="none"
         stroke-width="3"
         stroke-linecap="butt"
         stroke-opacity="1"
         stroke="#000000"
         stroke-linejoin="round"
         d="m 850.289,291.878 -4.958,-8.684 -4.958,-8.684 -4.958,-8.684 -4.959,-8.685 -4.958,-8.684 -4.958,-8.684 -0.605,-1.061 -4.959,-8.684 -4.958,-8.684 -4.958,-8.685 -4.958,-8.684 -4.958,-8.684 -4.959,-8.684 -1.244,-2.181 -2.127,-2.096 -2.864,-1.496 -3.49,-0.841 -3.981,-0.155 -4.32,0.535 -4.496,1.201 -4.5,1.823 -4.336,2.374 -4.009,2.837 -3.53,3.192 -2.917,3.427 -2.194,3.535 -1.384,3.507 -0.52,3.346 0.367,3.058 1.244,2.651 5.097,8.603 5.096,8.604 5.097,8.604 5.096,8.604 5.097,8.603 5.097,8.604 0.334,0.565 5.097,8.604 5.096,8.603 5.097,8.604 5.097,8.604 5.096,8.604 5.097,8.603 1.577,2.664"
         id="path69" /><path
         fill="none"
         stroke-width="3"
         stroke-linecap="butt"
         stroke-opacity="1"
         stroke="#000000"
         stroke-linejoin="round"
         d="m 745.884,211.324 2.076,2.139 2.832,1.545 3.48,0.886 3.996,0.193 4.357,-0.511 4.548,-1.197 4.562,-1.837 4.396,-2.405 4.059,-2.88 3.563,-3.24 2.927,-3.475 2.179,-3.571 1.348,-3.53 0.467,-3.352 -0.429,-3.043 -1.304,-2.62"
         id="path71" /></g></g><g
     inkscape:groupmode="layer"
     id="layer3"
     inkscape:label="Camada 3"
     transform="translate(-20.3963, 4.8455)"><path
       style="fill:#000000;stroke-width:0.205404"
       d="m 113.70202,148.70387 94.05548,42.83764"
       id="path410" /><path
       style="fill:#000000;stroke:#000000;stroke-width:0.388166;stroke-dasharray:none;marker-end:url(#TriangleStart)"
       d="M 114.10441,148.57136 60.944355,60.078681"
       id="path414" /><path
       style="fill:#000000;stroke:#000000;stroke-width:0.388166;stroke-dasharray:none;marker-end:url(#marker1320)"
       d="m 113.86142,148.43545 91.79708,42.23624"
       id="path416" /><circle
       id="path418"
       style="fill:#000000;stroke:none;stroke-width:0.205404"
       cx="113.99223"
       cy="148.621"
       r="0.30810654" /><path
       style="fill:#000000;stroke:#000000;stroke-width:0.388166;stroke-dasharray:none;marker-end:url(#marker1320)"
       d="M 113.65122,148.58128 196.81153,87.522607"
       id="path420" /><path
       style="fill:#000000;stroke:#ff0000;stroke-width:0.776331;stroke-dasharray:none;marker-end:url(#marker1463)"
       d="M 113.84046,148.49907 68.220851,71.695405"
       id="path1396" /><path
       style="fill:none;stroke:#ff0000;stroke-width:0.776331;stroke-dasharray:none;marker-start:url(#marker1463)"
       id="path1682"
       sodipodi:type="arc"
       sodipodi:cx="39.629982"
       sodipodi:cy="145.82549"
       sodipodi:rx="18.377989"
       sodipodi:ry="10.588896"
       sodipodi:start="4.9245212"
       sodipodi:end="4.5079253"
       sodipodi:open="true"
       sodipodi:arc-type="arc"
       d="m 43.499372,135.47395 a 18.377989,10.588896 0 0 1 14.401556,11.49274 18.377989,10.588896 0 0 1 -18.341412,9.44761 18.377989,10.588896 0 0 1 -18.215131,-9.52837 18.377989,10.588896 0 0 1 14.554093,-11.42877"
       transform="rotate(-23.720715)" /><path
       style="fill:none;stroke:#0000ff;stroke-width:0.776331;stroke-dasharray:6.21064806,1.55266202,0.77633101,1.55266202;stroke-dashoffset:0"
       d="M 113.45612,148.10104 123.23398,30.674909"
       id="path2707"
       sodipodi:nodetypes="cc" /><path
       style="fill:none;stroke:#00ff00;stroke-width:1;stroke-dasharray:none;marker-end:url(#marker1463)"
       id="path4027"
       sodipodi:type="arc"
       sodipodi:cx="54.420998"
       sodipodi:cy="178.1282"
       sodipodi:rx="95.762497"
       sodipodi:ry="63.573433"
       sodipodi:start="4.5913015"
       sodipodi:end="4.9871107"
       sodipodi:open="true"
       sodipodi:arc-type="arc"
       d="m 42.853674,115.02026 a 95.762497,63.573433 0 0 1 37.545688,1.91847"
       transform="matrix(0.93627754,-0.3512611,0.3505766,0.93653406,0,0)" /><g
       inkscape:label=""
       transform="matrix(1.9106513,0,0,1.9106513,84.344446,131.83887)"
       id="g1"
       style="stroke:none;fill:#ff0000"><g
   fill="#000000"
   fill-opacity="1"
   id="g4"
   transform="matrix(0.352778,0,0,0.352778,-0.8051,-0.701366)"
   style="stroke:none;fill:#ff0000">
    <g
   id="use3"
   transform="translate(2.02,19.66)"
   style="stroke:none;fill:#ff0000">
      <path
   d="m 13.265625,-14.796875 c -0.3125,0.28125 -1.21875,1.140625 -1.21875,1.484375 0,0.25 0.21875,0.46875 0.46875,0.46875 0.21875,0 0.328125,-0.140625 0.5,-0.390625 0.59375,-0.75 1.265625,-1.21875 1.828125,-1.53125 0.25,-0.15625 0.421875,-0.234375 0.421875,-0.5 0,-0.21875 -0.203125,-0.34375 -0.34375,-0.46875 -0.703125,-0.46875 -0.875,-1.140625 -0.9375,-1.4375 -0.07813,-0.203125 -0.15625,-0.5 -0.5,-0.5 -0.15625,0 -0.453125,0.109375 -0.453125,0.46875 0,0.234375 0.15625,0.828125 0.625,1.484375 H 5.328125 c -0.421875,0 -0.84375,0 -0.84375,0.484375 0,0.4375 0.453125,0.4375 0.84375,0.4375 z m 0,0"
   id="path6"
   style="stroke:none;fill:#ff0000" />
    </g>
  </g>
  <g
   fill="#000000"
   fill-opacity="1"
   id="g5"
   transform="matrix(0.352778,0,0,0.352778,-0.8051,-0.701366)"
   style="stroke:none;fill:#ff0000">
    <g
   id="use4"
   transform="translate(1.985298,19.66)"
   style="stroke:none;fill:#ff0000">
      <path
   d="m 14.71875,-9.3125 c 0,-0.71875 -0.203125,-1.640625 -1.0625,-1.640625 -0.5,0 -1.0625,0.625 -1.0625,1.109375 0,0.234375 0.09375,0.375 0.296875,0.59375 0.375,0.421875 0.84375,1.09375 0.84375,2.265625 0,0.890625 -0.546875,2.296875 -0.953125,3.0625 -0.6875,1.375 -1.828125,2.53125 -3.109375,2.53125 -1.5625,0 -2.15625,-0.984375 -2.4375,-2.375 0.28125,-0.640625 0.84375,-2.25 0.84375,-2.90625 0,-0.265625 -0.09375,-0.484375 -0.421875,-0.484375 -0.171875,0 -0.375,0.09375 -0.5,0.296875 -0.34375,0.546875 -0.65625,2.5 -0.640625,3.015625 -0.46875,0.921875 -1.8125,2.453125 -3.390625,2.453125 -1.65625,0 -2.109375,-1.453125 -2.109375,-2.875 0,-2.578125 1.609375,-4.828125 2.0625,-5.453125 0.25,-0.375 0.421875,-0.609375 0.421875,-0.671875 0,-0.171875 -0.109375,-0.4375 -0.328125,-0.4375 -0.390625,0 -0.515625,0.328125 -0.71875,0.625 C 1.1875,-8.25 0.296875,-5.5 0.296875,-3.125 c 0,1.53125 0.578125,3.375 2.421875,3.375 2.0625,0 3.359375,-1.765625 3.875,-2.703125 C 6.796875,-1.0625 7.53125,0.25 9.34375,0.25 c 1.875,0 3.078125,-1.65625 3.96875,-3.671875 0.640625,-1.4375 1.40625,-4.53125 1.40625,-5.890625 z m 0,0"
   id="path7"
   style="stroke:none;fill:#ff0000" />
    </g>
  </g>
  <g
   fill="#000000"
   fill-opacity="1"
   id="g6"
   transform="matrix(0.352778,0,0,0.352778,-0.8051,-0.701366)"
   style="stroke:none;fill:#ff0000">
    <g
   id="use5"
   transform="translate(17.106001,27.1)"
   style="stroke:none;fill:#ff0000">
      <path
   d="m 10.40625,-7.953125 c 0,-1.515625 -0.01563,-4.09375 -1.0625,-6.078125 -0.921875,-1.734375 -2.375,-2.34375 -3.671875,-2.34375 -1.1875,0 -2.703125,0.546875 -3.640625,2.328125 -0.984375,1.859375 -1.09375,4.15625 -1.09375,6.09375 0,1.40625 0.03125,3.5625 0.796875,5.453125 1.0625,2.546875 2.96875,2.890625 3.9375,2.890625 1.140625,0 2.875,-0.46875 3.890625,-2.8125 0.75,-1.71875 0.84375,-3.71875 0.84375,-5.53125 z M 5.671875,0 C 4.09375,0 3.140625,-1.359375 2.796875,-3.25 2.53125,-4.703125 2.53125,-6.84375 2.53125,-8.234375 c 0,-1.90625 0,-3.484375 0.3125,-5 0.484375,-2.109375 1.859375,-2.75 2.828125,-2.75 1.015625,0 2.328125,0.671875 2.796875,2.703125 0.328125,1.40625 0.359375,3.078125 0.359375,5.046875 0,1.625 0,3.59375 -0.296875,5.0625 C 8,-0.46875 6.546875,0 5.671875,0 Z m 0,0"
   id="path8"
   style="stroke:none;fill:#ff0000" />
    </g>
  </g>
</g><g
       inkscape:label=""
       transform="matrix(1.962025,0,0,1.962025,101.44739,69.846121)"
       id="g10"
       style="fill:#00ff00"><g
   fill="#000000"
   fill-opacity="1"
   id="g9"
   transform="matrix(0.352778,0,0,0.352778,-1.05035,-0.618023)"
   style="fill:#00ff00">
    <g
   id="use1"
   transform="translate(1.993,19.205)"
   style="fill:#00ff00">
      <path
   d="m 10.984375,-12.46875 c 0,-2.53125 -0.796875,-4.984375 -2.828125,-4.984375 -3.46875,0 -7.171875,7.265625 -7.171875,12.71875 0,1.140625 0.25,4.984375 2.859375,4.984375 3.375,0 7.140625,-7.09375 7.140625,-12.71875 z m -7.515625,3.5 c 0.375,-1.46875 0.890625,-3.546875 1.890625,-5.3125 0.8125,-1.484375 1.671875,-2.671875 2.765625,-2.671875 0.828125,0 1.359375,0.703125 1.359375,3.078125 0,0.890625 -0.0625,2.125 -0.78125,4.90625 z m 5.0625,0.734375 c -0.625,2.4375 -1.140625,4 -2.03125,5.5625 C 5.78125,-1.40625 4.90625,-0.25 3.859375,-0.25 c -0.765625,0 -1.375,-0.59375 -1.375,-3.046875 0,-1.609375 0.390625,-3.296875 0.78125,-4.9375 z m 0,0"
   id="path2"
   style="fill:#00ff00" />
    </g>
  </g>
</g><g
       inkscape:label=""
       transform="translate(197.63547,179.35755)"
       id="g37"><g
   fill="#000000"
   fill-opacity="1"
   id="g36"
   transform="matrix(0.352778,0,0,0.352778,-0.923572,-0.708422)">
    <g
   id="g35"
   transform="translate(1.993,18.93)">
      <path
   d="M 11.765625,-10.0625 9.4375,-15.484375 c 0.328125,-0.59375 1.0625,-0.703125 1.359375,-0.71875 0.15625,0 0.421875,-0.03125 0.421875,-0.453125 0,-0.265625 -0.21875,-0.265625 -0.359375,-0.265625 -0.421875,0 -0.921875,0.04687 -1.34375,0.04687 h -1.4375 c -1.515625,0 -2.59375,-0.04687 -2.625,-0.04687 -0.203125,0 -0.453125,0 -0.453125,0.46875 0,0.25 0.234375,0.25 0.546875,0.25 1.4375,0 1.546875,0.25 1.78125,0.84375 l 2.953125,6.890625 -5.375,5.75 c -0.890625,0.953125 -1.953125,1.90625 -3.796875,2 C 0.8125,-0.6875 0.625,-0.6875 0.625,-0.25 0.625,-0.171875 0.640625,0 0.921875,0 c 0.34375,0 0.71875,-0.046875 1.0625,-0.046875 h 1.15625 C 3.9375,-0.046875 4.8125,0 5.578125,0 5.75,0 6.046875,0 6.046875,-0.453125 6.046875,-0.6875 5.875,-0.71875 5.71875,-0.71875 5.234375,-0.765625 4.90625,-1.046875 4.90625,-1.4375 c 0,-0.421875 0.296875,-0.71875 1.015625,-1.46875 L 8.125,-5.296875 C 8.671875,-5.875 9.984375,-7.3125 10.53125,-7.859375 l 2.609375,6.09375 c 0.01563,0.0625 0.125,0.296875 0.125,0.328125 0,0.21875 -0.546875,0.671875 -1.34375,0.71875 C 11.765625,-0.71875 11.5,-0.6875 11.5,-0.25 11.5,0 11.75,0 11.875,0 c 0.421875,0 0.90625,-0.046875 1.328125,-0.046875 H 15.9375 C 16.375,-0.046875 16.84375,0 17.265625,0 c 0.1875,0 0.453125,0 0.453125,-0.46875 0,-0.25 -0.25,-0.25 -0.46875,-0.25 C 15.765625,-0.75 15.71875,-0.875 15.296875,-1.78125 l -3.28125,-7.6875 3.15625,-3.375 c 0.234375,-0.234375 0.8125,-0.859375 1.03125,-1.109375 1.0625,-1.109375 2.0625,-2.125 4.0625,-2.25 0.25,-0.03125 0.5,-0.03125 0.5,-0.453125 0,-0.265625 -0.21875,-0.265625 -0.328125,-0.265625 -0.34375,0 -0.71875,0.04687 -1.0625,0.04687 h -1.140625 c -0.78125,0 -1.65625,-0.04687 -2.421875,-0.04687 -0.171875,0 -0.46875,0 -0.46875,0.4375 0,0.25 0.171875,0.28125 0.3125,0.28125 0.40625,0.04687 0.828125,0.25 0.828125,0.71875 l -0.03125,0.04687 c -0.01563,0.171875 -0.07813,0.421875 -0.34375,0.71875 z m 0,0"
   id="path34" />
    </g>
  </g>
</g><g
       inkscape:label=""
       transform="translate(197.90857,89.782114)"
       id="g40"><g
   fill="#000000"
   fill-opacity="1"
   id="g39"
   transform="matrix(0.352778,0,0,0.352778,-0.989718,-0.708422)">
    <g
   id="g38"
   transform="translate(1.993,18.93)">
      <path
   d="m 14.578125,-14.171875 0.5625,-0.578125 c 1.09375,-1.109375 2.015625,-1.375 2.875,-1.453125 0.265625,-0.03125 0.5,-0.04687 0.5,-0.46875 0,-0.25 -0.25,-0.25 -0.296875,-0.25 -0.296875,0 -0.625,0.04687 -0.921875,0.04687 H 16.28125 c -0.71875,0 -1.484375,-0.04687 -2.1875,-0.04687 -0.171875,0 -0.4375,0 -0.4375,0.46875 0,0.21875 0.25,0.25 0.328125,0.25 0.734375,0.04687 0.734375,0.421875 0.734375,0.5625 0,0.28125 -0.203125,0.640625 -0.6875,1.21875 L 8.125,-7.65625 5.328125,-15.1875 c -0.15625,-0.34375 -0.15625,-0.40625 -0.15625,-0.453125 0,-0.515625 1.015625,-0.5625 1.328125,-0.5625 0.296875,0 0.5625,0 0.5625,-0.453125 0,-0.265625 -0.21875,-0.265625 -0.375,-0.265625 -0.421875,0 -0.90625,0.04687 -1.328125,0.04687 h -2.75 c -0.453125,0 -0.921875,-0.04687 -1.34375,-0.04687 -0.171875,0 -0.453125,0 -0.453125,0.46875 0,0.25 0.234375,0.25 0.59375,0.25 1.21875,0 1.4375,0.21875 1.671875,0.796875 l 3.0625,8.25 C 6.171875,-7.09375 6.25,-6.8125 6.25,-6.734375 c 0,0.0625 -1.21875,4.953125 -1.296875,5.203125 -0.1875,0.65625 -0.4375,0.78125 -2.03125,0.8125 -0.421875,0 -0.625,0 -0.625,0.46875 0,0.25 0.28125,0.25 0.359375,0.25 0.4375,0 0.96875,-0.046875 1.4375,-0.046875 h 2.921875 c 0.4375,0 0.96875,0.046875 1.40625,0.046875 0.171875,0 0.46875,0 0.46875,-0.453125 0,-0.265625 -0.171875,-0.265625 -0.59375,-0.265625 -1.53125,0 -1.53125,-0.171875 -1.53125,-0.453125 C 6.765625,-1.34375 6.96875,-2.125 7.09375,-2.625 L 7.984375,-6.1875 C 8.125,-6.71875 8.125,-6.765625 8.34375,-7.015625 Z m 0,0"
   id="path37" />
    </g>
  </g>
</g><g
       inkscape:label=""
       transform="translate(63.8185,53.187269)"
       id="g43"><g
   fill="#000000"
   fill-opacity="1"
   id="g42"
   transform="matrix(0.352778,0,0,0.352778,-1.19918,-0.708422)">
    <g
   id="g41"
   transform="translate(1.993,18.93)">
      <path
   d="m 17.34375,-16.15625 c 0.15625,-0.171875 0.28125,-0.328125 0.28125,-0.578125 0,-0.171875 -0.03125,-0.1875 -0.59375,-0.1875 H 6.796875 c -0.578125,0 -0.609375,0.01563 -0.75,0.46875 L 4.6875,-12 c -0.078125,0.25 -0.078125,0.296875 -0.078125,0.359375 0,0.09375 0.078125,0.234375 0.25,0.234375 0.203125,0 0.25,-0.09375 0.34375,-0.421875 0.921875,-2.671875 2.125,-4.375 6.046875,-4.375 h 4.0625 L 1.734375,-0.84375 C 1.515625,-0.5625 1.40625,-0.46875 1.40625,-0.203125 1.40625,0 1.53125,0 2,0 h 10.59375 c 0.5625,0 0.59375,-0.03125 0.734375,-0.46875 L 15.0625,-5.953125 c 0.03125,-0.0625 0.07813,-0.234375 0.07813,-0.34375 0,-0.125 -0.09375,-0.25 -0.25,-0.25 -0.203125,0 -0.21875,0.03125 -0.421875,0.65625 -1.03125,3.1875 -2.125,5.125 -6.4375,5.125 h -4.29688 z m 0,0"
   id="path40" />
    </g>
  </g>
</g><path
       style="fill:none;stroke:#0000ff;stroke-width:0.776331;stroke-dasharray:6.21065, 1.55266, 0.776331, 1.55266;stroke-dashoffset:0"
       d="M 144.31595,204.63188 154.09381,87.205751"
       id="path1"
       sodipodi:nodetypes="cc" /><path
       style="fill:none;stroke:#0000ff;stroke-width:0.8;stroke-dasharray:none;stroke-dashoffset:0;marker-start:url(#marker1463)"
       id="path3"
       sodipodi:type="arc"
       sodipodi:cx="144.10875"
       sodipodi:cy="203.24557"
       sodipodi:rx="29.708366"
       sodipodi:ry="12.153423"
       sodipodi:start="5.4731304"
       sodipodi:end="4.2692516"
       sodipodi:arc-type="arc"
       d="m 164.59144,194.44255 a 29.708366,12.153423 0 0 1 6.14058,14.19603 29.708366,12.153423 0 0 1 -31.32122,6.6075 29.708366,12.153423 0 0 1 -24.71069,-10.2785 29.708366,12.153423 0 0 1 16.67041,-12.70154"
       sodipodi:open="true" /><g
       inkscape:label=""
       transform="matrix(2.5026069,0,0,2.5026069,175.17267,200.65944)"
       id="g12"
       style="fill:#0000ff"><g
   fill="#000000"
   fill-opacity="1"
   id="g2"
   transform="matrix(0.352778,0,0,0.352778,-1.04484,-0.71045)"
   style="fill:#0000ff">
    <g
   id="g11"
   transform="translate(1.993,16.341999)"
   style="fill:#0000ff">
      <path
   d="m 8.875,-14.15625 c 0,-0.171875 -0.140625,-0.171875 -0.203125,-0.171875 -0.1875,0 -0.203125,0.03125 -0.28125,0.390625 L 7.265625,-9.5 C 7.203125,-9.234375 7.1875,-9.21875 7.171875,-9.1875 7.140625,-9.15625 7,-9.125 6.96875,-9.125 c -3.390625,0.28125 -6,3.078125 -6,5.65625 0,2.234375 1.71875,3.59375 3.859375,3.71875 C 4.671875,0.890625 4.53125,1.546875 4.359375,2.1875 4.0625,3.28125 3.90625,3.96875 3.90625,4.046875 c 0,0.046875 0,0.171875 0.203125,0.171875 0.0625,0 0.140625,0 0.1875,-0.09375 0.046875,-0.03125 0.171875,-0.53125 0.25,-0.796875 L 5.3125,0.25 c 3.53125,-0.1875 6.21875,-3.078125 6.21875,-5.6875 0,-2.078125 -1.578125,-3.5625 -3.875,-3.71875 z m -1.328125,5.421875 c 1.359375,0.078125 2.71875,0.84375 2.71875,2.875 0,2.328125 -1.625,5.421875 -4.859375,5.671875 z m -2.609375,8.5625 c -1.015625,-0.0625 -2.703125,-0.59375 -2.703125,-2.859375 0,-2.609375 1.875,-5.5 4.84375,-5.6875 z m 0,0"
   id="path9"
   style="fill:#0000ff" />
    </g>
  </g>
</g></g></svg>
