<?xml version='1.0' encoding='ascii'?>
<svg xmlns="http://www.w3.org/2000/svg" height="1080" version="1.1" width="1920">
    <g id="View Layer_LineSet" inkscape:groupmode="lineset" inkscape:label="View Layer_LineSet" xmlns:inkscape="http://www.inkscape.org/namespaces/inkscape">
        <g id="strokes" inkscape:groupmode="layer" inkscape:label="strokes" xmlns:inkscape="http://www.inkscape.org/namespaces/inkscape">
            <path d=" M 1408.922, 166.269 1398.922, 166.269 1388.922, 166.269 1378.922, 166.269 1368.922, 166.269 1358.922, 166.269 1348.922, 166.269 1338.922, 166.269 1328.922, 166.269 1318.922, 166.269 1308.922, 166.269 1298.922, 166.269 1288.922, 166.269 1278.922, 166.269 1268.922, 166.269 1258.922, 166.269 1248.922, 166.269 1238.922, 166.269 1228.922, 166.269 1218.922, 166.269 1208.922, 166.269 1198.922, 166.269 1188.922, 166.269 1178.922, 166.269 1168.922, 166.269 1158.922, 166.269 1148.922, 166.269 1138.922, 166.269 1128.922, 166.269 1118.922, 166.269 1108.922, 166.269 1098.922, 166.269 1088.922, 166.269 1078.922, 166.269 1068.922, 166.269 1058.922, 166.269 1048.922, 166.269 1038.922, 166.269 1028.922, 166.269 1018.922, 166.269 1008.922, 166.269 998.922, 166.269 988.922, 166.269 978.922, 166.269 968.922, 166.269 958.922, 166.269 948.922, 166.269 938.922, 166.269 928.922, 166.269 918.922, 166.269 908.922, 166.269 898.922, 166.269 888.922, 166.269 878.922, 166.269 868.922, 166.269 858.922, 166.269 848.922, 166.269 838.922, 166.269 828.922, 166.269 818.922, 166.269 808.922, 166.269 798.922, 166.269 788.922, 166.269 778.922, 166.269 768.922, 166.269 758.922, 166.269 748.922, 166.269 738.922, 166.269 728.922, 166.269 718.922, 166.269 708.922, 166.269 698.922, 166.269 688.922, 166.269 678.922, 166.269 668.922, 166.269 658.922, 166.269 648.922, 166.269 638.922, 166.269 628.922, 166.269 618.922, 166.269 608.589, 166.269 608.589, 176.269 608.589, 186.269 608.589, 196.269 608.589, 206.269 608.589, 216.269 608.589, 226.269 608.589, 236.269 608.589, 246.269 608.589, 256.269 608.589, 266.269 608.589, 276.269 608.589, 286.269 608.589, 296.269 608.589, 306.269 608.589, 316.269 608.589, 326.269 608.589, 336.269 608.589, 346.269 608.589, 356.269 608.589, 366.269 608.589, 376.269 608.589, 386.269 608.589, 396.269 608.589, 406.269 608.589, 416.269 608.589, 426.269 608.589, 436.269 608.589, 446.269 608.589, 456.269 608.589, 466.269 608.589, 476.269 608.589, 486.269 608.589, 496.269 608.589, 506.269 608.589, 516.269 608.589, 526.269 608.589, 536.269 608.589, 546.269 608.589, 556.269 608.589, 566.269 608.589, 576.269 608.589, 586.269 608.589, 596.269 608.589, 606.269 608.589, 616.269 608.589, 626.269 608.589, 636.269 608.589, 646.269 608.589, 656.269 608.589, 666.269 608.589, 676.269 608.589, 686.269 608.589, 696.269 608.589, 706.269 608.589, 716.269 608.589, 726.269 608.589, 736.269 608.589, 746.269 608.589, 756.269 608.589, 766.269 608.589, 776.269 608.589, 786.269 608.589, 796.269 608.589, 806.269 608.589, 816.269 608.589, 826.269 608.589, 836.269 608.589, 846.269 608.589, 856.269 608.589, 866.269 608.589, 876.269 608.589, 886.269 608.589, 896.269 608.589, 906.269 608.589, 916.269 608.589, 926.269 608.589, 936.269 608.589, 946.269 608.589, 956.269 608.589, 966.602 618.589, 966.602 628.589, 966.602 638.589, 966.602 648.589, 966.602 658.589, 966.602 668.589, 966.602 678.589, 966.602 688.589, 966.602 698.589, 966.602 708.589, 966.602 718.589, 966.602 728.589, 966.602 738.589, 966.602 748.589, 966.602 758.589, 966.602 768.589, 966.602 778.589, 966.602 788.589, 966.602 798.589, 966.602 808.589, 966.602 818.589, 966.602 828.589, 966.602 838.589, 966.602 848.589, 966.602 858.589, 966.602 868.589, 966.602 878.589, 966.602 888.589, 966.602 898.589, 966.602 908.589, 966.602 918.589, 966.602 928.589, 966.602 938.589, 966.602 948.589, 966.602 958.589, 966.602 968.589, 966.602 978.589, 966.602 988.589, 966.602 998.589, 966.602 1008.589, 966.602 1018.589, 966.602 1028.589, 966.602 1038.589, 966.602 1048.589, 966.602 1058.589, 966.602 1068.589, 966.602 1078.589, 966.602 1088.589, 966.602 1098.589, 966.602 1108.589, 966.602 1118.589, 966.602 1128.589, 966.602 1138.589, 966.602 1148.589, 966.602 1158.589, 966.602 1168.589, 966.602 1178.589, 966.602 1188.589, 966.602 1198.589, 966.602 1208.589, 966.602 1218.589, 966.602 1228.589, 966.602 1238.589, 966.602 1248.589, 966.602 1258.589, 966.602 1268.589, 966.602 1278.589, 966.602 1288.589, 966.602 1298.589, 966.602 1308.589, 966.602 1318.589, 966.602 1328.589, 966.602 1338.589, 966.602 1348.589, 966.602 1358.589, 966.602 1368.589, 966.602 1378.589, 966.602 1388.589, 966.602 1398.589, 966.602 1408.922, 966.602 1408.922, 956.602 1408.922, 946.602 1408.922, 936.602 1408.922, 926.602 1408.922, 916.602 1408.922, 906.602 1408.922, 896.602 1408.922, 886.602 1408.922, 876.602 1408.922, 866.602 1408.922, 856.602 1408.922, 846.602 1408.922, 836.602 1408.922, 826.602 1408.922, 816.602 1408.922, 806.602 1408.922, 796.602 1408.922, 786.602 1408.922, 776.602 1408.922, 766.602 1408.922, 756.602 1408.922, 746.602 1408.922, 736.602 1408.922, 726.602 1408.922, 716.602 1408.922, 706.602 1408.922, 696.602 1408.922, 686.602 1408.922, 676.602 1408.922, 666.602 1408.922, 656.602 1408.922, 646.602 1408.922, 636.602 1408.922, 626.602 1408.922, 616.602 1408.922, 606.602 1408.922, 596.602 1408.922, 586.602 1408.922, 576.602 1408.922, 566.602 1408.922, 556.602 1408.922, 546.602 1408.922, 536.602 1408.922, 526.602 1408.922, 516.602 1408.922, 506.602 1408.922, 496.602 1408.922, 486.602 1408.922, 476.602 1408.922, 466.602 1408.922, 456.602 1408.922, 446.602 1408.922, 436.602 1408.922, 426.602 1408.922, 416.602 1408.922, 406.602 1408.922, 396.602 1408.922, 386.602 1408.922, 376.602 1408.922, 366.602 1408.922, 356.602 1408.922, 346.602 1408.922, 336.602 1408.922, 326.602 1408.922, 316.602 1408.922, 306.602 1408.922, 296.602 1408.922, 286.602 1408.922, 276.602 1408.922, 266.602 1408.922, 256.602 1408.922, 246.602 1408.922, 236.602 1408.922, 226.602 1408.922, 216.602 1408.922, 206.602 1408.922, 196.602 1408.922, 186.602 1408.922, 176.602 1408.922, 166.269 " fill="none" stroke="rgb(0, 0, 0)" stroke-linecap="butt" stroke-linejoin="round" stroke-opacity="1.0" stroke-width="3.0" />
            <path d=" M 1359.912, 215.279 1349.912, 215.279 1339.912, 215.279 1329.912, 215.279 1319.912, 215.279 1309.912, 215.279 1299.912, 215.279 1289.912, 215.279 1279.912, 215.279 1269.912, 215.279 1259.912, 215.279 1249.912, 215.279 1239.912, 215.279 1229.912, 215.279 1219.912, 215.279 1209.912, 215.279 1199.912, 215.279 1189.912, 215.279 1179.912, 215.279 1169.912, 215.279 1159.912, 215.279 1149.912, 215.279 1139.912, 215.279 1129.912, 215.279 1119.912, 215.279 1109.912, 215.279 1099.912, 215.279 1089.912, 215.279 1079.912, 215.279 1069.912, 215.279 1059.912, 215.279 1049.912, 215.279 1039.912, 215.279 1029.912, 215.279 1019.912, 215.279 1009.912, 215.279 999.912, 215.279 989.912, 215.279 979.912, 215.279 969.912, 215.279 959.912, 215.279 949.912, 215.279 939.912, 215.279 929.912, 215.279 919.912, 215.279 909.912, 215.279 899.912, 215.279 889.912, 215.279 879.912, 215.279 869.912, 215.279 859.912, 215.279 849.912, 215.279 839.912, 215.279 829.912, 215.279 819.912, 215.279 809.912, 215.279 799.912, 215.279 789.912, 215.279 779.912, 215.279 769.912, 215.279 759.912, 215.279 749.912, 215.279 739.912, 215.279 729.912, 215.279 719.912, 215.279 709.912, 215.279 699.912, 215.279 689.912, 215.279 679.912, 215.279 669.912, 215.279 657.599, 215.279 " fill="none" stroke="rgb(0, 0, 0)" stroke-linecap="butt" stroke-linejoin="round" stroke-opacity="1.0" stroke-width="3.0" />
            <path d=" M 657.599, 917.592 657.599, 907.592 657.599, 897.592 657.599, 887.592 657.599, 877.592 657.599, 867.592 657.599, 857.592 657.599, 847.592 657.599, 837.592 657.599, 827.592 657.599, 817.592 657.599, 807.592 657.599, 797.592 657.599, 787.592 657.599, 777.592 657.599, 767.592 657.599, 757.592 657.599, 747.592 657.599, 737.592 657.599, 727.592 657.599, 717.592 657.599, 707.592 657.599, 697.592 657.599, 687.592 657.599, 677.592 657.599, 667.592 657.599, 657.592 657.599, 647.592 657.599, 637.592 657.599, 627.592 657.599, 617.592 657.599, 607.592 657.599, 597.592 657.599, 587.592 657.599, 577.592 657.599, 567.592 657.599, 557.592 657.599, 547.592 657.599, 537.592 657.599, 527.592 657.599, 517.592 657.599, 507.592 657.599, 497.592 657.599, 487.592 657.599, 477.592 657.599, 467.592 657.599, 457.592 657.599, 447.592 657.599, 437.592 657.599, 427.592 657.599, 417.592 657.599, 407.592 657.599, 397.592 657.599, 387.592 657.599, 377.592 657.599, 367.592 657.599, 357.592 657.599, 347.592 657.599, 337.592 657.599, 327.592 657.599, 317.592 657.599, 307.592 657.599, 297.592 657.599, 287.592 657.599, 277.592 657.599, 267.592 657.599, 257.592 657.599, 247.592 657.599, 237.592 657.599, 227.592 657.599, 215.279 664.414, 222.597 671.229, 229.916 671.414, 230.114 " fill="none" stroke="rgb(0, 0, 0)" stroke-linecap="butt" stroke-linejoin="round" stroke-opacity="1.0" stroke-width="3.0" />
            <path d=" M 671.414, 548.056 671.414, 538.056 671.414, 528.056 671.414, 518.056 671.414, 508.056 671.414, 498.056 671.414, 488.056 671.414, 478.056 671.414, 468.056 671.414, 458.056 671.414, 448.056 671.414, 438.056 671.414, 428.056 671.414, 418.056 671.414, 408.056 671.414, 398.056 671.414, 388.056 671.414, 378.056 671.414, 368.056 671.414, 358.056 671.414, 348.056 671.414, 338.056 671.414, 328.056 671.414, 318.056 671.414, 308.056 671.414, 298.056 671.414, 288.056 671.414, 278.056 671.414, 268.056 671.414, 258.056 671.414, 248.056 671.414, 238.056 671.414, 230.114 681.414, 230.114 691.414, 230.114 701.414, 230.114 711.414, 230.114 721.414, 230.114 731.414, 230.114 741.414, 230.114 751.414, 230.114 761.414, 230.114 771.414, 230.114 781.414, 230.114 791.414, 230.114 801.414, 230.114 811.414, 230.114 821.414, 230.114 831.414, 230.114 841.414, 230.114 851.414, 230.114 861.414, 230.114 871.414, 230.114 881.414, 230.114 891.414, 230.114 901.414, 230.114 911.414, 230.114 921.414, 230.114 931.414, 230.114 941.414, 230.114 951.414, 230.114 961.414, 230.114 971.414, 230.114 981.414, 230.114 991.414, 230.114 1001.414, 230.114 1011.414, 230.114 1021.414, 230.114 1031.414, 230.114 1041.414, 230.114 1051.414, 230.114 1061.414, 230.114 1071.414, 230.114 1081.414, 230.114 1091.414, 230.114 1101.414, 230.114 1111.414, 230.114 1121.414, 230.114 1131.414, 230.114 1141.414, 230.114 1151.414, 230.114 1161.414, 230.114 1171.414, 230.114 1181.414, 230.114 1191.414, 230.114 1201.414, 230.114 1211.414, 230.114 1221.414, 230.114 1231.414, 230.114 1241.414, 230.114 1251.414, 230.114 1261.414, 230.114 1271.414, 230.114 1281.414, 230.114 1291.414, 230.114 1301.414, 230.114 1311.414, 230.114 1321.414, 230.114 1331.414, 230.114 1341.642, 230.114 1341.642, 240.114 1341.642, 250.114 1341.642, 260.114 1341.642, 270.114 1341.642, 280.114 1341.642, 290.114 1341.642, 300.114 1341.642, 310.114 1341.642, 320.114 1341.642, 330.114 1341.642, 340.114 1341.642, 350.114 1341.642, 360.114 1341.642, 370.114 1341.642, 380.114 1341.642, 390.114 1341.642, 400.114 1341.642, 410.114 1341.642, 420.114 1341.642, 430.114 1341.642, 440.114 1341.642, 450.114 1341.642, 460.114 1341.642, 470.114 1341.642, 480.114 1341.642, 490.114 1341.642, 500.114 1341.642, 510.114 1341.642, 520.114 1341.642, 530.114 1341.642, 540.114 1341.642, 548.056 " fill="none" stroke="rgb(0, 0, 0)" stroke-linecap="butt" stroke-linejoin="round" stroke-opacity="1.0" stroke-width="3.0" />
            <path d=" M 1341.642, 230.114 1349.405, 223.810 1357.168, 217.507 1359.912, 215.279 1359.912, 225.279 1359.912, 235.279 1359.912, 245.279 1359.912, 255.279 1359.912, 265.279 1359.912, 275.279 1359.912, 285.279 1359.912, 295.279 1359.912, 305.279 1359.912, 315.279 1359.912, 325.279 1359.912, 335.279 1359.912, 345.279 1359.912, 355.279 1359.912, 365.279 1359.912, 375.279 1359.912, 385.279 1359.912, 395.279 1359.912, 405.279 1359.912, 415.279 1359.912, 425.279 1359.912, 435.279 1359.912, 445.279 1359.912, 455.279 1359.912, 465.279 1359.912, 475.279 1359.912, 485.279 1359.912, 495.279 1359.912, 505.279 1359.912, 515.279 1359.912, 525.279 1359.912, 535.279 1359.912, 545.279 1359.912, 555.279 1359.912, 565.279 1359.912, 575.279 1359.912, 585.279 1359.912, 595.279 1359.912, 605.279 1359.912, 615.279 1359.912, 625.279 1359.912, 635.279 1359.912, 645.279 1359.912, 655.279 1359.912, 665.279 1359.912, 675.279 1359.912, 685.279 1359.912, 695.279 1359.912, 705.279 1359.912, 715.279 1359.912, 725.279 1359.912, 735.279 1359.912, 745.279 1359.912, 755.279 1359.912, 765.279 1359.912, 775.279 1359.912, 785.279 1359.912, 795.279 1359.912, 805.279 1359.912, 815.279 1359.912, 825.279 1359.912, 835.279 1359.912, 845.279 1359.912, 855.279 1359.912, 865.279 1359.912, 875.279 1359.912, 885.279 1359.912, 895.279 1359.912, 905.279 1359.912, 917.592 " fill="none" stroke="rgb(0, 0, 0)" stroke-linecap="butt" stroke-linejoin="round" stroke-opacity="1.0" stroke-width="3.0" />
            <path d=" M 1341.642, 900.342 1348.913, 907.208 1356.184, 914.073 1359.912, 917.592 1349.912, 917.592 1339.912, 917.592 1329.912, 917.592 1319.912, 917.592 1309.912, 917.592 1299.912, 917.592 1289.912, 917.592 1279.912, 917.592 1269.912, 917.592 1259.912, 917.592 1249.912, 917.592 1239.912, 917.592 1229.912, 917.592 1219.912, 917.592 1209.912, 917.592 1199.912, 917.592 1189.912, 917.592 1179.912, 917.592 1169.912, 917.592 1159.912, 917.592 1149.912, 917.592 1139.912, 917.592 1129.912, 917.592 1119.912, 917.592 1109.912, 917.592 1099.912, 917.592 1089.912, 917.592 1079.912, 917.592 1069.912, 917.592 1059.912, 917.592 1049.912, 917.592 1039.912, 917.592 1029.912, 917.592 1019.912, 917.592 1009.912, 917.592 999.912, 917.592 989.912, 917.592 979.912, 917.592 969.912, 917.592 959.912, 917.592 949.912, 917.592 939.912, 917.592 929.912, 917.592 919.912, 917.592 909.912, 917.592 899.912, 917.592 889.912, 917.592 879.912, 917.592 869.912, 917.592 859.912, 917.592 849.912, 917.592 839.912, 917.592 829.912, 917.592 819.912, 917.592 809.912, 917.592 799.912, 917.592 789.912, 917.592 779.912, 917.592 769.912, 917.592 759.912, 917.592 749.912, 917.592 739.912, 917.592 729.912, 917.592 719.912, 917.592 709.912, 917.592 699.912, 917.592 689.912, 917.592 679.912, 917.592 669.912, 917.592 657.599, 917.592 663.850, 909.787 670.101, 901.981 671.414, 900.342 " fill="none" stroke="rgb(0, 0, 0)" stroke-linecap="butt" stroke-linejoin="round" stroke-opacity="1.0" stroke-width="3.0" />
            <path d=" M 1341.642, 583.650 1341.642, 593.650 1341.642, 603.650 1341.642, 613.650 1341.642, 623.650 1341.642, 633.650 1341.642, 643.650 1341.642, 653.650 1341.642, 663.650 1341.642, 673.650 1341.642, 683.650 1341.642, 693.650 1341.642, 703.650 1341.642, 713.650 1341.642, 723.650 1341.642, 733.650 1341.642, 743.650 1341.642, 753.650 1341.642, 763.650 1341.642, 773.650 1341.642, 783.650 1341.642, 793.650 1341.642, 803.650 1341.642, 813.650 1341.642, 823.650 1341.642, 833.650 1341.642, 843.650 1341.642, 853.650 1341.642, 863.650 1341.642, 873.650 1341.642, 883.650 1341.642, 893.650 1341.642, 900.342 1331.642, 900.342 1321.642, 900.342 1311.642, 900.342 1301.642, 900.342 1291.642, 900.342 1281.642, 900.342 1271.642, 900.342 1261.642, 900.342 1251.642, 900.342 1241.642, 900.342 1231.642, 900.342 1221.642, 900.342 1211.642, 900.342 1201.642, 900.342 1191.642, 900.342 1181.642, 900.342 1171.642, 900.342 1161.642, 900.342 1151.642, 900.342 1141.642, 900.342 1131.642, 900.342 1121.642, 900.342 1111.642, 900.342 1101.642, 900.342 1091.642, 900.342 1081.642, 900.342 1071.642, 900.342 1061.642, 900.342 1051.642, 900.342 1041.642, 900.342 1031.642, 900.342 1021.642, 900.342 1011.642, 900.342 1001.642, 900.342 991.642, 900.342 981.642, 900.342 971.642, 900.342 961.642, 900.342 951.642, 900.342 941.642, 900.342 931.642, 900.342 921.642, 900.342 911.642, 900.342 901.642, 900.342 891.642, 900.342 881.642, 900.342 871.642, 900.342 861.642, 900.342 851.642, 900.342 841.642, 900.342 831.642, 900.342 821.642, 900.342 811.642, 900.342 801.642, 900.342 791.642, 900.342 781.642, 900.342 771.642, 900.342 761.642, 900.342 751.642, 900.342 741.642, 900.342 731.642, 900.342 721.642, 900.342 711.642, 900.342 701.642, 900.342 691.642, 900.342 681.642, 900.342 671.414, 900.342 671.414, 890.342 671.414, 880.342 671.414, 870.342 671.414, 860.342 671.414, 850.342 671.414, 840.342 671.414, 830.342 671.414, 820.342 671.414, 810.342 671.414, 800.342 671.414, 790.342 671.414, 780.342 671.414, 770.342 671.414, 760.342 671.414, 750.342 671.414, 740.342 671.414, 730.342 671.414, 720.342 671.414, 710.342 671.414, 700.342 671.414, 690.342 671.414, 680.342 671.414, 670.342 671.414, 660.342 671.414, 650.342 671.414, 640.342 671.414, 630.342 671.414, 620.342 671.414, 610.342 671.414, 600.342 671.414, 590.342 671.414, 583.650 " fill="none" stroke="rgb(0, 0, 0)" stroke-linecap="butt" stroke-linejoin="round" stroke-opacity="1.0" stroke-width="3.0" />
            <path d=" M 1279.956, 264.736 1269.956, 264.736 1259.956, 264.736 1249.956, 264.736 1239.956, 264.736 1229.956, 264.736 1219.956, 264.736 1209.956, 264.736 1199.956, 264.736 1189.956, 264.736 1179.956, 264.736 1169.956, 264.736 1159.956, 264.736 1149.956, 264.736 1139.956, 264.736 1129.956, 264.736 1119.956, 264.736 1109.956, 264.736 1099.956, 264.736 1089.956, 264.736 1079.956, 264.736 1069.956, 264.736 1059.956, 264.736 1049.956, 264.736 1039.956, 264.736 1029.956, 264.736 1019.956, 264.736 1009.956, 264.736 999.956, 264.736 989.956, 264.736 979.956, 264.736 969.956, 264.736 959.956, 264.736 949.956, 264.736 939.956, 264.736 929.956, 264.736 919.956, 264.736 909.956, 264.736 899.956, 264.736 889.956, 264.736 879.956, 264.736 869.956, 264.736 859.956, 264.736 849.956, 264.736 839.956, 264.736 829.956, 264.736 819.956, 264.736 809.956, 264.736 799.956, 264.736 789.956, 264.736 779.956, 264.736 769.956, 264.736 759.956, 264.736 749.956, 264.736 739.956, 264.736 729.956, 264.736 719.956, 264.736 705.948, 264.736 703.759, 270.400 701.532, 276.163 699.265, 282.026 696.959, 287.993 697.293, 297.988 697.626, 307.982 697.960, 317.977 698.294, 327.971 698.628, 337.965 698.961, 347.960 699.295, 357.954 699.629, 367.949 699.962, 377.943 700.296, 387.938 700.630, 397.932 700.964, 407.926 701.297, 417.921 701.631, 427.915 701.965, 437.910 702.299, 447.904 702.632, 457.899 702.966, 467.893 703.300, 477.887 703.634, 487.882 703.967, 497.876 704.301, 507.871 704.635, 517.865 704.968, 527.860 705.302, 537.854 705.643, 548.056 705.977, 558.051 706.034, 559.770 706.368, 569.765 706.532, 574.698 706.831, 583.650 707.029, 589.567 707.363, 599.562 707.524, 604.378 707.857, 614.373 708.191, 624.367 708.525, 634.362 708.858, 644.356 709.192, 654.351 709.526, 664.345 709.860, 674.339 710.193, 684.334 710.527, 694.328 710.861, 704.323 711.195, 714.317 711.528, 724.312 711.862, 734.306 712.196, 744.300 712.530, 754.295 712.863, 764.289 713.197, 774.284 713.531, 784.278 713.865, 794.273 714.198, 804.267 714.532, 814.261 714.866, 824.256 715.199, 834.250 715.533, 844.245 715.896, 855.110 725.896, 855.110 735.896, 855.110 745.896, 855.110 755.896, 855.110 765.896, 855.110 775.896, 855.110 785.896, 855.110 795.896, 855.110 805.896, 855.110 815.896, 855.110 825.896, 855.110 835.896, 855.110 845.896, 855.110 855.896, 855.110 865.896, 855.110 875.896, 855.110 885.896, 855.110 895.896, 855.110 905.896, 855.110 915.896, 855.110 925.896, 855.110 935.896, 855.110 945.896, 855.110 955.896, 855.110 965.896, 855.110 975.896, 855.110 985.896, 855.110 995.896, 855.110 1005.896, 855.110 1015.896, 855.110 1025.896, 855.110 1035.896, 855.110 1045.896, 855.110 1055.896, 855.110 1065.896, 855.110 1075.896, 855.110 1085.896, 855.110 1095.896, 855.110 1105.896, 855.110 1115.896, 855.110 1125.896, 855.110 1135.896, 855.110 1145.896, 855.110 1155.896, 855.110 1165.896, 855.110 1175.896, 855.110 1185.896, 855.110 1195.896, 855.110 1205.896, 855.110 1215.896, 855.110 1225.896, 855.110 1235.896, 855.110 1245.896, 855.110 1255.896, 855.110 1265.896, 855.110 1275.896, 855.110 1285.896, 855.110 1297.471, 855.110 1297.932, 845.121 1298.393, 835.131 1298.854, 825.142 1299.315, 815.153 1299.776, 805.163 1300.238, 795.174 1300.699, 785.185 1301.160, 775.195 1301.621, 765.206 1302.082, 755.216 1302.543, 745.227 1303.005, 735.238 1303.466, 725.248 1303.927, 715.259 1304.388, 705.270 1304.849, 695.280 1305.310, 685.291 1305.771, 675.302 1306.233, 665.312 1306.694, 655.323 1307.155, 645.334 1307.616, 635.344 1308.077, 625.355 1308.538, 615.365 1309.045, 604.378 1309.507, 594.389 1309.729, 589.567 1310.002, 583.650 1310.416, 574.698 1310.877, 564.709 1311.105, 559.770 1311.566, 549.781 1311.646, 548.056 1312.107, 538.067 1312.568, 528.078 1313.029, 518.088 1313.490, 508.099 1313.951, 498.110 1314.412, 488.120 1314.874, 478.131 1315.335, 468.142 1315.796, 458.152 1316.257, 448.163 1316.718, 438.174 1317.179, 428.184 1317.640, 418.195 1318.102, 408.205 1318.563, 398.216 1319.024, 388.227 1319.485, 378.237 1319.946, 368.248 1320.407, 358.259 1320.868, 348.269 1321.330, 338.280 1321.791, 328.291 1322.252, 318.301 1322.713, 308.312 1323.174, 298.322 1323.651, 287.993 1320.462, 282.026 1317.329, 276.163 1314.250, 270.400 1313.280, 268.585 " fill="none" stroke="rgb(0, 0, 0)" stroke-linecap="butt" stroke-linejoin="round" stroke-opacity="1.0" stroke-width="3.0" />
            <path d=" M 750.587, 822.739 750.302, 812.743 750.017, 802.747 749.731, 792.751 749.446, 782.755 749.161, 772.759 748.876, 762.763 748.591, 752.767 748.306, 742.771 748.021, 732.776 747.736, 722.780 747.451, 712.784 747.166, 702.788 746.881, 692.792 746.596, 682.796 746.310, 672.800 746.025, 662.804 745.740, 652.808 745.455, 642.812 745.170, 632.816 744.885, 622.820 744.600, 612.824 744.359, 604.378 744.074, 594.383 743.937, 589.567 743.652, 579.571 743.513, 574.698 743.227, 564.702 743.087, 559.770 742.802, 549.774 742.517, 539.778 742.232, 529.782 741.946, 519.786 741.661, 509.791 741.376, 499.795 741.091, 489.799 740.806, 479.803 740.521, 469.807 740.236, 459.811 739.951, 449.815 739.666, 439.819 739.381, 429.823 739.096, 419.827 738.811, 409.831 738.525, 399.835 738.240, 389.839 737.955, 379.843 737.670, 369.847 737.385, 359.852 737.100, 349.856 736.815, 339.860 736.530, 329.864 736.398, 325.239 744.675, 325.239 754.675, 325.239 764.675, 325.239 774.675, 325.239 784.675, 325.239 794.675, 325.239 804.675, 325.239 814.675, 325.239 824.675, 325.239 834.675, 325.239 844.675, 325.239 854.675, 325.239 864.675, 325.239 874.675, 325.239 884.675, 325.239 894.675, 325.239 904.675, 325.239 914.675, 325.239 924.675, 325.239 934.675, 325.239 944.675, 325.239 954.675, 325.239 964.675, 325.239 974.675, 325.239 984.675, 325.239 995.183, 325.239 1005.183, 325.239 1015.183, 325.239 1023.108, 325.239 1033.108, 325.239 1043.108, 325.239 1053.108, 325.239 1063.108, 325.239 1073.108, 325.239 1083.108, 325.239 1093.108, 325.239 1103.108, 325.239 1113.108, 325.239 1123.108, 325.239 1133.108, 325.239 1143.108, 325.239 1149.103, 325.239 1159.103, 325.239 1169.103, 325.239 1179.103, 325.239 1189.103, 325.239 1199.103, 325.239 1205.368, 325.239 1214.415, 325.239 1224.415, 325.239 1234.415, 325.239 1244.415, 325.239 1254.415, 325.239 1264.415, 325.239 1271.752, 325.239 1281.752, 325.239 1283.736, 325.239 " fill="none" stroke="rgb(0, 0, 0)" stroke-linecap="butt" stroke-linejoin="round" stroke-opacity="1.0" stroke-width="3.0" />
            <path d=" M 1271.752, 325.239 1271.355, 335.231 1270.958, 345.223 1270.560, 355.215 1270.163, 365.208 1269.766, 375.200 1269.368, 385.192 1268.971, 395.184 1268.574, 405.176 1268.176, 415.168 1267.779, 425.160 1267.382, 435.152 1266.984, 445.144 1266.587, 455.136 1266.190, 465.129 1265.792, 475.121 1265.395, 485.113 1264.998, 495.105 1264.601, 505.097 1264.203, 515.089 1263.806, 525.081 1263.677, 528.311 1263.280, 538.303 1263.101, 542.806 1262.704, 552.798 1262.527, 557.247 1262.130, 567.239 1261.955, 571.632 1261.558, 581.625 1261.160, 591.617 1260.763, 601.609 1260.366, 611.601 1259.968, 621.593 1259.571, 631.585 1259.174, 641.577 1258.776, 651.569 1258.379, 661.561 1257.982, 671.554 1257.584, 681.546 1257.187, 691.538 1256.790, 701.530 1256.392, 711.522 1255.995, 721.514 1255.598, 731.506 1255.200, 741.498 1254.803, 751.490 1254.406, 761.482 1254.008, 771.475 1253.611, 781.467 1253.513, 783.937 1243.513, 783.937 1233.513, 783.937 1223.513, 783.937 1213.513, 783.937 1203.513, 783.937 1193.513, 783.937 1183.513, 783.937 1173.513, 783.937 1163.513, 783.937 1153.513, 783.937 1143.513, 783.937 1133.513, 783.937 1123.513, 783.937 1113.513, 783.937 1103.513, 783.937 1093.513, 783.937 1083.513, 783.937 1073.513, 783.937 1063.513, 783.937 1053.513, 783.937 1043.513, 783.937 1033.513, 783.937 1028.642, 783.937 " fill="none" stroke="rgb(0, 0, 0)" stroke-linecap="butt" stroke-linejoin="round" stroke-opacity="1.0" stroke-width="3.0" />
            <path d=" M 785.718, 783.937 775.718, 783.937 765.718, 783.937 757.273, 783.937 756.998, 773.940 756.724, 763.944 756.449, 753.948 756.175, 743.952 755.900, 733.955 755.626, 723.959 755.351, 713.963 755.077, 703.967 754.802, 693.971 754.528, 683.974 754.253, 673.978 753.978, 663.982 753.704, 653.986 753.429, 643.989 753.155, 633.993 752.880, 623.997 752.606, 614.001 752.331, 604.004 752.057, 594.008 751.782, 584.012 751.508, 574.016 751.442, 571.632 751.168, 561.636 751.047, 557.247 750.773, 547.250 750.650, 542.806 750.376, 532.810 750.252, 528.311 749.978, 518.315 749.703, 508.319 749.429, 498.322 749.154, 488.326 748.880, 478.330 748.605, 468.334 748.331, 458.337 748.056, 448.341 747.781, 438.345 747.507, 428.349 747.232, 418.352 747.187, 416.694 " fill="none" stroke="rgb(0, 0, 0)" stroke-linecap="butt" stroke-linejoin="round" stroke-opacity="1.0" stroke-width="3.0" />
            <path d=" M 1263.193, 822.739 1263.606, 812.747 1264.019, 802.756 1264.431, 792.765 1264.844, 782.773 1265.256, 772.782 1265.669, 762.790 1266.081, 752.799 1266.494, 742.807 1266.906, 732.816 1267.319, 722.824 1267.732, 712.833 1268.144, 702.841 1268.557, 692.850 1268.969, 682.858 1269.382, 672.867 1269.795, 662.875 1270.207, 652.884 1270.620, 642.892 1271.032, 632.901 1271.445, 622.909 1271.857, 612.918 1272.210, 604.378 1272.623, 594.387 1272.822, 589.567 1273.234, 579.576 1273.436, 574.698 1273.848, 564.706 1274.052, 559.770 1274.464, 549.779 1274.877, 539.787 1275.290, 529.796 1275.702, 519.804 1276.115, 509.813 1276.527, 499.821 1276.940, 489.830 1277.352, 479.838 1277.765, 469.847 1278.178, 459.855 1278.590, 449.864 1279.003, 439.872 1279.415, 429.881 1279.828, 419.889 1280.240, 409.898 1280.653, 399.906 1281.066, 389.915 1281.478, 379.923 1281.891, 369.932 1282.303, 359.940 1282.716, 349.949 1283.128, 339.958 1283.541, 329.966 1283.736, 325.239 " fill="none" stroke="rgb(0, 0, 0)" stroke-linecap="butt" stroke-linejoin="round" stroke-opacity="1.0" stroke-width="3.0" />
            <path d=" M 1253.513, 783.937 1255.934, 793.639 1258.354, 803.342 1260.775, 813.044 1263.193, 822.739 1253.193, 822.739 1243.193, 822.739 1233.193, 822.739 1223.193, 822.739 1213.193, 822.739 1203.193, 822.739 1193.193, 822.739 1183.193, 822.739 1173.193, 822.739 1163.193, 822.739 1153.193, 822.739 1143.193, 822.739 1133.193, 822.739 1123.193, 822.739 1113.193, 822.739 1103.193, 822.739 1093.193, 822.739 1083.193, 822.739 1073.193, 822.739 1063.193, 822.739 1053.193, 822.739 1043.193, 822.739 1033.193, 822.739 1023.193, 822.739 1013.193, 822.739 1003.193, 822.739 993.193, 822.739 983.193, 822.739 973.193, 822.739 963.193, 822.739 953.193, 822.739 943.193, 822.739 933.193, 822.739 923.193, 822.739 913.193, 822.739 903.193, 822.739 893.193, 822.739 883.193, 822.739 873.193, 822.739 863.193, 822.739 853.193, 822.739 843.193, 822.739 833.193, 822.739 823.193, 822.739 813.193, 822.739 803.193, 822.739 793.193, 822.739 783.193, 822.739 773.193, 822.739 763.193, 822.739 750.587, 822.739 752.285, 812.884 753.983, 803.029 755.681, 793.175 757.273, 783.937 " fill="none" stroke="rgb(0, 0, 0)" stroke-linecap="butt" stroke-linejoin="round" stroke-opacity="1.0" stroke-width="3.0" />
            <path d=" M 1323.651, 287.993 1318.068, 287.993 " fill="none" stroke="rgb(0, 0, 0)" stroke-linecap="butt" stroke-linejoin="round" stroke-opacity="1.0" stroke-width="3.0" />
            <path d=" M 1310.002, 583.650 1320.002, 583.650 1330.002, 583.650 1340.002, 583.650 1341.642, 583.650 1350.129, 583.650 1351.514, 577.246 1352.029, 567.259 1352.072, 566.414 1351.632, 556.423 1351.585, 555.351 1350.244, 548.347 1348.572, 548.056 1341.642, 548.056 1331.642, 548.056 1321.642, 548.056 1311.646, 548.056 " fill="none" stroke="rgb(0, 0, 0)" stroke-linecap="butt" stroke-linejoin="round" stroke-opacity="1.0" stroke-width="3.0" />
            <path d=" M 705.643, 548.056 695.643, 548.056 685.643, 548.056 675.643, 548.056 671.414, 548.056 666.469, 548.056 665.206, 548.347 664.193, 555.351 663.860, 565.345 663.825, 566.414 664.214, 576.406 664.247, 577.246 665.293, 583.650 671.414, 583.650 681.414, 583.650 691.414, 583.650 701.414, 583.650 706.831, 583.650 " fill="none" stroke="rgb(0, 0, 0)" stroke-linecap="butt" stroke-linejoin="round" stroke-opacity="1.0" stroke-width="3.0" />
            <path d=" M 796.321, 378.514 791.064, 373.597 785.874, 368.742 780.750, 363.948 775.690, 359.214 " fill="none" stroke="rgb(0, 0, 0)" stroke-linecap="butt" stroke-linejoin="round" stroke-opacity="1.0" stroke-width="3.0" />
            <path d=" M 995.120, 339.249 990.706, 339.651 980.747, 340.557 979.397, 340.680 969.438, 341.586 959.479, 342.492 949.520, 343.398 939.561, 344.304 929.603, 345.210 919.644, 346.117 909.685, 347.023 899.726, 347.929 889.767, 348.835 879.808, 349.741 869.849, 350.647 859.891, 351.553 849.932, 352.459 839.973, 353.365 830.014, 354.272 820.055, 355.178 810.096, 356.084 800.137, 356.990 790.178, 357.896 780.220, 358.802 775.690, 359.214 775.926, 369.211 776.119, 377.385 " fill="none" stroke="rgb(0, 0, 0)" stroke-linecap="butt" stroke-linejoin="round" stroke-opacity="1.0" stroke-width="3.0" />
            <path d=" M 777.112, 419.459 777.348, 429.456 777.584, 439.453 777.820, 449.451 778.056, 459.448 778.292, 469.445 778.528, 479.442 778.764, 489.439 779.000, 499.437 779.237, 509.434 779.473, 519.431 779.709, 529.428 779.945, 539.426 780.181, 549.423 780.417, 559.420 780.653, 569.417 780.889, 579.414 781.125, 589.412 781.361, 599.409 781.597, 609.406 781.833, 619.403 782.069, 629.400 782.305, 639.398 782.541, 649.395 782.777, 659.392 783.013, 669.389 783.249, 679.387 783.485, 689.384 783.721, 699.381 783.957, 709.378 784.193, 719.375 784.430, 729.373 784.666, 739.370 784.902, 749.367 785.138, 759.364 785.374, 769.361 785.610, 779.359 785.718, 783.937 785.816, 788.104 790.657, 795.127 795.556, 802.235 800.514, 809.428 804.660, 815.444 805.531, 816.708 814.138, 815.444 824.031, 813.991 833.925, 812.538 843.819, 811.084 853.713, 809.631 863.607, 808.178 873.501, 806.725 883.394, 805.271 893.288, 803.818 903.182, 802.365 913.076, 800.912 922.970, 799.458 932.864, 798.005 942.757, 796.552 952.651, 795.099 962.545, 793.645 972.439, 792.192 982.333, 790.739 993.101, 789.157 1002.154, 787.827 1012.048, 786.374 1013.079, 786.223 1019.405, 785.293 1023.974, 784.622 1028.642, 783.937 1034.840, 783.026 1044.734, 781.573 1054.628, 780.120 1064.522, 778.666 1074.416, 777.213 1084.310, 775.760 1094.203, 774.307 1104.097, 772.853 1113.991, 771.400 1123.885, 769.947 1133.779, 768.494 1143.673, 767.040 1153.567, 765.587 1163.460, 764.134 1173.354, 762.681 1183.248, 761.227 1193.142, 759.774 1203.036, 758.321 1212.929, 756.868 1220.786, 755.714 1221.138, 745.720 1221.489, 735.726 1221.841, 725.732 1222.193, 715.738 1222.544, 705.745 1222.896, 695.751 1223.248, 685.757 1223.600, 675.763 1223.951, 665.769 1224.303, 655.775 1224.655, 645.782 1225.007, 635.788 1225.358, 625.794 1225.710, 615.800 1226.062, 605.806 1226.414, 595.813 1226.765, 585.819 1227.117, 575.825 1227.469, 565.831 1227.821, 555.837 1228.172, 545.844 1228.524, 535.850 1228.876, 525.856 1229.227, 515.862 1229.579, 505.868 1229.931, 495.874 1230.283, 485.881 1230.634, 475.887 1230.986, 465.893 1231.338, 455.899 1231.690, 445.905 1232.041, 435.912 1232.393, 425.918 1232.745, 415.924 1233.097, 405.930 1233.448, 395.936 1233.800, 385.943 1234.152, 375.949 1234.503, 365.955 1234.855, 355.961 1235.207, 345.967 1235.508, 337.426 1227.877, 333.017 1220.338, 328.662 1214.415, 325.239 " fill="none" stroke="rgb(0, 0, 0)" stroke-linecap="butt" stroke-linejoin="round" stroke-opacity="1.0" stroke-width="3.0" />
            <path d=" M 1197.344, 734.882 1187.445, 736.305 1177.547, 737.728 1167.649, 739.152 1157.751, 740.575 1147.853, 741.998 1137.954, 743.421 1128.056, 744.845 1118.158, 746.268 1108.260, 747.691 1098.362, 749.114 1088.464, 750.538 1078.565, 751.961 1068.667, 753.384 1058.769, 754.807 1048.871, 756.231 1038.973, 757.654 1035.092, 758.212 1025.194, 759.635 1024.190, 759.779 1014.292, 761.203 1013.258, 761.351 1003.360, 762.775 1002.296, 762.928 992.398, 764.351 982.500, 765.774 972.601, 767.197 962.703, 768.621 952.805, 770.044 942.907, 771.467 933.009, 772.890 923.110, 774.314 913.212, 775.737 903.314, 777.160 893.416, 778.583 883.518, 780.007 873.619, 781.430 863.721, 782.853 856.186, 783.937 846.288, 785.360 836.390, 786.783 831.784, 787.445 831.723, 783.937 831.681, 781.542 831.508, 771.543 831.334, 761.545 831.251, 756.754 831.077, 746.756 830.903, 736.757 830.729, 726.759 830.556, 716.760 830.382, 706.762 830.208, 696.763 830.034, 686.765 829.861, 676.766 829.687, 666.768 829.513, 656.769 829.339, 646.771 829.165, 636.772 828.992, 626.774 828.818, 616.775 828.644, 606.777 828.580, 603.079 828.406, 593.081 828.232, 583.082 828.059, 573.084 828.029, 571.356 827.855, 561.358 827.681, 551.359 827.507, 541.361 827.334, 531.363 827.160, 521.364 826.986, 511.366 826.812, 501.367 826.639, 491.369 826.465, 481.370 826.291, 471.372 826.117, 461.373 825.944, 451.375 825.770, 441.376 825.596, 431.378 825.422, 421.379 825.249, 411.381 825.122, 404.108 835.076, 403.143 845.029, 402.177 854.982, 401.212 864.935, 400.246 874.889, 399.281 884.842, 398.316 894.795, 397.350 904.748, 396.385 914.702, 395.419 924.655, 394.454 934.608, 393.488 944.562, 392.523 954.515, 391.557 964.468, 390.592 974.421, 389.626 984.375, 388.661 994.328, 387.695 1004.446, 386.714 1014.399, 385.749 1015.961, 385.597 1025.914, 384.632 1027.443, 384.483 1037.396, 383.518 1038.892, 383.373 1048.845, 382.407 1058.799, 381.442 1068.752, 380.477 1078.705, 379.511 1088.658, 378.546 1098.612, 377.580 1108.565, 376.615 1118.518, 375.649 1128.472, 374.684 1138.425, 373.718 1148.378, 372.753 1158.331, 371.787 1168.285, 370.822 1179.164, 369.767 1189.118, 368.801 1199.071, 367.836 1204.050, 367.353 1209.099, 366.863 " fill="none" stroke="rgb(0, 0, 0)" stroke-linecap="butt" stroke-linejoin="round" stroke-opacity="1.0" stroke-width="3.0" />
            <path d=" M 805.531, 816.708 805.321, 806.711 805.111, 796.713 804.901, 786.715 804.843, 783.937 804.632, 773.939 804.422, 763.941 804.212, 753.943 804.002, 743.945 803.792, 733.948 803.582, 723.950 803.371, 713.952 803.161, 703.954 802.951, 693.956 802.741, 683.959 802.531, 673.961 802.321, 663.963 802.111, 653.965 801.900, 643.968 801.690, 633.970 801.480, 623.972 801.270, 613.974 801.060, 603.976 800.850, 593.979 800.640, 583.981 800.429, 573.983 800.219, 563.985 800.009, 553.987 799.799, 543.990 799.589, 533.992 799.379, 523.994 799.168, 513.996 798.958, 503.998 798.748, 494.001 798.538, 484.003 798.328, 474.005 798.118, 464.007 797.908, 454.009 797.697, 444.012 797.487, 434.014 797.277, 424.016 797.067, 414.018 796.857, 404.021 796.647, 394.023 796.436, 384.025 796.321, 378.514 806.277, 377.582 816.234, 376.651 826.190, 375.719 836.147, 374.788 846.103, 373.857 856.060, 372.925 866.016, 371.994 875.973, 371.062 885.929, 370.131 895.886, 369.199 905.842, 368.268 915.799, 367.336 925.755, 366.405 935.712, 365.473 945.668, 364.542 955.625, 363.610 965.581, 362.679 975.538, 361.747 985.495, 360.816 995.451, 359.884 1004.604, 359.028 1014.560, 358.097 1016.160, 357.947 1026.116, 357.015 1027.682, 356.869 1037.639, 355.938 1039.172, 355.794 1049.128, 354.863 1059.085, 353.931 1069.041, 353.000 1078.998, 352.068 1088.954, 351.137 1098.911, 350.205 1108.867, 349.274 1118.824, 348.342 1128.780, 347.411 1138.737, 346.479 1148.693, 345.548 1158.650, 344.616 1168.606, 343.685 1178.563, 342.753 1188.519, 341.822 1198.476, 340.890 1208.432, 339.959 1218.389, 339.027 1228.346, 338.096 1235.508, 337.426 " fill="none" stroke="rgb(0, 0, 0)" stroke-linecap="butt" stroke-linejoin="round" stroke-opacity="1.0" stroke-width="3.0" />
            <path d=" M 1173.782, 561.214 1173.501, 571.210 1173.220, 581.206 1172.939, 591.202 1172.658, 601.199 1172.377, 611.195 1172.096, 621.191 1171.815, 631.187 1171.534, 641.183 1171.253, 651.179 1170.972, 661.175 1170.691, 671.171 1170.410, 681.167 1170.129, 691.163 1169.848, 701.159 1169.617, 709.369 1159.714, 710.756 1149.810, 712.143 1139.907, 713.530 1130.004, 714.917 1120.100, 716.303 1110.197, 717.690 1100.293, 719.077 1090.390, 720.464 1080.487, 721.851 1070.583, 723.238 1060.680, 724.625 1050.777, 726.012 1040.873, 727.398 1030.970, 728.785 1021.067, 730.172 1010.551, 731.645 1000.647, 733.032 999.868, 733.141 989.964, 734.528 989.156, 734.641 979.253, 736.028 978.417, 736.145 968.513, 737.532 958.610, 738.919 948.706, 740.305 938.803, 741.692 928.900, 743.079 918.996, 744.466 909.093, 745.853 899.190, 747.240 889.286, 748.627 879.383, 750.014 869.480, 751.400 859.576, 752.787 849.673, 754.174 839.769, 755.561 831.251, 756.754 " fill="none" stroke="rgb(0, 0, 0)" stroke-linecap="butt" stroke-linejoin="round" stroke-opacity="1.0" stroke-width="3.0" />
            <path d=" M 1209.099, 366.863 1208.780, 376.858 1208.460, 386.853 1208.141, 396.848 1207.822, 406.843 1207.503, 416.838 1207.183, 426.832 1206.864, 436.827 1206.545, 446.822 1206.226, 456.817 1205.906, 466.812 1205.587, 476.807 1205.268, 486.802 1204.948, 496.797 1204.629, 506.792 1204.310, 516.786 1203.991, 526.781 1203.672, 536.776 1203.352, 546.771 1203.033, 556.766 1202.714, 566.761 1202.395, 576.756 1202.075, 586.751 1201.756, 596.746 1201.437, 606.741 1201.117, 616.736 1200.798, 626.730 1200.479, 636.725 1200.160, 646.720 1199.840, 656.715 1199.521, 666.710 1199.202, 676.705 1198.883, 686.700 1198.563, 696.695 1198.244, 706.690 1197.925, 716.685 1197.606, 726.679 1197.344, 734.882 1189.985, 728.111 1182.626, 721.339 1175.267, 714.568 1169.617, 709.369 " fill="none" stroke="rgb(0, 0, 0)" stroke-linecap="butt" stroke-linejoin="round" stroke-opacity="1.0" stroke-width="3.0" />
            <path d=" M 995.085, 347.071 995.395, 349.413 1000.918, 351.288 1009.554, 351.968 1017.969, 351.188 1022.915, 349.252 " fill="none" stroke="rgb(0, 0, 0)" stroke-linecap="butt" stroke-linejoin="round" stroke-opacity="1.0" stroke-width="3.0" />
            <path d=" M 993.101, 789.157 993.056, 799.157 993.051, 800.386 993.337, 803.944 998.533, 806.791 1006.663, 807.824 1014.591, 806.639 1019.257, 803.700 1019.337, 793.700 1019.405, 785.293 " fill="none" stroke="rgb(0, 0, 0)" stroke-linecap="butt" stroke-linejoin="round" stroke-opacity="1.0" stroke-width="3.0" />
            <path d=" M 1022.915, 349.252 1022.995, 339.252 1023.016, 336.711 1023.096, 326.712 1023.108, 325.239 " fill="none" stroke="rgb(0, 0, 0)" stroke-linecap="butt" stroke-linejoin="round" stroke-opacity="1.0" stroke-width="3.0" />
            <path d=" M 929.345, 559.461 928.935, 555.112 928.293, 545.133 927.982, 540.300 927.647, 530.306 927.493, 525.718 927.481, 515.718 927.476, 511.486 927.807, 501.491 927.931, 497.721 928.635, 487.746 928.860, 484.541 929.974, 474.603 930.259, 472.060 931.833, 462.185 932.120, 460.391 934.223, 450.615 934.432, 449.642 937.153, 440.020 937.182, 439.917 940.351, 431.316 943.917, 423.930 947.854, 417.845 952.131, 413.138 956.715, 409.875 961.566, 408.111 966.643, 407.890 971.900, 409.239 977.286, 412.172 982.750, 416.686 988.236, 422.759 993.687, 430.354 998.779, 438.960 999.045, 439.410 1003.507, 448.360 1004.251, 449.853 1008.169, 459.054 1009.246, 461.585 1012.685, 470.975 1013.973, 474.493 1016.983, 484.030 1018.377, 488.446 1020.995, 498.097 1022.405, 503.296 1024.658, 513.039 1026.009, 518.884 1027.916, 528.700 1029.146, 535.036 1030.719, 544.911 1031.779, 551.571 1033.022, 561.493 1033.876, 568.302 1034.790, 578.260 1035.413, 585.038 1035.992, 595.022 1036.373, 601.590 1036.605, 611.587 1036.748, 617.769 1036.612, 627.768 1036.535, 633.394 1036.003, 643.380 1035.741, 648.294 1034.774, 658.247 1034.380, 662.308 1032.925, 672.202 1032.471, 675.289 1030.457, 685.085 1030.041, 687.108 1027.373, 696.745 1027.123, 697.648 1023.756, 706.816 1019.979, 714.533 1015.840, 720.741 1011.386, 725.400 1006.667, 728.489 1001.734, 730.002 996.639, 729.951 991.434, 728.364 986.170, 725.280 980.896, 720.753 975.661, 714.847 970.511, 707.637 965.490, 699.206 960.968, 690.287 960.641, 689.643 956.632, 680.482 956.003, 679.045 952.444, 669.700 951.613, 667.516 948.457, 658.026 947.504, 655.160 944.716, 645.556 943.709, 642.089 941.261, 632.393 940.256, 628.415 938.128, 618.644 937.172, 614.255 935.349, 604.422 934.478, 599.725 933.040, 590.411 " fill="none" stroke="rgb(0, 0, 0)" stroke-linecap="butt" stroke-linejoin="round" stroke-opacity="1.0" stroke-width="3.0" />
            <path d=" M 1085.902, 512.806 1085.758, 512.087 1083.436, 502.360 1082.068, 496.628 1079.360, 487.002 1077.925, 481.904 1074.803, 472.404 1073.380, 468.074 1069.806, 458.735 1068.485, 455.283 1064.409, 446.151 1063.298, 443.661 1058.656, 434.804 1057.879, 433.321 1052.588, 424.836 1052.290, 424.359 1046.591, 416.849 1040.844, 410.850 1035.108, 406.400 1029.443, 403.519 1023.902, 402.212 1018.540, 402.463 1008.589, 403.450 998.637, 404.436 988.686, 405.423 978.735, 406.409 968.784, 407.396 961.566, 408.111 " fill="none" stroke="rgb(0, 0, 0)" stroke-linecap="butt" stroke-linejoin="round" stroke-opacity="1.0" stroke-width="3.0" />
            <path d=" M 1091.733, 545.493 1091.610, 544.516 1090.957, 540.488 1089.358, 530.616 1088.952, 528.109 1088.056, 523.616 " fill="none" stroke="rgb(0, 0, 0)" stroke-linecap="butt" stroke-linejoin="round" stroke-opacity="1.0" stroke-width="3.0" />
            <path d=" M 1001.734, 730.002 1011.638, 728.618 1021.542, 727.235 1031.445, 725.852 1041.349, 724.468 1051.253, 723.085 1058.613, 722.057 1063.831, 720.510 1068.834, 717.399 1073.569, 712.730 1077.983, 706.524 1082.024, 698.823 1085.644, 689.684 1088.522, 680.107 1088.798, 679.186 1090.995, 669.430 1091.447, 667.423 1093.058, 657.554 1093.555, 654.509 1094.652, 644.569 1095.093, 640.574 1095.729, 630.595 1096.038, 625.765 1096.255, 615.767 1096.375, 610.240 1096.201, 600.241 1096.096, 594.170 1095.553, 584.185 1095.202, 577.735 1094.577, 570.820 1093.701, 561.120 1092.451, 551.199 1092.337, 550.287 " fill="none" stroke="rgb(0, 0, 0)" stroke-linecap="butt" stroke-linejoin="round" stroke-opacity="1.0" stroke-width="3.0" />
            <path d=" M 980.801, 584.618 981.278, 584.544 981.735, 584.323 982.167, 583.955 982.570, 583.445 982.941, 582.796 983.275, 582.016 983.569, 581.112 983.820, 580.092 984.026, 578.966 984.185, 577.745 984.294, 576.440 984.354, 575.065 984.363, 573.633 984.322, 572.158 984.230, 570.653 984.089, 569.135 983.899, 567.617 983.664, 566.115 983.384, 564.644 983.063, 563.217 982.705, 561.849 982.311, 560.552 981.888, 559.341 981.437, 558.225 980.965, 557.217 980.475, 556.325 979.973, 555.559 979.463, 554.925 978.950, 554.430 978.440, 554.078 977.936, 553.872 977.445, 553.814 " fill="none" stroke="rgb(0, 0, 0)" stroke-linecap="butt" stroke-linejoin="round" stroke-opacity="1.0" stroke-width="3.0" />
            <path d=" M 1094.577, 570.820 1104.505, 569.616 1114.432, 568.412 1124.359, 567.208 1134.286, 566.004 1144.214, 564.800 1154.141, 563.596 1164.068, 562.392 1173.782, 561.214 1183.709, 560.010 1188.337, 559.449 1188.912, 559.364 1189.465, 559.135 1189.994, 558.763 1190.490, 558.254 1190.952, 557.610 1191.372, 556.839 1191.749, 555.947 1192.077, 554.943 1192.353, 553.837 1192.575, 552.639 1192.741, 551.362 1192.849, 550.016 1192.897, 548.616 1192.886, 547.175 1192.815, 545.708 1192.685, 544.228 1192.497, 542.750 1192.253, 541.289 1191.956, 539.858 1191.609, 538.472 1191.214, 537.145 1190.776, 535.889 1190.299, 534.716 1189.788, 533.638 1189.247, 532.665 1188.683, 531.807 1188.100, 531.071 1187.505, 530.466 1186.902, 529.995 1186.299, 529.665 1185.700, 529.477 1185.112, 529.433 1175.180, 530.599 1174.641, 530.663 1164.709, 531.829 1154.777, 532.995 1144.846, 534.161 1134.914, 535.327 1124.982, 536.493 1120.018, 537.076 " fill="none" stroke="rgb(0, 0, 0)" stroke-linecap="butt" stroke-linejoin="round" stroke-opacity="1.0" stroke-width="3.0" />
            <path d=" M 977.445, 553.814 967.513, 554.981 957.581, 556.147 947.649, 557.313 937.717, 558.479 929.345, 559.461 919.414, 560.628 909.482, 561.794 899.550, 562.960 889.618, 564.126 879.686, 565.292 869.755, 566.458 859.823, 567.624 849.891, 568.790 839.959, 569.956 830.027, 571.122 828.029, 571.356 " fill="none" stroke="rgb(0, 0, 0)" stroke-linecap="butt" stroke-linejoin="round" stroke-opacity="1.0" stroke-width="3.0" />
            <path d=" M 479.433, 115.747 469.433, 115.747 465.477, 115.747 461.549, 124.943 457.621, 134.139 453.693, 143.335 449.766, 152.532 445.838, 161.728 441.910, 170.924 437.982, 180.121 434.054, 189.317 430.126, 198.513 426.198, 207.710 422.271, 216.906 418.343, 226.102 414.415, 235.298 410.487, 244.495 406.214, 254.498 416.214, 254.498 426.214, 254.498 426.441, 254.498 430.374, 245.304 434.308, 236.110 438.242, 226.917 442.175, 217.723 443.835, 213.843 453.835, 213.843 463.835, 213.843 473.835, 213.843 483.835, 213.843 493.835, 213.843 502.491, 213.843 506.615, 222.953 510.740, 232.063 514.864, 241.173 518.988, 250.283 520.897, 254.498 530.897, 254.498 540.897, 254.498 541.123, 254.498 537.060, 245.360 532.998, 236.223 528.935, 227.085 524.872, 217.948 520.810, 208.810 516.747, 199.673 512.685, 190.535 508.622, 181.397 504.559, 172.260 500.497, 163.122 496.434, 153.985 492.371, 144.847 488.309, 135.710 484.246, 126.572 480.184, 117.435 479.433, 115.747 " fill="none" stroke="rgb(0, 0, 0)" stroke-linecap="butt" stroke-linejoin="round" stroke-opacity="1.0" stroke-width="3.0" />
            <path d=" M 451.521, 196.044 455.338, 186.802 459.155, 177.559 462.972, 168.316 466.789, 159.073 470.606, 149.830 472.152, 146.086 476.220, 155.221 480.288, 164.356 484.356, 173.491 488.425, 182.626 492.493, 191.761 494.400, 196.044 484.400, 196.044 474.400, 196.044 464.400, 196.044 454.400, 196.044 451.521, 196.044 " fill="none" stroke="rgb(0, 0, 0)" stroke-linecap="butt" stroke-linejoin="round" stroke-opacity="1.0" stroke-width="3.0" />
            <path d=" M 1280.580, 249.336 1280.175, 259.328 1279.956, 264.736 1279.551, 274.728 1279.147, 284.720 1279.014, 287.993 1278.610, 297.985 1278.314, 305.293 1288.314, 305.293 1297.906, 305.293 1301.307, 305.132 1304.356, 304.670 1307.068, 303.939 1309.453, 302.969 1309.526, 302.928 1311.523, 301.793 1313.290, 300.443 1314.765, 298.949 1315.961, 297.343 1316.888, 295.658 1317.558, 293.924 1317.984, 292.173 1318.175, 290.438 1318.151, 288.600 1318.068, 287.993 1317.913, 286.854 1317.466, 285.204 1316.816, 283.660 1315.970, 282.226 1314.934, 280.909 1313.713, 279.718 1312.313, 278.656 1310.742, 277.733 1310.648, 277.691 1309.004, 276.954 1307.106, 276.325 1305.055, 275.855 1305.062, 275.690 1306.515, 275.066 1307.839, 274.381 1309.036, 273.633 1310.108, 272.819 1310.897, 272.086 1311.055, 271.939 1311.880, 270.988 1312.583, 269.966 1313.168, 268.868 1313.280, 268.585 1313.634, 267.695 1313.984, 266.441 1314.219, 265.107 1314.341, 263.688 1314.309, 261.918 1314.049, 260.167 1313.553, 258.459 1312.814, 256.821 1311.825, 255.278 1310.578, 253.857 1309.067, 252.584 1307.282, 251.484 1305.218, 250.583 1302.867, 249.907 1300.222, 249.483 1297.276, 249.336 1287.276, 249.336 1280.580, 249.336 " fill="none" stroke="rgb(0, 0, 0)" stroke-linecap="butt" stroke-linejoin="round" stroke-opacity="1.0" stroke-width="3.0" />
            <path d=" M 1288.542, 256.601 1296.124, 256.601 1297.911, 256.675 1299.487, 256.889 1300.862, 257.234 1302.046, 257.697 1303.048, 258.270 1303.879, 258.941 1304.547, 259.699 1305.064, 260.534 1305.438, 261.435 1305.680, 262.391 1305.800, 263.393 1305.807, 264.429 1305.776, 264.736 1305.662, 265.867 1305.356, 267.179 1304.890, 268.364 1304.261, 269.423 1303.471, 270.356 1302.517, 271.163 1301.398, 271.845 1300.114, 272.403 1298.665, 272.836 1297.048, 273.145 1295.263, 273.330 1293.309, 273.391 1287.844, 273.391 1288.204, 264.736 1288.542, 256.601 " fill="none" stroke="rgb(0, 0, 0)" stroke-linecap="butt" stroke-linejoin="round" stroke-opacity="1.0" stroke-width="3.0" />
            <path d=" M 1287.544, 280.612 1297.456, 280.612 1299.519, 280.686 1301.386, 280.903 1303.059, 281.255 1304.540, 281.736 1305.830, 282.336 1306.934, 283.050 1307.852, 283.870 1308.588, 284.788 1309.144, 285.797 1309.521, 286.889 1309.713, 287.993 1309.724, 288.057 1309.753, 289.293 1309.650, 290.343 1309.422, 291.395 1309.057, 292.432 1308.538, 293.435 1307.851, 294.387 1306.983, 295.270 1305.917, 296.066 1304.641, 296.757 1303.138, 297.325 1301.394, 297.753 1299.395, 298.023 1297.125, 298.117 1287.125, 298.117 1286.817, 298.117 1287.232, 288.126 1287.238, 287.993 1287.544, 280.612 " fill="none" stroke="rgb(0, 0, 0)" stroke-linecap="butt" stroke-linejoin="round" stroke-opacity="1.0" stroke-width="3.0" />
            <path d=" M 766.154, 376.310 764.993, 376.394 761.491, 376.926 758.184, 377.837 755.096, 379.103 752.249, 380.701 749.665, 382.606 747.368, 384.793 746.345, 386.050 745.378, 387.239 743.719, 389.918 742.412, 392.805 741.480, 395.876 740.943, 399.106 740.824, 402.470 741.048, 404.872 741.592, 407.332 742.461, 409.792 743.659, 412.195 745.193, 414.481 747.067, 416.592 747.187, 416.694 749.287, 418.472 751.857, 420.063 754.783, 421.308 758.070, 422.148 761.723, 422.528 765.748, 422.391 767.462, 422.189 769.087, 421.930 770.630, 421.619 772.096, 421.257 773.494, 420.848 774.829, 420.393 776.107, 419.897 777.112, 419.459 777.336, 419.361 778.522, 418.789 779.671, 418.183 780.790, 417.546 781.885, 416.881 781.724, 409.896 780.469, 410.805 779.197, 411.653 777.910, 412.437 776.959, 412.964 776.611, 413.156 775.305, 413.811 773.993, 414.398 772.680, 414.918 771.368, 415.369 770.060, 415.749 768.759, 416.057 767.470, 416.293 766.194, 416.454 763.562, 416.569 761.079, 416.393 758.757, 415.938 756.612, 415.216 754.657, 414.239 752.906, 413.017 751.375, 411.564 750.077, 409.891 749.027, 408.010 748.240, 405.932 747.729, 403.670 747.510, 401.236 747.601, 398.810 747.999, 396.477 748.686, 394.255 749.647, 392.164 750.862, 390.222 752.317, 388.447 753.992, 386.858 755.871, 385.473 757.936, 384.311 760.170, 383.389 762.556, 382.726 765.075, 382.340 766.374, 382.249 767.658, 382.221 768.933, 382.256 770.203, 382.356 771.473, 382.521 772.746, 382.752 774.027, 383.050 775.320, 383.414 776.268, 383.727 776.630, 383.847 777.961, 384.347 779.317, 384.918 780.703, 385.558 780.544, 378.647 779.025, 378.175 777.564, 377.757 776.153, 377.392 776.119, 377.385 774.790, 377.080 773.468, 376.820 772.184, 376.610 770.932, 376.452 769.708, 376.343 768.507, 376.284 767.324, 376.273 766.154, 376.310 " fill="none" stroke="rgb(0, 0, 0)" stroke-linecap="butt" stroke-linejoin="round" stroke-opacity="1.0" stroke-width="3.0" />
            <path d=" M 1083.458, 513.085 1081.092, 522.801 1078.726, 532.517 1076.368, 542.200 1074.003, 551.917 1073.866, 552.478 1083.796, 551.300 1092.337, 550.287 1093.653, 550.131 1097.735, 549.461 1101.620, 548.463 1105.292, 547.169 1108.730, 545.612 1111.916, 543.823 1114.831, 541.834 1117.454, 539.676 1119.766, 537.382 1120.018, 537.076 1121.745, 534.982 1123.373, 532.510 1124.626, 529.996 1125.485, 527.473 1125.918, 525.159 1126.003, 522.876 1125.719, 520.665 1125.048, 518.566 1123.970, 516.620 1122.466, 514.870 1120.517, 513.356 1118.104, 512.121 1115.207, 511.207 1111.807, 510.656 1107.887, 510.510 1103.427, 510.811 1093.491, 511.942 1085.902, 512.806 1083.458, 513.085 " fill="none" stroke="rgb(0, 0, 0)" stroke-linecap="butt" stroke-linejoin="round" stroke-opacity="1.0" stroke-width="3.0" />
            <path d=" M 1089.589, 517.385 1099.524, 516.248 1100.940, 516.086 1104.326, 515.832 1107.323, 515.877 1109.939, 516.201 1112.185, 516.784 1114.069, 517.605 1115.603, 518.645 1116.795, 519.883 1117.656, 521.299 1118.196, 522.873 1118.424, 524.585 1118.351, 526.416 1117.986, 528.345 1117.568, 529.656 1116.921, 531.141 1116.029, 532.753 1114.875, 534.443 1113.440, 536.166 1111.707, 537.874 1111.449, 538.082 1109.658, 539.521 1107.275, 541.061 1104.538, 542.447 1101.429, 543.634 1097.929, 544.575 1094.016, 545.223 1091.733, 545.493 1082.402, 546.594 1083.695, 541.340 1086.084, 531.630 1088.056, 523.616 1089.589, 517.385 " fill="none" stroke="rgb(0, 0, 0)" stroke-linecap="butt" stroke-linejoin="round" stroke-opacity="1.0" stroke-width="3.0" />
            <path d=" M 746.345, 386.050 746.071, 376.054 745.796, 366.058 745.522, 356.061 745.247, 346.065 744.973, 336.069 744.698, 326.073 744.675, 325.239 " fill="none" stroke="rgb(0, 0, 0)" stroke-linecap="butt" stroke-linejoin="round" stroke-opacity="1.0" stroke-width="3.0" />
            <path d=" M 776.268, 383.727 776.505, 393.724 776.741, 403.722 776.959, 412.964 " fill="none" stroke="rgb(0, 0, 0)" stroke-linecap="butt" stroke-linejoin="round" stroke-opacity="1.0" stroke-width="3.0" />
            <path d=" M 828.580, 603.079 838.507, 601.875 848.434, 600.671 858.362, 599.467 868.289, 598.263 878.216, 597.059 888.144, 595.855 898.071, 594.652 907.998, 593.448 917.925, 592.244 927.853, 591.040 933.040, 590.411 942.967, 589.207 952.895, 588.003 962.822, 586.799 972.749, 585.595 980.801, 584.618 " fill="none" stroke="rgb(0, 0, 0)" stroke-linecap="butt" stroke-linejoin="round" stroke-opacity="1.0" stroke-width="3.0" />
            <path d=" M 995.183, 325.239 995.138, 335.239 995.120, 339.249 995.085, 347.071 " fill="none" stroke="rgb(0, 0, 0)" stroke-linecap="butt" stroke-linejoin="round" stroke-opacity="1.0" stroke-width="3.0" />
            <path d=" M 1179.164, 369.767 1178.883, 379.763 1178.602, 389.759 1178.321, 399.755 1178.040, 409.751 1177.759, 419.747 1177.478, 429.743 1177.197, 439.739 1176.916, 449.735 1176.635, 459.731 1176.354, 469.727 1176.073, 479.723 1175.792, 489.719 1175.511, 499.715 1175.230, 509.711 1174.949, 519.707 1174.641, 530.663 " fill="none" stroke="rgb(0, 0, 0)" stroke-linecap="butt" stroke-linejoin="round" stroke-opacity="1.0" stroke-width="3.0" />
            <path d=" M 1111.449, 538.082 1101.517, 539.248 1091.585, 540.414 1090.957, 540.488 " fill="none" stroke="rgb(0, 0, 0)" stroke-linecap="butt" stroke-linejoin="round" stroke-opacity="1.0" stroke-width="3.0" />
            <path d=" M 1149.103, 325.239 1139.145, 326.145 1129.186, 327.051 1119.227, 327.957 1109.268, 328.864 1099.309, 329.770 1089.350, 330.676 1079.391, 331.582 1069.432, 332.488 1059.474, 333.394 1049.515, 334.300 1039.556, 335.206 1029.597, 336.112 1023.016, 336.711 " fill="none" stroke="rgb(0, 0, 0)" stroke-linecap="butt" stroke-linejoin="round" stroke-opacity="1.0" stroke-width="3.0" />
            <path d=" M 1305.776, 264.736 1295.776, 264.736 1288.204, 264.736 " fill="none" stroke="rgb(0, 0, 0)" stroke-linecap="butt" stroke-linejoin="round" stroke-opacity="1.0" stroke-width="3.0" />
            <path d=" M 1279.014, 287.993 1269.014, 287.993 1259.014, 287.993 1249.014, 287.993 1239.014, 287.993 1229.014, 287.993 1219.014, 287.993 1209.014, 287.993 1199.014, 287.993 1189.014, 287.993 1179.014, 287.993 1169.014, 287.993 1159.014, 287.993 1149.014, 287.993 1139.014, 287.993 1129.014, 287.993 1119.014, 287.993 1109.014, 287.993 1099.014, 287.993 1089.014, 287.993 1079.014, 287.993 1069.014, 287.993 1059.014, 287.993 1049.014, 287.993 1039.014, 287.993 1029.014, 287.993 1019.014, 287.993 1009.014, 287.993 999.014, 287.993 989.014, 287.993 979.014, 287.993 969.014, 287.993 959.014, 287.993 949.014, 287.993 939.014, 287.993 929.014, 287.993 919.014, 287.993 909.014, 287.993 899.014, 287.993 889.014, 287.993 879.014, 287.993 869.014, 287.993 859.014, 287.993 849.014, 287.993 839.014, 287.993 829.014, 287.993 819.014, 287.993 809.014, 287.993 799.014, 287.993 789.014, 287.993 779.014, 287.993 769.014, 287.993 759.014, 287.993 749.014, 287.993 739.014, 287.993 729.014, 287.993 719.014, 287.993 709.014, 287.993 696.959, 287.993 " fill="none" stroke="rgb(0, 0, 0)" stroke-linecap="butt" stroke-linejoin="round" stroke-opacity="1.0" stroke-width="3.0" />
            <path d=" M 1309.713, 287.993 1299.713, 287.993 1289.713, 287.993 1287.238, 287.993 " fill="none" stroke="rgb(0, 0, 0)" stroke-linecap="butt" stroke-linejoin="round" stroke-opacity="1.0" stroke-width="3.0" />
        </g>
    </g>
</svg>
