<?xml version="1.0" encoding="UTF-8" standalone="no"?>
<!-- Created with Inkscape (http://www.inkscape.org/) -->

<svg
   width="222.827mm"
   height="245.10191mm"
   viewBox="0 0 222.827 245.10192"
   version="1.1"
   id="svg5"
   xml:space="preserve"
   inkscape:version="1.2.1 (9c6d41e410, 2022-07-14)"
   sodipodi:docname="giro2.svg"
   inkscape:export-filename="giro2.png"
   inkscape:export-xdpi="96"
   inkscape:export-ydpi="96"
   xmlns:inkscape="http://www.inkscape.org/namespaces/inkscape"
   xmlns:sodipodi="http://sodipodi.sourceforge.net/DTD/sodipodi-0.dtd"
   xmlns="http://www.w3.org/2000/svg"
   xmlns:svg="http://www.w3.org/2000/svg"><sodipodi:namedview
     id="namedview7"
     pagecolor="#ffffff"
     bordercolor="#000000"
     borderopacity="0.25"
     inkscape:showpageshadow="2"
     inkscape:pageopacity="0.0"
     inkscape:pagecheckerboard="0"
     inkscape:deskcolor="#d1d1d1"
     inkscape:document-units="mm"
     showgrid="false"
     inkscape:zoom="0.96882954"
     inkscape:cx="363.32501"
     inkscape:cy="485.12146"
     inkscape:window-width="1920"
     inkscape:window-height="935"
     inkscape:window-x="0"
     inkscape:window-y="32"
     inkscape:window-maximized="1"
     inkscape:current-layer="layer4" /><defs
     id="defs2"><marker
       style="overflow:visible"
       id="marker1463"
       refX="0"
       refY="0"
       orient="auto-start-reverse"
       inkscape:stockid="TriangleStart"
       markerWidth="5.3244081"
       markerHeight="6.155385"
       viewBox="0 0 5.3244081 6.1553851"
       inkscape:isstock="true"
       inkscape:collect="always"
       preserveAspectRatio="xMidYMid"><path
         transform="scale(0.5)"
         style="fill:context-stroke;fill-rule:evenodd;stroke:context-stroke;stroke-width:1pt"
         d="M 5.77,0 -2.88,5 V -5 Z"
         id="path1461" /></marker><marker
       style="overflow:visible"
       id="marker1320"
       refX="0"
       refY="0"
       orient="auto-start-reverse"
       inkscape:stockid="TriangleStart"
       markerWidth="5.3244081"
       markerHeight="6.155385"
       viewBox="0 0 5.3244081 6.1553851"
       inkscape:isstock="true"
       inkscape:collect="always"
       preserveAspectRatio="xMidYMid"><path
         transform="scale(0.5)"
         style="fill:context-stroke;fill-rule:evenodd;stroke:context-stroke;stroke-width:1pt"
         d="M 5.77,0 -2.88,5 V -5 Z"
         id="path1318" /></marker><marker
       style="overflow:visible"
       id="TriangleStart"
       refX="0"
       refY="0"
       orient="auto-start-reverse"
       inkscape:stockid="TriangleStart"
       markerWidth="5.3244081"
       markerHeight="6.155385"
       viewBox="0 0 5.3244081 6.1553851"
       inkscape:isstock="true"
       inkscape:collect="always"
       preserveAspectRatio="xMidYMid"><path
         transform="scale(0.5)"
         style="fill:context-stroke;fill-rule:evenodd;stroke:context-stroke;stroke-width:1pt"
         d="M 5.77,0 -2.88,5 V -5 Z"
         id="path135" /></marker></defs><g
     inkscape:groupmode="layer"
     id="layer4"
     inkscape:label="Camada 4"
     transform="translate(15.950807,5.9896353)"
     style="fill:#ffffff"><rect
       style="fill:#ffffff;stroke:#ffffff;stroke-width:0.819014;stroke-dasharray:none"
       id="rect3775"
       width="172.16859"
       height="189.4613"
       x="9.378397"
       y="21.830667" /></g><g
     inkscape:label="Camada 1"
     inkscape:groupmode="layer"
     id="layer1"
     transform="translate(-20.396349,4.8454989)"
     sodipodi:insensitive="true"><g
       id="strokes"
       inkscape:label="strokes"
       transform="matrix(0.20540436,0,0,0.20540436,-84.208139,40.600602)"><path
         fill="none"
         stroke-width="3"
         stroke-linecap="butt"
         stroke-opacity="1"
         stroke="#000000"
         stroke-linejoin="round"
         d="m 819.935,238.712 9.052,-3.615 9.682,-2.503 8.952,-2.314 9.937,-1.122 8.125,-0.917 9.987,0.498 6.846,0.342 9.705,2.412 5.271,1.311 8.875,4.607 3.662,1.901 7.256,6.882 2.332,2.213 4.8,8.772 1.424,2.602 1.897,9.818 0.663,3.432 -0.862,9.962 -0.404,4.67 -3.133,9.497 -1.965,5.953 -4.892,8.722 -3.885,6.927 -6.238,7.816 -5.9,7.391 -7.284,6.851 -7.284,6.852 -0.456,0.428 -8.114,5.844 -8.115,5.843 -1.071,0.771 -8.784,4.78 -8.784,4.779 -1.292,0.703 -9.32,3.626 -9.319,3.626 -0.992,0.386 -9.723,2.337 -9.858,2.37 -9.964,0.854 -8.76,0.75 -9.96,-0.893 -7.149,-0.641 -9.556,-2.947 -5.267,-1.624 -8.514,-5.246 -3.466,-2.136 -6.621,-7.493 -2.09,-2.365 -3.974,-9.176 -1.185,-2.738 -1.085,-9.941 -0.387,-3.542 1.507,-9.886 0.706,-4.638 3.582,-9.336 2.179,-5.679 5.179,-8.554 3.875,-6.4 6.408,-7.677 5.577,-6.682 7.372,-6.757 7.095,-6.501 0.57,-0.406"
         id="path61" /><path
         fill="none"
         stroke-width="3"
         stroke-linecap="butt"
         stroke-opacity="1"
         stroke="#000000"
         stroke-linejoin="round"
         d="m 740.722,306.488 -4.769,8.79 -4.769,8.789 -4.769,8.79 -4.769,8.789 -2.307,4.252 -3.597,9.33 -3.598,9.331 -1.568,4.069 -3.573,9.34 -3.572,9.34 -3.572,9.34 -2.415,6.313 -1.588,9.873 -1.588,9.873 -1.199,7.451 -0.214,9.998 -0.215,9.997 -0.214,9.998 -0.058,2.705 0.879,9.961 0.879,9.962 0.748,8.472 2.572,9.664 2.573,9.663 2.572,9.664 2.508,9.419 3.603,9.328 3.604,9.328 3.364,8.708 4.731,8.81 4.732,8.81 4.732,8.809 4.731,8.81 4.732,8.81 4.706,8.762 5.705,8.213 5.704,8.213 5.705,8.213 5.705,8.214 5.705,8.213 5.704,8.213 5.705,8.213 5.705,8.213 3.084,4.44 6.118,7.91 6.119,7.91 6.118,7.91 0.419,0.541 6.634,7.482 6.635,7.482 6.635,7.481 6.635,7.482 6.635,7.482 2.525,2.848 7.999,6.002 7.998,6.001 7.999,6.002 0.926,0.695 8.311,5.562 8.31,5.561 8.311,5.562 2.248,1.504 9.211,3.892 9.212,3.892 9.211,3.893 1.086,0.458 9.685,2.491 9.684,2.491 4.547,1.169 9.833,1.823 9.832,1.823 9.879,1.831 9.999,-0.081 10,-0.081 10,-0.081 2.116,-0.017 9.837,-1.795 9.838,-1.795 9.837,-1.795 3.829,-0.698 9.428,-3.333 9.428,-3.334 9.428,-3.333 4.842,-1.711 5.064,-1.834 0.543,-0.292 4.299,-2.305 8.813,-4.725 8.813,-4.725 2.561,-1.373 5.892,-4.416 4.01,-3.006 8.002,-5.998 4.696,-3.52 7.149,-5.949 6.976,-7.164 6.977,-7.164 6.977,-7.164 3.168,-3.253 5.699,-8.216 5.7,-8.217 5.699,-8.217 1.701,-2.451 4.118,-9.113 4.118,-9.113 4.118,-9.112 0.418,-0.925 2.618,-9.651 2.619,-9.651 0.819,-3.02 2.183,-9.758 2.183,-9.759 2.184,-9.759 0.492,-2.198 -0.115,-9.999 -0.114,-9.999 -0.115,-10.031 -0.721,-9.974 -0.721,-9.974 -0.721,-9.974 -0.275,-3.798 -2.665,-9.638 -2.665,-9.639 -2.743,-9.925 -3.223,-9.466 -3.222,-9.467 -3.222,-9.467 -3.222,-9.466 -3.223,-9.467 -1.393,-4.091 -4.316,-9.021 -4.316,-9.02 -4.317,-9.021 -4.316,-9.02 -4.317,-9.021 -4.316,-9.02 -4.317,-9.021 -4.316,-9.02 -2.362,-4.936 -5.234,-8.521 -5.234,-8.521 -5.385,-8.768 -5.316,-8.47 -5.317,-8.47 -5.316,-8.469 -5.317,-8.47 -5.316,-8.47 -5.016,-7.989 -7.124,-7.017 -7.125,-7.017 -7.125,-7.017 -7.124,-7.017 -0.433,-0.427 -7.45,-6.671 -7.449,-6.671 -5.887,-5.272 -8.791,-4.767 -8.791,-4.766 -8.79,-4.767 -3.521,-1.909 -8.933,-4.493 -8.934,-4.494 -5.926,-2.981 -9.715,-2.372 -9.714,-2.372 -8.495,-2.074 -9.89,-1.476 -9.891,-1.477 -9.89,-1.476 -3.814,-0.569 -9.988,-0.495 -9.988,-0.496 -5.428,-0.269 -9.998,-0.208 -9.998,-0.207 -9.998,-0.208 -10.105,-0.21"
         id="path63" /><path
         fill="none"
         stroke-width="3"
         stroke-linecap="butt"
         stroke-opacity="1"
         stroke="#000000"
         stroke-linejoin="round"
         d="m 1085.7,784.981 5.097,8.604 0.435,0.735 1.994,2.293 2.57,1.796 3.048,1.227 3.409,0.611 3.639,-0.032 3.726,-0.674 3.669,-1.292 3.469,-1.858 3.133,-2.353 2.675,-2.755 2.113,-3.051 1.47,-3.225 0.77,-3.275 0.044,-3.198 -0.683,-2.998 -1.381,-2.682 -4.809,-8.423"
         id="path65" /><path
         fill="none"
         stroke-width="3"
         stroke-linecap="butt"
         stroke-opacity="1"
         stroke="#000000"
         stroke-linejoin="round"
         d="m 850.289,291.878 1.333,2.657 0.489,3.059 -0.376,3.347 -1.231,3.504 -2.039,3.525 -2.771,3.41 -3.395,3.161 -3.888,2.787 -4.227,2.304 -4.403,1.73 -4.404,1.091 -4.234,0.409 -3.9,-0.288 -3.414,-0.971 -2.798,-1.614 -2.076,-2.192"
         id="path67" /><path
         fill="none"
         stroke-width="3"
         stroke-linecap="butt"
         stroke-opacity="1"
         stroke="#000000"
         stroke-linejoin="round"
         d="m 850.289,291.878 -4.958,-8.684 -4.958,-8.684 -4.958,-8.684 -4.959,-8.685 -4.958,-8.684 -4.958,-8.684 -0.605,-1.061 -4.959,-8.684 -4.958,-8.684 -4.958,-8.685 -4.958,-8.684 -4.958,-8.684 -4.959,-8.684 -1.244,-2.181 -2.127,-2.096 -2.864,-1.496 -3.49,-0.841 -3.981,-0.155 -4.32,0.535 -4.496,1.201 -4.5,1.823 -4.336,2.374 -4.009,2.837 -3.53,3.192 -2.917,3.427 -2.194,3.535 -1.384,3.507 -0.52,3.346 0.367,3.058 1.244,2.651 5.097,8.603 5.096,8.604 5.097,8.604 5.096,8.604 5.097,8.603 5.097,8.604 0.334,0.565 5.097,8.604 5.096,8.603 5.097,8.604 5.097,8.604 5.096,8.604 5.097,8.603 1.577,2.664"
         id="path69" /><path
         fill="none"
         stroke-width="3"
         stroke-linecap="butt"
         stroke-opacity="1"
         stroke="#000000"
         stroke-linejoin="round"
         d="m 745.884,211.324 2.076,2.139 2.832,1.545 3.48,0.886 3.996,0.193 4.357,-0.511 4.548,-1.197 4.562,-1.837 4.396,-2.405 4.059,-2.88 3.563,-3.24 2.927,-3.475 2.179,-3.571 1.348,-3.53 0.467,-3.352 -0.429,-3.043 -1.304,-2.62"
         id="path71" /></g></g><g
     inkscape:groupmode="layer"
     id="layer3"
     inkscape:label="Camada 3"
     transform="translate(-20.396349,4.8454989)"><path
       style="fill:#000000;stroke-width:0.205404"
       d="m 113.70202,148.70387 94.05548,42.83764"
       id="path410" /><path
       style="fill:#000000;stroke:#000000;stroke-width:0.388166;stroke-dasharray:none;marker-end:url(#TriangleStart)"
       d="M 114.10441,148.57136 60.944355,60.078681"
       id="path414" /><path
       style="fill:#000000;stroke:#000000;stroke-width:0.388166;stroke-dasharray:none;marker-end:url(#marker1320)"
       d="m 113.86142,148.43545 91.79708,42.23624"
       id="path416" /><circle
       id="path418"
       style="fill:#000000;stroke:none;stroke-width:0.205404"
       cx="113.99223"
       cy="148.621"
       r="0.30810654" /><path
       style="fill:#000000;stroke:#000000;stroke-width:0.388166;stroke-dasharray:none;marker-end:url(#marker1320)"
       d="M 113.65122,148.58128 196.81153,87.522607"
       id="path420" /><path
       style="fill:#000000;stroke:#ff0000;stroke-width:0.776331;stroke-dasharray:none;marker-end:url(#marker1463)"
       d="M 113.84046,148.49907 68.220851,71.695405"
       id="path1396" /><path
       style="fill:none;stroke:#ff0000;stroke-width:0.776331;stroke-dasharray:none;marker-start:url(#marker1463)"
       id="path1682"
       sodipodi:type="arc"
       sodipodi:cx="39.629982"
       sodipodi:cy="145.82549"
       sodipodi:rx="18.377989"
       sodipodi:ry="10.588896"
       sodipodi:start="4.9245212"
       sodipodi:end="4.5079253"
       sodipodi:open="true"
       sodipodi:arc-type="arc"
       d="m 43.499372,135.47395 a 18.377989,10.588896 0 0 1 14.401556,11.49274 18.377989,10.588896 0 0 1 -18.341412,9.44761 18.377989,10.588896 0 0 1 -18.215131,-9.52837 18.377989,10.588896 0 0 1 14.554093,-11.42877"
       transform="rotate(-23.720715)" /><path
       style="fill:none;stroke:#00ff00;stroke-width:0.776331;stroke-dasharray:none;marker-end:url(#marker1463)"
       d="m 113.36635,148.33823 55.16338,-40.1833"
       id="path2594" /><path
       style="fill:none;stroke:#00ff00;stroke-width:0.776331;stroke-dasharray:none;marker-end:url(#marker1463)"
       d="M 66.176851,69.021724 121.34023,28.838421"
       id="path2703" /><path
       style="fill:none;stroke:#0000ff;stroke-width:0.776331;stroke-dasharray:none;marker-end:url(#marker1463)"
       d="M 113.45612,148.10104 123.23398,30.674909"
       id="path2707"
       sodipodi:nodetypes="cc" /><g
       id="g3184"
       transform="matrix(0.77633144,0,0,0.77633144,35.855072,29.219012)"><path
         style="fill:#ff0000;stroke:#ff0000;stroke-width:1;stroke-dasharray:none"
         id="path3046"
         d="m 58.960535,141.59729 c -0.570892,0.61843 -1.069134,1.29738 -1.471812,2.0359 -0.242073,0.47725 -0.390974,0.99195 -0.501828,1.51326 -0.09688,0.50105 -0.08732,1.00997 -0.05653,1.51652 0.02585,0.43709 0.06989,0.87356 0.198829,1.29302 0.151316,0.40843 0.390646,0.76925 0.660723,1.10731 0.411389,0.49618 0.96903,0.75799 1.52222,1.07875 0.369361,0.20078 0.769026,0.32737 1.170209,0.44634 0.421838,0.10793 0.856044,0.15209 1.290261,0.12947 0.480711,-0.046 0.940323,-0.18592 1.380023,-0.38035 0.345488,-0.15464 0.61327,-0.42345 0.879208,-0.68467 0.247734,-0.25531 0.454932,-0.53807 0.6253,-0.84937 0.129268,-0.23394 0.207992,-0.48643 0.244467,-0.75004 0.01767,-0.15999 0.01902,-0.3211 0.02064,-0.48186 -0.0024,-0.30072 0.01093,-0.27221 -0.690857,-0.32429 -0.0048,-2.7e-4 0.08371,0.13267 0.268415,0.41213 0.269436,0.40737 0.566364,0.79563 0.870558,1.17741 0.372446,0.52992 0.771025,0.7162 1.359424,1.05983 0.313368,0.14292 0.649661,0.22337 0.985862,0.29154 0.331025,0.0631 0.657743,0.0451 0.981382,-0.0403 0.316417,-0.0812 0.616079,-0.21145 0.908132,-0.35551 0.282744,-0.14343 0.522345,-0.34806 0.754335,-0.56078 0.295338,-0.25715 0.554146,-0.5504 0.803513,-0.85116 0.250563,-0.28194 0.459546,-0.59034 0.622821,-0.92976 0.172177,-0.36952 0.240488,-0.77336 0.291936,-1.17438 0.07748,-0.52898 0.03231,-1.04663 -0.07689,-1.56604 -0.100478,-0.47669 -0.259916,-0.93578 -0.444908,-1.38532 -0.159392,-0.38871 -0.359828,-0.75812 -0.593775,-1.10656 -0.259839,-0.34315 -0.623202,-0.5777 -0.984811,-0.79998 -0.467254,-0.29811 -0.932489,-0.58717 -1.438396,-0.81366 0,0 -0.01844,-0.008 -0.01844,-0.008 v 0 c -0.10441,-0.0327 -0.204774,-0.0837 -0.313232,-0.0981 -0.03912,-0.005 0.06304,0.0476 0.096,0.0693 0.209206,0.13777 0.426408,0.26552 0.640059,0.39617 0.08201,0.0502 0.164317,0.0998 0.246475,0.14975 0.363016,0.21745 0.731004,0.44126 1.005705,0.77003 0.238705,0.34076 0.440354,0.70468 0.599072,1.08978 0.185188,0.44489 0.34561,0.89873 0.449485,1.37037 0.107828,0.50849 0.147741,1.01386 0.07163,1.53162 -0.04854,0.392 -0.11484,0.78694 -0.279712,1.14924 -0.160933,0.3326 -0.364173,0.63661 -0.611264,0.91234 -0.246523,0.2979 -0.502476,0.58752 -0.79479,0.84206 -0.229315,0.20499 -0.463968,0.40459 -0.742836,0.54023 -0.285134,0.1434 -0.580311,0.26554 -0.890262,0.34494 -0.315535,0.0729 -0.634225,0.0828 -0.952847,0.0141 -0.330454,-0.0706 -0.662509,-0.15161 -0.964404,-0.3081 1.198476,0.70685 0.266827,0.16385 0.05862,-0.20585 -0.305242,-0.38013 -0.605396,-0.76529 -0.875704,-1.17136 -0.142293,-0.21575 -1.021901,-1.42016 -1.092968,-0.80468 0.0042,0.15812 0.0042,0.31659 -0.01008,0.47428 -0.03093,0.25515 -0.09966,0.49927 -0.225637,0.72545 -0.16296,0.30551 -0.369567,0.58104 -0.613098,0.8279 -0.257728,0.25604 -0.520195,0.51434 -0.858966,0.66126 -0.434155,0.18658 -0.888395,0.3205 -1.362087,0.35503 -0.429824,0.01 -0.858326,-0.0346 -1.273513,-0.15102 -0.40043,-0.12182 -0.797762,-0.25684 -1.163106,-0.46498 1.231149,0.71804 0.101246,0.0811 -0.105338,-0.22612 -0.271339,-0.32836 -0.512392,-0.67838 -0.669244,-1.07749 -0.142274,-0.41106 -0.183143,-0.84437 -0.213754,-1.27667 -0.03119,-0.49968 -0.04481,-1.0018 0.04737,-1.4968 0.09854,-0.51638 0.249302,-1.024 0.475811,-1.49959 0.39459,-0.73234 0.878658,-1.41082 1.44757,-2.01924 0,0 -0.684947,-0.42357 -0.684947,-0.42357 z" /><path
         style="fill:#ff0000;stroke:#ff0000;stroke-width:1;stroke-dasharray:none"
         id="path3048"
         d="m 75.031115,146.11983 c -0.216366,0.66259 -0.371216,1.33613 -0.424365,2.03085 -0.05065,0.55182 0.0277,1.06738 0.238175,1.57632 0.219583,0.48745 0.548706,0.90891 0.902766,1.30462 0.365805,0.37638 0.781106,0.70096 1.224029,0.98103 0.539959,0.36062 1.057021,0.63925 1.687925,0.74085 0.316542,0.0362 0.617371,-0.0924 0.887013,-0.24549 0.244041,-0.14766 0.473025,-0.31665 0.692512,-0.49834 0.261345,-0.2406 0.443381,-0.54816 0.586299,-0.86989 0.158927,-0.39694 0.255471,-0.81313 0.321452,-1.23436 0.06311,-0.40769 0.05941,-0.81762 -5.29e-4,-1.22471 -0.08066,-0.45559 -0.315193,-0.85733 -0.523854,-1.2633 -0.199755,-0.40094 -0.446058,-0.77438 -0.722079,-1.12624 -0.252532,-0.31834 -0.556848,-0.5836 -0.885505,-0.81962 -0.493247,-0.32281 -0.996879,-0.64487 -1.56637,-0.8089 -0.338569,-0.0976 -0.670251,-0.0239 -0.998451,0.0737 -0.28753,0.0826 -0.534966,0.201 -0.705844,0.45088 -0.159415,0.34051 -0.213734,0.72093 -0.232061,1.09352 -0.01968,0.26346 0.142843,0.40603 0.303141,0.59713 0,0 0.01775,0.009 0.01775,0.009 v 0 c 0.209241,-0.0168 0.348324,5.3e-4 0.399206,-0.22838 0.07012,-0.35057 0.07623,-0.71852 0.234768,-1.04661 0.157922,-0.22887 0.400367,-0.33356 0.661368,-0.41295 0.313121,-0.0979 0.621205,-0.16179 0.943123,-0.0552 0.15163,0.0486 0.669536,0.32056 0.443492,0.17334 -1.016926,-0.66229 -0.464074,-0.25877 -0.230312,-0.1336 0.331894,0.22858 0.63934,0.48635 0.895681,0.79966 0.279532,0.34509 0.529183,0.71347 0.72766,1.11166 0.204647,0.39963 0.438957,0.79324 0.529444,1.23826 0.06656,0.39898 0.07172,0.8027 0.0127,1.20364 -0.06225,0.41531 -0.156302,0.82464 -0.311057,1.2163 -0.137187,0.31142 -0.312095,0.60864 -0.566812,0.83934 -0.214728,0.17964 -0.443552,0.34191 -0.683291,0.48664 -0.264737,0.14254 -0.550455,0.25466 -0.856446,0.20206 -0.308748,-0.0572 -1.463281,-0.54343 -0.332605,0.0136 -0.446331,-0.27192 -0.861663,-0.59209 -1.232779,-0.96108 -0.355983,-0.38782 -0.688641,-0.80104 -0.913378,-1.28105 -0.220258,-0.49569 -0.30098,-1.00033 -0.256662,-1.54396 0.0473,-0.68925 0.193794,-1.3586 0.417285,-2.01323 0,0 -0.68335,-0.37574 -0.68335,-0.37574 z" /><path
         style="fill:#ff0000;stroke:#ff0000;stroke-width:1;stroke-dasharray:none"
         id="path3176"
         d="m 59.566551,137.7559 c 0.7843,-0.19521 1.580923,-0.32978 2.382147,-0.43155 0.700623,-0.082 1.405979,-0.094 2.110445,-0.10115 0.75248,-0.005 1.504887,0.002 2.257317,-0.009 0.483809,-0.002 0.967279,-0.0168 1.450829,-0.031 0.431366,-0.0143 0.863015,-0.0157 1.294574,-0.0168 0.400151,0.002 0.800315,0.002 1.200476,0.004 0.03385,0.0436 0.442767,-0.0356 0.44274,-0.0357 -0.0264,-0.0464 -0.07471,-0.0763 -0.112064,-0.11437 -0.04245,-0.0356 -0.0849,-0.0712 -0.127346,-0.10686 0,0 -0.01683,-0.0108 -0.01683,-0.0108 v 0 c -0.05037,-0.0306 -0.100748,-0.0612 -0.151122,-0.0919 -0.235241,-0.1271 -0.420526,-0.13208 -0.685898,-0.11307 -0.395772,0.001 -0.79158,0.001 -1.18732,0.006 -0.431615,0.003 -0.863317,0.005 -1.294744,0.0194 -0.481073,0.0179 -0.962253,0.0277 -1.443614,0.0343 -0.751719,0.0104 -1.503453,0.008 -2.255229,0.01 -0.705515,0.008 -1.412046,0.0222 -2.113048,0.11056 -0.803801,0.10637 -1.602253,0.24668 -2.391287,0.43465 0,0 0.639959,0.44291 0.639959,0.44291 z" /><path
         style="fill:#ff0000;stroke:#ff0000;stroke-width:1;stroke-dasharray:none"
         id="path3178"
         d="m 69.402747,133.80754 c 0.917202,0.54509 1.849446,1.06419 2.773217,1.59783 -0.969475,-0.58491 -0.02646,0.003 0.190969,0.1715 0.05826,0.0473 0.111162,0.0672 0.09533,0.14567 -0.138017,0.44377 -0.347043,0.86209 -0.54203,1.28281 -0.168283,0.38615 -0.346578,0.76825 -0.500484,1.16048 -0.158715,0.28762 0.0095,0.34307 0.235813,0.53413 0,0 0.01646,0.0113 0.01646,0.0113 v 0 c 0.273463,0.11336 0.46587,0.25007 0.559427,-0.0935 0.148968,-0.39332 0.311055,-0.78164 0.47725,-1.16795 0.18623,-0.43162 0.400225,-0.85357 0.544423,-1.30184 0.03127,-0.12846 0.01212,-0.18799 -0.102558,-0.2596 -0.500346,-0.36405 -1.039577,-0.6687 -1.57842,-0.97172 -0.02874,-0.0164 -0.567819,-0.32515 -0.575005,-0.32318 -0.109998,0.0301 0.394337,0.22909 0.293917,0.17506 -0.400513,-0.2155 -0.780666,-0.46836 -1.178782,-0.68818 0,0 -0.709533,-0.27283 -0.709533,-0.27283 z" /></g><path
       style="fill:#ff0000;stroke:#ff0000;stroke-width:0.776331;stroke-dasharray:none"
       id="path3186"
       d="m 77.913952,66.347629 c 0.04054,0.712837 0.107015,1.42367 0.184822,2.133276 0.07601,0.807948 0.154313,1.615393 0.242884,2.422077 0.07982,0.717744 0.158523,1.435614 0.23875,2.153314 0.06575,0.563134 0.152492,1.123549 0.246134,1.682641 0.06288,0.279695 0.04305,0.581439 0.141548,0.852494 0.136091,0.159811 0.04269,0.06617 0.311206,0.246112 0,0 0.01403,0.0067 0.01403,0.0067 v 0 c 0.226422,0.06257 0.142572,0.08771 0.260554,0.03278 0.01565,-0.278903 -0.09626,-0.559914 -0.111264,-0.837315 -0.100216,-0.561658 -0.202676,-1.12317 -0.269811,-1.690061 -0.08581,-0.719741 -0.165718,-1.440184 -0.252267,-2.159843 -0.09459,-0.810676 -0.179205,-1.622306 -0.26604,-2.433802 -0.0884,-0.711818 -0.16618,-1.4253 -0.210112,-2.141424 0,0 -0.53043,-0.266905 -0.53043,-0.266905 z" /><path
       style="fill:#ff0000;stroke:#ff0000;stroke-width:0.776331;stroke-dasharray:none"
       id="path3188"
       d="m 83.663695,66.372099 c -0.01785,0.778402 0.02976,1.556067 0.06534,2.33327 0.03975,0.807568 0.07819,1.615123 0.134031,2.421766 0.06937,0.73085 0.117702,1.462638 0.144413,2.196227 0.01754,0.561411 0.01834,1.123163 0.0176,1.684792 0.03531,0.3662 -0.09399,0.786216 0.0902,1.11838 0.06575,0.05794 0.131492,0.115887 0.197238,0.17383 0,0 0.01374,0.0072 0.01374,0.0072 v 0 c 0.07225,0.01232 0.144504,0.02464 0.216758,0.03696 0.02598,-0.02022 0.06397,-0.03081 0.07792,-0.06061 0.09502,-0.203019 -0.0422,-0.736267 0.01397,-0.965279 -0.0034,-0.565211 -0.0093,-1.130507 -0.03267,-1.695313 -0.03295,-0.738468 -0.09217,-1.474456 -0.166948,-2.209871 -0.0612,-0.809786 -0.10149,-1.620775 -0.15559,-2.431043 -0.04294,-0.780837 -0.099,-1.561735 -0.0958,-2.344206 0,0 -0.520192,-0.266154 -0.520192,-0.266154 z" /><path
       style="fill:#ff0000;stroke:#ff0000;stroke-width:0.776331;stroke-dasharray:none"
       id="path3190"
       d="m 79.406478,71.050415 c 0.752321,-0.159999 1.496468,-0.354916 2.247161,-0.521788 0.628289,-0.130576 1.268337,-0.182611 1.908354,-0.20817 0.02672,-0.01052 0.541752,0.0084 0.545661,-0.02508 0.0078,-0.06634 -0.08529,-0.102821 -0.127934,-0.154232 0,0 -0.01237,-0.0094 -0.01237,-0.0094 v 0 c -0.478906,-0.264459 -0.430077,-0.216955 -0.936132,-0.193281 -0.637284,0.03226 -1.274111,0.09369 -1.89873,0.229066 -0.745502,0.174218 -1.483832,0.378608 -2.234373,0.531582 0,0 0.508367,0.351285 0.508367,0.351285 z" /><path
       style="fill:#ff0000;stroke:#ff0000;stroke-width:0.776331;stroke-dasharray:none"
       id="path3192"
       d="m 86.989241,73.132463 c -0.31539,0.501356 -0.53187,1.038052 -0.60014,1.626136 -0.04048,0.447762 0.108511,0.845682 0.338315,1.219964 0.349406,0.58511 0.852079,0.819986 1.441253,1.141444 0.329887,0.130972 0.638095,0.08514 0.95066,-0.06118 0.421451,-0.230128 0.659299,-0.616292 0.862142,-1.03575 0.181614,-0.410065 0.31727,-0.837193 0.350759,-1.285332 0.01438,-0.364406 -0.125204,-0.651284 -0.355409,-0.921614 -0.339922,-0.376651 -0.796377,-0.626987 -1.269901,-0.799032 -0.314683,-0.109156 -0.643562,-0.114309 -0.972055,-0.09476 -0.235956,0.03492 -0.157602,0.239345 -0.134066,0.418431 0,0 0.01327,0.0081 0.01327,0.0081 v 0 c 0.230478,-0.02637 0.453426,-0.03253 0.685186,-0.02009 0.321863,-0.0082 0.643031,-6.16e-4 0.949307,0.111958 0.222685,0.08381 0.702762,0.332543 -0.214959,-0.168793 -0.243672,-0.133112 0.570726,0.342803 0.348026,0.293484 0.234554,0.254013 0.388066,0.519667 0.380783,0.877276 -0.02497,0.441558 -0.156138,0.862747 -0.333838,1.266552 -0.1968,0.406857 -0.427684,0.780396 -0.841283,0.996597 -0.304275,0.132948 -0.599889,0.1575 -0.911781,0.02251 0.12299,0.07716 0.247543,0.151876 0.36897,0.23147 0.05456,0.03576 -0.114561,-0.06289 -0.16827,-0.09991 -0.236886,-0.163286 -0.411131,-0.397478 -0.575777,-0.628996 -0.234284,-0.359118 -0.392936,-0.748299 -0.364599,-1.186183 0.05953,-0.580374 0.270894,-1.109461 0.585692,-1.60119 0,0 -0.532284,-0.311067 -0.532284,-0.311067 z" /><path
       style="fill:#ff0000;stroke:#ff0000;stroke-width:0.776331;stroke-dasharray:none"
       id="path3194"
       d="m 82.563022,64.482592 c 0.92897,-0.137243 1.867176,-0.193957 2.804484,-0.2362 0.76888,-0.02988 1.538485,-0.02948 2.307814,-0.0298 0.624103,-8.54e-4 1.248175,0.0058 1.872265,0.0086 0.10657,-0.04878 0.2956,0.05787 0.3999,0.0026 0.01522,-0.0081 -4.11e-4,-0.03445 -6.17e-4,-0.05167 0,0 -0.415165,-0.301709 -0.415165,-0.301709 v 0 c -0.178083,-0.06512 -0.345722,-0.0593 -0.535801,-0.05023 -0.61759,0.0012 -1.235167,0.0057 -1.85276,0.0058 -0.764157,0.0029 -1.528434,0.01006 -2.291936,0.04486 -0.937107,0.04616 -1.873814,0.110859 -2.80309,0.244953 0,0 0.514969,0.362701 0.514969,0.362701 z" /><path
       style="fill:#ff0000;stroke:#ff0000;stroke-width:0.776331;stroke-dasharray:none"
       id="path3200"
       d="m 89.418002,61.478157 c 0.55209,0.654158 1.112254,1.301237 1.680045,1.9418 0.171759,0.206033 0.363352,0.396117 0.531989,0.604818 0.08101,0.0874 -0.126965,0.280554 -0.171054,0.344171 -0.339016,0.468191 -0.628443,0.967716 -0.901479,1.476307 -0.04014,0.180195 -0.43646,0.632025 -0.389966,0.814767 0.01199,0.04719 0.05154,0.08262 0.07731,0.123927 0.05027,0.04624 0.100553,0.09247 0.15083,0.138705 0,0 0.01348,0.0077 0.01348,0.0077 v 0 c 0.06461,0.01962 0.129228,0.03923 0.193842,0.05884 0.04755,6.17e-4 0.09741,0.01666 0.142657,0.002 0.16904,-0.0547 0.336625,-0.651085 0.4502,-0.780556 0.265561,-0.509265 0.554427,-1.00584 0.882739,-1.477627 0.05808,-0.08589 0.289115,-0.323272 0.188317,-0.441435 -0.202535,-0.198168 -0.383714,-0.417815 -0.578577,-0.623209 -0.572466,-0.637174 -1.136092,-1.282115 -1.682611,-1.941777 0,0 -0.587715,-0.248462 -0.587715,-0.248462 z" /><path
       style="fill:#00ff00;stroke:#00ff00;stroke-width:0.776331;stroke-dasharray:none"
       id="path3328"
       d="m 74.155049,49.863135 c 0.761683,-0.08743 1.52059,-0.196815 2.281814,-0.287738 0.678619,-0.07155 1.359639,-0.115418 2.04089,-0.152027 0.557258,-0.02764 1.11301,-0.07832 1.67043,-0.102419 0.47302,-0.01422 0.944217,0.03437 1.414975,0.07249 0.166394,0.01273 0.332834,0.0249 0.499381,0.03546 0.124745,-0.03334 -0.05928,-0.213105 -0.08608,-0.243772 -0.410025,-0.454268 -0.818208,-0.909079 -1.207751,-1.38116 -0.532271,-0.670467 -1.028419,-1.368428 -1.531263,-2.06092 -0.499055,-0.656811 -0.959735,-1.340992 -1.416081,-2.027732 -0.389808,-0.572484 -0.770006,-1.151196 -1.14657,-1.732443 -0.158559,-0.247346 -0.318475,-0.49391 -0.472027,-0.74442 -0.702481,-1.029269 -0.921829,0.452813 -1.020469,0.774908 -0.229724,0.744256 -0.512457,1.470425 -0.826556,2.182716 -0.27891,0.650458 -0.577253,1.291637 -0.924128,1.908722 -0.21897,0.375255 -0.445174,0.746218 -0.668149,1.119098 -0.07318,0.119576 -0.137328,0.244489 -0.209299,0.364733 -0.127792,0.19448 -0.180773,0.141918 -0.0276,0.383301 0.04827,0.06774 0.09653,0.135486 0.144801,0.20323 0,0 0.0138,0.0071 0.0138,0.0071 v 0 c 0.05281,-0.0122 0.105616,-0.02441 0.158424,-0.03662 0.187269,0.0096 0.250191,-0.03394 0.342166,-0.191466 0.0709,-0.120973 0.129774,-0.248918 0.20337,-0.36844 0.217518,-0.37677 0.433537,-0.7544 0.64773,-1.133071 0.338585,-0.624494 0.636837,-1.268483 0.908734,-1.924802 0.31029,-0.717281 0.590058,-1.447127 0.822802,-2.193581 0.08685,-0.282709 0.164905,-0.570809 0.271015,-0.847219 0.01926,-0.05018 0.09997,-0.108735 0.0635,-0.148225 -0.306411,-0.331821 -0.781718,-0.428843 -0.518138,-0.372613 0.162524,0.249982 0.323063,0.501253 0.485539,0.751269 0.378256,0.581174 0.756989,1.161886 1.148695,1.734144 0.456687,0.686938 0.915399,1.37308 1.414713,2.030171 0.504212,0.691858 0.999368,1.390811 1.52855,2.064033 0.38669,0.471134 0.78975,0.926766 1.198407,1.378876 0.03371,0.03958 0.05597,0.09298 0.101132,0.118717 0.03431,0.01956 0.129832,-0.018 0.05265,-0.018 -0.166299,-0.01011 -0.332385,-0.02348 -0.498481,-0.03641 -0.472675,-0.03853 -0.946092,-0.08446 -1.420991,-0.06621 -0.556979,0.02663 -1.112549,0.07579 -1.669477,0.103825 -0.681417,0.03717 -1.362444,0.08356 -2.041006,0.157449 -0.762158,0.093 -1.522082,0.204088 -2.285808,0.284229 0,0 0.556359,0.394772 0.556359,0.394772 z" /><path
       style="fill:#00ff00;stroke:#00ff00;stroke-width:0.776331;stroke-dasharray:none"
       id="path3330"
       d="m 84.68831,47.852407 c -0.383361,-0.833489 -0.717119,-1.688734 -1.033585,-2.549488 -0.24827,-0.717598 -0.453068,-1.450004 -0.645337,-2.184388 -0.123719,-0.47551 -0.201789,-0.960671 -0.28095,-1.445032 -0.07973,-0.414693 -0.122435,-0.838747 -0.23784,-1.245621 -0.133942,-0.219939 -0.04134,-0.128366 -0.291662,-0.259969 0,0 -0.01255,-0.0092 -0.01255,-0.0092 v 0 c -0.265442,-0.117335 -0.190696,-0.177176 -0.286654,-0.01844 0.0315,0.419091 0.172498,0.822905 0.227526,1.239282 0.08313,0.48871 0.163524,0.97908 0.293342,1.458049 0.201603,0.73974 0.411914,1.478302 0.667583,2.201398 0.320139,0.864543 0.663283,1.720618 1.044366,2.560301 0,0 0.555754,0.253062 0.555754,0.253062 z" /><path
       style="fill:#00ff00;stroke:#00ff00;stroke-width:0.776331;stroke-dasharray:none"
       id="path3332"
       d="m 88.795407,46.512185 c -0.389151,-0.931056 -0.732374,-1.880711 -1.093178,-2.823012 -0.285989,-0.69821 -0.530727,-1.410742 -0.73762,-2.136003 -0.133423,-0.509348 -0.284444,-1.013861 -0.440356,-1.516706 -0.09257,-0.316051 -0.196899,-0.62832 -0.30093,-0.940707 -0.04833,-0.109457 -0.113463,-0.377712 -0.141977,-0.379096 -0.103641,-0.005 -0.204859,0.03317 -0.307287,0.04976 0,0 0.01388,0.0069 0.01388,0.0069 v 0 c -0.564541,-0.583827 -0.298165,-0.321622 -0.206563,0.02219 0.116066,0.313998 0.217936,0.633121 0.325778,0.949996 0.163686,0.50532 0.322382,1.01254 0.462176,1.525049 0.212176,0.730458 0.460833,1.448759 0.754912,2.150681 0.37718,0.948909 0.731151,1.907363 1.133948,2.845838 0,0 0.537206,0.245072 0.537206,0.245072 z" /><path
       style="fill:#00ff00;stroke:#00ff00;stroke-width:0.776331;stroke-dasharray:none"
       id="path3334"
       d="m 84.435911,43.918513 c 0.77733,-0.19248 1.548861,-0.406455 2.319545,-0.623669 0.317037,-0.145013 1.041729,-0.207621 1.258504,-0.485462 -0.05508,-0.04839 -0.110166,-0.09679 -0.16525,-0.145178 0,0 -0.01251,-0.0092 -0.01251,-0.0092 v 0 c -0.09247,-0.05038 -0.184945,-0.100772 -0.277419,-0.151159 -0.475289,0.02633 -0.900657,0.317585 -1.36631,0.405672 -0.763714,0.22614 -1.531122,0.439854 -2.304401,0.631049 0,0 0.547844,0.377941 0.547844,0.377941 z" /><path
       style="fill:#00ff00;stroke:#00ff00;stroke-width:0.776331;stroke-dasharray:none"
       id="path3336"
       d="m 74.967965,37.740252 c 0.964692,-0.06864 1.924318,-0.188691 2.881106,-0.327309 0.82353,-0.1226 1.64462,-0.261303 2.469622,-0.373808 0.583528,-0.07051 1.165941,-0.149836 1.745504,-0.247876 0.202788,-0.08583 0.529559,-0.01333 0.701458,-0.167952 -0.01845,-0.02033 -0.03691,-0.04066 -0.05536,-0.06099 0,0 -0.295057,-0.21758 -0.295057,-0.21758 v 0 c -0.04861,-0.02247 -0.09723,-0.04493 -0.145845,-0.0674 -0.261923,-0.01986 -0.514129,0.08477 -0.771904,0.11666 -0.575196,0.09921 -1.15253,0.184759 -1.732048,0.254803 -0.820805,0.117538 -1.637817,0.259276 -2.457737,0.382763 -0.95333,0.14209 -1.910634,0.261682 -2.872647,0.326642 0,0 0.532908,0.38205 0.532908,0.38205 z" /><path
       style="fill:#00ff00;stroke:#00ff00;stroke-width:0.776331;stroke-dasharray:none"
       id="path3338"
       d="m 81.345567,33.916295 c 0.638182,0.43047 1.301535,0.82198 1.95341,1.231168 0.05443,0.05538 0.562467,0.30728 0.557784,0.39438 -0.0033,0.0599 -0.03074,0.115967 -0.04611,0.173951 -0.251403,0.631527 -0.547621,1.244388 -0.82808,1.863416 -0.149362,0.361147 -0.157917,0.284278 0.08071,0.637358 0,0 0.01345,0.0078 0.01345,0.0078 v 0 c 0.44264,0.02318 0.350208,0.06569 0.533733,-0.290659 0.283957,-0.622329 0.567374,-1.24556 0.826052,-1.878834 0.01818,-0.07225 0.0475,-0.14259 0.05454,-0.216763 0.02069,-0.218172 -0.480539,-0.325626 -0.586403,-0.455615 -0.654909,-0.408958 -1.320029,-0.802105 -1.962462,-1.230574 0,0 -0.596627,-0.235581 -0.596627,-0.235581 z" /><path
       style="fill:#00ff00;stroke:#00ff00;stroke-width:0.776331;stroke-dasharray:none"
       id="path3340"
       d="m 170.18477,127.04398 c -0.18902,-0.88335 -0.30773,-1.77981 -0.40907,-2.67682 -0.0983,-0.9962 -0.12604,-1.99728 -0.19119,-2.99579 -0.0591,-0.78472 -0.0838,-1.57138 -0.13977,-2.35627 -0.0866,-0.29724 0.055,-0.76548 -0.17205,-1.01918 -0.065,-0.0726 -0.15921,-0.11214 -0.23882,-0.16823 0,0 -0.014,-0.007 -0.014,-0.007 v 0 c -0.0706,-0.0185 -0.14122,-0.0744 -0.2116,-0.0553 -0.10898,0.0294 0.021,0.81966 0.0274,0.94508 0.0666,0.78613 0.0922,1.57479 0.15197,2.36145 0.0661,1.00015 0.1,2.00255 0.19408,3.00071 0.10173,0.90012 0.22779,1.798 0.41207,2.68535 0,0 0.59093,0.28573 0.59093,0.28573 z" /><path
       style="fill:#00ff00;stroke:#00ff00;stroke-width:0.776331;stroke-dasharray:none"
       id="path3342"
       d="m 164.10764,118.6659 c 1.01511,-0.4383 2.0899,-0.71374 3.15935,-0.98257 1.14382,-0.28818 2.30034,-0.5078 3.4729,-0.63298 0.78334,-0.0765 1.57003,-0.11055 2.35584,-0.15105 0.3687,-0.0217 0.73672,-0.0602 1.10123,-0.11983 0.19434,-0.0316 0.002,-0.12672 -0.0945,-0.19926 0,0 -0.10656,-0.0732 -0.10656,-0.0732 v 0 c -0.14549,-0.0872 -0.21148,-0.16632 -0.3698,-0.12789 -0.35908,0.0619 -0.72237,0.0993 -1.08598,0.12108 -0.784,0.0434 -1.56905,0.0783 -2.3503,0.15964 -1.17196,0.13094 -2.32742,0.35401 -3.47037,0.64603 -1.07391,0.27115 -2.15454,0.54584 -3.17328,0.98844 0,0 0.56145,0.37163 0.56145,0.37163 z" /><path
       style="fill:#00ff00;stroke:#00ff00;stroke-width:0.776331;stroke-dasharray:none"
       id="path3344"
       d="m 166.19078,113.14281 c 0.9201,-0.20255 1.85187,-0.3417 2.78367,-0.47694 0.97479,-0.13785 1.94533,-0.30096 2.91193,-0.48715 0.7303,-0.13512 1.46056,-0.27015 2.18789,-0.42058 0.39392,-0.0811 0.78674,-0.172 1.1705,-0.29318 -0.005,-0.15873 0.0184,-0.0649 -0.17374,-0.23213 0,0 -0.0128,-0.009 -0.0128,-0.009 v 0 c -0.29122,-0.15278 -0.15613,-0.11559 -0.3914,-0.15325 -0.38122,0.11307 -0.7642,0.21993 -1.15484,0.29646 -0.7214,0.15487 -1.4462,0.29275 -2.17091,0.4312 -0.96132,0.19074 -1.92756,0.3533 -2.89764,0.49329 -0.93379,0.13667 -1.86695,0.27989 -2.79011,0.47793 0,0 0.53743,0.37317 0.53743,0.37317 z" /><path
       style="fill:#00ff00;stroke:#00ff00;stroke-width:0.776331;stroke-dasharray:none"
       id="path3346"
       d="m 174.57965,108.76444 c 0.43372,0.5559 0.95392,1.04015 1.4715,1.51705 0.16929,0.18179 0.39122,0.3146 0.55232,0.50435 -0.029,0.20965 -0.34858,0.59121 -0.47098,0.77198 -0.2619,0.37065 -0.51149,0.74954 -0.79065,1.10742 -0.0739,0.1151 -0.18276,0.19996 -0.2708,0.30206 0.11146,0.10709 0.18288,0.20169 0.24742,0.34008 0,0 0.0136,0.008 0.0136,0.008 v 0 c 0.15197,-0.0464 0.22118,0.004 0.37371,0.0484 0.11844,-0.0775 0.19424,-0.20597 0.28393,-0.31182 0.27978,-0.3592 0.51824,-0.74785 0.78208,-1.11867 0.17282,-0.2599 0.42761,-0.5502 0.47747,-0.8645 -0.12497,-0.22432 -0.42315,-0.32959 -0.57605,-0.53223 -0.51794,-0.47164 -1.03781,-0.95163 -1.47285,-1.50217 0,0 -0.62073,-0.26937 -0.62073,-0.26937 z" /><path
       style="fill:#000000;stroke:#000000;stroke-width:0.776331;stroke-dasharray:none"
       id="path3474"
       d="m 199.62971,182.20572 c 0.5658,0.54699 1.1276,1.09854 1.67013,1.6687 0.39769,0.41783 0.72769,0.89246 1.10466,1.32776 0.27148,0.19951 0.17076,0.10243 0.32344,0.2674 0,0 0.0142,0.006 0.0142,0.006 v 0 c 0.0132,-0.0876 -0.009,-0.0472 0.11228,-0.0807 -0.31387,-0.46627 -0.68881,-0.89065 -1.05741,-1.31349 -0.54688,-0.57117 -1.11392,-1.12259 -1.67969,-1.67496 0,0 -0.48758,-0.20102 -0.48758,-0.20102 z" /><path
       style="fill:#000000;stroke:#000000;stroke-width:0.776331;stroke-dasharray:none"
       id="path3476"
       d="m 200.10654,185.28715 c 0.65339,-0.71936 1.2662,-1.47394 1.88499,-2.22287 0.11598,-0.22816 0.74475,-0.71379 0.72806,-0.98553 -0.004,-0.0577 -0.0639,-0.0964 -0.0958,-0.14463 0,0 -0.0127,-0.009 -0.0127,-0.009 v 0 c -0.11155,-0.0383 -0.21673,-0.11514 -0.33467,-0.11473 -0.24779,7.8e-4 -0.66111,0.77532 -0.84173,0.92046 -0.60534,0.75629 -1.20074,1.52161 -1.85652,2.23567 0,0 0.52834,0.3206 0.52834,0.3206 z" /><path
       style="fill:#000000;stroke:#000000;stroke-width:0.776331;stroke-dasharray:none"
       id="path3478"
       d="m 197.12497,91.213858 c 0.50016,0.723097 1.00406,1.443584 1.50508,2.166091 0.29558,0.352386 0.12212,0.173469 0.53504,0.522147 0,0 0.0142,0.0062 0.0142,0.0062 v 0 c 0.13942,-0.147653 0.10944,-0.05621 8e-5,-0.288702 -0.48752,-0.728974 -1.00199,-1.439211 -1.49744,-2.162752 0,0 -0.55696,-0.243033 -0.55696,-0.243033 z" /><path
       style="fill:#000000;stroke:#000000;stroke-width:0.776331;stroke-dasharray:none"
       id="path3480"
       d="m 199.65781,92.012782 c -0.48948,1.056169 -0.89919,2.146847 -1.31914,3.231864 -0.0453,0.286433 -0.40448,0.77577 -0.35381,1.081467 0.0171,0.103106 0.0993,0.18395 0.1489,0.275926 0,0 0.0135,0.0077 0.0135,0.0077 v 0 c 0.0984,-0.0093 0.20982,0.02174 0.29523,-0.02802 0.22111,-0.12881 0.34417,-0.82601 0.47388,-1.015498 0.41354,-1.086748 0.81905,-2.17786 1.30069,-3.236901 0,0 -0.55925,-0.316504 -0.55925,-0.316504 z" /><path
       style="fill:#000000;stroke:#000000;stroke-width:0.776331;stroke-dasharray:none"
       id="path3482"
       d="m 64.518898,56.440422 c 0.740268,-0.238148 1.496,-0.425955 2.255567,-0.591153 0.151314,-0.01167 0.301179,-0.08343 0.454362,-0.08476 0.02148,-1.85e-4 0.08324,0.02088 0.06297,0.01376 -0.178157,-0.06252 -0.348232,-0.182718 -0.537023,-0.180126 -0.06269,8.54e-4 -0.0084,0.125116 -0.01254,0.187673 -0.105951,0.62385 -0.34378,1.214152 -0.541826,1.812386 -0.193321,0.580091 -0.355071,1.169806 -0.525202,1.756889 -0.02962,0.240972 -0.1843,0.477688 -0.180119,0.723156 0.250301,0.127285 0.489063,0.280411 0.750904,0.38186 0.07522,0.02914 0.572874,-0.01202 0.601245,-0.0144 0.436515,-0.03651 0.867707,-0.102819 1.299987,-0.171724 0.766613,-0.11706 1.506514,-0.346913 2.236526,-0.601601 0.220985,-0.09037 1.138975,-0.259269 0.338787,-0.499705 0,0 0.01241,0.0093 0.01241,0.0093 v 0 c 0.100994,-0.01962 0.174179,-0.02506 -0.177442,-0.117304 -0.156211,-0.04098 -0.381977,0.07861 -0.520831,0.127803 -0.07904,0.028 -0.157815,0.05671 -0.236723,0.08507 -0.719892,0.253313 -1.446977,0.493233 -2.204128,0.609118 -0.4289,0.07015 -0.85673,0.138593 -1.29071,0.169539 -0.114932,0.0082 -0.230118,0.0151 -0.345343,0.01512 -0.08301,1.6e-5 -0.283859,-0.09013 -0.248579,-0.01499 0.07093,0.151077 0.259567,0.209878 0.389351,0.314819 -0.06953,-0.125005 0.156207,-0.557925 0.153569,-0.700683 0.163296,-0.58863 0.326035,-1.177646 0.517062,-1.758057 0.20045,-0.602645 0.438901,-1.198452 0.548932,-1.826207 0.07802,-0.808797 -0.602565,-0.728604 -1.058521,-0.592595 -0.758159,0.175153 -1.513105,0.366047 -2.256231,0.597663 0,0 0.513547,0.349109 0.513547,0.349109 z" /><path
       style="fill:#000000;stroke:#000000;stroke-width:0.776331;stroke-dasharray:none"
       id="path3484"
       d="m 65.174476,58.026542 c 0.988719,-0.106393 1.974372,-0.234422 2.956723,-0.388676 0.01986,-0.0035 0.549465,-0.08009 0.613382,-0.141922 0.03926,-0.03798 0.0011,-0.109242 0.0016,-0.163864 0,0 -0.01261,-0.0091 -0.01261,-0.0091 v 0 c -0.541062,-0.176049 -0.580732,-0.170986 -1.135336,-0.05964 -0.977263,0.156835 -1.957536,0.293484 -2.942151,0.3958 0,0 0.518313,0.367366 0.518313,0.367366 z" /><path
       style="fill:#0000ff;stroke:#0000ff;stroke-width:0.776331;stroke-dasharray:none"
       id="path3614"
       d="m 129.22048,78.511546 c 0.11049,-0.863767 0.21161,-1.728844 0.29051,-2.596091 0.0682,-0.888025 0.076,-1.779072 0.0912,-2.669138 0.0113,-0.727846 0.0421,-1.455004 0.0793,-2.18191 0.0346,-0.624476 0.0856,-1.247868 0.13004,-1.871677 0.0287,-0.460652 0.0683,-0.922264 0.0619,-1.384191 -0.086,-0.06249 -0.17202,-0.124985 -0.25803,-0.187477 0,0 -0.0555,-0.02893 -0.0555,-0.02893 v 0 c -0.0894,-0.02717 -0.17872,-0.05434 -0.26808,-0.08151 -0.027,0.460937 -0.019,0.92374 -0.0547,1.384406 -0.0425,0.624783 -0.093,1.249036 -0.12762,1.874321 -0.0361,0.729042 -0.0618,1.458478 -0.0715,2.188391 -0.0127,0.890984 -0.0142,1.782759 -0.0758,2.672177 -0.07,0.867923 -0.16233,1.734146 -0.28144,2.596752 0,0 0.53967,0.284876 0.53967,0.284876 z" /><path
       style="fill:#0000ff;stroke:#0000ff;stroke-width:0.776331;stroke-dasharray:none"
       id="path3616"
       d="m 134.43119,77.691621 c -0.0196,-0.968909 -0.13633,-1.931985 -0.22835,-2.895736 -0.0955,-0.953924 -0.16859,-1.909603 -0.22481,-2.866555 -0.0364,-0.617538 -0.0475,-1.23607 -0.0531,-1.854518 -0.005,-0.430213 0.003,-0.860314 0.01,-1.29043 0.002,-0.296315 0.0455,-0.536107 -0.0805,-0.80861 0,0 -0.43295,-0.224533 -0.43295,-0.224533 v 0 c -0.0343,0.0298 -0.0871,0.04681 -0.10294,0.08939 -0.069,0.185244 0.0528,0.440631 0.002,0.630593 0.006,0.434455 0.0121,0.868873 0.0138,1.303384 0.007,0.62044 0.0201,1.24094 0.0574,1.860407 0.0598,0.960301 0.13708,1.91936 0.23857,2.876238 0.10018,0.966384 0.21482,1.932594 0.25389,2.90394 0,0 0.54707,0.276432 0.54707,0.276432 z" /><path
       style="fill:#0000ff;stroke:#0000ff;stroke-width:0.776331;stroke-dasharray:none"
       id="path3618"
       d="m 129.96982,72.421945 c 0.65605,-0.161998 1.3274,-0.234553 1.99976,-0.284511 0.61223,-0.0351 1.22483,-0.06252 1.83788,-0.0779 0.0841,-0.02711 0.33428,0.05289 0.37806,-0.04911 0,0 -0.40782,-0.295472 -0.40782,-0.295472 v 0 c -0.16184,-0.04914 -0.32145,-0.04207 -0.49003,-0.03054 -0.60503,0.02336 -1.20998,0.0516 -1.81368,0.09902 -0.66697,0.05807 -1.33269,0.136797 -1.98166,0.308047 0,0 0.47749,0.330469 0.47749,0.330469 z" /><path
       style="fill:#0000ff;stroke:#0000ff;stroke-width:0.776331;stroke-dasharray:none"
       id="path3620"
       d="m 127.62217,64.374704 c 0.87393,-0.105136 1.75212,-0.163835 2.63047,-0.216104 0.8214,-0.04298 1.64383,-0.05745 2.46623,-0.06021 0.6873,-0.0023 1.37461,-0.0026 2.06187,0.0059 0.36127,0.0032 0.72255,0.0052 1.08384,0.0059 0.29126,0.02294 0.20733,-0.02152 0.0418,-0.163969 0,0 -0.012,-0.0097 -0.012,-0.0097 v 0 c -0.18015,-0.123074 -0.35025,-0.260898 -0.58007,-0.226207 -0.35669,2.05e-4 -0.71339,0.0016 -1.07007,0.0041 -0.67941,0.0074 -1.35886,0.0061 -2.03828,0.01199 -0.81582,0.01109 -1.63164,0.03212 -2.4463,0.07857 -0.87776,0.054 -1.75506,0.117064 -2.62853,0.221446 0,0 0.49115,0.348378 0.49115,0.348378 z" /><path
       style="fill:#0000ff;stroke:#0000ff;stroke-width:0.776331;stroke-dasharray:none"
       id="path3622"
       d="m 134.66151,61.923227 c 0.6433,0.472393 1.27106,0.96403 1.87935,1.480615 0.36121,0.302055 0.7093,0.61884 1.05312,0.940298 0.17011,0.135661 0.0139,0.16298 -0.13566,0.296324 -0.46892,0.41421 -0.90087,0.867371 -1.32601,1.325671 -0.0384,0.06663 -0.53709,0.529426 -0.52163,0.598335 0.0106,0.04718 0.051,0.08215 0.0765,0.123223 0.0595,0.05537 0.11889,0.110749 0.17833,0.166124 0,0 0.0138,0.0071 0.0138,0.0071 v 0 c 0.0616,0.01349 0.12316,0.02699 0.18473,0.04049 0.0429,0.0047 0.0863,0.02149 0.12884,0.01403 0.15262,-0.02678 0.39279,-0.523981 0.53361,-0.58868 0.41813,-0.460381 0.8416,-0.917449 1.30932,-1.328528 0.1235,-0.113895 0.36818,-0.263382 0.16469,-0.405876 -0.36081,-0.325987 -0.7302,-0.64264 -1.09768,-0.96101 -0.6055,-0.516802 -1.23099,-1.007856 -1.87128,-1.48095 0,0 -0.57005,-0.227183 -0.57005,-0.227183 z" /><path
       style="fill:none;stroke:#00ff00;stroke-width:1;stroke-dasharray:none;marker-end:url(#marker1463)"
       id="path4027"
       sodipodi:type="arc"
       sodipodi:cx="54.420998"
       sodipodi:cy="178.1282"
       sodipodi:rx="95.762497"
       sodipodi:ry="63.573433"
       sodipodi:start="4.5913015"
       sodipodi:end="4.9871107"
       sodipodi:open="true"
       sodipodi:arc-type="arc"
       d="m 42.853674,115.02026 a 95.762497,63.573433 0 0 1 37.545688,1.91847"
       transform="matrix(0.93627754,-0.3512611,0.3505766,0.93653406,0,0)" /><path
       style="fill:none;stroke:#00ff00;stroke-width:1;stroke-dasharray:none"
       id="path4190"
       d="m 101.03502,70.356648 c -0.38765,0.633992 -0.73909,1.286309 -0.99742,1.983581 -0.180673,0.492199 -0.251553,1.008695 -0.289433,1.528387 -0.0262,0.410305 -0.0355,0.821307 -0.0432,1.2323 -0.0145,0.479131 0.005,0.95777 0.0315,1.436047 0.014,0.382775 0.0752,0.75846 0.15373,1.132279 0.0663,0.312356 0.180773,0.609637 0.302863,0.903565 0.16934,0.424627 0.4127,0.80458 0.69987,1.15742 0.26188,0.302911 0.56159,0.567992 0.89242,0.792618 0.4876,0.314777 0.97359,0.61827 1.54069,0.737036 0.31343,0.06535 0.61243,-0.0042 0.91247,-0.09313 0.33847,-0.10628 0.64983,-0.28053 0.93694,-0.486328 0.27816,-0.203081 0.48715,-0.474181 0.6931,-0.745948 0.20197,-0.279659 0.362,-0.5858 0.54885,-0.875408 0.16345,-0.284451 0.30597,-0.581417 0.44185,-0.880007 0.13296,-0.298868 0.22558,-0.613187 0.30901,-0.928788 0.0971,-0.376684 0.13601,-0.763889 0.16748,-1.150495 0.0337,-0.443061 0.0866,-0.884518 0.0988,-1.328894 -0.005,-0.372935 -0.0339,-0.744961 -0.0939,-1.113028 -0.0714,-0.355034 -0.20812,-0.692983 -0.34281,-1.027856 -0.156,-0.388784 -0.34745,-0.761249 -0.5469,-1.129112 -0.14018,-0.263631 -0.29983,-0.515411 -0.48502,-0.749517 -0.16467,-0.214058 -0.35987,-0.39561 -0.58363,-0.545386 -0.45479,-0.292393 -0.92995,-0.546184 -1.4172,-0.777433 -0.23292,-0.101335 -0.4657,-0.205636 -0.70744,-0.284369 -0.1713,-0.05335 -0.34835,-0.06272 -0.52616,-0.06726 -0.18668,-0.01984 -0.3544,0.01336 -0.53008,0.07312 -0.17519,0.07949 -0.34606,0.172378 -0.50229,0.284967 -0.13034,0.105193 -0.25678,0.211997 -0.37048,0.335055 -0.16525,0.194386 -0.30409,0.409059 -0.44078,0.623927 -0.28064,0.431771 -0.22156,0.545613 0.0611,1.000463 0,0 0.0175,0.0096 0.0175,0.0096 v 0 c 0.52131,-0.07355 0.48053,-0.14337 0.70372,-0.55526 0.12756,-0.213259 0.2656,-0.421963 0.42954,-0.609296 0.11193,-0.116385 0.23653,-0.21895 0.36326,-0.31886 0.14986,-0.106307 0.31321,-0.195699 0.48388,-0.263678 0.16677,-0.05076 0.33217,-0.06589 0.50635,-0.05192 0.17108,0.0071 0.34108,0.02601 0.50368,0.08335 0.23691,0.08511 0.46874,0.184124 0.69742,0.289243 0.10034,0.04761 0.20034,0.09561 0.29926,0.146145 0.0368,0.01879 0.14548,0.07804 0.11005,0.05685 -0.25935,-0.155069 -0.91664,-0.532325 -0.49969,-0.292777 0.23214,0.140158 0.43698,0.31215 0.60735,0.524822 0.1907,0.228058 0.35523,0.475512 0.49645,0.737294 0.20044,0.365175 0.39626,0.733242 0.55176,1.120409 0.13391,0.330576 0.27316,0.662578 0.35104,1.011682 0.0669,0.362824 0.0953,0.730986 0.105,1.09967 -0.0107,0.443494 -0.0599,0.883856 -0.0942,1.325917 -0.0314,0.381367 -0.0711,0.763555 -0.16358,1.135766 -0.0806,0.311568 -0.17302,0.620543 -0.2995,0.917025 -0.1364,0.294092 -0.27445,0.588758 -0.43764,0.869037 -0.18205,0.289721 -0.3417,0.593431 -0.5418,0.871363 -0.20175,0.264662 -0.40524,0.529362 -0.67931,0.724527 -0.28062,0.200133 -0.58716,0.364736 -0.91873,0.463655 -0.29334,0.08093 -0.58402,0.134822 -0.88598,0.05989 -0.36836,-0.09085 -1.06772,-0.51862 0.0515,0.156004 0.0438,0.02643 -0.0894,-0.04994 -0.13405,-0.07491 -0.33642,-0.212183 -0.63707,-0.473541 -0.90294,-0.769533 -0.28936,-0.344482 -0.54077,-0.713308 -0.70828,-1.134065 -0.12256,-0.288443 -0.23761,-0.581088 -0.30667,-0.887695 -0.0795,-0.371084 -0.15232,-0.742093 -0.1638,-1.123141 -0.0301,-0.476766 -0.0514,-0.954325 -0.0377,-1.432149 0.004,-0.410515 0.0162,-0.820725 0.0362,-1.230797 0.0333,-0.512998 0.0996,-1.022776 0.27549,-1.509255 0.24998,-0.693883 0.59565,-1.344014 0.98879,-1.967682 0,0 -0.71842,-0.419024 -0.71842,-0.419024 z" /><path
       style="fill:none;stroke:#00ff00;stroke-width:1;stroke-dasharray:none"
       id="path4192"
       d="m 101.19144,75.849517 c 0.71897,-0.128693 1.42461,-0.317026 2.13114,-0.499549 0.44736,-0.126683 0.89728,-0.242287 1.34968,-0.349316 0.32971,-0.07424 0.65721,-0.158009 0.98728,-0.230582 0.31217,-0.07056 0.63175,-0.09399 0.95064,-0.107995 0.1785,-0.0072 0.35705,-0.0042 0.53558,-0.0019 0.0346,-0.0034 0.0644,0.01468 0.0326,-0.02582 0,0 -0.64114,-0.467556 -0.64114,-0.467556 v 0 c -0.0398,-0.02014 -0.0632,-0.03195 -0.10777,-0.02745 -0.17568,0.0011 -0.35137,0.0071 -0.5269,0.0141 -0.32099,0.01863 -0.64199,0.04945 -0.95585,0.122357 -0.32883,0.0751 -0.65595,0.157525 -0.98443,0.234166 -0.45028,0.109874 -0.89796,0.228989 -1.34382,0.355677 -0.70145,0.189098 -1.40525,0.373997 -2.122,0.496578 0,0 0.69494,0.487259 0.69494,0.487259 z" /></g></svg>
