<?xml version="1.0" encoding="UTF-8" standalone="no"?>
<svg
   height="411.32492"
   version="1.1"
   width="683.94055"
   id="svg448"
   sodipodi:docname="helicoptero-Euler-angs.svg"
   inkscape:version="1.3.2 (091e20e, 2023-11-25, custom)"
   inkscape:export-filename="helicoptero-Euler-angs.png"
   inkscape:export-xdpi="96"
   inkscape:export-ydpi="96"
   xmlns:inkscape="http://www.inkscape.org/namespaces/inkscape"
   xmlns:sodipodi="http://sodipodi.sourceforge.net/DTD/sodipodi-0.dtd"
   xmlns="http://www.w3.org/2000/svg"
   xmlns:svg="http://www.w3.org/2000/svg"
   xmlns:rdf="http://www.w3.org/1999/02/22-rdf-syntax-ns#"
   xmlns:cc="http://creativecommons.org/ns#"
   xmlns:dc="http://purl.org/dc/elements/1.1/">
  <metadata
     id="metadata454">
    <rdf:RDF>
      <cc:Work
         rdf:about="">
        <dc:format>image/svg+xml</dc:format>
        <dc:type
           rdf:resource="http://purl.org/dc/dcmitype/StillImage" />
      </cc:Work>
    </rdf:RDF>
  </metadata>
  <defs
     id="defs452" />
  <sodipodi:namedview
     pagecolor="#ffffff"
     bordercolor="#666666"
     borderopacity="1"
     objecttolerance="10"
     gridtolerance="10"
     guidetolerance="10"
     inkscape:pageopacity="0"
     inkscape:pageshadow="2"
     inkscape:window-width="1920"
     inkscape:window-height="1009"
     id="namedview450"
     showgrid="false"
     inkscape:zoom="0.98602112"
     inkscape:cx="274.84198"
     inkscape:cy="274.33489"
     inkscape:window-x="-8"
     inkscape:window-y="-8"
     inkscape:window-maximized="1"
     inkscape:current-layer="strokes"
     inkscape:showpageshadow="2"
     inkscape:pagecheckerboard="0"
     inkscape:deskcolor="#d1d1d1"
     inkscape:export-bgcolor="#ffffffff" />
  <g
     id="View Layer_LineSet"
     inkscape:label="View Layer_LineSet"
     transform="matrix(0.45951178,0,0,0.45951178,-124.77491,-45.785895)">
    <g
       id="strokes"
       inkscape:groupmode="layer"
       inkscape:label="strokes">
      <path
         d="m 1321.383,655.363 0.498,-0.348 1.419,-0.992 0.013,-0.009 1.53,-1.07 0.539,-0.482 -5.478,-8.366 -5.478,-8.366 -5.478,-8.366 -2.53,-3.864 -5.628,-8.266 -5.629,-8.266 -5.628,-8.266 -0.883,-1.297 -5.975,-8.019 -5.975,-8.018 -3.432,-4.606 -6.489,-7.609 -4.047,-4.745 -5.19,-6.016 -7.87,-6.168 -0.217,-0.17 -7.606,-6.491 -3.917,-3.343 -8.424,-5.388 -2.127,-1.361 -8.784,-4.779 -4.142,-2.253 -8.78,-4.786 -7.219,-3.936 -8.746,-4.849 -8.746,-4.848 -0.981,-0.544 -8.728,-4.882 -8.728,-4.881 -2.585,-1.446 -8.72,-4.895 -8.72,-4.896 -2.583,-1.45 -0.704,-0.395 -7.799,-4.375 -9.127,0.451 -9.577,2.878 -0.307,0.092 -9.334,3.589 -0.701,0.269 -8.458,5.336 -1.054,0.665 -6.317,7.751 -1.95,2.392 -3.598,9.33 -2.679,6.945 -1.439,9.896 -1.439,9.896 -0.531,3.655 0.29,9.995 0.291,9.996 0.235,8.078 2.164,9.763 2.163,9.764 2.175,9.815 3.643,7.303 4.464,8.948 2.108,4.226 1.416,2.838 2.039,4.088 6.859,7.277 5.894,6.254 6.723,7.133 2.101,2.229 2.197,1.464 8.322,5.544 8.322,5.545 7.354,4.899 0.687,0.458 2.541,1.141 0.716,0.321 9.122,4.098 1.516,0.681 0.157,0.07 2.667,1.198 1.541,0.692 0.881,0.396 4.966,2.231 4.549,2.043 9.61,2.766 4.186,1.205 4.737,1.364 1.106,0.318 7.093,2.041 5.792,0.689 0.521,0.061 0.071,0.009 6.933,0.824 8.473,1.007 7.246,-0.56 0.428,-0.033 0.413,-0.032 0.408,-0.032 0.449,-0.034 0.05,-0.004 0.014,-10e-4 0.045,-0.004 0.069,-0.005 0.169,-0.013 0.272,-0.021 0.642,-0.05 0.628,-0.048 6.526,-0.504"
         fill="none"
         stroke="#000000"
         stroke-linecap="butt"
         stroke-linejoin="round"
         stroke-opacity="1"
         stroke-width="3"
         id="path2" />
      <path
         d="m 487.288,577.839 8.613,5.081 0.522,0.308 8.785,4.779 3.168,1.723 8.858,4.641 2.089,1.095 8.215,4.294 8.534,4.53 8.811,4.731 4.373,2.348 8.804,4.742 8.804,4.742 4.713,2.539 8.803,4.744 8.804,4.743 8.803,4.744 7.996,4.308 8.803,4.744 8.804,4.743 8.803,4.744 8.803,4.743 6.925,3.731 8.803,4.744 8.804,4.743 8.803,4.744 8.803,4.743 8.012,4.317 8.803,4.744 8.804,4.743 8.803,4.744 8.803,4.743 1.803,0.972 8.804,4.743 8.803,4.744 7.21,3.884 8.803,4.744 4.934,2.658"
         fill="none"
         stroke="#000000"
         stroke-linecap="butt"
         stroke-linejoin="round"
         stroke-opacity="1"
         stroke-width="3"
         id="path4" />
      <path
         d="m 906.123,695.075 -4.099,1.996 -0.193,0.072 -0.145,0.053 -9.375,3.479 -1.111,0.412 -9.463,3.233 -9.464,3.232 -2.093,0.715 -9.492,3.147 -9.492,3.147 -9.492,3.147 -4.949,1.64 -9.502,3.115 -9.503,3.116 -9.502,3.115 -9.502,3.115 -3.512,1.151 -9.507,3.1 -2.998,0.978 -4.325,1.41 -2.445,0.798 -2.411,0.786 -2.464,0.803 -9.507,3.1 -9.396,3.064 -9.509,3.094 -9.51,3.093 -9.509,3.094 -8.585,2.792 -9.502,3.114 -0.552,0.181 -2.51,0.822 -0.972,0.319 -2.515,0.824 -8.698,2.85 -9.413,3.378 -3.825,1.372 -4.913,2.701 -1.755,2.359 -0.561,3.345 0.744,3.652 0.276,0.694 0.031,0.078 1.105,2.398 3.28,2.684 0.178,0.146 0.334,0.177 3.812,2.021 1.566,0.569 3.694,1.34 0.962,0.289 1.374,0.413 0.127,0.038 3.541,1.064 0.899,0.262 3.158,0.921 2.308,0.673 4.514,1.316 2.027,0.591 6.583,1.92 6.488,1.893 6.212,1.759 1.832,0.409 1.782,0.398 1.089,0.244 0.876,0.195 0.361,0.026 4.2,0.297 1.289,-0.081 5.678,-0.355 0.791,-0.049 1.692,-0.313 5.309,-0.981 9.834,-1.816 0.967,-0.179 9.792,-2.027 0.859,-0.178 6.245,-1.293 6.828,-1.413 2.449,-0.507 7.955,-1.647 0.636,-0.131 2.078,-0.431 2.575,-0.523 3.172,-0.645 6.201,-1.261 9.8,-1.992 5.091,-1.035 2.575,-0.523 0.902,-0.184 2.692,-0.547 9.8,-1.992 6.603,-1.343 0.878,-0.178 9.204,-1.866 9.801,-1.986 4.707,-0.955 5.765,-1.168 9.801,-1.987 9.8,-1.987 2.087,-0.423 1.365,-0.277 1.38,-0.28 2.948,-0.597 2.535,-0.511 2.834,-0.571 7.936,-1.6 2.274,-0.458 9.803,-1.975 9.803,-1.976 9.803,-1.975 1.084,-0.219 9.803,-1.975 0.296,-0.06 8.678,-1.726 9.808,-1.952 5.453,-1.084 9.808,-1.952 8.366,-1.664 3.577,-0.712 9.821,-1.886 9.82,-1.886 9.565,-1.837 8.083,-1.397 5.795,-1.002 0.146,-0.025 1.579,-0.273 4.921,-0.534 1.775,-0.192"
         fill="none"
         stroke="#000000"
         stroke-linecap="butt"
         stroke-linejoin="round"
         stroke-opacity="1"
         stroke-width="3"
         id="path6" />
      <path
         d="m 1139.919,487.026 -2.004,-3.885 -3.202,-2.642 -8.145,-4.347 -6.363,-2.255 -8.548,-1.986 -9.516,-1.866 -2.505,-0.516 -7.585,-3.339 -7.075,-4.247 -4.12,-1.538 -5.563,-1.747 -2.92,-0.681"
         fill="none"
         stroke="#000000"
         stroke-linecap="butt"
         stroke-linejoin="round"
         stroke-opacity="1"
         stroke-width="3"
         id="path8" />
      <path
         d="m 396.803,599.042 -1.864,-1.686 -2.446,-1.987 -3.78,-3.436 -6.421,-6.296 -4.827,-4.832 -0.126,-0.126 -5.577,-5.583 -7.061,-7.082 -7.06,-7.081 -1.262,-1.266 -7.061,-7.082 -7.06,-7.082 -3.97,-3.981 -7.06,-7.082 -7.061,-7.082 -3.87,-3.882 -7.061,-7.081 -7.06,-7.082 -1.041,-1.043 -7.07,-7.072 -3.274,-3.274 -6.29,-6.094 -3.637,-3.097 -0.325,-0.267 -1.709,-1.083 -1.437,-0.559 -1.099,-0.421 -2.237,-0.57 -1.972,-0.149 -1.113,-0.025 -1.301,0.327 -0.432,0.355 -0.201,1.006 1.491,2.712 3.989,5.554 6.021,7.983 1.136,1.507 6.039,7.971 4.513,5.958 6.039,7.971 6.038,7.971 0.411,0.543 6.038,7.971 6.039,7.971 0.442,0.584 6.038,7.971 4.578,6.042 1.797,2.377 5.428,7.174"
         fill="none"
         stroke="#000000"
         stroke-linecap="butt"
         stroke-linejoin="round"
         stroke-opacity="1"
         stroke-width="3"
         id="path10" />
      <path
         d="m 410.821,405.04 -3.848,0.192 -2.593,0.036 -0.782,-0.157 0.759,-0.321 1.815,-0.434 2.344,-0.493 2.44,-0.495 0.852,-0.17 2.401,-0.441 2.451,-0.361 2.605,-0.262 2.919,-0.161 2.983,-0.071 2.573,0.015 1.702,0.094 0.871,0.098 0.657,0.185 0.667,0.388 0.697,0.782 1.257,1.515 2.901,3.498 5.773,6.962 6.383,7.698 3.475,4.192 0.032,0.038 2.886,3.481 2.183,2.632 6.383,7.698 0.636,0.768 0.523,0.63 0.413,0.498 0.864,1.042 0.179,0.216 0.571,0.688 0.352,0.425"
         fill="none"
         stroke="#000000"
         stroke-linecap="butt"
         stroke-linejoin="round"
         stroke-opacity="1"
         stroke-width="3"
         id="path12" />
      <path
         d="m 800.646,553.617 -9.411,-0.84 -9.96,-0.894 -9.96,-0.893 -9.96,-0.894 -9.96,-0.893 -1.127,-0.101 -9.96,-0.894 -9.96,-0.893 -9.96,-0.894 -9.96,-0.893 -8.122,-0.729 -9.96,-0.893 -9.96,-0.894 -9.96,-0.893 -9.96,-0.894 -7.044,-0.632 -9.961,-0.893 -7.485,-0.672 -9.96,-0.893 -7.988,-0.717 -2.983,-0.267 -9.959,-0.895 -9.96,-0.896 -0.278,-0.025 -4.649,-0.418 -9.958,-0.914 -4.125,-0.379 -7.737,-0.748 -6.022,-0.527 -5.414,-0.688 -0.014,-0.002 -2.728,-0.346 -9.469,-1.086 -7.849,-0.643"
         fill="none"
         stroke="#000000"
         stroke-linecap="butt"
         stroke-linejoin="round"
         stroke-opacity="1"
         stroke-width="3"
         id="path14" />
      <path
         d="m 906.775,446.861 -1.342,0.17 -8.912,1.125 -9.679,2.513 -1.742,0.452 -9.56,2.931 -2.1,0.644 -9.111,4.123 -2.229,1.008 -8.895,4.569 -0.535,0.275 -7.804,6.253 -1.965,1.574 -6.731,7.395 -1.399,1.537 -4.944,6.436 -4.971,8.677 -2.506,4.375 -4.14,9.103 -4.14,9.103 -1.182,2.599 -3.596,9.331 -3.597,9.331 -2.416,6.267 -2.633,6.965 -3.536,9.354 -1.02,2.699 -2.884,7.628 -0.468,1.24"
         fill="none"
         stroke="#000000"
         stroke-linecap="butt"
         stroke-linejoin="round"
         stroke-opacity="1"
         stroke-width="3"
         id="path16" />
      <path
         d="m 480.948,530.884 -0.873,0.303 -2.43,0.921 -3.093,1.274 -2.472,1.637 -1.538,2.461 -1.113,1.708 -1.03,3.21 -0.786,3.474 -0.847,3.311 -2.187,4.494 -0.856,2.142 -0.03,1.079 1.062,0.795"
         fill="none"
         stroke="#000000"
         stroke-linecap="butt"
         stroke-linejoin="round"
         stroke-opacity="1"
         stroke-width="3"
         id="path18" />
      <path
         d="m 463.693,556.898 1.498,2.412 0.228,0.213"
         fill="none"
         stroke="#000000"
         stroke-linecap="butt"
         stroke-linejoin="round"
         stroke-opacity="1"
         stroke-width="3"
         id="path20" />
      <path
         d="m 466.569,559.138 0.244,-0.379 0.018,-0.027 -0.038,-0.02 -0.779,-0.439"
         fill="none"
         stroke="#000000"
         stroke-linecap="butt"
         stroke-linejoin="round"
         stroke-opacity="1"
         stroke-width="3"
         id="path22" />
      <path
         d="m 1033.149,380.991 0.155,-0.955 0.096,-0.505 -0.145,-0.339 -0.147,-0.127 -0.493,-0.234 -0.882,-0.258 -1.289,-0.366 -0.746,-0.214"
         fill="none"
         stroke="#000000"
         stroke-linecap="butt"
         stroke-linejoin="round"
         stroke-opacity="1"
         stroke-width="3"
         id="path24" />
      <path
         d="m 1073.059,460.538 -1.033,2.174 -4.626,2.438 -7.069,2.627 -1.415,0.464 -6.931,2.272 -1.232,0.389 -6.74,2.129 -0.681,0.216 -6.87,1.932 -1.998,0.562 -5.364,1.154 -3.832,0.825 -9.622,1.184 -10.066,0.202 -9.984,-0.573 -0.307,-0.018 -6.827,-0.729 -3.425,-0.366 -9.973,-1.311 -9.58,-1.3 -9.506,-1.29 -9.853,-1.337 -9.909,-1.345 -0.699,-0.095 -9.904,-1.381 -1.506,-0.209 -9.87,-1.605 -0.964,-0.156 -8.543,-1.945 -4.564,-2.14 0.554,-2.335"
         fill="none"
         stroke="#000000"
         stroke-linecap="butt"
         stroke-linejoin="round"
         stroke-opacity="1"
         stroke-width="3"
         id="path26" />
      <path
         d="m 941.507,775.473 2.202,0.468 7.408,1.573 3.842,0.816 9.783,2.072 3.792,0.804 9.783,2.071 4.354,0.921 9.784,2.071 4.783,1.012 9.783,2.071 4.931,1.044 9.784,2.071 4.787,1.013 9.787,2.052 4.622,0.97 3.705,0.734 4.74,0.941 2.413,0.478 4.499,0.892 0.228,0.041 9.842,1.772 7.663,1.379 9.874,1.586 9.873,1.585 1.848,0.297 9.898,1.425 9.898,1.424 6.537,0.941 4.315,0.559 9.134,1.183 4.962,0.643 9.065,1.175 1.764,0.228 9.936,1.129 9.936,1.129 9.647,1.096 9.959,0.909 9.959,0.909 7.11,0.649 9.985,0.537 9.825,0.529 2.598,0.14 1.79,-0.004 3.447,-0.007 4.376,-0.01 9.142,-0.02 9.976,-0.69 6.952,-0.48 9.919,-1.271 7.077,-0.907 9.863,-1.649 8.49,-1.42 9.785,-2.065 8.552,-1.806 9.634,-2.682 6.603,-1.838 8.629,-3.143 9.273,-3.742 3.838,-1.549 8.851,-4.654 0.872,-0.459 8.545,-5.193 1.046,-0.636 8.438,-5.365 0.72,-0.457 8.316,-5.553 0.23,-0.154 7.003,-5.283 4.538,-5.885 3.063,-4.437 1.879,-6.198 0.48,-6.116 0.237,-5.871 0.234,-5.785 0.24,-5.937 0.256,-6.328 0.045,-6.876 -1.343,-7.243 -2.454,-5.929 -3.481,-6.891 -4.478,-4.811 -7.345,-6.576 -8.296,-5.584 -4.688,-3.156 -8.828,-4.698 -7.727,-4.112 -4.284,-1.826 -8.999,-4.361 -6.057,-2.935 -9.384,-3.456 -1.457,-0.537 -6.207,-1.038 -3.78,0.708 -0.376,0.126"
         fill="none"
         stroke="#000000"
         stroke-linecap="butt"
         stroke-linejoin="round"
         stroke-opacity="1"
         stroke-width="3"
         id="path28" />
      <path
         d="m 544.419,427.705 -0.414,-0.239 -0.211,-0.084 -2.135,-0.776 -2.158,-0.475 -1.897,-0.104 -0.933,-0.037 -1.268,0.316 -0.292,0.297 -0.21,0.907 1.209,2.103"
         fill="none"
         stroke="#000000"
         stroke-linecap="butt"
         stroke-linejoin="round"
         stroke-opacity="1"
         stroke-width="3"
         id="path30" />
      <path
         d="m 469.262,505.904 5.409,8.411 1.35,2.1 0.228,0.353 1.042,1.727 3.433,5.682 1.736,4.009 -0.384,1.987 -1.128,0.711 -0.749,0.471"
         fill="none"
         stroke="#000000"
         stroke-linecap="butt"
         stroke-linejoin="round"
         stroke-opacity="1"
         stroke-width="3"
         id="path32" />
      <path
         d="m 482.453,531.032 -0.251,-0.572 -0.004,-0.01 -0.122,-0.277"
         fill="none"
         stroke="#000000"
         stroke-linecap="butt"
         stroke-linejoin="round"
         stroke-opacity="1"
         stroke-width="3"
         id="path34" />
      <path
         d="m 320.157,523.894 7.088,7.054 7.088,7.054 4.023,4.003 7.088,7.054 7.088,7.054 4.126,4.106 7.088,7.054 7.089,7.054 1.388,1.382 5.017,4.994 5.613,5.585 6.325,6.302 3.204,3.228 0.165,0.165 1.687,1.869 1.025,1.504 0.421,1.374 1.881,-0.248 1.231,-0.539 1.707,-0.651 3.516,-1.001 6.685,-1.695 9.71,-2.391 1.433,-0.353 9.711,-2.385 6.392,-1.57 9.711,-2.385 9.01,-2.213 9.711,-2.385 8.697,-2.136 9.711,-2.386 2.429,-0.596 3.174,-0.78 9.713,-2.375 0.541,-0.133 6.055,-1.411 2.022,-0.374 1.334,-0.247 2.12,-0.122 2.093,0.13"
         fill="none"
         stroke="#000000"
         stroke-linecap="butt"
         stroke-linejoin="round"
         stroke-opacity="1"
         stroke-width="3"
         id="path36" />
      <path
         d="m 399.526,599.838 2.929,-1.008 6.654,-1.763 9.708,-2.402 1.449,-0.358 9.711,-2.386 6.42,-1.578 9.711,-2.386 9.043,-2.222 9.711,-2.386 8.729,-2.145 9.712,-2.386 3.985,-0.979 1.644,-0.404 9.714,-2.375 0.556,-0.136 6.054,-1.395 3.329,-0.568 2.061,-0.019"
         fill="none"
         stroke="#000000"
         stroke-linecap="butt"
         stroke-linejoin="round"
         stroke-opacity="1"
         stroke-width="3"
         id="path38" />
      <path
         d="m 333.647,568.433 4.881,6.534 4.143,5.644 2.032,3.017 0.771,1.652 0.26,1.364 0.112,1.369 0.146,1.451 0.056,1.546 -0.226,1.719 -0.646,2.311 -1.189,3.409 -1.859,5.034 -2.57,6.915 -2.965,7.979 -2.962,7.97 -2.564,6.9 -1.831,5.036 -0.157,0.432 -1.016,3.344 -0.063,2.136 0.841,1.462 1.686,1.283 2.349,1.09 2.681,0.715 2.539,0.213 0.799,0.037 2.423,-0.471 2.647,-1.46 3.532,-2.762 5.037,-4.338 6.883,-5.99 7.544,-6.564 0.426,-0.371 7.544,-6.565 0.459,-0.399 6.954,-6.051 5.068,-4.411 3.405,-2.971 2.221,-1.971 1.427,-1.418 2.455,-1.603 0.992,-0.905 0.88,-0.802"
         fill="none"
         stroke="#000000"
         stroke-linecap="butt"
         stroke-linejoin="round"
         stroke-opacity="1"
         stroke-width="3"
         id="path40" />
      <path
         d="m 1031.466,380.041 0.036,0.023 0.392,0.253 0.197,0.27 v 0.343 l -0.075,0.211"
         fill="none"
         stroke="#000000"
         stroke-linecap="butt"
         stroke-linejoin="round"
         stroke-opacity="1"
         stroke-width="3"
         id="path42" />
      <path
         d="m 1031.466,380.041 -0.766,-0.328 -1.011,-0.348"
         fill="none"
         stroke="#000000"
         stroke-linecap="butt"
         stroke-linejoin="round"
         stroke-opacity="1"
         stroke-width="3"
         id="path44" />
      <path
         d="m 1033.108,379.065 0.171,0.308 -0.066,0.422 -0.225,0.54 -0.322,0.594 -0.362,0.563 -0.348,0.449 -0.289,0.276 -0.247,0.162 -0.23,0.116 -0.019,0.007 v 10e-4 l -0.014,0.005 -0.027,0.01 -0.139,0.05 -0.018,0.006 -0.251,0.047 -0.474,0.073 -0.575,0.094 -0.352,0.058 -1.61,0.231 -2.416,0.289 -2.91,0.309 -2.984,0.285 -2.635,0.217 -1.998,0.124 -1.617,0.072 -1.631,0.064 -2.037,0.043 h -2.702 l -3.095,-0.042 -3.079,-0.077 -2.657,-0.106 -1.944,-0.126 -1.409,-0.137 -1.167,-0.154 -1.223,-0.234 -1.437,-0.353 -0.058,-0.014"
         fill="none"
         stroke="#000000"
         stroke-linecap="butt"
         stroke-linejoin="round"
         stroke-opacity="1"
         stroke-width="3"
         id="path46" />
      <path
         d="m 273.407,486.818 -0.168,-0.477"
         fill="none"
         stroke="#000000"
         stroke-linecap="butt"
         stroke-linejoin="round"
         stroke-opacity="1"
         stroke-width="3"
         id="path48" />
      <path
         d="m 601.801,513.57 -0.002,0.206 -0.01,1.225 -0.641,1.091 -0.673,1.027"
         fill="none"
         stroke="#000000"
         stroke-linecap="butt"
         stroke-linejoin="round"
         stroke-opacity="1"
         stroke-width="3"
         id="path50" />
      <path
         d="m 1323.156,654.416 -1.773,0.947 -2.09,1.116 -0.615,0.328 -7.179,3.681 -8.619,4.38 -8.916,4.529 -0.111,0.056 -8.928,4.503 -0.443,0.223 -6.775,3.36 -3.112,1.543 -9.005,4.347 -1.539,0.743 -9.162,4.007 -2.353,1.029 -3.332,0.934 -9.629,2.7 -0.456,0.128 -0.088,0.025 v 0 l -0.068,0.019"
         fill="none"
         stroke="#000000"
         stroke-linecap="butt"
         stroke-linejoin="round"
         stroke-opacity="1"
         stroke-width="3"
         id="path52" />
      <path
         d="m 394.465,603.253 0.91,-1.256"
         fill="none"
         stroke="#000000"
         stroke-linecap="butt"
         stroke-linejoin="round"
         stroke-opacity="1"
         stroke-width="3"
         id="path54" />
      <path
         d="m 403.598,405.111 -0.17,0.425 0.44,0.768 0.969,1.476 2.237,3.407 4.449,6.776 5.489,8.36 2.127,3.239 5.488,8.359 5.489,8.359 0.276,0.421 5.489,8.359 5.489,8.359 2.407,3.667 5.489,8.359 5.488,8.359 2.515,3.83 5.489,8.359 0.971,1.479 1.27,1.935 3.816,5.812 0.447,0.685 5.464,8.375 1.288,1.975 0.769,1.178"
         fill="none"
         stroke="#000000"
         stroke-linecap="butt"
         stroke-linejoin="round"
         stroke-opacity="1"
         stroke-width="3"
         id="path56" />
      <path
         d="m 620.028,537.418 0.543,-0.188 9.451,-3.268 1.475,-0.51 7.433,-2.562 4.546,-1.515 0.505,-0.148 2.197,-0.64 1.817,-0.38 1.535,-0.276 0.525,-0.414 -0.361,-1.232 -0.901,-1.348 -1.487,-1.675 -3.073,-3.013 -5.899,-5.56 -7.307,-6.827 -2.668,-2.493 -7.296,-6.84 -7.295,-6.839 -0.449,-0.422 -7.282,-6.854 -7.281,-6.854 -2.443,-2.299 -7.281,-6.855 -7.281,-6.854 -2.362,-2.223 -7.282,-6.854 -2.412,-2.271"
         fill="none"
         stroke="#000000"
         stroke-linecap="butt"
         stroke-linejoin="round"
         stroke-opacity="1"
         stroke-width="3"
         id="path58" />
      <path
         d="m 638.93,530.89 3.013,-0.993 2.831,-0.643"
         fill="none"
         stroke="#000000"
         stroke-linecap="butt"
         stroke-linejoin="round"
         stroke-opacity="1"
         stroke-width="3"
         id="path60" />
      <path
         d="m 637.976,539.028 4.193,-3.431 3.309,-2.732 2.096,-1.793 1.313,-1.278 0.857,-1.134 0.311,-1.143"
         fill="none"
         stroke="#000000"
         stroke-linecap="butt"
         stroke-linejoin="round"
         stroke-opacity="1"
         stroke-width="3"
         id="path62" />
      <path
         d="m 648.867,526.638 -1.595,-1.528"
         fill="none"
         stroke="#000000"
         stroke-linecap="butt"
         stroke-linejoin="round"
         stroke-opacity="1"
         stroke-width="3"
         id="path64" />
      <path
         d="m 1073.059,460.538 -0.686,-2.561 -2.589,-9.659 -1.894,-7.065 -2.599,-9.656 -2.297,-8.536 -2.621,-9.65 -1.694,-6.239 -2.672,-9.637 -0.755,-2.723 -2.329,-7.991 -1.444,-4.377 -0.878,-1.929 -0.635,-0.654 -0.686,-0.361 -2.282,-0.991 -0.868,-0.244 -4.349,-0.855 -5.69,-0.767 -0.857,-0.108 -5.524,-0.632"
         fill="none"
         stroke="#000000"
         stroke-linecap="butt"
         stroke-linejoin="round"
         stroke-opacity="1"
         stroke-width="3"
         id="path66" />
      <path
         d="m 1324.843,652.944 -2.881,1.528 -1.699,0.9 -3.842,1.968 -3.509,1.798 -8.829,4.484 -8.918,4.524 -0.317,0.161 -8.93,4.5 -0.652,0.329 -8.082,4.016 -2.023,1.006 -8.99,4.381 -1.794,0.874 -9.129,4.081 -2.651,1.184 -4.472,1.311 -9.389,2.753 -8.573,0.713 -0.651,0.054 -0.405,0.034 -0.03,0.002 v 0.001 l -0.08,0.006 -0.191,0.016 -0.179,0.015 -0.07,0.006 -0.288,0.024 -0.196,0.016 -0.776,0.064 -1.336,0.112 -4.427,0.368"
         fill="none"
         stroke="#000000"
         stroke-linecap="butt"
         stroke-linejoin="round"
         stroke-opacity="1"
         stroke-width="3"
         id="path68" />
      <path
         d="m 598.164,518.614 -0.829,0.295 -4.6,1.634"
         fill="none"
         stroke="#000000"
         stroke-linecap="butt"
         stroke-linejoin="round"
         stroke-opacity="1"
         stroke-width="3"
         id="path70" />
      <path
         d="m 600.316,517.534 -0.124,0.057 -0.037,0.017 -0.649,0.3 -2.171,1.001"
         fill="none"
         stroke="#000000"
         stroke-linecap="butt"
         stroke-linejoin="round"
         stroke-opacity="1"
         stroke-width="3"
         id="path72" />
      <path
         d="m 593.56,520.27 -0.825,0.273 -7.137,2.362 -9.501,3.119 -2.27,0.745 -9.501,3.119 -4.552,1.494 -0.845,0.277"
         fill="none"
         stroke="#000000"
         stroke-linecap="butt"
         stroke-linejoin="round"
         stroke-opacity="1"
         stroke-width="3"
         id="path74" />
      <path
         d="m 600.958,516.727 -0.483,0.392 -0.969,0.789"
         fill="none"
         stroke="#000000"
         stroke-linecap="butt"
         stroke-linejoin="round"
         stroke-opacity="1"
         stroke-width="3"
         id="path76" />
      <path
         d="m 1080.609,603.359 -2.032,-9.791 -2.033,-9.791 -2.032,-9.792 -0.133,-0.641"
         fill="none"
         stroke="#000000"
         stroke-linecap="butt"
         stroke-linejoin="round"
         stroke-opacity="1"
         stroke-width="3"
         id="path78" />
      <path
         d="m 985.697,381.627 -10e-4,-0.02 0.145,-0.495 0.259,-0.555 0.327,-0.535 0.347,-0.434 0.319,-0.273 0.007,-0.006"
         fill="none"
         stroke="#000000"
         stroke-linecap="butt"
         stroke-linejoin="round"
         stroke-opacity="1"
         stroke-width="3"
         id="path80" />
      <path
         d="m 988.712,377.352 -0.321,0.023 -0.942,0.08 -0.482,0.086 -0.253,0.074 -0.221,0.049 -0.227,0.097 -0.128,0.083 -0.111,0.142 -0.273,0.374 -0.321,0.515 -0.331,0.588 -0.29,0.579 -0.199,0.486 -0.09,0.298 -0.076,0.252 0.142,0.739"
         fill="none"
         stroke="#000000"
         stroke-linecap="butt"
         stroke-linejoin="round"
         stroke-opacity="1"
         stroke-width="3"
         id="path82" />
      <path
         d="m 988.727,371.639 -0.485,-0.045 -7.487,-0.469 -6.922,-0.076 -6.212,0.412 -5.681,0.828 -0.809,0.141 -5.516,1.158 -5.339,1.31 -5.187,1.338 -4.329,1.322 -0.782,0.371 -2.635,1.306 -0.779,0.687 -1.226,1.968 -2.189,4.437 -3.667,8.086 -4.018,9.158 -1.468,3.347 -3.972,9.177 -2.989,6.904 -3.952,9.186 -3.974,9.239 -2.334,5.437 -3.943,9.189 -2.112,4.921"
         fill="none"
         stroke="#000000"
         stroke-linecap="butt"
         stroke-linejoin="round"
         stroke-opacity="1"
         stroke-width="3"
         id="path84" />
      <path
         d="m 990.766,383.251 -1.489,-0.42 -0.578,-0.177 -0.964,-0.295 -1.283,-0.43 -0.755,-0.302 -0.131,-0.052 -0.27,-0.107 -0.04,-0.017"
         fill="none"
         stroke="#000000"
         stroke-linecap="butt"
         stroke-linejoin="round"
         stroke-opacity="1"
         stroke-width="3"
         id="path86" />
      <path
         d="m 990.708,383.237 -1.643,-0.46 -0.366,-0.113 -1.219,-0.377 -1.323,-0.458 -0.46,-0.193 -0.399,-0.167 -0.042,-0.018 -0.507,-0.307 -0.185,-0.275 0.049,-0.341"
         fill="none"
         stroke="#000000"
         stroke-linecap="butt"
         stroke-linejoin="round"
         stroke-opacity="1"
         stroke-width="3"
         id="path88" />
      <path
         d="m 918.333,770.514 9.276,1.993 2.524,0.538"
         fill="none"
         stroke="#000000"
         stroke-linecap="butt"
         stroke-linejoin="round"
         stroke-opacity="1"
         stroke-width="3"
         id="path90" />
      <path
         d="m 986.266,377.761 -0.239,0.225"
         fill="none"
         stroke="#000000"
         stroke-linecap="butt"
         stroke-linejoin="round"
         stroke-opacity="1"
         stroke-width="3"
         id="path100" />
      <path
         d="m 1029.664,383.574 -2.351,0.434 -0.17,0.032 -0.979,0.128 -3.598,0.422 -3.833,0.381 -5.375,0.406 -2.301,0.049 -3.45,-0.014 -4.02,-0.066 -3.919,-0.131 -1.051,-0.076 -4.043,-0.295 -0.33,-0.024 -1.633,-0.238 -0.374,-0.055 -2.056,-0.299"
         fill="none"
         stroke="#000000"
         stroke-linecap="butt"
         stroke-linejoin="round"
         stroke-opacity="1"
         stroke-width="3"
         id="path110" />
      <path
         d="m 772.857,731.847 1.043,0.562 3.16,1.703 2.831,1.487 2.838,1.439"
         fill="none"
         stroke="#000000"
         stroke-linecap="butt"
         stroke-linejoin="round"
         stroke-opacity="1"
         stroke-width="3"
         id="path112" />
      <path
         d="m 901.96,696.795 -0.274,0.401"
         fill="none"
         stroke="#000000"
         stroke-linecap="butt"
         stroke-linejoin="round"
         stroke-opacity="1"
         stroke-width="3"
         id="path114" />
      <path
         d="m 993.411,384.061 1.077,0.096 1.324,0.176"
         fill="none"
         stroke="#000000"
         stroke-linecap="butt"
         stroke-linejoin="round"
         stroke-opacity="1"
         stroke-width="3"
         id="path116" />
      <path
         d="m 1032.023,381.134 v 0.007 l -0.287,0.54 -0.353,0.541 -0.169,0.213"
         fill="none"
         stroke="#000000"
         stroke-linecap="butt"
         stroke-linejoin="round"
         stroke-opacity="1"
         stroke-width="3"
         id="path118" />
      <path
         d="m 1033.355,382.375 -0.446,0.177 -2.016,0.794"
         fill="none"
         stroke="#000000"
         stroke-linecap="butt"
         stroke-linejoin="round"
         stroke-opacity="1"
         stroke-width="3"
         id="path120" />
      <path
         d="m 1030.7,379.713 0.802,0.351"
         fill="none"
         stroke="#000000"
         stroke-linecap="butt"
         stroke-linejoin="round"
         stroke-opacity="1"
         stroke-width="3"
         id="path122" />
      <path
         d="m 467.939,558.679 -0.866,0.29 -0.064,0.022 -0.086,0.029 -0.354,0.118 -1.15,0.385 -0.051,0.017 -6.01,1.527 -9.723,2.335 -1.005,0.241 -9.726,2.324 -6.376,1.524 -9.726,2.324 -9.64,2.304 -9.726,2.324 -9.726,2.324 -0.255,0.061 -9.726,2.324 -6.39,1.527"
         fill="none"
         stroke="#000000"
         stroke-linecap="butt"
         stroke-linejoin="round"
         stroke-opacity="1"
         stroke-width="3"
         id="path124" />
      <path
         d="m 988.709,378.817 -0.174,0.026 -0.474,0.071 -0.269,0.052 -0.202,0.07 -0.215,0.108 -0.275,0.165"
         fill="none"
         stroke="#000000"
         stroke-linecap="butt"
         stroke-linejoin="round"
         stroke-opacity="1"
         stroke-width="3"
         id="path132" />
      <path
         d="m 987.093,379.315 0.169,-0.085 0.216,-0.128 0.112,-0.066"
         fill="none"
         stroke="#000000"
         stroke-linecap="butt"
         stroke-linejoin="round"
         stroke-opacity="1"
         stroke-width="3"
         id="path134" />
      <path
         d="m 1030.448,382.818 0.447,-0.038 0.237,-0.016 0.211,-0.104 0.206,-0.137"
         fill="none"
         stroke="#000000"
         stroke-linecap="butt"
         stroke-linejoin="round"
         stroke-opacity="1"
         stroke-width="3"
         id="path136" />
      <path
         d="m 539.966,530.552 -0.619,-0.554 -0.464,-0.414 -3.473,-3.106 -6.662,-7.458 -0.218,-0.245 -6.447,-7.645 -4.271,-5.064 -6.425,-7.662 -6.426,-7.662 -2.478,-2.955 -6.426,-7.662 -6.426,-7.663 -5.023,-5.989 -6.389,-7.693 -1.301,-1.568"
         fill="none"
         stroke="#000000"
         stroke-linecap="butt"
         stroke-linejoin="round"
         stroke-opacity="1"
         stroke-width="3"
         id="path138" />
      <path
         d="m 543.041,531.581 -3.694,-1.583"
         fill="none"
         stroke="#000000"
         stroke-linecap="butt"
         stroke-linejoin="round"
         stroke-opacity="1"
         stroke-width="3"
         id="path140" />
      <path
         d="m 555.047,453.754 1.524,1.912 6.233,7.819 5.432,6.815 6.219,7.831 5.078,6.393 6.183,7.859 3.559,4.523 6.173,7.868 0.446,0.569 3.821,5.018 1.797,2.704 0.287,0.711"
         fill="none"
         stroke="#000000"
         stroke-linecap="butt"
         stroke-linejoin="round"
         stroke-opacity="1"
         stroke-width="3"
         id="path142" />
      <path
         d="m 628.359,505.369 -7.31,-6.825 -7.312,-6.827 -7.31,-6.824 -7.309,-6.824 -2.588,-2.416 -7.309,-6.824 -7.31,-6.824 -2.504,-2.338"
         fill="none"
         stroke="#000000"
         stroke-linecap="butt"
         stroke-linejoin="round"
         stroke-opacity="1"
         stroke-width="3"
         id="path144" />
      <path
         d="m 647.379,529.938 -1.762,1.135"
         fill="none"
         stroke="#000000"
         stroke-linecap="butt"
         stroke-linejoin="round"
         stroke-opacity="1"
         stroke-width="3"
         id="path146" />
      <path
         d="m 987.613,379.044 0.267,-0.038 0.47,-0.058 0.358,-0.062"
         fill="none"
         stroke="#000000"
         stroke-linecap="butt"
         stroke-linejoin="round"
         stroke-opacity="1"
         stroke-width="3"
         id="path148" />
      <path
         d="m 1031.382,382.328 -0.145,0.098 -0.04,0.027 -0.013,0.009 -0.069,0.046 -0.128,0.06"
         fill="none"
         stroke="#000000"
         stroke-linecap="butt"
         stroke-linejoin="round"
         stroke-opacity="1"
         stroke-width="3"
         id="path150" />
      <path
         d="m 1031.329,382.32 -0.118,0.115 -0.027,0.027"
         fill="none"
         stroke="#000000"
         stroke-linecap="butt"
         stroke-linejoin="round"
         stroke-opacity="1"
         stroke-width="3"
         id="path152" />
      <path
         d="m 1026.681,357.333 -2.483,0.507 -3.064,0.417 -3.527,0.311 -3.853,0.192 -4.027,0.067 -4.044,-0.063 -3.901,-0.189 -3.607,-0.308 -3.17,-0.415 -2.613,-0.505"
         fill="none"
         stroke="#000000"
         stroke-linecap="butt"
         stroke-linejoin="round"
         stroke-opacity="1"
         stroke-width="3"
         id="path154" />
      <path
         d="m 976.687,351.561 -10e-4,0.568 0.684,1.019 1.92,0.984 3.091,0.91 4.146,0.8 2.238,0.292 0.563,0.074 2.243,0.292 5.747,0.49 6.224,0.301 6.454,0.1 6.427,-0.106 6.146,-0.306 5.619,-0.494 0.993,-0.135 0.648,-0.088 3.233,-0.439 3.939,-0.804 2.854,-0.913 1.666,-0.985 0.421,-1.02 0.053,-7.48 -0.414,-0.496"
         fill="none"
         stroke="#000000"
         stroke-linecap="butt"
         stroke-linejoin="round"
         stroke-opacity="1"
         stroke-width="3"
         id="path156" />
      <path
         d="m 1026.681,357.333 3.146,-0.706 7.174,-1.608"
         fill="none"
         stroke="#000000"
         stroke-linecap="butt"
         stroke-linejoin="round"
         stroke-opacity="1"
         stroke-width="3"
         id="path158" />
      <path
         d="m 982.381,355.042 6.383,1.47 3.628,0.835"
         fill="none"
         stroke="#000000"
         stroke-linecap="butt"
         stroke-linejoin="round"
         stroke-opacity="1"
         stroke-width="3"
         id="path160" />
      <path
         d="m 995.776,346.935 2.689,0.342 3.528,0.294 3.816,0.181 3.955,0.06 3.94,-0.063 3.768,-0.184 3.45,-0.297 2.997,-0.398 2.429,-0.483 1.768,-0.55 1.041,-0.595 0.276,-0.616"
         fill="none"
         stroke="#000000"
         stroke-linecap="butt"
         stroke-linejoin="round"
         stroke-opacity="1"
         stroke-width="3"
         id="path162" />
      <path
         d="m 1041.995,344.621 -0.421,1.002 -1.667,0.97 -2.856,0.897 -3.942,0.791 -4.876,0.651 -5.623,0.486 -6.15,0.301 -6.431,0.104 -6.458,-0.098 -6.228,-0.296 -5.751,-0.482 -2.695,-0.345"
         fill="none"
         stroke="#000000"
         stroke-linecap="butt"
         stroke-linejoin="round"
         stroke-opacity="1"
         stroke-width="3"
         id="path164" />
      <path
         d="m 1033.305,341.311 -1.538,-0.281 -2.31,-0.288"
         fill="none"
         stroke="#000000"
         stroke-linecap="butt"
         stroke-linejoin="round"
         stroke-opacity="1"
         stroke-width="3"
         id="path166" />
      <path
         d="m 1029.433,344.626 0.024,-3.884 v -0.676"
         fill="none"
         stroke="#000000"
         stroke-linecap="butt"
         stroke-linejoin="round"
         stroke-opacity="1"
         stroke-width="3"
         id="path168" />
      <path
         d="m 998.001,335.243 7.855,0.794 1.659,0.168 -0.014,3.381 -0.01,1.94 -0.011,2.571 -9.719,2.356 -1.987,0.482 -3.007,0.728 -3.872,0.939 -9.718,2.355 -2.124,0.515 -0.368,0.089 -9.719,2.356 -9.718,2.355 -9.719,2.356 -9.719,2.355 -9.718,2.356 -9.719,2.355 -9.719,2.356 -9.718,2.355 -9.719,2.356 -9.719,2.355 -9.718,2.356 -9.719,2.355 -9.718,2.356 -9.719,2.355 -9.719,2.356 -9.718,2.355 -9.719,2.356 -9.718,2.355 -9.719,2.356 -9.719,2.355 -9.718,2.356 -9.719,2.355 -9.719,2.356 -9.718,2.355 -9.719,2.356 -9.718,2.355 -9.719,2.356 -9.719,2.355 -9.718,2.356 -9.719,2.355 -9.719,2.356 -9.718,2.355 -9.719,2.356 -9.718,2.355 -9.719,2.356 -9.719,2.355 -9.718,2.356 -9.719,2.355 -9.719,2.356 -9.718,2.355 -9.719,2.356 -6.28,1.522 -2.248,0.545 -9.719,2.355 -4.696,1.138 -0.233,0.057 -9.719,2.355 -9.718,2.356 -9.719,2.355 -9.437,2.288 -9.891,-1.475 -0.813,-0.122 -6,-0.894 -8.607,-1.284 -8.566,-1.277 -5.659,-0.844 -0.266,-0.039 -1.972,-0.294 -1.196,-0.179 -7.306,-1.089 -0.326,-7.573 -0.098,-2.274 1.391,-0.319 2.683,-0.616 1.118,-0.257 1.179,-0.27 9.746,-2.238 9.747,-2.237 9.746,-2.238 9.747,-2.237 9.746,-2.238 0.919,-0.211 9.746,-2.237 4.588,-1.053 8.309,-1.908 9.747,-2.237 9.746,-2.238 9.747,-2.237 9.746,-2.238 9.747,-2.237 9.746,-2.237 9.747,-2.238 9.746,-2.237 9.747,-2.238 9.746,-2.237 9.747,-2.238 9.746,-2.237 9.747,-2.238 9.746,-2.237 9.747,-2.237 9.746,-2.238 9.747,-2.237 9.746,-2.238 9.747,-2.237 9.746,-2.238 9.747,-2.237 9.746,-2.238 9.746,-2.237 9.747,-2.237 9.746,-2.238 9.747,-2.237 9.746,-2.238 9.747,-2.237 9.746,-2.238 9.747,-2.237 9.746,-2.238 9.747,-2.237 9.746,-2.237 9.747,-2.238 9.746,-2.237 9.747,-2.238 9.746,-2.237 9.747,-2.238 9.746,-2.237 9.747,-2.238 9.746,-2.237 5.466,-1.255 8.081,-1.855 5.156,-1.184 0.967,0.098 8.386,0.848 9.916,-1.288 2.426,-0.314 4.873,-0.633 0.332,-0.043 3.227,-0.419 2.559,0.463 3.106,0.381 3.533,0.283 3.822,0.174"
         fill="none"
         stroke="#000000"
         stroke-linecap="butt"
         stroke-linejoin="round"
         stroke-opacity="1"
         stroke-width="3"
         id="path170" />
      <path
         d="m 1026.497,320.446 -2.435,0.456 -3.003,0.375 -3.458,0.279 -3.777,0.173 -2.581,0.039 -1.366,0.021 -3.965,-0.057 -3.824,-0.17 -3.536,-0.276 -3.109,-0.373 -2.561,-0.454"
         fill="none"
         stroke="#000000"
         stroke-linecap="butt"
         stroke-linejoin="round"
         stroke-opacity="1"
         stroke-width="3"
         id="path172" />
      <path
         d="m 998.001,335.243 7.874,-4.017 -0.019,4.811"
         fill="none"
         stroke="#000000"
         stroke-linecap="butt"
         stroke-linejoin="round"
         stroke-opacity="1"
         stroke-width="3"
         id="path174" />
      <path
         d="m 1039.321,333.96 -5.978,1.441 -0.01,1.365 -0.025,3.985 v 0.56 l -0.012,1.967 8.288,0.847 9.949,1.017 9.948,1.016 9.948,1.017 9.948,1.016 9.949,1.017 9.948,1.016 9.948,1.017 9.948,1.016 9.948,1.017 9.948,1.016 9.949,1.017 9.948,1.016 9.948,1.017 9.948,1.016 9.948,1.017 9.949,1.016 9.948,1.017 9.948,1.017 9.948,1.016 9.948,1.017 9.949,1.016 9.948,1.017 9.948,1.016 9.948,1.017 9.948,1.016 9.949,1.017 9.948,1.016 9.948,1.017 9.948,1.016 9.948,1.017 9.949,1.016 9.948,1.017 9.948,1.016 9.948,1.017 9.948,1.016 9.949,1.017 9.948,1.016 9.948,1.017 9.948,1.016 9.948,1.017 9.949,1.016 9.948,1.017 9.948,1.017 9.948,1.016 9.948,1.017 9.949,1.016 9.948,1.017 9.948,1.016 9.948,1.017 9.948,1.016 9.949,1.017 9.948,1.016 9.948,1.017 9.948,1.016 9.948,1.017 9.949,1.016 9.948,1.017 9.948,1.016 9.948,1.017 9.949,1.016 9.948,1.017 9.948,1.016 6.409,0.655 9.948,1.017 9.948,1.016 9.948,1.017 9.949,1.016 9.948,1.017 9.948,1.016 9.948,1.017 3.948,0.403 4.159,-2 2.327,-1.119 3.334,-1.602 3.311,-1.593 2.288,-1.1 4.036,-1.941 0.623,-8.981 -9.952,-0.976 -9.952,-0.976 -9.953,-0.975 -9.952,-0.976 -9.952,-0.976 -9.952,-0.976 -9.953,-0.975 -2.916,-0.286 -9.953,-0.976 -9.952,-0.976 -9.952,-0.975 -9.952,-0.976 -9.953,-0.976 -9.952,-0.975 -9.952,-0.976 -9.953,-0.976 -9.952,-0.976 -9.952,-0.975 -9.952,-0.976 -9.953,-0.976 -9.952,-0.975 -9.952,-0.976 -9.953,-0.976 -9.952,-0.975 -9.952,-0.976 -9.952,-0.976 -9.953,-0.976 -9.952,-0.975 -9.952,-0.976 -9.953,-0.976 -9.952,-0.975 -9.952,-0.976 -9.953,-0.976 -9.952,-0.976 -9.952,-0.975 -9.952,-0.976 -9.953,-0.976 -9.952,-0.975 -9.952,-0.976 -9.953,-0.976 -9.952,-0.976 -9.952,-0.975 -9.952,-0.976 -9.953,-0.976 -9.952,-0.975 -9.952,-0.976 -9.953,-0.976 -9.952,-0.975 -9.952,-0.976 -9.952,-0.976 -9.953,-0.976 -9.952,-0.975 -9.952,-0.976 -9.953,-0.976 -9.952,-0.975 -9.952,-0.976 -9.952,-0.976 -9.953,-0.975 -9.952,-0.976 -9.952,-0.976 -9.952,-0.976 -9.953,-0.975 -9.952,-0.976 -9.952,-0.976 -9.953,-0.975 -9.952,-0.976 -9.952,-0.976 -9.953,-0.976 -9.952,-0.975 -10.38,-1.018 -7.021,-0.688 -5.828,1.404 -0.245,-0.012 -9.362,-0.442 -9.989,-0.472 -6.417,-0.303 -0.273,-0.013 -1.042,0.573 -1.771,0.529 -0.618,0.119 -1.814,0.347 -3.001,0.383"
         fill="none"
         stroke="#000000"
         stroke-linecap="butt"
         stroke-linejoin="round"
         stroke-opacity="1"
         stroke-width="3"
         id="path176" />
      <path
         d="m 963.697,326.411 -0.002,5.363"
         fill="none"
         stroke="#000000"
         stroke-linecap="butt"
         stroke-linejoin="round"
         stroke-opacity="1"
         stroke-width="3"
         id="path178" />
      <path
         d="m 989.323,319.585 -0.012,4.623 -0.008,3.415 -0.002,0.608 -0.005,2.156"
         fill="none"
         stroke="#000000"
         stroke-linecap="butt"
         stroke-linejoin="round"
         stroke-opacity="1"
         stroke-width="3"
         id="path180" />
      <path
         d="m 1045.976,323.916 -9.917,1.29 -6.514,0.848"
         fill="none"
         stroke="#000000"
         stroke-linecap="butt"
         stroke-linejoin="round"
         stroke-opacity="1"
         stroke-width="3"
         id="path182" />
      <path
         d="m 1033.309,340.751 -3.848,-0.685 -8.493,-1.512 0.041,-7.794 4.806,0.84 3.42,0.598 0.273,0.047 4.935,0.863 4.878,0.852"
         fill="none"
         stroke="#000000"
         stroke-linecap="butt"
         stroke-linejoin="round"
         stroke-opacity="1"
         stroke-width="3"
         id="path184" />
      <path
         d="m 1026.497,320.446 3.086,-0.738 9.726,-2.326 0.675,-0.162 3.138,-0.919 1.827,-0.992 0.454,-1.026 0.012,-1.589 0.063,-8.505 -0.926,-0.996 -9.158,-4.016 -9.321,-4.088 -1.046,-0.44 -1.636,-0.404 -2.162,-0.354 -2.605,-0.289 -2.948,-0.214 -3.178,-0.131 -3.29,-0.044 -3.277,0.046 -3.139,0.134 -2.884,0.216 -2.518,0.291 -2.057,0.355 -1.515,0.405 -9.183,3.96 -8.456,3.646 -1.984,0.954 -0.636,0.995 -0.012,10.096 0.745,1.025 2.108,0.991 3.399,0.916 9.524,2.342 3.559,0.874"
         fill="none"
         stroke="#000000"
         stroke-linecap="butt"
         stroke-linejoin="round"
         stroke-opacity="1"
         stroke-width="3"
         id="path186" />
      <path
         d="m 1029.528,328.822 v -0.607 l 0.013,-2.161 0.013,-2.197 0.025,-4.149"
         fill="none"
         stroke="#000000"
         stroke-linecap="butt"
         stroke-linejoin="round"
         stroke-opacity="1"
         stroke-width="3"
         id="path188" />
      <path
         d="m 986.288,323.681 0.006,-2.395 -9.953,-0.975 -9.952,-0.976 -9.952,-0.976 -9.953,-0.975 -9.952,-0.976 -9.952,-0.976 -9.952,-0.975 -9.953,-0.976 -9.952,-0.976 -9.952,-0.976 -9.953,-0.975 -9.952,-0.976 -9.952,-0.976 -9.952,-0.975 -9.953,-0.976 -9.952,-0.976 -9.952,-0.975 -9.953,-0.976 -9.952,-0.976 -9.952,-0.976 -9.952,-0.975 -9.953,-0.976 -9.952,-0.976 -9.952,-0.975 -9.953,-0.976 -9.952,-0.976 -9.952,-0.976 -9.952,-0.975 -9.953,-0.976 -9.952,-0.976 -9.952,-0.975 -9.953,-0.976 -9.952,-0.976 -9.952,-0.976 -9.952,-0.975 -9.953,-0.976 -9.952,-0.976 -9.952,-0.975 -9.953,-0.976 -9.952,-0.976 -9.952,-0.975 -9.952,-0.976 -9.953,-0.976 -9.952,-0.976 -9.952,-0.975 -9.953,-0.976 -8.134,-0.797 -9.952,-0.976 -9.953,-0.976 -9.952,-0.976 -9.952,-0.975 -0.997,-0.098 -6.723,1.044 -3.803,0.59 -5.499,0.854 -5.525,0.857 -3.853,0.598 -6.872,1.067 0.3,6.812 9.948,1.017 9.948,1.016 9.949,1.017 9.948,1.017 1.205,0.123 9.948,1.016 9.948,1.017 9.948,1.016 9.948,1.017 9.949,1.016 9.948,1.017 9.948,1.016 9.948,1.017 9.948,1.016 9.949,1.017 9.948,1.016 9.948,1.017 9.948,1.016 9.948,1.017 9.949,1.016 9.948,1.017 9.948,1.016 9.948,1.017 9.948,1.017 9.949,1.016 9.948,1.017 9.948,1.016 9.948,1.017 9.948,1.016 9.949,1.017 9.948,1.016 9.948,1.017 9.948,1.016 9.948,1.017 9.949,1.016 9.948,1.017 9.948,1.016 9.948,1.017 9.948,1.016 9.949,1.017 9.948,1.016 9.948,1.017 9.948,1.016 9.948,1.017 9.949,1.017 9.948,1.016 9.948,1.017 9.948,1.016 9.948,1.017 9.949,1.016 13.251,1.354"
         fill="none"
         stroke="#000000"
         stroke-linecap="butt"
         stroke-linejoin="round"
         stroke-opacity="1"
         stroke-width="3"
         id="path190" />
      <path
         d="m 447.273,276.616 9.95,0.998 9.95,0.998 9.95,0.998 9.95,0.998 1.218,0.122 9.95,0.998 9.95,0.998 9.95,0.998 9.95,0.998 9.951,0.998 9.95,0.998 9.95,0.998 9.95,0.998 9.95,0.998 9.95,0.999 9.95,0.997 9.95,0.999 9.95,0.998 9.95,0.998 9.95,0.998 9.95,0.998 9.95,0.998 9.951,0.998 9.95,0.998 9.95,0.998 9.95,0.998 9.95,0.998 9.95,0.998 9.95,0.998 9.95,0.998 9.95,0.998 9.95,0.998 9.95,0.998 9.95,0.998 9.95,0.998 9.95,0.998 9.951,0.998 9.95,0.998 9.95,0.998 9.95,0.998 9.95,0.998 9.95,0.998 9.95,0.998 9.95,0.998 9.95,0.998 9.95,0.998 9.95,0.998 9.95,0.998 9.95,0.998 9.95,0.998 9.951,0.998 11.576,1.161"
         fill="none"
         stroke="#000000"
         stroke-linecap="butt"
         stroke-linejoin="round"
         stroke-opacity="1"
         stroke-width="3"
         id="path192" />
      <path
         d="m 1068.39,329.335 9.718,-2.355 9.719,-2.356 9.719,-2.355 9.718,-2.356 9.719,-2.355 9.718,-2.356 9.719,-2.355 9.719,-2.356 9.718,-2.355 9.719,-2.356 9.719,-2.355 9.718,-2.356 9.719,-2.355 9.718,-2.356 9.719,-2.355 9.719,-2.356 9.718,-2.355 9.719,-2.356 9.719,-2.355 9.718,-2.356 9.719,-2.355 9.718,-2.356 9.719,-2.355 9.719,-2.356 9.718,-2.355 9.719,-2.356 11.915,-2.888 9.719,-2.355 9.718,-2.356 3.439,-0.833 0.217,-6.387 -8.284,-0.621 -4.652,-0.348 -6.682,-0.501 -6.663,-0.5 -4.614,-0.346 -8.172,-0.612 -9.747,2.237 -9.746,2.238 -3.814,0.875 -9.747,2.238 -9.746,2.237 -9.747,2.238 -9.746,2.237 -9.747,2.237 -9.746,2.238 -9.747,2.237 -9.746,2.238 -9.747,2.237 -9.746,2.238 -9.747,2.237 -9.746,2.238 -9.747,2.237 -9.746,2.237 -9.747,2.238 -9.746,2.237 -9.747,2.238 -9.746,2.237 -9.746,2.238 -9.747,2.237 -9.746,2.238 -9.747,2.237 -9.746,2.237 -9.747,2.238 -9.746,2.237 -4.631,1.063"
         fill="none"
         stroke="#000000"
         stroke-linecap="butt"
         stroke-linejoin="round"
         stroke-opacity="1"
         stroke-width="3"
         id="path194" />
      <path
         d="m 465.754,445.764 1.886,0.276 1.162,0.171 4.242,0.621 3.192,0.467 5.929,0.868 8.572,1.255 8.613,1.261 6.005,0.879 9.895,1.449 0.817,0.12"
         fill="none"
         stroke="#000000"
         stroke-linecap="butt"
         stroke-linejoin="round"
         stroke-opacity="1"
         stroke-width="3"
         id="path196" />
      <path
         d="m 957.572,332.86 -10e-4,-5.06 6.126,-1.389 9.988,0.473 6.627,0.314 5.968,0.282 3.023,0.143"
         fill="none"
         stroke="#000000"
         stroke-linecap="butt"
         stroke-linejoin="round"
         stroke-opacity="1"
         stroke-width="3"
         id="path198" />
      <path
         d="m 986.294,321.286 -5.974,1.355 5.968,1.04 3.023,0.527"
         fill="none"
         stroke="#000000"
         stroke-linecap="butt"
         stroke-linejoin="round"
         stroke-opacity="1"
         stroke-width="3"
         id="path200" />
      <path
         d="m 1033.343,335.401 5.964,0.598 9.95,0.998 9.95,0.998 9.95,0.998 9.95,0.998 9.95,0.998 9.95,0.998 9.951,0.998 9.95,0.998 9.95,0.998 9.95,0.998 9.95,0.998 9.95,0.998 9.95,0.998 9.95,0.998 9.95,0.998 9.95,0.998 9.95,0.998 9.95,0.998 9.95,0.998 9.95,0.998 9.951,0.998 9.95,0.998 9.95,0.998 9.95,0.998 9.95,0.998 9.95,0.998 9.95,0.998 9.95,0.998 9.95,0.998 9.95,0.998 9.95,0.998 9.95,0.998 9.95,0.998 9.95,0.998 9.951,0.998 9.95,0.998 9.95,0.998 9.95,0.999 9.95,0.998 9.95,0.998 9.95,0.998 9.95,0.998 9.95,0.998 9.95,0.998 9.95,0.998 9.95,0.998 9.95,0.998 9.951,0.998 9.95,0.998 9.95,0.998 9.95,0.998 9.95,0.998 9.95,0.998 9.95,0.998 9.95,0.998 9.95,0.998 9.95,0.998 9.95,0.998 9.95,0.998 9.95,0.998 9.95,0.998 9.951,0.998 9.119,0.915 9.95,0.998 9.95,0.998 9.95,0.998 9.95,0.998 9.95,0.998 9.95,0.998 9.951,0.998 4.001,0.401"
         fill="none"
         stroke="#000000"
         stroke-linecap="butt"
         stroke-linejoin="round"
         stroke-opacity="1"
         stroke-width="3"
         id="path202" />
      <path
         d="m 1758.442,396.987 -4.037,1.907 -2.288,1.08 -3.312,1.565 -3.334,1.575 -2.328,1.099 -4.16,1.965 -0.619,9.145"
         fill="none"
         stroke="#000000"
         stroke-linecap="butt"
         stroke-linejoin="round"
         stroke-opacity="1"
         stroke-width="3"
         id="path204" />
      <path
         d="m 1007.515,336.205 -9.524,2.266 -0.082,0.019 -8.639,2.056 -0.707,0.168 -9.728,2.315 -0.727,0.172 -9.728,2.315 -9.729,2.315 -9.728,2.314 -9.729,2.315 -9.728,2.314 -9.728,2.315 -9.729,2.315 -9.728,2.314 -9.729,2.315 -9.728,2.314 -9.729,2.315 -9.728,2.315 -9.729,2.314 -9.728,2.315 -9.728,2.314 -9.729,2.315 -9.728,2.315 -9.729,2.314 -9.728,2.315 -9.729,2.314 -9.728,2.315 -9.729,2.315 -9.728,2.314 -9.728,2.315 -9.729,2.314 -9.728,2.315 -9.729,2.315 -9.728,2.314 -9.729,2.315 -9.728,2.314 -9.729,2.315 -9.728,2.315 -9.728,2.314 -9.729,2.315 -9.728,2.314 -9.729,2.315 -9.728,2.315 -9.729,2.314 -9.728,2.315 -9.729,2.314 -9.728,2.315 -7.629,1.815 -9.728,2.315 -0.537,0.127 -9.728,2.315 -3.204,0.762 -9.729,2.315 -9.728,2.314 -9.729,2.315 -3.163,0.753 0.387,9.977"
         fill="none"
         stroke="#000000"
         stroke-linecap="butt"
         stroke-linejoin="round"
         stroke-opacity="1"
         stroke-width="3"
         id="path206" />
      <path
         d="m 1055.339,324.827 -0.043,5.212"
         fill="none"
         stroke="#000000"
         stroke-linecap="butt"
         stroke-linejoin="round"
         stroke-opacity="1"
         stroke-width="3"
         id="path208" />
      <path
         d="m 1356.082,253.273 -9.728,2.315 -9.728,2.315 -3.429,0.815 -9.729,2.315 -9.728,2.315 -9.729,2.314 -9.728,2.315 -9.728,2.314 -9.729,2.315 -9.728,2.315 -9.729,2.314 -9.728,2.315 -9.729,2.314 -9.728,2.315 -9.729,2.315 -9.728,2.314 -9.728,2.315 -9.729,2.314 -9.728,2.315 -9.729,2.315 -9.728,2.314 -9.729,2.315 -9.728,2.314 -9.729,2.315 -9.728,2.315 -9.728,2.314 -9.729,2.315 -9.728,2.314 -9.729,2.315 -9.728,2.315 -9.729,2.314 -5.461,1.3 -9.363,-0.911 -0.042,5.681"
         fill="none"
         stroke="#000000"
         stroke-linecap="butt"
         stroke-linejoin="round"
         stroke-opacity="1"
         stroke-width="3"
         id="path210" />
      <path
         d="m 1039.984,317.22 -4.335,0.81 -5.368,0.667 -6.192,0.499 -6.774,0.308 -1.673,0.025 -5.413,0.081 -7.115,-0.1 -6.861,-0.304 -6.333,-0.493 -5.557,-0.664 -4.564,-0.806"
         fill="none"
         stroke="#000000"
         stroke-linecap="butt"
         stroke-linejoin="round"
         stroke-opacity="1"
         stroke-width="3"
         id="path212" />
      <path
         d="m 1045.478,304.189 -0.455,1.001 -1.828,0.967 -3.141,0.897 -4.338,0.79 -5.373,0.651 -6.198,0.486 -6.779,0.301 -7.092,0.104 -7.122,-0.098 -6.867,-0.296 -6.339,-0.482 -5.561,-0.647 -4.569,-0.787 -3.401,-0.894 -2.11,-0.966 -0.746,-1.001"
         fill="none"
         stroke="#000000"
         stroke-linecap="butt"
         stroke-linejoin="round"
         stroke-opacity="1"
         stroke-width="3"
         id="path214" />
      <path
         d="m 469.828,444.829 0.388,-0.618 0.306,-0.807 0.023,-0.062 0.015,-0.041 10e-4,-0.002 0.147,-0.387 0.211,-0.558 0.395,-2.071 0.069,-2.203 -0.259,-2.252 -0.577,-2.213 -0.873,-2.088 -1.135,-1.882 -1.107,-1.313 -0.246,-0.291 -0.284,-0.237 -0.043,-0.036 -0.041,-0.034 -1.15,-0.957 -1.625,-0.876 -0.666,-0.181 -1.003,-0.272 -0.375,-0.003 -1.274,-0.011 -8.602,1.895"
         fill="none"
         stroke="#000000"
         stroke-linecap="butt"
         stroke-linejoin="round"
         stroke-opacity="1"
         stroke-width="3"
         id="path216" />
      <path
         d="m 469.811,429.868 -1.051,-0.874 -1.125,-0.606 -0.203,-0.056"
         fill="none"
         stroke="#000000"
         stroke-linecap="butt"
         stroke-linejoin="round"
         stroke-opacity="1"
         stroke-width="3"
         id="path218" />
      <path
         d="m 471.67,443.05 0.129,-0.034 0.987,-0.58 0.851,-0.849 0.682,-1.088 0.487,-1.284 0.273,-1.431 0.049,-1.522 -0.179,-1.555 -0.398,-1.528 -0.603,-1.442 -0.784,-1.3 -0.935,-1.108 -0.916,-0.762"
         fill="none"
         stroke="#000000"
         stroke-linecap="butt"
         stroke-linejoin="round"
         stroke-opacity="1"
         stroke-width="3"
         id="path220" />
      <path
         d="m 461.999,425.445 -1.593,-4.385 -0.434,-9.99 -0.435,-9.991 -0.434,-9.99 -0.435,-9.991 -0.36,-8.281 -0.434,-9.991 -0.435,-9.99 -0.087,-1.999 1.192,-0.224 1.501,0.181 2.124,0.256 2.212,0.266 2.215,0.267 2.132,0.257 1.509,0.181 0.423,9.991 0.424,9.991 0.087,2.055 0.423,9.991 0.423,9.991 0.424,9.991 0.423,9.991 0.356,8.405 -1.907,6.14 -0.322,1.038 -1.18,0.263 0.307,-0.99 0.264,-0.852 1.657,-5.339 -0.424,-9.991 -0.424,-9.991 -0.425,-9.991 -0.424,-9.991 -0.358,-8.429 -0.425,-9.99 -0.424,-9.992 -0.088,-2.065"
         fill="none"
         stroke="#000000"
         stroke-linecap="butt"
         stroke-linejoin="round"
         stroke-opacity="1"
         stroke-width="3"
         id="path222" />
      <path
         d="m 470.237,352.021 -1.19,0.226 -1.509,-0.182 -2.133,-0.257 -2.215,-0.267 -2.212,-0.267 -2.125,-0.256 -1.501,-0.181"
         fill="none"
         stroke="#000000"
         stroke-linecap="butt"
         stroke-linejoin="round"
         stroke-opacity="1"
         stroke-width="3"
         id="path224" />
      <path
         d="m 463.729,497.472 0.434,9.991 0.435,9.99 0.032,0.747 1.482,0.246 2.099,0.35 2.184,0.363 2.188,0.364 2.105,0.351 1.491,0.248 1.168,-0.308 -0.056,-1.319"
         fill="none"
         stroke="#000000"
         stroke-linecap="butt"
         stroke-linejoin="round"
         stroke-opacity="1"
         stroke-width="3"
         id="path226" />
      <path
         d="m 476.179,520.122 -0.158,-3.707"
         fill="none"
         stroke="#000000"
         stroke-linecap="butt"
         stroke-linejoin="round"
         stroke-opacity="1"
         stroke-width="3"
         id="path228" />
      <path
         d="m 931.248,799.674 9.775,2.113 9.774,2.113 9.774,2.113 9.774,2.114 9.774,2.113 9.774,2.113 9.774,2.114 9.775,2.113 9.774,2.113 9.774,2.113 9.774,2.114 5.668,1.225 7.135,1.543 9.774,2.113 9.774,2.113 9.774,2.114 5.676,1.227"
         fill="none"
         stroke="#000000"
         stroke-linecap="butt"
         stroke-linejoin="round"
         stroke-opacity="1"
         stroke-width="3"
         id="path230" />
      <path
         d="m 1106.059,837.47 9.774,2.113 9.775,2.113 9.774,2.114 9.774,2.113 9.774,2.113 9.774,2.114 9.774,2.113 9.774,2.113 9.775,2.113 9.774,2.114 9.774,2.113 9.774,2.113 3.164,0.684 7.766,1.68 9.774,2.113 9.775,2.113 9.774,2.113 9.774,2.114 9.774,2.113 9.774,2.113 9.774,2.114 9.775,2.113 9.774,2.113 9.774,2.113 2.191,0.474 9.948,1.024 2.674,0.276 2.31,-0.183 9.927,-1.212 2.533,-0.309 9.363,-3.514 2.16,-0.811 8.224,-5.688 1.848,-1.278 6.588,-7.522 1.576,-1.8 4.219,-8.098 0.929,-2.031 0.293,-1.741 -0.857,-1.579 -1.244,-2.149 -2.882,-2.127 -3.748,-1.541 -3.615,-0.543 -1.413,0.319 -3.02,0.718 -1.299,1.325 -2.519,4.896 -5.793,6.697 -7.166,5.026 -8.218,3.148 -7.233,0.93 -1.675,0.215"
         fill="none"
         stroke="#000000"
         stroke-linecap="butt"
         stroke-linejoin="round"
         stroke-opacity="1"
         stroke-width="3"
         id="path232" />
      <path
         d="m 921.882,776.875 -1.571,-1.207 -3.234,-3.319 -1.018,-1.377"
         fill="none"
         stroke="#000000"
         stroke-linecap="butt"
         stroke-linejoin="round"
         stroke-opacity="1"
         stroke-width="3"
         id="path234" />
      <path
         d="m 1239.758,820.791 -0.252,9.997 -0.253,9.997 -0.157,6.23 -2.183,0.14 -2.249,2.542 0.248,-9.997 0.249,-9.997 0.221,-8.902"
         fill="none"
         stroke="#000000"
         stroke-linecap="butt"
         stroke-linejoin="round"
         stroke-opacity="1"
         stroke-width="3"
         id="path236" />
      <path
         d="m 1347.797,869.032 -8.809,-0.855 -9.783,-2.073 -9.783,-2.072 -9.783,-2.073 -9.782,-2.072 -9.783,-2.073 -9.783,-2.072 -9.783,-2.073 -9.783,-2.072 -9.783,-2.073 -9.783,-2.072 -2.063,-0.437"
         fill="none"
         stroke="#000000"
         stroke-linecap="butt"
         stroke-linejoin="round"
         stroke-opacity="1"
         stroke-width="3"
         id="path238" />
      <path
         d="m 1056.517,799.588 -0.076,8.732 -2.363,0.078 -2.388,2.386 0.083,-9.999 0.017,-2.13"
         fill="none"
         stroke="#000000"
         stroke-linecap="butt"
         stroke-linejoin="round"
         stroke-opacity="1"
         stroke-width="3"
         id="path240" />
      <path
         d="m 790.274,895.173 9.706,2.407 9.706,2.408 9.705,2.408 9.706,2.408 9.706,2.408 9.706,2.407 9.706,2.408 9.705,2.408 2.887,0.716 7.526,1.867 9.706,2.408 9.706,2.408 9.706,2.408 9.706,2.408 9.705,2.408 9.706,2.407 9.706,2.408 9.706,2.408 9.706,2.408 9.705,2.408 9.706,2.408 9.706,2.408 9.706,2.407 9.705,2.408 9.706,2.408 9.706,2.408 9.706,2.408 9.706,2.408 10.637,2.638 8.263,2.05 9.706,2.408 9.706,2.408 9.706,2.408 9.705,2.408 9.706,2.408 9.706,2.407 9.706,2.408 9.706,2.408 9.705,2.408 9.706,2.408 9.549,2.369 9.914,1.308 3.567,0.471 9.951,-0.993 3.085,-0.308 3.062,-0.403 9.403,-3.404 2.842,-1.029 8.224,-5.689 2.443,-1.69 6.511,-7.59 2.091,-2.438 1.44,-2.692 4.279,-8.55 0.27,-1.894 -1.39,-3.037 -0.762,-1.219 -3.037,-2.467 -4.102,-1.744 -4.076,-0.559 -1.451,0.277 -3.553,0.931 -1.369,1.422 -1.353,2.429 -1.642,3.327 -1.101,2.231"
         fill="none"
         stroke="#000000"
         stroke-linecap="butt"
         stroke-linejoin="round"
         stroke-opacity="1"
         stroke-width="3"
         id="path242" />
      <path
         d="m 1201.007,971.232 -6.827,0.729 -9.923,-1.244 -0.163,-0.02 -9.718,-2.361 -9.717,-2.361 -9.717,-2.361 -9.718,-2.362 -9.717,-2.361 -9.717,-2.361 -9.717,-2.361 -9.718,-2.361 -9.717,-2.361 -9.717,-2.361 -9.397,-2.284 0.107,-9.999 0.107,-9.999 0.107,-10 0.108,-9.999 0.102,-9.571 0.602,-9.982 0.145,-2.404 1.689,-9.857 0.623,-3.637 3.257,-9.454 0.41,-1.188 4.736,-6.989 5.488,-7.01 5.96,-4.434 5.094,-2.809 8.757,-4.829 8.757,-4.829 6.905,-3.807 8.757,-4.829 8.757,-4.829 1.434,-0.79"
         fill="none"
         stroke="#000000"
         stroke-linecap="butt"
         stroke-linejoin="round"
         stroke-opacity="1"
         stroke-width="3"
         id="path244" />
      <path
         d="m 1222.892,955.955 -5.727,6.769 -7.585,5.331 -8.573,3.177 -0.158,0.058"
         fill="none"
         stroke="#000000"
         stroke-linecap="butt"
         stroke-linejoin="round"
         stroke-opacity="1"
         stroke-width="3"
         id="path246" />
      <path
         d="m 1077.524,944.802 -2.688,0.323 -2.724,2.953 0.102,-10 0.102,-9.999 0.103,-10 0.102,-9.999 0.099,-9.714 0.639,-9.979 0.335,-5.223 2.013,-9.795 0.895,-4.355 3.292,-9.442 1.338,-3.837 4.652,-8.852 1.337,-2.544 6.22,-7.83 0.661,-0.832 0.855,-0.629 6.233,-4.59 8.778,-4.789 7.961,-4.344 8.779,-4.789 8.791,-4.797"
         fill="none"
         stroke="#000000"
         stroke-linecap="butt"
         stroke-linejoin="round"
         stroke-opacity="1"
         stroke-width="3"
         id="path248" />
      <path
         d="m 883.732,864.179 0.069,10 0.069,9.999 0.069,10 0.025,3.593 -2.88,0.231 -2.871,2.752 -0.075,-10 -0.074,-10 -0.074,-9.999 -0.059,-7.938"
         fill="none"
         stroke="#000000"
         stroke-linecap="butt"
         stroke-linejoin="round"
         stroke-opacity="1"
         stroke-width="3"
         id="path250" />
      <path
         d="m 1126.265,810.556 -8.792,4.764 -7.867,4.263 -8.792,4.764 -7.998,4.334 -6.251,4.574 -0.857,0.627 -6.239,7.814 -0.658,0.825 -4.668,8.844 -1.332,2.525 -3.302,9.439 -1.333,3.811 -2.016,9.794 -0.891,4.326 -0.634,9.98 -0.33,5.195 -0.095,9.999 -0.094,10 -0.095,9.999 -0.095,10 -0.048,5.054 -0.043,4.571"
         fill="none"
         stroke="#000000"
         stroke-linecap="butt"
         stroke-linejoin="round"
         stroke-opacity="1"
         stroke-width="3"
         id="path252" />
      <path
         d="m 875.062,820.353 -1.147,3.047 -2.092,9.83"
         fill="none"
         stroke="#000000"
         stroke-linecap="butt"
         stroke-linejoin="round"
         stroke-opacity="1"
         stroke-width="3"
         id="path254" />
      <path
         d="m 879.4,834.955 2.094,-9.849 1.871,-4.985"
         fill="none"
         stroke="#000000"
         stroke-linecap="butt"
         stroke-linejoin="round"
         stroke-opacity="1"
         stroke-width="3"
         id="path256" />
      <path
         d="m 884.686,836.159 1.779,-8.514 2.85,-7.69"
         fill="none"
         stroke="#000000"
         stroke-linecap="butt"
         stroke-linejoin="round"
         stroke-opacity="1"
         stroke-width="3"
         id="path258" />
      <path
         d="m 902.188,786.016 -2.525,1.172 -6.752,4.303"
         fill="none"
         stroke="#000000"
         stroke-linecap="butt"
         stroke-linejoin="round"
         stroke-opacity="1"
         stroke-width="3"
         id="path260" />
      <path
         d="m 899.299,819.677 6.544,1.458 1.256,0.28 1.821,0.406 9.761,2.175 8.741,1.947 1.099,0.245 0.631,0.141 0.004,0.001 0.128,0.028 9.76,2.175 9.761,2.175 9.703,2.162 9.832,1.826 0.189,0.035 9.535,1.03 8.385,0.122 1.041,0.014 6.42,-0.802 0.846,-0.291 3.902,-1.577 0.574,-0.395 0.552,-0.577 0.51,-0.737 0.447,-0.869 0.367,-0.968 0.275,-1.028 0.17,-1.051 0.06,-1.033 -0.052,-0.975 -0.164,-0.88 -0.268,-0.752 -0.362,-0.594 -2.904,-3.076 -0.653,-0.61 -5.511,-3.421 -7.514,-3.331 -1.117,-0.481 -9.09,-3.057 -9.692,-2.461 -0.18,-0.045 -9.774,-2.114 -9.774,-2.113 -9.774,-2.114 -1.775,-0.384 -1.649,-0.356"
         fill="none"
         stroke="#000000"
         stroke-linecap="butt"
         stroke-linejoin="round"
         stroke-opacity="1"
         stroke-width="3"
         id="path262" />
      <path
         d="m 778.404,738.448 -5.547,-6.601 -2.321,-2.76 -2.48,-0.514 -1.075,0.022 -0.065,0.051 -0.997,0.792 4.128,9.108 1.037,2.289"
         fill="none"
         stroke="#000000"
         stroke-linecap="butt"
         stroke-linejoin="round"
         stroke-opacity="1"
         stroke-width="3"
         id="path264" />
      <path
         d="m 765.919,729.438 2.481,0.514 6.31,7.758 1.249,1.536"
         fill="none"
         stroke="#000000"
         stroke-linecap="butt"
         stroke-linejoin="round"
         stroke-opacity="1"
         stroke-width="3"
         id="path266" />
      <path
         d="m 905.289,773.143 6.374,7.705 0.46,0.556 6.374,7.706 0.068,0.083 2.191,2.649 5.552,6.711 0.16,0.194 0.253,0.306 2.02,2.442 -9.773,-2.119 -2.365,-0.512 -7.35,-1.594 -2.127,-0.461 -1.14,-2.491 -0.256,-0.559 -1.418,-3.101 -2.124,-4.642 -4.16,-9.094 -0.967,-2.114"
         fill="none"
         stroke="#000000"
         stroke-linecap="butt"
         stroke-linejoin="round"
         stroke-opacity="1"
         stroke-width="3"
         id="path268" />
      <path
         d="m 901.308,809.371 -7.123,1.211 -7.595,1.292 -1.838,0.312 -7.068,1.202 -3.747,0.637 -9.859,1.676 -5.3,0.901 -0.245,1.89 0.277,1.644 2.647,0.596 9.997,-0.279 3.608,-0.1 5.976,-0.167 2.327,-0.065 5.95,-0.166 9.984,-0.278 9.997,-0.279 9.996,-0.279 3.666,-0.102"
         fill="none"
         stroke="#000000"
         stroke-linecap="butt"
         stroke-linejoin="round"
         stroke-opacity="1"
         stroke-width="3"
         id="path270" />
      <path
         d="m 901.308,809.371 9.766,2.15 9.766,2.151 2.102,0.462 -9.988,0.498 -8.005,0.398 -9.987,0.497 -3.707,0.185 -7.969,0.396 -6.752,0.336 -9.988,0.497 -5.12,0.255 -2.648,-0.594"
         fill="none"
         stroke="#000000"
         stroke-linecap="butt"
         stroke-linejoin="round"
         stroke-opacity="1"
         stroke-width="3"
         id="path272" />
      <path
         d="m 931.624,800.114 -0.264,-0.309 -0.112,-0.131 -6.491,-7.607 -1.285,-1.507 -3.123,-3.66 -2.582,-3.025 -3.111,-3.646 -6.533,-7.657"
         fill="none"
         stroke="#000000"
         stroke-linecap="butt"
         stroke-linejoin="round"
         stroke-opacity="1"
         stroke-width="3"
         id="path274" />
      <path
         d="m 875.373,779.205 0.065,8.507 -1.412,-0.057 -1.466,0.434 -1.464,0.909 -1.407,1.35"
         fill="none"
         stroke="#000000"
         stroke-linecap="butt"
         stroke-linejoin="round"
         stroke-opacity="1"
         stroke-width="3"
         id="path276" />
      <path
         d="m 844.391,807.441 9.761,2.175 9.76,2.175 5.962,1.329 4.063,0.905"
         fill="none"
         stroke="#000000"
         stroke-linecap="butt"
         stroke-linejoin="round"
         stroke-opacity="1"
         stroke-width="3"
         id="path278" />
      <path
         d="m 869.608,780.373 0.081,9.975 -9.772,-2.122 -9.772,-2.123 -4.249,-0.923"
         fill="none"
         stroke="#000000"
         stroke-linecap="butt"
         stroke-linejoin="round"
         stroke-opacity="1"
         stroke-width="3"
         id="path280" />
      <path
         d="m 833.383,852.362 5.327,1.251 1.332,0.312 1.961,0.46 9.736,2.285 8.959,2.103 1.142,0.268 0.666,0.156 0.004,10e-4 0.151,0.036 7.708,1.809 5.816,1.365 1.746,0.409 5.801,1.362 8.654,2.031 9.812,1.931 0.41,0.08 9.731,1.144 8.564,0.192 1.122,-0.007 6.55,-0.777 0.91,-0.319 3.967,-1.595 0.616,-0.42 0.591,-0.608 0.545,-0.773 0.476,-0.907 0.39,-1.008 0.289,-1.069 0.178,-1.089 0.058,-1.069 -0.063,-1.006 -0.181,-0.906 -0.294,-0.771 -0.394,-0.606 -2.92,-3.235 -0.708,-0.617 -5.597,-3.604 -7.645,-3.524 -1.207,-0.474 -9.074,-3.179 -0.03,-0.01 -0.049,-0.018 -0.112,-0.039 -0.435,-0.115 -9.315,-2.479 -0.316,-0.084 -1.203,-0.274 -9.75,-2.22 -2.616,-0.596 -5.286,-1.204 -2.277,-0.518 -5.3,-1.207 -5.27,-1.2 -0.94,-0.214 -0.881,-0.201"
         fill="none"
         stroke="#000000"
         stroke-linecap="butt"
         stroke-linejoin="round"
         stroke-opacity="1"
         stroke-width="3"
         id="path282" />
      <path
         d="m 705.014,762.367 -4.166,-5.029 -2.521,-0.55 -1.153,0.039 -1.135,0.887 2.978,6.618"
         fill="none"
         stroke="#000000"
         stroke-linecap="butt"
         stroke-linejoin="round"
         stroke-opacity="1"
         stroke-width="3"
         id="path284" />
      <path
         d="m 696.039,757.714 2.522,0.551 3.943,4.924"
         fill="none"
         stroke="#000000"
         stroke-linecap="butt"
         stroke-linejoin="round"
         stroke-opacity="1"
         stroke-width="3"
         id="path286" />
      <path
         d="m 670.872,784.683 -0.43,0.114 -2.103,1.18 -2.009,1.754 -1.838,2.263 -1.595,2.684 -1.289,3.001 -0.932,3.202 -0.539,3.278 -0.125,3.226 0.294,3.048 0.702,2.752 1.08,2.349 1.416,1.856 1.697,1.291 1.911,0.68 2.051,0.043 2.112,-0.594 9.394,-3.429 1.635,-0.597"
         fill="none"
         stroke="#000000"
         stroke-linecap="butt"
         stroke-linejoin="round"
         stroke-opacity="1"
         stroke-width="3"
         id="path288" />
      <path
         d="m 687.208,794.798 -0.286,0.151 -0.358,0.204 -0.898,0.511 -0.476,0.421 -0.486,0.43 -0.237,0.21 -1.098,1.365 -0.952,1.616 -0.769,1.806 -0.558,1.926 -0.324,1.97 -0.077,1.939 0.172,1.832 0.383,1.529 0.032,0.126 0.235,0.519 0.406,0.894 0.387,0.537 1.796,2.489 0.909,1.205"
         fill="none"
         stroke="#000000"
         stroke-linecap="butt"
         stroke-linejoin="round"
         stroke-opacity="1"
         stroke-width="3"
         id="path290" />
      <path
         d="m 695.355,814.77 -9.867,1.629 -0.479,0.079 -9.866,1.63 -9.867,1.629 -0.594,0.098 -0.241,1.897 0.336,1.648 2.528,0.601 9.996,-0.278 9.997,-0.278 8.258,-0.23"
         fill="none"
         stroke="#000000"
         stroke-linecap="butt"
         stroke-linejoin="round"
         stroke-opacity="1"
         stroke-width="3"
         id="path292" />
      <path
         d="m 825.923,789.24 6.316,7.754 6.315,7.753 1.387,1.702 6.316,7.754 6.403,7.861 6.316,7.753 0.487,0.598 0.317,0.389 2.188,2.686 -9.749,-2.226 -1.936,-0.442 -9.749,-2.226 -0.592,-0.135 -1.262,-2.778 -4.136,-9.105 -4.136,-9.104 -1.591,-3.504 -4.137,-9.104 -2.234,-4.919"
         fill="none"
         stroke="#000000"
         stroke-linecap="butt"
         stroke-linejoin="round"
         stroke-opacity="1"
         stroke-width="3"
         id="path294" />
      <path
         d="m 833.759,841.548 -9.853,1.71 -9.852,1.71 -7.002,1.215 -9.853,1.709 -8.019,1.392 -0.252,1.957 0.309,1.693 2.695,0.641 9.996,-0.293 9.996,-0.292 9.995,-0.292 9.996,-0.293 1.468,-0.043 9.996,-0.292 9.996,-0.292 2.475,-0.073"
         fill="none"
         stroke="#000000"
         stroke-linecap="butt"
         stroke-linejoin="round"
         stroke-opacity="1"
         stroke-width="3"
         id="path296" />
      <path
         d="m 833.759,841.548 9.742,2.26 9.741,2.259 2.56,0.594 -9.987,0.51 -7.721,0.393 -9.987,0.51 -9.987,0.509 -0.69,0.035 -9.987,0.51 -9.987,0.509 -5.579,0.284 -2.697,-0.637"
         fill="none"
         stroke="#000000"
         stroke-linecap="butt"
         stroke-linejoin="round"
         stroke-opacity="1"
         stroke-width="3"
         id="path298" />
      <path
         d="m 695.456,819.035 -3.367,0.167 -9.987,0.494 -9.988,0.495 -4.902,0.242 -2.53,-0.598"
         fill="none"
         stroke="#000000"
         stroke-linecap="butt"
         stroke-linejoin="round"
         stroke-opacity="1"
         stroke-width="3"
         id="path300" />
      <path
         d="m 865.613,831.816 -6.167,-7.872 -3.329,-4.25 -1.746,-0.393"
         fill="none"
         stroke="#000000"
         stroke-linecap="butt"
         stroke-linejoin="round"
         stroke-opacity="1"
         stroke-width="3"
         id="path302" />
      <path
         d="m 865.062,832.007 -0.33,-0.392 -6.438,-7.651 -3.923,-4.663 -6.439,-7.651 -3.541,-4.209 -6.438,-7.652 -6.439,-7.651 -2.899,-3.445"
         fill="none"
         stroke="#000000"
         stroke-linecap="butt"
         stroke-linejoin="round"
         stroke-opacity="1"
         stroke-width="3"
         id="path304" />
      <path
         d="m 807.555,792.974 0.055,4.002 0.005,0.343 10e-4,0.076 0.025,1.857 0.137,9.999 0.13,9.424 -1.518,-0.033 -1.573,0.475 -1.569,0.965 -1.504,1.42"
         fill="none"
         stroke="#000000"
         stroke-linecap="butt"
         stroke-linejoin="round"
         stroke-opacity="1"
         stroke-width="3"
         id="path306" />
      <path
         d="m 769.577,837.387 0.468,0.11 9.735,2.285 9.736,2.285 9.735,2.285 2.828,0.663 4.973,1.168"
         fill="none"
         stroke="#000000"
         stroke-linecap="butt"
         stroke-linejoin="round"
         stroke-opacity="1"
         stroke-width="3"
         id="path308" />
      <path
         d="m 801.354,794.235 0.048,3.352 0.004,0.275 0.06,4.166 v 0.006 l 0.003,0.228 0.143,9.999 0.132,9.241 -9.749,-2.23 -9.318,-2.132 -0.054,-0.013 -0.028,-0.006 -9.185,-2.101 -3.766,-0.862 -0.072,-4.212 -0.156,-9.121"
         fill="none"
         stroke="#000000"
         stroke-linecap="butt"
         stroke-linejoin="round"
         stroke-opacity="1"
         stroke-width="3"
         id="path310" />
      <path
         d="m 762.522,887.496 4.067,1.008 1.417,0.351 2.117,0.525 9.707,2.406 9.157,2.27 1.189,0.295 0.705,0.174 0.004,10e-4 0.178,0.044 9.706,2.406 9.706,2.406 9.707,2.406 1.101,0.273 9.788,2.047 0.636,0.133 9.931,1.273 8.746,0.272 1.213,-0.032 6.681,-0.746 0.982,-0.35 4.03,-1.611 0.663,-0.448 0.635,-0.642 0.583,-0.811 0.509,-0.95 0.415,-1.05 0.306,-1.113 0.184,-1.131 0.057,-1.107 -0.075,-1.04 -0.202,-0.933 -0.147,-0.363 -0.175,-0.429 -0.429,-0.618 -2.932,-3.408 -0.768,-0.623 -5.681,-3.806 -7.776,-3.737 -9.321,-3.412 -0.313,-0.112 -0.035,-0.012 -0.048,-0.017 -0.546,-0.195 -0.485,-0.172 -7.542,-2.11 -1.567,-0.438 -1.152,-0.322 -9.723,-2.338 -9.722,-2.339 -9.723,-2.338 -2.782,-0.669 -0.362,-0.087 -2.016,-0.484"
         fill="none"
         stroke="#000000"
         stroke-linecap="butt"
         stroke-linejoin="round"
         stroke-opacity="1"
         stroke-width="3"
         id="path312" />
      <path
         d="m 665.13,835.395 -0.387,-0.474 -6.376,-7.815 -1.19,-1.459 -6.322,-7.748 -6.321,-7.748 -6.322,-7.749 -6.322,-7.748 -5.739,-7.034 -2.56,-0.59 -1.241,0.058 -1.215,0.935 4.078,9.131 4.077,9.131 4.077,9.131 4.078,9.131 1.905,4.267 1.343,3.008"
         fill="none"
         stroke="#000000"
         stroke-linecap="butt"
         stroke-linejoin="round"
         stroke-opacity="1"
         stroke-width="3"
         id="path314" />
      <path
         d="m 621.135,788.023 2.562,0.591 6.186,7.858 6.185,7.857 6.186,7.858 6.185,7.857 6.186,7.857 0.881,1.12 3.572,4.538 0.37,0.469 2.252,2.86 -9.015,-2.174 -9.721,-2.344 -2.271,-0.548"
         fill="none"
         stroke="#000000"
         stroke-linecap="butt"
         stroke-linejoin="round"
         stroke-opacity="1"
         stroke-width="3"
         id="path316" />
      <path
         d="m 612.122,826.431 -6.706,-7.418 -1.638,-1.812 -1.81,-1.331 -2.043,-0.703 -2.199,-0.047 -2.269,0.614 -2.253,1.252 -2.15,1.845 -1.962,2.368 -1.698,2.799 -1.368,3.122 -0.983,3.324 -0.56,3.395 -0.115,3.336 0.335,3.144 0.77,2.831 1.175,2.409 1.534,1.893 1.832,1.306 2.058,0.67 2.205,0.009 2.266,-0.648 9.398,-3.417 1.388,-0.504"
         fill="none"
         stroke="#000000"
         stroke-linecap="butt"
         stroke-linejoin="round"
         stroke-opacity="1"
         stroke-width="3"
         id="path318" />
      <path
         d="m 639.35,828.814 -9.723,-2.338 -9.723,-2.338 -0.605,-0.145 -1.684,-0.029 -1.738,0.482 -3.637,1.919 -0.118,0.066 -1.228,0.694 -0.311,0.271 -0.654,0.568 -0.319,0.277 -1.171,1.428 -1.014,1.687 -0.212,0.487 -0.605,1.391 -0.588,1.999 -0.337,2.042 -0.021,0.607 -0.05,1.397 0.196,1.891 0.346,1.29 0.11,0.412 0.212,0.44 0.486,1.009 0.367,0.547 1.774,2.638 1.168,1.459"
         fill="none"
         stroke="#000000"
         stroke-linecap="butt"
         stroke-linejoin="round"
         stroke-opacity="1"
         stroke-width="3"
         id="path320" />
      <path
         d="m 634.567,855.778 5.176,1.283 1.49,0.369 2.316,0.574 9.706,2.406 7.459,1.849 1.278,0.317 1.167,0.289 9.706,2.406 9.706,2.406 9.706,2.406 4.423,1.097 9.707,2.406 9.706,2.406 9.706,2.406 3.475,0.861 5.917,1.467"
         fill="none"
         stroke="#000000"
         stroke-linecap="butt"
         stroke-linejoin="round"
         stroke-opacity="1"
         stroke-width="3"
         id="path322" />
      <path
         d="m 634.021,844.965 -9.861,1.661 -9.861,1.661 -4.028,0.678 -9.861,1.661 -9.861,1.661 -2.781,0.468 -0.249,1.965 0.372,1.699 2.568,0.644 9.996,-0.291 9.995,-0.291 9.996,-0.291 9.996,-0.292 4.125,-0.12 9.996,-0.291 9.996,-0.291 0.62,-0.018"
         fill="none"
         stroke="#000000"
         stroke-linecap="butt"
         stroke-linejoin="round"
         stroke-opacity="1"
         stroke-width="3"
         id="path324" />
      <path
         d="m 696.015,842.441 -9.723,-2.338 -9.723,-2.338 -8.039,-1.934 -1.736,-0.417 -0.819,-0.197 -1.232,-0.296"
         fill="none"
         stroke="#000000"
         stroke-linecap="butt"
         stroke-linejoin="round"
         stroke-opacity="1"
         stroke-width="3"
         id="path326" />
      <path
         d="m 793.527,866.284 -0.407,-0.491 -3.639,-4.391 -4.504,-5.435 -1.288,-1.553 -0.743,-0.896 -6.381,-7.699 -6.382,-7.699 -0.606,-0.733 -6.382,-7.699 -6.381,-7.699 -4.364,-5.265 -2.734,-0.63 -1.202,0.079 -1.187,0.982 4.111,9.116 3.459,7.671 4.11,9.116 4.111,9.116 3.238,7.183 1.403,3.111"
         fill="none"
         stroke="#000000"
         stroke-linecap="butt"
         stroke-linejoin="round"
         stroke-opacity="1"
         stroke-width="3"
         id="path328" />
      <path
         d="m 747.327,817.155 2.736,0.631 6.252,7.804 6.253,7.805 2.317,2.891 6.252,7.804 6.253,7.804 4.289,5.354 5.749,7.176 0.39,0.487 2.379,2.969 -9.721,-2.345 -1.489,-0.359 -9.722,-2.345 -1.506,-0.363"
         fill="none"
         stroke="#000000"
         stroke-linecap="butt"
         stroke-linejoin="round"
         stroke-opacity="1"
         stroke-width="3"
         id="path330" />
      <path
         d="m 641.233,857.43 -4.537,8.912 -4.537,8.912 -4.536,8.911 -3.357,6.594 2.54,0.655 1.227,-0.121 1.201,-0.981 7.774,-6.289 7.774,-6.29 7.774,-6.29 7.775,-6.29 2.828,-2.288"
         fill="none"
         stroke="#000000"
         stroke-linecap="butt"
         stroke-linejoin="round"
         stroke-opacity="1"
         stroke-width="3"
         id="path332" />
      <path
         d="m 634.021,844.965 9.712,2.381 9.713,2.38 1.594,0.39 -9.987,0.507 -6.932,0.351 -9.988,0.507 -9.05,0.459 -9.987,0.507 -9.987,0.506 -8.773,0.445 -2.568,-0.643"
         fill="none"
         stroke="#000000"
         stroke-linecap="butt"
         stroke-linejoin="round"
         stroke-opacity="1"
         stroke-width="3"
         id="path334" />
      <path
         d="m 761.171,876.126 -9.847,1.745 -9.846,1.744 -3.844,0.681 -2.423,0.43 -9.847,1.744 -9.847,1.745 -1.168,0.207 -0.259,2.03 0.344,1.746 2.744,0.689 9.995,-0.307 9.995,-0.306 9.996,-0.307 9.995,-0.307 2.521,-0.077 2.842,-0.087 8.441,-0.26 0.383,-0.011 1.493,-0.046 9.996,-0.307 0.874,-0.027"
         fill="none"
         stroke="#000000"
         stroke-linecap="butt"
         stroke-linejoin="round"
         stroke-opacity="1"
         stroke-width="3"
         id="path336" />
      <path
         d="m 761.171,876.126 9.713,2.38 9.712,2.38 3.03,0.743 -9.987,0.522 -7.409,0.388 -9.987,0.522 -9.588,0.502 -1.736,0.09 -9.987,0.523 -9.986,0.522 -7.852,0.411 -2.745,-0.687"
         fill="none"
         stroke="#000000"
         stroke-linecap="butt"
         stroke-linejoin="round"
         stroke-opacity="1"
         stroke-width="3"
         id="path338" />
      <path
         d="m 668.53,835.831 -4.872,-8.733 -2.314,-4.149 -2.532,-0.601 -1.635,3.299"
         fill="none"
         stroke="#000000"
         stroke-linecap="butt"
         stroke-linejoin="round"
         stroke-opacity="1"
         stroke-width="3"
         id="path340" />
      <path
         d="m 795.498,866.364 -5.609,-8.278 -3.714,-5.482 -2.7,-0.641 -0.529,1.555"
         fill="none"
         stroke="#000000"
         stroke-linecap="butt"
         stroke-linejoin="round"
         stroke-opacity="1"
         stroke-width="3"
         id="path342" />
      <path
         d="m 768.006,888.855 -0.381,0.699 -4.793,8.776 -4.793,8.777 -4.792,8.777 -3.89,7.123 2.71,0.698 1.191,-0.145 7.917,-6.109 7.917,-6.109 0.361,-0.278 7.917,-6.109 7.917,-6.109 4.816,-3.716 0.782,-0.604"
         fill="none"
         stroke="#000000"
         stroke-linecap="butt"
         stroke-linejoin="round"
         stroke-opacity="1"
         stroke-width="3"
         id="path344" />
      <path
         d="m 626.806,891.414 7.734,-6.339 7.734,-6.339 7.735,-6.338 7.734,-6.339 4.249,-3.483"
         fill="none"
         stroke="#000000"
         stroke-linecap="butt"
         stroke-linejoin="round"
         stroke-opacity="1"
         stroke-width="3"
         id="path346" />
      <path
         d="m 752.067,923.705 7.923,-6.102 7.922,-6.102 7.922,-6.103 7.922,-6.102 5.637,-4.342 0.783,-0.603"
         fill="none"
         stroke="#000000"
         stroke-linecap="butt"
         stroke-linejoin="round"
         stroke-opacity="1"
         stroke-width="3"
         id="path348" />
      <path
         d="m 734.494,806.723 0.022,1.047 0.098,4.851 0.203,9.998 0.084,4.119 0.044,2.182 0.007,0.341 0.02,0.952 0.016,0.807 v 10e-4 l 0.006,0.285 0.203,9.998 0.203,9.998 0.012,0.613 -0.431,-10e-4 -1.204,-0.004 -1.693,0.52 -1.686,1.027 -1.612,1.497"
         fill="none"
         stroke="#000000"
         stroke-linecap="butt"
         stroke-linejoin="round"
         stroke-opacity="1"
         stroke-width="3"
         id="path350" />
      <path
         d="m 727.768,806.286 0.209,9.997 0.118,5.628 0.008,0.38 0.105,5.048 0.007,0.341 0.182,8.672 v 0.006 l 0.005,0.221 0.209,9.998 0.038,1.816 0.105,5.033 v 0.018 l 0.032,1.51 -9.309,-2.25 -8.628,-2.085 -0.051,-0.012 -0.016,-0.004 -7.935,-1.918 -6.722,-1.625 -0.11,-4.619 -0.239,-9.997 -0.22,-9.249 -0.077,-3.198 -0.018,-0.757 -0.005,-0.205 -0.101,-4.265 -0.239,-9.997 -0.183,-7.69"
         fill="none"
         stroke="#000000"
         stroke-linecap="butt"
         stroke-linejoin="round"
         stroke-opacity="1"
         stroke-width="3"
         id="path352" />
      <path
         d="m 397.912,600.745 1.614,-0.907 0.973,-0.546"
         fill="none"
         stroke="#000000"
         stroke-linecap="butt"
         stroke-linejoin="round"
         stroke-opacity="1"
         stroke-width="3"
         id="path354" />
      <path
         d="m 470.708,442.912 0.842,-0.193 0.12,0.331 0.455,1.252"
         fill="none"
         stroke="#000000"
         stroke-linecap="butt"
         stroke-linejoin="round"
         stroke-opacity="1"
         stroke-width="3"
         id="path356" />
      <path
         d="m 470.946,444.572 -0.424,-1.168"
         fill="none"
         stroke="#000000"
         stroke-linecap="butt"
         stroke-linejoin="round"
         stroke-opacity="1"
         stroke-width="3"
         id="path358" />
      <path
         d="m 686.564,795.153 -0.73,-0.768"
         fill="none"
         stroke="#000000"
         stroke-linecap="butt"
         stroke-linejoin="round"
         stroke-opacity="1"
         stroke-width="3"
         id="path360" />
      <path
         d="m 734.972,830.213 0.907,-0.734"
         fill="none"
         stroke="#000000"
         stroke-linecap="butt"
         stroke-linejoin="round"
         stroke-opacity="1"
         stroke-width="3"
         id="path362" />
      <path
         d="m 734.988,831.021 1.677,-1.358"
         fill="none"
         stroke="#000000"
         stroke-linecap="butt"
         stroke-linejoin="round"
         stroke-opacity="1"
         stroke-width="3"
         id="path364" />
      <path
         d="m 734.994,831.306 1.967,-1.573"
         fill="none"
         stroke="#000000"
         stroke-linecap="butt"
         stroke-linejoin="round"
         stroke-opacity="1"
         stroke-width="3"
         id="path366" />
      <path
         d="m 734.952,829.261 0.927,0.218 0.786,0.184 v 0 l 0.296,0.07 9.736,2.285 8.2,1.924"
         fill="none"
         stroke="#000000"
         stroke-linecap="butt"
         stroke-linejoin="round"
         stroke-opacity="1"
         stroke-width="3"
         id="path368" />
      <path
         d="m 766.356,859.357 -9.722,-2.339 -9.723,-2.338 -9.723,-2.338 -1.776,-0.427"
         fill="none"
         stroke="#000000"
         stroke-linecap="butt"
         stroke-linejoin="round"
         stroke-opacity="1"
         stroke-width="3"
         id="path370" />
      <path
         d="m 769.572,809.946 -9.75,-2.221 -9.751,-2.22 -2.107,-0.48"
         fill="none"
         stroke="#000000"
         stroke-linecap="butt"
         stroke-linejoin="round"
         stroke-opacity="1"
         stroke-width="3"
         id="path372" />
      <path
         d="m 791.86,573.177 -3.616,4.013"
         fill="none"
         stroke="#000000"
         stroke-linecap="butt"
         stroke-linejoin="round"
         stroke-opacity="1"
         stroke-width="3"
         id="path374" />
      <path
         d="m 769.453,911.064 7.949,-6.067 7.949,-6.067 4.923,-3.757 0.789,-0.603"
         fill="none"
         stroke="#000000"
         stroke-linecap="butt"
         stroke-linejoin="round"
         stroke-opacity="1"
         stroke-width="3"
         id="path376" />
      <path
         d="m 796.09,565.67 -4.23,7.507 -1.189,2.109 -4.909,8.713 -0.258,0.459"
         fill="none"
         stroke="#000000"
         stroke-linecap="butt"
         stroke-linejoin="round"
         stroke-opacity="1"
         stroke-width="3"
         id="path378" />
      <path
         d="m 807.641,799.252 9.761,2.175 9.761,2.175 1.654,0.368"
         fill="none"
         stroke="#000000"
         stroke-linecap="butt"
         stroke-linejoin="round"
         stroke-opacity="1"
         stroke-width="3"
         id="path380" />
      <path
         d="m 840.042,853.925 -4.883,8.727 -4.884,8.726 -1.675,2.992"
         fill="none"
         stroke="#000000"
         stroke-linecap="butt"
         stroke-linejoin="round"
         stroke-opacity="1"
         stroke-width="3"
         id="path382" />
      <path
         d="m 838.68,825.683 -9.75,-2.221 -9.75,-2.22 -9.751,-2.22 -1.521,-0.347"
         fill="none"
         stroke="#000000"
         stroke-linecap="butt"
         stroke-linejoin="round"
         stroke-opacity="1"
         stroke-width="3"
         id="path384" />
      <path
         d="m 838.194,877.09 7.949,-6.067 7.949,-6.068 7.748,-5.914"
         fill="none"
         stroke="#000000"
         stroke-linecap="butt"
         stroke-linejoin="round"
         stroke-opacity="1"
         stroke-width="3"
         id="path386" />
      <path
         d="m 838.823,877.314 4.912,-3.756 7.943,-6.075 7.943,-6.075 2.889,-2.21"
         fill="none"
         stroke="#000000"
         stroke-linecap="butt"
         stroke-linejoin="round"
         stroke-opacity="1"
         stroke-width="3"
         id="path388" />
      <path
         d="m 843.735,873.558 7.974,-6.035 7.973,-6.035 2.979,-2.254"
         fill="none"
         stroke="#000000"
         stroke-linecap="butt"
         stroke-linejoin="round"
         stroke-opacity="1"
         stroke-width="3"
         id="path390" />
      <path
         d="m 870.369,861.043 0.081,9.999 0.081,10 0.081,10 0.028,3.492 0.036,4.38"
         fill="none"
         stroke="#000000"
         stroke-linecap="butt"
         stroke-linejoin="round"
         stroke-opacity="1"
         stroke-width="3"
         id="path392" />
      <path
         d="m 759.68,887.583 7.945,1.971"
         fill="none"
         stroke="#000000"
         stroke-linecap="butt"
         stroke-linejoin="round"
         stroke-opacity="1"
         stroke-width="3"
         id="path394" />
      <path
         d="m 870.64,894.534 -4.422,-1.075"
         fill="none"
         stroke="#000000"
         stroke-linecap="butt"
         stroke-linejoin="round"
         stroke-opacity="1"
         stroke-width="3"
         id="path396" />
      <path
         d="m 900.463,793.124 3.849,-2.466"
         fill="none"
         stroke="#000000"
         stroke-linecap="butt"
         stroke-linejoin="round"
         stroke-opacity="1"
         stroke-width="3"
         id="path398" />
      <path
         d="m 907.099,821.415 -4.966,8.679 -4.966,8.68 -0.115,0.201"
         fill="none"
         stroke="#000000"
         stroke-linecap="butt"
         stroke-linejoin="round"
         stroke-opacity="1"
         stroke-width="3"
         id="path400" />
      <path
         d="m 905.986,794.318 -0.991,-0.214 -4.532,-0.98 -7.552,-1.633 -9.775,-2.114 -7.698,-1.665"
         fill="none"
         stroke="#000000"
         stroke-linecap="butt"
         stroke-linejoin="round"
         stroke-opacity="1"
         stroke-width="3"
         id="path402" />
      <path
         d="m 907.886,841.812 7.973,-6.037 7.973,-6.036 4.689,-3.551"
         fill="none"
         stroke="#000000"
         stroke-linecap="butt"
         stroke-linejoin="round"
         stroke-opacity="1"
         stroke-width="3"
         id="path404" />
      <path
         d="m 908.512,841.994 4.338,-3.292 7.967,-6.044 7.966,-6.045 0.373,-0.283"
         fill="none"
         stroke="#000000"
         stroke-linecap="butt"
         stroke-linejoin="round"
         stroke-opacity="1"
         stroke-width="3"
         id="path406" />
      <path
         d="m 912.85,838.702 7.996,-6.006 7.995,-6.005 0.443,-0.333"
         fill="none"
         stroke="#000000"
         stroke-linecap="butt"
         stroke-linejoin="round"
         stroke-opacity="1"
         stroke-width="3"
         id="path408" />
      <path
         d="m 930.133,773.045 -8.251,3.83 -7.226,3.354"
         fill="none"
         stroke="#000000"
         stroke-linecap="butt"
         stroke-linejoin="round"
         stroke-opacity="1"
         stroke-width="3"
         id="path416" />
      <path
         d="m 923.472,790.56 9.044,-4.268 6.179,-2.916 9.043,-4.268 3.379,-1.594"
         fill="none"
         stroke="#000000"
         stroke-linecap="butt"
         stroke-linejoin="round"
         stroke-opacity="1"
         stroke-width="3"
         id="path418" />
      <path
         d="m 937.565,774.632 -9.061,4.23 -2.054,0.959 -8.683,4.054"
         fill="none"
         stroke="#000000"
         stroke-linecap="butt"
         stroke-linejoin="round"
         stroke-opacity="1"
         stroke-width="3"
         id="path420" />
      <path
         d="m 985.566,381.575 -0.491,-0.288"
         fill="none"
         stroke="#000000"
         stroke-linecap="butt"
         stroke-linejoin="round"
         stroke-opacity="1"
         stroke-width="3"
         id="path422" />
      <path
         d="m 987.478,379.102 0.135,-0.058 0.179,-0.078"
         fill="none"
         stroke="#000000"
         stroke-linecap="butt"
         stroke-linejoin="round"
         stroke-opacity="1"
         stroke-width="3"
         id="path424" />
      <path
         d="m 988.764,356.512 -0.025,10 -0.012,5.127 -0.015,5.713 -0.003,1.465 -10e-4,0.069 -0.009,3.768"
         fill="none"
         stroke="#000000"
         stroke-linecap="butt"
         stroke-linejoin="round"
         stroke-opacity="1"
         stroke-width="3"
         id="path426" />
      <path
         d="M 992.611,384.582 990.749,384.2"
         fill="none"
         stroke="#000000"
         stroke-linecap="butt"
         stroke-linejoin="round"
         stroke-opacity="1"
         stroke-width="3"
         id="path428" />
      <path
         d="m 1029.669,382.788 0.02,-3.423 0.01,-1.372 0.012,-2.09 0.061,-10 0.056,-9.276"
         fill="none"
         stroke="#000000"
         stroke-linecap="butt"
         stroke-linejoin="round"
         stroke-opacity="1"
         stroke-width="3"
         id="path430" />
      <path
         d="m 1044.637,797.236 -0.065,8.57 -0.027,3.459"
         fill="none"
         stroke="#000000"
         stroke-linecap="butt"
         stroke-linejoin="round"
         stroke-opacity="1"
         stroke-width="3"
         id="path432" />
      <path
         d="m 1044.572,805.806 -9.783,-2.073 -9.783,-2.072 -9.783,-2.073 -9.783,-2.072 -9.783,-2.073 -9.783,-2.072 -9.783,-2.073 -9.782,-2.072 -9.783,-2.072 -9.783,-2.073 -8.048,-1.705"
         fill="none"
         stroke="#000000"
         stroke-linecap="butt"
         stroke-linejoin="round"
         stroke-opacity="1"
         stroke-width="3"
         id="path434" />
      <path
         d="m 1063.878,941.487 -9.717,-2.361 -9.717,-2.361 -9.717,-2.361 -9.718,-2.362 -9.717,-2.361 -9.717,-2.361 -9.718,-2.361 -9.717,-2.361 -9.717,-2.361 -9.717,-2.361 -9.718,-2.361 -9.717,-2.361 -9.717,-2.362 -9.717,-2.361 -9.718,-2.361 -9.717,-2.361 -9.717,-2.361 -9.717,-2.361 -5.004,-1.216"
         fill="none"
         stroke="#000000"
         stroke-linecap="butt"
         stroke-linejoin="round"
         stroke-opacity="1"
         stroke-width="3"
         id="path436" />
      <path
         d="m 1227.547,820.672 -0.241,9.997 -0.242,9.997 -0.091,3.781 -0.087,3.596"
         fill="none"
         stroke="#000000"
         stroke-linecap="butt"
         stroke-linejoin="round"
         stroke-opacity="1"
         stroke-width="3"
         id="path438" />
      <path
         d="m 1109.606,819.583 -9.783,-2.073 -9.783,-2.072 -9.783,-2.072 -9.783,-2.073 -9.782,-2.072 -4.251,-0.901"
         fill="none"
         stroke="#000000"
         stroke-linecap="butt"
         stroke-linejoin="round"
         stroke-opacity="1"
         stroke-width="3"
         id="path440" />
      <path
         d="m 1226.973,844.447 -9.783,-2.073 -9.783,-2.072 -9.783,-2.073 -9.782,-2.072 -9.783,-2.073 -9.783,-2.072 -9.783,-2.073 -9.783,-2.072 -9.783,-2.072 -8.449,-1.79"
         fill="none"
         stroke="#000000"
         stroke-linecap="butt"
         stroke-linejoin="round"
         stroke-opacity="1"
         stroke-width="3"
         id="path442" />
      <path
         d="m 1228.776,693.613 0.892,-0.061 0.447,-0.03 0.472,-0.032 0.587,-0.04 0.077,-0.006 h 0.01 l 0.235,-0.016 0.075,-0.005 0.572,-0.039 0.262,-0.018 2.354,-0.16 4.277,-0.291"
         fill="none"
         stroke="#000000"
         stroke-linecap="butt"
         stroke-linejoin="round"
         stroke-opacity="1"
         stroke-width="3"
         id="path444" />
      <path
         style="fill:#ff0000;stroke:#ff0000;stroke-width:5.70327;stroke-linecap:butt;stroke-linejoin:miter;stroke-miterlimit:4;stroke-dasharray:none;stroke-opacity:1"
         d="M 1012.2966,686.12402 V 129.40896"
         id="path1279" />
      <path
         style="fill:none;stroke:#ff0000;stroke-width:6.2922;stroke-linecap:butt;stroke-linejoin:miter;stroke-miterlimit:4;stroke-dasharray:none;stroke-opacity:1"
         d="M 1012.2966,686.12402 422.09474,892.38942"
         id="path1281" />
      <path
         style="fill:none;stroke:#ff0000;stroke-width:6.2922;stroke-linecap:butt;stroke-linejoin:miter;stroke-miterlimit:4;stroke-dasharray:none;stroke-opacity:1"
         d="m 1012.2966,686.12402 589.2211,142.36859"
         id="path1283" />
      <path
         style="fill:#ff0000;stroke:#ff0000;stroke-width:2.17622px;stroke-linecap:butt;stroke-linejoin:miter;stroke-opacity:1"
         d="m 1012.2966,100.08418 -13.72511,39.4449 31.72441,0.84038 -17.9993,-40.28528"
         id="path1285" />
      <path
         style="fill:#ff0000;stroke:#ff0000;stroke-width:2.17622px;stroke-linecap:butt;stroke-linejoin:miter;stroke-opacity:1"
         d="m 422.09474,892.38942 35.50313,-25.70628 4.9461,27.41138 z"
         id="path1287" />
      <path
         style="fill:#ff0000;stroke:#ff0000;stroke-width:2.17622px;stroke-linecap:butt;stroke-linejoin:miter;stroke-opacity:1"
         d="m 1601.5177,828.49261 -28.7295,-25.42188 -3.0082,35.54471 31.7377,-10.12283"
         id="path1289" />
      <ellipse
         style="fill:none;stroke:#ff0000;stroke-width:6.2922;stroke-linejoin:bevel;stroke-miterlimit:4;stroke-dasharray:none"
         id="path1291"
         cx="1008.8899"
         cy="220.43024"
         rx="70.600983"
         ry="32.519066" />
      <ellipse
         style="fill:none;stroke:#ff0000;stroke-width:6.2922;stroke-linejoin:bevel;stroke-miterlimit:4;stroke-dasharray:none"
         id="ellipse1293"
         cx="889.64771"
         cy="-468.65878"
         rx="70.600983"
         ry="32.519066"
         transform="rotate(85.873577)" />
      <ellipse
         style="fill:none;stroke:#ff0000;stroke-width:6.2922;stroke-linejoin:bevel;stroke-miterlimit:4;stroke-dasharray:none"
         id="ellipse1295"
         cx="727.23926"
         cy="-1535.2175"
         rx="70.600983"
         ry="32.519066"
         transform="rotate(92.905966)" />
      <path
         style="fill:#ff0000;stroke:#ff0000;stroke-width:2.17622px;stroke-linecap:butt;stroke-linejoin:miter;stroke-opacity:1"
         d="m 1013.9463,186.48161 36.2967,-9.46796 -6.9629,32.66493 z"
         id="path1297" />
      <path
         style="fill:#ff0000;stroke:#ff0000;stroke-width:2.17622px;stroke-linecap:butt;stroke-linejoin:miter;stroke-opacity:1"
         d="m 1510.0865,830.32096 30.0161,11.42003 -11.4342,-27.30569 z"
         id="path1299" />
      <path
         style="fill:#ff0000;stroke:#ff0000;stroke-width:2.17622px;stroke-linecap:butt;stroke-linejoin:miter;stroke-opacity:1"
         d="m 499.06579,863.72446 -17.1403,-31.40956 32.52374,0.41066 z"
         id="path1301" />
      <text
         xml:space="preserve"
         style="font-size:63.8358px;line-height:1.25;font-family:sans-serif;-inkscape-font-specification:sans-serif;fill:#ff0000;stroke-width:2.17622"
         x="1080.6903"
         y="169.26517"
         id="text1305"><tspan
           sodipodi:role="line"
           id="tspan1303"
           x="1080.6903"
           y="169.26517"
           style="fill:#ff0000;stroke-width:2.17622">guinada</tspan></text>
      <text
         xml:space="preserve"
         style="font-size:63.8358px;line-height:1.25;font-family:sans-serif;-inkscape-font-specification:sans-serif;fill:#ff0000;stroke-width:2.17622"
         x="369.91931"
         y="756.19409"
         id="text1309"><tspan
           sodipodi:role="line"
           id="tspan1307"
           x="369.91931"
           y="756.19409"
           style="fill:#ff0000;stroke-width:2.17622">arfagem</tspan></text>
      <text
         xml:space="preserve"
         style="font-size:63.8358px;line-height:1.25;font-family:sans-serif;-inkscape-font-specification:sans-serif;fill:#ff0000;stroke-width:2.17622"
         x="1398.8624"
         y="697.77594"
         id="text1313"><tspan
           sodipodi:role="line"
           id="tspan1311"
           x="1398.8624"
           y="697.77594"
           style="fill:#ff0000;stroke-width:2.17622">rolagem</tspan></text>
    </g>
  </g>
</svg>
