<?xml version="1.0" encoding="UTF-8" standalone="no"?>
<!-- Created with Inkscape (http://www.inkscape.org/) -->

<svg
   width="90.542213mm"
   height="72.594681mm"
   viewBox="0 0 90.542213 72.594681"
   version="1.1"
   id="svg1"
   xml:space="preserve"
   inkscape:version="1.3.2 (091e20e, 2023-11-25, custom)"
   sodipodi:docname="Lista3-8.svg"
   inkscape:export-filename="Lista3-8.png"
   inkscape:export-xdpi="300"
   inkscape:export-ydpi="300"
   xmlns:inkscape="http://www.inkscape.org/namespaces/inkscape"
   xmlns:sodipodi="http://sodipodi.sourceforge.net/DTD/sodipodi-0.dtd"
   xmlns="http://www.w3.org/2000/svg"
   xmlns:svg="http://www.w3.org/2000/svg"><sodipodi:namedview
     id="namedview1"
     pagecolor="#ffffff"
     bordercolor="#000000"
     borderopacity="0.25"
     inkscape:showpageshadow="2"
     inkscape:pageopacity="0.0"
     inkscape:pagecheckerboard="0"
     inkscape:deskcolor="#d1d1d1"
     inkscape:document-units="mm"
     showguides="true"
     inkscape:zoom="2.0485264"
     inkscape:cx="121.06263"
     inkscape:cy="133.02245"
     inkscape:window-width="1920"
     inkscape:window-height="1009"
     inkscape:window-x="1072"
     inkscape:window-y="-8"
     inkscape:window-maximized="1"
     inkscape:current-layer="layer1"
     inkscape:export-bgcolor="#ffffffff"><sodipodi:guide
       position="50.596017,261.43015"
       orientation="0,-1"
       id="guide3"
       inkscape:locked="false" /><sodipodi:guide
       position="31.782366,255.21981"
       orientation="1,0"
       id="guide4"
       inkscape:locked="false" /><sodipodi:guide
       position="81.756092,265.25915"
       orientation="1,0"
       id="guide6"
       inkscape:locked="false" /></sodipodi:namedview><defs
     id="defs1"><marker
       style="overflow:visible"
       id="Triangle"
       refX="0"
       refY="0"
       orient="auto-start-reverse"
       inkscape:stockid="Triangle arrow"
       markerWidth="1"
       markerHeight="1"
       viewBox="0 0 1 1"
       inkscape:isstock="true"
       inkscape:collect="always"
       preserveAspectRatio="xMidYMid"><path
         transform="scale(0.5)"
         style="fill:context-stroke;fill-rule:evenodd;stroke:context-stroke;stroke-width:1pt"
         d="M 5.77,0 -2.88,5 V -5 Z"
         id="path135" /></marker></defs><g
     inkscape:label="Camada 1"
     inkscape:groupmode="layer"
     id="layer1"
     transform="translate(-18.0829, -65.2567)"><circle
       style="fill:none;stroke:#000000;stroke-width:1;stroke-dasharray:none"
       id="path3"
       cx="48.986935"
       cy="100.2786"
       r="24.293358" /><path
       id="rect1"
       style="fill:#ffffff;stroke:#000000;stroke-width:1;stroke-dasharray:none"
       d="m 64.514688,65.75671 c -2.347713,0 -4.237747,2.118081 -4.237747,4.749064 v 58.450176 c 0,2.63099 1.890034,4.74907 4.237747,4.74907 2.347713,0 4.237747,-2.11808 4.237747,-4.74907 V 104.29699 H 99.883508 V 96.808044 H 68.752435 v -26.30227 c 0,-2.630983 -1.890034,-4.749064 -4.237747,-4.749064 z m 0,3.287654 c 1.535045,0 2.770905,1.913286 2.770905,4.289661 V 126.1277 c 0,2.37638 -1.23586,4.28915 -2.770905,4.28915 -1.535045,0 -2.770906,-1.91277 -2.770906,-4.28915 V 73.334025 c 0,-2.376375 1.235861,-4.289661 2.770906,-4.289661 z" /><path
       id="path839"
       style="fill:#ffffff;stroke:#000000;stroke-width:0.699997;stroke-linejoin:bevel;stroke-miterlimit:4;stroke-dasharray:none"
       d="m 49.760014,98.10114 a 2.6839375,2.6440955 0 0 0 -2.678827,2.6441 2.6839375,2.6440955 0 0 0 0,0.005 v 4.62213 h 5.367875 v -4.62716 a 2.6839375,2.6440955 0 0 0 -2.683937,-2.6441 2.6839375,2.6440955 0 0 0 -0.0051,0 z" /><path
       style="fill:none;stroke:#000000;stroke-width:0.700001;stroke-linecap:butt;stroke-linejoin:miter;stroke-miterlimit:4;stroke-dasharray:none;stroke-opacity:1"
       d="M 38.925932,105.34957 H 58.38448"
       id="path850" /><path
       style="fill:none;stroke:#000000;stroke-width:0.700001;stroke-linecap:butt;stroke-linejoin:miter;stroke-miterlimit:4;stroke-dasharray:none;stroke-opacity:1"
       d="m 40.706836,105.3724 2.518055,4.29666"
       id="path852" /><path
       style="fill:none;stroke:#000000;stroke-width:0.700001;stroke-linecap:butt;stroke-linejoin:miter;stroke-miterlimit:4;stroke-dasharray:none;stroke-opacity:1"
       d="m 45.135336,105.3724 2.518055,4.29666"
       id="path854" /><path
       style="fill:none;stroke:#000000;stroke-width:0.700001;stroke-linecap:butt;stroke-linejoin:miter;stroke-miterlimit:4;stroke-dasharray:none;stroke-opacity:1"
       d="m 49.429639,105.3724 2.518055,4.29666"
       id="path856" /><path
       style="fill:none;stroke:#000000;stroke-width:0.700001;stroke-linecap:butt;stroke-linejoin:miter;stroke-miterlimit:4;stroke-dasharray:none;stroke-opacity:1"
       d="m 53.858139,105.3724 2.518055,4.29666"
       id="path858" /><ellipse
       style="fill:#ffffff;stroke:#000000;stroke-width:0.700001;stroke-linejoin:bevel"
       id="path1592"
       cx="49.77985"
       cy="100.71366"
       rx="0.93817085"
       ry="0.92424399" /><path
       style="fill:none;stroke:#000000;stroke-width:0.264999;stroke-dasharray:2.11999, 0.529998, 0.264999, 0.529998;stroke-dashoffset:0"
       d="m 18.083026,100.64391 90.542054,0.0535"
       id="path4"
       sodipodi:nodetypes="cc" /><path
       style="fill:none;stroke:#000000;stroke-width:0.264999;stroke-dasharray:2.11999, 0.529997, 0.264999, 0.529997;stroke-dashoffset:0"
       d="m 49.865314,65.42875 -0.182658,72.42231"
       id="path5"
       sodipodi:nodetypes="cc" /><circle
       style="fill:none;stroke:#000000;stroke-width:1;stroke-dasharray:none;stroke-dashoffset:0"
       id="path6"
       cx="64.449783"
       cy="86.79409"
       r="2.195684" /><path
       style="fill:#ffffff;stroke:#ff0000;stroke-width:0.264999;stroke-dasharray:none;stroke-dashoffset:0;marker-end:url(#Triangle)"
       d="M 49.854942,101.00146 64.449782,86.923252"
       id="path9" /><rect
       style="fill:#ffffff;stroke:#000000;stroke-width:1;stroke-dasharray:none;stroke-dashoffset:0"
       id="rect9"
       width="17.436314"
       height="20.019472"
       x="77.36557"
       y="90.410515" /><g
       id="g16"
       transform="translate(-11.365894,38.618206)"><path
         style="fill:none;stroke:#000000;stroke-width:0.700001;stroke-linecap:butt;stroke-linejoin:miter;stroke-miterlimit:4;stroke-dasharray:none;stroke-opacity:1"
         d="M 87.667478,71.822019 H 107.12603"
         id="path11" /><path
         style="fill:none;stroke:#000000;stroke-width:0.700001;stroke-linecap:butt;stroke-linejoin:miter;stroke-miterlimit:4;stroke-dasharray:none;stroke-opacity:1"
         d="m 87.667478,71.822019 2.518055,4.296657"
         id="path12" /><path
         style="fill:none;stroke:#000000;stroke-width:0.700001;stroke-linecap:butt;stroke-linejoin:miter;stroke-miterlimit:4;stroke-dasharray:none;stroke-opacity:1"
         d="m 92.095978,71.822019 2.518055,4.296657"
         id="path13" /><path
         style="fill:none;stroke:#000000;stroke-width:0.700001;stroke-linecap:butt;stroke-linejoin:miter;stroke-miterlimit:4;stroke-dasharray:none;stroke-opacity:1"
         d="m 96.390281,71.822019 2.518055,4.296657"
         id="path14" /><path
         style="fill:none;stroke:#000000;stroke-width:0.700001;stroke-linecap:butt;stroke-linejoin:miter;stroke-miterlimit:4;stroke-dasharray:none;stroke-opacity:1"
         d="m 100.81878,71.822019 2.51806,4.296657"
         id="path15" /><path
         style="fill:none;stroke:#000000;stroke-width:0.700001;stroke-linecap:butt;stroke-linejoin:miter;stroke-miterlimit:4;stroke-dasharray:none;stroke-opacity:1"
         d="m 105.24728,71.822019 2.51806,4.296657"
         id="path16" /></g><path
       style="fill:none;stroke:#ff0000;stroke-width:0.225;stroke-dasharray:none;stroke-dashoffset:0;marker-start:url(#Triangle)"
       id="path17"
       sodipodi:type="arc"
       sodipodi:cx="50.423935"
       sodipodi:cy="100.58871"
       sodipodi:rx="9.8257608"
       sodipodi:ry="9.8933764"
       sodipodi:start="5.5969809"
       sodipodi:end="6.2733065"
       sodipodi:arc-type="arc"
       d="m 58.025699,94.320212 a 9.8257608,9.8933764 0 0 1 2.223517,6.170758"
       sodipodi:open="true" /><path
       style="fill:none;stroke:#ff0000;stroke-width:0.225;stroke-dasharray:none;stroke-dashoffset:0;marker-end:url(#Triangle)"
       id="path18"
       sodipodi:type="arc"
       sodipodi:cx="49.956638"
       sodipodi:cy="100.82656"
       sodipodi:rx="13.881919"
       sodipodi:ry="13.881919"
       sodipodi:start="1.1666988"
       sodipodi:end="3.6725145"
       sodipodi:open="true"
       sodipodi:arc-type="arc"
       d="M 55.414858,113.5904 A 13.881919,13.881919 0 0 1 39.538332,110.00079 13.881919,13.881919 0 0 1 37.985695,93.79775" /><g
       inkscape:label=""
       transform="translate(62.285957,95.118498)"
       id="g18"
       style="fill:#ff0000"><g
   fill="#000000"
   fill-opacity="1"
   id="g2"
   transform="matrix(0.352778,0,0,0.352778,-0.945621,-0.642761)"
   style="fill:#ff0000">
    <g
   id="use1"
   transform="translate(1.993,13.947)"
   style="fill:#ff0000">
      <path
   d="M 7.625,-8.65625 C 7.625,-10.421875 7.078125,-12.125 5.671875,-12.125 3.25,-12.125 0.6875,-7.078125 0.6875,-3.28125 0.6875,-2.5 0.859375,0.171875 2.671875,0.171875 5.015625,0.171875 7.625,-4.75 7.625,-8.65625 Z m -5.21875,2.421875 c 0.265625,-1.015625 0.625,-2.46875 1.3125,-3.6875 0.5625,-1.03125 1.171875,-1.859375 1.921875,-1.859375 0.578125,0 0.953125,0.484375 0.953125,2.140625 0,0.625 -0.046875,1.484375 -0.546875,3.40625 z M 5.921875,-5.71875 C 5.5,-4.03125 5.125,-2.9375 4.515625,-1.859375 c -0.5,0.875 -1.109375,1.6875 -1.828125,1.6875 -0.53125,0 -0.96875,-0.40625 -0.96875,-2.125 0,-1.109375 0.28125,-2.28125 0.546875,-3.421875 z m 0,0"
   id="path2"
   style="fill:#ff0000" />
    </g>
  </g>
</g><g
       inkscape:label=""
       transform="translate(37.992599,113.74949)"
       id="g21"
       style="fill:#ff0000"><g
   fill="#000000"
   fill-opacity="1"
   id="g20"
   transform="matrix(0.352778,0,0,0.352778,-0.774744,-0.633104)"
   style="fill:#ff0000">
    <g
   id="g19"
   transform="translate(1.993,9.4040003)"
   style="fill:#ff0000">
      <path
   d="m 10.234375,-6.46875 c 0,-0.5 -0.140625,-1.140625 -0.75,-1.140625 -0.34375,0 -0.734375,0.421875 -0.734375,0.78125 0,0.140625 0.0625,0.25 0.203125,0.40625 0.265625,0.296875 0.59375,0.75 0.59375,1.5625 0,0.625 -0.390625,1.609375 -0.65625,2.140625 -0.484375,0.9375 -1.28125,1.75 -2.171875,1.75 -1.09375,0 -1.5,-0.6875 -1.6875,-1.65625 0.1875,-0.4375 0.578125,-1.5625 0.578125,-2 0,-0.203125 -0.0625,-0.34375 -0.28125,-0.34375 -0.125,0 -0.265625,0.0625 -0.359375,0.203125 -0.234375,0.375 -0.453125,1.734375 -0.4375,2.09375 -0.328125,0.640625 -1.265625,1.703125 -2.359375,1.703125 -1.15625,0 -1.46875,-1.015625 -1.46875,-2 0,-1.78125 1.125,-3.34375 1.4375,-3.78125 0.171875,-0.265625 0.28125,-0.4375 0.28125,-0.46875 0,-0.109375 -0.0625,-0.3125 -0.21875,-0.3125 -0.28125,0 -0.359375,0.234375 -0.5,0.4375 -0.875,1.359375 -1.5,3.265625 -1.5,4.921875 0,1.0625 0.40625,2.34375 1.6875,2.34375 1.4375,0 2.328125,-1.21875 2.6875,-1.875 0.140625,0.96875 0.65625,1.875 1.90625,1.875 1.3125,0 2.140625,-1.15625 2.765625,-2.546875 0.4375,-1 0.984375,-3.15625 0.984375,-4.09375 z m 0,0"
   id="path19"
   style="fill:#ff0000" />
    </g>
  </g>
</g><g
       inkscape:label=""
       transform="translate(68.952931,81.236579)"
       id="g24"
       style="fill:#0000ff"><g
   fill="#000000"
   fill-opacity="1"
   id="g23"
   transform="matrix(0.352778,0,0,0.352778,-0.989718,-0.70216)"
   style="fill:#0000ff">
    <g
   id="g22"
   transform="translate(1.993,13.756)"
   style="fill:#0000ff">
      <path
   d="m 5.09375,-5.46875 h 2.890625 c 2.375,0 4.75,-1.765625 4.75,-3.71875 0,-1.34375 -1.125,-2.578125 -3.296875,-2.578125 H 4.109375 c -0.328125,0 -0.46875,0 -0.46875,0.328125 0,0.171875 0.140625,0.171875 0.40625,0.171875 1.046875,0 1.046875,0.140625 1.046875,0.328125 0,0.03125 0,0.140625 -0.0625,0.40625 l -2.328125,9.25 C 2.546875,-0.671875 2.515625,-0.5 1.3125,-0.5 c -0.328125,0 -0.5,0 -0.5,0.3125 C 0.8125,0 0.96875,0 1.0625,0 c 0.328125,0 0.671875,-0.03125 1,-0.03125 H 4.078125 C 4.40625,-0.03125 4.765625,0 5.09375,0 5.234375,0 5.421875,0 5.421875,-0.328125 5.421875,-0.5 5.265625,-0.5 5.015625,-0.5 c -1.03125,0 -1.0625,-0.125 -1.0625,-0.296875 C 3.953125,-0.875 3.984375,-1 4,-1.078125 Z m 1.25,-5.125 c 0.140625,-0.640625 0.21875,-0.671875 0.890625,-0.671875 H 8.9375 c 1.296875,0 2.359375,0.421875 2.359375,1.703125 0,0.453125 -0.21875,1.921875 -1.015625,2.703125 -0.296875,0.3125 -1.125,0.96875 -2.6875,0.96875 H 5.171875 Z m 0,0"
   id="path21"
   style="fill:#0000ff" />
    </g>
  </g>
</g><g
       inkscape:label=""
       transform="translate(100.36991,96.031782)"
       id="g27"
       style="fill:#0000ff"><g
   fill="#000000"
   fill-opacity="1"
   id="g26"
   transform="matrix(0.352778,0,0,0.352778,-0.99523,-0.70216)"
   style="fill:#0000ff">
    <g
   id="g25"
   transform="translate(1.993,13.756)"
   style="fill:#0000ff">
      <path
   d="m 6.296875,-10.59375 c 0.15625,-0.640625 0.234375,-0.671875 0.90625,-0.671875 H 9.4375 c 1.9375,0 1.9375,1.65625 1.9375,1.8125 0,1.390625 -1.390625,3.171875 -3.65625,3.171875 H 5.234375 Z m 2.921875,4.453125 c 1.875,-0.34375 3.578125,-1.65625 3.578125,-3.25 0,-1.34375 -1.1875,-2.375 -3.140625,-2.375 H 4.125 c -0.3125,0 -0.46875,0 -0.46875,0.328125 0,0.171875 0.15625,0.171875 0.40625,0.171875 1.046875,0 1.046875,0.140625 1.046875,0.328125 0,0.03125 0,0.140625 -0.0625,0.40625 l -2.328125,9.25 C 2.5625,-0.671875 2.53125,-0.5 1.328125,-0.5 c -0.328125,0 -0.5,0 -0.5,0.3125 C 0.828125,0 0.9375,0 1.28125,0 H 7.1875 c 2.625,0 4.65625,-2 4.65625,-3.734375 0,-1.40625 -1.234375,-2.28125 -2.625,-2.40625 z M 6.765625,-0.5 H 4.4375 c -0.234375,0 -0.265625,0 -0.375,-0.015625 C 3.875,-0.53125 3.859375,-0.5625 3.859375,-0.703125 c 0,-0.125 0.03125,-0.234375 0.0625,-0.375 L 5.125,-5.9375 h 3.25 c 2.03125,0 2.03125,1.890625 2.03125,2.03125 0,1.65625 -1.5,3.40625 -3.640625,3.40625 z m 0,0"
   id="path24"
   style="fill:#0000ff" />
    </g>
  </g>
</g><g
       inkscape:label=""
       transform="translate(55.301452,90.626205)"
       id="g33"
       style="fill:#ff0000"><g
   fill="#000000"
   fill-opacity="1"
   id="g32"
   transform="matrix(0.352778,0,0,0.352778,-0.868451,-0.638616)"
   style="fill:#ff0000">
    <g
   id="g31"
   transform="translate(1.993,9.4040003)"
   style="fill:#ff0000">
      <path
   d="m 6.703125,-7.046875 c -0.53125,0.109375 -0.8125,0.484375 -0.8125,0.859375 0,0.421875 0.328125,0.5625 0.5625,0.5625 0.484375,0 0.875,-0.421875 0.875,-0.9375 0,-0.546875 -0.53125,-1.03125 -1.390625,-1.03125 -0.6875,0 -1.484375,0.3125 -2.203125,1.359375 -0.125,-0.90625 -0.8125,-1.359375 -1.5,-1.359375 -0.671875,0 -1.015625,0.515625 -1.21875,0.890625 -0.296875,0.625 -0.546875,1.65625 -0.546875,1.75 0,0.0625 0.0625,0.15625 0.1875,0.15625 0.140625,0 0.15625,-0.03125 0.25,-0.421875 C 1.171875,-6.25 1.5,-7.25 2.1875,-7.25 c 0.40625,0 0.53125,0.296875 0.53125,0.796875 0,0.375 -0.171875,1.046875 -0.296875,1.578125 l -0.46875,1.859375 C 1.875,-2.6875 1.6875,-1.90625 1.59375,-1.59375 c -0.109375,0.4375 -0.296875,1.25 -0.296875,1.328125 0,0.25 0.1875,0.4375 0.4375,0.4375 0.1875,0 0.515625,-0.125 0.625,-0.46875 0.046875,-0.140625 0.6875,-2.734375 0.796875,-3.125 0.078125,-0.390625 0.1875,-0.75 0.265625,-1.125 C 3.5,-4.78125 3.5625,-5.0625 3.609375,-5.28125 3.671875,-5.4375 4.125,-6.28125 4.5625,-6.65625 4.765625,-6.859375 5.21875,-7.25 5.921875,-7.25 c 0.28125,0 0.546875,0.046875 0.78125,0.203125 z m 0,0"
   id="path30"
   style="fill:#ff0000" />
    </g>
  </g>
</g><g
       inkscape:label=""
       transform="translate(35.002628,81.982423)"
       id="g36"><g
   fill="#000000"
   fill-opacity="1"
   id="g35"
   transform="matrix(0.352778,0,0,0.352778,-0.989718,-0.70216)">
    <g
   id="g34"
   transform="translate(1.993,13.756)">
      <path
   d="M 2.703125,-1.28125 C 2.546875,-0.671875 2.515625,-0.5 1.3125,-0.5 c -0.328125,0 -0.5,0 -0.5,0.3125 C 0.8125,0 0.90625,0 1.25,0 h 5.46875 c 3.46875,0 6.859375,-3.59375 6.859375,-7.4375 0,-2.484375 -1.46875,-4.328125 -3.9375,-4.328125 h -5.53125 c -0.328125,0 -0.46875,0 -0.46875,0.328125 0,0.171875 0.140625,0.171875 0.40625,0.171875 1.046875,0 1.046875,0.140625 1.046875,0.328125 0,0.03125 0,0.140625 -0.0625,0.40625 z m 3.640625,-9.3125 c 0.140625,-0.640625 0.21875,-0.671875 0.890625,-0.671875 H 9.125 c 1.625,0 3.09375,0.875 3.09375,3.265625 0,0.859375 -0.34375,3.84375 -2.015625,5.75 C 9.734375,-1.6875 8.421875,-0.5 6.4375,-0.5 H 4.484375 c -0.25,0 -0.28125,0 -0.390625,-0.015625 -0.1875,-0.015625 -0.203125,-0.046875 -0.203125,-0.1875 0,-0.125 0.03125,-0.234375 0.0625,-0.375 z m 0,0"
   id="path33" />
    </g>
  </g>
</g></g></svg>
