<?xml version="1.0" encoding="UTF-8" standalone="no"?>
<!-- Created with Inkscape (http://www.inkscape.org/) -->

<svg
   width="925.77313"
   height="511.53128"
   viewBox="0 0 244.94414 135.34265"
   version="1.1"
   id="svg5"
   inkscape:version="1.1 (ce6663b3b7, 2021-05-25)"
   sodipodi:docname="movimento complexo.svg"
   xmlns:inkscape="http://www.inkscape.org/namespaces/inkscape"
   xmlns:sodipodi="http://sodipodi.sourceforge.net/DTD/sodipodi-0.dtd"
   xmlns="http://www.w3.org/2000/svg"
   xmlns:svg="http://www.w3.org/2000/svg">
  <sodipodi:namedview
     id="namedview7"
     pagecolor="#ffffff"
     bordercolor="#999999"
     borderopacity="1"
     inkscape:pageshadow="0"
     inkscape:pageopacity="0"
     inkscape:pagecheckerboard="0"
     inkscape:document-units="px"
     showgrid="false"
     inkscape:zoom="1.3289991"
     inkscape:cx="455.98225"
     inkscape:cy="273.51411"
     inkscape:window-width="1920"
     inkscape:window-height="1016"
     inkscape:window-x="0"
     inkscape:window-y="27"
     inkscape:window-maximized="1"
     inkscape:current-layer="layer1" />
  <defs
     id="defs2">
    <inkscape:path-effect
       effect="spiro"
       id="path-effect1528"
       is_visible="true"
       lpeversion="1" />
    <inkscape:path-effect
       effect="simplify"
       id="path-effect1526"
       is_visible="true"
       lpeversion="1"
       steps="1"
       threshold="0.00243902"
       smooth_angles="360"
       helper_size="0"
       simplify_individual_paths="false"
       simplify_just_coalesce="false" />
    <marker
       inkscape:stockid="DistanceStart"
       orient="auto"
       refY="0"
       refX="0"
       id="DistanceStart"
       style="overflow:visible"
       inkscape:isstock="true">
      <g
         id="g2300">
        <path
           id="path2306"
           d="M 0,0 H 2"
           style="fill:none;stroke:#ffffff;stroke-width:1.15;stroke-linecap:square" />
        <path
           id="path2302"
           d="M 0,0 13,4 9,0 13,-4 Z"
           style="fill:#000000;fill-rule:evenodd;stroke:none" />
        <path
           id="path2304"
           d="M 0,-4 V 40"
           style="fill:none;stroke:#000000;stroke-width:1;stroke-linecap:square" />
      </g>
    </marker>
    <marker
       style="overflow:visible"
       id="marker1788"
       refX="0"
       refY="0"
       orient="auto"
       inkscape:stockid="Arrow1Lend"
       inkscape:isstock="true">
      <path
         transform="matrix(-0.8,0,0,-0.8,-10,0)"
         style="fill:#ff0000;fill-opacity:1;fill-rule:evenodd;stroke:#ff0000;stroke-width:1pt;stroke-opacity:1"
         d="M 0,0 5,-5 -12.5,0 5,5 Z"
         id="path1786" />
    </marker>
    <marker
       style="overflow:visible"
       id="marker1399"
       refX="0"
       refY="0"
       orient="auto"
       inkscape:stockid="Arrow1Lend"
       inkscape:isstock="true">
      <path
         transform="matrix(-0.8,0,0,-0.8,-10,0)"
         style="fill:#0000ff;fill-opacity:1;fill-rule:evenodd;stroke:#0000ff;stroke-width:1pt;stroke-opacity:1"
         d="M 0,0 5,-5 -12.5,0 5,5 Z"
         id="path1397" />
    </marker>
    <marker
       style="overflow:visible"
       id="marker1379"
       refX="0"
       refY="0"
       orient="auto"
       inkscape:stockid="Arrow1Lend"
       inkscape:isstock="true">
      <path
         transform="matrix(-0.8,0,0,-0.8,-10,0)"
         style="fill:#0000ff;fill-opacity:1;fill-rule:evenodd;stroke:#0000ff;stroke-width:1pt;stroke-opacity:1"
         d="M 0,0 5,-5 -12.5,0 5,5 Z"
         id="path1377" />
    </marker>
  </defs>
  <g
     inkscape:label="Camada 1"
     inkscape:groupmode="layer"
     id="layer1"
     transform="translate(-206.58859,-44.825654)">
    <g
       id="g176"
       style="stroke-width:0.2;stroke-miterlimit:4;stroke-dasharray:none"
       transform="matrix(1.4148668,0,0,1.4148668,169.90001,-39.258586)">
      <path
         style="fill:none;stroke:#000000;stroke-width:0.2;stroke-linecap:butt;stroke-linejoin:miter;stroke-miterlimit:4;stroke-dasharray:none;stroke-opacity:1"
         d="M 73.612159,127.5 V 80.499998"
         id="path170" />
      <path
         style="fill:none;stroke:#000000;stroke-width:0.2;stroke-linecap:butt;stroke-linejoin:miter;stroke-miterlimit:4;stroke-dasharray:none;stroke-opacity:1"
         d="M 120.37753,154.5 73.612159,127.5 25.980763,155 v 0"
         id="path172" />
    </g>
    <path
       style="fill:none;stroke:#000000;stroke-width:0.707433;stroke-linecap:butt;stroke-linejoin:miter;stroke-miterlimit:4;stroke-dasharray:none;stroke-opacity:1"
       d="M 274.05141,141.13693 V 98.690926"
       id="path12" />
    <path
       style="fill:none;stroke:#000000;stroke-width:0.707433;stroke-linecap:butt;stroke-linejoin:miter;stroke-miterlimit:4;stroke-dasharray:none;stroke-opacity:1"
       d="m 274.05141,141.13693 36.75932,21.223"
       id="path16" />
    <path
       style="fill:none;stroke:#000000;stroke-width:0.707433;stroke-linecap:butt;stroke-linejoin:miter;stroke-miterlimit:4;stroke-dasharray:none;stroke-opacity:1"
       d="m 274.05141,141.13693 -36.75932,21.223"
       id="path20" />
    <path
       style="fill:#000000;stroke:#000000;stroke-width:0.37435px;stroke-linecap:butt;stroke-linejoin:miter;stroke-opacity:1"
       d="m 310.81073,162.35993 -2.86462,-5.8699 -5.0343,3.66131 z"
       id="path1401" />
    <path
       style="fill:#000000;stroke:#000000;stroke-width:0.37435px;stroke-linecap:butt;stroke-linejoin:miter;stroke-opacity:1"
       d="m 237.29209,162.35993 9.02196,-1.59837 -3.20364,-4.88175 z"
       id="path1442" />
    <path
       style="fill:#000000;stroke:#000000;stroke-width:0.37435px;stroke-linecap:butt;stroke-linejoin:miter;stroke-opacity:1"
       d="m 274.05141,98.690926 -2.26074,7.150974 4.57664,-0.15255 z"
       id="path1444" />
    <g
       id="g1489">
      <g
         id="g1573"
         transform="matrix(0.74917558,0.43319239,-0.43319239,0.74917558,328.81945,13.921915)">
        <circle
           style="fill:#ffffff;stroke:#000000;stroke-width:0.245;stroke-miterlimit:4;stroke-dasharray:none"
           id="path1556"
           cx="38.971142"
           cy="106.5"
           r="3.8038476" />
        <path
           style="fill:none;stroke:#000000;stroke-width:0.264583px;stroke-linecap:butt;stroke-linejoin:miter;stroke-opacity:1"
           d="m 35.167294,106.5 h 7.607695"
           id="path1558" />
        <path
           style="fill:none;stroke:#000000;stroke-width:0.264583px;stroke-linecap:butt;stroke-linejoin:miter;stroke-opacity:1"
           d="m 38.97114,102.69615 v 7.6077"
           id="path1560" />
        <path
           style="fill:#000000;stroke:#000000;stroke-width:0.108081;stroke-miterlimit:4;stroke-dasharray:none"
           d="m 133.49764,401.22822 c 0.45172,-4.05981 2.41113,-7.48554 5.65105,-9.87998 1.96041,-1.44884 4.2684,-2.32713 6.92566,-2.63553 l 0.67114,-0.0779 v 6.66145 6.66145 h -6.66451 -6.66451 z"
           id="path1564"
           transform="scale(0.26458333)" />
        <path
           style="fill:#000000;stroke:#000000;stroke-width:0.108081;stroke-miterlimit:4;stroke-dasharray:none"
           d="m 147.79598,409.71961 v -6.59469 h 6.65305 6.65305 v 0.39323 c 0,0.66611 -0.32724,2.31304 -0.65346,3.28872 -1.58524,4.74127 -5.56218,8.28667 -10.39494,9.26695 -0.65204,0.13227 -1.42677,0.24048 -1.72162,0.24048 h -0.53608 z"
           id="path1566"
           transform="scale(0.26458333)" />
      </g>
      <path
         style="fill:none;stroke:#0000ff;stroke-width:0.42446;stroke-linecap:butt;stroke-linejoin:miter;stroke-miterlimit:4;stroke-dasharray:none;stroke-opacity:1"
         d="M 311.93045,110.8816 324.61949,88.936817"
         id="path1369" />
      <path
         style="fill:none;stroke:#0000ff;stroke-width:0.42446;stroke-linecap:butt;stroke-linejoin:miter;stroke-miterlimit:4;stroke-dasharray:none;stroke-opacity:1"
         d="m 311.93045,110.8816 12.66022,21.96141"
         id="path1371" />
      <path
         style="fill:none;stroke:#0000ff;stroke-width:0.42446;stroke-linecap:butt;stroke-linejoin:miter;stroke-miterlimit:4;stroke-dasharray:none;stroke-opacity:1"
         d="m 311.93045,110.8816 -25.34926,-0.0167"
         id="path1373" />
      <path
         style="fill:#0000ff;stroke:#0000ff;stroke-width:0.37435px;stroke-linecap:butt;stroke-linejoin:miter;stroke-opacity:1"
         d="m 324.61949,88.936817 -3.78252,2.793787 3.43248,2.059488 z"
         id="path1536" />
      <path
         style="fill:none;stroke:#000000;stroke-width:1.30435;stroke-linecap:butt;stroke-linejoin:miter;stroke-miterlimit:4;stroke-dasharray:none;stroke-opacity:1"
         d="m 332.84596,84.911609 c -2.0088,-1.60658 -3.93276,-3.3254 -6.02638,-4.819741 -0.81194,-0.579534 -2.52809,-0.497547 -3.50483,-0.621679 -1.32651,-0.168594 -2.29459,0.05839 -3.5435,0.60718 -4.94145,2.171296 -2.89251,7.32476 -6.27388,10.071668 -0.83891,0.68152 -2.34711,1.186989 -3.25633,1.583711 -6.03,2.631041 -13.03145,3.337231 -17.18767,9.037162 -1.6406,2.24986 -2.40536,4.85572 -3.01559,7.54817 -3.13348,13.8251 9.93045,25.98069 23.48188,23.72356 3.64706,-0.60746 11.06434,-4.88064 12.81265,-8.35938 1.66476,-3.31246 0.74513,-7.30359 2.51573,-10.54929 1.71564,-3.14494 4.54008,-5.69231 6.12687,-8.91536 0.79523,-1.61516 1.73272,-3.31788 2.39584,-4.983141 0.48173,-1.209704 0.21066,-2.581999 0.36936,-3.830644 0.54662,-4.301059 -1.42724,-8.170629 -4.89421,-10.492245 z"
         id="path1557" />
      <path
         style="fill:#0000ff;stroke:#0000ff;stroke-width:0.37435px;stroke-linecap:butt;stroke-linejoin:miter;stroke-opacity:1"
         d="m 286.58119,110.86491 4.66019,-1.59052 -0.30511,3.12736 -4.35508,-1.53684"
         id="path1538" />
      <path
         style="fill:#0000ff;stroke:#0000ff;stroke-width:0.37435px;stroke-linecap:butt;stroke-linejoin:miter;stroke-opacity:1"
         d="m 324.59067,132.84301 -0.16867,-4.4993 -3.27992,1.9832 z"
         id="path1540" />
    </g>
    <g
       id="g1752"
       transform="rotate(40.026526,411.04762,239.22781)"
       inkscape:transform-center-x="-5.2918464"
       inkscape:transform-center-y="2.4368208">
      <g
         id="g1736"
         transform="matrix(0.74917558,0.43319239,-0.43319239,0.74917558,328.81945,13.921915)">
        <circle
           style="fill:#ffffff;stroke:#000000;stroke-width:0.245;stroke-miterlimit:4;stroke-dasharray:none"
           id="circle1726"
           cx="38.971142"
           cy="106.5"
           r="3.8038476" />
        <path
           style="fill:none;stroke:#000000;stroke-width:0.264583px;stroke-linecap:butt;stroke-linejoin:miter;stroke-opacity:1"
           d="m 35.167294,106.5 h 7.607695"
           id="path1728" />
        <path
           style="fill:none;stroke:#000000;stroke-width:0.264583px;stroke-linecap:butt;stroke-linejoin:miter;stroke-opacity:1"
           d="m 38.97114,102.69615 v 7.6077"
           id="path1730" />
        <path
           style="fill:#000000;stroke:#000000;stroke-width:0.108081;stroke-miterlimit:4;stroke-dasharray:none"
           d="m 133.49764,401.22822 c 0.45172,-4.05981 2.41113,-7.48554 5.65105,-9.87998 1.96041,-1.44884 4.2684,-2.32713 6.92566,-2.63553 l 0.67114,-0.0779 v 6.66145 6.66145 h -6.66451 -6.66451 z"
           id="path1732"
           transform="scale(0.26458333)" />
        <path
           style="fill:#000000;stroke:#000000;stroke-width:0.108081;stroke-miterlimit:4;stroke-dasharray:none"
           d="m 147.79598,409.71961 v -6.59469 h 6.65305 6.65305 v 0.39323 c 0,0.66611 -0.32724,2.31304 -0.65346,3.28872 -1.58524,4.74127 -5.56218,8.28667 -10.39494,9.26695 -0.65204,0.13227 -1.42677,0.24048 -1.72162,0.24048 h -0.53608 z"
           id="path1734"
           transform="scale(0.26458333)" />
      </g>
      <path
         style="fill:none;stroke:#0000ff;stroke-width:0.42446;stroke-linecap:butt;stroke-linejoin:miter;stroke-miterlimit:4;stroke-dasharray:none;stroke-opacity:1"
         d="M 311.93045,110.8816 324.61949,88.936817"
         id="path1738" />
      <path
         style="fill:none;stroke:#0000ff;stroke-width:0.42446;stroke-linecap:butt;stroke-linejoin:miter;stroke-miterlimit:4;stroke-dasharray:none;stroke-opacity:1"
         d="m 311.93045,110.8816 12.66022,21.96141"
         id="path1740" />
      <path
         style="fill:none;stroke:#0000ff;stroke-width:0.42446;stroke-linecap:butt;stroke-linejoin:miter;stroke-miterlimit:4;stroke-dasharray:none;stroke-opacity:1"
         d="m 311.93045,110.8816 -25.34926,-0.0167"
         id="path1742" />
      <path
         style="fill:#0000ff;stroke:#0000ff;stroke-width:0.37435px;stroke-linecap:butt;stroke-linejoin:miter;stroke-opacity:1"
         d="m 324.61949,88.936817 -3.78252,2.793787 3.43248,2.059488 z"
         id="path1744" />
      <path
         style="fill:none;stroke:#000000;stroke-width:1.30435;stroke-linecap:butt;stroke-linejoin:miter;stroke-miterlimit:4;stroke-dasharray:none;stroke-opacity:1"
         d="m 332.84596,84.911609 c -2.0088,-1.60658 -3.93276,-3.3254 -6.02638,-4.819741 -0.81194,-0.579534 -2.52809,-0.497547 -3.50483,-0.621679 -1.32651,-0.168594 -2.29459,0.05839 -3.5435,0.60718 -4.94145,2.171296 -2.89251,7.32476 -6.27388,10.071668 -0.83891,0.68152 -2.34711,1.186989 -3.25633,1.583711 -6.03,2.631041 -13.03145,3.337231 -17.18767,9.037162 -1.6406,2.24986 -2.40536,4.85572 -3.01559,7.54817 -3.13348,13.8251 9.93045,25.98069 23.48188,23.72356 3.64706,-0.60746 11.06434,-4.88064 12.81265,-8.35938 1.66476,-3.31246 0.74513,-7.30359 2.51573,-10.54929 1.71564,-3.14494 4.54008,-5.69231 6.12687,-8.91536 0.79523,-1.61516 1.73272,-3.31788 2.39584,-4.983141 0.48173,-1.209704 0.21066,-2.581999 0.36936,-3.830644 0.54662,-4.301059 -1.42724,-8.170629 -4.89421,-10.492245 z"
         id="path1746" />
      <path
         style="fill:#0000ff;stroke:#0000ff;stroke-width:0.37435px;stroke-linecap:butt;stroke-linejoin:miter;stroke-opacity:1"
         d="m 286.58119,110.86491 4.66019,-1.59052 -0.30511,3.12736 -4.35508,-1.53684"
         id="path1748" />
      <path
         style="fill:#0000ff;stroke:#0000ff;stroke-width:0.37435px;stroke-linecap:butt;stroke-linejoin:miter;stroke-opacity:1"
         d="m 324.59067,132.84301 -0.16867,-4.4993 -3.27992,1.9832 z"
         id="path1750" />
    </g>
  </g>
</svg>
