<?xml version="1.0" encoding="UTF-8" standalone="no"?>
<svg
   width="99.423187mm"
   height="80.723633mm"
   viewBox="0 0 99.423185 80.723633"
   version="1.1"
   id="svg1574"
   inkscape:version="1.3.2 (091e20e, 2023-11-25, custom)"
   sodipodi:docname="partícula01G.svg"
   inkscape:export-filename="partícula01G.png"
   inkscape:export-xdpi="300"
   inkscape:export-ydpi="300"
   xmlns:inkscape="http://www.inkscape.org/namespaces/inkscape"
   xmlns:sodipodi="http://sodipodi.sourceforge.net/DTD/sodipodi-0.dtd"
   xmlns="http://www.w3.org/2000/svg"
   xmlns:svg="http://www.w3.org/2000/svg"
   xmlns:rdf="http://www.w3.org/1999/02/22-rdf-syntax-ns#"
   xmlns:cc="http://creativecommons.org/ns#"
   xmlns:dc="http://purl.org/dc/elements/1.1/">
  <sodipodi:namedview
     id="base"
     pagecolor="#ffffff"
     bordercolor="#666666"
     borderopacity="1.0"
     inkscape:pageopacity="0.0"
     inkscape:pageshadow="2"
     inkscape:zoom="1.8667424"
     inkscape:cx="124.28067"
     inkscape:cy="183.4747"
     inkscape:document-units="mm"
     inkscape:current-layer="layer1"
     inkscape:document-rotation="0"
     showgrid="false"
     showborder="false"
     inkscape:window-width="1920"
     inkscape:window-height="1009"
     inkscape:window-x="-8"
     inkscape:window-y="-8"
     inkscape:window-maximized="1"
     inkscape:snap-object-midpoints="true"
     inkscape:showpageshadow="2"
     inkscape:pagecheckerboard="0"
     inkscape:deskcolor="#d1d1d1"
     inkscape:export-bgcolor="#ffffffff" />
  <defs
     id="defs1568">
    <marker
       style="overflow:visible"
       id="marker2"
       refX="0"
       refY="0"
       orient="auto-start-reverse"
       inkscape:stockid="Triangle arrow"
       markerWidth="1"
       markerHeight="1"
       viewBox="0 0 1 1"
       inkscape:isstock="true"
       inkscape:collect="always"
       preserveAspectRatio="xMidYMid">
      <path
         transform="scale(0.5)"
         style="fill:context-stroke;fill-rule:evenodd;stroke:context-stroke;stroke-width:1pt"
         d="M 5.77,0 -2.88,5 V -5 Z"
         id="path2" />
    </marker>
    <marker
       style="overflow:visible"
       id="marker1"
       refX="0"
       refY="0"
       orient="auto-start-reverse"
       inkscape:stockid="Triangle arrow"
       markerWidth="1"
       markerHeight="1"
       viewBox="0 0 1 1"
       inkscape:isstock="true"
       inkscape:collect="always"
       preserveAspectRatio="xMidYMid">
      <path
         transform="scale(0.5)"
         style="fill:context-stroke;fill-rule:evenodd;stroke:context-stroke;stroke-width:1pt"
         d="M 5.77,0 -2.88,5 V -5 Z"
         id="path1" />
    </marker>
    <marker
       style="overflow:visible"
       id="Triangle"
       refX="0"
       refY="0"
       orient="auto-start-reverse"
       inkscape:stockid="Triangle arrow"
       markerWidth="1"
       markerHeight="1"
       viewBox="0 0 1 1"
       inkscape:isstock="true"
       inkscape:collect="always"
       preserveAspectRatio="xMidYMid">
      <path
         transform="scale(0.5)"
         style="fill:context-stroke;fill-rule:evenodd;stroke:context-stroke;stroke-width:1pt"
         d="M 5.77,0 -2.88,5 V -5 Z"
         id="path135" />
    </marker>
    <marker
       style="overflow:visible"
       id="marker1174"
       refX="0"
       refY="0"
       orient="auto"
       inkscape:stockid="Arrow1Mend"
       inkscape:isstock="true">
      <path
         transform="matrix(-0.4,0,0,-0.4,-4,0)"
         style="fill:#000000;fill-opacity:1;fill-rule:evenodd;stroke:#000000;stroke-width:1pt;stroke-opacity:1"
         d="M 0,0 5,-5 -12.5,0 5,5 Z"
         id="path1172" />
    </marker>
    <marker
       style="overflow:visible"
       id="marker1034"
       refX="0"
       refY="0"
       orient="auto"
       inkscape:stockid="Arrow1Lend"
       inkscape:isstock="true">
      <path
         transform="matrix(-0.8,0,0,-0.8,-10,0)"
         style="fill:#0000ff;fill-opacity:1;fill-rule:evenodd;stroke:#0000ff;stroke-width:1pt;stroke-opacity:1"
         d="M 0,0 5,-5 -12.5,0 5,5 Z"
         id="path1032" />
    </marker>
    <marker
       style="overflow:visible"
       id="marker1263"
       refX="0"
       refY="0"
       orient="auto"
       inkscape:stockid="Arrow1Lend"
       inkscape:isstock="true">
      <path
         transform="matrix(-0.8,0,0,-0.8,-10,0)"
         style="fill:#000000;fill-opacity:1;fill-rule:evenodd;stroke:#000000;stroke-width:1pt;stroke-opacity:1"
         d="M 0,0 5,-5 -12.5,0 5,5 Z"
         id="path1003" />
    </marker>
    <marker
       style="overflow:visible"
       id="marker2416"
       refX="0"
       refY="0"
       orient="auto"
       inkscape:stockid="Arrow1Lend"
       inkscape:isstock="true">
      <path
         transform="matrix(-0.8,0,0,-0.8,-10,0)"
         style="fill:#ff0000;fill-opacity:1;fill-rule:evenodd;stroke:#ff0000;stroke-width:1pt;stroke-opacity:1"
         d="M 0,0 5,-5 -12.5,0 5,5 Z"
         id="path2414" />
    </marker>
    <filter
       inkscape:collect="always"
       style="color-interpolation-filters:sRGB"
       id="filter2408"
       x="-0.19719486"
       width="1.3943897"
       y="-0.19719486"
       height="1.3943897">
      <feGaussianBlur
         inkscape:collect="always"
         stdDeviation="0.52308203"
         id="feGaussianBlur2410" />
    </filter>
  </defs>
  <metadata
     id="metadata1571">
    <rdf:RDF>
      <cc:Work
         rdf:about="">
        <dc:format>image/svg+xml</dc:format>
        <dc:type
           rdf:resource="http://purl.org/dc/dcmitype/StillImage" />
        <dc:title />
      </cc:Work>
    </rdf:RDF>
  </metadata>
  <g
     inkscape:label="Layer 1"
     inkscape:groupmode="layer"
     id="layer1"
     transform="translate(-46.1015, -85.5207)">
    <path
       style="fill:none;stroke:#0000ff;stroke-width:0.2;stroke-linecap:butt;stroke-linejoin:miter;stroke-miterlimit:4;stroke-dasharray:none;stroke-opacity:1"
       d="M 95.780674,137.21565 V 90.215644"
       id="path170" />
    <path
       style="fill:none;stroke:#000000;stroke-width:0.5;stroke-linecap:butt;stroke-linejoin:miter;stroke-miterlimit:4;stroke-dasharray:none;stroke-opacity:1;marker-end:url(#Triangle)"
       d="m 95.780672,137.21565 v -30"
       id="path12" />
    <path
       style="fill:none;stroke:#000000;stroke-width:0.5;stroke-linecap:butt;stroke-linejoin:miter;stroke-miterlimit:4;stroke-dasharray:none;stroke-opacity:1;marker-end:url(#marker1)"
       d="m 95.780672,137.21565 25.980758,15"
       id="path16" />
    <path
       style="fill:none;stroke:#000000;stroke-width:0.5;stroke-linecap:butt;stroke-linejoin:miter;stroke-miterlimit:4;stroke-dasharray:none;stroke-opacity:1;marker-end:url(#marker2)"
       d="m 95.780672,137.21565 -25.98076,15"
       id="path20" />
    <g
       id="g31"
       transform="matrix(0.67134124,0,0,0.67152089,44.689137,37.232053)"
       style="stroke-width:1.48936">
      <circle
         style="opacity:1;mix-blend-mode:normal;fill:#000000;stroke:#000000;stroke-width:0.254351"
         id="path1649"
         cx="135.97427"
         cy="113.54485"
         r="7.4015002" />
      <circle
         style="opacity:1;fill:#ffffff;stroke:#000000;stroke-width:0.176341;filter:url(#filter2408)"
         id="path1651"
         cx="138.57416"
         cy="110.38313"
         r="3.4066997" />
    </g>
    <path
       style="fill:#ff0000;stroke:#ff0000;stroke-width:0.6;stroke-linecap:butt;stroke-linejoin:miter;stroke-miterlimit:4;stroke-dasharray:none;stroke-opacity:1;marker-end:url(#Triangle)"
       d="m 95.780671,137.21565 40.193599,-23.6708"
       id="path2412"
       sodipodi:nodetypes="cc" />
    <path
       style="fill:none;stroke:#0000ff;stroke-width:0.665;stroke-linecap:butt;stroke-linejoin:miter;stroke-miterlimit:4;stroke-dasharray:none;stroke-opacity:1;marker-end:url(#marker1)"
       d="M 135.97427,113.54485 108.42086,86.4263"
       id="path1024" />
    <path
       style="fill:none;stroke:#00ff00;stroke-width:0.2;stroke-dasharray:none"
       d="m 95.780673,137.21565 46.765367,27"
       id="path3" />
    <path
       style="fill:#ff0000;stroke:#ff0000;stroke-width:0.2;stroke-dasharray:none"
       d="m 95.780673,137.21565 -47.631395,27.5"
       id="path4" />
    <g
       inkscape:label=""
       transform="translate(97.976633,90.006383)"
       id="g5">
      <g
         fill="#000000"
         fill-opacity="1"
         id="g2"
         transform="matrix(0.352778,0,0,0.352778,-1.10547,-0.708422)">
        <g
           id="use1"
           transform="translate(1.993,18.93)">
          <path
             d="m 18.34375,-14.328125 c 0.265625,-1.0625 0.65625,-1.796875 2.546875,-1.875 0.07813,0 0.375,-0.03125 0.375,-0.453125 0,-0.265625 -0.21875,-0.265625 -0.328125,-0.265625 -0.5,0 -1.75,0.04687 -2.25,0.04687 H 17.5 c -0.34375,0 -0.796875,-0.04687 -1.140625,-0.04687 -0.15625,0 -0.453125,0 -0.453125,0.46875 0,0.25 0.203125,0.25 0.375,0.25 1.484375,0.04687 1.59375,0.609375 1.59375,1.0625 0,0.21875 -0.03125,0.296875 -0.109375,0.640625 L 14.96875,-3.328125 9.671875,-16.5 c -0.1875,-0.40625 -0.203125,-0.421875 -0.75,-0.421875 h -3.03125 c -0.484375,0 -0.71875,0 -0.71875,0.46875 0,0.25 0.1875,0.25 0.65625,0.25 0.125,0 1.578125,0 1.578125,0.21875 0,0.04687 -0.046875,0.25 -0.078125,0.328125 l -3.28125,13.125 c -0.3125,1.21875 -0.90625,1.734375 -2.53125,1.8125 -0.125,0 -0.375,0.03125 -0.375,0.46875 0,0.25 0.25,0.25 0.328125,0.25 0.484375,0 1.75,-0.046875 2.25,-0.046875 h 1.1875 C 5.25,-0.046875 5.671875,0 6.015625,0 6.1875,0 6.46875,0 6.46875,-0.46875 c 0,-0.21875 -0.25,-0.25 -0.34375,-0.25 C 5.296875,-0.75 4.515625,-0.890625 4.515625,-1.78125 c 0,-0.203125 0.046875,-0.421875 0.09375,-0.625 l 3.34375,-13.25 c 0.15625,0.25 0.15625,0.296875 0.25,0.515625 l 5.890625,14.6875 C 14.21875,-0.15625 14.28125,0 14.5,0 c 0.25,0 0.265625,-0.078125 0.375,-0.5 z m 0,0"
             id="path5" />
        </g>
      </g>
    </g>
    <g
       inkscape:label=""
       transform="translate(88.763837,97.355817)"
       id="g8">
      <g
         fill="#000000"
         fill-opacity="1"
         id="g7"
         transform="matrix(0.352778,0,0,0.352778,-1.19918,-0.708422)">
        <g
           id="g6"
           transform="translate(1.993,18.93)">
          <path
             d="m 17.34375,-16.15625 c 0.15625,-0.171875 0.28125,-0.328125 0.28125,-0.578125 0,-0.171875 -0.03125,-0.1875 -0.59375,-0.1875 H 6.796875 c -0.578125,0 -0.609375,0.01563 -0.75,0.46875 L 4.6875,-12 c -0.078125,0.25 -0.078125,0.296875 -0.078125,0.359375 0,0.09375 0.078125,0.234375 0.25,0.234375 0.203125,0 0.25,-0.09375 0.34375,-0.421875 0.921875,-2.671875 2.125,-4.375 6.046875,-4.375 h 4.0625 L 1.734375,-0.84375 C 1.515625,-0.5625 1.40625,-0.46875 1.40625,-0.203125 1.40625,0 1.53125,0 2,0 h 10.59375 c 0.5625,0 0.59375,-0.03125 0.734375,-0.46875 L 15.0625,-5.953125 c 0.03125,-0.0625 0.07813,-0.234375 0.07813,-0.34375 0,-0.125 -0.09375,-0.25 -0.25,-0.25 -0.203125,0 -0.21875,0.03125 -0.421875,0.65625 -1.03125,3.1875 -2.125,5.125 -6.4375,5.125 h -4.29688 z m 0,0"
             id="path6" />
        </g>
      </g>
    </g>
    <g
       inkscape:label=""
       transform="translate(47.944065,153.19954)"
       id="g11">
      <g
         fill="#000000"
         fill-opacity="1"
         id="g10"
         transform="matrix(0.352778,0,0,0.352778,-0.923572,-0.708422)">
        <g
           id="g9"
           transform="translate(1.993,18.93)">
          <path
             d="M 11.765625,-10.0625 9.4375,-15.484375 c 0.328125,-0.59375 1.0625,-0.703125 1.359375,-0.71875 0.15625,0 0.421875,-0.03125 0.421875,-0.453125 0,-0.265625 -0.21875,-0.265625 -0.359375,-0.265625 -0.421875,0 -0.921875,0.04687 -1.34375,0.04687 h -1.4375 c -1.515625,0 -2.59375,-0.04687 -2.625,-0.04687 -0.203125,0 -0.453125,0 -0.453125,0.46875 0,0.25 0.234375,0.25 0.546875,0.25 1.4375,0 1.546875,0.25 1.78125,0.84375 l 2.953125,6.890625 -5.375,5.75 c -0.890625,0.953125 -1.953125,1.90625 -3.796875,2 C 0.8125,-0.6875 0.625,-0.6875 0.625,-0.25 0.625,-0.171875 0.640625,0 0.921875,0 c 0.34375,0 0.71875,-0.046875 1.0625,-0.046875 h 1.15625 C 3.9375,-0.046875 4.8125,0 5.578125,0 5.75,0 6.046875,0 6.046875,-0.453125 6.046875,-0.6875 5.875,-0.71875 5.71875,-0.71875 5.234375,-0.765625 4.90625,-1.046875 4.90625,-1.4375 c 0,-0.421875 0.296875,-0.71875 1.015625,-1.46875 L 8.125,-5.296875 C 8.671875,-5.875 9.984375,-7.3125 10.53125,-7.859375 l 2.609375,6.09375 c 0.01563,0.0625 0.125,0.296875 0.125,0.328125 0,0.21875 -0.546875,0.671875 -1.34375,0.71875 C 11.765625,-0.71875 11.5,-0.6875 11.5,-0.25 11.5,0 11.75,0 11.875,0 c 0.421875,0 0.90625,-0.046875 1.328125,-0.046875 H 15.9375 C 16.375,-0.046875 16.84375,0 17.265625,0 c 0.1875,0 0.453125,0 0.453125,-0.46875 0,-0.25 -0.25,-0.25 -0.46875,-0.25 C 15.765625,-0.75 15.71875,-0.875 15.296875,-1.78125 l -3.28125,-7.6875 3.15625,-3.375 c 0.234375,-0.234375 0.8125,-0.859375 1.03125,-1.109375 1.0625,-1.109375 2.0625,-2.125 4.0625,-2.25 0.25,-0.03125 0.5,-0.03125 0.5,-0.453125 0,-0.265625 -0.21875,-0.265625 -0.328125,-0.265625 -0.34375,0 -0.71875,0.04687 -1.0625,0.04687 h -1.140625 c -0.78125,0 -1.65625,-0.04687 -2.421875,-0.04687 -0.171875,0 -0.46875,0 -0.46875,0.4375 0,0.25 0.171875,0.28125 0.3125,0.28125 0.40625,0.04687 0.828125,0.25 0.828125,0.71875 l -0.03125,0.04687 c -0.01563,0.171875 -0.07813,0.421875 -0.34375,0.71875 z m 0,0"
             id="path8" />
        </g>
      </g>
    </g>
    <g
       inkscape:label=""
       transform="translate(136.52864,153.76647)"
       id="g14">
      <g
         fill="#000000"
         fill-opacity="1"
         id="g13"
         transform="matrix(0.352778,0,0,0.352778,-0.989718,-0.708422)">
        <g
           id="g12"
           transform="translate(1.993,18.93)">
          <path
             d="m 14.578125,-14.171875 0.5625,-0.578125 c 1.09375,-1.109375 2.015625,-1.375 2.875,-1.453125 0.265625,-0.03125 0.5,-0.04687 0.5,-0.46875 0,-0.25 -0.25,-0.25 -0.296875,-0.25 -0.296875,0 -0.625,0.04687 -0.921875,0.04687 H 16.28125 c -0.71875,0 -1.484375,-0.04687 -2.1875,-0.04687 -0.171875,0 -0.4375,0 -0.4375,0.46875 0,0.21875 0.25,0.25 0.328125,0.25 0.734375,0.04687 0.734375,0.421875 0.734375,0.5625 0,0.28125 -0.203125,0.640625 -0.6875,1.21875 L 8.125,-7.65625 5.328125,-15.1875 c -0.15625,-0.34375 -0.15625,-0.40625 -0.15625,-0.453125 0,-0.515625 1.015625,-0.5625 1.328125,-0.5625 0.296875,0 0.5625,0 0.5625,-0.453125 0,-0.265625 -0.21875,-0.265625 -0.375,-0.265625 -0.421875,0 -0.90625,0.04687 -1.328125,0.04687 h -2.75 c -0.453125,0 -0.921875,-0.04687 -1.34375,-0.04687 -0.171875,0 -0.453125,0 -0.453125,0.46875 0,0.25 0.234375,0.25 0.59375,0.25 1.21875,0 1.4375,0.21875 1.671875,0.796875 l 3.0625,8.25 C 6.171875,-7.09375 6.25,-6.8125 6.25,-6.734375 c 0,0.0625 -1.21875,4.953125 -1.296875,5.203125 -0.1875,0.65625 -0.4375,0.78125 -2.03125,0.8125 -0.421875,0 -0.625,0 -0.625,0.46875 0,0.25 0.28125,0.25 0.359375,0.25 0.4375,0 0.96875,-0.046875 1.4375,-0.046875 h 2.921875 c 0.4375,0 0.96875,0.046875 1.40625,0.046875 0.171875,0 0.46875,0 0.46875,-0.453125 0,-0.265625 -0.171875,-0.265625 -0.59375,-0.265625 -1.53125,0 -1.53125,-0.171875 -1.53125,-0.453125 C 6.765625,-1.34375 6.96875,-2.125 7.09375,-2.625 L 7.984375,-6.1875 C 8.125,-6.71875 8.125,-6.765625 8.34375,-7.015625 Z m 0,0"
             id="path11" />
        </g>
      </g>
    </g>
    <g
       inkscape:label=""
       transform="translate(88.055161,130.94709)"
       id="g17">
      <g
         fill="#000000"
         fill-opacity="1"
         id="g16"
         transform="matrix(0.352778,0,0,0.352778,-1.12201,-0.521009)">
        <g
           id="g15"
           transform="translate(1.993,18.93)">
          <path
             d="m 17.984375,-10.859375 c 0,-4.078125 -2.671875,-6.59375 -6.140625,-6.59375 -5.296875,0 -10.65625,5.703125 -10.65625,11.4375 0,3.890625 2.578125,6.53125 6.171875,6.53125 5.203125,0 10.625,-5.421875 10.625,-11.375 z m -10.46875,10.8125 c -2.03125,0 -4.1875,-1.484375 -4.1875,-5.359375 0,-2.25 0.8125,-5.9375 2.84375,-8.421875 1.8125,-2.1875 3.890625,-3.078125 5.546875,-3.078125 2.1875,0 4.296875,1.59375 4.296875,5.15625 0,2.203125 -0.953125,5.65625 -2.609375,8.015625 -1.8125,2.515625 -4.0625,3.6875 -5.890625,3.6875 z m 0,0"
             id="path14" />
        </g>
      </g>
    </g>
    <g
       inkscape:label=""
       transform="translate(105.20513,115.92314)"
       id="g22">
      <g
         fill="#000000"
         fill-opacity="1"
         id="g18"
         transform="matrix(0.352778,0,0,0.352778,-0.434807,-0.69925)">
        <g
           id="use5"
           transform="translate(2.132,23.899)">
          <path
             d="m 13.265625,-14.796875 c -0.3125,0.28125 -1.21875,1.140625 -1.21875,1.484375 0,0.25 0.21875,0.46875 0.46875,0.46875 0.21875,0 0.328125,-0.140625 0.5,-0.390625 0.59375,-0.75 1.265625,-1.21875 1.828125,-1.53125 0.25,-0.15625 0.421875,-0.234375 0.421875,-0.5 0,-0.21875 -0.203125,-0.34375 -0.34375,-0.46875 -0.703125,-0.46875 -0.875,-1.140625 -0.9375,-1.4375 -0.07813,-0.203125 -0.15625,-0.5 -0.5,-0.5 -0.15625,0 -0.453125,0.109375 -0.453125,0.46875 0,0.234375 0.15625,0.828125 0.625,1.484375 H 5.328125 c -0.421875,0 -0.84375,0 -0.84375,0.484375 0,0.4375 0.453125,0.4375 0.84375,0.4375 z m 0,0"
             id="path9" />
        </g>
      </g>
      <g
         fill="#000000"
         fill-opacity="1"
         id="g19"
         transform="matrix(0.352778,0,0,0.352778,-0.434807,-0.69925)">
        <g
           id="use6"
           transform="translate(1.99815,23.899)">
          <path
             d="m 1.0625,3.140625 c -0.171875,0.75 -0.265625,0.953125 -1.28125,0.953125 -0.296875,0 -0.546875,0 -0.546875,0.46875 0,0.046875 0.015625,0.25 0.296875,0.25 0.3125,0 0.671875,-0.046875 0.984375,-0.046875 H 1.59375 c 0.515625,0 1.78125,0.046875 2.296875,0.046875 0.15625,0 0.453125,0 0.453125,-0.453125 0,-0.265625 -0.1875,-0.265625 -0.609375,-0.265625 -1.125,0 -1.203125,-0.171875 -1.203125,-0.375 0,-0.296875 1.109375,-4.5625 1.265625,-5.125 0.265625,0.6875 0.9375,1.65625 2.21875,1.65625 2.8125,0 5.828125,-3.640625 5.828125,-7.28125 0,-2.28125 -1.28125,-3.890625 -3.140625,-3.890625 -1.59375,0 -2.921875,1.53125 -3.203125,1.875 -0.203125,-1.234375 -1.15625,-1.875 -2.15625,-1.875 -0.71875,0 -1.28125,0.34375 -1.75,1.28125 -0.453125,0.890625 -0.796875,2.40625 -0.796875,2.5 0,0.109375 0.09375,0.234375 0.265625,0.234375 0.203125,0 0.21875,-0.03125 0.375,-0.609375 0.375,-1.453125 0.84375,-2.921875 1.828125,-2.921875 0.578125,0 0.78125,0.40625 0.78125,1.140625 0,0.59375 -0.078125,0.84375 -0.1875,1.296875 z m 4.296875,-10.875 c 0.171875,-0.6875 0.859375,-1.40625 1.25,-1.75 0.28125,-0.25 1.09375,-0.953125 2.046875,-0.953125 1.078125,0 1.578125,1.09375 1.578125,2.390625 0,1.1875 -0.6875,3.984375 -1.3125,5.265625 C 8.296875,-1.4375 7.15625,-0.25 6.015625,-0.25 4.34375,-0.25 4.0625,-2.375 4.0625,-2.484375 4.0625,-2.546875 4.109375,-2.75 4.140625,-2.875 Z m 0,0"
             id="path10" />
        </g>
      </g>
      <g
         fill="#000000"
         fill-opacity="1"
         id="g20"
         transform="matrix(0.352778,0,0,0.352778,-0.434807,-0.69925)">
        <g
           id="use7"
           transform="translate(14.174,14.904)">
          <path
             d="m 5.09375,-5.46875 h 2.890625 c 2.375,0 4.75,-1.765625 4.75,-3.71875 0,-1.34375 -1.125,-2.578125 -3.296875,-2.578125 H 4.109375 c -0.328125,0 -0.46875,0 -0.46875,0.328125 0,0.171875 0.140625,0.171875 0.40625,0.171875 1.046875,0 1.046875,0.140625 1.046875,0.328125 0,0.03125 0,0.140625 -0.0625,0.40625 l -2.328125,9.25 C 2.546875,-0.671875 2.515625,-0.5 1.3125,-0.5 c -0.328125,0 -0.5,0 -0.5,0.3125 C 0.8125,0 0.96875,0 1.0625,0 c 0.328125,0 0.671875,-0.03125 1,-0.03125 H 4.078125 C 4.40625,-0.03125 4.765625,0 5.09375,0 5.234375,0 5.421875,0 5.421875,-0.328125 5.421875,-0.5 5.265625,-0.5 5.015625,-0.5 c -1.03125,0 -1.0625,-0.125 -1.0625,-0.296875 C 3.953125,-0.875 3.984375,-1 4,-1.078125 Z m 1.25,-5.125 c 0.140625,-0.640625 0.21875,-0.671875 0.890625,-0.671875 H 8.9375 c 1.296875,0 2.359375,0.421875 2.359375,1.703125 0,0.453125 -0.21875,1.921875 -1.015625,2.703125 -0.296875,0.3125 -1.125,0.96875 -2.6875,0.96875 H 5.171875 Z m 0,0"
             id="path19" />
        </g>
      </g>
      <g
         fill="#000000"
         fill-opacity="1"
         id="g21"
         transform="matrix(0.352778,0,0,0.352778,-0.434807,-0.69925)">
        <g
           id="use8"
           transform="translate(26.450302,14.904)">
          <path
             d="m 7.390625,-12.28125 c 0,-0.01563 0.09375,-0.265625 0.09375,-0.3125 0,-0.203125 -0.171875,-0.328125 -0.296875,-0.328125 -0.09375,0 -0.25,0 -0.390625,0.390625 L 1.03125,3.671875 C 1.03125,3.6875 0.9375,3.9375 0.9375,3.984375 0.9375,4.1875 1.109375,4.3125 1.234375,4.3125 1.34375,4.3125 1.5,4.28125 1.625,3.921875 Z m 0,0"
             id="path21" />
        </g>
        <g
           id="use9"
           transform="translate(34.878963,14.904)">
          <path
             d="m 12.5,-7.546875 c 0,-2.84375 -1.859375,-4.578125 -4.265625,-4.578125 -3.6875,0 -7.40625,3.96875 -7.40625,7.9375 0,2.703125 1.796875,4.546875 4.28125,4.546875 3.625,0 7.390625,-3.765625 7.390625,-7.90625 z M 5.21875,-0.03125 C 3.8125,-0.03125 2.3125,-1.0625 2.3125,-3.75 2.3125,-5.328125 2.875,-7.890625 4.28125,-9.609375 5.546875,-11.125 6.984375,-11.75 8.140625,-11.75 c 1.515625,0 2.984375,1.109375 2.984375,3.59375 0,1.53125 -0.65625,3.921875 -1.8125,5.5625 -1.25,1.75 -2.828125,2.5625 -4.09375,2.5625 z m 0,0"
             id="path13" />
        </g>
      </g>
    </g>
    <g
       inkscape:label=""
       transform="translate(118.38652,89.276903)"
       id="g30">
      <g
         fill="#000000"
         fill-opacity="1"
         id="g23"
         transform="matrix(0.352778,0,0,0.352778,-0.984206,-0.701366)">
        <g
           id="use4"
           transform="translate(1.993,16.93)">
          <path
             d="m 12.734375,-9.953125 c 0.203125,-0.734375 0.46875,-1.25 1.78125,-1.3125 0.04687,0 0.265625,-0.01563 0.265625,-0.3125 0,-0.1875 -0.15625,-0.1875 -0.234375,-0.1875 -0.34375,0 -1.21875,0.04687 -1.5625,0.04687 H 12.15625 c -0.234375,0 -0.546875,-0.04687 -0.796875,-0.04687 -0.09375,0 -0.3125,0 -0.3125,0.328125 0,0.171875 0.140625,0.171875 0.265625,0.171875 1.03125,0.03125 1.109375,0.4375 1.109375,0.75 0,0.15625 -0.03125,0.203125 -0.07813,0.4375 l -1.9375,7.765625 -3.6875,-9.15625 C 6.59375,-11.75 6.578125,-11.765625 6.203125,-11.765625 H 4.09375 c -0.34375,0 -0.5,0 -0.5,0.328125 0,0.171875 0.125,0.171875 0.453125,0.171875 0.078125,0 1.09375,0 1.09375,0.15625 0,0.03125 -0.03125,0.171875 -0.046875,0.234375 L 2.8125,-1.75 c -0.21875,0.84375 -0.625,1.203125 -1.765625,1.25 -0.078125,0 -0.25,0.015625 -0.25,0.328125 C 0.796875,0 0.96875,0 1.015625,0 c 0.34375,0 1.21875,-0.03125 1.5625,-0.03125 H 3.40625 C 3.65625,-0.03125 3.9375,0 4.1875,0 4.3125,0 4.5,0 4.5,-0.328125 4.5,-0.484375 4.328125,-0.5 4.25,-0.5 3.6875,-0.515625 3.140625,-0.625 3.140625,-1.234375 c 0,-0.140625 0.03125,-0.296875 0.0625,-0.4375 L 5.53125,-10.875 c 0.09375,0.171875 0.09375,0.203125 0.171875,0.359375 L 9.796875,-0.3125 C 9.890625,-0.109375 9.921875,0 10.078125,0 c 0.171875,0 0.1875,-0.046875 0.25,-0.34375 z m 0,0"
             id="path22" />
        </g>
      </g>
      <g
         fill="#000000"
         fill-opacity="1"
         id="g25"
         transform="matrix(0.352778,0,0,0.352778,-0.984206,-0.701366)">
        <g
           id="g24"
           transform="translate(21.408001,19.66)">
          <path
             d="m 13.265625,-14.796875 c -0.3125,0.28125 -1.21875,1.140625 -1.21875,1.484375 0,0.25 0.21875,0.46875 0.46875,0.46875 0.21875,0 0.328125,-0.140625 0.5,-0.390625 0.59375,-0.75 1.265625,-1.21875 1.828125,-1.53125 0.25,-0.15625 0.421875,-0.234375 0.421875,-0.5 0,-0.21875 -0.203125,-0.34375 -0.34375,-0.46875 -0.703125,-0.46875 -0.875,-1.140625 -0.9375,-1.4375 -0.07813,-0.203125 -0.15625,-0.5 -0.5,-0.5 -0.15625,0 -0.453125,0.109375 -0.453125,0.46875 0,0.234375 0.15625,0.828125 0.625,1.484375 H 5.328125 c -0.421875,0 -0.84375,0 -0.84375,0.484375 0,0.4375 0.453125,0.4375 0.84375,0.4375 z m 0,0"
             id="path23" />
        </g>
      </g>
      <g
         fill="#000000"
         fill-opacity="1"
         id="g27"
         transform="matrix(0.352778,0,0,0.352778,-0.984206,-0.701366)">
        <g
           id="g26"
           transform="translate(17.787001,25.924999)">
          <path
             d="m 18.484375,-17.21875 c 0,-0.234375 -0.171875,-0.234375 -0.21875,-0.234375 -0.04687,0 -0.15625,0 -0.34375,0.25 l -1.71875,2.0625 c -0.125,-0.203125 -0.609375,-1.0625 -1.578125,-1.640625 -1.0625,-0.671875 -2.140625,-0.671875 -2.5,-0.671875 -5.3125,0 -10.890625,5.40625 -10.890625,11.265625 0,4.078125 2.828125,6.703125 6.546875,6.703125 1.78125,0 4.046875,-0.59375 5.28125,-2.15625 0.265625,0.953125 0.8125,1.609375 0.984375,1.609375 0.125,0 0.15625,-0.0625 0.171875,-0.0625 0.03125,-0.0625 0.234375,-0.921875 0.359375,-1.375 l 0.390625,-1.578125 c 0.203125,-0.8125 0.296875,-1.171875 0.46875,-1.90625 0.25,-0.9375 0.296875,-1.015625 1.65625,-1.046875 0.109375,0 0.40625,0 0.40625,-0.46875 0,-0.25 -0.25,-0.25 -0.328125,-0.25 -0.421875,0 -0.890625,0.046875 -1.34375,0.046875 H 14.5 c -1.046875,0 -2.140625,-0.046875 -3.15625,-0.046875 -0.21875,0 -0.515625,0 -0.515625,0.453125 0,0.25 0.203125,0.25 0.203125,0.265625 h 0.609375 c 1.96875,0 1.96875,0.203125 1.96875,0.578125 0,0.015625 -0.46875,2.515625 -0.953125,3.265625 -0.9375,1.390625 -2.890625,1.953125 -4.359375,1.953125 -1.90625,0 -5,-0.984375 -5,-5.28125 0,-1.65625 0.59375,-5.4375 3,-8.25 1.5625,-1.78125 3.859375,-3 6.046875,-3 2.921875,0 3.96875,2.515625 3.96875,4.796875 0,0.390625 -0.109375,0.9375 -0.109375,1.28125 0,0.21875 0.25,0.21875 0.328125,0.21875 0.265625,0 0.296875,-0.01563 0.390625,-0.46875 z m 0,0"
             id="path25" />
        </g>
      </g>
      <g
         fill="#000000"
         fill-opacity="1"
         id="g29"
         transform="matrix(0.352778,0,0,0.352778,-0.984206,-0.701366)">
        <g
           id="g28"
           transform="translate(36.931999,16.93)">
          <path
             d="m 5.09375,-5.46875 h 2.890625 c 2.375,0 4.75,-1.765625 4.75,-3.71875 0,-1.34375 -1.125,-2.578125 -3.296875,-2.578125 H 4.109375 c -0.328125,0 -0.46875,0 -0.46875,0.328125 0,0.171875 0.140625,0.171875 0.40625,0.171875 1.046875,0 1.046875,0.140625 1.046875,0.328125 0,0.03125 0,0.140625 -0.0625,0.40625 l -2.328125,9.25 C 2.546875,-0.671875 2.515625,-0.5 1.3125,-0.5 c -0.328125,0 -0.5,0 -0.5,0.3125 C 0.8125,0 0.96875,0 1.0625,0 c 0.328125,0 0.671875,-0.03125 1,-0.03125 H 4.078125 C 4.40625,-0.03125 4.765625,0 5.09375,0 5.234375,0 5.421875,0 5.421875,-0.328125 5.421875,-0.5 5.265625,-0.5 5.015625,-0.5 c -1.03125,0 -1.0625,-0.125 -1.0625,-0.296875 C 3.953125,-0.875 3.984375,-1 4,-1.078125 Z m 1.25,-5.125 c 0.140625,-0.640625 0.21875,-0.671875 0.890625,-0.671875 H 8.9375 c 1.296875,0 2.359375,0.421875 2.359375,1.703125 0,0.453125 -0.21875,1.921875 -1.015625,2.703125 -0.296875,0.3125 -1.125,0.96875 -2.6875,0.96875 H 5.171875 Z m 0,0"
             id="path27" />
        </g>
      </g>
    </g>
    <g
       inkscape:label=""
       transform="translate(136.52864,100.61546)"
       id="g34">
      <g
         fill="#000000"
         fill-opacity="1"
         id="g33"
         transform="matrix(0.352778,0,0,0.352778,-1.1165,-0.708422)">
        <g
           id="g32"
           transform="translate(1.993,18.93)">
          <path
             d="M 7.328125,-7.875 H 11.5 c 3.421875,0 6.84375,-2.53125 6.84375,-5.359375 0,-1.9375 -1.640625,-3.6875 -4.765625,-3.6875 h -7.65625 c -0.46875,0 -0.6875,0 -0.6875,0.46875 0,0.25 0.21875,0.25 0.59375,0.25 1.5,0 1.5,0.1875 1.5,0.46875 0,0.04687 0,0.203125 -0.09375,0.5625 l -3.34375,13.34375 c -0.21875,0.859375 -0.265625,1.109375 -2,1.109375 -0.484375,0 -0.71875,0 -0.71875,0.453125 C 1.171875,0 1.390625,0 1.53125,0 2,0 2.5,-0.046875 2.96875,-0.046875 H 5.875 C 6.34375,-0.046875 6.859375,0 7.328125,0 7.53125,0 7.8125,0 7.8125,-0.46875 c 0,-0.25 -0.234375,-0.25 -0.59375,-0.25 -1.5,0 -1.515625,-0.171875 -1.515625,-0.421875 0,-0.125 0.015625,-0.296875 0.046875,-0.421875 z M 9.125,-15.234375 c 0.21875,-0.921875 0.3125,-0.96875 1.28125,-0.96875 h 2.453125 c 1.859375,0 3.390625,0.59375 3.390625,2.453125 0,0.640625 -0.3125,2.75 -1.453125,3.890625 -0.421875,0.4375 -1.609375,1.390625 -3.875,1.390625 H 7.4375 Z m 0,0"
             id="path7" />
        </g>
      </g>
    </g>
  </g>
</svg>
