<?xml version="1.0" encoding="UTF-8" standalone="no"?>
<svg
   width="88.048996mm"
   height="105.00613mm"
   viewBox="0 0 88.048996 105.00613"
   version="1.1"
   id="svg8"
   inkscape:version="1.3.2 (091e20e, 2023-11-25, custom)"
   sodipodi:docname="pendulo.svg"
   inkscape:export-filename="pendulo.png"
   inkscape:export-xdpi="300"
   inkscape:export-ydpi="300"
   xmlns:inkscape="http://www.inkscape.org/namespaces/inkscape"
   xmlns:sodipodi="http://sodipodi.sourceforge.net/DTD/sodipodi-0.dtd"
   xmlns="http://www.w3.org/2000/svg"
   xmlns:svg="http://www.w3.org/2000/svg"
   xmlns:rdf="http://www.w3.org/1999/02/22-rdf-syntax-ns#"
   xmlns:cc="http://creativecommons.org/ns#"
   xmlns:dc="http://purl.org/dc/elements/1.1/">
  <sodipodi:namedview
     id="base"
     pagecolor="#ffffff"
     bordercolor="#666666"
     borderopacity="1.0"
     inkscape:pageopacity="0.0"
     inkscape:pageshadow="2"
     inkscape:zoom="1.4"
     inkscape:cx="80"
     inkscape:cy="193.21429"
     inkscape:document-units="mm"
     inkscape:current-layer="layer1"
     inkscape:document-rotation="0"
     showgrid="false"
     inkscape:snap-others="false"
     inkscape:snap-nodes="true"
     inkscape:snap-object-midpoints="true"
     inkscape:snap-smooth-nodes="true"
     inkscape:window-width="1920"
     inkscape:window-height="1009"
     inkscape:window-x="-8"
     inkscape:window-y="-8"
     inkscape:window-maximized="1"
     inkscape:showpageshadow="2"
     inkscape:pagecheckerboard="0"
     inkscape:deskcolor="#d1d1d1"
     inkscape:export-bgcolor="#ffffffff" />
  <defs
     id="defs2">
    <marker
       style="overflow:visible"
       id="Triangle"
       refX="0"
       refY="0"
       orient="auto-start-reverse"
       inkscape:stockid="Triangle arrow"
       markerWidth="1"
       markerHeight="1"
       viewBox="0 0 1 1"
       inkscape:isstock="true"
       inkscape:collect="always"
       preserveAspectRatio="xMidYMid">
      <path
         transform="scale(0.5)"
         style="fill:context-stroke;fill-rule:evenodd;stroke:context-stroke;stroke-width:1pt"
         d="M 5.77,0 -2.88,5 V -5 Z"
         id="path135" />
    </marker>
    <marker
       style="overflow:visible"
       id="marker3774"
       refX="0"
       refY="0"
       orient="auto"
       inkscape:stockid="Arrow1Lstart"
       inkscape:isstock="true">
      <path
         transform="matrix(0.8,0,0,0.8,10,0)"
         style="fill:#00ff00;fill-opacity:1;fill-rule:evenodd;stroke:#00ff00;stroke-width:1pt;stroke-opacity:1"
         d="M 0,0 5,-5 -12.5,0 5,5 Z"
         id="path3772" />
    </marker>
    <marker
       style="overflow:visible"
       id="marker3722"
       refX="0"
       refY="0"
       orient="auto"
       inkscape:stockid="Arrow1Lend"
       inkscape:isstock="true">
      <path
         transform="matrix(-0.8,0,0,-0.8,-10,0)"
         style="fill:#00ff00;fill-opacity:1;fill-rule:evenodd;stroke:#00ff00;stroke-width:1pt;stroke-opacity:1"
         d="M 0,0 5,-5 -12.5,0 5,5 Z"
         id="path3720" />
    </marker>
    <marker
       style="overflow:visible"
       id="marker3562"
       refX="0"
       refY="0"
       orient="auto"
       inkscape:stockid="Arrow1Lstart"
       inkscape:isstock="true">
      <path
         transform="matrix(0.8,0,0,0.8,10,0)"
         style="fill:#0000ff;fill-opacity:1;fill-rule:evenodd;stroke:#0000ff;stroke-width:1pt;stroke-opacity:1"
         d="M 0,0 5,-5 -12.5,0 5,5 Z"
         id="path3560" />
    </marker>
    <marker
       style="overflow:visible"
       id="marker3516"
       refX="0"
       refY="0"
       orient="auto"
       inkscape:stockid="Arrow1Lend"
       inkscape:isstock="true">
      <path
         transform="matrix(-0.8,0,0,-0.8,-10,0)"
         style="fill:#0000ff;fill-opacity:1;fill-rule:evenodd;stroke:#0000ff;stroke-width:1pt;stroke-opacity:1"
         d="M 0,0 5,-5 -12.5,0 5,5 Z"
         id="path3514" />
    </marker>
    <marker
       style="overflow:visible"
       id="Arrow1Lstart"
       refX="0"
       refY="0"
       orient="auto"
       inkscape:stockid="Arrow1Lstart"
       inkscape:isstock="true">
      <path
         transform="matrix(0.8,0,0,0.8,10,0)"
         style="fill:#ff0000;fill-opacity:1;fill-rule:evenodd;stroke:#ff0000;stroke-width:1pt;stroke-opacity:1"
         d="M 0,0 5,-5 -12.5,0 5,5 Z"
         id="path3080" />
    </marker>
    <marker
       style="overflow:visible"
       id="Arrow1Lend"
       refX="0"
       refY="0"
       orient="auto"
       inkscape:stockid="Arrow1Lend"
       inkscape:isstock="true">
      <path
         transform="matrix(-0.8,0,0,-0.8,-10,0)"
         style="fill:#ff0000;fill-opacity:1;fill-rule:evenodd;stroke:#ff0000;stroke-width:1pt;stroke-opacity:1"
         d="M 0,0 5,-5 -12.5,0 5,5 Z"
         id="path3083" />
    </marker>
    <marker
       style="overflow:visible"
       id="marker2416"
       refX="0"
       refY="0"
       orient="auto"
       inkscape:stockid="Arrow1Lend"
       inkscape:isstock="true">
      <path
         transform="matrix(-0.8,0,0,-0.8,-10,0)"
         style="fill:#ff0000;fill-opacity:1;fill-rule:evenodd;stroke:#ff0000;stroke-width:1pt;stroke-opacity:1"
         d="M 0,0 5,-5 -12.5,0 5,5 Z"
         id="path2414" />
    </marker>
    <filter
       inkscape:collect="always"
       style="color-interpolation-filters:sRGB"
       id="filter2408"
       x="-0.19294295"
       width="1.3858859"
       y="-0.19294295"
       height="1.3858859">
      <feGaussianBlur
         inkscape:collect="always"
         stdDeviation="0.52308203"
         id="feGaussianBlur2410" />
    </filter>
  </defs>
  <metadata
     id="metadata5">
    <rdf:RDF>
      <cc:Work
         rdf:about="">
        <dc:format>image/svg+xml</dc:format>
        <dc:type
           rdf:resource="http://purl.org/dc/dcmitype/StillImage" />
        <dc:title />
      </cc:Work>
    </rdf:RDF>
  </metadata>
  <g
     inkscape:label="Layer 1"
     inkscape:groupmode="layer"
     id="layer1"
     transform="translate(-65.4133, -91.2934)">
    <g
       inkscape:label="Layer 1"
       id="layer1-5"
       transform="rotate(180,114.42965,141.64063)">
      <path
         id="rect24"
         style="fill:#ffffff;stroke:#000000;stroke-width:2.64567;stroke-miterlimit:4;stroke-dasharray:none"
         d="M 59.556641,1.3222656 A 20.13322,21.885369 0 0 0 39.509766,21.322266 h -0.08789 v 1.886718 41.884766 h 40.26953 V 23.208984 21.322266 h -0.08984 A 20.13322,21.885369 0 0 0 59.558594,1.3222656 Z m 0.375,10.1542964 a 10.370582,10.370582 0 0 1 0.04297,0 A 10.370582,10.370582 0 0 1 70.345703,21.847656 10.370582,10.370582 0 0 1 59.974609,32.216797 10.370582,10.370582 0 0 1 49.603516,21.847656 10.370582,10.370582 0 0 1 59.931641,11.476562 Z"
         transform="matrix(0.26458333,0,0,0.26458333,131.37539,162.36989)" />
      <g
         id="g88"
         transform="translate(-5.2409363,43.353553)"
         style="stroke-width:0.7;stroke-miterlimit:4;stroke-dasharray:none">
        <path
           style="fill:none;stroke:#000000;stroke-width:0.7;stroke-linecap:butt;stroke-linejoin:miter;stroke-miterlimit:4;stroke-dasharray:none;stroke-opacity:1"
           d="m 136.91944,136.22022 h 31.76753"
           id="path74"
           inkscape:connector-curvature="0" />
        <path
           style="fill:none;stroke:#000000;stroke-width:0.7;stroke-linecap:butt;stroke-linejoin:miter;stroke-miterlimit:4;stroke-dasharray:none;stroke-opacity:1"
           d="m 136.91944,136.22022 3.24438,5.61943"
           id="path76"
           inkscape:connector-curvature="0" />
        <path
           inkscape:connector-curvature="0"
           id="path78"
           d="m 142.21114,136.22022 3.24438,5.61943"
           style="fill:none;stroke:#000000;stroke-width:0.7;stroke-linecap:butt;stroke-linejoin:miter;stroke-miterlimit:4;stroke-dasharray:none;stroke-opacity:1" />
        <path
           style="fill:none;stroke:#000000;stroke-width:0.7;stroke-linecap:butt;stroke-linejoin:miter;stroke-miterlimit:4;stroke-dasharray:none;stroke-opacity:1"
           d="m 147.50284,136.22022 3.24438,5.61943"
           id="path80"
           inkscape:connector-curvature="0" />
        <path
           inkscape:connector-curvature="0"
           id="path82"
           d="m 152.79454,136.22022 3.24438,5.61943"
           style="fill:none;stroke:#000000;stroke-width:0.7;stroke-linecap:butt;stroke-linejoin:miter;stroke-miterlimit:4;stroke-dasharray:none;stroke-opacity:1" />
        <path
           style="fill:none;stroke:#000000;stroke-width:0.7;stroke-linecap:butt;stroke-linejoin:miter;stroke-miterlimit:4;stroke-dasharray:none;stroke-opacity:1"
           d="m 158.08624,136.22022 3.24438,5.61943"
           id="path84"
           inkscape:connector-curvature="0" />
        <path
           inkscape:connector-curvature="0"
           id="path86"
           d="m 163.37794,136.22022 3.24438,5.61943"
           style="fill:none;stroke:#000000;stroke-width:0.7;stroke-linecap:butt;stroke-linejoin:miter;stroke-miterlimit:4;stroke-dasharray:none;stroke-opacity:1" />
      </g>
    </g>
    <g
       id="g2882"
       transform="rotate(-22.138451,121.81848,-30.025584)">
      <path
         id="rect12"
         style="fill:#ffffff;fill-opacity:1;stroke:#000000;stroke-width:0.264999"
         d="m 28.865108,90.871643 c 0.7006,-0.478202 1.303133,-0.347139 1.870887,0 v 0 77.508167 0 h -1.870887 v 0 z"
         sodipodi:nodetypes="cccccccc" />
      <path
         style="fill:none;stroke:#000000;stroke-width:0.264583px;stroke-linecap:butt;stroke-linejoin:miter;stroke-opacity:1"
         d="m 28.848404,92.842751 1.883913,-1.087678"
         id="path2800" />
      <path
         style="fill:none;stroke:#000000;stroke-width:0.264583px;stroke-linecap:butt;stroke-linejoin:miter;stroke-opacity:1"
         d="m 28.848404,96.017753 1.883913,-1.087678"
         id="path2802" />
      <path
         style="fill:none;stroke:#000000;stroke-width:0.264583px;stroke-linecap:butt;stroke-linejoin:miter;stroke-opacity:1"
         d="M 28.848404,98.663588 30.732317,97.57591"
         id="path2804" />
      <path
         style="fill:none;stroke:#000000;stroke-width:0.264583px;stroke-linecap:butt;stroke-linejoin:miter;stroke-opacity:1"
         d="m 28.848404,101.30943 1.883913,-1.08769"
         id="path2806" />
      <path
         style="fill:none;stroke:#000000;stroke-width:0.264583px;stroke-linecap:butt;stroke-linejoin:miter;stroke-opacity:1"
         d="m 28.848404,103.95528 1.883913,-1.08769"
         id="path2808" />
      <path
         style="fill:none;stroke:#000000;stroke-width:0.264583px;stroke-linecap:butt;stroke-linejoin:miter;stroke-opacity:1"
         d="m 28.848404,106.60113 1.883913,-1.08769"
         id="path2810" />
      <path
         style="fill:none;stroke:#000000;stroke-width:0.264583px;stroke-linecap:butt;stroke-linejoin:miter;stroke-opacity:1"
         d="m 28.848404,109.24698 1.883913,-1.08769"
         id="path2812" />
      <path
         style="fill:none;stroke:#000000;stroke-width:0.264583px;stroke-linecap:butt;stroke-linejoin:miter;stroke-opacity:1"
         d="m 28.848404,111.89283 1.883913,-1.08769"
         id="path2814" />
      <path
         style="fill:none;stroke:#000000;stroke-width:0.264583px;stroke-linecap:butt;stroke-linejoin:miter;stroke-opacity:1"
         d="m 28.848404,114.53868 1.883913,-1.08769"
         id="path2816" />
      <path
         style="fill:none;stroke:#000000;stroke-width:0.264583px;stroke-linecap:butt;stroke-linejoin:miter;stroke-opacity:1"
         d="m 28.848404,117.18453 1.883913,-1.08769"
         id="path2818" />
      <path
         style="fill:none;stroke:#000000;stroke-width:0.264583px;stroke-linecap:butt;stroke-linejoin:miter;stroke-opacity:1"
         d="m 28.848404,119.83038 1.883913,-1.08769"
         id="path2820" />
      <path
         style="fill:none;stroke:#000000;stroke-width:0.264583px;stroke-linecap:butt;stroke-linejoin:miter;stroke-opacity:1"
         d="m 28.848404,122.47623 1.883913,-1.08769"
         id="path2822" />
      <path
         style="fill:none;stroke:#000000;stroke-width:0.264583px;stroke-linecap:butt;stroke-linejoin:miter;stroke-opacity:1"
         d="m 28.848404,125.12208 1.883913,-1.08769"
         id="path2824" />
      <path
         style="fill:none;stroke:#000000;stroke-width:0.264583px;stroke-linecap:butt;stroke-linejoin:miter;stroke-opacity:1"
         d="m 28.848404,127.76793 1.883913,-1.08769"
         id="path2826" />
      <path
         style="fill:none;stroke:#000000;stroke-width:0.264583px;stroke-linecap:butt;stroke-linejoin:miter;stroke-opacity:1"
         d="m 28.848404,130.94295 1.883913,-1.08769"
         id="path2828" />
      <path
         style="fill:none;stroke:#000000;stroke-width:0.264583px;stroke-linecap:butt;stroke-linejoin:miter;stroke-opacity:1"
         d="m 28.848404,133.5888 1.883913,-1.08769"
         id="path2830" />
      <path
         style="fill:none;stroke:#000000;stroke-width:0.264583px;stroke-linecap:butt;stroke-linejoin:miter;stroke-opacity:1"
         d="m 28.848404,136.76382 1.883913,-1.08769"
         id="path2832" />
      <path
         style="fill:none;stroke:#000000;stroke-width:0.264583px;stroke-linecap:butt;stroke-linejoin:miter;stroke-opacity:1"
         d="m 28.848404,139.40967 1.883913,-1.08769"
         id="path2834" />
      <path
         style="fill:none;stroke:#000000;stroke-width:0.264583px;stroke-linecap:butt;stroke-linejoin:miter;stroke-opacity:1"
         d="M 28.848404,142.58469 30.732317,141.497"
         id="path2836" />
      <path
         style="fill:none;stroke:#000000;stroke-width:0.264583px;stroke-linecap:butt;stroke-linejoin:miter;stroke-opacity:1"
         d="m 28.848404,145.75971 1.883913,-1.08769"
         id="path2838" />
      <path
         style="fill:none;stroke:#000000;stroke-width:0.264583px;stroke-linecap:butt;stroke-linejoin:miter;stroke-opacity:1"
         d="m 28.848404,149.4639 1.883913,-1.08769"
         id="path2840" />
      <path
         style="fill:none;stroke:#000000;stroke-width:0.264583px;stroke-linecap:butt;stroke-linejoin:miter;stroke-opacity:1"
         d="m 28.848404,153.69726 1.883913,-1.08769"
         id="path2842" />
      <path
         style="fill:none;stroke:#000000;stroke-width:0.264583px;stroke-linecap:butt;stroke-linejoin:miter;stroke-opacity:1"
         d="m 28.848404,157.93062 1.883913,-1.08769"
         id="path2844" />
      <path
         style="fill:none;stroke:#000000;stroke-width:0.264583px;stroke-linecap:butt;stroke-linejoin:miter;stroke-opacity:1"
         d="m 28.848404,161.63481 1.883913,-1.08769"
         id="path2846" />
      <path
         style="fill:none;stroke:#000000;stroke-width:0.264583px;stroke-linecap:butt;stroke-linejoin:miter;stroke-opacity:1"
         d="m 28.848404,164.80983 1.883913,-1.08769"
         id="path2848" />
      <path
         style="fill:none;stroke:#000000;stroke-width:0.264583px;stroke-linecap:butt;stroke-linejoin:miter;stroke-opacity:1"
         d="m 28.848404,164.80983 1.883913,-1.08769"
         id="path2850" />
      <path
         style="fill:none;stroke:#000000;stroke-width:0.264583px;stroke-linecap:butt;stroke-linejoin:miter;stroke-opacity:1"
         d="m 28.848404,167.45568 1.883913,-1.08769"
         id="path2852" />
    </g>
    <g
       id="g916"
       transform="rotate(-22.138451,316.54558,211.45804)">
      <circle
         style="opacity:1;mix-blend-mode:normal;fill:#000000;stroke:#000000;stroke-width:0.170779"
         id="path1649"
         cx="135.97427"
         cy="113.54485"
         r="7.4015002" />
      <circle
         style="opacity:1;fill:#ffffff;stroke:#000000;stroke-width:0.118401;filter:url(#filter2408)"
         id="path1651"
         cx="138.57416"
         cy="110.38313"
         r="3.4066997" />
    </g>
    <path
       style="fill:none;stroke:#ff0000;stroke-width:0.264583px;stroke-linecap:butt;stroke-linejoin:miter;stroke-opacity:1"
       d="m 113.05501,189.22682 40.3577,-16.30344"
       id="path3074" />
    <path
       style="fill:none;stroke:#ff0000;stroke-width:0.264583px;stroke-linecap:butt;stroke-linejoin:miter;stroke-opacity:1"
       d="M 82.051745,116.26224 122.40944,99.958799"
       id="path3076" />
    <path
       style="fill:none;stroke:#ff0000;stroke-width:0.265;stroke-linecap:butt;stroke-linejoin:miter;stroke-miterlimit:4;stroke-dasharray:none;stroke-opacity:1;marker-start:url(#Triangle);marker-end:url(#Triangle)"
       d="m 118.4004,102.76513 29.26602,71.36097"
       id="path3078"
       sodipodi:nodetypes="cc" />
    <path
       style="fill:#0000ff;stroke:#0000ff;stroke-width:0.264583px;stroke-linecap:butt;stroke-linejoin:miter;stroke-opacity:1;marker-end:url(#Triangle)"
       d="m 81.866243,116.32704 21.123787,-8.5297"
       id="path3470"
       sodipodi:nodetypes="cc" />
    <path
       style="fill:#0000ff;stroke:#0000ff;stroke-width:0.264583px;stroke-linecap:butt;stroke-linejoin:miter;stroke-opacity:1;marker-start:url(#Triangle)"
       d="M 71.904241,91.897836 82.015101,116.3718"
       id="path3506" />
    <path
       style="fill:none;stroke:#00ff00;stroke-width:0.264583px;stroke-linecap:butt;stroke-linejoin:miter;stroke-opacity:1;marker-start:url(#Triangle);marker-end:url(#Triangle)"
       d="M 105.23738,116.26224 H 82.051744 V 91.807083"
       id="path3718" />
    <g
       inkscape:label=""
       transform="translate(134.90338,132.25231)"
       id="g1">
      <g
         fill="#000000"
         fill-opacity="1"
         id="g2"
         transform="matrix(0.352778,0,0,0.352778,-1.10547,-0.708422)">
        <g
           id="use1"
           transform="translate(1.993,18.93)">
          <path
             d="m 9.09375,-15.015625 c 0.21875,-0.9375 0.296875,-1.1875 2.484375,-1.1875 0.65625,0 0.84375,0 0.84375,-0.46875 0,-0.25 -0.28125,-0.25 -0.375,-0.25 -0.5,0 -1.0625,0.04687 -1.5625,0.04687 H 7.15625 c -0.46875,0 -1.015625,-0.04687 -1.484375,-0.04687 -0.1875,0 -0.46875,0 -0.46875,0.46875 0,0.25 0.21875,0.25 0.59375,0.25 1.515625,0 1.515625,0.1875 1.515625,0.46875 0,0.04687 0,0.203125 -0.09375,0.5625 l -3.359375,13.34375 c -0.21875,0.859375 -0.265625,1.109375 -2,1.109375 -0.46875,0 -0.71875,0 -0.71875,0.453125 C 1.140625,0 1.28125,0 1.78125,0 H 12.890625 C 13.4375,0 13.453125,-0.03125 13.625,-0.46875 L 15.53125,-5.75 c 0.0625,-0.125 0.109375,-0.265625 0.109375,-0.34375 0,-0.15625 -0.125,-0.25 -0.25,-0.25 -0.03125,0 -0.15625,0 -0.203125,0.09375 -0.04687,0.03125 -0.04687,0.078125 -0.25,0.546875 -0.78125,2.1875 -1.90625,4.984375 -6.09375,4.984375 h -2.375 c -0.34375,0 -0.390625,0 -0.546875,-0.03125 C 5.65625,-0.765625 5.625,-0.8125 5.625,-1.015625 5.625,-1.1875 5.671875,-1.34375 5.71875,-1.5625 Z m 0,0"
             id="path2" />
        </g>
      </g>
    </g>
    <g
       inkscape:label=""
       transform="translate(71.560499,118.08702)"
       id="g5">
      <g
         fill="#000000"
         fill-opacity="1"
         id="g4"
         transform="matrix(0.352778,0,0,0.352778,-1.12201,-0.521009)">
        <g
           id="g3"
           transform="translate(1.993,18.93)">
          <path
             d="m 17.984375,-10.859375 c 0,-4.078125 -2.671875,-6.59375 -6.140625,-6.59375 -5.296875,0 -10.65625,5.703125 -10.65625,11.4375 0,3.890625 2.578125,6.53125 6.171875,6.53125 5.203125,0 10.625,-5.421875 10.625,-11.375 z m -10.46875,10.8125 c -2.03125,0 -4.1875,-1.484375 -4.1875,-5.359375 0,-2.25 0.8125,-5.9375 2.84375,-8.421875 1.8125,-2.1875 3.890625,-3.078125 5.546875,-3.078125 2.1875,0 4.296875,1.59375 4.296875,5.15625 0,2.203125 -0.953125,5.65625 -2.609375,8.015625 -1.8125,2.515625 -4.0625,3.6875 -5.890625,3.6875 z m 0,0"
             id="path1" />
        </g>
      </g>
    </g>
    <path
       style="fill:none;stroke:#000000;stroke-width:0.2;marker-start:url(#Triangle)"
       id="path5"
       sodipodi:type="arc"
       sodipodi:cx="81.866241"
       sodipodi:cy="116.32704"
       sodipodi:rx="8.7572508"
       sodipodi:ry="8.5365973"
       sodipodi:start="4.4146702"
       sodipodi:end="4.7302654"
       sodipodi:arc-type="arc"
       d="m 79.297389,108.16599 a 8.7572508,8.5365973 0 0 1 2.725392,-0.37418"
       sodipodi:open="true" />
    <path
       style="fill:none;stroke:#000000;stroke-width:0.2;marker-start:url(#Triangle)"
       id="path6"
       sodipodi:type="arc"
       sodipodi:cx="81.866241"
       sodipodi:cy="116.32704"
       sodipodi:rx="8.7572508"
       sodipodi:ry="8.5365973"
       sodipodi:start="5.9630331"
       sodipodi:end="6.2588299"
       sodipodi:arc-type="arc"
       d="m 90.178515,113.64048 a 8.7572508,8.5365973 0 0 1 0.44238,2.47867"
       sodipodi:open="true" />
    <g
       inkscape:label=""
       transform="translate(91.309864,116.27076)"
       id="g9">
      <g
         fill="#000000"
         fill-opacity="1"
         id="g8"
         transform="matrix(0.352778,0,0,0.352778,-1.05035,-0.618023)">
        <g
           id="g7"
           transform="translate(1.993,19.205)">
          <path
             d="m 10.984375,-12.46875 c 0,-2.53125 -0.796875,-4.984375 -2.828125,-4.984375 -3.46875,0 -7.171875,7.265625 -7.171875,12.71875 0,1.140625 0.25,4.984375 2.859375,4.984375 3.375,0 7.140625,-7.09375 7.140625,-12.71875 z m -7.515625,3.5 c 0.375,-1.46875 0.890625,-3.546875 1.890625,-5.3125 0.8125,-1.484375 1.671875,-2.671875 2.765625,-2.671875 0.828125,0 1.359375,0.703125 1.359375,3.078125 0,0.890625 -0.0625,2.125 -0.78125,4.90625 z m 5.0625,0.734375 c -0.625,2.4375 -1.140625,4 -2.03125,5.5625 C 5.78125,-1.40625 4.90625,-0.25 3.859375,-0.25 c -0.765625,0 -1.375,-0.59375 -1.375,-3.046875 0,-1.609375 0.390625,-3.296875 0.78125,-4.9375 z m 0,0"
             id="path7" />
        </g>
      </g>
    </g>
    <g
       inkscape:label=""
       transform="translate(82.899894,105.21496)"
       id="g12">
      <g
         fill="#000000"
         fill-opacity="1"
         id="g11"
         transform="matrix(0.352778,0,0,0.352778,-1.05035,-0.618023)">
        <g
           id="g10"
           transform="translate(1.993,19.205)">
          <path
             d="m 10.984375,-12.46875 c 0,-2.53125 -0.796875,-4.984375 -2.828125,-4.984375 -3.46875,0 -7.171875,7.265625 -7.171875,12.71875 0,1.140625 0.25,4.984375 2.859375,4.984375 3.375,0 7.140625,-7.09375 7.140625,-12.71875 z m -7.515625,3.5 c 0.375,-1.46875 0.890625,-3.546875 1.890625,-5.3125 0.8125,-1.484375 1.671875,-2.671875 2.765625,-2.671875 0.828125,0 1.359375,0.703125 1.359375,3.078125 0,0.890625 -0.0625,2.125 -0.78125,4.90625 z m 5.0625,0.734375 c -0.625,2.4375 -1.140625,4 -2.03125,5.5625 C 5.78125,-1.40625 4.90625,-0.25 3.859375,-0.25 c -0.765625,0 -1.375,-0.59375 -1.375,-3.046875 0,-1.609375 0.390625,-3.296875 0.78125,-4.9375 z m 0,0"
             id="path9" />
        </g>
      </g>
    </g>
  </g>
</svg>
