<?xml version="1.0" encoding="UTF-8" standalone="no"?>
<svg
   xmlns:dc="http://purl.org/dc/elements/1.1/"
   xmlns:cc="http://creativecommons.org/ns#"
   xmlns:rdf="http://www.w3.org/1999/02/22-rdf-syntax-ns#"
   xmlns:svg="http://www.w3.org/2000/svg"
   xmlns="http://www.w3.org/2000/svg"
   xmlns:sodipodi="http://sodipodi.sourceforge.net/DTD/sodipodi-0.dtd"
   xmlns:inkscape="http://www.inkscape.org/namespaces/inkscape"
   width="96.373062mm"
   height="74.586601mm"
   viewBox="0 0 96.373062 74.586601"
   version="1.1"
   id="svg1505"
   inkscape:version="1.0.1 (3bc2e813f5, 2020-09-07)"
   sodipodi:docname="RefMov06svg.svg">
  <defs
     id="defs1499">
    <marker
       style="overflow:visible"
       id="marker2367"
       refX="0"
       refY="0"
       orient="auto"
       inkscape:stockid="Arrow1Lend"
       inkscape:isstock="true">
      <path
         transform="matrix(-0.8,0,0,-0.8,-10,0)"
         style="fill:#000000;fill-opacity:1;fill-rule:evenodd;stroke:#000000;stroke-width:1pt;stroke-opacity:1"
         d="M 0,0 5,-5 -12.5,0 5,5 Z"
         id="path2365" />
    </marker>
    <marker
       style="overflow:visible"
       id="marker2357"
       refX="0"
       refY="0"
       orient="auto"
       inkscape:stockid="Arrow1Lend"
       inkscape:isstock="true">
      <path
         transform="matrix(-0.8,0,0,-0.8,-10,0)"
         style="fill:#000000;fill-opacity:1;fill-rule:evenodd;stroke:#000000;stroke-width:1pt;stroke-opacity:1"
         d="M 0,0 5,-5 -12.5,0 5,5 Z"
         id="path2355" />
    </marker>
    <marker
       style="overflow:visible"
       id="Arrow1Lend"
       refX="0"
       refY="0"
       orient="auto"
       inkscape:stockid="Arrow1Lend"
       inkscape:isstock="true"
       inkscape:collect="always">
      <path
         transform="matrix(-0.8,0,0,-0.8,-10,0)"
         style="fill:#000000;fill-opacity:1;fill-rule:evenodd;stroke:#000000;stroke-width:1pt;stroke-opacity:1"
         d="M 0,0 5,-5 -12.5,0 5,5 Z"
         id="path859" />
    </marker>
    <marker
       style="overflow:visible"
       id="marker1202"
       refX="0"
       refY="0"
       orient="auto"
       inkscape:stockid="Arrow1Lend"
       inkscape:isstock="true"
       inkscape:collect="always">
      <path
         transform="matrix(-0.8,0,0,-0.8,-10,0)"
         style="fill:#000000;fill-opacity:1;fill-rule:evenodd;stroke:#000000;stroke-width:1pt;stroke-opacity:1"
         d="M 0,0 5,-5 -12.5,0 5,5 Z"
         id="path1200" />
    </marker>
    <marker
       style="overflow:visible"
       id="marker1230"
       refX="0"
       refY="0"
       orient="auto"
       inkscape:stockid="Arrow1Lend"
       inkscape:isstock="true"
       inkscape:collect="always">
      <path
         transform="matrix(-0.8,0,0,-0.8,-10,0)"
         style="fill:#000000;fill-opacity:1;fill-rule:evenodd;stroke:#000000;stroke-width:1pt;stroke-opacity:1"
         d="M 0,0 5,-5 -12.5,0 5,5 Z"
         id="path1228" />
    </marker>
  </defs>
  <sodipodi:namedview
     id="base"
     pagecolor="#ffffff"
     bordercolor="#666666"
     borderopacity="1.0"
     inkscape:pageopacity="0.0"
     inkscape:pageshadow="2"
     inkscape:zoom="1.9563863"
     inkscape:cx="258.59762"
     inkscape:cy="163.32726"
     inkscape:document-units="mm"
     inkscape:current-layer="layer1"
     inkscape:document-rotation="0"
     showgrid="true"
     showborder="false"
     inkscape:window-width="1920"
     inkscape:window-height="1053"
     inkscape:window-x="0"
     inkscape:window-y="27"
     inkscape:window-maximized="1" />
  <metadata
     id="metadata1502">
    <rdf:RDF>
      <cc:Work
         rdf:about="">
        <dc:format>image/svg+xml</dc:format>
        <dc:type
           rdf:resource="http://purl.org/dc/dcmitype/StillImage" />
        <dc:title></dc:title>
      </cc:Work>
    </rdf:RDF>
  </metadata>
  <g
     inkscape:label="Layer 1"
     inkscape:groupmode="layer"
     id="layer1"
     transform="translate(-47.581398,-123)">
    <g
       inkscape:label="Layer 1"
       id="layer1-5"
       transform="translate(31.329782,0.031396)">
      <g
         id="g176"
         style="stroke-width:0.2;stroke-miterlimit:4;stroke-dasharray:none"
         transform="translate(-9.6791465,42.468604)">
        <path
           style="fill:none;stroke:#000000;stroke-width:0.2;stroke-linecap:butt;stroke-linejoin:miter;stroke-miterlimit:4;stroke-dasharray:none;stroke-opacity:1"
           d="M 73.612159,127.5 V 80.499998"
           id="path170" />
        <path
           style="fill:none;stroke:#000000;stroke-width:0.2;stroke-linecap:butt;stroke-linejoin:miter;stroke-miterlimit:4;stroke-dasharray:none;stroke-opacity:1"
           d="M 120.37753,154.5 73.612159,127.5 25.980763,155 v 0"
           id="path172" />
      </g>
      <g
         id="g1313"
         style="stroke-width:0.5;stroke-miterlimit:4;stroke-dasharray:none"
         transform="translate(-9.6791465,42.468604)">
        <path
           style="fill:none;stroke:#000000;stroke-width:0.5;stroke-linecap:butt;stroke-linejoin:miter;stroke-miterlimit:4;stroke-dasharray:none;stroke-opacity:1;marker-end:url(#Arrow1Lend)"
           d="M 73.612157,127.5 V 97.499999"
           id="path12" />
        <path
           style="fill:none;stroke:#000000;stroke-width:0.5;stroke-linecap:butt;stroke-linejoin:miter;stroke-miterlimit:4;stroke-dasharray:none;stroke-opacity:1;marker-end:url(#marker1202)"
           d="m 73.612157,127.5 25.980763,15"
           id="path16" />
        <path
           style="fill:none;stroke:#000000;stroke-width:0.5;stroke-linecap:butt;stroke-linejoin:miter;stroke-miterlimit:4;stroke-dasharray:none;stroke-opacity:1;marker-end:url(#marker1230)"
           d="m 73.612157,127.5 -25.98076,15"
           id="path20" />
      </g>
    </g>
    <path
       style="fill:none;stroke:#000000;stroke-width:0.2;stroke-linecap:butt;stroke-linejoin:miter;stroke-miterlimit:4;stroke-dasharray:none;stroke-opacity:1"
       d="M 143.90446,141.91672 95.262794,170 69.635748,125.61265"
       id="path1642" />
    <path
       style="fill:none;stroke:#000000;stroke-width:0.5;stroke-linecap:butt;stroke-linejoin:miter;stroke-miterlimit:4;stroke-dasharray:none;stroke-opacity:1;marker-end:url(#marker2357)"
       d="M 95.262794,170 119.6226,155.98996"
       id="path2223" />
    <path
       style="fill:none;stroke:#000000;stroke-width:0.5;stroke-linecap:butt;stroke-linejoin:miter;stroke-miterlimit:4;stroke-dasharray:none;stroke-opacity:1;marker-end:url(#marker2367)"
       d="m 95.262794,170 -13.545,-23.40303"
       id="path2225" />
    <path
       style="fill:#000000;stroke:#000000;stroke-width:0.1;stroke-miterlimit:4;stroke-dasharray:none"
       id="path2333"
       d="m 102.08096,165.87972 c 0.18633,0.47219 0.40142,0.93248 0.61955,1.39065 0.10255,0.19615 0.0772,0.41937 0.0983,0.63419 0.051,0.4287 0.12113,0.85436 0.20586,1.27756 0.056,0.20971 0.10805,0.41849 0.13018,0.6345 0.0278,0.21935 0.0239,0.44034 0.022,0.66086 -0.009,0.24232 -0.0123,0.48506 -0.0484,0.72511 -0.0445,0.25757 -0.0905,0.51492 -0.14531,0.77051 -0.0406,0.19162 -0.0897,0.38121 -0.15837,0.56472 -0.0419,0.11322 -0.0905,0.22368 -0.13913,0.33406 -0.0679,0.16639 -0.13089,0.33476 -0.19782,0.5016 -0.0536,0.15277 -0.14285,0.20747 0.0347,0.0663 -0.15876,0.0824 -0.26703,0.22901 -0.37247,0.36922 -0.0217,0.0291 -0.0423,0.0555 -0.0502,0.0908 -0.0286,0.0387 0.51846,0.44347 0.54708,0.40479 v 0 c 0.007,-0.003 0.0459,-0.0154 0.0548,-0.047 0.0228,-0.0281 0.25476,-0.28485 0.0931,-0.1789 0.16087,-0.10449 0.25495,-0.21482 0.32655,-0.3949 0.0705,-0.16548 0.13404,-0.33379 0.19105,-0.50442 0.0454,-0.11721 0.0955,-0.23138 0.15434,-0.34267 0.0838,-0.21121 0.14337,-0.42952 0.19543,-0.65059 0.0584,-0.26927 0.1246,-0.53748 0.16221,-0.81072 0.0355,-0.26517 0.0544,-0.53086 0.0509,-0.79867 0.007,-0.24452 0.005,-0.48976 -0.0242,-0.73297 -0.0244,-0.23346 -0.0617,-0.46321 -0.12214,-0.69021 -0.083,-0.4137 -0.14381,-0.83181 -0.22726,-1.24552 -0.0499,-0.25788 -0.081,-0.52158 -0.16913,-0.76938 -0.18296,-0.48543 -0.3959,-0.96074 -0.64937,-1.41364 -0.0109,-0.0412 -0.59302,0.11348 -0.58209,0.15464 z" />
    <path
       style="fill:#000000;stroke:#000000;stroke-width:0.1;stroke-miterlimit:4;stroke-dasharray:none"
       id="path2335"
       d="m 90.119567,161.10971 c 0.403143,-0.39302 0.757242,-0.83124 1.120841,-1.25989 0.108397,-0.13437 0.254704,-0.13598 0.410781,-0.18117 0.265967,-0.0791 0.515639,-0.19975 0.764673,-0.32015 0.239934,-0.116 0.486079,-0.22046 0.739124,-0.30443 0.252391,-0.0678 0.509214,-0.13149 0.771083,-0.14466 0.234257,0.0163 0.467783,0.0402 0.702495,0.0504 0.144081,0.003 0.285718,-0.012 0.427755,0.0163 0.106693,0.028 0.215944,0.0621 0.327408,0.0566 0.02257,0.0431 -0.227732,-0.0551 -0.173754,-0.0317 0.260969,0.1136 0.199816,0.0253 0.224012,-0.27415 5.29e-4,0.001 0.01535,-0.005 0.0149,-0.006 v 0 c -0.0056,-0.12408 -0.01767,-0.24804 -0.01693,-0.37225 2.65e-4,-0.0603 0.221608,0.0966 0.119081,0.0204 -0.06394,-0.0475 -0.135458,-0.046 -0.208735,-0.0533 -0.08394,-0.0365 -0.209393,-0.038 -0.307004,-0.052 -0.154212,-0.01 -0.308358,-0.001 -0.462473,-0.0147 -0.257765,-0.0182 -0.515755,-0.0497 -0.774567,-0.0332 -0.315275,0.0251 -0.626962,0.0831 -0.925627,0.1897 -0.270568,0.10013 -0.534148,0.21789 -0.793924,0.34331 -0.225478,0.1096 -0.448818,0.22429 -0.68535,0.30907 -0.23277,0.0912 -0.479304,0.13574 -0.646465,0.34593 -0.395002,0.40491 -0.773271,0.82705 -1.116467,1.27712 -0.03106,0.0346 0.458089,0.47383 0.489148,0.43925 z" />
  </g>
</svg>
