<?xml version="1.0" encoding="UTF-8" standalone="no"?>
<svg
   width="113.24919mm"
   height="122.64121mm"
   viewBox="0 0 113.24919 122.64121"
   version="1.1"
   id="svg942"
   inkscape:version="1.3.2 (091e20e, 2023-11-25, custom)"
   sodipodi:docname="RefMov07.svg"
   inkscape:export-filename="RefMov07.png"
   inkscape:export-xdpi="300"
   inkscape:export-ydpi="300"
   xmlns:inkscape="http://www.inkscape.org/namespaces/inkscape"
   xmlns:sodipodi="http://sodipodi.sourceforge.net/DTD/sodipodi-0.dtd"
   xmlns="http://www.w3.org/2000/svg"
   xmlns:svg="http://www.w3.org/2000/svg"
   xmlns:rdf="http://www.w3.org/1999/02/22-rdf-syntax-ns#"
   xmlns:cc="http://creativecommons.org/ns#"
   xmlns:dc="http://purl.org/dc/elements/1.1/">
  <sodipodi:namedview
     id="base"
     pagecolor="#ffffff"
     bordercolor="#666666"
     borderopacity="1.0"
     inkscape:pageopacity="0.0"
     inkscape:pageshadow="2"
     inkscape:zoom="1.2334087"
     inkscape:cx="136.20789"
     inkscape:cy="242.823"
     inkscape:document-units="mm"
     inkscape:current-layer="layer1"
     inkscape:document-rotation="0"
     showgrid="false"
     inkscape:object-nodes="false"
     inkscape:snap-others="true"
     inkscape:snap-nodes="true"
     showborder="false"
     inkscape:window-width="1920"
     inkscape:window-height="1009"
     inkscape:window-x="-8"
     inkscape:window-y="-8"
     inkscape:window-maximized="1"
     inkscape:snap-smooth-nodes="true"
     inkscape:showpageshadow="2"
     inkscape:pagecheckerboard="0"
     inkscape:deskcolor="#d1d1d1"
     inkscape:export-bgcolor="#ffffffff" />
  <defs
     id="defs936">
    <marker
       style="overflow:visible"
       id="Triangle"
       refX="0"
       refY="0"
       orient="auto-start-reverse"
       inkscape:stockid="Triangle arrow"
       markerWidth="1"
       markerHeight="1"
       viewBox="0 0 1 1"
       inkscape:isstock="true"
       inkscape:collect="always"
       preserveAspectRatio="xMidYMid">
      <path
         transform="scale(0.5)"
         style="fill:context-stroke;fill-rule:evenodd;stroke:context-stroke;stroke-width:1pt"
         d="M 5.77,0 -2.88,5 V -5 Z"
         id="path135" />
    </marker>
    <marker
       style="overflow:visible"
       id="marker1120"
       refX="0"
       refY="0"
       orient="auto"
       inkscape:stockid="Arrow1Lend"
       inkscape:isstock="true">
      <path
         transform="matrix(-0.8,0,0,-0.8,-10,0)"
         style="fill:#000000;fill-opacity:1;fill-rule:evenodd;stroke:#000000;stroke-width:1pt;stroke-opacity:1"
         d="M 0,0 5,-5 -12.5,0 5,5 Z"
         id="path1118" />
    </marker>
    <marker
       style="overflow:visible"
       id="marker3050"
       refX="0"
       refY="0"
       orient="auto"
       inkscape:stockid="Arrow1Lstart"
       inkscape:isstock="true">
      <path
         transform="matrix(0.8,0,0,0.8,10,0)"
         style="fill:#000000;fill-opacity:1;fill-rule:evenodd;stroke:#000000;stroke-width:1pt;stroke-opacity:1"
         d="M 0,0 5,-5 -12.5,0 5,5 Z"
         id="path3048" />
    </marker>
    <marker
       style="overflow:visible"
       id="marker2801"
       refX="0"
       refY="0"
       orient="auto"
       inkscape:stockid="Arrow1Lend"
       inkscape:isstock="true">
      <path
         transform="matrix(-0.8,0,0,-0.8,-10,0)"
         style="fill:#0000ff;fill-opacity:1;fill-rule:evenodd;stroke:#0000ff;stroke-width:1pt;stroke-opacity:1"
         d="M 0,0 5,-5 -12.5,0 5,5 Z"
         id="path2799" />
    </marker>
    <marker
       style="overflow:visible"
       id="marker2791"
       refX="0"
       refY="0"
       orient="auto"
       inkscape:stockid="Arrow1Lstart"
       inkscape:isstock="true">
      <path
         transform="matrix(0.8,0,0,0.8,10,0)"
         style="fill:#0000ff;fill-opacity:1;fill-rule:evenodd;stroke:#0000ff;stroke-width:1pt;stroke-opacity:1"
         d="M 0,0 5,-5 -12.5,0 5,5 Z"
         id="path2789" />
    </marker>
    <marker
       style="overflow:visible"
       id="Arrow1Lstart"
       refX="0"
       refY="0"
       orient="auto"
       inkscape:stockid="Arrow1Lstart"
       inkscape:isstock="true">
      <path
         transform="matrix(0.8,0,0,0.8,10,0)"
         style="fill:#000000;fill-opacity:1;fill-rule:evenodd;stroke:#000000;stroke-width:1pt;stroke-opacity:1"
         d="M 0,0 5,-5 -12.5,0 5,5 Z"
         id="path1509" />
    </marker>
    <marker
       style="overflow:visible"
       id="marker2416"
       refX="0"
       refY="0"
       orient="auto"
       inkscape:stockid="Arrow1Lend"
       inkscape:isstock="true">
      <path
         transform="matrix(-0.8,0,0,-0.8,-10,0)"
         style="fill:#ff0000;fill-opacity:1;fill-rule:evenodd;stroke:#ff0000;stroke-width:1pt;stroke-opacity:1"
         d="M 0,0 5,-5 -12.5,0 5,5 Z"
         id="path2414" />
    </marker>
    <filter
       inkscape:collect="always"
       style="color-interpolation-filters:sRGB"
       id="filter2408"
       x="-0.19294295"
       width="1.3858859"
       y="-0.19294295"
       height="1.3858859">
      <feGaussianBlur
         inkscape:collect="always"
         stdDeviation="0.52308203"
         id="feGaussianBlur2410" />
    </filter>
  </defs>
  <metadata
     id="metadata939">
    <rdf:RDF>
      <cc:Work
         rdf:about="">
        <dc:format>image/svg+xml</dc:format>
        <dc:type
           rdf:resource="http://purl.org/dc/dcmitype/StillImage" />
        <dc:title />
      </cc:Work>
    </rdf:RDF>
  </metadata>
  <g
     inkscape:label="Layer 1"
     inkscape:groupmode="layer"
     id="layer1"
     transform="translate(-18.8234, -73.658)">
    <path
       style="fill:none;stroke:#ff0000;stroke-width:0.2;stroke-dasharray:none"
       d="m 55.363458,144.78106 76.761012,-0.0356"
       id="path4" />
    <path
       style="fill:none;stroke:#ff0000;stroke-width:0.2;stroke-dasharray:none"
       d="M 55.40196,144.66003 132.07255,98.079136"
       id="path3" />
    <circle
       style="fill:#ffffff;stroke:#000000;stroke-width:0.5;stroke-linejoin:bevel;stroke-miterlimit:4;stroke-dasharray:none"
       id="path1112"
       cx="53.93779"
       cy="189.91286"
       r="6.2613263" />
    <path
       style="fill:none;stroke:#000000;stroke-width:0.5;stroke-linecap:butt;stroke-linejoin:miter;stroke-miterlimit:4;stroke-dasharray:none;stroke-opacity:1;marker-start:url(#Triangle);marker-end:url(#Triangle)"
       d="m 55.155015,108.37294 v 36.51785 h 39.02108"
       id="path1507"
       sodipodi:nodetypes="ccc" />
    <path
       style="fill:none;stroke:#ff0000;stroke-width:0.5;stroke-linecap:butt;stroke-linejoin:miter;stroke-miterlimit:4;stroke-dasharray:none;stroke-opacity:1;marker-end:url(#Triangle)"
       d="M 55.419984,144.34162 108.14515,112.94341"
       id="path3016"
       sodipodi:nodetypes="cc" />
    <path
       style="fill:none;stroke:#00ff00;stroke-width:0.2;stroke-dasharray:none"
       d="M 55.363458,144.78106 18.936813,83.566071"
       id="path2" />
    <path
       style="fill:none;stroke:#0000ff;stroke-width:0.5;stroke-linecap:butt;stroke-linejoin:miter;stroke-miterlimit:4;stroke-dasharray:none;stroke-opacity:1;marker-start:url(#Triangle);marker-end:url(#Triangle)"
       d="m 36.580593,113.46401 18.782864,31.31705 33.463771,-20.07039"
       id="path2787"
       sodipodi:nodetypes="ccc"
       inkscape:transform-center-x="-7.6428196"
       inkscape:transform-center-y="-15.336993" />
    <g
       id="g916"
       transform="matrix(0.58800293,0,0,0.58800293,31.881342,44.205658)">
      <circle
         style="opacity:1;mix-blend-mode:normal;fill:#000000;stroke:#000000;stroke-width:0.170779"
         id="path1649"
         cx="135.97427"
         cy="113.54485"
         r="7.4015002" />
      <circle
         style="opacity:1;fill:#ffffff;stroke:#000000;stroke-width:0.118401;filter:url(#filter2408)"
         id="path1651"
         cx="138.57416"
         cy="110.38313"
         r="3.4066997" />
    </g>
    <path
       style="fill:none;stroke:#000000;stroke-width:0.264583px;stroke-linecap:butt;stroke-linejoin:miter;stroke-opacity:1"
       d="M 54.993608,144.40523 73.32351,176.15355"
       id="path3042" />
    <path
       style="fill:none;stroke:#000000;stroke-width:0.264583px;stroke-linecap:butt;stroke-linejoin:miter;stroke-opacity:1"
       d="m 112.43186,111.1621 18.3299,31.74832"
       id="path3044" />
    <path
       style="fill:none;stroke:#000000;stroke-width:0.264583px;stroke-linecap:butt;stroke-linejoin:miter;stroke-opacity:1;marker-start:url(#Triangle);marker-end:url(#Triangle)"
       d="m 71.45406,170.97762 55.672,-32.18289"
       id="path3046"
       sodipodi:nodetypes="cc" />
    <circle
       style="fill:#ffffff;stroke:#000000;stroke-width:0.5;stroke-linejoin:bevel;stroke-miterlimit:4;stroke-dasharray:none"
       id="circle1114"
       cx="87.964333"
       cy="189.91286"
       r="6.2613263" />
    <path
       style="fill:none;stroke:#000000;stroke-width:0.264583px;stroke-linecap:butt;stroke-linejoin:miter;stroke-opacity:1;marker-end:url(#marker1120)"
       d="M 60.199115,189.91286 H 81.703006"
       id="path1116" />
    <path
       style="fill:none;stroke:#00ff00;stroke-width:0.2;stroke-dasharray:none"
       d="m 55.363458,144.78106 0.08594,-71.123088"
       id="path5" />
    <g
       inkscape:label=""
       transform="translate(77.980286,149.121)"
       id="g6">
      <g
         fill="#000000"
         fill-opacity="1"
         id="g2"
         transform="matrix(0.352778,0,0,0.352778,-9.3954678,-12.497881)">
        <g
           id="use1"
           transform="translate(1.993,19.205)">
          <path
             d="m 10.984375,-12.46875 c 0,-2.53125 -0.796875,-4.984375 -2.828125,-4.984375 -3.46875,0 -7.171875,7.265625 -7.171875,12.71875 0,1.140625 0.25,4.984375 2.859375,4.984375 3.375,0 7.140625,-7.09375 7.140625,-12.71875 z m -7.515625,3.5 c 0.375,-1.46875 0.890625,-3.546875 1.890625,-5.3125 0.8125,-1.484375 1.671875,-2.671875 2.765625,-2.671875 0.828125,0 1.359375,0.703125 1.359375,3.078125 0,0.890625 -0.0625,2.125 -0.78125,4.90625 z m 5.0625,0.734375 c -0.625,2.4375 -1.140625,4 -2.03125,5.5625 C 5.78125,-1.40625 4.90625,-0.25 3.859375,-0.25 c -0.765625,0 -1.375,-0.59375 -1.375,-3.046875 0,-1.609375 0.390625,-3.296875 0.78125,-4.9375 z m 0,0"
             id="path6" />
        </g>
      </g>
      <g
         fill="#000000"
         fill-opacity="1"
         id="g54"
         transform="matrix(0.352778,0,0,0.352778,-28.355999,-23.722515)">
        <g
           id="g53"
           transform="translate(1.993,19.205)">
          <path
             d="m 10.984375,-12.46875 c 0,-2.53125 -0.796875,-4.984375 -2.828125,-4.984375 -3.46875,0 -7.171875,7.265625 -7.171875,12.71875 0,1.140625 0.25,4.984375 2.859375,4.984375 3.375,0 7.140625,-7.09375 7.140625,-12.71875 z m -7.515625,3.5 c 0.375,-1.46875 0.890625,-3.546875 1.890625,-5.3125 0.8125,-1.484375 1.671875,-2.671875 2.765625,-2.671875 0.828125,0 1.359375,0.703125 1.359375,3.078125 0,0.890625 -0.0625,2.125 -0.78125,4.90625 z m 5.0625,0.734375 c -0.625,2.4375 -1.140625,4 -2.03125,5.5625 C 5.78125,-1.40625 4.90625,-0.25 3.859375,-0.25 c -0.765625,0 -1.375,-0.59375 -1.375,-3.046875 0,-1.609375 0.390625,-3.296875 0.78125,-4.9375 z m 0,0"
             id="path53" />
        </g>
      </g>
    </g>
    <g
       inkscape:label=""
       transform="translate(111.65419,99.975307)"
       id="g9">
      <g
         fill="#000000"
         fill-opacity="1"
         id="g8"
         transform="matrix(0.352778,0,0,0.352778,-1.1165,-0.708422)">
        <g
           id="g7"
           transform="translate(1.993,18.93)">
          <path
             d="M 7.328125,-7.875 H 11.5 c 3.421875,0 6.84375,-2.53125 6.84375,-5.359375 0,-1.9375 -1.640625,-3.6875 -4.765625,-3.6875 h -7.65625 c -0.46875,0 -0.6875,0 -0.6875,0.46875 0,0.25 0.21875,0.25 0.59375,0.25 1.5,0 1.5,0.1875 1.5,0.46875 0,0.04687 0,0.203125 -0.09375,0.5625 l -3.34375,13.34375 c -0.21875,0.859375 -0.265625,1.109375 -2,1.109375 -0.484375,0 -0.71875,0 -0.71875,0.453125 C 1.171875,0 1.390625,0 1.53125,0 2,0 2.5,-0.046875 2.96875,-0.046875 H 5.875 C 6.34375,-0.046875 6.859375,0 7.328125,0 7.53125,0 7.8125,0 7.8125,-0.46875 c 0,-0.25 -0.234375,-0.25 -0.59375,-0.25 -1.5,0 -1.515625,-0.171875 -1.515625,-0.421875 0,-0.125 0.015625,-0.296875 0.046875,-0.421875 z M 9.125,-15.234375 c 0.21875,-0.921875 0.3125,-0.96875 1.28125,-0.96875 h 2.453125 c 1.859375,0 3.390625,0.59375 3.390625,2.453125 0,0.640625 -0.3125,2.75 -1.453125,3.890625 -0.421875,0.4375 -1.609375,1.390625 -3.875,1.390625 H 7.4375 Z m 0,0"
             id="path7" />
        </g>
      </g>
    </g>
    <g
       inkscape:label=""
       transform="rotate(-34.594545,287.68804,-74.4769)"
       id="g12">
      <g
         fill="#000000"
         fill-opacity="1"
         id="g11"
         transform="matrix(0.352778,0,0,0.352778,-1.1165,-0.708422)">
        <g
           id="g10"
           transform="translate(1.993,18.93)">
          <path
             d="m 9.125,-15.234375 c 0.21875,-0.921875 0.3125,-0.96875 1.28125,-0.96875 h 1.78125 c 2.140625,0 3.71875,0.640625 3.71875,2.578125 0,1.265625 -0.640625,4.90625 -5.625,4.90625 H 7.484375 Z m 3.4375,6.8125 c 3.078125,-0.671875 5.484375,-2.65625 5.484375,-4.78125 0,-1.9375 -1.96875,-3.71875 -5.40625,-3.71875 h -6.71875 c -0.5,0 -0.71875,0 -0.71875,0.46875 0,0.25 0.171875,0.25 0.640625,0.25 1.484375,0 1.484375,0.1875 1.484375,0.46875 0,0.04687 0,0.203125 -0.09375,0.5625 l -3.34375,13.34375 C 3.671875,-0.96875 3.625,-0.71875 1.90625,-0.71875 c -0.5625,0 -0.734375,0 -0.734375,0.46875 0,0.25 0.265625,0.25 0.34375,0.25 0.4375,0 0.96875,-0.046875 1.4375,-0.046875 H 5.875 C 6.3125,-0.046875 6.84375,0 7.28125,0 7.484375,0 7.75,0 7.75,-0.46875 c 0,-0.25 -0.21875,-0.25 -0.59375,-0.25 -1.5,0 -1.5,-0.203125 -1.5,-0.453125 0,-0.015625 0,-0.1875 0.046875,-0.390625 l 1.65625,-6.671875 h 2.96875 c 2.359375,0 2.8125,1.5 2.8125,2.3125 0,0.375 -0.25,1.34375 -0.421875,1.984375 -0.28125,1.140625 -0.359375,1.40625 -0.359375,1.875 0,1.765625 1.4375,2.578125 3.109375,2.578125 2,0 2.875,-2.453125 2.875,-2.796875 0,-0.171875 -0.125,-0.25 -0.28125,-0.25 -0.1875,0 -0.25,0.15625 -0.296875,0.34375 -0.59375,1.765625 -1.609375,2.21875 -2.234375,2.21875 -0.609375,0 -1.015625,-0.28125 -1.015625,-1.390625 0,-0.59375 0.296875,-2.859375 0.328125,-2.984375 0.125,-0.90625 0.125,-1.015625 0.125,-1.203125 0,-1.8125 -1.46875,-2.578125 -2.40625,-2.875 z m 0,0"
             id="path9" />
        </g>
      </g>
    </g>
    <g
       inkscape:label=""
       transform="translate(48.553542,144.41879)"
       id="g15">
      <g
         fill="#000000"
         fill-opacity="1"
         id="g14"
         transform="matrix(0.352778,0,0,0.352778,-1.12201,-0.521009)">
        <g
           id="g13"
           transform="translate(1.993,18.93)">
          <path
             d="m 17.984375,-10.859375 c 0,-4.078125 -2.671875,-6.59375 -6.140625,-6.59375 -5.296875,0 -10.65625,5.703125 -10.65625,11.4375 0,3.890625 2.578125,6.53125 6.171875,6.53125 5.203125,0 10.625,-5.421875 10.625,-11.375 z m -10.46875,10.8125 c -2.03125,0 -4.1875,-1.484375 -4.1875,-5.359375 0,-2.25 0.8125,-5.9375 2.84375,-8.421875 1.8125,-2.1875 3.890625,-3.078125 5.546875,-3.078125 2.1875,0 4.296875,1.59375 4.296875,5.15625 0,2.203125 -0.953125,5.65625 -2.609375,8.015625 -1.8125,2.515625 -4.0625,3.6875 -5.890625,3.6875 z m 0,0"
             id="path12" />
        </g>
      </g>
    </g>
    <g
       inkscape:label=""
       transform="translate(39.755855,107.55952)"
       id="g17">
      <g
         fill="#000000"
         fill-opacity="1"
         id="g4"
         transform="matrix(0.352778,0,0,0.352778,-1.05035,-0.706217)">
        <g
           id="use3"
           transform="translate(2.6789999,19.205)">
          <path
             d="m 5.671875,-17.203125 -3.046875,3.375 0.296875,0.296875 2.75,-2.671875 2.75,2.671875 0.296875,-0.296875 z m 0,0"
             id="path15" />
        </g>
      </g>
      <g
         fill="#000000"
         fill-opacity="1"
         id="g5"
         transform="matrix(0.352778,0,0,0.352778,-1.05035,-0.706217)">
        <g
           id="use4"
           transform="translate(1.993,19.207001)">
          <path
             d="m 7.453125,-2.953125 c -0.125,0.421875 -0.125,0.46875 -0.46875,0.953125 -0.546875,0.6875 -1.625,1.75 -2.796875,1.75 -1.015625,0 -1.578125,-0.921875 -1.578125,-2.375 0,-1.359375 0.765625,-4.140625 1.234375,-5.1875 0.84375,-1.734375 2,-2.625 2.96875,-2.625 1.640625,0 1.953125,2.03125 1.953125,2.234375 0,0.03125 -0.0625,0.34375 -0.09375,0.390625 z m 1.59375,-6.34375 c -0.28125,-0.640625 -0.9375,-1.625 -2.234375,-1.625 -2.796875,0 -5.828125,3.609375 -5.828125,7.28125 0,2.453125 1.4375,3.890625 3.125,3.890625 1.375,0 2.53125,-1.0625 3.21875,-1.890625 C 7.578125,-0.171875 8.75,0.25 9.484375,0.25 c 0.75,0 1.34375,-0.453125 1.796875,-1.34375 0.390625,-0.84375 0.734375,-2.34375 0.734375,-2.453125 0,-0.125 -0.09375,-0.21875 -0.25,-0.21875 -0.21875,0 -0.25,0.125 -0.34375,0.5 C 11.046875,-1.8125 10.578125,-0.25 9.5625,-0.25 c -0.71875,0 -0.765625,-0.640625 -0.765625,-1.140625 0,-0.5625 0.078125,-0.84375 0.296875,-1.8125 0.171875,-0.609375 0.296875,-1.15625 0.5,-1.875 0.90625,-3.71875 1.140625,-4.609375 1.140625,-4.765625 0,-0.34375 -0.28125,-0.609375 -0.640625,-0.609375 -0.796875,0 -1,0.859375 -1.046875,1.15625 z m 0,0"
             id="path16" />
        </g>
      </g>
      <g
         fill="#000000"
         fill-opacity="1"
         id="g16"
         transform="matrix(0.352778,0,0,0.352778,-1.05035,-0.706217)">
        <g
           id="use5"
           transform="translate(14.733,22.924999)">
          <path
             d="m 4.53125,1.921875 c -0.46875,0.65625 -1.140625,1.25 -1.984375,1.25 -0.203125,0 -1.03125,-0.03125 -1.296875,-0.828125 0.0625,0.015625 0.140625,0.015625 0.171875,0.015625 0.53125,0 0.875,-0.453125 0.875,-0.84375 0,-0.390625 -0.328125,-0.53125 -0.59375,-0.53125 -0.28125,0 -0.875,0.203125 -0.875,1.046875 0,0.875 0.734375,1.484375 1.71875,1.484375 1.71875,0 3.46875,-1.59375 3.9375,-3.5 l 1.6875,-6.71875 c 0.03125,-0.078125 0.0625,-0.1875 0.0625,-0.28125 0,-0.265625 -0.203125,-0.4375 -0.46875,-0.4375 -0.15625,0 -0.515625,0.0625 -0.65625,0.59375 L 5.84375,-1.78125 C 5.75,-1.46875 5.75,-1.421875 5.609375,-1.234375 5.265625,-0.75 4.703125,-0.171875 3.875,-0.171875 c -0.96875,0 -1.046875,-0.953125 -1.046875,-1.40625 0,-0.984375 0.453125,-2.3125 0.921875,-3.546875 0.1875,-0.5 0.296875,-0.75 0.296875,-1.09375 0,-0.71875 -0.515625,-1.375 -1.359375,-1.375 -1.578125,0 -2.21875,2.5 -2.21875,2.640625 0,0.0625 0.0625,0.15625 0.1875,0.15625 0.15625,0 0.171875,-0.078125 0.234375,-0.3125 C 1.3125,-6.5625 1.96875,-7.25 2.640625,-7.25 c 0.15625,0 0.4375,0 0.4375,0.5625 0,0.453125 -0.1875,0.953125 -0.4375,1.609375 -0.84375,2.25 -0.84375,2.828125 -0.84375,3.234375 0,1.640625 1.171875,2.015625 2.03125,2.015625 0.5,0 1.109375,-0.15625 1.71875,-0.796875 L 5.5625,-0.609375 C 5.296875,0.40625 5.125,1.078125 4.53125,1.921875 Z m 0,0"
             id="path8" />
        </g>
      </g>
    </g>
    <g
       inkscape:label=""
       transform="translate(79.800497,117.11563)"
       id="g24">
      <g
         fill="#000000"
         fill-opacity="1"
         id="g19"
         transform="matrix(0.352778,0,0,0.352778,-1.05035,-0.70657)">
        <g
           id="g18"
           transform="translate(2.6789999,19.205999)">
          <path
             d="m 5.671875,-17.203125 -3.046875,3.375 0.296875,0.296875 2.75,-2.671875 2.75,2.671875 0.296875,-0.296875 z m 0,0"
             id="path17" />
        </g>
      </g>
      <g
         fill="#000000"
         fill-opacity="1"
         id="g21"
         transform="matrix(0.352778,0,0,0.352778,-1.05035,-0.70657)">
        <g
           id="g20"
           transform="translate(1.993,19.207001)">
          <path
             d="m 7.453125,-2.953125 c -0.125,0.421875 -0.125,0.46875 -0.46875,0.953125 -0.546875,0.6875 -1.625,1.75 -2.796875,1.75 -1.015625,0 -1.578125,-0.921875 -1.578125,-2.375 0,-1.359375 0.765625,-4.140625 1.234375,-5.1875 0.84375,-1.734375 2,-2.625 2.96875,-2.625 1.640625,0 1.953125,2.03125 1.953125,2.234375 0,0.03125 -0.0625,0.34375 -0.09375,0.390625 z m 1.59375,-6.34375 c -0.28125,-0.640625 -0.9375,-1.625 -2.234375,-1.625 -2.796875,0 -5.828125,3.609375 -5.828125,7.28125 0,2.453125 1.4375,3.890625 3.125,3.890625 1.375,0 2.53125,-1.0625 3.21875,-1.890625 C 7.578125,-0.171875 8.75,0.25 9.484375,0.25 c 0.75,0 1.34375,-0.453125 1.796875,-1.34375 0.390625,-0.84375 0.734375,-2.34375 0.734375,-2.453125 0,-0.125 -0.09375,-0.21875 -0.25,-0.21875 -0.21875,0 -0.25,0.125 -0.34375,0.5 C 11.046875,-1.8125 10.578125,-0.25 9.5625,-0.25 c -0.71875,0 -0.765625,-0.640625 -0.765625,-1.140625 0,-0.5625 0.078125,-0.84375 0.296875,-1.8125 0.171875,-0.609375 0.296875,-1.15625 0.5,-1.875 0.90625,-3.71875 1.140625,-4.609375 1.140625,-4.765625 0,-0.34375 -0.28125,-0.609375 -0.640625,-0.609375 -0.796875,0 -1,0.859375 -1.046875,1.15625 z m 0,0"
             id="path19" />
        </g>
      </g>
      <g
         fill="#000000"
         fill-opacity="1"
         id="g23"
         transform="matrix(0.352778,0,0,0.352778,-1.05035,-0.70657)">
        <g
           id="g22"
           transform="translate(14.733,22.924999)">
          <path
             d="m 8.15625,-7.03125 c -0.546875,0.109375 -0.75,0.515625 -0.75,0.84375 0,0.421875 0.328125,0.5625 0.5625,0.5625 0.515625,0 0.875,-0.453125 0.875,-0.921875 0,-0.71875 -0.8125,-1.046875 -1.546875,-1.046875 -1.046875,0 -1.625,1.03125 -1.78125,1.359375 -0.40625,-1.296875 -1.46875,-1.359375 -1.78125,-1.359375 -1.75,0 -2.6875,2.25 -2.6875,2.640625 0,0.0625 0.078125,0.15625 0.1875,0.15625 0.140625,0 0.171875,-0.109375 0.21875,-0.171875 C 2.03125,-6.890625 3.1875,-7.25 3.6875,-7.25 c 0.765625,0 0.921875,0.71875 0.921875,1.140625 0,0.375 -0.09375,0.765625 -0.296875,1.59375 L 3.71875,-2.15625 c -0.25,1.03125 -0.75,1.984375 -1.671875,1.984375 -0.078125,0 -0.515625,0 -0.875,-0.21875 0.625,-0.125 0.75,-0.640625 0.75,-0.84375 0,-0.34375 -0.25,-0.5625 -0.578125,-0.5625 -0.40625,0 -0.859375,0.375 -0.859375,0.921875 0,0.71875 0.8125,1.046875 1.546875,1.046875 0.828125,0 1.40625,-0.65625 1.78125,-1.359375 0.265625,1.015625 1.125,1.359375 1.765625,1.359375 1.75,0 2.6875,-2.25 2.6875,-2.640625 0,-0.078125 -0.0625,-0.15625 -0.171875,-0.15625 -0.15625,0 -0.171875,0.09375 -0.21875,0.234375 -0.46875,1.515625 -1.46875,2.21875 -2.25,2.21875 -0.59375,0 -0.921875,-0.453125 -0.921875,-1.15625 0,-0.375 0.0625,-0.65625 0.34375,-1.78125 l 0.59375,-2.34375 C 5.90625,-6.484375 6.484375,-7.25 7.28125,-7.25 c 0.03125,0 0.515625,0 0.875,0.21875 z m 0,0"
             id="path21" />
        </g>
      </g>
    </g>
    <g
       inkscape:label=""
       transform="translate(57.806281,102.09889)"
       id="g31">
      <g
         fill="#000000"
         fill-opacity="1"
         id="g26"
         transform="matrix(0.352778,0,0,0.352778,-0.940109,-0.706217)">
        <g
           id="g25"
           transform="translate(3.552,19.205)">
          <path
             d="m 5.671875,-17.203125 -3.046875,3.375 0.296875,0.296875 2.75,-2.671875 2.75,2.671875 0.296875,-0.296875 z m 0,0"
             id="path24" />
        </g>
      </g>
      <g
         fill="#000000"
         fill-opacity="1"
         id="g28"
         transform="matrix(0.352778,0,0,0.352778,-0.940109,-0.706217)">
        <g
           id="g27"
           transform="translate(1.993,19.207001)">
          <path
             d="M 5.109375,-7.265625 C 5.15625,-7.40625 5.78125,-8.65625 6.6875,-9.4375 c 0.640625,-0.59375 1.484375,-1 2.453125,-1 1,0 1.34375,0.75 1.34375,1.734375 0,1.421875 -1.015625,4.25 -1.515625,5.578125 C 8.75,-2.53125 8.625,-2.203125 8.625,-1.765625 c 0,1.125 0.765625,2.015625 1.953125,2.015625 2.3125,0 3.171875,-3.640625 3.171875,-3.796875 0,-0.125 -0.09375,-0.21875 -0.25,-0.21875 -0.21875,0 -0.234375,0.078125 -0.359375,0.5 C 12.5625,-1.234375 11.625,-0.25 10.65625,-0.25 c -0.25,0 -0.640625,-0.015625 -0.640625,-0.8125 0,-0.625 0.265625,-1.359375 0.421875,-1.71875 0.484375,-1.359375 1.53125,-4.125 1.53125,-5.546875 0,-1.484375 -0.859375,-2.59375 -2.75,-2.59375 -2.203125,0 -3.375,1.546875 -3.8125,2.171875 -0.078125,-1.40625 -1.09375,-2.171875 -2.1875,-2.171875 -0.796875,0 -1.328125,0.46875 -1.75,1.3125 -0.453125,0.890625 -0.796875,2.375 -0.796875,2.46875 0,0.109375 0.09375,0.234375 0.265625,0.234375 0.203125,0 0.234375,-0.03125 0.375,-0.609375 0.390625,-1.5 0.84375,-2.921875 1.828125,-2.921875 0.578125,0 0.78125,0.40625 0.78125,1.140625 0,0.546875 -0.25,1.515625 -0.421875,2.28125 L 2.796875,-4.34375 c -0.09375,0.484375 -0.375,1.59375 -0.5,2.046875 C 2.125,-1.65625 1.859375,-0.5 1.859375,-0.375 1.859375,-0.03125 2.125,0.25 2.5,0.25 c 0.296875,0 0.640625,-0.15625 0.84375,-0.515625 0.046875,-0.125 0.28125,-1 0.390625,-1.5 l 0.546875,-2.21875 z m 0,0"
             id="path26" />
        </g>
      </g>
      <g
         fill="#000000"
         fill-opacity="1"
         id="g30"
         transform="matrix(0.352778,0,0,0.352778,-0.940109,-0.706217)">
        <g
           id="g29"
           transform="translate(16.48,22.924999)">
          <path
             d="m 4.53125,1.921875 c -0.46875,0.65625 -1.140625,1.25 -1.984375,1.25 -0.203125,0 -1.03125,-0.03125 -1.296875,-0.828125 0.0625,0.015625 0.140625,0.015625 0.171875,0.015625 0.53125,0 0.875,-0.453125 0.875,-0.84375 0,-0.390625 -0.328125,-0.53125 -0.59375,-0.53125 -0.28125,0 -0.875,0.203125 -0.875,1.046875 0,0.875 0.734375,1.484375 1.71875,1.484375 1.71875,0 3.46875,-1.59375 3.9375,-3.5 l 1.6875,-6.71875 c 0.03125,-0.078125 0.0625,-0.1875 0.0625,-0.28125 0,-0.265625 -0.203125,-0.4375 -0.46875,-0.4375 -0.15625,0 -0.515625,0.0625 -0.65625,0.59375 L 5.84375,-1.78125 C 5.75,-1.46875 5.75,-1.421875 5.609375,-1.234375 5.265625,-0.75 4.703125,-0.171875 3.875,-0.171875 c -0.96875,0 -1.046875,-0.953125 -1.046875,-1.40625 0,-0.984375 0.453125,-2.3125 0.921875,-3.546875 0.1875,-0.5 0.296875,-0.75 0.296875,-1.09375 0,-0.71875 -0.515625,-1.375 -1.359375,-1.375 -1.578125,0 -2.21875,2.5 -2.21875,2.640625 0,0.0625 0.0625,0.15625 0.1875,0.15625 0.15625,0 0.171875,-0.078125 0.234375,-0.3125 C 1.3125,-6.5625 1.96875,-7.25 2.640625,-7.25 c 0.15625,0 0.4375,0 0.4375,0.5625 0,0.453125 -0.1875,0.953125 -0.4375,1.609375 -0.84375,2.25 -0.84375,2.828125 -0.84375,3.234375 0,1.640625 1.171875,2.015625 2.03125,2.015625 0.5,0 1.109375,-0.15625 1.71875,-0.796875 L 5.5625,-0.609375 C 5.296875,0.40625 5.125,1.078125 4.53125,1.921875 Z m 0,0"
             id="path28" />
        </g>
      </g>
    </g>
    <g
       inkscape:label=""
       transform="translate(93.755447,136.37953)"
       id="g38">
      <g
         fill="#000000"
         fill-opacity="1"
         id="g33"
         transform="matrix(0.352778,0,0,0.352778,-0.940109,-0.70657)">
        <g
           id="g32"
           transform="translate(3.552,19.205999)">
          <path
             d="m 5.671875,-17.203125 -3.046875,3.375 0.296875,0.296875 2.75,-2.671875 2.75,2.671875 0.296875,-0.296875 z m 0,0"
             id="path31" />
        </g>
      </g>
      <g
         fill="#000000"
         fill-opacity="1"
         id="g35"
         transform="matrix(0.352778,0,0,0.352778,-0.940109,-0.70657)">
        <g
           id="g34"
           transform="translate(1.993,19.207001)">
          <path
             d="M 5.109375,-7.265625 C 5.15625,-7.40625 5.78125,-8.65625 6.6875,-9.4375 c 0.640625,-0.59375 1.484375,-1 2.453125,-1 1,0 1.34375,0.75 1.34375,1.734375 0,1.421875 -1.015625,4.25 -1.515625,5.578125 C 8.75,-2.53125 8.625,-2.203125 8.625,-1.765625 c 0,1.125 0.765625,2.015625 1.953125,2.015625 2.3125,0 3.171875,-3.640625 3.171875,-3.796875 0,-0.125 -0.09375,-0.21875 -0.25,-0.21875 -0.21875,0 -0.234375,0.078125 -0.359375,0.5 C 12.5625,-1.234375 11.625,-0.25 10.65625,-0.25 c -0.25,0 -0.640625,-0.015625 -0.640625,-0.8125 0,-0.625 0.265625,-1.359375 0.421875,-1.71875 0.484375,-1.359375 1.53125,-4.125 1.53125,-5.546875 0,-1.484375 -0.859375,-2.59375 -2.75,-2.59375 -2.203125,0 -3.375,1.546875 -3.8125,2.171875 -0.078125,-1.40625 -1.09375,-2.171875 -2.1875,-2.171875 -0.796875,0 -1.328125,0.46875 -1.75,1.3125 -0.453125,0.890625 -0.796875,2.375 -0.796875,2.46875 0,0.109375 0.09375,0.234375 0.265625,0.234375 0.203125,0 0.234375,-0.03125 0.375,-0.609375 0.390625,-1.5 0.84375,-2.921875 1.828125,-2.921875 0.578125,0 0.78125,0.40625 0.78125,1.140625 0,0.546875 -0.25,1.515625 -0.421875,2.28125 L 2.796875,-4.34375 c -0.09375,0.484375 -0.375,1.59375 -0.5,2.046875 C 2.125,-1.65625 1.859375,-0.5 1.859375,-0.375 1.859375,-0.03125 2.125,0.25 2.5,0.25 c 0.296875,0 0.640625,-0.15625 0.84375,-0.515625 0.046875,-0.125 0.28125,-1 0.390625,-1.5 l 0.546875,-2.21875 z m 0,0"
             id="path33" />
        </g>
      </g>
      <g
         fill="#000000"
         fill-opacity="1"
         id="g37"
         transform="matrix(0.352778,0,0,0.352778,-0.940109,-0.70657)">
        <g
           id="g36"
           transform="translate(16.48,22.924999)">
          <path
             d="m 8.15625,-7.03125 c -0.546875,0.109375 -0.75,0.515625 -0.75,0.84375 0,0.421875 0.328125,0.5625 0.5625,0.5625 0.515625,0 0.875,-0.453125 0.875,-0.921875 0,-0.71875 -0.8125,-1.046875 -1.546875,-1.046875 -1.046875,0 -1.625,1.03125 -1.78125,1.359375 -0.40625,-1.296875 -1.46875,-1.359375 -1.78125,-1.359375 -1.75,0 -2.6875,2.25 -2.6875,2.640625 0,0.0625 0.078125,0.15625 0.1875,0.15625 0.140625,0 0.171875,-0.109375 0.21875,-0.171875 C 2.03125,-6.890625 3.1875,-7.25 3.6875,-7.25 c 0.765625,0 0.921875,0.71875 0.921875,1.140625 0,0.375 -0.09375,0.765625 -0.296875,1.59375 L 3.71875,-2.15625 c -0.25,1.03125 -0.75,1.984375 -1.671875,1.984375 -0.078125,0 -0.515625,0 -0.875,-0.21875 0.625,-0.125 0.75,-0.640625 0.75,-0.84375 0,-0.34375 -0.25,-0.5625 -0.578125,-0.5625 -0.40625,0 -0.859375,0.375 -0.859375,0.921875 0,0.71875 0.8125,1.046875 1.546875,1.046875 0.828125,0 1.40625,-0.65625 1.78125,-1.359375 0.265625,1.015625 1.125,1.359375 1.765625,1.359375 1.75,0 2.6875,-2.25 2.6875,-2.640625 0,-0.078125 -0.0625,-0.15625 -0.171875,-0.15625 -0.15625,0 -0.171875,0.09375 -0.21875,0.234375 -0.46875,1.515625 -1.46875,2.21875 -2.25,2.21875 -0.59375,0 -0.921875,-0.453125 -0.921875,-1.15625 0,-0.375 0.0625,-0.65625 0.34375,-1.78125 l 0.59375,-2.34375 C 5.90625,-6.484375 6.484375,-7.25 7.28125,-7.25 c 0.03125,0 0.515625,0 0.875,0.21875 z m 0,0"
             id="path35" />
        </g>
      </g>
    </g>
    <g
       inkscape:label=""
       transform="translate(50.525416,186.43485)"
       id="g41">
      <g
         fill="#000000"
         fill-opacity="1"
         id="g40"
         transform="matrix(0.352778,0,0,0.352778,-1.10547,-0.708422)">
        <g
           id="g39"
           transform="translate(1.993,18.93)">
          <path
             d="m 18.34375,-14.328125 c 0.265625,-1.0625 0.65625,-1.796875 2.546875,-1.875 0.07813,0 0.375,-0.03125 0.375,-0.453125 0,-0.265625 -0.21875,-0.265625 -0.328125,-0.265625 -0.5,0 -1.75,0.04687 -2.25,0.04687 H 17.5 c -0.34375,0 -0.796875,-0.04687 -1.140625,-0.04687 -0.15625,0 -0.453125,0 -0.453125,0.46875 0,0.25 0.203125,0.25 0.375,0.25 1.484375,0.04687 1.59375,0.609375 1.59375,1.0625 0,0.21875 -0.03125,0.296875 -0.109375,0.640625 L 14.96875,-3.328125 9.671875,-16.5 c -0.1875,-0.40625 -0.203125,-0.421875 -0.75,-0.421875 h -3.03125 c -0.484375,0 -0.71875,0 -0.71875,0.46875 0,0.25 0.1875,0.25 0.65625,0.25 0.125,0 1.578125,0 1.578125,0.21875 0,0.04687 -0.046875,0.25 -0.078125,0.328125 l -3.28125,13.125 c -0.3125,1.21875 -0.90625,1.734375 -2.53125,1.8125 -0.125,0 -0.375,0.03125 -0.375,0.46875 0,0.25 0.25,0.25 0.328125,0.25 0.484375,0 1.75,-0.046875 2.25,-0.046875 h 1.1875 C 5.25,-0.046875 5.671875,0 6.015625,0 6.1875,0 6.46875,0 6.46875,-0.46875 c 0,-0.21875 -0.25,-0.25 -0.34375,-0.25 C 5.296875,-0.75 4.515625,-0.890625 4.515625,-1.78125 c 0,-0.203125 0.046875,-0.421875 0.09375,-0.625 l 3.34375,-13.25 c 0.15625,0.25 0.15625,0.296875 0.25,0.515625 l 5.890625,14.6875 C 14.21875,-0.15625 14.28125,0 14.5,0 c 0.25,0 0.265625,-0.078125 0.375,-0.5 z m 0,0"
             id="path38" />
        </g>
      </g>
    </g>
    <g
       inkscape:label=""
       transform="translate(84.502688,186.13148)"
       id="g44">
      <g
         fill="#000000"
         fill-opacity="1"
         id="g43"
         transform="matrix(0.352778,0,0,0.352778,-1.00074,-0.438326)">
        <g
           id="g42"
           transform="translate(1.993,18.93)">
          <path
             d="M 4.21875,-2.75 C 3.34375,-1.28125 2.5,-0.796875 1.3125,-0.71875 1.046875,-0.6875 0.84375,-0.6875 0.84375,-0.25 c 0,0.15625 0.125,0.25 0.296875,0.25 0.453125,0 1.5625,-0.046875 2,-0.046875 C 3.859375,-0.046875 4.65625,0 5.359375,0 5.5,0 5.796875,0 5.796875,-0.46875 c 0,-0.21875 -0.203125,-0.25 -0.34375,-0.25 C 4.875,-0.765625 4.40625,-0.96875 4.40625,-1.5625 c 0,-0.34375 0.15625,-0.625 0.46875,-1.15625 l 1.890625,-3.125 h 6.3125 c 0.03125,0.21875 0.03125,0.421875 0.0625,0.640625 0.0625,0.640625 0.359375,3.21875 0.359375,3.6875 0,0.75 -1.265625,0.796875 -1.65625,0.796875 -0.265625,0 -0.546875,0 -0.546875,0.453125 C 11.296875,0 11.515625,0 11.671875,0 c 0.421875,0 0.921875,-0.046875 1.34375,-0.046875 h 1.40625 C 15.9375,-0.046875 17.03125,0 17.046875,0 17.21875,0 17.5,0 17.5,-0.46875 c 0,-0.25 -0.234375,-0.25 -0.59375,-0.25 -1.375,0 -1.390625,-0.21875 -1.46875,-0.96875 L 13.921875,-17.15625 C 13.875,-17.640625 13.78125,-17.6875 13.5,-17.6875 c -0.234375,0 -0.390625,0.04687 -0.609375,0.421875 z m 2.96875,-3.8125 4.984375,-8.328125 0.84375,8.328125 z m 0,0"
             id="path41" />
        </g>
      </g>
    </g>
    <g
       inkscape:label=""
       transform="translate(61.294998,178.69896)"
       id="g51">
      <g
         fill="#000000"
         fill-opacity="1"
         id="g46"
         transform="matrix(0.352778,0,0,0.352778,-1.1165,-0.704673)">
        <g
           id="g45"
           transform="translate(1.993,20.559999)">
          <path
             d="m 9.125,-15.234375 c 0.21875,-0.921875 0.3125,-0.96875 1.28125,-0.96875 h 1.78125 c 2.140625,0 3.71875,0.640625 3.71875,2.578125 0,1.265625 -0.640625,4.90625 -5.625,4.90625 H 7.484375 Z m 3.4375,6.8125 c 3.078125,-0.671875 5.484375,-2.65625 5.484375,-4.78125 0,-1.9375 -1.96875,-3.71875 -5.40625,-3.71875 h -6.71875 c -0.5,0 -0.71875,0 -0.71875,0.46875 0,0.25 0.171875,0.25 0.640625,0.25 1.484375,0 1.484375,0.1875 1.484375,0.46875 0,0.04687 0,0.203125 -0.09375,0.5625 l -3.34375,13.34375 C 3.671875,-0.96875 3.625,-0.71875 1.90625,-0.71875 c -0.5625,0 -0.734375,0 -0.734375,0.46875 0,0.25 0.265625,0.25 0.34375,0.25 0.4375,0 0.96875,-0.046875 1.4375,-0.046875 H 5.875 C 6.3125,-0.046875 6.84375,0 7.28125,0 7.484375,0 7.75,0 7.75,-0.46875 c 0,-0.25 -0.21875,-0.25 -0.59375,-0.25 -1.5,0 -1.5,-0.203125 -1.5,-0.453125 0,-0.015625 0,-0.1875 0.046875,-0.390625 l 1.65625,-6.671875 h 2.96875 c 2.359375,0 2.8125,1.5 2.8125,2.3125 0,0.375 -0.25,1.34375 -0.421875,1.984375 -0.28125,1.140625 -0.359375,1.40625 -0.359375,1.875 0,1.765625 1.4375,2.578125 3.109375,2.578125 2,0 2.875,-2.453125 2.875,-2.796875 0,-0.171875 -0.125,-0.25 -0.28125,-0.25 -0.1875,0 -0.25,0.15625 -0.296875,0.34375 -0.59375,1.765625 -1.609375,2.21875 -2.234375,2.21875 -0.609375,0 -1.015625,-0.28125 -1.015625,-1.390625 0,-0.59375 0.296875,-2.859375 0.328125,-2.984375 0.125,-0.90625 0.125,-1.015625 0.125,-1.203125 0,-1.8125 -1.46875,-2.578125 -2.40625,-2.875 z m 0,0"
             id="path10" />
        </g>
      </g>
      <g
         fill="#000000"
         fill-opacity="1"
         id="g47"
         transform="matrix(0.352778,0,0,0.352778,-1.1165,-0.704673)">
        <g
           id="use6"
           transform="translate(20.466,24.278)">
          <path
             d="m 2.1875,-1.390625 c 0.734375,-0.84375 1.34375,-1.375 2.203125,-2.15625 C 5.421875,-4.4375 5.875,-4.875 6.109375,-5.125 7.3125,-6.3125 7.921875,-7.3125 7.921875,-7.453125 7.921875,-7.59375 7.78125,-7.59375 7.75,-7.59375 c -0.125,0 -0.15625,0.0625 -0.25,0.1875 -0.421875,0.75 -0.84375,1.109375 -1.28125,1.109375 -0.359375,0 -0.546875,-0.15625 -0.875,-0.578125 -0.375,-0.421875 -0.65625,-0.71875 -1.15625,-0.71875 -1.265625,0 -2.015625,1.5625 -2.015625,1.921875 0,0.0625 0.015625,0.15625 0.171875,0.15625 0.140625,0 0.15625,-0.0625 0.203125,-0.1875 0.296875,-0.6875 1.125,-0.8125 1.453125,-0.8125 0.359375,0 0.703125,0.125 1.0625,0.28125 0.65625,0.28125 0.921875,0.28125 1.109375,0.28125 0.109375,0 0.1875,0 0.265625,-0.015625 -0.5625,0.671875 -1.5,1.484375 -2.265625,2.203125 l -1.75,1.59375 c -1.046875,1.0625 -1.6875,2.078125 -1.6875,2.203125 0,0.109375 0.09375,0.140625 0.203125,0.140625 0.09375,0 0.109375,-0.015625 0.234375,-0.21875 C 1.453125,-0.484375 2,-1.125 2.640625,-1.125 3,-1.125 3.171875,-1 3.515625,-0.5625 3.84375,-0.1875 4.125,0.171875 4.6875,0.171875 c 1.6875,0 2.640625,-2.1875 2.640625,-2.578125 0,-0.078125 -0.015625,-0.171875 -0.1875,-0.171875 -0.125,0 -0.15625,0.0625 -0.203125,0.234375 -0.375,1.015625 -1.390625,1.4375 -2.0625,1.4375 -0.359375,0 -0.703125,-0.125 -1.0625,-0.28125 -0.703125,-0.28125 -0.890625,-0.28125 -1.109375,-0.28125 -0.171875,0 -0.359375,0 -0.515625,0.078125 z m 0,0"
             id="path11" />
        </g>
      </g>
      <g
         fill="#000000"
         fill-opacity="1"
         id="g48"
         transform="matrix(0.352778,0,0,0.352778,-1.1165,-0.704673)">
        <g
           id="use7"
           transform="translate(29.562,20.559999)">
          <path
             d="m 7.578125,6.046875 c 0,-0.03125 0,-0.078125 -0.0625,-0.15625 -1.140625,-1.15625 -4.1875,-4.328125 -4.1875,-12.0625 0,-7.734375 2.984375,-10.875 4.203125,-12.109375 0,-0.03125 0.046875,-0.07813 0.046875,-0.15625 0,-0.07813 -0.0625,-0.125 -0.171875,-0.125 -0.265625,0 -2.375,1.828125 -3.59375,4.5625 -1.234375,2.75 -1.578125,5.421875 -1.578125,7.8125 0,1.78125 0.171875,4.796875 1.65625,8 1.1875,2.578125 3.21875,4.375 3.515625,4.375 0.125,0 0.171875,-0.046875 0.171875,-0.140625 z m 0,0"
             id="path47" />
        </g>
      </g>
      <g
         fill="#000000"
         fill-opacity="1"
         id="g49"
         transform="matrix(0.352778,0,0,0.352778,-1.1165,-0.704673)">
        <g
           id="use8"
           transform="translate(38.34,20.559999)">
          <path
             d="m 10.984375,-12.46875 c 0,-2.53125 -0.796875,-4.984375 -2.828125,-4.984375 -3.46875,0 -7.171875,7.265625 -7.171875,12.71875 0,1.140625 0.25,4.984375 2.859375,4.984375 3.375,0 7.140625,-7.09375 7.140625,-12.71875 z m -7.515625,3.5 c 0.375,-1.46875 0.890625,-3.546875 1.890625,-5.3125 0.8125,-1.484375 1.671875,-2.671875 2.765625,-2.671875 0.828125,0 1.359375,0.703125 1.359375,3.078125 0,0.890625 -0.0625,2.125 -0.78125,4.90625 z m 5.0625,0.734375 c -0.625,2.4375 -1.140625,4 -2.03125,5.5625 C 5.78125,-1.40625 4.90625,-0.25 3.859375,-0.25 c -0.765625,0 -1.375,-0.59375 -1.375,-3.046875 0,-1.609375 0.390625,-3.296875 0.78125,-4.9375 z m 0,0"
             id="path13" />
        </g>
      </g>
      <g
         fill="#000000"
         fill-opacity="1"
         id="g50"
         transform="matrix(0.352778,0,0,0.352778,-1.1165,-0.704673)">
        <g
           id="use9"
           transform="translate(50.324001,20.559999)">
          <path
             d="m 6.515625,-6.171875 c 0,-1.78125 -0.171875,-4.8125 -1.65625,-8 C 3.671875,-16.75 1.640625,-18.5625 1.34375,-18.5625 c -0.078125,0 -0.171875,0.03125 -0.171875,0.15625 0,0.04687 0.015625,0.0625 0.046875,0.125 1.1875,1.234375 4.203125,4.375 4.203125,12.09375 0,7.71875 -3,10.875 -4.203125,12.109375 C 1.1875,5.96875 1.171875,6 1.171875,6.046875 c 0,0.125 0.09375,0.140625 0.171875,0.140625 0.265625,0 2.375,-1.828125 3.59375,-4.546875 1.234375,-2.75 1.578125,-5.4375 1.578125,-7.8125 z m 0,0"
             id="path14" />
        </g>
      </g>
    </g>
    <path
       style="fill:none;stroke:#000000;stroke-width:0.4;stroke-dasharray:none;marker-start:url(#Triangle)"
       id="path51"
       sodipodi:type="arc"
       sodipodi:cx="55.155014"
       sodipodi:cy="144.89079"
       sodipodi:rx="11.086667"
       sodipodi:ry="11.600607"
       sodipodi:start="5.892403"
       sodipodi:end="0.018979193"
       sodipodi:arc-type="arc"
       d="m 65.405872,140.47198 a 11.086667,11.600607 0 0 1 0.833812,4.63897"
       sodipodi:open="true" />
    <path
       style="fill:none;stroke:#000000;stroke-width:0.4;stroke-dasharray:none;marker-start:url(#Triangle)"
       id="path52"
       sodipodi:type="arc"
       sodipodi:cx="55.155014"
       sodipodi:cy="144.89079"
       sodipodi:rx="11.086667"
       sodipodi:ry="11.600607"
       sodipodi:start="4.3000262"
       sodipodi:end="4.7132902"
       sodipodi:arc-type="arc"
       d="m 50.711753,134.26259 a 11.086667,11.600607 0 0 1 4.453253,-0.9724"
       sodipodi:open="true" />
  </g>
</svg>
