<?xml version="1.0" encoding="UTF-8" standalone="no"?>
<svg
   width="73.516006mm"
   height="38.410149mm"
   viewBox="0 0 73.516007 38.410149"
   version="1.1"
   id="svg1894"
   inkscape:version="1.3.2 (091e20e, 2023-11-25, custom)"
   sodipodi:docname="robo2.svg"
   inkscape:export-filename="robo2.png"
   inkscape:export-xdpi="300"
   inkscape:export-ydpi="300"
   xmlns:inkscape="http://www.inkscape.org/namespaces/inkscape"
   xmlns:sodipodi="http://sodipodi.sourceforge.net/DTD/sodipodi-0.dtd"
   xmlns="http://www.w3.org/2000/svg"
   xmlns:svg="http://www.w3.org/2000/svg"
   xmlns:rdf="http://www.w3.org/1999/02/22-rdf-syntax-ns#"
   xmlns:cc="http://creativecommons.org/ns#"
   xmlns:dc="http://purl.org/dc/elements/1.1/">
  <sodipodi:namedview
     id="base"
     pagecolor="#ffffff"
     bordercolor="#666666"
     borderopacity="1.0"
     inkscape:pageopacity="0.0"
     inkscape:pageshadow="2"
     inkscape:zoom="3.959798"
     inkscape:cx="99.500025"
     inkscape:cy="84.726544"
     inkscape:document-units="mm"
     inkscape:current-layer="layer1"
     inkscape:document-rotation="0"
     showgrid="false"
     inkscape:snap-object-midpoints="true"
     inkscape:snap-others="false"
     inkscape:snap-nodes="false"
     inkscape:snap-smooth-nodes="false"
     inkscape:snap-intersection-paths="false"
     inkscape:snap-midpoints="false"
     inkscape:window-width="1920"
     inkscape:window-height="1009"
     inkscape:window-x="-8"
     inkscape:window-y="-8"
     inkscape:window-maximized="1"
     inkscape:showpageshadow="2"
     inkscape:pagecheckerboard="0"
     inkscape:deskcolor="#d1d1d1"
     inkscape:export-bgcolor="#ffffffff" />
  <defs
     id="defs1888" />
  <metadata
     id="metadata1891">
    <rdf:RDF>
      <cc:Work
         rdf:about="">
        <dc:format>image/svg+xml</dc:format>
        <dc:type
           rdf:resource="http://purl.org/dc/dcmitype/StillImage" />
        <dc:title />
      </cc:Work>
    </rdf:RDF>
  </metadata>
  <g
     inkscape:label="Layer 1"
     inkscape:groupmode="layer"
     id="layer1"
     transform="translate(-25.1233, -160.679)">
    <path
       id="rect2465"
       style="fill:#ffffff;stroke:#000000;stroke-width:0.600002;stroke-miterlimit:4;stroke-dasharray:none"
       d="m 34.611928,175.00507 c -2.670263,0 -4.819536,2.12792 -4.819536,4.77069 v 2.56796 h -0.0596 v 8.27857 h 9.758251 v -8.27857 h -0.05883 v -2.56796 c 0,-2.64277 -2.150031,-4.77069 -4.820292,-4.77069 z" />
    <rect
       style="fill:#ffffff;stroke:#000000;stroke-width:0.6;stroke-miterlimit:4;stroke-dasharray:none"
       id="rect2457"
       width="6.9490075"
       height="37.417732"
       x="170.3443"
       y="21.60391"
       ry="3.4745038"
       transform="rotate(61.427463)"
       inkscape:transform-center-x="-13.519285"
       inkscape:transform-center-y="-7.3029342" />
    <rect
       style="fill:#cccccc;stroke:#000000;stroke-width:0.5;stroke-miterlimit:4;stroke-dasharray:none"
       id="rect2529"
       width="11.055803"
       height="9.8273811"
       x="78.89045"
       y="180.91663" />
    <path
       id="rect2459"
       style="fill:#ffffff;stroke:#000000;stroke-width:2.26772;stroke-miterlimit:4;stroke-dasharray:none"
       inkscape:transform-center-x="-11.419481"
       inkscape:transform-center-y="10.284472"
       d="m 134.9375,37.158203 c -3.35345,0.149617 -6.64857,1.5853 -9.10352,4.269531 -4.90988,5.368461 -4.54032,13.642862 0.82813,18.552735 l 84.97656,77.718751 c 5.36845,4.90987 13.64285,4.54033 18.55274,-0.82813 4.90988,-5.36846 4.54032,-13.64286 -0.82813,-18.55273 L 144.38672,40.599609 c -2.68422,-2.454936 -6.09577,-3.591023 -9.44922,-3.441406 z m 86.53125,84.777347 a 6.0714285,6.0714285 0 0 1 0.006,0 6.0714285,6.0714285 0 0 1 6.07031,6.07031 6.0714285,6.0714285 0 0 1 -6.07031,6.07226 6.0714285,6.0714285 0 0 1 -6.07227,-6.07226 6.0714285,6.0714285 0 0 1 6.06641,-6.07031 z"
       transform="matrix(0.26458333,0,0,0.26458333,25.123336,151.15101)" />
    <circle
       style="fill:#ffffff;stroke:#000000;stroke-width:0.600001;stroke-miterlimit:4;stroke-dasharray:none"
       id="path2461"
       cx="34.301342"
       cy="179.2552"
       r="1.6063988" />
    <circle
       style="fill:#ffffff;stroke:#000000;stroke-width:0.600001;stroke-miterlimit:4;stroke-dasharray:none"
       id="circle2463"
       cx="61.13765"
       cy="164.79761"
       r="1.6063988" />
    <g
       id="g2505"
       style="stroke-width:0.402785;stroke-miterlimit:4;stroke-dasharray:none"
       transform="matrix(1.5409702,0,0,1,10.296578,-3.3408691)">
      <path
         style="fill:none;stroke:#000000;stroke-width:0.402785;stroke-linecap:butt;stroke-linejoin:miter;stroke-miterlimit:4;stroke-dasharray:none;stroke-opacity:1"
         d="m 9.621703,194.17131 h 47.70761"
         id="path2484" />
      <path
         style="fill:none;stroke:#000000;stroke-width:0.402785;stroke-linecap:butt;stroke-linejoin:miter;stroke-miterlimit:4;stroke-dasharray:none;stroke-opacity:1"
         d="m 9.8889724,194.43858 4.9444866,7.88445"
         id="path2486" />
      <path
         style="fill:none;stroke:#000000;stroke-width:0.402785;stroke-linecap:butt;stroke-linejoin:miter;stroke-miterlimit:4;stroke-dasharray:none;stroke-opacity:1"
         d="m 18.355644,194.43858 4.944487,7.88445"
         id="path2488" />
      <path
         style="fill:none;stroke:#000000;stroke-width:0.402785;stroke-linecap:butt;stroke-linejoin:miter;stroke-miterlimit:4;stroke-dasharray:none;stroke-opacity:1"
         d="m 26.293149,194.43858 4.944487,7.88445"
         id="path2490" />
      <path
         style="fill:none;stroke:#000000;stroke-width:0.402785;stroke-linecap:butt;stroke-linejoin:miter;stroke-miterlimit:4;stroke-dasharray:none;stroke-opacity:1"
         d="m 34.759821,194.43858 4.944487,7.88445"
         id="path2492" />
      <path
         style="fill:none;stroke:#000000;stroke-width:0.402785;stroke-linecap:butt;stroke-linejoin:miter;stroke-miterlimit:4;stroke-dasharray:none;stroke-opacity:1"
         d="m 43.226493,194.43858 4.944487,7.88445"
         id="path2494" />
      <path
         style="fill:none;stroke:#000000;stroke-width:0.402785;stroke-linecap:butt;stroke-linejoin:miter;stroke-miterlimit:4;stroke-dasharray:none;stroke-opacity:1"
         d="m 51.163998,194.43858 4.944487,7.88445"
         id="path2496" />
    </g>
    <path
       style="fill:none;stroke:#ff0000;stroke-width:0.264583px;stroke-linecap:butt;stroke-linejoin:miter;stroke-opacity:1"
       d="M 34.2105,179.20422 H 58.064304"
       id="path2507" />
    <g
       id="g2536"
       transform="translate(7.3705357,0.1889881)">
      <path
         style="fill:none;stroke:#ff0000;stroke-width:0.264583px;stroke-linecap:butt;stroke-linejoin:miter;stroke-opacity:1"
         d="m 44.634012,179.07058 c 0.211868,-1.94341 -1.055546,-3.14718 -2.605879,-4.20949"
         id="path2509"
         sodipodi:nodetypes="cc" />
      <path
         style="fill:#ff0000;stroke:#ff0000;stroke-width:0.264583px;stroke-linecap:butt;stroke-linejoin:miter;stroke-opacity:1"
         d="m 42.128357,174.9279 0.467723,1.5368 1.102487,-1.13589 z"
         id="path2513" />
    </g>
    <g
       id="g2540"
       transform="translate(-0.28348214,-0.09449405)">
      <path
         style="fill:none;stroke:#ff0000;stroke-width:0.264583px;stroke-linecap:butt;stroke-linejoin:miter;stroke-opacity:1"
         d="m 52.986998,173.49754 c 3.060118,1.02434 6.316026,1.54833 10.958049,-1.46998"
         id="path2511"
         sodipodi:nodetypes="cc" />
      <path
         style="fill:#ff0000;stroke:#ff0000;stroke-width:0.264583px;stroke-linecap:butt;stroke-linejoin:miter;stroke-opacity:1"
         d="m 62.040754,172.03902 1.135893,1.36975 0.668176,-1.50339 z"
         id="path2515" />
    </g>
    <path
       style="fill:#0000ff;stroke:#0000ff;stroke-width:0.264583px;stroke-linecap:butt;stroke-linejoin:miter;stroke-opacity:1"
       d="m 88.065308,186.27007 h 8.418991 l -2.672694,-1.20272 -0.06682,2.40543 2.739512,-1.20271"
       id="path2542" />
    <g
       inkscape:label=""
       transform="translate(61.739177,174.07565)"
       id="g1"
       style="fill:#ff0000">
      <g
         fill="#000000"
         fill-opacity="1"
         id="g3"
         transform="matrix(0.352778,0,0,0.352778,-0.989718,-0.627812)"
         style="fill:#ff0000">
        <g
           id="use2"
           transform="translate(1.993,10.889)"
           style="fill:#ff0000">
          <path
             d="m 9.109375,-8.90625 c 0,-0.09375 -0.078125,-0.1875 -0.1875,-0.1875 -0.15625,0 -0.96875,0.75 -1.359375,1.46875 -0.375,-0.921875 -1.015625,-1.484375 -1.90625,-1.484375 -2.328125,0 -4.84375,3.015625 -4.84375,6.078125 0,2.046875 1.1875,3.234375 2.59375,3.234375 1.09375,0 2,-0.828125 2.4375,-1.296875 l 0.015625,0.015625 -0.78125,3.109375 -0.1875,0.734375 c -0.1875,0.625 -0.484375,0.625 -1.46875,0.640625 C 3.203125,3.40625 3,3.40625 3,3.796875 3,3.953125 3.125,4 3.265625,4 3.546875,4 3.921875,3.96875 4.21875,3.96875 H 6.328125 C 6.625,3.96875 6.984375,4 7.296875,4 7.421875,4 7.65625,4 7.65625,3.609375 7.65625,3.40625 7.5,3.40625 7.1875,3.40625 6.21875,3.40625 6.15625,3.265625 6.15625,3.09375 6.15625,3 6.171875,2.96875 6.234375,2.703125 Z m -2.90625,6.453125 C 6.09375,-2.109375 6.09375,-2.0625 5.796875,-1.671875 5.34375,-1.09375 4.4375,-0.203125 3.46875,-0.203125 c -0.84375,0 -1.328125,-0.765625 -1.328125,-1.984375 0,-1.140625 0.640625,-3.453125 1.046875,-4.3125 0.703125,-1.453125 1.671875,-2.203125 2.46875,-2.203125 1.359375,0 1.640625,1.703125 1.640625,1.859375 0,0.03125 -0.0625,0.296875 -0.09375,0.34375 z m 0,0"
             id="path4"
             style="fill:#ff0000" />
        </g>
      </g>
      <g
         fill="#000000"
         fill-opacity="1"
         id="g4"
         transform="matrix(0.352778,0,0,0.352778,-0.989718,-0.627812)"
         style="fill:#ff0000">
        <g
           id="use3"
           transform="translate(10.963,13.988)"
           style="fill:#ff0000">
          <path
             d="M 6.3125,-2.40625 H 6 c -0.046875,0.234375 -0.15625,1.03125 -0.3125,1.265625 -0.09375,0.125 -0.90625,0.125 -1.34375,0.125 H 1.6875 c 0.390625,-0.328125 1.265625,-1.25 1.640625,-1.59375 2.1875,-2.015625 2.984375,-2.75 2.984375,-4.171875 0,-1.65625 -1.3125,-2.75 -2.96875,-2.75 -1.671875,0 -2.640625,1.40625 -2.640625,2.640625 0,0.734375 0.625,0.734375 0.671875,0.734375 0.296875,0 0.671875,-0.21875 0.671875,-0.671875 C 2.046875,-7.234375 1.78125,-7.5 1.375,-7.5 1.25,-7.5 1.21875,-7.5 1.171875,-7.484375 1.453125,-8.46875 2.21875,-9.125 3.15625,-9.125 4.375,-9.125 5.125,-8.109375 5.125,-6.78125 5.125,-5.5625 4.421875,-4.5 3.59375,-3.578125 L 0.703125,-0.34375 V 0 H 5.9375 Z m 0,0"
             id="path5"
             style="fill:#ff0000" />
        </g>
      </g>
    </g>
    <g
       inkscape:label=""
       transform="translate(52.117474,174.14247)"
       id="g8"
       style="fill:#ff0000">
      <g
         fill="#000000"
         fill-opacity="1"
         id="g5"
         transform="matrix(0.352778,0,0,0.352778,-0.989718,-0.627812)"
         style="fill:#ff0000">
        <g
           id="g2"
           transform="translate(1.993,10.889)"
           style="fill:#ff0000">
          <path
             d="m 9.109375,-8.90625 c 0,-0.09375 -0.078125,-0.1875 -0.1875,-0.1875 -0.15625,0 -0.96875,0.75 -1.359375,1.46875 -0.375,-0.921875 -1.015625,-1.484375 -1.90625,-1.484375 -2.328125,0 -4.84375,3.015625 -4.84375,6.078125 0,2.046875 1.1875,3.234375 2.59375,3.234375 1.09375,0 2,-0.828125 2.4375,-1.296875 l 0.015625,0.015625 -0.78125,3.109375 -0.1875,0.734375 c -0.1875,0.625 -0.484375,0.625 -1.46875,0.640625 C 3.203125,3.40625 3,3.40625 3,3.796875 3,3.953125 3.125,4 3.265625,4 3.546875,4 3.921875,3.96875 4.21875,3.96875 H 6.328125 C 6.625,3.96875 6.984375,4 7.296875,4 7.421875,4 7.65625,4 7.65625,3.609375 7.65625,3.40625 7.5,3.40625 7.1875,3.40625 6.21875,3.40625 6.15625,3.265625 6.15625,3.09375 6.15625,3 6.171875,2.96875 6.234375,2.703125 Z m -2.90625,6.453125 C 6.09375,-2.109375 6.09375,-2.0625 5.796875,-1.671875 5.34375,-1.09375 4.4375,-0.203125 3.46875,-0.203125 c -0.84375,0 -1.328125,-0.765625 -1.328125,-1.984375 0,-1.140625 0.640625,-3.453125 1.046875,-4.3125 0.703125,-1.453125 1.671875,-2.203125 2.46875,-2.203125 1.359375,0 1.640625,1.703125 1.640625,1.859375 0,0.03125 -0.0625,0.296875 -0.09375,0.34375 z m 0,0"
             id="path1"
             style="fill:#ff0000" />
        </g>
      </g>
      <g
         fill="#000000"
         fill-opacity="1"
         id="g7"
         transform="matrix(0.352778,0,0,0.352778,-0.989718,-0.627812)"
         style="fill:#ff0000">
        <g
           id="g6"
           transform="translate(10.963,13.988)"
           style="fill:#ff0000">
          <path
             d="m 4.125,-9.1875 c 0,-0.34375 0,-0.34375 -0.28125,-0.34375 C 3.5,-9.15625 2.78125,-8.625 1.3125,-8.625 v 0.421875 c 0.328125,0 1.046875,0 1.828125,-0.375 v 7.46875 c 0,0.515625 -0.046875,0.6875 -1.296875,0.6875 H 1.390625 V 0 c 0.390625,-0.03125 1.78125,-0.03125 2.25,-0.03125 0.46875,0 1.859375,0 2.234375,0.03125 V -0.421875 H 5.4375 c -1.265625,0 -1.3125,-0.171875 -1.3125,-0.6875 z m 0,0"
             id="path6"
             style="fill:#ff0000" />
        </g>
      </g>
    </g>
  </g>
</svg>
