<?xml version="1.0" encoding="UTF-8" standalone="no"?>
<!-- Created with Inkscape (http://www.inkscape.org/) -->

<svg
   width="68.15657mm"
   height="54.256599mm"
   viewBox="0 0 68.15657 54.256599"
   version="1.1"
   id="svg1"
   inkscape:version="1.3.2 (091e20e, 2023-11-25, custom)"
   sodipodi:docname="sis_par3.svg"
   inkscape:export-filename="sis_par3.png"
   inkscape:export-xdpi="300"
   inkscape:export-ydpi="300"
   xmlns:inkscape="http://www.inkscape.org/namespaces/inkscape"
   xmlns:sodipodi="http://sodipodi.sourceforge.net/DTD/sodipodi-0.dtd"
   xmlns="http://www.w3.org/2000/svg"
   xmlns:svg="http://www.w3.org/2000/svg">
  <sodipodi:namedview
     id="namedview1"
     pagecolor="#ffffff"
     bordercolor="#000000"
     borderopacity="0.25"
     inkscape:showpageshadow="2"
     inkscape:pageopacity="0.0"
     inkscape:pagecheckerboard="0"
     inkscape:deskcolor="#d1d1d1"
     inkscape:document-units="mm"
     inkscape:zoom="2.0485264"
     inkscape:cx="118.1337"
     inkscape:cy="78.837157"
     inkscape:window-width="1920"
     inkscape:window-height="1009"
     inkscape:window-x="-8"
     inkscape:window-y="-8"
     inkscape:window-maximized="1"
     inkscape:current-layer="layer1"
     inkscape:export-bgcolor="#ffffffff" />
  <defs
     id="defs1">
    <marker
       style="overflow:visible"
       id="Triangle"
       refX="0"
       refY="0"
       orient="auto-start-reverse"
       inkscape:stockid="Triangle arrow"
       markerWidth="1"
       markerHeight="1"
       viewBox="0 0 1 1"
       inkscape:isstock="true"
       inkscape:collect="always"
       preserveAspectRatio="xMidYMid">
      <path
         transform="scale(0.5)"
         style="fill:context-stroke;fill-rule:evenodd;stroke:context-stroke;stroke-width:1pt"
         d="M 5.77,0 -2.88,5 V -5 Z"
         id="path135" />
    </marker>
    <filter
       inkscape:collect="always"
       style="color-interpolation-filters:sRGB"
       id="filter2408"
       x="-0.19294295"
       width="1.3858859"
       y="-0.19294295"
       height="1.3858859">
      <feGaussianBlur
         inkscape:collect="always"
         stdDeviation="0.52308203"
         id="feGaussianBlur2410" />
    </filter>
  </defs>
  <g
     inkscape:label="Camada 1"
     inkscape:groupmode="layer"
     id="layer1"
     transform="translate(-57.406724,-140.96508)">
    <g
       id="g97"
       transform="rotate(-22.138451,241.8582,305.366)">
      <circle
         style="opacity:1;mix-blend-mode:normal;fill:#000000;stroke:#000000;stroke-width:0.170779"
         id="circle96"
         cx="135.97427"
         cy="113.54485"
         r="7.4015002" />
      <circle
         style="opacity:1;fill:#ffffff;stroke:#000000;stroke-width:0.118401;filter:url(#filter2408)"
         id="circle97"
         cx="138.57416"
         cy="110.38313"
         r="3.4066997" />
    </g>
    <g
       id="g2"
       transform="rotate(-22.138451,262.49544,199.87568)">
      <circle
         style="opacity:1;mix-blend-mode:normal;fill:#000000;stroke:#000000;stroke-width:0.170779"
         id="circle1"
         cx="135.97427"
         cy="113.54485"
         r="7.4015002" />
      <circle
         style="opacity:1;fill:#ffffff;stroke:#000000;stroke-width:0.118401;filter:url(#filter2408)"
         id="circle2"
         cx="138.57416"
         cy="110.38313"
         r="3.4066997" />
    </g>
    <path
       style="fill:#ff0000;stroke:#ff0000;stroke-width:0.6;stroke-dasharray:none;marker-end:url(#Triangle)"
       d="M 71.424306,167.64693 58.50852,144.26935"
       id="path2" />
    <path
       style="fill:#ff0000;stroke:#ff0000;stroke-width:0.6;stroke-dasharray:none;marker-end:url(#Triangle)"
       d="M 112.85364,167.77609 99.937778,144.39851"
       id="path3" />
    <path
       style="fill:#ff0000;stroke:#0000ff;stroke-width:0.600001;stroke-dasharray:none;marker-end:url(#Triangle)"
       d="m 71.493441,168.16356 v 24.92747"
       id="path4" />
    <path
       style="fill:#ff0000;stroke:#0000ff;stroke-width:0.600001;stroke-dasharray:none;marker-end:url(#Triangle)"
       d="m 112.7685,168.16356 v 24.92747"
       id="path5" />
    <path
       style="fill:#ff0000;stroke:#00ff00;stroke-width:0.600001;stroke-dasharray:none;marker-start:url(#Triangle)"
       d="m 81.24468,166.30251 h 9.406827"
       id="path6" />
    <path
       style="fill:#ff0000;stroke:#00ff00;stroke-width:0.600001;stroke-dasharray:none;marker-start:url(#Triangle)"
       d="M 103.33756,166.30251 H 93.930708"
       id="path7" />
    <g
       inkscape:label=""
       transform="translate(82.012916,158.13482)"
       id="g11">
      <g
         fill="#000000"
         fill-opacity="1"
         id="g5"
         transform="matrix(0.352778,0,0,0.352778,-0.984206,-0.699117)">
        <g
           id="use4"
           transform="translate(4.4860001,14.263)">
          <path
             d="M 9.21875,-10.28125 C 9,-10.09375 8.375,-9.484375 8.375,-9.25 c 0,0.171875 0.140625,0.328125 0.328125,0.328125 0.140625,0 0.21875,-0.09375 0.34375,-0.265625 0.40625,-0.53125 0.875,-0.84375 1.265625,-1.078125 0.171875,-0.09375 0.296875,-0.15625 0.296875,-0.34375 0,-0.15625 -0.140625,-0.234375 -0.25,-0.328125 -0.46875,-0.328125 -0.59375,-0.78125 -0.640625,-1 -0.0625,-0.140625 -0.109375,-0.34375 -0.359375,-0.34375 -0.09375,0 -0.296875,0.07813 -0.296875,0.328125 0,0.15625 0.09375,0.578125 0.421875,1.03125 h -5.78125 c -0.296875,0 -0.59375,0 -0.59375,0.328125 0,0.3125 0.3125,0.3125 0.59375,0.3125 z m 0,0"
             id="path10" />
        </g>
      </g>
      <g
         fill="#000000"
         fill-opacity="1"
         id="g6"
         transform="matrix(0.352778,0,0,0.352778,-0.984206,-0.699117)">
        <g
           id="use5"
           transform="translate(1.993,18.615)">
          <path
             d="m 5.109375,-5.609375 h 1.65625 c 1.3125,0 1.40625,0.28125 1.40625,0.78125 0,0.234375 -0.03125,0.46875 -0.109375,0.84375 C 8.03125,-3.90625 8,-3.828125 8,-3.78125 c 0,0.109375 0.078125,0.1875 0.203125,0.1875 0.125,0 0.140625,-0.078125 0.21875,-0.34375 l 1,-4.015625 C 9.421875,-8.03125 9.359375,-8.125 9.25,-8.125 c -0.15625,0 -0.171875,0.0625 -0.25,0.359375 -0.359375,1.296875 -0.703125,1.65625 -2.203125,1.65625 h -1.5625 l 1.125,-4.46875 c 0.15625,-0.59375 0.1875,-0.65625 0.890625,-0.65625 h 2.3125 c 2.140625,0 2.453125,0.640625 2.453125,1.875 0,0.09375 0,0.46875 -0.04687,0.921875 -0.01563,0.0625 -0.04687,0.296875 -0.04687,0.359375 0,0.140625 0.07813,0.1875 0.1875,0.1875 0.109375,0 0.1875,-0.0625 0.21875,-0.375 L 12.6875,-11.28125 c 0,-0.04687 0.03125,-0.21875 0.03125,-0.25 0,-0.1875 -0.15625,-0.1875 -0.453125,-0.1875 H 4.09375 c -0.328125,0 -0.5,0 -0.5,0.296875 0,0.1875 0.125,0.1875 0.421875,0.1875 1.0625,0 1.0625,0.125 1.0625,0.3125 0,0.09375 -0.015625,0.15625 -0.0625,0.34375 L 2.6875,-1.28125 C 2.53125,-0.671875 2.5,-0.5 1.296875,-0.5 c -0.328125,0 -0.5,0 -0.5,0.3125 0,0.1875 0.15625,0.1875 0.25,0.1875 0.328125,0 0.671875,-0.03125 1,-0.03125 H 4.28125 C 4.671875,-0.03125 5.078125,0 5.453125,0 5.609375,0 5.8125,0 5.8125,-0.3125 5.8125,-0.5 5.71875,-0.5 5.34375,-0.5 3.984375,-0.5 3.9375,-0.625 3.9375,-0.875 c 0,-0.09375 0.046875,-0.234375 0.078125,-0.34375 z m 0,0"
             id="path8" />
        </g>
      </g>
      <g
         fill="#000000"
         fill-opacity="1"
         id="g7"
         transform="matrix(0.352778,0,0,0.352778,-0.984206,-0.699117)">
        <g
           id="use6"
           transform="translate(12.905,21.197001)">
          <path
             d="M 5.265625,-2.015625 H 5 c -0.046875,0.203125 -0.140625,0.875 -0.25,1.0625 C 4.65625,-0.84375 3.984375,-0.84375 3.625,-0.84375 H 1.40625 c 0.328125,-0.28125 1.0625,-1.046875 1.359375,-1.328125 1.828125,-1.671875 2.5,-2.296875 2.5,-3.484375 0,-1.375 -1.09375,-2.296875 -2.484375,-2.296875 -1.375,0 -2.203125,1.1875 -2.203125,2.21875 0,0.609375 0.53125,0.609375 0.5625,0.609375 0.265625,0 0.5625,-0.1875 0.5625,-0.5625 0,-0.34375 -0.21875,-0.5625 -0.5625,-0.5625 -0.09375,0 -0.125,0 -0.15625,0.015625 0.21875,-0.8125 0.875,-1.375 1.640625,-1.375 1.015625,0 1.640625,0.859375 1.640625,1.953125 C 4.265625,-4.640625 3.6875,-3.75 3,-2.984375 L 0.578125,-0.28125 V 0 h 4.375 z m 0,0"
             id="path9" />
        </g>
        <g
           id="use7"
           transform="translate(18.758266,21.197001)">
          <path
             d="m 3.4375,-7.65625 c 0,-0.28125 0,-0.296875 -0.234375,-0.296875 C 2.921875,-7.625 2.3125,-7.1875 1.09375,-7.1875 v 0.34375 c 0.265625,0 0.859375,0 1.53125,-0.296875 v 6.21875 c 0,0.4375 -0.046875,0.578125 -1.09375,0.578125 h -0.375 V 0 c 0.328125,-0.03125 1.484375,-0.03125 1.875,-0.03125 0.40625,0 1.546875,0 1.875,0.03125 v -0.34375 h -0.375 c -1.046875,0 -1.09375,-0.140625 -1.09375,-0.578125 z m 0,0"
             id="path11" />
        </g>
      </g>
    </g>
    <g
       inkscape:label=""
       transform="translate(94.250923,158.13482)"
       id="g19">
      <g
         fill="#000000"
         fill-opacity="1"
         id="g13"
         transform="matrix(0.352778,0,0,0.352778,-0.984206,-0.699117)">
        <g
           id="g12"
           transform="translate(4.4860001,14.263)">
          <path
             d="M 9.21875,-10.28125 C 9,-10.09375 8.375,-9.484375 8.375,-9.25 c 0,0.171875 0.140625,0.328125 0.328125,0.328125 0.140625,0 0.21875,-0.09375 0.34375,-0.265625 0.40625,-0.53125 0.875,-0.84375 1.265625,-1.078125 0.171875,-0.09375 0.296875,-0.15625 0.296875,-0.34375 0,-0.15625 -0.140625,-0.234375 -0.25,-0.328125 -0.46875,-0.328125 -0.59375,-0.78125 -0.640625,-1 -0.0625,-0.140625 -0.109375,-0.34375 -0.359375,-0.34375 -0.09375,0 -0.296875,0.07813 -0.296875,0.328125 0,0.15625 0.09375,0.578125 0.421875,1.03125 h -5.78125 c -0.296875,0 -0.59375,0 -0.59375,0.328125 0,0.3125 0.3125,0.3125 0.59375,0.3125 z m 0,0"
             id="path12" />
        </g>
      </g>
      <g
         fill="#000000"
         fill-opacity="1"
         id="g15"
         transform="matrix(0.352778,0,0,0.352778,-0.984206,-0.699117)">
        <g
           id="g14"
           transform="translate(1.993,18.615)">
          <path
             d="m 5.109375,-5.609375 h 1.65625 c 1.3125,0 1.40625,0.28125 1.40625,0.78125 0,0.234375 -0.03125,0.46875 -0.109375,0.84375 C 8.03125,-3.90625 8,-3.828125 8,-3.78125 c 0,0.109375 0.078125,0.1875 0.203125,0.1875 0.125,0 0.140625,-0.078125 0.21875,-0.34375 l 1,-4.015625 C 9.421875,-8.03125 9.359375,-8.125 9.25,-8.125 c -0.15625,0 -0.171875,0.0625 -0.25,0.359375 -0.359375,1.296875 -0.703125,1.65625 -2.203125,1.65625 h -1.5625 l 1.125,-4.46875 c 0.15625,-0.59375 0.1875,-0.65625 0.890625,-0.65625 h 2.3125 c 2.140625,0 2.453125,0.640625 2.453125,1.875 0,0.09375 0,0.46875 -0.04687,0.921875 -0.01563,0.0625 -0.04687,0.296875 -0.04687,0.359375 0,0.140625 0.07813,0.1875 0.1875,0.1875 0.109375,0 0.1875,-0.0625 0.21875,-0.375 L 12.6875,-11.28125 c 0,-0.04687 0.03125,-0.21875 0.03125,-0.25 0,-0.1875 -0.15625,-0.1875 -0.453125,-0.1875 H 4.09375 c -0.328125,0 -0.5,0 -0.5,0.296875 0,0.1875 0.125,0.1875 0.421875,0.1875 1.0625,0 1.0625,0.125 1.0625,0.3125 0,0.09375 -0.015625,0.15625 -0.0625,0.34375 L 2.6875,-1.28125 C 2.53125,-0.671875 2.5,-0.5 1.296875,-0.5 c -0.328125,0 -0.5,0 -0.5,0.3125 0,0.1875 0.15625,0.1875 0.25,0.1875 0.328125,0 0.671875,-0.03125 1,-0.03125 H 4.28125 C 4.671875,-0.03125 5.078125,0 5.453125,0 5.609375,0 5.8125,0 5.8125,-0.3125 5.8125,-0.5 5.71875,-0.5 5.34375,-0.5 3.984375,-0.5 3.9375,-0.625 3.9375,-0.875 c 0,-0.09375 0.046875,-0.234375 0.078125,-0.34375 z m 0,0"
             id="path13" />
        </g>
      </g>
      <g
         fill="#000000"
         fill-opacity="1"
         id="g18"
         transform="matrix(0.352778,0,0,0.352778,-0.984206,-0.699117)">
        <g
           id="g16"
           transform="translate(12.905,21.197001)">
          <path
             d="m 3.4375,-7.65625 c 0,-0.28125 0,-0.296875 -0.234375,-0.296875 C 2.921875,-7.625 2.3125,-7.1875 1.09375,-7.1875 v 0.34375 c 0.265625,0 0.859375,0 1.53125,-0.296875 v 6.21875 c 0,0.4375 -0.046875,0.578125 -1.09375,0.578125 h -0.375 V 0 c 0.328125,-0.03125 1.484375,-0.03125 1.875,-0.03125 0.40625,0 1.546875,0 1.875,0.03125 v -0.34375 h -0.375 c -1.046875,0 -1.09375,-0.140625 -1.09375,-0.578125 z m 0,0"
             id="path15" />
        </g>
        <g
           id="g17"
           transform="translate(18.758266,21.197001)">
          <path
             d="M 5.265625,-2.015625 H 5 c -0.046875,0.203125 -0.140625,0.875 -0.25,1.0625 C 4.65625,-0.84375 3.984375,-0.84375 3.625,-0.84375 H 1.40625 c 0.328125,-0.28125 1.0625,-1.046875 1.359375,-1.328125 1.828125,-1.671875 2.5,-2.296875 2.5,-3.484375 0,-1.375 -1.09375,-2.296875 -2.484375,-2.296875 -1.375,0 -2.203125,1.1875 -2.203125,2.21875 0,0.609375 0.53125,0.609375 0.5625,0.609375 0.265625,0 0.5625,-0.1875 0.5625,-0.5625 0,-0.34375 -0.21875,-0.5625 -0.5625,-0.5625 -0.09375,0 -0.125,0 -0.15625,0.015625 0.21875,-0.8125 0.875,-1.375 1.640625,-1.375 1.015625,0 1.640625,0.859375 1.640625,1.953125 C 4.265625,-4.640625 3.6875,-3.75 3,-2.984375 L 0.578125,-0.28125 V 0 h 4.375 z m 0,0"
             id="path16" />
        </g>
      </g>
    </g>
    <g
       inkscape:label=""
       transform="translate(62.285979,140.96508)"
       id="g24">
      <g
         fill="#000000"
         fill-opacity="1"
         id="g4"
         transform="matrix(0.352778,0,0,0.352778,-0.846402,-0.699117)">
        <g
           id="use3"
           transform="translate(3.97,14.263)">
          <path
             d="M 9.21875,-10.28125 C 9,-10.09375 8.375,-9.484375 8.375,-9.25 c 0,0.171875 0.140625,0.328125 0.328125,0.328125 0.140625,0 0.21875,-0.09375 0.34375,-0.265625 0.40625,-0.53125 0.875,-0.84375 1.265625,-1.078125 0.171875,-0.09375 0.296875,-0.15625 0.296875,-0.34375 0,-0.15625 -0.140625,-0.234375 -0.25,-0.328125 -0.46875,-0.328125 -0.59375,-0.78125 -0.640625,-1 -0.0625,-0.140625 -0.109375,-0.34375 -0.359375,-0.34375 -0.09375,0 -0.296875,0.07813 -0.296875,0.328125 0,0.15625 0.09375,0.578125 0.421875,1.03125 h -5.78125 c -0.296875,0 -0.59375,0 -0.59375,0.328125 0,0.3125 0.3125,0.3125 0.59375,0.3125 z m 0,0"
             id="path19" />
        </g>
      </g>
      <g
         fill="#000000"
         fill-opacity="1"
         id="g21"
         transform="matrix(0.352778,0,0,0.352778,-0.846402,-0.699117)">
        <g
           id="g20"
           transform="translate(1.993,18.615)">
          <path
             d="m 7.1875,-10.5 c 0.09375,-0.421875 0.125,-0.578125 0.390625,-0.640625 0.140625,-0.03125 0.703125,-0.03125 1.0625,-0.03125 1.71875,0 2.53125,0.0625 2.53125,1.40625 0,0.265625 -0.0625,0.921875 -0.171875,1.546875 L 10.984375,-8 c 0,0.0625 0.0625,0.171875 0.171875,0.171875 0.171875,0 0.171875,-0.09375 0.21875,-0.375 l 0.5,-3.046875 c 0.04687,-0.15625 0.04687,-0.1875 0.04687,-0.234375 0,-0.1875 -0.109375,-0.1875 -0.453125,-0.1875 h -9.42187 c -0.390625,0 -0.40625,0.01563 -0.515625,0.328125 L 0.484375,-8.25 C 0.46875,-8.21875 0.40625,-8.03125 0.40625,-8 c 0,0.078125 0.078125,0.171875 0.171875,0.171875 0.140625,0 0.171875,-0.078125 0.25,-0.296875 0.71875,-2.078125 1.078125,-3.046875 3.375,-3.046875 h 1.15625 c 0.40625,0 0.578125,0 0.578125,0.1875 0,0.04687 0,0.07813 -0.078125,0.390625 l -2.3125,9.25 C 3.375,-0.671875 3.34375,-0.5 1.515625,-0.5 1.078125,-0.5 0.96875,-0.5 0.96875,-0.171875 0.96875,0 1.15625,0 1.234375,0 1.671875,0 2.125,-0.03125 2.546875,-0.03125 h 2.6875 C 5.671875,-0.03125 6.125,0 6.5625,0 6.75,0 6.921875,0 6.921875,-0.328125 6.921875,-0.5 6.796875,-0.5 6.359375,-0.5 c -1.5625,0 -1.5625,-0.15625 -1.5625,-0.40625 0,-0.03125 0,-0.140625 0.078125,-0.421875 z m 0,0"
             id="path20" />
        </g>
      </g>
      <g
         fill="#000000"
         fill-opacity="1"
         id="g23"
         transform="matrix(0.352778,0,0,0.352778,-0.846402,-0.699117)">
        <g
           id="g22"
           transform="translate(11.872,21.197001)">
          <path
             d="m 3.4375,-7.65625 c 0,-0.28125 0,-0.296875 -0.234375,-0.296875 C 2.921875,-7.625 2.3125,-7.1875 1.09375,-7.1875 v 0.34375 c 0.265625,0 0.859375,0 1.53125,-0.296875 v 6.21875 c 0,0.4375 -0.046875,0.578125 -1.09375,0.578125 h -0.375 V 0 c 0.328125,-0.03125 1.484375,-0.03125 1.875,-0.03125 0.40625,0 1.546875,0 1.875,0.03125 v -0.34375 h -0.375 c -1.046875,0 -1.09375,-0.140625 -1.09375,-0.578125 z m 0,0"
             id="path21" />
        </g>
      </g>
    </g>
    <g
       inkscape:label=""
       transform="translate(104.66236,140.96508)"
       id="g31">
      <g
         fill="#000000"
         fill-opacity="1"
         id="g26"
         transform="matrix(0.352778,0,0,0.352778,-0.846402,-0.699117)">
        <g
           id="g25"
           transform="translate(3.97,14.263)">
          <path
             d="M 9.21875,-10.28125 C 9,-10.09375 8.375,-9.484375 8.375,-9.25 c 0,0.171875 0.140625,0.328125 0.328125,0.328125 0.140625,0 0.21875,-0.09375 0.34375,-0.265625 0.40625,-0.53125 0.875,-0.84375 1.265625,-1.078125 0.171875,-0.09375 0.296875,-0.15625 0.296875,-0.34375 0,-0.15625 -0.140625,-0.234375 -0.25,-0.328125 -0.46875,-0.328125 -0.59375,-0.78125 -0.640625,-1 -0.0625,-0.140625 -0.109375,-0.34375 -0.359375,-0.34375 -0.09375,0 -0.296875,0.07813 -0.296875,0.328125 0,0.15625 0.09375,0.578125 0.421875,1.03125 h -5.78125 c -0.296875,0 -0.59375,0 -0.59375,0.328125 0,0.3125 0.3125,0.3125 0.59375,0.3125 z m 0,0"
             id="path24" />
        </g>
      </g>
      <g
         fill="#000000"
         fill-opacity="1"
         id="g28"
         transform="matrix(0.352778,0,0,0.352778,-0.846402,-0.699117)">
        <g
           id="g27"
           transform="translate(1.993,18.615)">
          <path
             d="m 7.1875,-10.5 c 0.09375,-0.421875 0.125,-0.578125 0.390625,-0.640625 0.140625,-0.03125 0.703125,-0.03125 1.0625,-0.03125 1.71875,0 2.53125,0.0625 2.53125,1.40625 0,0.265625 -0.0625,0.921875 -0.171875,1.546875 L 10.984375,-8 c 0,0.0625 0.0625,0.171875 0.171875,0.171875 0.171875,0 0.171875,-0.09375 0.21875,-0.375 l 0.5,-3.046875 c 0.04687,-0.15625 0.04687,-0.1875 0.04687,-0.234375 0,-0.1875 -0.109375,-0.1875 -0.453125,-0.1875 h -9.42187 c -0.390625,0 -0.40625,0.01563 -0.515625,0.328125 L 0.484375,-8.25 C 0.46875,-8.21875 0.40625,-8.03125 0.40625,-8 c 0,0.078125 0.078125,0.171875 0.171875,0.171875 0.140625,0 0.171875,-0.078125 0.25,-0.296875 0.71875,-2.078125 1.078125,-3.046875 3.375,-3.046875 h 1.15625 c 0.40625,0 0.578125,0 0.578125,0.1875 0,0.04687 0,0.07813 -0.078125,0.390625 l -2.3125,9.25 C 3.375,-0.671875 3.34375,-0.5 1.515625,-0.5 1.078125,-0.5 0.96875,-0.5 0.96875,-0.171875 0.96875,0 1.15625,0 1.234375,0 1.671875,0 2.125,-0.03125 2.546875,-0.03125 h 2.6875 C 5.671875,-0.03125 6.125,0 6.5625,0 6.75,0 6.921875,0 6.921875,-0.328125 6.921875,-0.5 6.796875,-0.5 6.359375,-0.5 c -1.5625,0 -1.5625,-0.15625 -1.5625,-0.40625 0,-0.03125 0,-0.140625 0.078125,-0.421875 z m 0,0"
             id="path26" />
        </g>
      </g>
      <g
         fill="#000000"
         fill-opacity="1"
         id="g30"
         transform="matrix(0.352778,0,0,0.352778,-0.846402,-0.699117)">
        <g
           id="g29"
           transform="translate(11.872,21.197001)">
          <path
             d="M 5.265625,-2.015625 H 5 c -0.046875,0.203125 -0.140625,0.875 -0.25,1.0625 C 4.65625,-0.84375 3.984375,-0.84375 3.625,-0.84375 H 1.40625 c 0.328125,-0.28125 1.0625,-1.046875 1.359375,-1.328125 1.828125,-1.671875 2.5,-2.296875 2.5,-3.484375 0,-1.375 -1.09375,-2.296875 -2.484375,-2.296875 -1.375,0 -2.203125,1.1875 -2.203125,2.21875 0,0.609375 0.53125,0.609375 0.5625,0.609375 0.265625,0 0.5625,-0.1875 0.5625,-0.5625 0,-0.34375 -0.21875,-0.5625 -0.5625,-0.5625 -0.09375,0 -0.125,0 -0.15625,0.015625 0.21875,-0.8125 0.875,-1.375 1.640625,-1.375 1.015625,0 1.640625,0.859375 1.640625,1.953125 C 4.265625,-4.640625 3.6875,-3.75 3,-2.984375 L 0.578125,-0.28125 V 0 h 4.375 z m 0,0"
             id="path28" />
        </g>
      </g>
    </g>
    <g
       inkscape:label=""
       transform="translate(73.884687,185.16803)"
       id="g39">
      <g
         fill="#000000"
         fill-opacity="1"
         id="g33"
         transform="matrix(0.352778,0,0,0.352778,-0.868451,-0.699117)">
        <g
           id="g32"
           transform="translate(1.993,14.263)">
          <path
             d="M 3.546875,-5.046875 C 3.578125,-5.140625 4.015625,-6.015625 4.65625,-6.5625 5.09375,-6.96875 5.6875,-7.25 6.359375,-7.25 c 0.6875,0 0.921875,0.515625 0.921875,1.203125 0,0.109375 0,0.453125 -0.203125,1.265625 l -0.4375,1.765625 c -0.125,0.515625 -0.453125,1.796875 -0.5,1.984375 -0.0625,0.25 -0.171875,0.703125 -0.171875,0.765625 0,0.25 0.203125,0.4375 0.453125,0.4375 0.515625,0 0.609375,-0.390625 0.765625,-1.015625 L 8.21875,-4.953125 C 8.25,-5.09375 9.140625,-7.25 11.03125,-7.25 c 0.6875,0 0.9375,0.515625 0.9375,1.203125 0,0.96875 -0.671875,2.84375 -1.046875,3.875 -0.15625,0.421875 -0.25,0.640625 -0.25,0.953125 0,0.765625 0.53125,1.390625 1.359375,1.390625 1.609375,0 2.203125,-2.53125 2.203125,-2.640625 0,-0.078125 -0.0625,-0.15625 -0.171875,-0.15625 -0.15625,0 -0.171875,0.0625 -0.25,0.359375 -0.40625,1.375 -1.03125,2.09375 -1.71875,2.09375 -0.171875,0 -0.453125,-0.015625 -0.453125,-0.5625 0,-0.453125 0.203125,-1 0.28125,-1.1875 C 12.21875,-2.75 13,-4.78125 13,-5.78125 13,-6.8125 12.390625,-7.59375 11.09375,-7.59375 9.9375,-7.59375 9,-6.9375 8.3125,-5.921875 8.265625,-6.859375 7.703125,-7.59375 6.40625,-7.59375 4.875,-7.59375 4.0625,-6.515625 3.75,-6.078125 3.703125,-7.0625 3,-7.59375 2.234375,-7.59375 c -0.5,0 -0.890625,0.234375 -1.21875,0.890625 -0.3125,0.625 -0.546875,1.671875 -0.546875,1.75 0,0.0625 0.0625,0.15625 0.1875,0.15625 0.140625,0 0.15625,-0.03125 0.25,-0.421875 C 1.171875,-6.234375 1.5,-7.25 2.1875,-7.25 c 0.390625,0 0.53125,0.28125 0.53125,0.796875 0,0.375 -0.171875,1.046875 -0.296875,1.578125 l -0.46875,1.859375 C 1.875,-2.6875 1.6875,-1.90625 1.59375,-1.59375 c -0.109375,0.4375 -0.296875,1.25 -0.296875,1.328125 0,0.25 0.1875,0.4375 0.4375,0.4375 0.21875,0 0.453125,-0.109375 0.59375,-0.359375 0.03125,-0.09375 0.1875,-0.6875 0.265625,-1.03125 l 0.390625,-1.546875 z m 0,0"
             id="path31" />
        </g>
      </g>
      <g
         fill="#000000"
         fill-opacity="1"
         id="g35"
         transform="matrix(0.352778,0,0,0.352778,-0.868451,-0.699117)">
        <g
           id="g34"
           transform="translate(16.737,16.844999)">
          <path
             d="m 3.4375,-7.65625 c 0,-0.28125 0,-0.296875 -0.234375,-0.296875 C 2.921875,-7.625 2.3125,-7.1875 1.09375,-7.1875 v 0.34375 c 0.265625,0 0.859375,0 1.53125,-0.296875 v 6.21875 c 0,0.4375 -0.046875,0.578125 -1.09375,0.578125 h -0.375 V 0 c 0.328125,-0.03125 1.484375,-0.03125 1.875,-0.03125 0.40625,0 1.546875,0 1.875,0.03125 v -0.34375 h -0.375 c -1.046875,0 -1.09375,-0.140625 -1.09375,-0.578125 z m 0,0"
             id="path33" />
        </g>
      </g>
      <g
         fill="#000000"
         fill-opacity="1"
         id="g37"
         transform="matrix(0.352778,0,0,0.352778,-0.868451,-0.699117)">
        <g
           id="g36"
           transform="translate(22.363001,14.263)">
          <path
             d="M 9.21875,-10.28125 C 9,-10.09375 8.375,-9.484375 8.375,-9.25 c 0,0.171875 0.140625,0.328125 0.328125,0.328125 0.140625,0 0.21875,-0.09375 0.34375,-0.265625 0.40625,-0.53125 0.875,-0.84375 1.265625,-1.078125 0.171875,-0.09375 0.296875,-0.15625 0.296875,-0.34375 0,-0.15625 -0.140625,-0.234375 -0.25,-0.328125 -0.46875,-0.328125 -0.59375,-0.78125 -0.640625,-1 -0.0625,-0.140625 -0.109375,-0.34375 -0.359375,-0.34375 -0.09375,0 -0.296875,0.07813 -0.296875,0.328125 0,0.15625 0.09375,0.578125 0.421875,1.03125 h -5.78125 c -0.296875,0 -0.59375,0 -0.59375,0.328125 0,0.3125 0.3125,0.3125 0.59375,0.3125 z m 0,0"
             id="path35" />
        </g>
      </g>
      <g
         fill="#000000"
         fill-opacity="1"
         id="g8"
         transform="matrix(0.352778,0,0,0.352778,-0.868451,-0.699117)">
        <g
           id="g38"
           transform="translate(23.096376,14.263)">
          <path
             d="M 5.8125,-2.1875 C 5.75,-1.90625 5.71875,-1.84375 5.5,-1.578125 4.78125,-0.671875 4.0625,-0.34375 3.53125,-0.34375 c -0.5625,0 -1.109375,-0.453125 -1.109375,-1.640625 0,-0.90625 0.515625,-2.84375 0.90625,-3.609375 0.5,-0.96875 1.265625,-1.65625 2,-1.65625 1.125,0 1.359375,1.40625 1.359375,1.515625 L 6.625,-5.5 Z M 6.890625,-6.453125 C 6.65625,-6.953125 6.1875,-7.59375 5.328125,-7.59375 3.4375,-7.59375 1.3125,-5.234375 1.3125,-2.671875 1.3125,-0.875 2.390625,0 3.5,0 4.40625,0 5.21875,-0.71875 5.53125,-1.0625 L 5.140625,0.484375 C 4.90625,1.421875 4.796875,1.859375 4.1875,2.46875 3.484375,3.171875 2.828125,3.171875 2.4375,3.171875 1.921875,3.171875 1.5,3.140625 1.0625,3 1.625,2.84375 1.75,2.359375 1.75,2.171875 1.75,1.890625 1.546875,1.625 1.171875,1.625 0.75,1.625 0.3125,1.96875 0.3125,2.53125 c 0,0.703125 0.703125,0.984375 2.171875,0.984375 2.21875,0 3.375,-1.4375 3.59375,-2.359375 l 1.90625,-7.71875 c 0.0625,-0.203125 0.0625,-0.234375 0.0625,-0.265625 0,-0.25 -0.1875,-0.4375 -0.453125,-0.4375 -0.40625,0 -0.65625,0.34375 -0.703125,0.8125 z m 0,0"
             id="path37" />
        </g>
      </g>
    </g>
    <g
       inkscape:label=""
       transform="translate(114.79982,185.16803)"
       id="g48">
      <g
         fill="#000000"
         fill-opacity="1"
         id="g41"
         transform="matrix(0.352778,0,0,0.352778,-0.868451,-0.699117)">
        <g
           id="g40"
           transform="translate(1.993,14.263)">
          <path
             d="M 3.546875,-5.046875 C 3.578125,-5.140625 4.015625,-6.015625 4.65625,-6.5625 5.09375,-6.96875 5.6875,-7.25 6.359375,-7.25 c 0.6875,0 0.921875,0.515625 0.921875,1.203125 0,0.109375 0,0.453125 -0.203125,1.265625 l -0.4375,1.765625 c -0.125,0.515625 -0.453125,1.796875 -0.5,1.984375 -0.0625,0.25 -0.171875,0.703125 -0.171875,0.765625 0,0.25 0.203125,0.4375 0.453125,0.4375 0.515625,0 0.609375,-0.390625 0.765625,-1.015625 L 8.21875,-4.953125 C 8.25,-5.09375 9.140625,-7.25 11.03125,-7.25 c 0.6875,0 0.9375,0.515625 0.9375,1.203125 0,0.96875 -0.671875,2.84375 -1.046875,3.875 -0.15625,0.421875 -0.25,0.640625 -0.25,0.953125 0,0.765625 0.53125,1.390625 1.359375,1.390625 1.609375,0 2.203125,-2.53125 2.203125,-2.640625 0,-0.078125 -0.0625,-0.15625 -0.171875,-0.15625 -0.15625,0 -0.171875,0.0625 -0.25,0.359375 -0.40625,1.375 -1.03125,2.09375 -1.71875,2.09375 -0.171875,0 -0.453125,-0.015625 -0.453125,-0.5625 0,-0.453125 0.203125,-1 0.28125,-1.1875 C 12.21875,-2.75 13,-4.78125 13,-5.78125 13,-6.8125 12.390625,-7.59375 11.09375,-7.59375 9.9375,-7.59375 9,-6.9375 8.3125,-5.921875 8.265625,-6.859375 7.703125,-7.59375 6.40625,-7.59375 4.875,-7.59375 4.0625,-6.515625 3.75,-6.078125 3.703125,-7.0625 3,-7.59375 2.234375,-7.59375 c -0.5,0 -0.890625,0.234375 -1.21875,0.890625 -0.3125,0.625 -0.546875,1.671875 -0.546875,1.75 0,0.0625 0.0625,0.15625 0.1875,0.15625 0.140625,0 0.15625,-0.03125 0.25,-0.421875 C 1.171875,-6.234375 1.5,-7.25 2.1875,-7.25 c 0.390625,0 0.53125,0.28125 0.53125,0.796875 0,0.375 -0.171875,1.046875 -0.296875,1.578125 l -0.46875,1.859375 C 1.875,-2.6875 1.6875,-1.90625 1.59375,-1.59375 c -0.109375,0.4375 -0.296875,1.25 -0.296875,1.328125 0,0.25 0.1875,0.4375 0.4375,0.4375 0.21875,0 0.453125,-0.109375 0.59375,-0.359375 0.03125,-0.09375 0.1875,-0.6875 0.265625,-1.03125 l 0.390625,-1.546875 z m 0,0"
             id="path39" />
        </g>
      </g>
      <g
         fill="#000000"
         fill-opacity="1"
         id="g43"
         transform="matrix(0.352778,0,0,0.352778,-0.868451,-0.699117)">
        <g
           id="g42"
           transform="translate(16.737,16.844999)">
          <path
             d="M 5.265625,-2.015625 H 5 c -0.046875,0.203125 -0.140625,0.875 -0.25,1.0625 C 4.65625,-0.84375 3.984375,-0.84375 3.625,-0.84375 H 1.40625 c 0.328125,-0.28125 1.0625,-1.046875 1.359375,-1.328125 1.828125,-1.671875 2.5,-2.296875 2.5,-3.484375 0,-1.375 -1.09375,-2.296875 -2.484375,-2.296875 -1.375,0 -2.203125,1.1875 -2.203125,2.21875 0,0.609375 0.53125,0.609375 0.5625,0.609375 0.265625,0 0.5625,-0.1875 0.5625,-0.5625 0,-0.34375 -0.21875,-0.5625 -0.5625,-0.5625 -0.09375,0 -0.125,0 -0.15625,0.015625 0.21875,-0.8125 0.875,-1.375 1.640625,-1.375 1.015625,0 1.640625,0.859375 1.640625,1.953125 C 4.265625,-4.640625 3.6875,-3.75 3,-2.984375 L 0.578125,-0.28125 V 0 h 4.375 z m 0,0"
             id="path41" />
        </g>
      </g>
      <g
         fill="#000000"
         fill-opacity="1"
         id="g45"
         transform="matrix(0.352778,0,0,0.352778,-0.868451,-0.699117)">
        <g
           id="g44"
           transform="translate(22.363001,14.263)">
          <path
             d="M 9.21875,-10.28125 C 9,-10.09375 8.375,-9.484375 8.375,-9.25 c 0,0.171875 0.140625,0.328125 0.328125,0.328125 0.140625,0 0.21875,-0.09375 0.34375,-0.265625 0.40625,-0.53125 0.875,-0.84375 1.265625,-1.078125 0.171875,-0.09375 0.296875,-0.15625 0.296875,-0.34375 0,-0.15625 -0.140625,-0.234375 -0.25,-0.328125 -0.46875,-0.328125 -0.59375,-0.78125 -0.640625,-1 -0.0625,-0.140625 -0.109375,-0.34375 -0.359375,-0.34375 -0.09375,0 -0.296875,0.07813 -0.296875,0.328125 0,0.15625 0.09375,0.578125 0.421875,1.03125 h -5.78125 c -0.296875,0 -0.59375,0 -0.59375,0.328125 0,0.3125 0.3125,0.3125 0.59375,0.3125 z m 0,0"
             id="path43" />
        </g>
      </g>
      <g
         fill="#000000"
         fill-opacity="1"
         id="g47"
         transform="matrix(0.352778,0,0,0.352778,-0.868451,-0.699117)">
        <g
           id="g46"
           transform="translate(23.096376,14.263)">
          <path
             d="M 5.8125,-2.1875 C 5.75,-1.90625 5.71875,-1.84375 5.5,-1.578125 4.78125,-0.671875 4.0625,-0.34375 3.53125,-0.34375 c -0.5625,0 -1.109375,-0.453125 -1.109375,-1.640625 0,-0.90625 0.515625,-2.84375 0.90625,-3.609375 0.5,-0.96875 1.265625,-1.65625 2,-1.65625 1.125,0 1.359375,1.40625 1.359375,1.515625 L 6.625,-5.5 Z M 6.890625,-6.453125 C 6.65625,-6.953125 6.1875,-7.59375 5.328125,-7.59375 3.4375,-7.59375 1.3125,-5.234375 1.3125,-2.671875 1.3125,-0.875 2.390625,0 3.5,0 4.40625,0 5.21875,-0.71875 5.53125,-1.0625 L 5.140625,0.484375 C 4.90625,1.421875 4.796875,1.859375 4.1875,2.46875 3.484375,3.171875 2.828125,3.171875 2.4375,3.171875 1.921875,3.171875 1.5,3.140625 1.0625,3 1.625,2.84375 1.75,2.359375 1.75,2.171875 1.75,1.890625 1.546875,1.625 1.171875,1.625 0.75,1.625 0.3125,1.96875 0.3125,2.53125 c 0,0.703125 0.703125,0.984375 2.171875,0.984375 2.21875,0 3.375,-1.4375 3.59375,-2.359375 l 1.90625,-7.71875 c 0.0625,-0.203125 0.0625,-0.234375 0.0625,-0.265625 0,-0.25 -0.1875,-0.4375 -0.453125,-0.4375 -0.40625,0 -0.65625,0.34375 -0.703125,0.8125 z m 0,0"
             id="path45" />
        </g>
      </g>
    </g>
  </g>
</svg>
