<?xml version="1.0" encoding="UTF-8" standalone="no"?>
<!-- Created with Inkscape (http://www.inkscape.org/) -->

<svg
   width="61.672691mm"
   height="49.526009mm"
   viewBox="0 0 61.672691 49.526009"
   version="1.1"
   id="svg1"
   inkscape:version="1.3.2 (091e20e, 2023-11-25, custom)"
   sodipodi:docname="soma_vets.svg"
   inkscape:export-filename="soma_vets.png"
   inkscape:export-xdpi="600"
   inkscape:export-ydpi="600"
   xmlns:inkscape="http://www.inkscape.org/namespaces/inkscape"
   xmlns:sodipodi="http://sodipodi.sourceforge.net/DTD/sodipodi-0.dtd"
   xmlns="http://www.w3.org/2000/svg"
   xmlns:svg="http://www.w3.org/2000/svg">
  <sodipodi:namedview
     id="namedview1"
     pagecolor="#ffffff"
     bordercolor="#000000"
     borderopacity="0.25"
     inkscape:showpageshadow="2"
     inkscape:pageopacity="0.0"
     inkscape:pagecheckerboard="0"
     inkscape:deskcolor="#d1d1d1"
     inkscape:document-units="mm"
     inkscape:zoom="2.8970539"
     inkscape:cx="139.79719"
     inkscape:cy="122.71087"
     inkscape:window-width="1920"
     inkscape:window-height="1009"
     inkscape:window-x="-8"
     inkscape:window-y="-8"
     inkscape:window-maximized="1"
     inkscape:current-layer="layer1"
     inkscape:export-bgcolor="#ffffffff" />
  <defs
     id="defs1">
    <marker
       style="overflow:visible"
       id="Triangle"
       refX="0"
       refY="0"
       orient="auto-start-reverse"
       inkscape:stockid="Triangle arrow"
       markerWidth="1"
       markerHeight="1"
       viewBox="0 0 1 1"
       inkscape:isstock="true"
       inkscape:collect="always"
       preserveAspectRatio="xMidYMid">
      <path
         transform="scale(0.5)"
         style="fill:context-stroke;fill-rule:evenodd;stroke:context-stroke;stroke-width:1pt"
         d="M 5.77,0 -2.88,5 V -5 Z"
         id="path135" />
    </marker>
  </defs>
  <g
     inkscape:label="Camada 1"
     inkscape:groupmode="layer"
     id="layer1"
     transform="translate(-71.268816,-103.78173)">
    <path
       style="fill:none;stroke:#ff0000;stroke-width:0.6;stroke-dasharray:none;marker-end:url(#Triangle)"
       d="M 77.081181,141.01107 91.511069,131.1476"
       id="path1" />
    <path
       style="fill:none;stroke:#0000ff;stroke-width:0.600001;stroke-dasharray:none;marker-end:url(#Triangle)"
       d="m 92.972323,130.05166 2.191882,-19.72694"
       id="path2" />
    <path
       style="fill:none;stroke:#000000;stroke-width:0.600001;stroke-dasharray:none;marker-end:url(#Triangle)"
       d="M 77.263836,140.82841 94.250922,110.32472"
       id="path3"
       sodipodi:nodetypes="cc" />
    <g
       fill="#000000"
       fill-opacity="1"
       id="g3"
       transform="matrix(0.352778,0,0,0.352778,84.701403,135.146)">
      <g
         id="use2"
         transform="translate(1.219,10.513)">
        <path
           d="M 6.390625,-7.140625 C 6.25,-7 5.8125,-6.59375 5.8125,-6.421875 c 0,0.125 0.109375,0.234375 0.21875,0.234375 0.109375,0 0.15625,-0.078125 0.25,-0.203125 0.28125,-0.34375 0.609375,-0.578125 0.875,-0.734375 0.125,-0.078125 0.203125,-0.109375 0.203125,-0.234375 0,-0.109375 -0.09375,-0.171875 -0.15625,-0.234375 C 6.859375,-7.8125 6.78125,-8.140625 6.734375,-8.28125 6.703125,-8.375 6.671875,-8.515625 6.5,-8.515625 c -0.0625,0 -0.21875,0.046875 -0.21875,0.21875 0,0.109375 0.078125,0.390625 0.3125,0.71875 H 2.5625 c -0.203125,0 -0.40625,0 -0.40625,0.234375 0,0.203125 0.21875,0.203125 0.40625,0.203125 z m 0,0"
           id="path4" />
      </g>
    </g>
    <g
       fill="#000000"
       fill-opacity="1"
       id="g4"
       transform="matrix(0.352778,0,0,0.352778,84.701403,135.146)">
      <g
         id="use3"
         transform="translate(1.9913059,10.513)">
        <path
           d="M 3.59375,-1.421875 C 3.53125,-1.21875 3.53125,-1.1875 3.375,-0.96875 3.109375,-0.640625 2.578125,-0.125 2.015625,-0.125 1.53125,-0.125 1.25,-0.5625 1.25,-1.265625 c 0,-0.65625 0.375,-2 0.609375,-2.5 0.40625,-0.84375 0.96875,-1.265625 1.421875,-1.265625 0.796875,0 0.953125,0.984375 0.953125,1.078125 0,0.015625 -0.03125,0.15625 -0.046875,0.1875 z m 0.765625,-3.0625 c -0.125,-0.3125 -0.453125,-0.78125 -1.078125,-0.78125 -1.34375,0 -2.796875,1.734375 -2.796875,3.515625 0,1.171875 0.6875,1.875 1.5,1.875 0.65625,0 1.21875,-0.515625 1.546875,-0.90625 0.125,0.703125 0.6875,0.90625 1.046875,0.90625 0.359375,0 0.640625,-0.21875 0.859375,-0.65625 0.1875,-0.40625 0.359375,-1.125 0.359375,-1.171875 0,-0.0625 -0.046875,-0.109375 -0.125,-0.109375 C 5.5625,-1.8125 5.5625,-1.75 5.515625,-1.578125 5.328125,-0.875 5.109375,-0.125 4.609375,-0.125 4.265625,-0.125 4.25,-0.4375 4.25,-0.671875 c 0,-0.265625 0.03125,-0.40625 0.140625,-0.875 C 4.46875,-1.84375 4.53125,-2.109375 4.625,-2.453125 5.0625,-4.25 5.171875,-4.671875 5.171875,-4.75 c 0,-0.15625 -0.125,-0.296875 -0.3125,-0.296875 -0.375,0 -0.46875,0.421875 -0.5,0.5625 z m 0,0"
           id="path5" />
      </g>
    </g>
    <g
       inkscape:label=""
       id="g10"
       transform="translate(94.707609,121.6034)">
      <g
         fill="#000000"
         fill-opacity="1"
         id="g7"
         transform="matrix(0.352778,0,0,0.352778,-0.890499,-0.704982)">
        <g
           id="g6"
           transform="translate(0.63499999,10.514)">
          <path
             d="M 6.390625,-7.140625 C 6.25,-7 5.8125,-6.59375 5.8125,-6.421875 c 0,0.125 0.109375,0.234375 0.21875,0.234375 0.109375,0 0.15625,-0.078125 0.25,-0.203125 0.28125,-0.34375 0.609375,-0.578125 0.875,-0.734375 0.125,-0.078125 0.203125,-0.109375 0.203125,-0.234375 0,-0.109375 -0.09375,-0.171875 -0.15625,-0.234375 C 6.859375,-7.8125 6.78125,-8.140625 6.734375,-8.28125 6.703125,-8.375 6.671875,-8.515625 6.5,-8.515625 c -0.0625,0 -0.21875,0.046875 -0.21875,0.21875 0,0.109375 0.078125,0.390625 0.3125,0.71875 H 2.5625 c -0.203125,0 -0.40625,0 -0.40625,0.234375 0,0.203125 0.21875,0.203125 0.40625,0.203125 z m 0,0"
             id="path6" />
        </g>
      </g>
      <g
         fill="#000000"
         fill-opacity="1"
         id="g9"
         transform="matrix(0.352778,0,0,0.352778,-0.890499,-0.704982)">
        <g
           id="g8"
           transform="translate(1.993,13.668)">
          <path
             d="m 2.765625,-8 c 0,-0.046875 0.03125,-0.109375 0.03125,-0.171875 0,-0.125 -0.125,-0.125 -0.140625,-0.125 -0.015625,0 -0.4375,0.03125 -0.65625,0.0625 -0.203125,0.015625 -0.390625,0.03125 -0.59375,0.046875 -0.296875,0.03125 -0.375,0.03125 -0.375,0.25 0,0.125 0.109375,0.125 0.234375,0.125 0.609375,0 0.609375,0.109375 0.609375,0.21875 0,0.09375 -0.09375,0.4375 -0.140625,0.65625 l -0.28125,1.140625 c -0.125,0.484375 -0.8125,3.1875 -0.859375,3.40625 -0.0625,0.296875 -0.0625,0.5 -0.0625,0.65625 0,1.21875 0.6875,1.859375 1.46875,1.859375 1.375,0 2.8125,-1.78125 2.8125,-3.515625 0,-1.109375 -0.609375,-1.875 -1.515625,-1.875 -0.625,0 -1.1875,0.515625 -1.40625,0.75 z m -0.75,7.875 c -0.390625,0 -0.8125,-0.28125 -0.8125,-1.21875 0,-0.390625 0.046875,-0.609375 0.25,-1.453125 C 1.5,-2.953125 1.6875,-3.71875 1.734375,-3.875 1.75,-3.96875 2.46875,-5.03125 3.28125,-5.03125 c 0.515625,0 0.765625,0.53125 0.765625,1.140625 0,0.578125 -0.34375,1.9375 -0.640625,2.546875 C 3.109375,-0.6875 2.5625,-0.125 2.015625,-0.125 Z m 0,0"
             id="path7" />
        </g>
      </g>
    </g>
    <g
       inkscape:label=""
       id="g15"
       transform="translate(82.378273,119.95948)">
      <g
         fill="#000000"
         fill-opacity="1"
         id="g12"
         transform="matrix(0.352778,0,0,0.352778,-0.873844,-0.704629)">
        <g
           id="g11"
           transform="translate(1.316,10.513)">
          <path
             d="M 6.390625,-7.140625 C 6.25,-7 5.8125,-6.59375 5.8125,-6.421875 c 0,0.125 0.109375,0.234375 0.21875,0.234375 0.109375,0 0.15625,-0.078125 0.25,-0.203125 0.28125,-0.34375 0.609375,-0.578125 0.875,-0.734375 0.125,-0.078125 0.203125,-0.109375 0.203125,-0.234375 0,-0.109375 -0.09375,-0.171875 -0.15625,-0.234375 C 6.859375,-7.8125 6.78125,-8.140625 6.734375,-8.28125 6.703125,-8.375 6.671875,-8.515625 6.5,-8.515625 c -0.0625,0 -0.21875,0.046875 -0.21875,0.21875 0,0.109375 0.078125,0.390625 0.3125,0.71875 H 2.5625 c -0.203125,0 -0.40625,0 -0.40625,0.234375 0,0.203125 0.21875,0.203125 0.40625,0.203125 z m 0,0"
             id="path10" />
        </g>
      </g>
      <g
         fill="#000000"
         fill-opacity="1"
         id="g14"
         transform="matrix(0.352778,0,0,0.352778,-0.873844,-0.704629)">
        <g
           id="g13"
           transform="translate(1.992664,10.513)">
          <path
             d="m 4.671875,-4.5 c -0.21875,0 -0.328125,0 -0.5,0.15625 -0.078125,0.046875 -0.203125,0.234375 -0.203125,0.421875 0,0.234375 0.171875,0.390625 0.40625,0.390625 0.28125,0 0.609375,-0.25 0.609375,-0.71875 0,-0.578125 -0.546875,-1.015625 -1.375,-1.015625 -1.5625,0 -3.125,1.703125 -3.125,3.40625 C 0.484375,-0.828125 1.125,0.125 2.34375,0.125 3.96875,0.125 5,-1.140625 5,-1.296875 5,-1.375 4.921875,-1.4375 4.875,-1.4375 c -0.03125,0 -0.046875,0.015625 -0.15625,0.125 -0.765625,1.015625 -1.890625,1.1875 -2.359375,1.1875 -0.8125,0 -1.078125,-0.71875 -1.078125,-1.3125 0,-0.421875 0.203125,-1.578125 0.625,-2.390625 0.3125,-0.5625 0.96875,-1.203125 1.71875,-1.203125 0.15625,0 0.8125,0.015625 1.046875,0.53125 z m 0,0"
             id="path12" />
        </g>
      </g>
    </g>
    <g
       fill="#000000"
       fill-opacity="1"
       id="g19"
       transform="matrix(0.352778,0,0,0.352778,116.02705,135.146)">
      <g
         id="g18"
         transform="translate(1.219,10.513)">
        <path
           d="M 6.390625,-7.140625 C 6.25,-7 5.8125,-6.59375 5.8125,-6.421875 c 0,0.125 0.109375,0.234375 0.21875,0.234375 0.109375,0 0.15625,-0.078125 0.25,-0.203125 0.28125,-0.34375 0.609375,-0.578125 0.875,-0.734375 0.125,-0.078125 0.203125,-0.109375 0.203125,-0.234375 0,-0.109375 -0.09375,-0.171875 -0.15625,-0.234375 C 6.859375,-7.8125 6.78125,-8.140625 6.734375,-8.28125 6.703125,-8.375 6.671875,-8.515625 6.5,-8.515625 c -0.0625,0 -0.21875,0.046875 -0.21875,0.21875 0,0.109375 0.078125,0.390625 0.3125,0.71875 H 2.5625 c -0.203125,0 -0.40625,0 -0.40625,0.234375 0,0.203125 0.21875,0.203125 0.40625,0.203125 z m 0,0"
           id="path18" />
      </g>
    </g>
    <g
       fill="#000000"
       fill-opacity="1"
       id="g21"
       transform="matrix(0.352778,0,0,0.352778,116.02705,135.146)">
      <g
         id="g20"
         transform="translate(1.9913059,10.513)">
        <path
           d="M 3.59375,-1.421875 C 3.53125,-1.21875 3.53125,-1.1875 3.375,-0.96875 3.109375,-0.640625 2.578125,-0.125 2.015625,-0.125 1.53125,-0.125 1.25,-0.5625 1.25,-1.265625 c 0,-0.65625 0.375,-2 0.609375,-2.5 0.40625,-0.84375 0.96875,-1.265625 1.421875,-1.265625 0.796875,0 0.953125,0.984375 0.953125,1.078125 0,0.015625 -0.03125,0.15625 -0.046875,0.1875 z m 0.765625,-3.0625 c -0.125,-0.3125 -0.453125,-0.78125 -1.078125,-0.78125 -1.34375,0 -2.796875,1.734375 -2.796875,3.515625 0,1.171875 0.6875,1.875 1.5,1.875 0.65625,0 1.21875,-0.515625 1.546875,-0.90625 0.125,0.703125 0.6875,0.90625 1.046875,0.90625 0.359375,0 0.640625,-0.21875 0.859375,-0.65625 0.1875,-0.40625 0.359375,-1.125 0.359375,-1.171875 0,-0.0625 -0.046875,-0.109375 -0.125,-0.109375 C 5.5625,-1.8125 5.5625,-1.75 5.515625,-1.578125 5.328125,-0.875 5.109375,-0.125 4.609375,-0.125 4.265625,-0.125 4.25,-0.4375 4.25,-0.671875 c 0,-0.265625 0.03125,-0.40625 0.140625,-0.875 C 4.46875,-1.84375 4.53125,-2.109375 4.625,-2.453125 5.0625,-4.25 5.171875,-4.671875 5.171875,-4.75 c 0,-0.15625 -0.125,-0.296875 -0.3125,-0.296875 -0.375,0 -0.46875,0.421875 -0.5,0.5625 z m 0,0"
           id="path19" />
      </g>
    </g>
    <g
       inkscape:label=""
       id="g26"
       transform="translate(106.21498,128.45303)">
      <g
         fill="#000000"
         fill-opacity="1"
         id="g23"
         transform="matrix(0.352778,0,0,0.352778,-0.890499,-0.704982)">
        <g
           id="g22"
           transform="translate(0.63499999,10.514)">
          <path
             d="M 6.390625,-7.140625 C 6.25,-7 5.8125,-6.59375 5.8125,-6.421875 c 0,0.125 0.109375,0.234375 0.21875,0.234375 0.109375,0 0.15625,-0.078125 0.25,-0.203125 0.28125,-0.34375 0.609375,-0.578125 0.875,-0.734375 0.125,-0.078125 0.203125,-0.109375 0.203125,-0.234375 0,-0.109375 -0.09375,-0.171875 -0.15625,-0.234375 C 6.859375,-7.8125 6.78125,-8.140625 6.734375,-8.28125 6.703125,-8.375 6.671875,-8.515625 6.5,-8.515625 c -0.0625,0 -0.21875,0.046875 -0.21875,0.21875 0,0.109375 0.078125,0.390625 0.3125,0.71875 H 2.5625 c -0.203125,0 -0.40625,0 -0.40625,0.234375 0,0.203125 0.21875,0.203125 0.40625,0.203125 z m 0,0"
             id="path21" />
        </g>
      </g>
      <g
         fill="#000000"
         fill-opacity="1"
         id="g25"
         transform="matrix(0.352778,0,0,0.352778,-0.890499,-0.704982)">
        <g
           id="g24"
           transform="translate(1.993,13.668)">
          <path
             d="m 2.765625,-8 c 0,-0.046875 0.03125,-0.109375 0.03125,-0.171875 0,-0.125 -0.125,-0.125 -0.140625,-0.125 -0.015625,0 -0.4375,0.03125 -0.65625,0.0625 -0.203125,0.015625 -0.390625,0.03125 -0.59375,0.046875 -0.296875,0.03125 -0.375,0.03125 -0.375,0.25 0,0.125 0.109375,0.125 0.234375,0.125 0.609375,0 0.609375,0.109375 0.609375,0.21875 0,0.09375 -0.09375,0.4375 -0.140625,0.65625 l -0.28125,1.140625 c -0.125,0.484375 -0.8125,3.1875 -0.859375,3.40625 -0.0625,0.296875 -0.0625,0.5 -0.0625,0.65625 0,1.21875 0.6875,1.859375 1.46875,1.859375 1.375,0 2.8125,-1.78125 2.8125,-3.515625 0,-1.109375 -0.609375,-1.875 -1.515625,-1.875 -0.625,0 -1.1875,0.515625 -1.40625,0.75 z m -0.75,7.875 c -0.390625,0 -0.8125,-0.28125 -0.8125,-1.21875 0,-0.390625 0.046875,-0.609375 0.25,-1.453125 C 1.5,-2.953125 1.6875,-3.71875 1.734375,-3.875 1.75,-3.96875 2.46875,-5.03125 3.28125,-5.03125 c 0.515625,0 0.765625,0.53125 0.765625,1.140625 0,0.578125 -0.34375,1.9375 -0.640625,2.546875 C 3.109375,-0.6875 2.5625,-0.125 2.015625,-0.125 Z m 0,0"
             id="path23" />
        </g>
      </g>
    </g>
    <g
       inkscape:label=""
       id="g31"
       transform="translate(114.61721,122.15137)">
      <g
         fill="#000000"
         fill-opacity="1"
         id="g28"
         transform="matrix(0.352778,0,0,0.352778,-0.873844,-0.704629)">
        <g
           id="g27"
           transform="translate(1.316,10.513)">
          <path
             d="M 6.390625,-7.140625 C 6.25,-7 5.8125,-6.59375 5.8125,-6.421875 c 0,0.125 0.109375,0.234375 0.21875,0.234375 0.109375,0 0.15625,-0.078125 0.25,-0.203125 0.28125,-0.34375 0.609375,-0.578125 0.875,-0.734375 0.125,-0.078125 0.203125,-0.109375 0.203125,-0.234375 0,-0.109375 -0.09375,-0.171875 -0.15625,-0.234375 C 6.859375,-7.8125 6.78125,-8.140625 6.734375,-8.28125 6.703125,-8.375 6.671875,-8.515625 6.5,-8.515625 c -0.0625,0 -0.21875,0.046875 -0.21875,0.21875 0,0.109375 0.078125,0.390625 0.3125,0.71875 H 2.5625 c -0.203125,0 -0.40625,0 -0.40625,0.234375 0,0.203125 0.21875,0.203125 0.40625,0.203125 z m 0,0"
             id="path26" />
        </g>
      </g>
      <g
         fill="#000000"
         fill-opacity="1"
         id="g30"
         transform="matrix(0.352778,0,0,0.352778,-0.873844,-0.704629)">
        <g
           id="g29"
           transform="translate(1.992664,10.513)">
          <path
             d="m 4.671875,-4.5 c -0.21875,0 -0.328125,0 -0.5,0.15625 -0.078125,0.046875 -0.203125,0.234375 -0.203125,0.421875 0,0.234375 0.171875,0.390625 0.40625,0.390625 0.28125,0 0.609375,-0.25 0.609375,-0.71875 0,-0.578125 -0.546875,-1.015625 -1.375,-1.015625 -1.5625,0 -3.125,1.703125 -3.125,3.40625 C 0.484375,-0.828125 1.125,0.125 2.34375,0.125 3.96875,0.125 5,-1.140625 5,-1.296875 5,-1.375 4.921875,-1.4375 4.875,-1.4375 c -0.03125,0 -0.046875,0.015625 -0.15625,0.125 -0.765625,1.015625 -1.890625,1.1875 -2.359375,1.1875 -0.8125,0 -1.078125,-0.71875 -1.078125,-1.3125 0,-0.421875 0.203125,-1.578125 0.625,-2.390625 0.3125,-0.5625 0.96875,-1.203125 1.71875,-1.203125 0.15625,0 0.8125,0.015625 1.046875,0.53125 z m 0,0"
             id="path28" />
        </g>
      </g>
    </g>
    <path
       style="fill:none;stroke:#ff0000;stroke-width:0.6;stroke-dasharray:none;marker-end:url(#Triangle)"
       d="m 108.40683,141.01107 14.42988,-9.86347"
       id="path15" />
    <path
       style="fill:none;stroke:#0000ff;stroke-width:0.600001;stroke-dasharray:1.2, 0.600001, 0.3, 0.600001;stroke-dashoffset:0;marker-end:url(#Triangle)"
       d="m 124.29797,130.05166 2.19188,-19.72694"
       id="path16" />
    <path
       style="fill:none;stroke:#000000;stroke-width:0.600001;stroke-dasharray:none;marker-end:url(#Triangle)"
       d="M 108.68081,140.64576 125.6679,110.14207"
       id="path17"
       sodipodi:nodetypes="cc" />
    <path
       style="fill:none;stroke:#0000ff;stroke-width:0.600001;stroke-dasharray:none;marker-end:url(#Triangle)"
       d="m 108.3155,141.1024 2.19188,-19.72694"
       id="path31" />
    <path
       style="fill:none;stroke:#000000;stroke-width:0.3;stroke-dasharray:0.599999, 0.3, 0.15, 0.3;stroke-dashoffset:0"
       d="m 110.50738,119.54889 16.16513,-11.32472"
       id="path32" />
    <g
       inkscape:label=""
       transform="translate(94.159424,143.79626)"
       id="g40">
      <g
         fill="#000000"
         fill-opacity="1"
         id="g32"
         transform="matrix(0.352778,0,0,0.352778,-0.873844,-0.704629)">
        <g
           id="use6"
           transform="translate(1.316,13.668)">
          <path
             d="M 6.390625,-7.140625 C 6.25,-7 5.8125,-6.59375 5.8125,-6.421875 c 0,0.125 0.109375,0.234375 0.21875,0.234375 0.109375,0 0.15625,-0.078125 0.25,-0.203125 0.28125,-0.34375 0.609375,-0.578125 0.875,-0.734375 0.125,-0.078125 0.203125,-0.109375 0.203125,-0.234375 0,-0.109375 -0.09375,-0.171875 -0.15625,-0.234375 C 6.859375,-7.8125 6.78125,-8.140625 6.734375,-8.28125 6.703125,-8.375 6.671875,-8.515625 6.5,-8.515625 c -0.0625,0 -0.21875,0.046875 -0.21875,0.21875 0,0.109375 0.078125,0.390625 0.3125,0.71875 H 2.5625 c -0.203125,0 -0.40625,0 -0.40625,0.234375 0,0.203125 0.21875,0.203125 0.40625,0.203125 z m 0,0"
             id="path14" />
        </g>
      </g>
      <g
         fill="#000000"
         fill-opacity="1"
         id="g33"
         transform="matrix(0.352778,0,0,0.352778,-0.873844,-0.704629)">
        <g
           id="use7"
           transform="translate(1.992664,13.668)">
          <path
             d="m 4.671875,-4.5 c -0.21875,0 -0.328125,0 -0.5,0.15625 -0.078125,0.046875 -0.203125,0.234375 -0.203125,0.421875 0,0.234375 0.171875,0.390625 0.40625,0.390625 0.28125,0 0.609375,-0.25 0.609375,-0.71875 0,-0.578125 -0.546875,-1.015625 -1.375,-1.015625 -1.5625,0 -3.125,1.703125 -3.125,3.40625 C 0.484375,-0.828125 1.125,0.125 2.34375,0.125 3.96875,0.125 5,-1.140625 5,-1.296875 5,-1.375 4.921875,-1.4375 4.875,-1.4375 c -0.03125,0 -0.046875,0.015625 -0.15625,0.125 -0.765625,1.015625 -1.890625,1.1875 -2.359375,1.1875 -0.8125,0 -1.078125,-0.71875 -1.078125,-1.3125 0,-0.421875 0.203125,-1.578125 0.625,-2.390625 0.3125,-0.5625 0.96875,-1.203125 1.71875,-1.203125 0.15625,0 0.8125,0.015625 1.046875,0.53125 z m 0,0"
             id="path33" />
        </g>
      </g>
      <g
         fill="#000000"
         fill-opacity="1"
         id="g34"
         transform="matrix(0.352778,0,0,0.352778,-0.873844,-0.704629)">
        <g
           id="use8"
           transform="translate(10.351,13.668)">
          <path
             d="m 8.0625,-3.875 c 0.171875,0 0.390625,0 0.390625,-0.21875 C 8.453125,-4.3125 8.25,-4.3125 8.0625,-4.3125 H 1.03125 c -0.171875,0 -0.390625,0 -0.390625,0.21875 0,0.21875 0.203125,0.21875 0.390625,0.21875 z m 0,2.21875 c 0.171875,0 0.390625,0 0.390625,-0.203125 C 8.453125,-2.09375 8.25,-2.09375 8.0625,-2.09375 H 1.03125 c -0.171875,0 -0.390625,0 -0.390625,0.21875 0,0.21875 0.203125,0.21875 0.390625,0.21875 z m 0,0"
             id="path34" />
        </g>
      </g>
      <g
         fill="#000000"
         fill-opacity="1"
         id="g35"
         transform="matrix(0.352778,0,0,0.352778,-0.873844,-0.704629)">
        <g
           id="use9"
           transform="translate(22.003,13.668)">
          <path
             d="M 6.390625,-7.140625 C 6.25,-7 5.8125,-6.59375 5.8125,-6.421875 c 0,0.125 0.109375,0.234375 0.21875,0.234375 0.109375,0 0.15625,-0.078125 0.25,-0.203125 0.28125,-0.34375 0.609375,-0.578125 0.875,-0.734375 0.125,-0.078125 0.203125,-0.109375 0.203125,-0.234375 0,-0.109375 -0.09375,-0.171875 -0.15625,-0.234375 C 6.859375,-7.8125 6.78125,-8.140625 6.734375,-8.28125 6.703125,-8.375 6.671875,-8.515625 6.5,-8.515625 c -0.0625,0 -0.21875,0.046875 -0.21875,0.21875 0,0.109375 0.078125,0.390625 0.3125,0.71875 H 2.5625 c -0.203125,0 -0.40625,0 -0.40625,0.234375 0,0.203125 0.21875,0.203125 0.40625,0.203125 z m 0,0"
             id="path35" />
        </g>
      </g>
      <g
         fill="#000000"
         fill-opacity="1"
         id="g36"
         transform="matrix(0.352778,0,0,0.352778,-0.873844,-0.704629)">
        <g
           id="use10"
           transform="translate(22.775307,13.668)">
          <path
             d="M 3.59375,-1.421875 C 3.53125,-1.21875 3.53125,-1.1875 3.375,-0.96875 3.109375,-0.640625 2.578125,-0.125 2.015625,-0.125 1.53125,-0.125 1.25,-0.5625 1.25,-1.265625 c 0,-0.65625 0.375,-2 0.609375,-2.5 0.40625,-0.84375 0.96875,-1.265625 1.421875,-1.265625 0.796875,0 0.953125,0.984375 0.953125,1.078125 0,0.015625 -0.03125,0.15625 -0.046875,0.1875 z m 0.765625,-3.0625 c -0.125,-0.3125 -0.453125,-0.78125 -1.078125,-0.78125 -1.34375,0 -2.796875,1.734375 -2.796875,3.515625 0,1.171875 0.6875,1.875 1.5,1.875 0.65625,0 1.21875,-0.515625 1.546875,-0.90625 0.125,0.703125 0.6875,0.90625 1.046875,0.90625 0.359375,0 0.640625,-0.21875 0.859375,-0.65625 0.1875,-0.40625 0.359375,-1.125 0.359375,-1.171875 0,-0.0625 -0.046875,-0.109375 -0.125,-0.109375 C 5.5625,-1.8125 5.5625,-1.75 5.515625,-1.578125 5.328125,-0.875 5.109375,-0.125 4.609375,-0.125 4.265625,-0.125 4.25,-0.4375 4.25,-0.671875 c 0,-0.265625 0.03125,-0.40625 0.140625,-0.875 C 4.46875,-1.84375 4.53125,-2.109375 4.625,-2.453125 5.0625,-4.25 5.171875,-4.671875 5.171875,-4.75 c 0,-0.15625 -0.125,-0.296875 -0.3125,-0.296875 -0.375,0 -0.46875,0.421875 -0.5,0.5625 z m 0,0"
             id="path36" />
        </g>
      </g>
      <g
         fill="#000000"
         fill-opacity="1"
         id="g37"
         transform="matrix(0.352778,0,0,0.352778,-0.873844,-0.704629)">
        <g
           id="use11"
           transform="translate(31.577999,13.668)">
          <path
             d="M 4.765625,-2.765625 H 8.0625 c 0.171875,0 0.390625,0 0.390625,-0.203125 0,-0.234375 -0.203125,-0.234375 -0.390625,-0.234375 H 4.765625 V -6.5 c 0,-0.171875 0,-0.390625 -0.21875,-0.390625 -0.21875,0 -0.21875,0.203125 -0.21875,0.390625 v 3.296875 H 1.03125 c -0.171875,0 -0.390625,0 -0.390625,0.21875 0,0.21875 0.203125,0.21875 0.390625,0.21875 H 4.328125 V 0.53125 c 0,0.171875 0,0.390625 0.21875,0.390625 0.21875,0 0.21875,-0.203125 0.21875,-0.390625 z m 0,0"
             id="path37" />
        </g>
      </g>
      <g
         fill="#000000"
         fill-opacity="1"
         id="g38"
         transform="matrix(0.352778,0,0,0.352778,-0.873844,-0.704629)">
        <g
           id="use12"
           transform="translate(41.981998,10.513)">
          <path
             d="M 6.390625,-7.140625 C 6.25,-7 5.8125,-6.59375 5.8125,-6.421875 c 0,0.125 0.109375,0.234375 0.21875,0.234375 0.109375,0 0.15625,-0.078125 0.25,-0.203125 0.28125,-0.34375 0.609375,-0.578125 0.875,-0.734375 0.125,-0.078125 0.203125,-0.109375 0.203125,-0.234375 0,-0.109375 -0.09375,-0.171875 -0.15625,-0.234375 C 6.859375,-7.8125 6.78125,-8.140625 6.734375,-8.28125 6.703125,-8.375 6.671875,-8.515625 6.5,-8.515625 c -0.0625,0 -0.21875,0.046875 -0.21875,0.21875 0,0.109375 0.078125,0.390625 0.3125,0.71875 H 2.5625 c -0.203125,0 -0.40625,0 -0.40625,0.234375 0,0.203125 0.21875,0.203125 0.40625,0.203125 z m 0,0"
             id="path20" />
        </g>
      </g>
      <g
         fill="#000000"
         fill-opacity="1"
         id="g39"
         transform="matrix(0.352778,0,0,0.352778,-0.873844,-0.704629)">
        <g
           id="use13"
           transform="translate(43.34,13.668)">
          <path
             d="m 2.765625,-8 c 0,-0.046875 0.03125,-0.109375 0.03125,-0.171875 0,-0.125 -0.125,-0.125 -0.140625,-0.125 -0.015625,0 -0.4375,0.03125 -0.65625,0.0625 -0.203125,0.015625 -0.390625,0.03125 -0.59375,0.046875 -0.296875,0.03125 -0.375,0.03125 -0.375,0.25 0,0.125 0.109375,0.125 0.234375,0.125 0.609375,0 0.609375,0.109375 0.609375,0.21875 0,0.09375 -0.09375,0.4375 -0.140625,0.65625 l -0.28125,1.140625 c -0.125,0.484375 -0.8125,3.1875 -0.859375,3.40625 -0.0625,0.296875 -0.0625,0.5 -0.0625,0.65625 0,1.21875 0.6875,1.859375 1.46875,1.859375 1.375,0 2.8125,-1.78125 2.8125,-3.515625 0,-1.109375 -0.609375,-1.875 -1.515625,-1.875 -0.625,0 -1.1875,0.515625 -1.40625,0.75 z m -0.75,7.875 c -0.390625,0 -0.8125,-0.28125 -0.8125,-1.21875 0,-0.390625 0.046875,-0.609375 0.25,-1.453125 C 1.5,-2.953125 1.6875,-3.71875 1.734375,-3.875 1.75,-3.96875 2.46875,-5.03125 3.28125,-5.03125 c 0.515625,0 0.765625,0.53125 0.765625,1.140625 0,0.578125 -0.34375,1.9375 -0.640625,2.546875 C 3.109375,-0.6875 2.5625,-0.125 2.015625,-0.125 Z m 0,0"
             id="path38" />
        </g>
      </g>
    </g>
    <rect
       style="fill:none;stroke:none;stroke-width:0.3;stroke-dasharray:none;stroke-dashoffset:0"
       id="rect40"
       width="61.372692"
       height="49.226009"
       x="71.418816"
       y="103.93173" />
  </g>
</svg>
