<?xml version="1.0" encoding="UTF-8" standalone="no"?>
<!-- Created with Inkscape (http://www.inkscape.org/) -->

<svg
   width="119.72031mm"
   height="92.854134mm"
   viewBox="0 0 119.72031 92.854134"
   version="1.1"
   id="svg5"
   inkscape:version="1.3.2 (091e20e, 2023-11-25, custom)"
   sodipodi:docname="trajetoria1.svg"
   inkscape:export-filename="trajetoria1.png"
   inkscape:export-xdpi="300"
   inkscape:export-ydpi="300"
   xmlns:inkscape="http://www.inkscape.org/namespaces/inkscape"
   xmlns:sodipodi="http://sodipodi.sourceforge.net/DTD/sodipodi-0.dtd"
   xmlns="http://www.w3.org/2000/svg"
   xmlns:svg="http://www.w3.org/2000/svg">
  <sodipodi:namedview
     id="namedview7"
     pagecolor="#ffffff"
     bordercolor="#999999"
     borderopacity="1"
     inkscape:pageshadow="0"
     inkscape:pageopacity="0"
     inkscape:pagecheckerboard="0"
     inkscape:document-units="mm"
     showgrid="false"
     inkscape:zoom="1.9510909"
     inkscape:cx="210.13885"
     inkscape:cy="199.11937"
     inkscape:window-width="1920"
     inkscape:window-height="1009"
     inkscape:window-x="-8"
     inkscape:window-y="-8"
     inkscape:window-maximized="1"
     inkscape:current-layer="layer1"
     inkscape:snap-others="true"
     inkscape:snap-nodes="true"
     inkscape:showpageshadow="2"
     inkscape:deskcolor="#d1d1d1"
     inkscape:export-bgcolor="#ffffffff" />
  <defs
     id="defs2">
    <marker
       style="overflow:visible"
       id="Triangle"
       refX="0"
       refY="0"
       orient="auto-start-reverse"
       inkscape:stockid="Triangle arrow"
       markerWidth="1"
       markerHeight="1"
       viewBox="0 0 1 1"
       inkscape:isstock="true"
       inkscape:collect="always"
       preserveAspectRatio="xMidYMid">
      <path
         transform="scale(0.5)"
         style="fill:context-stroke;fill-rule:evenodd;stroke:context-stroke;stroke-width:1pt"
         d="M 5.77,0 -2.88,5 V -5 Z"
         id="path135" />
    </marker>
    <inkscape:path-effect
       effect="spiro"
       id="path-effect51528"
       is_visible="true"
       lpeversion="1" />
    <inkscape:path-effect
       effect="simplify"
       id="path-effect51524"
       is_visible="true"
       lpeversion="1"
       steps="1"
       threshold="0.00243902"
       smooth_angles="360"
       helper_size="0"
       simplify_individual_paths="false"
       simplify_just_coalesce="false" />
    <inkscape:path-effect
       effect="spiro"
       id="path-effect51514"
       is_visible="true"
       lpeversion="1" />
    <inkscape:path-effect
       effect="simplify"
       id="path-effect51510"
       is_visible="true"
       lpeversion="1"
       steps="1"
       threshold="0.00243902"
       smooth_angles="360"
       helper_size="0"
       simplify_individual_paths="false"
       simplify_just_coalesce="false" />
    <inkscape:path-effect
       effect="spiro"
       id="path-effect51023"
       is_visible="true"
       lpeversion="1" />
    <inkscape:path-effect
       effect="simplify"
       id="path-effect51021"
       is_visible="true"
       lpeversion="1"
       steps="1"
       threshold="0.00243902"
       smooth_angles="360"
       helper_size="0"
       simplify_individual_paths="false"
       simplify_just_coalesce="false" />
    <inkscape:path-effect
       effect="simplify"
       id="path-effect51015"
       is_visible="true"
       lpeversion="1"
       steps="1"
       threshold="0.00243902"
       smooth_angles="360"
       helper_size="0"
       simplify_individual_paths="false"
       simplify_just_coalesce="false" />
    <inkscape:path-effect
       effect="simplify"
       id="path-effect1469"
       is_visible="true"
       lpeversion="1"
       steps="1"
       threshold="0.00243902"
       smooth_angles="360"
       helper_size="0"
       simplify_individual_paths="false"
       simplify_just_coalesce="false" />
    <inkscape:path-effect
       effect="simplify"
       id="path-effect1463"
       is_visible="true"
       lpeversion="1"
       steps="1"
       threshold="0.00243902"
       smooth_angles="360"
       helper_size="0"
       simplify_individual_paths="false"
       simplify_just_coalesce="false" />
    <inkscape:path-effect
       effect="spiro"
       id="path-effect1459"
       is_visible="true"
       lpeversion="1" />
    <inkscape:path-effect
       effect="simplify"
       id="path-effect1457"
       is_visible="true"
       lpeversion="1"
       steps="1"
       threshold="0.00243902"
       smooth_angles="360"
       helper_size="0"
       simplify_individual_paths="false"
       simplify_just_coalesce="false" />
    <inkscape:path-effect
       effect="simplify"
       id="path-effect1451"
       is_visible="true"
       lpeversion="1"
       steps="1"
       threshold="0.00243902"
       smooth_angles="360"
       helper_size="0"
       simplify_individual_paths="false"
       simplify_just_coalesce="false" />
    <inkscape:path-effect
       effect="spiro"
       id="path-effect1447"
       is_visible="true"
       lpeversion="1" />
    <inkscape:path-effect
       effect="simplify"
       id="path-effect1445"
       is_visible="true"
       lpeversion="1"
       steps="1"
       threshold="0.00243902"
       smooth_angles="360"
       helper_size="0"
       simplify_individual_paths="false"
       simplify_just_coalesce="false" />
    <inkscape:path-effect
       effect="spiro"
       id="path-effect1441"
       is_visible="true"
       lpeversion="1" />
    <inkscape:path-effect
       effect="simplify"
       id="path-effect1439"
       is_visible="true"
       lpeversion="1"
       steps="1"
       threshold="0.00243902"
       smooth_angles="360"
       helper_size="0"
       simplify_individual_paths="false"
       simplify_just_coalesce="false" />
    <inkscape:path-effect
       effect="spiro"
       id="path-effect1254"
       is_visible="true"
       lpeversion="1" />
    <inkscape:path-effect
       effect="spiro"
       id="path-effect1250"
       is_visible="true"
       lpeversion="1" />
    <inkscape:path-effect
       effect="spiro"
       id="path-effect1133"
       is_visible="true"
       lpeversion="1" />
    <inkscape:path-effect
       effect="simplify"
       id="path-effect1131"
       is_visible="true"
       lpeversion="1"
       steps="1"
       threshold="0.00243902"
       smooth_angles="360"
       helper_size="0"
       simplify_individual_paths="false"
       simplify_just_coalesce="false" />
    <inkscape:path-effect
       effect="simplify"
       id="path-effect1125"
       is_visible="true"
       lpeversion="1"
       steps="1"
       threshold="0.00243902"
       smooth_angles="360"
       helper_size="0"
       simplify_individual_paths="false"
       simplify_just_coalesce="false" />
    <inkscape:path-effect
       effect="simplify"
       id="path-effect1119"
       is_visible="true"
       lpeversion="1"
       steps="1"
       threshold="0.00243902"
       smooth_angles="360"
       helper_size="0"
       simplify_individual_paths="false"
       simplify_just_coalesce="false" />
    <inkscape:path-effect
       effect="simplify"
       id="path-effect1113"
       is_visible="true"
       lpeversion="1"
       steps="1"
       threshold="0.00243902"
       smooth_angles="360"
       helper_size="0"
       simplify_individual_paths="false"
       simplify_just_coalesce="false" />
    <inkscape:path-effect
       effect="spiro"
       id="path-effect906"
       is_visible="true"
       lpeversion="1" />
    <inkscape:path-effect
       effect="spiro"
       id="path-effect902"
       is_visible="true"
       lpeversion="1" />
    <inkscape:path-effect
       effect="spiro"
       id="path-effect898"
       is_visible="true"
       lpeversion="1" />
    <inkscape:path-effect
       effect="simplify"
       id="path-effect859"
       is_visible="true"
       lpeversion="1"
       steps="1"
       threshold="0.00243902"
       smooth_angles="360"
       helper_size="0"
       simplify_individual_paths="false"
       simplify_just_coalesce="false" />
    <marker
       style="overflow:visible"
       id="marker2416"
       refX="0"
       refY="0"
       orient="auto"
       inkscape:stockid="Arrow1Lend"
       inkscape:isstock="true">
      <path
         transform="matrix(-0.8,0,0,-0.8,-10,0)"
         style="fill:#ff0000;fill-opacity:1;fill-rule:evenodd;stroke:#ff0000;stroke-width:1pt;stroke-opacity:1"
         d="M 0,0 5,-5 -12.5,0 5,5 Z"
         id="path2414" />
    </marker>
    <filter
       inkscape:collect="always"
       style="color-interpolation-filters:sRGB"
       id="filter2408"
       x="-0.19294295"
       width="1.3858859"
       y="-0.19294295"
       height="1.3858859">
      <feGaussianBlur
         inkscape:collect="always"
         stdDeviation="0.52308203"
         id="feGaussianBlur2410" />
    </filter>
    <clipPath
       id="clipPath4011">
      <path
         clip-rule="nonzero"
         d="M 6,1 H 16.164062 V 7 H 6 Z m 0,0"
         id="path3811" />
    </clipPath>
  </defs>
  <g
     inkscape:label="Camada 1"
     inkscape:groupmode="layer"
     id="layer1"
     transform="translate(-13.4959, -78.8641)">
    <path
       style="fill:none;stroke:#0000ff;stroke-width:0.3;stroke-linecap:butt;stroke-linejoin:miter;stroke-miterlimit:4;stroke-dasharray:none;stroke-opacity:1"
       d="M 54.189606,148.02165 V 78.864083"
       id="path896"
       inkscape:path-effect="#path-effect898"
       inkscape:original-d="m 54.189606,148.02165 c 2.64e-4,-23.05226 2.64e-4,-46.10478 0,-69.157567" />
    <path
       style="fill:none;stroke:#00ff00;stroke-width:0.3;stroke-linecap:butt;stroke-linejoin:miter;stroke-miterlimit:4;stroke-dasharray:none;stroke-opacity:1"
       d="M 54.189606,148.02165 H 124.0918"
       id="path900"
       inkscape:path-effect="#path-effect902"
       inkscape:original-d="m 54.189606,148.02165 c 23.300996,2.6e-4 46.601724,2.6e-4 69.902194,0" />
    <path
       style="fill:none;stroke:#ff0000;stroke-width:0.3;stroke-linecap:butt;stroke-linejoin:miter;stroke-miterlimit:4;stroke-dasharray:none;stroke-opacity:1"
       d="M 54.189606,148.02165 13.670944,171.41511"
       id="path904"
       inkscape:path-effect="#path-effect906"
       inkscape:original-d="m 54.189606,148.02165 c -13.505956,7.79808 -27.012178,15.5959 -40.518662,23.39346" />
    <path
       style="fill:none;stroke:#000000;stroke-width:0.7;stroke-linecap:butt;stroke-linejoin:miter;stroke-miterlimit:4;stroke-dasharray:2.1, 2.1;stroke-dashoffset:0;stroke-opacity:1"
       d="m 44.815963,102.2182 c 0.952649,-1.71063 2.356232,-3.167497 4.030198,-4.183192 1.673967,-1.015694 3.614372,-1.587823 5.571609,-1.642792 3.135205,-0.08805 6.204409,1.140684 8.756593,2.963764 2.349351,1.67819 4.304472,3.83665 6.318751,5.9051 2.014278,2.06844 4.145858,4.09169 6.717215,5.40467 2.424952,1.23821 5.17836,1.79585 7.899662,1.7059 2.110183,-0.0697 4.18701,-0.5178 6.279605,-0.79848 2.092596,-0.28068 4.257476,-0.38899 6.283209,0.20611 1.858047,0.54584 3.518795,1.67024 4.843315,3.08301 1.70349,1.817 2.86222,4.0834 4.52266,5.93983 1.66703,1.8638 3.81514,3.27303 6.14368,4.18444 2.32854,0.91142 4.83435,1.33368 7.33465,1.36983 4.74457,0.0686 9.50083,-1.26787 13.51529,-3.79765"
       id="path1129"
       inkscape:path-effect="#path-effect1131;#path-effect1133"
       inkscape:original-d="m 44.815963,102.2182 c 15.666487,-16.300082 22.600343,5.95396 33.988108,9.61985 6.678249,2.14983 14.238596,-2.70643 20.628035,1.06331 2.423174,1.42967 3.718894,4.97221 5.666734,6.98034 7.93046,8.17588 18.21111,8.07847 27.93356,2.67704" />
    <path
       style="fill:#0000ff;stroke:#0000ff;stroke-width:0.7;stroke-linecap:butt;stroke-linejoin:miter;stroke-miterlimit:4;stroke-dasharray:none;stroke-opacity:1;marker-end:url(#Triangle)"
       d="M 54.189606,148.02165 83.455774,116.37177"
       id="path1248"
       inkscape:path-effect="#path-effect1250"
       inkscape:original-d="m 54.189606,148.02165 c 10.930921,-11.54416 18.335776,-20.1052 29.266168,-31.64988"
       sodipodi:nodetypes="cc" />
    <path
       style="fill:none;stroke:#000000;stroke-width:0.7;stroke-linecap:butt;stroke-linejoin:miter;stroke-miterlimit:4;stroke-dasharray:none;stroke-opacity:1"
       d="M 86.981577,113.3884 Z"
       id="path1260" />
    <g
       id="g916"
       transform="matrix(0.54652988,0,0,0.54652988,12.801484,49.816211)">
      <circle
         style="opacity:1;mix-blend-mode:normal;fill:#000000;stroke:#000000;stroke-width:0.170779"
         id="path1649"
         cx="135.97427"
         cy="113.54485"
         r="7.4015002" />
      <circle
         style="opacity:1;fill:#ffffff;stroke:#000000;stroke-width:0.118401;filter:url(#filter2408)"
         id="path1651"
         cx="138.57416"
         cy="110.38313"
         r="3.4066997" />
    </g>
    <g
       inkscape:label=""
       transform="translate(86.995406,100.08691)"
       id="g1">
      <g
         fill="#000000"
         fill-opacity="1"
         id="g2"
         transform="matrix(0.352778,0,0,0.352778,-1.1165,-0.708422)">
        <g
           id="use1"
           transform="translate(1.993,18.93)">
          <path
             d="M 7.328125,-7.875 H 11.5 c 3.421875,0 6.84375,-2.53125 6.84375,-5.359375 0,-1.9375 -1.640625,-3.6875 -4.765625,-3.6875 h -7.65625 c -0.46875,0 -0.6875,0 -0.6875,0.46875 0,0.25 0.21875,0.25 0.59375,0.25 1.5,0 1.5,0.1875 1.5,0.46875 0,0.04687 0,0.203125 -0.09375,0.5625 l -3.34375,13.34375 c -0.21875,0.859375 -0.265625,1.109375 -2,1.109375 -0.484375,0 -0.71875,0 -0.71875,0.453125 C 1.171875,0 1.390625,0 1.53125,0 2,0 2.5,-0.046875 2.96875,-0.046875 H 5.875 C 6.34375,-0.046875 6.859375,0 7.328125,0 7.53125,0 7.8125,0 7.8125,-0.46875 c 0,-0.25 -0.234375,-0.25 -0.59375,-0.25 -1.5,0 -1.515625,-0.171875 -1.515625,-0.421875 0,-0.125 0.015625,-0.296875 0.046875,-0.421875 z M 9.125,-15.234375 c 0.21875,-0.921875 0.3125,-0.96875 1.28125,-0.96875 h 2.453125 c 1.859375,0 3.390625,0.59375 3.390625,2.453125 0,0.640625 -0.3125,2.75 -1.453125,3.890625 -0.421875,0.4375 -1.609375,1.390625 -3.875,1.390625 H 7.4375 Z m 0,0"
             id="path2" />
        </g>
      </g>
    </g>
    <g
       inkscape:label=""
       transform="translate(56.890453,81.237412)"
       id="g5">
      <g
         fill="#000000"
         fill-opacity="1"
         id="g4"
         transform="matrix(0.352778,0,0,0.352778,-1.19918,-0.708422)">
        <g
           id="g3"
           transform="translate(1.993,18.93)">
          <path
             d="m 17.34375,-16.15625 c 0.15625,-0.171875 0.28125,-0.328125 0.28125,-0.578125 0,-0.171875 -0.03125,-0.1875 -0.59375,-0.1875 H 6.796875 c -0.578125,0 -0.609375,0.01563 -0.75,0.46875 L 4.6875,-12 c -0.078125,0.25 -0.078125,0.296875 -0.078125,0.359375 0,0.09375 0.078125,0.234375 0.25,0.234375 0.203125,0 0.25,-0.09375 0.34375,-0.421875 0.921875,-2.671875 2.125,-4.375 6.046875,-4.375 h 4.0625 L 1.734375,-0.84375 C 1.515625,-0.5625 1.40625,-0.46875 1.40625,-0.203125 1.40625,0 1.53125,0 2,0 h 10.59375 c 0.5625,0 0.59375,-0.03125 0.734375,-0.46875 L 15.0625,-5.953125 c 0.03125,-0.0625 0.07813,-0.234375 0.07813,-0.34375 0,-0.125 -0.09375,-0.25 -0.25,-0.25 -0.203125,0 -0.21875,0.03125 -0.421875,0.65625 -1.03125,3.1875 -2.125,5.125 -6.4375,5.125 h -4.29688 z m 0,0"
             id="path1" />
        </g>
      </g>
    </g>
    <g
       inkscape:label=""
       transform="translate(118.72765,127.88653)"
       id="g8">
      <g
         fill="#000000"
         fill-opacity="1"
         id="g7"
         transform="matrix(0.352778,0,0,0.352778,-1.14957,-0.521009)">
        <g
           id="g6"
           transform="translate(1.993,18.93)">
          <path
             d="m 15.734375,-17.21875 c 0,-0.234375 -0.171875,-0.234375 -0.21875,-0.234375 -0.109375,0 -0.125,0.03125 -0.421875,0.40625 -0.15625,0.171875 -1.171875,1.453125 -1.1875,1.484375 -0.828125,-1.609375 -2.453125,-1.890625 -3.5,-1.890625 -3.140625,0 -6,2.875 -6,5.6875 0,1.859375 1.125,2.9375 2.328125,3.359375 0.28125,0.109375 1.734375,0.5 2.484375,0.671875 1.265625,0.34375 1.578125,0.453125 2.109375,1 0.09375,0.125 0.59375,0.6875 0.59375,1.859375 0,2.296875 -2.140625,4.671875 -4.609375,4.671875 -2.03125,0 -4.296875,-0.859375 -4.296875,-3.640625 0,-0.46875 0.109375,-1.0625 0.1875,-1.3125 0,-0.078125 0.015625,-0.203125 0.015625,-0.25 0,-0.09375 -0.046875,-0.21875 -0.25,-0.21875 -0.21875,0 -0.25,0.046875 -0.34375,0.46875 l -1.265625,5.078125 c 0,0.03125 -0.09375,0.34375 -0.09375,0.375 0,0.21875 0.203125,0.21875 0.25,0.21875 0.09375,0 0.125,-0.015625 0.421875,-0.390625 l 1.140625,-1.484375 c 0.59375,0.890625 1.875,1.875 4.1875,1.875 3.1875,0 6.109375,-3.09375 6.109375,-6.1875 0,-1.046875 -0.234375,-1.953125 -1.1875,-2.875 C 11.671875,-9.0625 11.21875,-9.1875 8.953125,-9.78125 7.28125,-10.234375 7.0625,-10.3125 6.609375,-10.703125 6.1875,-11.125 5.875,-11.71875 5.875,-12.5625 c 0,-2.078125 2.109375,-4.21875 4.453125,-4.21875 2.4375,0 3.578125,1.484375 3.578125,3.84375 0,0.640625 -0.125,1.3125 -0.125,1.421875 0,0.21875 0.203125,0.21875 0.265625,0.21875 0.234375,0 0.25,-0.07813 0.34375,-0.46875 z m 0,0"
             id="path5" />
        </g>
      </g>
    </g>
    <g
       inkscape:label=""
       transform="translate(65.704966,121.10614)"
       id="g12">
      <g
         clip-path="url(#clipPath4011)"
         id="g10"
         transform="matrix(0.352778,0,0,0.352778,-0.434807,-0.701366)">
        <g
           fill="#000000"
           fill-opacity="1"
           id="g9">
          <g
             id="use3"
             transform="translate(2.132,19.66)">
            <path
               d="m 13.265625,-14.796875 c -0.3125,0.28125 -1.21875,1.140625 -1.21875,1.484375 0,0.25 0.21875,0.46875 0.46875,0.46875 0.21875,0 0.328125,-0.140625 0.5,-0.390625 0.59375,-0.75 1.265625,-1.21875 1.828125,-1.53125 0.25,-0.15625 0.421875,-0.234375 0.421875,-0.5 0,-0.21875 -0.203125,-0.34375 -0.34375,-0.46875 -0.703125,-0.46875 -0.875,-1.140625 -0.9375,-1.4375 -0.07813,-0.203125 -0.15625,-0.5 -0.5,-0.5 -0.15625,0 -0.453125,0.109375 -0.453125,0.46875 0,0.234375 0.15625,0.828125 0.625,1.484375 H 5.328125 c -0.421875,0 -0.84375,0 -0.84375,0.484375 0,0.4375 0.453125,0.4375 0.84375,0.4375 z m 0,0"
               id="path8" />
          </g>
        </g>
      </g>
      <g
         fill="#000000"
         fill-opacity="1"
         id="g11"
         transform="matrix(0.352778,0,0,0.352778,-0.434807,-0.701366)">
        <g
           id="use4"
           transform="translate(1.99815,19.66)">
          <path
             d="m 1.0625,3.140625 c -0.171875,0.75 -0.265625,0.953125 -1.28125,0.953125 -0.296875,0 -0.546875,0 -0.546875,0.46875 0,0.046875 0.015625,0.25 0.296875,0.25 0.3125,0 0.671875,-0.046875 0.984375,-0.046875 H 1.59375 c 0.515625,0 1.78125,0.046875 2.296875,0.046875 0.15625,0 0.453125,0 0.453125,-0.453125 0,-0.265625 -0.1875,-0.265625 -0.609375,-0.265625 -1.125,0 -1.203125,-0.171875 -1.203125,-0.375 0,-0.296875 1.109375,-4.5625 1.265625,-5.125 0.265625,0.6875 0.9375,1.65625 2.21875,1.65625 2.8125,0 5.828125,-3.640625 5.828125,-7.28125 0,-2.28125 -1.28125,-3.890625 -3.140625,-3.890625 -1.59375,0 -2.921875,1.53125 -3.203125,1.875 -0.203125,-1.234375 -1.15625,-1.875 -2.15625,-1.875 -0.71875,0 -1.28125,0.34375 -1.75,1.28125 -0.453125,0.890625 -0.796875,2.40625 -0.796875,2.5 0,0.109375 0.09375,0.234375 0.265625,0.234375 0.203125,0 0.21875,-0.03125 0.375,-0.609375 0.375,-1.453125 0.84375,-2.921875 1.828125,-2.921875 0.578125,0 0.78125,0.40625 0.78125,1.140625 0,0.59375 -0.078125,0.84375 -0.1875,1.296875 z m 4.296875,-10.875 c 0.171875,-0.6875 0.859375,-1.40625 1.25,-1.75 0.28125,-0.25 1.09375,-0.953125 2.046875,-0.953125 1.078125,0 1.578125,1.09375 1.578125,2.390625 0,1.1875 -0.6875,3.984375 -1.3125,5.265625 C 8.296875,-1.4375 7.15625,-0.25 6.015625,-0.25 4.34375,-0.25 4.0625,-2.375 4.0625,-2.484375 4.0625,-2.546875 4.109375,-2.75 4.140625,-2.875 Z m 0,0"
             id="path6" />
        </g>
      </g>
    </g>
    <g
       inkscape:label=""
       transform="translate(29.497657,162.87337)"
       id="g15">
      <g
         fill="#000000"
         fill-opacity="1"
         id="g14"
         transform="matrix(0.352778,0,0,0.352778,-0.923572,-0.708422)">
        <g
           id="g13"
           transform="translate(1.993,18.93)">
          <path
             d="M 11.765625,-10.0625 9.4375,-15.484375 c 0.328125,-0.59375 1.0625,-0.703125 1.359375,-0.71875 0.15625,0 0.421875,-0.03125 0.421875,-0.453125 0,-0.265625 -0.21875,-0.265625 -0.359375,-0.265625 -0.421875,0 -0.921875,0.04687 -1.34375,0.04687 h -1.4375 c -1.515625,0 -2.59375,-0.04687 -2.625,-0.04687 -0.203125,0 -0.453125,0 -0.453125,0.46875 0,0.25 0.234375,0.25 0.546875,0.25 1.4375,0 1.546875,0.25 1.78125,0.84375 l 2.953125,6.890625 -5.375,5.75 c -0.890625,0.953125 -1.953125,1.90625 -3.796875,2 C 0.8125,-0.6875 0.625,-0.6875 0.625,-0.25 0.625,-0.171875 0.640625,0 0.921875,0 c 0.34375,0 0.71875,-0.046875 1.0625,-0.046875 h 1.15625 C 3.9375,-0.046875 4.8125,0 5.578125,0 5.75,0 6.046875,0 6.046875,-0.453125 6.046875,-0.6875 5.875,-0.71875 5.71875,-0.71875 5.234375,-0.765625 4.90625,-1.046875 4.90625,-1.4375 c 0,-0.421875 0.296875,-0.71875 1.015625,-1.46875 L 8.125,-5.296875 C 8.671875,-5.875 9.984375,-7.3125 10.53125,-7.859375 l 2.609375,6.09375 c 0.01563,0.0625 0.125,0.296875 0.125,0.328125 0,0.21875 -0.546875,0.671875 -1.34375,0.71875 C 11.765625,-0.71875 11.5,-0.6875 11.5,-0.25 11.5,0 11.75,0 11.875,0 c 0.421875,0 0.90625,-0.046875 1.328125,-0.046875 H 15.9375 C 16.375,-0.046875 16.84375,0 17.265625,0 c 0.1875,0 0.453125,0 0.453125,-0.46875 0,-0.25 -0.25,-0.25 -0.46875,-0.25 C 15.765625,-0.75 15.71875,-0.875 15.296875,-1.78125 l -3.28125,-7.6875 3.15625,-3.375 c 0.234375,-0.234375 0.8125,-0.859375 1.03125,-1.109375 1.0625,-1.109375 2.0625,-2.125 4.0625,-2.25 0.25,-0.03125 0.5,-0.03125 0.5,-0.453125 0,-0.265625 -0.21875,-0.265625 -0.328125,-0.265625 -0.34375,0 -0.71875,0.04687 -1.0625,0.04687 h -1.140625 c -0.78125,0 -1.65625,-0.04687 -2.421875,-0.04687 -0.171875,0 -0.46875,0 -0.46875,0.4375 0,0.25 0.171875,0.28125 0.3125,0.28125 0.40625,0.04687 0.828125,0.25 0.828125,0.71875 l -0.03125,0.04687 c -0.01563,0.171875 -0.07813,0.421875 -0.34375,0.71875 z m 0,0"
             id="path12" />
        </g>
      </g>
    </g>
    <g
       inkscape:label=""
       transform="translate(118.18522,149.85501)"
       id="g18">
      <g
         fill="#000000"
         fill-opacity="1"
         id="g17"
         transform="matrix(0.352778,0,0,0.352778,-0.989718,-0.708422)">
        <g
           id="g16"
           transform="translate(1.993,18.93)">
          <path
             d="m 14.578125,-14.171875 0.5625,-0.578125 c 1.09375,-1.109375 2.015625,-1.375 2.875,-1.453125 0.265625,-0.03125 0.5,-0.04687 0.5,-0.46875 0,-0.25 -0.25,-0.25 -0.296875,-0.25 -0.296875,0 -0.625,0.04687 -0.921875,0.04687 H 16.28125 c -0.71875,0 -1.484375,-0.04687 -2.1875,-0.04687 -0.171875,0 -0.4375,0 -0.4375,0.46875 0,0.21875 0.25,0.25 0.328125,0.25 0.734375,0.04687 0.734375,0.421875 0.734375,0.5625 0,0.28125 -0.203125,0.640625 -0.6875,1.21875 L 8.125,-7.65625 5.328125,-15.1875 c -0.15625,-0.34375 -0.15625,-0.40625 -0.15625,-0.453125 0,-0.515625 1.015625,-0.5625 1.328125,-0.5625 0.296875,0 0.5625,0 0.5625,-0.453125 0,-0.265625 -0.21875,-0.265625 -0.375,-0.265625 -0.421875,0 -0.90625,0.04687 -1.328125,0.04687 h -2.75 c -0.453125,0 -0.921875,-0.04687 -1.34375,-0.04687 -0.171875,0 -0.453125,0 -0.453125,0.46875 0,0.25 0.234375,0.25 0.59375,0.25 1.21875,0 1.4375,0.21875 1.671875,0.796875 l 3.0625,8.25 C 6.171875,-7.09375 6.25,-6.8125 6.25,-6.734375 c 0,0.0625 -1.21875,4.953125 -1.296875,5.203125 -0.1875,0.65625 -0.4375,0.78125 -2.03125,0.8125 -0.421875,0 -0.625,0 -0.625,0.46875 0,0.25 0.28125,0.25 0.359375,0.25 0.4375,0 0.96875,-0.046875 1.4375,-0.046875 h 2.921875 c 0.4375,0 0.96875,0.046875 1.40625,0.046875 0.171875,0 0.46875,0 0.46875,-0.453125 0,-0.265625 -0.171875,-0.265625 -0.59375,-0.265625 -1.53125,0 -1.53125,-0.171875 -1.53125,-0.453125 C 6.765625,-1.34375 6.96875,-2.125 7.09375,-2.625 L 7.984375,-6.1875 C 8.125,-6.71875 8.125,-6.765625 8.34375,-7.015625 Z m 0,0"
             id="path15" />
        </g>
      </g>
    </g>
    <path
       style="fill:#000000;stroke:#000000;stroke-width:0.3;stroke-dasharray:none;marker-end:url(#Triangle)"
       d="M 54.189605,148.02165 53.932631,126.70658"
       id="path18" />
    <path
       style="fill:#000000;stroke:#000000;stroke-width:0.3;stroke-dasharray:none;marker-end:url(#Triangle)"
       d="m 54.189605,148.02165 18.024514,0.23762"
       id="path19" />
    <path
       style="fill:#000000;stroke:#000000;stroke-width:0.3;stroke-dasharray:none;marker-end:url(#Triangle)"
       d="m 54.189605,148.02165 -11.531854,6.65792"
       id="path20" />
    <g
       inkscape:label=""
       transform="translate(44.510241,153.24526)"
       id="g26">
      <g
         fill="#000000"
         fill-opacity="1"
         id="g22"
         transform="matrix(0.352778,0,0,0.352778,-0.940109,-0.70657)">
        <g
           id="g21"
           transform="translate(3.552,19.205999)">
          <path
             d="m 5.671875,-17.203125 -3.046875,3.375 0.296875,0.296875 2.75,-2.671875 2.75,2.671875 0.296875,-0.296875 z m 0,0"
             id="path21" />
        </g>
      </g>
      <g
         fill="#000000"
         fill-opacity="1"
         id="g24"
         transform="matrix(0.352778,0,0,0.352778,-0.940109,-0.70657)">
        <g
           id="g23"
           transform="translate(1.993,19.207001)">
          <path
             d="M 5.109375,-7.265625 C 5.15625,-7.40625 5.78125,-8.65625 6.6875,-9.4375 c 0.640625,-0.59375 1.484375,-1 2.453125,-1 1,0 1.34375,0.75 1.34375,1.734375 0,1.421875 -1.015625,4.25 -1.515625,5.578125 C 8.75,-2.53125 8.625,-2.203125 8.625,-1.765625 c 0,1.125 0.765625,2.015625 1.953125,2.015625 2.3125,0 3.171875,-3.640625 3.171875,-3.796875 0,-0.125 -0.09375,-0.21875 -0.25,-0.21875 -0.21875,0 -0.234375,0.078125 -0.359375,0.5 C 12.5625,-1.234375 11.625,-0.25 10.65625,-0.25 c -0.25,0 -0.640625,-0.015625 -0.640625,-0.8125 0,-0.625 0.265625,-1.359375 0.421875,-1.71875 0.484375,-1.359375 1.53125,-4.125 1.53125,-5.546875 0,-1.484375 -0.859375,-2.59375 -2.75,-2.59375 -2.203125,0 -3.375,1.546875 -3.8125,2.171875 -0.078125,-1.40625 -1.09375,-2.171875 -2.1875,-2.171875 -0.796875,0 -1.328125,0.46875 -1.75,1.3125 -0.453125,0.890625 -0.796875,2.375 -0.796875,2.46875 0,0.109375 0.09375,0.234375 0.265625,0.234375 0.203125,0 0.234375,-0.03125 0.375,-0.609375 0.390625,-1.5 0.84375,-2.921875 1.828125,-2.921875 0.578125,0 0.78125,0.40625 0.78125,1.140625 0,0.546875 -0.25,1.515625 -0.421875,2.28125 L 2.796875,-4.34375 c -0.09375,0.484375 -0.375,1.59375 -0.5,2.046875 C 2.125,-1.65625 1.859375,-0.5 1.859375,-0.375 1.859375,-0.03125 2.125,0.25 2.5,0.25 c 0.296875,0 0.640625,-0.15625 0.84375,-0.515625 0.046875,-0.125 0.28125,-1 0.390625,-1.5 l 0.546875,-2.21875 z m 0,0"
             id="path7" />
        </g>
      </g>
      <g
         fill="#000000"
         fill-opacity="1"
         id="g25"
         transform="matrix(0.352778,0,0,0.352778,-0.940109,-0.70657)">
        <g
           id="use5"
           transform="translate(16.48,22.924999)">
          <path
             d="m 8.15625,-7.03125 c -0.546875,0.109375 -0.75,0.515625 -0.75,0.84375 0,0.421875 0.328125,0.5625 0.5625,0.5625 0.515625,0 0.875,-0.453125 0.875,-0.921875 0,-0.71875 -0.8125,-1.046875 -1.546875,-1.046875 -1.046875,0 -1.625,1.03125 -1.78125,1.359375 -0.40625,-1.296875 -1.46875,-1.359375 -1.78125,-1.359375 -1.75,0 -2.6875,2.25 -2.6875,2.640625 0,0.0625 0.078125,0.15625 0.1875,0.15625 0.140625,0 0.171875,-0.109375 0.21875,-0.171875 C 2.03125,-6.890625 3.1875,-7.25 3.6875,-7.25 c 0.765625,0 0.921875,0.71875 0.921875,1.140625 0,0.375 -0.09375,0.765625 -0.296875,1.59375 L 3.71875,-2.15625 c -0.25,1.03125 -0.75,1.984375 -1.671875,1.984375 -0.078125,0 -0.515625,0 -0.875,-0.21875 0.625,-0.125 0.75,-0.640625 0.75,-0.84375 0,-0.34375 -0.25,-0.5625 -0.578125,-0.5625 -0.40625,0 -0.859375,0.375 -0.859375,0.921875 0,0.71875 0.8125,1.046875 1.546875,1.046875 0.828125,0 1.40625,-0.65625 1.78125,-1.359375 0.265625,1.015625 1.125,1.359375 1.765625,1.359375 1.75,0 2.6875,-2.25 2.6875,-2.640625 0,-0.078125 -0.0625,-0.15625 -0.171875,-0.15625 -0.15625,0 -0.171875,0.09375 -0.21875,0.234375 -0.46875,1.515625 -1.46875,2.21875 -2.25,2.21875 -0.59375,0 -0.921875,-0.453125 -0.921875,-1.15625 0,-0.375 0.0625,-0.65625 0.34375,-1.78125 l 0.59375,-2.34375 C 5.90625,-6.484375 6.484375,-7.25 7.28125,-7.25 c 0.03125,0 0.515625,0 0.875,0.21875 z m 0,0"
             id="path24" />
        </g>
      </g>
    </g>
    <g
       inkscape:label=""
       transform="translate(71.264826,150.22989)"
       id="g33">
      <g
         fill="#000000"
         fill-opacity="1"
         id="g28"
         transform="matrix(0.352778,0,0,0.352778,-0.940109,-0.706217)">
        <g
           id="g27"
           transform="translate(3.552,19.205)">
          <path
             d="m 5.671875,-17.203125 -3.046875,3.375 0.296875,0.296875 2.75,-2.671875 2.75,2.671875 0.296875,-0.296875 z m 0,0"
             id="path26" />
        </g>
      </g>
      <g
         fill="#000000"
         fill-opacity="1"
         id="g30"
         transform="matrix(0.352778,0,0,0.352778,-0.940109,-0.706217)">
        <g
           id="g29"
           transform="translate(1.993,19.207001)">
          <path
             d="M 5.109375,-7.265625 C 5.15625,-7.40625 5.78125,-8.65625 6.6875,-9.4375 c 0.640625,-0.59375 1.484375,-1 2.453125,-1 1,0 1.34375,0.75 1.34375,1.734375 0,1.421875 -1.015625,4.25 -1.515625,5.578125 C 8.75,-2.53125 8.625,-2.203125 8.625,-1.765625 c 0,1.125 0.765625,2.015625 1.953125,2.015625 2.3125,0 3.171875,-3.640625 3.171875,-3.796875 0,-0.125 -0.09375,-0.21875 -0.25,-0.21875 -0.21875,0 -0.234375,0.078125 -0.359375,0.5 C 12.5625,-1.234375 11.625,-0.25 10.65625,-0.25 c -0.25,0 -0.640625,-0.015625 -0.640625,-0.8125 0,-0.625 0.265625,-1.359375 0.421875,-1.71875 0.484375,-1.359375 1.53125,-4.125 1.53125,-5.546875 0,-1.484375 -0.859375,-2.59375 -2.75,-2.59375 -2.203125,0 -3.375,1.546875 -3.8125,2.171875 -0.078125,-1.40625 -1.09375,-2.171875 -2.1875,-2.171875 -0.796875,0 -1.328125,0.46875 -1.75,1.3125 -0.453125,0.890625 -0.796875,2.375 -0.796875,2.46875 0,0.109375 0.09375,0.234375 0.265625,0.234375 0.203125,0 0.234375,-0.03125 0.375,-0.609375 0.390625,-1.5 0.84375,-2.921875 1.828125,-2.921875 0.578125,0 0.78125,0.40625 0.78125,1.140625 0,0.546875 -0.25,1.515625 -0.421875,2.28125 L 2.796875,-4.34375 c -0.09375,0.484375 -0.375,1.59375 -0.5,2.046875 C 2.125,-1.65625 1.859375,-0.5 1.859375,-0.375 1.859375,-0.03125 2.125,0.25 2.5,0.25 c 0.296875,0 0.640625,-0.15625 0.84375,-0.515625 0.046875,-0.125 0.28125,-1 0.390625,-1.5 l 0.546875,-2.21875 z m 0,0"
             id="path28" />
        </g>
      </g>
      <g
         fill="#000000"
         fill-opacity="1"
         id="g32"
         transform="matrix(0.352778,0,0,0.352778,-0.940109,-0.706217)">
        <g
           id="g31"
           transform="translate(16.48,22.924999)">
          <path
             d="m 4.53125,1.921875 c -0.46875,0.65625 -1.140625,1.25 -1.984375,1.25 -0.203125,0 -1.03125,-0.03125 -1.296875,-0.828125 0.0625,0.015625 0.140625,0.015625 0.171875,0.015625 0.53125,0 0.875,-0.453125 0.875,-0.84375 0,-0.390625 -0.328125,-0.53125 -0.59375,-0.53125 -0.28125,0 -0.875,0.203125 -0.875,1.046875 0,0.875 0.734375,1.484375 1.71875,1.484375 1.71875,0 3.46875,-1.59375 3.9375,-3.5 l 1.6875,-6.71875 c 0.03125,-0.078125 0.0625,-0.1875 0.0625,-0.28125 0,-0.265625 -0.203125,-0.4375 -0.46875,-0.4375 -0.15625,0 -0.515625,0.0625 -0.65625,0.59375 L 5.84375,-1.78125 C 5.75,-1.46875 5.75,-1.421875 5.609375,-1.234375 5.265625,-0.75 4.703125,-0.171875 3.875,-0.171875 c -0.96875,0 -1.046875,-0.953125 -1.046875,-1.40625 0,-0.984375 0.453125,-2.3125 0.921875,-3.546875 0.1875,-0.5 0.296875,-0.75 0.296875,-1.09375 0,-0.71875 -0.515625,-1.375 -1.359375,-1.375 -1.578125,0 -2.21875,2.5 -2.21875,2.640625 0,0.0625 0.0625,0.15625 0.1875,0.15625 0.15625,0 0.171875,-0.078125 0.234375,-0.3125 C 1.3125,-6.5625 1.96875,-7.25 2.640625,-7.25 c 0.15625,0 0.4375,0 0.4375,0.5625 0,0.453125 -0.1875,0.953125 -0.4375,1.609375 -0.84375,2.25 -0.84375,2.828125 -0.84375,3.234375 0,1.640625 1.171875,2.015625 2.03125,2.015625 0.5,0 1.109375,-0.15625 1.71875,-0.796875 L 5.5625,-0.609375 C 5.296875,0.40625 5.125,1.078125 4.53125,1.921875 Z m 0,0"
             id="path30" />
        </g>
      </g>
    </g>
    <g
       inkscape:label=""
       transform="translate(44.165712,119.76664)"
       id="g40">
      <g
         fill="#000000"
         fill-opacity="1"
         id="g35"
         transform="matrix(0.352778,0,0,0.352778,-0.940109,-0.70657)">
        <g
           id="g34"
           transform="translate(3.552,19.205999)">
          <path
             d="m 5.671875,-17.203125 -3.046875,3.375 0.296875,0.296875 2.75,-2.671875 2.75,2.671875 0.296875,-0.296875 z m 0,0"
             id="path33" />
        </g>
      </g>
      <g
         fill="#000000"
         fill-opacity="1"
         id="g37"
         transform="matrix(0.352778,0,0,0.352778,-0.940109,-0.70657)">
        <g
           id="g36"
           transform="translate(1.993,19.207001)">
          <path
             d="M 5.109375,-7.265625 C 5.15625,-7.40625 5.78125,-8.65625 6.6875,-9.4375 c 0.640625,-0.59375 1.484375,-1 2.453125,-1 1,0 1.34375,0.75 1.34375,1.734375 0,1.421875 -1.015625,4.25 -1.515625,5.578125 C 8.75,-2.53125 8.625,-2.203125 8.625,-1.765625 c 0,1.125 0.765625,2.015625 1.953125,2.015625 2.3125,0 3.171875,-3.640625 3.171875,-3.796875 0,-0.125 -0.09375,-0.21875 -0.25,-0.21875 -0.21875,0 -0.234375,0.078125 -0.359375,0.5 C 12.5625,-1.234375 11.625,-0.25 10.65625,-0.25 c -0.25,0 -0.640625,-0.015625 -0.640625,-0.8125 0,-0.625 0.265625,-1.359375 0.421875,-1.71875 0.484375,-1.359375 1.53125,-4.125 1.53125,-5.546875 0,-1.484375 -0.859375,-2.59375 -2.75,-2.59375 -2.203125,0 -3.375,1.546875 -3.8125,2.171875 -0.078125,-1.40625 -1.09375,-2.171875 -2.1875,-2.171875 -0.796875,0 -1.328125,0.46875 -1.75,1.3125 -0.453125,0.890625 -0.796875,2.375 -0.796875,2.46875 0,0.109375 0.09375,0.234375 0.265625,0.234375 0.203125,0 0.234375,-0.03125 0.375,-0.609375 0.390625,-1.5 0.84375,-2.921875 1.828125,-2.921875 0.578125,0 0.78125,0.40625 0.78125,1.140625 0,0.546875 -0.25,1.515625 -0.421875,2.28125 L 2.796875,-4.34375 c -0.09375,0.484375 -0.375,1.59375 -0.5,2.046875 C 2.125,-1.65625 1.859375,-0.5 1.859375,-0.375 1.859375,-0.03125 2.125,0.25 2.5,0.25 c 0.296875,0 0.640625,-0.15625 0.84375,-0.515625 0.046875,-0.125 0.28125,-1 0.390625,-1.5 l 0.546875,-2.21875 z m 0,0"
             id="path35" />
        </g>
      </g>
      <g
         fill="#000000"
         fill-opacity="1"
         id="g39"
         transform="matrix(0.352778,0,0,0.352778,-0.940109,-0.70657)">
        <g
           id="g38"
           transform="translate(16.48,22.924999)">
          <path
             d="m 2.1875,-1.390625 c 0.734375,-0.84375 1.34375,-1.375 2.203125,-2.15625 C 5.421875,-4.4375 5.875,-4.875 6.109375,-5.125 7.3125,-6.3125 7.921875,-7.3125 7.921875,-7.453125 7.921875,-7.59375 7.78125,-7.59375 7.75,-7.59375 c -0.125,0 -0.15625,0.0625 -0.25,0.1875 -0.421875,0.75 -0.84375,1.109375 -1.28125,1.109375 -0.359375,0 -0.546875,-0.15625 -0.875,-0.578125 -0.375,-0.421875 -0.65625,-0.71875 -1.15625,-0.71875 -1.265625,0 -2.015625,1.5625 -2.015625,1.921875 0,0.0625 0.015625,0.15625 0.171875,0.15625 0.140625,0 0.15625,-0.0625 0.203125,-0.1875 0.296875,-0.6875 1.125,-0.8125 1.453125,-0.8125 0.359375,0 0.703125,0.125 1.0625,0.28125 0.65625,0.28125 0.921875,0.28125 1.109375,0.28125 0.109375,0 0.1875,0 0.265625,-0.015625 -0.5625,0.671875 -1.5,1.484375 -2.265625,2.203125 l -1.75,1.59375 c -1.046875,1.0625 -1.6875,2.078125 -1.6875,2.203125 0,0.109375 0.09375,0.140625 0.203125,0.140625 0.09375,0 0.109375,-0.015625 0.234375,-0.21875 C 1.453125,-0.484375 2,-1.125 2.640625,-1.125 3,-1.125 3.171875,-1 3.515625,-0.5625 3.84375,-0.1875 4.125,0.171875 4.6875,0.171875 c 1.6875,0 2.640625,-2.1875 2.640625,-2.578125 0,-0.078125 -0.015625,-0.171875 -0.1875,-0.171875 -0.125,0 -0.15625,0.0625 -0.203125,0.234375 -0.375,1.015625 -1.390625,1.4375 -2.0625,1.4375 -0.359375,0 -0.703125,-0.125 -1.0625,-0.28125 -0.703125,-0.28125 -0.890625,-0.28125 -1.109375,-0.28125 -0.171875,0 -0.359375,0 -0.515625,0.078125 z m 0,0"
             id="path37" />
        </g>
      </g>
    </g>
  </g>
</svg>
